<?xml version="1.0" encoding="UTF-8"?>
<svg width="224px" height="45px" viewBox="0 0 224 45" version="1.1" xmlns="http://www.w3.org/2000/svg" xmlns:xlink="http://www.w3.org/1999/xlink">
    <title>Mediant_logo</title>
    <g id="Symbols" stroke="none" stroke-width="1" fill="none" fill-rule="evenodd">
        <g id="Desktop-Header" transform="translate(-131, -28)" fill-rule="nonzero">
            <g id="Mediant_logo" transform="translate(131, 28)">
                <g id="Group" transform="translate(0, 2.5962)" fill="#0047BB">
                    <polygon id="Path" points="14.0450185 21.5793088 13.8825858 21.5793088 4.93795563 8.29890833 4.93795563 28.5469563 0 28.5469563 0 0.203983516 5.34945194 0.203983516 14.0558474 13.6132157 22.751414 0.203983516 28.1008659 0.203983516 28.1008659 28.5576923 23.0762795 28.5576923 23.0762795 8.22375651"></polygon>
                    <polygon id="Path" points="62.6448977 4.65941296 46.4774245 4.65941296 46.4774245 12.0350275 60.814822 12.0350275 60.814822 16.4904569 46.4774245 16.4904569 46.4774245 24.1022629 62.8614747 24.1022629 62.8614747 28.5576923 41.4528381 28.5576923 41.4528381 0.203983516 62.6557265 0.203983516 62.6557265 4.65941296"></polygon>
                    <path d="M85.1689058,28.5469563 L74.5133173,28.5469563 L74.5133173,0.203983516 L85.1797347,0.203983516 C94.1676802,0.203983516 100.372611,6.32348901 100.372611,14.343262 C100.372611,22.352299 94.1568514,28.5469563 85.1689058,28.5469563 Z M85.1689058,4.73456478 L79.5270749,4.73456478 L79.5270749,24.0163751 L85.1689058,24.0163751 C91.1680887,24.0163751 95.0989613,20.0118566 95.0989613,14.4184138 C95.0989613,8.82497108 91.1789176,4.73456478 85.1689058,4.73456478 Z" id="Shape"></path>
                    <path d="M154.527691,28.5469563 L149.221554,28.5469563 L146.319422,21.7081405 L132.794188,21.7081405 L129.848741,28.5469563 L124.705037,28.5469563 L137.288161,0 L141.944567,0 L154.527691,28.5469563 Z M139.540562,5.9477299 L134.635093,17.284919 L144.478518,17.284919 L139.540562,5.9477299 Z" id="Shape"></path>
                    <polygon id="Path" points="184.122938 0.203983516 189.060893 0.203983516 189.060893 28.5576923 184.848471 28.5576923 169.081665 8.3955321 169.081665 28.5576923 164.143709 28.5576923 164.143709 0.203983516 168.800115 0.203983516 184.122938 19.807873 184.122938 0.203983516"></polygon>
                    <polygon id="Path" points="214.205483 28.5469563 209.137581 28.5469563 209.137581 4.82045257 200.073834 4.82045257 200.073834 0.203983516 223.269231 0.203983516 223.269231 4.82045257 214.205483 4.82045257 214.205483 28.5469563"></polygon>
                </g>
                <g id="Group" transform="translate(0, 38.0769)" fill="#0093C9">
                    <polygon id="Path" points="4.2399572 6.75370501 4.2399572 3.8743825 1.48182178 3.8743825 1.48182178 6.75370501 0 6.75370501 0 0.211714891 1.48182178 0.211714891 1.48182178 2.7099506 4.25077342 2.7099506 4.25077342 0.211714891 5.73259519 0.211714891 5.73259519 6.75370501"></polygon>
                    <polygon id="Path" points="15.5645368 6.75370501 15.5645368 0.211714891 19.707148 0.211714891 19.707148 1.38673253 17.0463585 1.38673253 17.0463585 2.73112209 19.6098021 2.73112209 19.6098021 3.86379675 17.0463585 3.86379675 17.0463585 5.57868737 19.8477588 5.57868737 19.8477588 6.75370501"></polygon>
                    <path d="M33.5086413,6.75370501 L33.0868089,5.5151729 L30.6098951,5.5151729 L30.1880626,6.75370501 L28.7278733,6.75370501 L31.0966249,0.201129146 L32.697425,0.201129146 L35.0769929,6.75370501 L33.5086413,6.75370501 Z M32.1566142,2.7099506 C32.0160033,2.29710656 31.897025,1.75723359 31.8753925,1.51376147 L31.8537601,1.51376147 C31.8213114,1.75723359 31.6915168,2.29710656 31.550906,2.7099506 L30.9884627,4.42484121 L32.7298737,4.42484121 L32.1566142,2.7099506 Z" id="Shape"></path>
                    <polygon id="Path" points="44.2058803 6.75370501 44.2058803 0.211714891 45.6877021 0.211714891 45.6877021 5.57868737 48.4025726 5.57868737 48.4025726 6.75370501"></polygon>
                    <polygon id="Path" points="59.5540927 1.38673253 59.5540927 6.75370501 58.0722709 6.75370501 58.0722709 1.38673253 56.0171896 1.38673253 56.0171896 0.211714891 61.609174 0.211714891 61.609174 1.38673253"></polygon>
                    <polygon id="Path" points="74.8265916 6.75370501 74.8265916 3.8743825 72.05764 3.8743825 72.05764 6.75370501 70.5758182 6.75370501 70.5758182 0.211714891 72.05764 0.211714891 72.05764 2.7099506 74.8265916 2.7099506 74.8265916 0.211714891 76.3084134 0.211714891 76.3084134 6.75370501"></polygon>
                    <path d="M100.720616,6.75370501 L99.379405,4.53069866 C99.1630806,4.17078335 98.9575725,4.13902611 98.8061455,4.13902611 L98.3734968,4.13902611 L98.3734968,6.75370501 L96.891675,6.75370501 L96.891675,0.211714891 L99.0657347,0.211714891 C100.039194,0.211714891 101.942849,0.275229358 101.942849,2.09597742 C101.942849,3.1863091 101.077551,3.6838391 100.482659,3.76852505 C100.753065,4.24488356 101.899584,5.90684545 102.505292,6.75370501 L100.720616,6.75370501 Z M99.0981833,1.32321807 L98.3734968,1.32321807 L98.3734968,3.05928017 L99.1738969,3.05928017 C99.7471564,3.05928017 100.406946,2.88990826 100.406946,2.17007763 C100.406946,1.41848977 99.6822591,1.32321807 99.0981833,1.32321807 Z" id="Shape"></path>
                    <polygon id="Path" points="111.482752 6.75370501 111.482752 0.211714891 115.625363 0.211714891 115.625363 1.38673253 112.964574 1.38673253 112.964574 2.73112209 115.528017 2.73112209 115.528017 3.86379675 112.964574 3.86379675 112.964574 5.57868737 115.765974 5.57868737 115.765974 6.75370501"></polygon>
                    <path d="M126.766067,6.91249118 C125.965667,6.91249118 125.32751,6.69019054 124.884045,6.47847565 L125.295062,5.34580099 C125.662813,5.56810162 126.279338,5.76923077 126.841781,5.76923077 C127.469121,5.76923077 127.945035,5.52575865 127.945035,4.98588567 C127.945035,4.49894143 127.469121,4.29781228 127.079738,4.13902611 L126.582192,3.93789697 C125.695262,3.56739591 124.992208,3.0910374 124.992208,2.02187721 C124.992208,0.889202541 125.933219,0.0423429781 127.404224,0.0423429781 C127.999116,0.0423429781 128.680538,0.148200423 129.232165,0.412844037 L128.799516,1.51376147 C128.410132,1.29146083 127.923403,1.15384615 127.404224,1.15384615 C126.625456,1.15384615 126.430765,1.58786168 126.430765,1.87367678 C126.430765,2.3288638 126.895862,2.5194072 127.27443,2.68877911 L127.771976,2.900494 C128.637273,3.27099506 129.394408,3.73676782 129.394408,4.78475653 C129.383592,6.33027523 128.139727,6.91249118 126.766067,6.91249118 Z" id="Path"></path>
                    <path d="M141.216534,6.92307692 C139.550836,6.92307692 138.101463,6.04446013 138.101463,3.46153846 C138.101463,0.91037403 139.799609,0 141.22735,0 C142.893047,0 144.331604,0.878616796 144.331604,3.46153846 C144.331604,6.02328864 142.644274,6.92307692 141.216534,6.92307692 Z M141.216534,1.18560339 C139.994301,1.18560339 139.62655,2.24417784 139.62655,3.47212421 C139.62655,4.70007057 140.015934,5.74805928 141.216534,5.74805928 C142.438766,5.74805928 142.806518,4.68948483 142.806518,3.47212421 C142.806518,2.24417784 142.42795,1.18560339 141.216534,1.18560339 Z" id="Shape"></path>
                    <path d="M156.196995,6.91249118 C154.239259,6.91249118 153.309065,6.03387438 153.309065,4.26605505 L153.309065,0.201129146 L154.790886,0.201129146 L154.790886,4.21312632 C154.790886,5.07057163 155.18027,5.72688779 156.229443,5.72688779 C157.2678,5.72688779 157.635552,5.08115737 157.635552,4.21312632 L157.635552,0.201129146 L159.074109,0.201129146 L159.074109,4.26605505 C159.063292,6.02328864 158.176362,6.91249118 156.196995,6.91249118 Z" id="Path"></path>
                    <path d="M172.259077,6.75370501 L170.928683,4.53069866 C170.712358,4.17078335 170.496034,4.13902611 170.344607,4.13902611 L169.911958,4.13902611 L169.911958,6.75370501 L168.430137,6.75370501 L168.430137,0.211714891 L170.59338,0.211714891 C171.56684,0.211714891 173.470494,0.275229358 173.470494,2.09597742 C173.470494,3.1863091 172.59438,3.6838391 172.010304,3.76852505 C172.28071,4.24488356 173.416413,5.90684545 174.032937,6.75370501 L172.259077,6.75370501 Z M170.636645,1.32321807 L169.911958,1.32321807 L169.911958,3.05928017 L170.723175,3.05928017 C171.285618,3.05928017 171.956223,2.88990826 171.956223,2.17007763 C171.945407,1.41848977 171.220721,1.32321807 170.636645,1.32321807 Z" id="Shape"></path>
                    <path d="M185.563025,6.91249118 C183.529576,6.91249118 182.242446,5.48341567 182.242446,3.55681016 C182.242446,1.72547636 183.313252,0.0317572336 185.563025,0.0317572336 C186.385057,0.0317572336 186.990766,0.201129146 187.477495,0.412844037 L186.990766,1.60903317 C186.558117,1.37614679 186.071387,1.2597036 185.649555,1.2597036 C184.254263,1.2597036 183.778349,2.48764996 183.778349,3.52505293 C183.778349,4.89061397 184.697727,5.69513056 185.746901,5.69513056 C186.276895,5.69513056 186.752809,5.53634439 187.077295,5.34580099 L187.477495,6.46788991 C187.001582,6.69019054 186.211998,6.91249118 185.563025,6.91249118 Z" id="Path"></path>
                    <polygon id="Path" points="196.519853 6.75370501 196.519853 0.211714891 200.662464 0.211714891 200.662464 1.38673253 198.001675 1.38673253 198.001675 2.73112209 200.565118 2.73112209 200.565118 3.86379675 198.001675 3.86379675 198.001675 5.57868737 200.803075 5.57868737 200.803075 6.75370501"></polygon>
                    <path d="M211.987044,6.91249118 C211.19746,6.91249118 210.548487,6.69019054 210.115838,6.47847565 L210.526854,5.34580099 C210.894606,5.56810162 211.51113,5.76923077 212.073574,5.76923077 C212.700914,5.76923077 213.166011,5.52575865 213.166011,4.98588567 C213.166011,4.49894143 212.690098,4.29781228 212.300714,4.13902611 L211.803168,3.93789697 C210.916238,3.56739591 210.213184,3.0910374 210.213184,2.02187721 C210.213184,0.889202541 211.165011,0.0423429781 212.625201,0.0423429781 C213.220093,0.0423429781 213.901514,0.148200423 214.453141,0.412844037 L214.020493,1.51376147 C213.631109,1.29146083 213.144379,1.15384615 212.625201,1.15384615 C211.846433,1.15384615 211.651741,1.58786168 211.651741,1.87367678 C211.651741,2.3288638 212.116838,2.5194072 212.495406,2.68877911 L212.992952,2.900494 C213.858249,3.27099506 214.615385,3.73676782 214.615385,4.78475653 C214.615385,6.33027523 213.360703,6.91249118 211.987044,6.91249118 Z" id="Path"></path>
                </g>
                <g id="Group" transform="translate(108.1731, 0)" fill="#F89515">
                    <polygon id="Path" points="0 8.71060248 0 21.6582141 1.06806184 21.6582141 1.06806184 31.1538462 3.90931373 31.1538462 3.90931373 8.71060248"></polygon>
                    <polygon id="Path" points="8.46153846 21.6582141 9.51923077 21.6582141 9.51923077 8.71060248 5.70324284 8.71060248 5.70324284 31.1538462 8.46153846 31.1538462"></polygon>
                    <path d="M3.89894419,0 C1.9183635,0 0.30071644,1.66684368 0.30071644,3.73157909 C0.30071644,5.78556066 1.90799397,7.46315817 3.89894419,7.46315817 L3.89894419,7.46315817 L3.89894419,0 L3.89894419,0 Z" id="Path"></path>
                    <path d="M9.29110106,3.73157909 C9.29110106,1.67759751 7.68382353,0.0107538302 5.70324284,0 L5.70324284,7.45240434 C7.68382353,7.45240434 9.29110106,5.78556066 9.29110106,3.73157909 Z" id="Path"></path>
                </g>
            </g>
        </g>
    </g>
</svg>