<svg xmlns="http://www.w3.org/2000/svg" viewBox="0 0 272.5 120.5" width="272.5" height="120.5" fill="#fff"><path d="M233.8 117.8c-.1-1.3.9-2.5 2.2-2.6 1.3-.1 2.5.9 2.6 2.2.1 1.3-.9 2.5-2.2 2.6h-.2c-1.3.1-2.3-.9-2.4-2.2zm-36.5-5.1c0-4.2 3.3-7.3 8-7.3s8 3.1 8 7.3-3.3 7.3-8 7.3-8-3.1-8-7.3zm3.6 0c-.1 2.4 1.7 4.5 4.2 4.6 2.4.1 4.5-1.7 4.6-4.2.1-2.4-1.7-4.5-4.2-4.6h-.2c-2.3-.2-4.2 1.5-4.4 3.8v.4zm-25.5 1.6v-13.4h3.6v4.9h7.7v3H179v5.5c0 1.4 1.1 2.5 2.5 2.5s2.5-1.1 2.5-2.5v-.4h3.6v.4c0 3.8-2.5 5.7-6.1 5.7s-6.1-1.8-6.1-5.7zm-19.2-1.4c0-4.4 3.3-7.4 8-7.4s7.9 2.9 7.9 7.4v6.8h-3.3V117c-1 2-3.1 3.2-5.3 3.1-3.5-.1-7.3-2.5-7.3-7.2zm3.6-.2c-.1 2.4 1.7 4.5 4.2 4.6 2.4.1 4.5-1.7 4.6-4.2.1-2.4-1.7-4.5-4.2-4.6h-.2c-2.3-.2-4.2 1.5-4.4 3.8v.4zm-62.8 0c0-4.2 3.3-7.3 8-7.3s8 3.1 8 7.3c0 4.2-3.3 7.3-8 7.3s-8-3.1-8-7.3zm3.6 0c-.1 2.4 1.7 4.5 4.2 4.6 2.4.1 4.5-1.7 4.6-4.2.1-2.4-1.7-4.5-4.2-4.6h-.2c-2.3-.2-4.2 1.5-4.4 3.8v.4zm-33.7 2.8h3.6c0 .9.9 1.5 2.7 1.5 1.8 0 2.6-.7 2.6-1.5 0-1.1-1.3-1.2-2.9-1.4-2.3-.3-5.7-.6-5.7-4 0-2.8 2.3-4.7 5.9-4.7 3.6 0 5.9 1.9 6 4.3h-3.6c-.1-.8-.9-1.4-2.4-1.4-1.6 0-2.4.7-2.4 1.5 0 1.1 1.4 1.2 3 1.4 2 .3 5.6.6 5.6 4.1 0 2.8-2.4 4.7-6.2 4.7s-6.1-1.9-6.2-4.5zm-36.5-2.6c0-4.4 3.3-7.4 8-7.4s7.9 2.9 7.9 7.4v6.8H43V117c-1 2-3.1 3.2-5.3 3.1-3.5-.1-7.3-2.5-7.3-7.2zm3.7-.2c0 2.3 1.7 4.1 4 4.2h.4c2.3.1 4.3-1.7 4.4-4 .1-2.3-1.7-4.3-4-4.4h-.4c-2.3-.2-4.2 1.5-4.4 3.8 0 .2-.1.3 0 .4zm-33 1.6v-13.4h3.6v4.9h7.7v3H4.7v5.5c-.2 1.2.7 2.4 1.9 2.6h.6c1.2.1 2.4-.7 2.5-2v-1h3.6v.4c0 3.8-2.5 5.7-6.1 5.7s-6.1-1.8-6.1-5.7zm225.9 5.3v-7.2c0-2.6-1.5-3.9-3.8-3.9s-3.8 1.3-3.8 3.9v7.2h-3.6v-7.2c0-4.6 3-7 7.4-7s7.4 2.4 7.4 7v7.2H227zm-36.4 0v-13.8h3.6v13.8h-3.6zm-40.6 0v-7.9c0-2.3-1.3-3.2-3-3.2s-3 1-3 3.2v7.9h-3.6v-7.9c0-2.2-1.3-3.2-3-3.2s-3 .9-3 3.2v7.9h-3.6v-7.9c0-4.3 2.7-6.3 6.2-6.3 2-.1 4 .8 5.2 2.5 1.2-1.7 3.1-2.6 5.2-2.5 3.5 0 6.2 2 6.2 6.3v7.9H150zm-34.4 0v-8c0-4.2 2.7-6.2 6.5-6.2s6.5 2 6.5 6.2v.1H125v-.1c0-2.2-1.2-3.1-3-3.1s-3 .8-3 3.1v8h-3.4zm-33.1 0v-14.2c0-4.1 2.7-6.1 6.5-6.1s6.5 2 6.5 6.1H92c0-2.2-1.2-3-3-3-1.5-.2-2.8.9-3 2.3V107.6h7.7v3H86v8.9l-3.5.1zm-21.8 0v-7.2c0-2.6-1.5-3.9-3.8-3.9s-3.8 1.3-3.8 3.9v7.2h-3.6v-7.2c0-4.6 3-7 7.4-7s7.4 2.4 7.4 7v7.2h-3.6zm-44.9 0v-8c0-4.2 2.7-6.2 6.5-6.2s6.5 2 6.5 6.2v.1h-3.6v-.1c0-2.2-1.2-3.1-3-3.1s-3 .8-3 3.1v8h-3.4zM190 101.8c-.1-1.3.9-2.5 2.2-2.6s2.5.9 2.6 2.2c.1 1.3-.9 2.5-2.2 2.6h-.2c-1.2.1-2.3-.9-2.4-2.1v-.1zM98.6 87.4h3.6c0 .9.9 1.5 2.7 1.5 1.8 0 2.6-.7 2.6-1.5 0-1.1-1.3-1.2-2.9-1.4-2.3-.3-5.7-.6-5.7-4 0-2.8 2.3-4.7 5.9-4.7 3.6 0 5.9 1.9 6 4.3h-3.6c-.1-.8-.9-1.4-2.4-1.4-1.6 0-2.4.7-2.4 1.5 0 1.1 1.4 1.2 3 1.4 2 .3 5.6.6 5.6 4.1 0 2.8-2.4 4.7-6.2 4.7s-6.1-2-6.2-4.5zm-17.9-2.9c0-4.2 3.3-7.3 8-7.3s8 3.1 8 7.3v1.2H84.5c.5 1.9 2.3 3.2 4.2 3.1 1.3.1 2.6-.4 3.5-1.3H96c-1.1 2.6-3.8 4.3-7.4 4.3-4.6 0-7.9-3.1-7.9-7.3zm3.9-1.5h8.3c-1-2.3-3.6-3.4-5.9-2.4-1.1.5-2 1.3-2.4 2.4zm-29.4 1.4V71.6h3.6v8.1c1.2-1.6 3-2.5 5-2.4 3.6 0 7.4 2.4 7.4 7.1 0 4.4-3.3 7.4-8 7.4-4.8 0-8-2.9-8-7.4zm3.6.1c.1 2.4 2.2 4.3 4.6 4.2 2.2-.1 4-1.9 4.2-4.2-.1-2.4-2.2-4.3-4.6-4.2-2.3.2-4.1 2-4.2 4.2zm-22.7.2c0-4.4 3.3-7.4 8-7.4s7.9 2.9 7.9 7.4v6.8h-3.3v-2.7c-1 2-3.1 3.2-5.3 3.1-3.5-.1-7.3-2.5-7.3-7.2zm3.6-.2c0 2.3 1.7 4.1 4 4.2h.4c2.2.2 4.2-1.5 4.4-3.8v-.4c.1-2.3-1.7-4.1-4-4.2h-.4c-2.3-.2-4.2 1.5-4.4 3.8v.4zm-39.2 0c0-4.2 3.3-7.3 8-7.3s8 3.1 8 7.3v1.2H4.3c.5 1.9 2.3 3.2 4.3 3.1 1.3.1 2.6-.4 3.5-1.3h3.8c-1.1 2.6-3.8 4.3-7.4 4.3-4.7 0-8-3.1-8-7.3zM4.4 83h8.3c-.6-1.8-2.3-2.9-4.2-2.8-1.8-.1-3.6 1.1-4.1 2.8zm69.7 8.5V71.6h3.6v19.9h-3.6zm-44 0v-7.2c0-2.6-1.5-3.9-3.8-3.9s-3.8 1.3-3.8 3.9v7.2h-3.6v-7.2c0-4.6 3-7 7.4-7s7.4 2.4 7.4 7v7.2h-3.6z"></path><path d="M147.5 62v-8.5h35V62h-35zm0-32.1c0-9.3 7.3-16.1 17.7-16.1s17.7 6.8 17.7 16.1S175.6 46 165.2 46s-17.7-6.8-17.7-16.1zm17.7 7.4c4.5 0 7.6-3 7.6-7.4s-3.1-7.4-7.6-7.4-7.6 3-7.6 7.4 3.1 7.4 7.6 7.4zm-89.7-7.4c0-9.3 7.3-16.1 17.7-16.1 9.1 0 15.7 5.2 17.1 12.8h-10.1c-1.3-2.7-4.1-4.3-7-4.1-4.5 0-7.6 3-7.6 7.4s3.1 7.4 7.6 7.4c3 .2 5.7-1.5 7-4.1h10.1c-1.4 7.5-8 12.8-17.1 12.8-10.4 0-17.7-6.8-17.7-16.1zm147 15.3V14.6h10v30.5h-10zm-33.4 0V14.3c0-9.3 6-13.8 14.7-13.8 8.8 0 14.8 4.6 14.8 13.8h-10c0-3.9-2-5.1-4.8-5.1s-4.8 1.3-4.8 5.1v4.6h15.5v8.3H199v17.9h-9.9zm73.4 0V29.3c0-4.8-2.5-6.9-6.2-6.9s-6.2 2-6.2 6.9v15.8h-10V29.3c0-10.3 6.5-15.5 16.2-15.5s16.2 5.2 16.2 15.5v15.8l-10 .1zm-147.2 0V27.8c0-9.5 6-14 14.7-14s14.7 4.4 14.7 14v.2h-10v-.2c0-4.1-2-5.3-4.8-5.3s-4.8 1.2-4.8 5.3v17.4h-9.8zm-56 0V14.6h10v30.5l-10 .1zm-17.6 0V28c0-4.1-2.1-5.5-5.1-5.5-2.9 0-5 1.4-5 5.5v17.2h-10V28c0-4.1-2.1-5.5-5.1-5.5-3 0-5.1 1.4-5.1 5.5v17.2h-10V28c0-9.8 6.1-14.1 14.1-14.1 4.7 0 8.6 1.7 11 4.9 2.5-3.2 6.3-4.9 11-4.9 8 0 14.1 4.3 14.1 14.1v17.2h-9.9zM57.9 5.9c0-3.4 2.7-5.9 6.4-5.9s6.4 2.5 6.4 5.9-2.7 5.9-6.4 5.9c-3.7.1-6.4-2.5-6.4-5.9zm163.3 0c0-3.4 2.7-5.9 6.4-5.9s6.4 2.5 6.4 5.9-2.7 5.9-6.4 5.9-6.4-2.5-6.4-5.9z"></path></svg>
