<svg xmlns="http://www.w3.org/2000/svg" width="255.851" height="100.046" viewBox="0 0 255.851 100.046">
  <g id="eFrontiers_logo_with_tag" data-name="eFrontiers logo with tag" transform="translate(-7.4 -53.832)">
    <g id="Group_13" data-name="Group 13" transform="translate(7.4 53.832)">
      <path id="Path_27" data-name="Path 27" d="M264.257,180.115A32.989,32.989,0,0,1,231.3,147.157a.457.457,0,0,1,.915,0,32.075,32.075,0,1,0,64.151,0,.457.457,0,0,1,.915,0A33.108,33.108,0,0,1,264.257,180.115Z" transform="translate(-158.167 -116.366)" fill="#f4d310" opacity="0.7"/>
      <path id="Path_28" data-name="Path 28" d="M252.133,152.766a27.633,27.633,0,1,1,0-55.266.229.229,0,1,1,0,.457A27.143,27.143,0,1,0,279.276,125.1a.229.229,0,0,1,.457,0A27.643,27.643,0,0,1,252.133,152.766Z" transform="translate(-153.588 -83.237)" fill="#e6ae19" opacity="0.7"/>
      <path id="Path_29" data-name="Path 29" d="M253.644,139.587a22.244,22.244,0,1,1,22.244-22.244A22.269,22.269,0,0,1,253.644,139.587Zm0-41.221a18.977,18.977,0,1,0,18.977,18.977A19.014,19.014,0,0,0,253.644,98.366Z" transform="translate(-158.234 -81.62)" fill="#dd961b"/>
      <path id="Path_30" data-name="Path 30" d="M256.042,130.092a23.747,23.747,0,1,1,23.942-23.746A23.873,23.873,0,0,1,256.042,130.092Zm0-44a20.252,20.252,0,1,0,20.447,20.251A20.374,20.374,0,0,0,256.042,86.095Z" transform="translate(-158.706 -73.203)" fill="#f1cc12" opacity="0.45"/>
      <path id="Path_31" data-name="Path 31" d="M247.723,148.954a21.428,21.428,0,1,1,21.623-21.427A21.545,21.545,0,0,1,247.723,148.954Zm0-39.686a18.292,18.292,0,1,0,18.455,18.291A18.4,18.4,0,0,0,247.723,109.268Z" transform="translate(-154.665 -89.028)" fill="#f1cc12" opacity="0.45"/>
      <path id="Path_32" data-name="Path 32" d="M247.617,128.141a20.122,20.122,0,1,1,20.317-20.121A20.234,20.234,0,0,1,247.617,128.141Zm0-37.3a17.182,17.182,0,1,0,17.344,17.181A17.279,17.279,0,0,0,247.617,90.84Z" transform="translate(-155.474 -76.772)" fill="#f1cc12" opacity="0.39"/>
      <path id="Path_33" data-name="Path 33" d="M255.517,144.941a20.122,20.122,0,1,1,20.317-20.121A20.235,20.235,0,0,1,255.517,144.941Zm0-37.3a17.182,17.182,0,1,0,17.344,17.181A17.279,17.279,0,0,0,255.517,107.64Z" transform="translate(-160.793 -88.085)" fill="#f1cc12" opacity="0.39"/>
      <path id="Path_34" data-name="Path 34" d="M253.369,139.847a19.174,19.174,0,1,1,19.369-19.173A19.308,19.308,0,0,1,253.369,139.847Zm0-35.57A16.365,16.365,0,1,0,269.9,120.641,16.471,16.471,0,0,0,253.369,104.276Z" transform="translate(-159.985 -85.93)" fill="#e2a41a" opacity="0.39"/>
      <path id="Path_35" data-name="Path 35" d="M264.169,133.379a19.19,19.19,0,1,1,19.369-19.206A19.308,19.308,0,0,1,264.169,133.379Zm0-35.57A16.365,16.365,0,1,0,280.7,114.173,16.471,16.471,0,0,0,264.169,97.809Z" transform="translate(-167.257 -81.553)" fill="#e2a41a" opacity="0.39"/>
      <path id="Path_36" data-name="Path 36" d="M265.469,139.847a19.174,19.174,0,1,1,19.369-19.173A19.308,19.308,0,0,1,265.469,139.847Zm0-35.57A16.365,16.365,0,1,0,282,120.641,16.471,16.471,0,0,0,265.469,104.276Z" transform="translate(-168.133 -85.93)" fill="#e2a41a" opacity="0.39"/>
      <path id="Path_37" data-name="Path 37" d="M266.13,143.2a16.3,16.3,0,1,1,16.43-16.3A16.394,16.394,0,0,1,266.13,143.2Zm0-30.181A13.883,13.883,0,1,0,280.175,126.9,13.961,13.961,0,0,0,266.13,113.017Z" transform="translate(-170.557 -92.058)" fill="#f4d310" opacity="0.54"/>
      <path id="Path_38" data-name="Path 38" d="M262.53,146.8a16.3,16.3,0,1,1,16.43-16.3A16.394,16.394,0,0,1,262.53,146.8Zm0-30.181A13.882,13.882,0,1,0,276.542,130.5,13.961,13.961,0,0,0,262.53,116.617Z" transform="translate(-168.133 -94.482)" fill="#f4d310" opacity="0.54"/>
      <path id="Path_39" data-name="Path 39" d="M256.43,133.5a16.3,16.3,0,1,1,16.43-16.3A16.394,16.394,0,0,1,256.43,133.5Zm0-30.181A13.882,13.882,0,1,0,270.442,117.2,13.961,13.961,0,0,0,256.43,103.317Z" transform="translate(-164.025 -85.526)" fill="#f4d310" opacity="0.54"/>
      <path id="Path_40" data-name="Path 40" d="M252.23,158.3a16.3,16.3,0,1,1,16.43-16.3A16.394,16.394,0,0,1,252.23,158.3Zm0-30.181A13.882,13.882,0,1,0,266.242,142,13.961,13.961,0,0,0,252.23,128.117Z" transform="translate(-161.197 -102.226)" fill="#e9b818" opacity="0.67"/>
      <path id="Path_41" data-name="Path 41" d="M250.369,127.247a19.174,19.174,0,1,1,19.369-19.173A19.308,19.308,0,0,1,250.369,127.247Zm0-35.57A16.365,16.365,0,1,0,266.9,108.041,16.471,16.471,0,0,0,250.369,91.676Z" transform="translate(-157.965 -77.446)" fill="#e2a41a" opacity="0.39"/>
      <path id="Path_42" data-name="Path 42" d="M255.4,153.755h0A32.789,32.789,0,0,1,223,120.6a32.811,32.811,0,0,1,32.761-32.4h.392a.233.233,0,0,1,.229.261.223.223,0,0,1-.229.229h-.392a32.289,32.289,0,0,0-.359,64.575.233.233,0,0,1,.229.261A.245.245,0,0,1,255.4,153.755Z" transform="translate(-152.574 -76.974)" fill="#f4d310" opacity="0.7"/>
      <path id="Path_43" data-name="Path 43" d="M325.629,160a.223.223,0,0,1-.229-.229.252.252,0,0,1,.229-.261,32.258,32.258,0,0,0,29.136-35.146.246.246,0,0,1,.49-.033A32.7,32.7,0,0,1,325.629,160Z" transform="translate(-221.531 -101.148)" fill="#f4d310" opacity="0.7"/>
      <path id="Path_44" data-name="Path 44" d="M232.334,135.764h0a27.625,27.625,0,1,1,27.927-27.306.223.223,0,0,1-.229.229h0a.233.233,0,0,1-.229-.261,27.161,27.161,0,1,0-54.319-.621,27.192,27.192,0,0,0,26.849,27.47.233.233,0,0,1,.229.261A.245.245,0,0,1,232.334,135.764Z" transform="translate(-140.452 -71.787)" fill="#e6ae19" opacity="0.7"/>
      <path id="Path_45" data-name="Path 45" d="M197.937,111.577a.434.434,0,0,1-.261-.1,27.851,27.851,0,1,1,38.8-6.631.444.444,0,0,1-.719-.523,26.948,26.948,0,1,0-37.563,6.435.429.429,0,0,1,.1.621A.451.451,0,0,1,197.937,111.577Z" transform="translate(-127.613 -58.608)" fill="#e6ae19" opacity="0.7"/>
      <path id="Path_46" data-name="Path 46" d="M229.712,105.919c-.065,0-.1,0-.131-.033a.253.253,0,0,1-.065-.327,32.3,32.3,0,0,0-52.294-37.922.236.236,0,1,1-.392-.261,32.765,32.765,0,1,1,53.045,38.477C229.875,105.887,229.81,105.919,229.712,105.919Z" transform="translate(-121.466 -53.832)" fill="#f4d310" opacity="0.7"/>
      <path id="Path_47" data-name="Path 47" d="M7.4,122.592H24.124v2.058H9.686v9.766H18.44v2.058H9.686v10.452h14.47v2.058H7.4Zm15.482,11.824h9.146v2.058H22.882v-2.058Zm8.95-11.824H51.169v5.749H38.626v4.377H48.654v5.749H38.626v10.485H31.832Zm33.284,17.442H61.621v8.95H54.827V122.592h13.2c5.847,0,9.178,3.887,9.178,8.786a7.981,7.981,0,0,1-5.259,7.9l5.389,9.7H69.526Zm1.894-11.726H61.621v5.945H67.01a3.036,3.036,0,0,0,3.266-2.972A3,3,0,0,0,67.01,128.308Zm68.756,4.7v15.94h-6.794V122.559h6.99l10.681,15.188V122.559h6.827v26.392H146.9Zm28.384-4.508h-7.382v-5.945h21.558V128.5h-7.349v20.447h-6.794V128.5Zm17.377-5.912h6.794v26.392h-6.794Zm11.563,0h19.337v5.749H199.885v4.377h10.028v5.749H199.885V143.2h12.543v5.749H193.091Zm33.578,17.442h-3.495v8.95H216.38V122.592h13.2c5.847,0,9.178,3.887,9.178,8.786a7.981,7.981,0,0,1-5.259,7.9l5.389,9.7h-7.807Zm1.894-11.726h-5.389v5.945h5.389a2.986,2.986,0,1,0,0-5.945Zm15.646,11.824a11.956,11.956,0,0,0,8.427,3.495c2.319,0,3.756-.98,3.756-2.254,0-1.5-1.7-2.09-4.508-2.678-4.344-.882-10.452-1.992-10.452-8.231,0-4.442,3.756-8.264,10.518-8.264a16.04,16.04,0,0,1,10.714,3.691l-3.724,4.867a12.224,12.224,0,0,0-7.447-2.744c-2.254,0-3.136.915-3.136,2.058,0,1.372,1.633,1.862,4.54,2.417,4.344.915,10.354,2.188,10.354,8.133,0,5.291-3.92,8.819-11.008,8.819-5.324,0-9.048-1.666-11.693-4.181Z" transform="translate(-7.4 -99.869)" fill="#fff"/>
      <path id="Path_48" data-name="Path 48" d="M260.443,143.185a19.043,19.043,0,1,1,19.043-19.043A19.063,19.063,0,0,1,260.443,143.185Zm0-30.442a11.4,11.4,0,1,0,11.4,11.4A11.41,11.41,0,0,0,260.443,112.743Z" transform="translate(-164.968 -88.354)" fill="#fff"/>
    </g>
    <g id="Group_14" data-name="Group 14" transform="translate(23.607 143.268)">
      <path id="Path_49" data-name="Path 49" d="M86.113,328.211H82.8V327.4h7.543v.811H87.03v9.376h-.881v-9.376Z" transform="translate(-82.8 -327.224)" fill="#fff"/>
      <path id="Path_50" data-name="Path 50" d="M116.032,332.758h-6.45v4.829H108.7V327.4h.881v4.547h6.45V327.4h.881v10.187h-.881Z" transform="translate(-99.571 -327.224)" fill="#fff"/>
      <path id="Path_51" data-name="Path 51" d="M138.6,327.5h6.45v.811h-5.569v3.771h5.463v.811h-5.463v4.018h5.569v.811H138.6Z" transform="translate(-118.932 -327.289)" fill="#fff"/>
      <path id="Path_52" data-name="Path 52" d="M176.048,334.232h-1.339v3.454H172.1V327.5h5.111a3.258,3.258,0,0,1,3.525,3.384,3.132,3.132,0,0,1-2.044,3.067l2.08,3.736h-3Zm.74-4.512h-2.08v2.291h2.08a1.152,1.152,0,1,0,0-2.291Z" transform="translate(-140.623 -327.289)" fill="#fff"/>
      <path id="Path_53" data-name="Path 53" d="M200.1,327.5h7.473v2.221h-4.829v1.692h4.723v2.221h-4.723v1.833h4.829v2.221H200.1Z" transform="translate(-158.754 -327.289)" fill="#fff"/>
      <path id="Path_54" data-name="Path 54" d="M223.6,332.352a5.177,5.177,0,0,1,5.428-5.252,4.713,4.713,0,0,1,4.512,2.714l-2.256,1.057a2.476,2.476,0,0,0-2.256-1.48,2.969,2.969,0,0,0,0,5.922,2.438,2.438,0,0,0,2.256-1.48l2.256,1.057a4.767,4.767,0,0,1-4.512,2.714A5.2,5.2,0,0,1,223.6,332.352Z" transform="translate(-173.971 -327.03)" fill="#fff"/>
      <path id="Path_55" data-name="Path 55" d="M258.448,334.232h-1.339v3.454H254.5V327.5h5.111a3.257,3.257,0,0,1,3.525,3.384,3.132,3.132,0,0,1-2.044,3.067l2.08,3.736h-3Zm.74-4.512h-2.08v2.291h2.08a1.193,1.193,0,0,0,1.269-1.128A1.221,1.221,0,0,0,259.188,329.721Z" transform="translate(-193.979 -327.289)" fill="#fff"/>
      <path id="Path_56" data-name="Path 56" d="M282.5,327.5h2.679v5.957a2.045,2.045,0,1,0,4.089,0V327.5h2.679v6.027c0,2.538-1.445,4.336-4.723,4.336s-4.723-1.8-4.723-4.3Z" transform="translate(-212.11 -327.289)" fill="#fff"/>
      <path id="Path_57" data-name="Path 57" d="M313.9,327.5h2.608v10.187H313.9Z" transform="translate(-232.442 -327.289)" fill="#fff"/>
      <path id="Path_58" data-name="Path 58" d="M327.255,329.791H324.4V327.5h8.319v2.291h-2.855v7.9h-2.608Z" transform="translate(-239.241 -327.289)" fill="#fff"/>
      <path id="Path_59" data-name="Path 59" d="M359.918,330.813l-2.573,6.873h-1.163l-2.573-6.873v6.873H351V327.5h3.631l2.115,5.781,2.15-5.781h3.631v10.187h-2.608Z" transform="translate(-256.465 -327.289)" fill="#fff"/>
      <path id="Path_60" data-name="Path 60" d="M388.3,327.5h7.473v2.221h-4.829v1.692h4.723v2.221h-4.723v1.833h4.829v2.221H388.3Z" transform="translate(-280.617 -327.289)" fill="#fff"/>
      <path id="Path_61" data-name="Path 61" d="M415.908,331.454v6.133H413.3V327.4h2.714l4.124,5.851V327.4h2.644v10.187h-2.538Z" transform="translate(-296.805 -327.224)" fill="#fff"/>
      <path id="Path_62" data-name="Path 62" d="M445.955,329.791H443.1V327.5h8.319v2.291h-2.855v7.9h-2.608Z" transform="translate(-316.101 -327.289)" fill="#fff"/>
      <path id="Path_63" data-name="Path 63" d="M480.2,335.183a4.134,4.134,0,0,0,3.172,1.48c2.08,0,2.679-1.163,2.679-2.044,0-1.445-1.375-1.833-2.785-2.221-1.586-.458-3.313-.916-3.313-2.785,0-1.657,1.48-2.714,3.349-2.714a4.378,4.378,0,0,1,3.454,1.445l-.564.634a3.653,3.653,0,0,0-2.926-1.269c-1.375,0-2.4.775-2.4,1.868,0,1.2,1.269,1.551,2.644,1.939,1.621.458,3.454.987,3.454,3.067,0,1.3-.881,2.855-3.63,2.855a4.67,4.67,0,0,1-3.736-1.621Z" transform="translate(-339.736 -326.9)" fill="#fff"/>
      <path id="Path_64" data-name="Path 64" d="M505.835,327.5h3.807a2.963,2.963,0,1,1,0,5.922h-2.961v4.23H505.8V327.5Zm3.736.776h-2.855v4.371h2.855a2.186,2.186,0,1,0,0-4.371Z" transform="translate(-356.701 -327.289)" fill="#fff"/>
      <path id="Path_65" data-name="Path 65" d="M530.1,327.5h6.451v.811h-5.569v3.771h5.464v.811h-5.464v4.018h5.569v.811H530.1Z" transform="translate(-372.435 -327.289)" fill="#fff"/>
      <path id="Path_66" data-name="Path 66" d="M552.8,332.352a5.04,5.04,0,0,1,5.111-5.252,4.58,4.58,0,0,1,3.736,1.8l-.74.458a3.722,3.722,0,0,0-3-1.48,4.486,4.486,0,0,0,0,8.953,3.672,3.672,0,0,0,3-1.48l.74.458a4.56,4.56,0,0,1-3.736,1.833A5.112,5.112,0,0,1,552.8,332.352Z" transform="translate(-387.134 -327.03)" fill="#fff"/>
      <path id="Path_67" data-name="Path 67" d="M582.4,327.5h.881v10.187H582.4Z" transform="translate(-406.301 -327.289)" fill="#fff"/>
      <path id="Path_68" data-name="Path 68" d="M595.937,335.184h-5.428l-1.022,2.5H588.5l4.159-10.187h1.093l4.159,10.187h-.987Zm-5.146-.811h4.864l-2.432-6.027Z" transform="translate(-410.25 -327.289)" fill="#fff"/>
      <path id="Path_69" data-name="Path 69" d="M619,327.5h.881v9.376h4.935v.811H619Z" transform="translate(-430 -327.289)" fill="#fff"/>
      <path id="Path_70" data-name="Path 70" d="M640.2,327.5h.881v10.187H640.2Z" transform="translate(-443.727 -327.289)" fill="#fff"/>
      <path id="Path_71" data-name="Path 71" d="M648.2,335.183a4.133,4.133,0,0,0,3.172,1.48c2.08,0,2.679-1.163,2.679-2.044,0-1.445-1.375-1.833-2.785-2.221-1.586-.458-3.313-.916-3.313-2.785,0-1.657,1.48-2.714,3.349-2.714a4.378,4.378,0,0,1,3.454,1.445l-.564.634a3.653,3.653,0,0,0-2.926-1.269c-1.375,0-2.4.775-2.4,1.868,0,1.2,1.269,1.551,2.644,1.939,1.621.458,3.454.987,3.454,3.067,0,1.3-.881,2.855-3.631,2.855a4.67,4.67,0,0,1-3.736-1.621Z" transform="translate(-448.519 -326.9)" fill="#fff"/>
      <path id="Path_72" data-name="Path 72" d="M675.013,328.211H671.7V327.4h7.543v.811H675.93v9.376h-.881v-9.376Z" transform="translate(-464.124 -327.224)" fill="#fff"/>
      <path id="Path_73" data-name="Path 73" d="M696.4,335.183a4.134,4.134,0,0,0,3.172,1.48c2.08,0,2.679-1.163,2.679-2.044,0-1.445-1.375-1.833-2.785-2.221-1.586-.458-3.313-.916-3.313-2.785,0-1.657,1.48-2.714,3.349-2.714a4.378,4.378,0,0,1,3.454,1.445l-.564.634a3.654,3.654,0,0,0-2.926-1.269c-1.375,0-2.4.775-2.4,1.868,0,1.2,1.269,1.551,2.644,1.939,1.621.458,3.454.987,3.454,3.067,0,1.3-.881,2.855-3.631,2.855a4.67,4.67,0,0,1-3.736-1.621Z" transform="translate(-479.729 -326.9)" fill="#fff"/>
    </g>
  </g>
</svg>
