<svg fill="none" height="60" viewBox="0 0 145 60" width="145" xmlns="http://www.w3.org/2000/svg"><g fill="#1c1c1c"><path d="m0 60h32.5674v-16.3646h-16.2837v-5.4548h-16.2837z"/><path d="m32.5674 16.3646v-16.3646h-32.5674v21.8194h16.2837v-5.4548z"/><path d="m32.5674 21.8194h-16.2837v16.3646h16.2837z"/><path d="m40.6751 43.8035h2.7037c1.229 0 2.0858.3843 2.6491 1.2111.4506.6553.6759 1.4821.6759 2.4907 0 2.3775-1.2972 3.8493-3.4035 3.8493h-2.6252zm2.4101 6.611c1.7001 0 2.5228-.9297 2.5228-2.8749 0-.8714-.157-1.4958-.4848-1.983-.3823-.566-.9899-.8165-1.9731-.8165h-1.4099v5.6744z"/><path d="m48.7282 45.0146h-1.0378v-1.2111h1.0378zm0 6.34h-1.0378v-5.4686h1.0378z"/><path d="m54.5111 45.886v5.2524c0 .7239-.1707 1.2008-.553 1.5164-.4267.374-1.0924.5764-1.9049.5764s-1.4304-.2162-1.8127-.6244c-.2356-.2505-.3482-.5215-.396-1.0087h.99c.058.5318.4745.8028 1.2494.8028.9798 0 1.4304-.4185 1.4304-1.3242v-.6244c-.4404.4769-.9798.7136-1.6113.7136-1.3758 0-2.3316-1.0979-2.3316-2.6726s.9695-2.7617 2.3555-2.7617c.7101 0 1.1607.2161 1.6113.7479l-.0239-.6004h.99zm-3.8883 2.5696c0 1.1219.5531 1.8114 1.4645 1.8114.9115 0 1.4543-.6896 1.4543-1.7874s-.5394-1.8354-1.4645-1.8354-1.4543.6896-1.4543 1.8114z"/><path d="m56.4911 45.0146h-1.0378v-1.2111h1.0378zm0 6.34h-1.0378v-5.4686h1.0378z"/><path d="m59.939 46.7128h-.9797v3.4307c0 .3156.1468.4975.4062.4975.1468 0 .2936-.0343.5735-.1476v.8509c-.4506.1029-.6213.1235-.8671.1235-.7783 0-1.1504-.4186-1.1504-1.3243v-3.4307h-.7306v-.8268h.7306v-1.7325h1.0378v1.7325h.9797z"/><path d="m60.6935 47.6974c.0443-.645.1707-1.0292.4403-1.3345.3482-.398 1.0037-.621 1.7684-.621 1.3518 0 2.1165.645 2.1165 1.7771v2.5696c0 .4289.0581.5215.2936.5215.0888 0 .1468-.0103.2697-.0583v.8028c-.2492.0583-.4609.0789-.6759.0789-.495 0-.7203-.2162-.8125-.7376-.553.5557-1.1505.8028-1.881.8028-1.0583 0-1.7786-.6553-1.7786-1.6193 0-.8817.5394-1.4272 1.6455-1.6537l1.205-.2367c.6521-.1235.7886-.2264.7886-.566 0-.5318-.4609-.8612-1.1948-.8612-.5292 0-.9456.1716-1.0924.4632-.0785.1475-.1024.271-.1229.669h-.9695zm3.4035.8508c-.1912.0789-.3721.1373-.6418.2024l-1.0583.2505c-.6315.1475-.9114.4082-.9114.8371 0 .4974.4062.8371 1.0139.8371.8773 0 1.601-.645 1.601-1.4272v-.7033z"/><path d="m67.282 51.3546h-1.0377v-7.5511h1.0377z"/><path d="m72.7031 51.3546h-1.0685v-7.5511h1.0685z"/><path d="m74.6524 45.886v.6244c.5394-.5764.9797-.7685 1.7239-.7685.6418 0 1.171.2161 1.4748.6004.2594.3396.3619.7239.3619 1.3585v3.6572h-1.0378v-3.5783c0-.7479-.338-1.1081-1.0481-1.1081-.891 0-1.4303.5215-1.4303 1.3689v3.3175h-1.0378v-5.4686h.99z"/><path d="m81.5345 46.7128h-.9592v4.6418h-1.0378v-4.6418h-.7681v-.8268h.7681v-.8954c0-.9503.4062-1.3243 1.4406-1.3243.1809 0 .3038.0103.553.0583v.8817c-.1809-.024-.2697-.0343-.396-.0343-.4506 0-.5632.1475-.5632.7479v.5661h.9592v.8268z"/><path d="m83.1459 45.886v.8611c.215-.3156.3038-.4426.4506-.5764.2492-.2607.6418-.4288.9695-.4288.2014 0 .3926.0446.5735.1372v.94c-.2151-.0446-.3277-.0583-.4745-.0583-.833 0-1.4748.7479-1.4748 1.7222v2.875h-1.0378v-5.4686h.99z"/><path d="m85.5457 47.6974c.0444-.645.1707-1.0292.4404-1.3345.3482-.398 1.0037-.621 1.7683-.621 1.3519 0 2.12.645 2.12 1.7771v2.5696c0 .4289.058.5215.2936.5215.0887 0 .1468-.0103.2697-.0583v.8028c-.2492.0583-.4609.0789-.676.0789-.495 0-.7203-.2162-.8124-.7376-.5531.5557-1.1505.8028-1.881.8028-1.0583 0-1.7786-.6553-1.7786-1.6193 0-.8817.5394-1.4272 1.6454-1.6537l1.2051-.2367c.652-.1235.7886-.2264.7886-.566 0-.5318-.4609-.8612-1.1948-.8612-.5292 0-.9456.1716-1.0924.4632-.0786.1475-.1025.271-.1229.669h-.9696zm3.4001.8508c-.1911.0789-.372.1373-.6417.2024l-1.0583.2505c-.6316.1475-.9115.4082-.9115.8371 0 .4974.4062.8371 1.0139.8371.8773 0 1.6011-.645 1.6011-1.4272v-.7033z"/><path d="m94.2406 47.5636c-.1468-.6793-.5189-.964-1.2392-.964-.6179 0-1.0378.2607-1.0378.645 0 .271.1912.4528.6316.566l1.2631.3294c1.1368.295 1.6113.7685 1.6113 1.609 0 1.0772-.8774 1.7565-2.2634 1.7565-1.4747 0-2.3555-.7239-2.4681-2.0275h1.0241c.058.7238.5974 1.1561 1.4645 1.1561.7442 0 1.229-.3293 1.229-.8371 0-.3636-.2356-.5558-.8671-.7239l-1.0822-.271c-.5735-.1475-.9251-.3053-1.1504-.5112-.2492-.2161-.4063-.5763-.4063-.94 0-.94.8671-1.609 2.0961-1.609.7783 0 1.4201.2607 1.8025.7239.2355.295.3379.5901.3823 1.0978z"/><path d="m98.4088 46.7128h-.9797v3.4307c0 .3156.1468.4975.4062.4975.1468 0 .2936-.0343.5735-.1476v.8509c-.4506.1029-.6179.1235-.8671.1235-.7783 0-1.1504-.4186-1.1504-1.3243v-3.4307h-.7306v-.8268h.7306v-1.7325h1.0378v1.7325h.9797z"/><path d="m100.065 45.886v.8611c.215-.3156.303-.4426.45-.5764.249-.2607.642-.4288.97-.4288.201 0 .396.0446.573.1372v.94c-.215-.0446-.328-.0583-.474-.0583-.833 0-1.475.7479-1.475 1.7222v2.875h-1.0379v-5.4686h.9899z"/><path d="m106.216 51.3546v-.6244c-.539.5763-.98.7685-1.724.7685-.642 0-1.171-.2162-1.475-.6004-.259-.3397-.361-.7239-.361-1.3586v-3.6571h1.037v3.5782c0 .7479.338 1.1081 1.048 1.1081.891 0 1.431-.5214 1.431-1.3688v-3.3175h1.038v5.4685h-.99z"/><path d="m111.972 47.742c-.157-.7479-.632-1.1321-1.376-1.1321-.99 0-1.656.7925-1.656 1.9932 0 1.2008.652 2.0276 1.656 2.0276.812 0 1.294-.4426 1.441-1.3243h.979c-.146 1.3929-1.037 2.1957-2.444 2.1957-1.621 0-2.68-1.1424-2.68-2.8887 0-1.7462 1.072-2.8749 2.714-2.8749 1.328 0 2.199.7376 2.345 2.0035z"/><path d="m116.061 46.7128h-.979v3.4307c0 .3156.146.4975.406.4975.147 0 .294-.0343.573-.1476v.8509c-.45.1029-.621.1235-.867.1235-.778 0-1.15-.4186-1.15-1.3243v-3.4307h-.734v-.8268h.734v-1.7325h1.038v1.7325h.979z"/><path d="m120.322 51.3546v-.6244c-.54.5763-.98.7685-1.724.7685-.642 0-1.171-.2162-1.475-.6004-.259-.3397-.362-.7239-.362-1.3586v-3.6571h1.038v3.5782c0 .7479.338 1.1081 1.048 1.1081.891 0 1.43-.5214 1.43-1.3688v-3.3175h1.038v5.4685h-.99z"/><path d="m123.261 45.886v.8611c.215-.3156.304-.4426.451-.5764.249-.2607.642-.4288.969-.4288.202 0 .396.0446.574.1372v.94c-.215-.0446-.328-.0583-.475-.0583-.833 0-1.475.7479-1.475 1.7222v2.875h-1.037v-5.4686h.99z"/><path d="m126.303 48.8742c.078 1.1218.642 1.7565 1.577 1.7565.642 0 1.068-.3054 1.318-.9503h.99c-.26 1.1424-1.127 1.8217-2.332 1.8217-1.533 0-2.591-1.1768-2.591-2.8887s1.038-2.8749 2.557-2.8749c1.082 0 1.871.5763 2.233 1.6296.136.4082.201.8508.215 1.5061zm2.884-.7582c-.044-.995-.539-1.5507-1.362-1.5507-.822 0-1.454.6347-1.509 1.5507h2.875z"/><path d="m52.7906 24.9585h-8.4696v3.1906h7.3977v2.8956h-7.3977v4.0002h8.6164v3.1391h-12.2794v-16.3646h12.1326z"/><path d="m65.1177 38.1737h-3.3182v-1.2762c-.8773 1.1527-1.8059 1.5953-3.2465 1.5953-3.0997 0-5.1718-2.477-5.1718-6.2268s2.0994-6.2782 5.2708-6.2782c1.27 0 2.1712.3671 3.0007 1.2247v-5.3931h3.465zm-8.3193-5.9352c0 2.0825.9763 3.4342 2.4886 3.4342s2.4886-1.3723 2.4886-3.3827-.9763-3.4822-2.4886-3.4822-2.4886 1.3483-2.4886 3.4342z"/><path d="m82.0808 33.254c.2184 1.6091 1.1641 2.4873 2.6456 2.4873.9217 0 1.5772-.3156 2.0381-1.0498h3.4956c-.6554 2.2917-2.8402 3.7567-5.6327 3.7567-3.6152 0-6.0185-2.4873-6.0185-6.1959s2.4511-6.2199 5.9946-6.2199c2.475 0 4.3458 1.2453 5.2197 3.465.4131 1.0258.5837 2.1236.5837 3.7566zm4.7826-2.4392c-.1467-1.3894-.9456-2.1476-2.2804-2.1476-1.3347 0-2.2087.7547-2.4749 2.1476h4.7588z"/><path d="m102.464 27.0582c-.365-1.561-1.553-2.4633-3.2768-2.4633-2.6696 0-4.199 1.9761-4.199 5.3897 0 3.4135 1.5294 5.4171 4.1034 5.4171 1.8674 0 2.9874-.9263 3.4244-2.8784h3.861c-.437 3.6846-3.179 5.9763-7.1864 5.9763-4.7827 0-7.8415-3.3175-7.8415-8.515 0-5.1976 3.011-8.4877 7.8176-8.4877 3.9083 0 6.5783 2.0962 7.0153 5.5613z"/><path d="m119.745 32.3278c0 3.561-2.622 6.1238-6.237 6.1238s-6.213-2.5628-6.213-6.2199c0-3.6572 2.574-6.1959 6.213-6.1959s6.237 2.5353 6.237 6.292zm-8.982-.0961c0 2.2197.997 3.465 2.769 3.465s2.745-1.2453 2.745-3.3895c0-2.2677-.97-3.5131-2.769-3.5131s-2.741 1.2454-2.741 3.441z"/><path d="m124.166 26.3549-.099 2.1064c.682-1.9109 1.56-2.4495 4.069-2.4255v3.2832c-.413-.048-.584-.048-.877-.048-1.195 0-2.168.5386-2.561 1.4203-.341.7822-.464 1.8869-.464 4.1649v3.3312h-3.462v-11.8291h3.387z"/><path d="m131.765 33.254c.218 1.6091 1.164 2.4873 2.645 2.4873.922 0 1.578-.3156 2.038-1.0498h3.496c-.655 2.2917-2.84 3.7567-5.633 3.7567-3.615 0-6.018-2.4873-6.018-6.1959s2.451-6.2199 5.995-6.2199c2.475 0 4.345 1.2453 5.219 3.465.413 1.0258.584 2.1236.584 3.7566zm4.782-2.4392c-.146-1.3894-.945-2.1476-2.28-2.1476s-2.209.7547-2.475 2.1476h4.759z"/><path d="m74.4817 26.4235.0717 1.4409c-.8023-1.2454-1.8947-1.8286-3.424-1.8286-2.9598 0-5.1958 2.4633-5.1958 5.7808s2.2087 5.6847 5.2914 5.6847c1.3108 0 2.1131-.3156 3.1543-1.2694v.4975c0 1.1939-.1468 1.633-.6555 2.0481-.3652.2916-.9456.4632-1.6249.4632-1.1197 0-1.7922-.3534-2.0449-1.0601h-3.5776c.2594 2.3912 2.2224 3.7189 5.4791 3.7189 2.0141 0 3.6152-.5352 4.6837-1.585.8261-.8062 1.0924-1.6605 1.0924-3.5851v-10.3025h-3.2533zm-2.6696 8.2714c-1.5532 0-2.5979-1.1938-2.5979-2.9264 0-1.7325 1.0447-2.9264 2.5979-2.9264 1.5533 0 2.5979 1.1459 2.5979 2.8784 0 1.8286-.9968 2.9744-2.5979 2.9744z"/><path d="m141.716 28.5471h-.553v-1.7463h-.683v-.4494h1.919v.4494h-.683zm1.871 0-.311-1.163-.048-.175v1.3414h-.508v-2.1956h.754l.297 1.1424c.034.1269.055.247.089.3911.01-.0343.017-.0721.027-.1098.007-.0343.021-.0823.034-.1441.017-.0652.034-.1372.038-.1441l.293-1.1355h.748v2.1956h-.509v-1.3414c-.006.0343-.017.0618-.02.072-.017.0618-.027.0995-.027.103l-.318 1.163z"/></g></svg>