<?xml version="1.0" encoding="UTF-8"?><svg id="uuid-589edce3-4788-4b74-913e-024ca3c4747b" xmlns="http://www.w3.org/2000/svg" viewBox="0 0 149.78 32.46"><defs><style>.uuid-f206fa0d-d47f-4b92-9436-2667269272ba{fill:#231f20;}.uuid-566e11a0-0e5a-4c2b-88ce-f1c3dbd3b357{fill:#692ef8;}.uuid-5a02e314-8552-4533-a71f-c68eee4dc791{fill:#211f1f;}</style></defs><g id="uuid-ff20eb03-fe5a-4307-971c-a96d249cba49"><polygon class="uuid-5a02e314-8552-4533-a71f-c68eee4dc791" points="65.89 3.05 60.43 3.05 51.62 11.52 51.62 3.05 47.23 3.05 47.23 27.13 51.62 27.13 51.62 13.2 60.65 27.13 65.25 27.13 55.88 12.67 65.89 3.05"/><polygon class="uuid-5a02e314-8552-4533-a71f-c68eee4dc791" points="90.36 11.37 94.9 11.37 94.9 7.91 90.36 7.91 90.36 2.61 85.98 2.61 85.98 7.91 85.98 11.37 85.98 22.68 90.36 22.46 90.36 11.37"/><rect class="uuid-5a02e314-8552-4533-a71f-c68eee4dc791" x="91.82" y="23.67" width="1.89" height="3.46"/><rect class="uuid-5a02e314-8552-4533-a71f-c68eee4dc791" x="97.18" y="2.61" width="4.47" height="3.46"/><path class="uuid-5a02e314-8552-4533-a71f-c68eee4dc791" d="M113.49,7.08c-5.65,0-9.8,4.58-9.8,10.23s4.58,10.23,10.23,10.23c3.63,0,6.82-1.89,8.63-4.75l-3.59-2.28c-1.06,1.67-2.92,2.78-5.04,2.78-2.56,0-4.74-1.61-5.6-3.87h14.96v-2.11c0-5.65-4.15-10.23-9.8-10.23M108.07,15.95c.52-2.65,2.58-4.63,5.42-4.63s4.89,1.98,5.42,4.63h-10.83Z"/><path class="uuid-5a02e314-8552-4533-a71f-c68eee4dc791" d="M136.96,7.08c-2.72,0-5.11,1.48-6.72,3.45v-2.61h-4.38v19.22h4.38v-9.2c0-4.3,1.91-6.71,5.52-6.71,3.2,0,4.67,1.77,4.67,6.24v9.68h4.38v-11.69c0-4.14-1.71-8.36-7.85-8.36"/><polygon class="uuid-5a02e314-8552-4533-a71f-c68eee4dc791" points="97.2 27.76 101.58 27.98 101.58 7.91 97.2 7.91 97.2 27.76"/><rect class="uuid-5a02e314-8552-4533-a71f-c68eee4dc791" x="93.84" y="28.96" width="1.89" height="3.46"/><path class="uuid-566e11a0-0e5a-4c2b-88ce-f1c3dbd3b357" d="M16.96,21.66c-3.45,0-6.26-2.81-6.26-6.26,0-1.95,2.18-10.35,3.54-15.4-3.74,2.82-6.91,10.63-6.91,15.4,0,5.31,4.32,9.63,9.63,9.63s9.63-4.32,9.63-9.63c0-4.77-3.17-12.58-6.91-15.4,1.36,5.04,3.54,13.45,3.54,15.4,0,3.45-2.81,6.26-6.26,6.26"/><path class="uuid-566e11a0-0e5a-4c2b-88ce-f1c3dbd3b357" d="M14.42,15.4c0,1.4,1.14,2.54,2.54,2.54s2.54-1.14,2.54-2.54c0-.97-1.12-5.73-2.54-11.16-1.42,5.44-2.54,10.19-2.54,11.16"/><path class="uuid-566e11a0-0e5a-4c2b-88ce-f1c3dbd3b357" d="M30.31,15.4c0,7.36-5.99,13.35-13.35,13.35S3.62,22.76,3.62,15.4c0-4.14,1.88-10.33,5.01-14.76C3.48,3.55,0,9.07,0,15.4c0,9.35,7.61,16.96,16.96,16.96s16.96-7.61,16.96-16.96c0-6.35-3.51-11.89-8.68-14.8.51.72,1,1.51,1.47,2.36,2.18,3.98,3.59,8.86,3.59,12.43"/><path class="uuid-5a02e314-8552-4533-a71f-c68eee4dc791" d="M73.87,7.08c-5.65,0-9.8,4.58-9.8,10.23s4.58,10.23,10.23,10.23c3.63,0,6.82-1.89,8.63-4.75l-3.59-2.28c-1.06,1.67-2.92,2.78-5.04,2.78-2.56,0-4.74-1.61-5.6-3.87h14.96v-2.11c0-5.65-4.15-10.23-9.8-10.23M68.45,15.95c.52-2.65,2.58-4.63,5.42-4.63s4.89,1.98,5.42,4.63h-10.83Z"/><path class="uuid-5a02e314-8552-4533-a71f-c68eee4dc791" d="M90.36,22.46l-4.38.22c0,3.21,2.68,4.45,5.85,4.45v-3.46c-.5,0-1.46-.22-1.46-1.2"/><path class="uuid-5a02e314-8552-4533-a71f-c68eee4dc791" d="M95.74,28.96v3.46c3.17,0,5.85-1.24,5.85-4.45l-4.38-.22c0,.99-.96,1.2-1.46,1.2"/><polygon class="uuid-f206fa0d-d47f-4b92-9436-2667269272ba" points="65.89 3.07 60.43 3.07 51.62 11.55 51.62 3.07 47.23 3.07 47.23 27.16 51.62 27.16 51.62 13.23 60.64 27.16 65.25 27.16 55.88 12.7 65.89 3.07"/><path class="uuid-f206fa0d-d47f-4b92-9436-2667269272ba" d="M68.45,15.98c.52-2.65,2.58-4.63,5.42-4.63s4.89,1.98,5.42,4.63h-10.83ZM73.87,7.11c-5.65,0-9.8,4.58-9.8,10.23s4.58,10.23,10.23,10.23c3.63,0,6.82-1.89,8.63-4.75l-3.59-2.28c-1.06,1.67-2.92,2.78-5.04,2.78-2.56,0-4.74-1.61-5.59-3.87h14.96v-2.11c0-5.65-4.15-10.23-9.8-10.23Z"/><rect class="uuid-f206fa0d-d47f-4b92-9436-2667269272ba" x="97.18" y="2.64" width="4.47" height="3.46"/><path class="uuid-f206fa0d-d47f-4b92-9436-2667269272ba" d="M108.07,15.98c.52-2.65,2.58-4.63,5.42-4.63s4.89,1.98,5.42,4.63h-10.83ZM113.49,7.11c-5.65,0-9.8,4.58-9.8,10.23s4.58,10.23,10.23,10.23c3.63,0,6.82-1.89,8.63-4.75l-3.59-2.28c-1.06,1.67-2.92,2.78-5.04,2.78-2.56,0-4.74-1.61-5.59-3.87h14.96v-2.11c0-5.65-4.15-10.23-9.8-10.23Z"/><path class="uuid-f206fa0d-d47f-4b92-9436-2667269272ba" d="M136.96,7.11c-2.72,0-5.11,1.48-6.73,3.44v-2.61h-4.38v19.22h4.38v-9.2c0-4.3,1.91-6.71,5.52-6.71,3.2,0,4.66,1.77,4.66,6.23v9.68h4.38v-11.69c0-4.14-1.71-8.36-7.85-8.36Z"/><path class="uuid-f206fa0d-d47f-4b92-9436-2667269272ba" d="M90.36,22.49l-4.38.21c0,3.21,2.68,4.45,5.85,4.45v-3.46c-.5,0-1.46-.21-1.46-1.2"/><path class="uuid-f206fa0d-d47f-4b92-9436-2667269272ba" d="M95.73,28.99v3.46c3.16,0,5.85-1.24,5.85-4.45l-4.38-.21c0,.99-.96,1.2-1.46,1.2"/><rect class="uuid-f206fa0d-d47f-4b92-9436-2667269272ba" x="93.84" y="28.99" width="1.99" height="3.46"/><rect class="uuid-f206fa0d-d47f-4b92-9436-2667269272ba" x="91.66" y="23.7" width="2.05" height="3.46"/><polygon class="uuid-f206fa0d-d47f-4b92-9436-2667269272ba" points="90.36 11.4 94.9 11.4 94.9 7.94 90.36 7.94 90.36 2.64 85.97 2.64 85.97 7.94 85.97 11.4 85.97 22.71 90.36 24.1 90.36 11.4"/><polygon class="uuid-f206fa0d-d47f-4b92-9436-2667269272ba" points="97.2 30.05 101.58 28.01 101.58 7.94 97.2 7.94 97.2 30.05"/><path class="uuid-f206fa0d-d47f-4b92-9436-2667269272ba" d="M149.78,25.76c0,.94-.74,1.68-1.7,1.68s-1.71-.74-1.71-1.68.76-1.66,1.71-1.66,1.7.74,1.7,1.66ZM146.79,25.76c0,.74.55,1.33,1.3,1.33s1.27-.59,1.27-1.32-.54-1.34-1.28-1.34-1.29.6-1.29,1.33ZM147.81,26.63h-.39v-1.66c.15-.03.36-.05.64-.05.31,0,.46.05.58.12.09.07.16.2.16.37,0,.18-.14.32-.34.38v.02c.16.06.25.18.3.4.05.25.08.35.12.42h-.42c-.05-.06-.08-.21-.13-.41-.03-.18-.13-.26-.34-.26h-.18v.67ZM147.82,25.69h.18c.21,0,.39-.07.39-.24,0-.15-.11-.25-.35-.25-.1,0-.17,0-.21.02v.48Z"/></g></svg>