<svg fill="none" height="500" viewBox="0 0 500 500" width="500" xmlns="http://www.w3.org/2000/svg" aria-hidden="true"><clipPath id="a"><path d="M0 0h500v500H0z"/></clipPath><g clip-path="url(#a)" clip-rule="evenodd" fill="#27a9e0" fill-rule="evenodd"><path d="M129.632 450.234c1.84 25.58-17.42 47.82-42.99 49.65-25.59 1.83-47.81-17.41-49.64-42.99-1.84-25.58 17.4-47.81 42.98-49.64 25.58-1.83 47.81 17.41 49.65 42.99M428.902.154c-32.44 2.32-56.83 30.51-54.5 62.94.06.87.22 1.7.31 2.55l-.08.1c4.67 22.75-13.64 64.38-47.3 103.27-33.68 38.88-72.27 62.93-95.46 61.57-6.37-1.18-12.95-1.67-19.7-1.18-8.02.58-15.66 2.37-22.77 5.15-17.34 6.77-42 .95-61.94-16.33-17.25-14.92-26.51-34.58-25.97-51.35v-.34c.03-1.51.01-3.03-.09-4.55-.11-1.61-.31-3.2-.58-4.74-4.08-23.35-25.25-40.27-49.4-38.54-25.77 1.84-45.15 24.22-43.3 49.97 1.66 23.18 19.95 41.13 42.36 43.17 2.49.22 5.03.31 7.62.13 1.47-.11 2.92-.3 4.35-.55.52-.07 1-.18 1.49-.29 16.36-2.5 36.68 3.93 53.59 18.58 19.6 16.97 28.92 40.04 25.22 58.02-.13.57-.29 1.1-.41 1.68-.13.56-.19 1.13-.31 1.71-1.36 6.72-1.92 13.72-1.41 20.89 1.53 21.34 11.59 40.03 26.6 52.97 14.95 13 34.88 20.29 56.22 18.75 8.03-.57 15.66-2.36 22.77-5.16 17.34-6.76 42-.93 61.94 16.34 17.24 14.93 26.51 34.58 25.98 51.34v.34c-.04 1.5-.01 3.03.09 4.56.12 1.61.31 3.19.58 4.75 4.08 23.35 25.26 40.27 49.4 38.54 25.75-1.86 45.13-24.23 43.28-49.98-1.67-23.18-19.95-41.12-42.35-43.16-2.5-.23-5.04-.31-7.63-.13-1.47.11-2.92.29-4.36.53-.5.08-.99.19-1.48.3-16.36 2.49-36.68-3.94-53.58-18.58-19.6-16.97-28.93-40.04-25.23-58.03.13-.57.29-1.1.41-1.67.13-.56.2-1.13.31-1.7 1.37-6.72 1.92-13.72 1.41-20.9a77.044 77.044 0 0 0-3.08-16.57l.07-.07c-6.14-22.3 12.28-65.23 46.94-105.25 31.65-36.55 67.6-60.01 91.09-61.61.11 0 .23.02.34.03 1.42.06 2.87.04 4.32 0 .6-.02 1.2 0 1.82-.03.28-.02.56 0 .85-.02 32.43-2.33 56.82-30.51 54.5-62.94-2.32-32.44-30.51-56.84-62.94-54.51"/></g></svg>