<svg width="389" height="112" viewBox="0 0 389 112" fill="none" xmlns="http://www.w3.org/2000/svg">
<g clip-path="url(#clip0_3915_31438)">
<path d="M176.751 35.7938C174.191 34.8958 171.15 34.6071 169.517 34.6071C163.788 34.6071 159.082 38.2955 156.298 42.85L157.258 38.1352C157.546 36.7881 156.49 35.5372 155.113 35.5372H149.352C148.36 35.5372 147.495 36.2108 147.239 37.1409L136.452 77.0722C136.196 77.1042 135.94 77.1363 135.684 77.1684C132.451 77.5212 129.09 77.4891 127.138 74.9233C121.857 66.7446 126.978 48.8797 130.691 38.3918C131.203 36.9805 130.147 35.5052 128.642 35.5052H121.729C120.768 35.5052 119.936 36.1146 119.648 37.0447C119.456 37.6862 119.264 38.3597 119.072 39.0332C118.72 40.2841 118.368 41.6632 118.016 43.0745C113.182 37.7824 106.236 34.4467 98.5543 34.4467C84.0224 34.4467 72.1793 46.2818 72.1793 60.8752C72.1793 75.4685 83.9904 87.3036 98.5543 87.3036C106.268 87.3036 113.214 83.9679 118.048 78.6438C120.096 82.1398 123.265 84.8018 128.002 86.1169C128.77 86.3414 129.539 86.4376 130.339 86.4697C131.619 86.5338 133.7 86.598 135.46 86.5017H144.038C145.031 86.5017 145.927 85.8282 146.151 84.8339C146.759 82.3001 147.399 79.7343 148.168 77.2325L153.609 58.3414C155.818 50.6438 160.363 46.8591 166.637 46.8591C168.045 46.8591 169.229 47.0195 170.478 47.3081C171.374 47.5006 172.27 47.1799 172.782 46.4422L177.776 39.1294C178.608 37.9107 178.096 36.2749 176.751 35.7938ZM98.5543 76.2062C90.1041 76.2062 83.2222 69.3104 83.2222 60.8431C83.2222 52.3757 90.1041 45.48 98.5543 45.48C107.005 45.48 113.886 52.3757 113.886 60.8431C113.886 69.3104 107.005 76.2062 98.5543 76.2062Z" fill="#0B6DE2"/>
<path d="M41.7392 34.4147C41.7072 34.4147 41.6752 34.4147 41.6752 34.4147C41.6432 34.4147 41.5792 34.4147 41.5472 34.4147C33.8331 34.4147 26.8872 37.7503 22.086 43.0424C21.7339 41.5991 21.3498 40.252 21.0297 39.0012C20.8376 38.3276 20.6456 37.6861 20.4535 37.0126C20.1655 36.0825 19.3332 35.4731 18.373 35.4731H11.4271C9.92271 35.4731 8.86643 36.9485 9.37857 38.3597L12.7715 49.0722C14.4039 54.268 14.4679 59.8488 12.9635 65.0768L0.0960881 109.274C-0.288015 110.653 0.736259 112 2.14464 112H9.15451C10.1148 112 10.947 111.359 11.2031 110.46L20.9016 77.2005C21.2537 77.6495 21.6378 78.1306 22.0219 78.5796C26.8552 83.9038 33.8011 87.2394 41.5152 87.2394C41.5472 87.2394 41.6112 87.2394 41.6432 87.2394C41.6752 87.2394 41.7072 87.2394 41.7072 87.2394C56.2391 87.2394 68.0823 75.4044 68.0823 60.811C68.0823 46.2177 56.2711 34.4147 41.7392 34.4147ZM41.6752 76.2062C33.257 76.142 26.4391 69.2784 26.4391 60.8431C26.4391 52.4078 33.257 45.5441 41.6752 45.48C50.0935 45.5441 56.9113 52.4078 56.9113 60.8431C56.8793 69.2784 50.0614 76.142 41.6752 76.2062Z" fill="#0B6DE2"/>
<path d="M387.912 77.1042C387.464 76.0458 386.215 75.6609 385.255 76.2062C382.182 77.9381 379.077 78.74 377.125 78.3872C371.555 77.1684 370.211 68.669 369.667 63.1203C373.7 57.2188 377.381 51.0607 380.582 44.6461C382.63 40.4765 384.551 36.1787 385.895 31.6243C387.944 22.9003 392.073 8.1787 383.046 1.79611C381.798 0.962207 380.39 0.481107 379.077 0.22452L379.557 0.352814C378.373 7.23532e-06 377.061 7.23532e-06 375.876 0.22452C359.744 4.10539 360.8 42.6896 360.768 55.9359C360.8 57.3792 360.8 59.3677 360.864 61.0355C359.072 63.8259 356.991 66.4559 354.687 68.7652C353.855 69.567 352.99 70.3688 352.094 71.1707C346.909 75.5006 340.699 78.2268 333.497 77.8419C331.449 77.7778 329.368 77.3929 327.416 76.7835C325.751 76.4307 324.247 75.8213 322.902 75.0195C330.136 70.4971 337.306 65.7824 344.22 60.6186C344.764 60.2337 345.308 59.8167 345.82 59.4318C346.044 59.2394 346.269 59.079 346.525 58.8866L353.566 53.2738C354.367 52.6644 354.655 51.5739 354.271 50.6117C353.663 49.1684 352.926 47.7892 352.062 46.5063C339.867 28.1283 312.275 31.9771 305.65 53.0172C303.473 60.1375 304.369 66.9049 307.186 72.4857C307.346 72.7743 307.506 73.063 307.698 73.3517C306.034 74.2818 304.433 75.1798 303.057 75.9175C297.936 78.5796 294.031 79.0928 291.374 77.457C289.069 76.0137 287.565 72.9668 286.637 69.7274C294.415 58.7262 298.352 45.9931 302.225 31.8488C304.529 23.4456 306.418 11.9954 302.257 5.26003C300.592 2.56587 298.064 0.80184 294.959 0.192447C293.807 -0.0641394 290.798 -0.416946 287.501 2.08477C279.403 8.1787 275.722 27.4227 276.586 59.2394C276.586 60.2337 276.586 63.6334 277.29 67.7388C276.97 68.1237 276.618 68.5407 276.298 68.9255C271.945 73.9611 265.479 78.8683 260.806 78.5155C259.621 78.4192 257.797 77.9702 256.004 75.0515C255.14 73.6403 254.5 72.0687 254.02 70.4009C260.39 59.3677 265.639 46.0252 269.224 31.5601L269.384 30.9187C271.721 21.6816 273.545 11.4181 269.512 5.06759C267.88 2.50173 265.415 0.833913 262.406 0.22452C261.254 -0.0320661 258.245 -0.384872 254.948 2.11685C246.85 8.24285 243.169 27.4868 244.033 59.3677C244.097 62.2543 244.257 65.3654 244.737 68.4444C244.001 69.5991 243.201 70.7217 242.305 71.7801C240.96 73.3517 239.552 75.0836 237.664 76.0137C236.191 76.7194 234.495 77.008 232.862 76.7194C231.294 76.4628 230.526 75.2761 229.981 73.8648C226.909 63.7938 230.494 49.2325 233.534 38.2955C233.918 36.9164 232.862 35.5372 231.422 35.5372H224.38C223.388 35.5372 222.555 36.1787 222.267 37.1409C221.723 39.0653 221.179 41.1501 220.667 43.3631C215.258 37.2692 207.095 33.7091 198.165 34.6392C186.002 35.9221 176.143 45.7045 174.799 57.8923C173.038 73.8007 185.458 87.3356 200.982 87.3356C208.632 87.3356 215.546 84.0641 220.347 78.8041C221.499 81.1134 223.068 83.0699 225.116 84.5452C225.116 84.5452 236.287 93.2371 248.354 79.3814C248.418 79.4777 248.482 79.606 248.546 79.7022C252.131 85.4754 256.805 86.9828 260.069 87.2394C260.454 87.2715 260.838 87.2715 261.222 87.2715C268.968 87.2715 276.202 81.4021 280.235 77.3929C281.739 80.3757 283.82 83.0699 286.733 84.8981C292.174 88.2657 298.992 87.8809 307.122 83.6472C308.114 83.1019 310.419 81.819 313.204 80.2795C313.364 80.4399 313.524 80.6002 313.684 80.7285C317.237 83.7113 321.526 85.764 326.103 86.5017C338.779 88.6186 349.533 84.8018 357.664 77.1684C359.296 75.7572 360.928 74.2497 362.465 72.646C365.666 83.7755 373.508 90.5109 385.799 85.6037C388.456 84.5452 389.704 81.4341 388.584 78.8041L387.912 77.1042ZM200.982 76.2062C192.531 76.2062 185.65 69.3104 185.65 60.8431C185.65 52.3757 192.531 45.48 200.982 45.48C209.432 45.48 216.314 52.3757 216.314 60.8431C216.314 69.3104 209.432 76.2062 200.982 76.2062ZM260.678 8.72395C261.478 8.88431 261.83 9.23712 262.15 9.71822C264.711 13.7274 261.862 25.0493 260.934 28.7377L260.774 29.4112C258.597 38.1031 255.844 46.3139 252.579 53.819C252.099 13.6312 259.909 9.07675 260.678 8.72395ZM293.262 8.72395C293.999 8.88431 294.447 9.20505 294.863 9.84651C296.719 12.8293 296.303 20.559 293.839 29.5075C291.246 39.0011 288.749 47.4364 285.164 54.9737C284.556 13.7274 292.494 9.07675 293.262 8.72395ZM316.693 68.2199L316.116 66.9049C313.876 60.9714 315.124 53.8832 320.662 49.2325C326.935 43.9404 335.578 44.2291 340.859 49.7778C341.083 50.0344 341.339 50.2589 341.595 50.4834C331.993 58.2772 316.693 68.2199 316.693 68.2199ZM377.317 8.59565C377.189 8.56358 377.061 8.53151 376.965 8.49943C377.093 8.56358 377.221 8.59565 377.317 8.59565ZM377.509 8.6598C378.149 8.82017 378.661 9.04468 379.013 9.622C380.838 13.0859 380.006 17.8007 379.365 22.0344C378.949 24.3757 378.277 27.0699 377.701 29.4433C376.485 33.3562 374.82 37.1409 372.964 40.8935C371.843 43.1707 370.627 45.4158 369.379 47.6609C369.539 36.9164 370.307 13.5349 377.509 8.6598Z" fill="#0B6DE2"/>
</g>
<defs>
<clipPath id="clip0_3915_31438">
<rect width="389" height="112" fill="white"/>
</clipPath>
</defs>
</svg>
