<?xml version="1.0" encoding="UTF-8"?>
<svg id="Layer_1" data-name="Layer 1" xmlns="http://www.w3.org/2000/svg" viewBox="0 0 136 136">
  <path d="M46.51,60.8v4.26h-2.93v-12.14h4.76c1.19-.09,2.37.3,3.3,1.07.77.76,1.19,1.81,1.13,2.89.02.71-.16,1.4-.5,2.02-.35.61-.88,1.09-1.5,1.39-.75.36-1.58.54-2.42.5h-1.82,0ZM49.77,56.89c0-1.06-.59-1.6-1.77-1.6h-1.49v3.16h1.5c1.18,0,1.77-.52,1.77-1.56h0Z"/>
  <path d="M59.38,55.86c.52.33.92.8,1.16,1.37v-1.75h2.92v9.58h-2.92v-1.74c-.24.56-.65,1.03-1.16,1.35-.57.34-1.23.52-1.89.5-.74,0-1.48-.19-2.12-.59-.64-.42-1.16-1.01-1.47-1.71-.72-1.67-.72-3.56,0-5.22.32-.7.83-1.28,1.47-1.7.64-.4,1.37-.61,2.12-.59.67-.02,1.32.16,1.89.5h0ZM56.92,58.55c-.77,1.02-.77,2.41,0,3.43.85.83,2.2.82,3.04-.02.41-.47.62-1.08.59-1.7.03-.62-.18-1.23-.59-1.71-.84-.83-2.2-.84-3.04,0h0Z"/>
  <path d="M74.67,55.48v9.58h-2.95v-1.74c-.27.56-.69,1.02-1.23,1.34-.57.34-1.23.51-1.89.5-.99.05-1.95-.36-2.61-1.1-.69-.85-1.03-1.92-.98-3.02v-5.55h2.92v5.2c-.03.55.15,1.09.5,1.52.36.36.85.57,1.37.54.53.02,1.05-.18,1.4-.57.37-.45.55-1.03.51-1.61v-5.08h2.96Z"/>
  <path d="M90.36,55.48l-2.45,9.58h-3.28l-1.73-6.42-1.75,6.42h-3.28l-2.44-9.58h2.93l1.27,6.89,1.78-6.89h3.13l1.84,6.92,1.27-6.92h2.72,0Z"/>
  <path d="M100.09,60.8h-6.64c-.02.57.17,1.12.55,1.56.34.32.8.49,1.27.47.39.02.77-.1,1.08-.33.28-.21.48-.5.57-.84h3.11c-.12.66-.4,1.29-.82,1.81-.43.54-.99.97-1.61,1.25-1.5.65-3.22.61-4.68-.13-.73-.39-1.32-.99-1.71-1.71-.43-.8-.64-1.7-.62-2.61-.02-.91.19-1.81.61-2.61.39-.72.99-1.31,1.71-1.7,1.57-.78,3.43-.79,5.01,0,.71.37,1.29.94,1.68,1.64.4.74.61,1.58.59,2.44,0,.26-.03.53-.09.78h0ZM96.7,58.15c-.36-.32-.82-.49-1.3-.47-.49-.02-.97.16-1.33.48-.38.37-.6.88-.61,1.4h3.74c.05-.53-.14-1.05-.51-1.42h0Z"/>
  <path d="M104.3,52.36v12.71h-2.93v-12.71h2.93Z"/>
  <path d="M112.36,56.28c.73.61,1.21,1.47,1.37,2.4h-2.75c-.06-.36-.26-.69-.54-.92-.3-.23-.67-.35-1.05-.33-.27-.02-.54.05-.75.22-.18.16-.27.38-.26.61,0,.3.19.57.47.67.48.2.98.35,1.49.44.61.14,1.21.31,1.8.52.47.18.89.48,1.22.87.36.46.54,1.03.51,1.61,0,.52-.15,1.03-.44,1.46-.33.45-.78.79-1.29,1-.63.26-1.31.38-1.99.36-1.1.05-2.2-.25-3.11-.86-.79-.59-1.3-1.48-1.42-2.46h2.84c.02.38.22.72.52.95.35.23.76.34,1.18.33.27.02.54-.07.74-.24.17-.16.26-.38.26-.61.02-.31-.18-.6-.47-.71-.5-.2-1.01-.35-1.54-.46-.6-.12-1.18-.28-1.75-.48-.46-.17-.87-.46-1.19-.83-.35-.44-.53-1-.5-1.57-.02-.81.34-1.58.98-2.09.8-.58,1.78-.86,2.76-.8,1.05-.05,2.08.27,2.91.92h0Z"/>
  <path d="M52.96,69.97c1.02.83,1.72,2,1.96,3.3h-3.11c-.21-.54-.58-1-1.05-1.32-.5-.33-1.09-.5-1.69-.48-.8-.02-1.57.33-2.08.95-1.05,1.51-1.05,3.52,0,5.03.51.62,1.28.96,2.08.94.6.02,1.19-.16,1.69-.48.47-.32.85-.78,1.05-1.3h3.11c-.25,1.3-.95,2.45-1.96,3.29-1.09.85-2.45,1.28-3.83,1.23-1.09.02-2.16-.24-3.11-.78-.88-.51-1.61-1.27-2.07-2.19-.97-2.02-.97-4.39,0-6.42.47-.92,1.18-1.68,2.07-2.19.95-.54,2.02-.81,3.11-.78,1.38-.05,2.74.37,3.83,1.22v-.02Z"/>
  <path d="M63.25,71.9c.74.39,1.36.98,1.77,1.71.86,1.63.86,3.58,0,5.21-.41.73-1.02,1.32-1.77,1.71-1.61.79-3.5.79-5.1,0-.74-.39-1.37-.98-1.78-1.71-.86-1.63-.86-3.58,0-5.21.41-.73,1.03-1.33,1.78-1.71,1.61-.79,3.5-.79,5.1,0ZM59.29,74.46c-.41.49-.62,1.12-.57,1.76-.05.64.16,1.26.57,1.75.36.4.88.61,1.42.61.54,0,1.05-.21,1.4-.61.41-.49.61-1.12.57-1.75.05-.64-.16-1.26-.57-1.76-.36-.4-.87-.62-1.4-.61-.54,0-1.05.22-1.41.61h0Z"/>
  <path d="M75.54,72.43c.69.85,1.03,1.92.97,3.02v5.56h-2.93v-5.21c.03-.55-.15-1.09-.5-1.5-.35-.36-.85-.57-1.35-.54-.54-.02-1.05.18-1.42.57-.37.45-.56,1.03-.52,1.61v5.08h-2.93v-9.58h2.93v1.75c.26-.56.69-1.03,1.23-1.35.58-.34,1.24-.51,1.92-.5.99-.05,1.95.35,2.62,1.09,0,0,0,0,0,0Z"/>
  <path d="M84.5,72.23c.73.61,1.21,1.47,1.37,2.4h-2.74c-.06-.36-.26-.69-.54-.92-.3-.23-.67-.35-1.05-.33-.27-.02-.54.05-.75.22-.18.16-.27.38-.26.61,0,.3.19.57.47.67.48.2.98.35,1.49.44.61.13,1.21.31,1.8.52.47.18.89.48,1.22.87.36.46.54,1.03.51,1.61,0,.52-.15,1.03-.44,1.46-.33.45-.78.79-1.29,1-.63.26-1.31.38-1.99.36-1.1.05-2.2-.25-3.11-.86-.79-.59-1.3-1.47-1.43-2.45h2.83c.02.38.22.72.52.95.35.23.76.34,1.18.33.27.02.54-.06.75-.23.17-.16.26-.38.26-.61,0-.31-.18-.6-.47-.71-.5-.2-1.01-.35-1.54-.46-.6-.12-1.19-.28-1.76-.48-.46-.17-.87-.46-1.19-.83-.35-.45-.52-1.01-.49-1.57-.02-.81.34-1.58.98-2.09.8-.58,1.78-.86,2.76-.8,1.05-.05,2.08.27,2.91.92h0Z"/>
  <path d="M96.81,71.43v9.58h-2.96v-1.74c-.27.56-.69,1.02-1.23,1.34-.57.34-1.23.51-1.89.5-.99.05-1.95-.36-2.61-1.1-.68-.85-1.03-1.93-.97-3.02v-5.55h2.92v5.2c-.03.55.15,1.09.5,1.52.36.36.85.57,1.37.54.53.02,1.05-.18,1.41-.57.37-.46.55-1.03.51-1.61v-5.08h2.95Z"/>
  <path d="M101.43,68.3v12.71h-2.93v-12.71s2.93,0,2.93,0Z"/>
  <path d="M108.87,78.49v2.53h-1.32c-.95.06-1.88-.24-2.61-.83-.69-.74-1.03-1.75-.94-2.75v-3.51h-1.29v-2.48h1.29v-2.35h2.93v2.35h1.92v2.47h-1.92v3.57c-.03.29.05.57.23.79.22.17.5.25.78.22h.93Z"/>
  <path d="M110.73,67.63c.74-.58,1.79-.58,2.54,0,.32.28.5.69.48,1.11,0,.42-.17.81-.48,1.09-.74.58-1.79.58-2.54,0-.31-.27-.49-.67-.48-1.09,0-.43.16-.83.48-1.11ZM113.46,71.43v9.58h-2.93v-9.58h2.93Z"/>
  <path d="M123.83,72.43c.69.85,1.03,1.93.97,3.02v5.56h-2.93v-5.21c.03-.55-.15-1.09-.5-1.5-.35-.36-.85-.57-1.35-.54-.54-.02-1.05.18-1.42.57-.37.45-.56,1.03-.52,1.61v5.08h-2.93v-9.58h2.93v1.75c.26-.56.69-1.03,1.23-1.35.58-.34,1.24-.51,1.92-.5.99-.05,1.95.35,2.62,1.09h0Z"/>
  <path d="M131.92,71.81c.52.32.92.79,1.16,1.35v-1.74h2.92v9.53c.02.83-.16,1.65-.51,2.41-.34.71-.89,1.31-1.58,1.71-.81.45-1.72.67-2.65.64-1.23.06-2.46-.29-3.46-1.02-.87-.68-1.43-1.68-1.56-2.77h2.9c.08.37.3.7.63.91.39.23.83.35,1.28.33.54.02,1.07-.16,1.47-.53.41-.46.61-1.05.56-1.67v-1.68c-.24.56-.65,1.03-1.16,1.35-.57.34-1.23.52-1.89.5-.75,0-1.49-.19-2.12-.59-.64-.42-1.16-1.01-1.47-1.71-.72-1.67-.72-3.56,0-5.22.32-.69.83-1.28,1.47-1.7.64-.4,1.37-.61,2.12-.59.67-.02,1.32.16,1.89.5h0ZM129.45,74.5c-.77,1.02-.77,2.41,0,3.43.85.83,2.2.82,3.04-.02.41-.47.62-1.08.59-1.7.03-.62-.18-1.23-.59-1.71-.84-.83-2.19-.84-3.03,0h0Z"/>
  <path d="M18.61,49.38c-10.28,0-18.61,8.33-18.61,18.61,0,5.52,2.45,10.76,6.69,14.3v-14.3c0-6.59,5.33-11.92,11.92-11.93,6.59,0,11.92,5.33,11.93,11.92,0,6.59-5.33,11.92-11.92,11.93-1.92,0-3.81-.46-5.51-1.35v7.21c9.82,3.05,20.25-2.44,23.29-12.26s-2.44-20.25-12.26-23.29c-1.8-.55-3.67-.83-5.54-.83Z"/>
  <circle cx="18.61" cy="67.99" r="5.51"/>
</svg>