<svg xmlns="http://www.w3.org/2000/svg" id="Calque_1" viewBox="0 0 1074 259.8"><path d="M1014.2,259.7c-36,0-53.5-24.5-53.5-51.9,0-38.9.3-79.4.4-112.3,0-17.4-3-19.8-17.7-22.9-12.5-2.9-12.9-16.5-4.7-24,15.4-13.9,29.3-27.3,43.6-42.2,10.1-10.5,23.5-5.6,25.2,6.1l.8,20.1c.5,6.5,4.8,9.2,11.6,9.2s20.5,0,30.9-.2c24-.4,24,34.8,0,34.3-11-.3-21.1-.2-31.5-.3-7.2,0-11.2,3.9-11.2,10.6,0,37.5-.4,71.6-.4,109.1s24.5,30.6,47.8,14.1c12.2-7.6,23.1,4.4,15.8,17.7-6.3,11.4-25.6,32.7-57.2,32.7Z"></path><path d="M831.3,259.8c-60.5,0-103.5-44.9-103.5-110.8s51.3-113.1,106.7-113.1,86.8,33.5,86,83.2c0,13.1-7.1,19-20.9,19h-104.1c-10.5,0-15.3,6.1-14.2,17.1,4.3,46.3,31,66.6,62.4,66.6s35.6-6.2,51.2-22.9c11.7-11.9,28.9-.9,20.8,14.5-19.8,36.8-56.5,46.5-84.4,46.5ZM783.8,100.3c-2,7.4,2.1,11.7,8.4,11.7h65.1c7.3,0,11.1-4.5,10.2-12.6-2.8-26.1-21.2-36.7-38.3-36.7s-38.6,11.5-45.5,37.6Z"></path><path d="M615.9,259.8c-60.5,0-103.5-44.9-103.5-110.8s51.3-113.1,106.7-113.1,86.8,33.5,86,83.2c0,13.1-7.1,19-20.9,19h-104.1c-10.5,0-15.3,6.1-14.2,17.1,4.3,46.3,31,66.6,62.4,66.6s35.6-6.2,51.2-22.9c11.7-11.9,28.9-.9,20.8,14.5-19.8,36.8-56.5,46.5-84.4,46.5ZM568.5,100.3c-2,7.4,2.1,11.7,8.4,11.7h65.1c7.3,0,11.1-4.5,10.2-12.6-2.8-26.1-21.2-36.7-38.3-36.7s-38.6,11.5-45.5,37.6Z"></path><path d="M350.8,253.7c-15.4-.6-21.3-20.7-5.6-26.9,19.1-6.1,21.6-10.2,22.3-45.8.4-20.2.4-38.7,0-59.5-.4-24.4-5-29-21-37.4-12.3-6.9-10.6-20,1.3-26,15.2-7.6,27.4-13.8,40.6-19.6,12.8-5.8,18.7-1.8,21.2,7.2,3.6,10.6,10.4,14.5,22.9,6.6,14.7-9.4,27.1-16.4,41.7-16.4,54.9,0,32.1,80.2-14.5,51-23.6-15.1-44.4,1.2-45.1,40.5-.4,17.2-.4,35.4,0,53.3.7,35.4,2.2,38.1,31.1,44.4,18.8,4.7,14.8,28-3.5,28.5-33,.3-66.4.3-91.4,0Z"></path><path d="M259.7,259.7c-36,0-53.5-24.5-53.5-51.9,0-38.9.3-79.4.4-112.3,0-17.4-3-19.8-17.7-22.9-12.5-2.9-12.9-16.5-4.7-24,15.4-13.9,29.3-27.3,43.6-42.2,10.1-10.5,23.5-5.6,25.2,6.1l.8,20.1c.5,6.5,4.8,9.2,11.6,9.2s20.5,0,30.9-.2c24-.4,24,34.8,0,34.3-11-.3-21.1-.2-31.5-.3-7.2,0-11.2,3.9-11.2,10.6,0,37.5-.4,71.6-.4,109.1s24.5,30.6,47.8,14.1c12.2-7.6,23.1,4.4,15.8,17.7-6.3,11.4-25.6,32.7-57.2,32.7Z"></path><path d="M76.7,259.7c-21.3,0-44.9-4.4-63-13-8.4-3.9-10.8-8.7-11-20v-33.2c.4-18.4,22.9-21.6,27.7-4.6,8.7,29.5,25.5,44.1,48.7,44.1s32.7-9.5,32.7-22.9-9.2-23.9-29.1-33.9c-12.2-6.1-23.7-11.5-34.7-17.1-28.7-14.3-43.2-33.5-43.2-59.7,0-38.9,32.3-63.4,82.3-63.4s34.3,2.3,45.9,6.1c14.1,4.4,17.3,9.1,17.3,23.5,0,9.6,0,21.7,0,30.4-.4,18.3-23.5,22-28.2,3.7-5.8-22.4-17.2-37.3-39.4-37.3s-31.1,8.5-31.1,24.1,6.5,22.2,24.6,31.3c12.1,6.1,27.2,13.8,38.9,19.8,30.9,15.9,43.6,38.8,43.6,60.1s-19.6,61.9-81.9,61.9Z"></path></svg>