<?xml version="1.0" encoding="utf-8"?>
<!-- Generator: Adobe Illustrator 27.2.0, SVG Export Plug-In . SVG Version: 6.00 Build 0)  -->
<svg version="1.1" id="Brandmark" xmlns="http://www.w3.org/2000/svg" xmlns:xlink="http://www.w3.org/1999/xlink" x="0px" y="0px"
	 viewBox="0 0 159 35.7" style="enable-background:new 0 0 159 35.7;" xml:space="preserve">
<style type="text/css">
	.st0{fill:#FD645B;}
	.st1{fill:#FFFFFF;}
</style>
<path id="Path_1" class="st0" d="M11.5,35.4c0,0.1-0.1,0.2-0.2,0.3L11.5,35.4z"/>
<path id="Path_5" class="st0" d="M29.2,22.1L29.2,22.1l-0.3,0.5c0-0.2,0.2-0.2,0.2-0.3L29.2,22.1z"/>
<path id="Path_7" class="st0" d="M17.7,23.3c-0.7,1.1-1,1.6-1,1.6L17.7,23.3z"/>
<g id="Group_143">
	<path id="Path_186" class="st1" d="M159,13.2c0-0.6,0-0.8,0-1C159,12.7,159,13.1,159,13.2z"/>
	<g id="Group_142" transform="translate(67.891 23.609)">
		<path id="Path_187" class="st1" d="M0,0.4h1.2c0.5,0,1.1,0.2,1.5,0.5c0.4,0.3,0.6,0.8,0.6,1.3c0,0.4-0.1,0.8-0.4,1.1
			C2.6,3.6,2.2,3.9,1.7,4l1.6,2.7H2.5L0.9,4.1H0.8v2.6H0V0.4z M0.8,1.2v2.2c1.1,0,1.7-0.3,1.7-1.1c0-0.2-0.1-0.5-0.2-0.6
			C2.1,1.4,1.9,1.3,1.7,1.3C1.4,1.2,1.1,1.2,0.8,1.2z"/>
		<path id="Path_188" class="st1" d="M6,0.4h3.3v0.8H6.8v1.6h2.5v0.8H6.8v2.1h2.5v0.8H6V0.4z"/>
		<path id="Path_189" class="st1" d="M16.6,0.5v1c-0.5-0.3-1.2-0.5-1.8-0.5c-0.7,0-1.3,0.2-1.7,0.7c-0.9,0.9-0.9,2.5,0,3.4
			c0,0,0,0,0,0c0.5,0.5,1.1,0.7,1.8,0.7c0.6,0,1.2-0.2,1.7-0.5v1c-0.5,0.3-1.1,0.5-1.8,0.4c-1.8,0-3.3-1.5-3.3-3.3
			c0-1.8,1.5-3.3,3.3-3.3C15.4,0.1,16.1,0.2,16.6,0.5z"/>
		<path id="Path_190" class="st1" d="M19.3,0.4h1.2c0.5,0,1,0.2,1.4,0.5c0.4,0.3,0.6,0.8,0.6,1.3c0,0.4-0.1,0.8-0.4,1.1
			C21.8,3.6,21.4,3.9,21,4l1.6,2.7h-0.9l-1.5-2.6H20v2.6h-0.7L19.3,0.4z M20,1.2v2.2c1.1,0,1.7-0.3,1.7-1.1c0-0.2-0.1-0.5-0.2-0.6
			c-0.1-0.2-0.3-0.3-0.5-0.3C20.7,1.2,20.4,1.2,20,1.2z"/>
		<path id="Path_191" class="st1" d="M25.2,0.3H26v3.8c0,0.5,0.1,0.9,0.4,1.3c0.3,0.3,0.7,0.5,1.1,0.5c0.4,0,0.8-0.1,1.1-0.4
			c0.3-0.3,0.4-0.8,0.4-1.2v-4h0.8v3.9c0,0.7-0.2,1.3-0.6,1.8c-0.4,0.5-1,0.7-1.6,0.7c-0.6,0-1.2-0.2-1.6-0.7
			c-0.5-0.6-0.7-1.3-0.6-2L25.2,0.3z"/>
		<path id="Path_192" class="st1" d="M32.4,0.3h0.7v6.2h-0.7V0.3z"/>
		<path id="Path_193" class="st1" d="M35.3,0.4H39v0.8h-1.4v5.4h-0.8V1.2h-1.4V0.4z"/>
		<path id="Path_194" class="st1" d="M46.2,0l1.7,6.5H47l-1-4l-1.7,4.2l-1.7-4.2l-1,4h-0.8L42.4,0l1.9,4.6L46.2,0z"/>
		<path id="Path_195" class="st1" d="M50.1,0.3h3.3v0.8h-2.5v1.6h2.5v0.8h-2.5v2.1h2.5v0.8h-3.3V0.3z"/>
		<path id="Path_196" class="st1" d="M56.1,0l4.7,4.7V0.3h0.9v6.5L57,2.1v4.4h-0.9L56.1,0z"/>
		<path id="Path_197" class="st1" d="M63.9,0.3h3.7v0.8h-1.4v5.4h-0.8V1.1h-1.4L63.9,0.3z"/>
	</g>
	<path id="Path_198" class="st1" d="M124.8,11.2c0-1.1-0.5-2.1-1.2-2.8c-0.5-0.5-1-0.7-1.6-0.2c-0.9,0.8-1.9,1.6-2.7,2.5
		c-1.1,1.1-2.1,2.4-3.1,3.5c-0.9,1-2.1,1.8-3.4,2.2c-0.1-1.2-0.2-2.3-0.3-3.4c-0.4-3,0.3-5.9,2-8.4c0.6-1,1.1-2.1,1.4-3.2
		c0.2-0.6-0.1-1-0.7-1.2c-0.5-0.2-1.2,0-1.5,0.4C113.3,1,113,1.5,112.7,2c-0.4,1.2-0.8,2.4-1.2,3.6c-0.1,0.4-0.4,0.7-0.8,0.8
		c-4.2,0.9-7.6,3.9-9,7.9c-0.2,0.6-0.5,0.7-1.1,0.4c-1-0.4-1.7-1.2-2.2-2.2c-0.5-1-0.9-2-1.4-3c-0.4-0.8-1-1.5-1.9-1.9
		c-0.5-0.3-1.1-0.2-1.5,0.2c-0.9,0.9-1.8,1.9-2.8,2.8c-0.3,0.2-0.5,0.4-0.8,0.6c0.2-1,0.3-1.9,0.4-2.7c0.2-0.6-0.1-1.2-0.7-1.3
		c-0.6-0.3-1.3-0.1-1.7,0.4c-0.5,0.6-0.8,1.2-1.3,1.8c-0.4,0.6-0.7,1.3-1.3,1.6c-1.1,0.5-1.5,1.4-2,2.2c-0.3,0.3-0.6,0.7-0.9,1
		c-0.1,0-0.2-0.1-0.3-0.1c0-0.5-0.1-1-0.1-1.5c0-1.4-0.1-2.8-0.1-4.2c0.1-0.7-0.4-1.3-1.1-1.4c-1.3-0.4-2.7-0.6-4-0.7
		c-2.8,0-5.6,0.3-8.4,0.5c-0.6,0-0.7-0.1-0.7-0.7c0-0.9-0.2-1.8-0.4-2.7c-0.7-1.9-2.5-2.3-3.9-0.8c-0.8,0.9-1.5,1.9-2.1,3
		c-0.2,0.3-1.9,2.8-2.1,3.1c-0.3,0.5-0.6,1.1-0.9,1.7c-0.1,0.3-0.3,0.5-0.4,0.8c-0.2,0.6-0.9,0.9-1.5,0.7c-0.9-0.2-1.9-0.2-2.3-1.2
		c-0.3-0.9,0.1-1.8,0.8-2.4C56.5,7,58,5.8,59.4,4.6c0.4-0.2,0.9-0.4,1.3-0.5C61,4,61.3,3.9,61.5,3.7c0,0,0.1,0,0.1-0.1
		c0,0,0.1-0.2,0-0.3c-0.1,0-0.1-0.1-0.2-0.1l-0.2-0.1c-0.1,0-0.3-0.1-0.4-0.1c-0.2-0.1-0.4-0.1-0.6-0.1c-2.9-0.2-7.3,3.5-7.8,6.4
		c-0.3,1.1,0.2,2.2,1.2,2.7c0.8,0.4,1.6,0.7,2.4,0.9c0.3,0.1,0.5,0.2,0.8,0.2c-0.2,0.3-0.3,0.6-0.3,0.9c-0.1,0.8-0.1,1.6-0.2,2.4
		c0,0.4,0.3,0.7,0.7,0.7c0.1,0,0.1,0,0.2,0c1.1,0,2.1-0.1,3.2-0.3c1.8-0.3,3.5-1.1,4.9-2.2c1-0.9,0.9-1.9-0.5-2.4
		c-0.9-0.2-1.8-0.4-2.8-0.6c-0.6-0.1-1.1-0.2-1.8-0.3c1.9-2.8,2.8-5.9,5.7-8.1c0.2,1.2,0.5,2.2,0.6,3.3c0.2,1,0.1,1.1-1,1.4
		c-0.6,0.1-1.3,0.3-1.9,0.6c-0.6,0.2-0.6,0.6-0.1,1c0.5,0.4,1.2,0.5,1.8,0.2c0.5-0.1,0.9-0.2,1.4-0.4c0.1,0.1,0.1,0.3,0.2,0.5
		c0,1.7,0.1,3.4,0.1,5.1c0,0.4,0,0.8,0,1.2c0,0.1,0.1,0.3,0.2,0.3c0.1,0.1,0.1,0.1,0.2,0.1c0.1,0,0.1,0.1,0.2,0.1
		c0.1,0,0.2-0.1,0.3-0.2c0.1-0.1,0.1-0.2,0.2-0.2c0.3-0.7,0.5-1.4,0.6-2.2c0.1-1.6,0.1-3.2,0.1-4.8c0-0.4,0-0.7,0.5-0.8
		c1.4-0.2,2.9-0.6,4.3-0.8c0.7-0.2,1.4-0.1,2.1,0.1c-0.9,0.8-1.7,1.6-2.5,2.5c-0.7,0.9-1.3,1.9-1.9,2.9c-0.6,1.1-0.5,1.8,0.2,2.5
		c0.8,0.7,1.9,0.8,2.7,0.1c0.9-0.8,1.8-1.6,2.7-2.5c1.1-1.1,2.1-2.2,3.1-3.3c0.2-0.2,0.4-0.3,0.6-0.5c0,1.2-0.1,2.4,0,3.5
		c0.1,1,0.3,1.9,0.7,2.8c0.2,0.6,0.9,1,1.6,0.7c0.2-0.1,0.5-0.3,0.6-0.5c0.4-0.4,0.7-0.9,1.1-1.3c1-1.2,2-2.5,3-3.7
		c0.2-0.2,0.5-0.4,0.7-0.6c0,0.3,0,0.4,0,0.6c0,0.7,0,1.4,0.1,2c0.1,0.8,0.8,1.3,1.5,1.2c0.4,0,0.7-0.2,0.9-0.6
		c0.4-0.4,0.7-0.8,1.1-1.3c0.6-0.9,1.2-1.8,1.9-2.7c0.3-0.4,0.7-0.7,1.1-1.1c0.1,0.3,0.2,0.7,0.4,1c0.6,1.4,1.3,2.7,2.1,4
		c0.9,1.3,2.3,2.1,3.8,2.4c0.4,0.1,0.8,0.3,1.2,0.5c0.7,0.5,1.6,0.6,2.3,0.1c0.8-0.5,1.6-1.2,2.3-1.9c1-1.1,1.9-2.3,2.9-3.5
		c0.1-0.2,0.5-0.5,0.6-0.4l-0.1,0.7c-0.1,1.3,0,2.6,0.5,3.9c0.5,1.5,2.1,2.4,3.6,1.9c0.4-0.1,0.7-0.3,1-0.5c0.9-0.7,1.7-1.4,2.4-2.2
		c1.2-1.3,2.3-2.6,3.5-3.8c0.4-0.3,0.8-0.7,1.2-1c0.1,0.2,0.1,0.3,0.1,0.4c0.3,1.5,0.6,3.1,0.8,4.6c0.1,0.4,0.3,0.6,0.7,0.5
		c0.4-0.1,0.6-0.2,0.6-0.6C124.9,13.5,125,12.3,124.8,11.2z M64.2,12.9c-1.6,1.7-3.8,2.7-6.2,2.8c-0.2-1.3,0.6-2.6,1.9-3
		C61.3,12.4,62.8,12.5,64.2,12.9z M73.1,14.2c0.2-2.1,3.6-5.5,5.9-5.9C77.1,10.4,75.6,12.7,73.1,14.2L73.1,14.2z M103.7,15.1
		c0.7-3.7,3.7-5.1,6.4-6.9C108.6,11,106.4,13.3,103.7,15.1L103.7,15.1z"/>
	<path id="Path_199" class="st1" d="M50,5.7c-1.1,0.7-2,1.7-2.5,3c-0.1,0.2-0.2,0.4-0.3,0.5c-0.2,0.2-0.4,0.3-0.5,0.4
		c-0.9,1.7-1.3,3.6-1.2,5.5c0,0.4-0.1,0.6-0.5,0.7c-1.8,0.4-3.6-0.4-4.5-2c-0.3-0.3-0.2-0.8,0.1-1.1c0,0,0,0,0,0
		c0.8-0.7,1.5-1.5,2.2-2.2c1-1,1.5-2.3,1.4-3.6c0-0.4-0.2-0.7-0.5-0.9c-1.6-1.2-3.9-0.8-5.1,0.9c-0.1,0.1-0.1,0.2-0.2,0.3
		c-0.9,1.4-1.1,3.1-0.6,4.6c0.1,0.2,0.2,0.6,0.1,0.7c-0.6,0.9-1.4,1.5-2.4,1.7c-0.1-0.4-0.3-0.8-0.3-1.2C35,11.3,35,9.5,35.4,7.7
		c0.3-2.1,0.6-4.2,0.9-6.3c0.1-0.7-0.5-1.3-1.1-1.4c0,0-0.1,0-0.1,0c-0.7,0-0.5,0.6-0.6,1c0,0.1,0,0.2-0.1,0.3
		c-0.4,2-1.2,3.9-2.3,5.6c-0.2,0.3-0.5,0.5-0.9,0.5c-1,0.1-2,0.4-2.8,1.1c-0.7,0.6-1.3,1.3-2.1,2c-0.7,0.7-1.5,1.3-2.3,1.9
		c-1,0.8-2.4,0.6-3.2-0.4c-0.1-0.1-0.2-0.2-0.2-0.3c-0.5-0.6-0.9-1.4-1.4-2c-0.5-0.6-1.2-1.2-1.9-1.6c-0.9-0.4-1.3-0.2-1.8,0.6
		c-0.3,0.5-0.5,0.9-0.8,1.4c-0.2,0.3-0.5,0.6-0.8,0.9c-0.2-2.2-0.2-2.2-2.2-2.1c-0.2,0-0.1,0.5-0.1,1c0,1.8-0.1,3.7-0.1,5.5
		c0,0.5-0.2,1,0.5,1.2c0.6,0.2,1.3-0.1,1.6-0.7c0.7-1.5,1.5-3,2.3-4.4c0.4-0.7,1-1.3,1.5-1.9c0.5,0.7,0.8,1.3,1.2,1.8
		c0.9,1.5,2.5,2.5,4.2,2.7c0.6,0.1,0.7,0.3,0.8,0.9c-0.1,1.2,0.8,2.3,2,2.4c0.3,0,0.6,0,0.8-0.1c0.7-0.2,1.4-0.6,1.9-1.2
		c0.7-0.9,1.4-1.9,2-2.9c0.7-1,1.3-2.1,2-3.2c0.3-0.4,0.6-0.7,1-1c0.1,0.1,0.1,0.1,0.2,0.1c0,0.3-0.1,0.6-0.1,0.9
		c-0.2,1.4,0.1,2.9,0.9,4c0.8,1.3,2.4,1.7,3.7,1c0.1-0.1,0.3-0.2,0.4-0.3c0.8-0.6,0.8-0.6,1.5,0.1c1.8,2,4.6,2.7,7,1.8
		c0.5-0.1,0.8-0.5,0.7-1c0-1.1,0.1-2.1,0.3-3.2c0.6-2.1,1.6-4,3.2-5.5c0.4-0.5,0.9-1,1.3-1.6C51.5,5.2,50.7,5.3,50,5.7z M25.5,15.8
		c-0.2-2,1.6-3.9,3.9-4.2C28.1,12.9,27.5,15,25.5,15.8z M41.9,6.9c0.2,0,0.5-0.1,0.6,0c0.1,0.2,0.1,0.4,0,0.6
		c-0.1,0.4-0.3,0.8-0.6,1.2c-0.6,0.8-1.3,1.5-1.9,2.4C39.3,9.4,40.1,7.5,41.9,6.9C41.8,6.9,41.8,6.9,41.9,6.9z"/>
	<path id="Path_200" class="st1" d="M159,13.9c0-1.9-0.3-3.8-1-5.6c-0.1-0.3-0.3-0.5-0.5-0.7c-0.5-0.4-1.1-0.7-1.6-1.1
		c-0.6-0.5-1.3-0.7-2-0.4c-0.5,0.2-1,0.4-1.5,0.6c-1.8,1-3.5,2.3-4.7,4c-1,1.2-1.9,2.4-2.9,3.6c-0.2,0.3-0.5,0.5-0.9,0.6
		c-0.9,0.2-1.7,0.3-2.6,0.4c-1.1,0.1-2.2-0.1-2.8-1.2c-0.8-1.5-1.5-3.1-2.1-4.6c-0.2-0.6-0.8-1.1-1.5-1.3c-0.3,0-0.6,0.1-0.8,0.4
		c-0.5,0.6-0.8,1.3-1.3,2c-0.4,0.6-0.9,1.1-1.4,1.6l-0.2-0.1c0.1-1.3,0.2-2.6,0.2-3.9c0-0.9-0.4-1.3-1.3-1.4c-0.4,0-0.5,0.1-0.6,0.5
		c-0.1,1.5-0.3,3-0.4,4.5c-0.2,1.3,0.1,2.7,0.9,3.8c0.7,0.8,1.1,0.8,1.8-0.1c0.8-1,1.4-2.2,2.2-3.2c0.3-0.4,0.7-0.8,1.1-1.3
		c0.1,0.4,0.2,0.6,0.3,0.9c1,3.3,5.4,6.1,9.1,4.3c0.3-0.1,0.5,0,0.7,0.2c0.8,0.9,2.1,1.1,3.1,0.5c0.7-0.3,1.4-0.8,2-1.3
		c1.6-1.5,3.2-3.1,4.8-4.6c0.5-0.5,1-0.9,1.5-1.4c0.6,3.2,0.7,6.4,0.4,9.6c-0.1,2.1-0.7,4.2-1.6,6c-1.2,2.3-3.7,3.5-6.3,3
		c-1.2-0.2-2.3-0.6-3.5-1c-0.2,0-0.3-0.1-0.5-0.1c-0.2,0-0.3-0.1-0.5-0.1c-0.2,0-0.3-0.1-0.5-0.1c-0.1,0-0.2,0.1-0.1,0.2
		c0.1,0.1,0.3,0.2,0.4,0.3s0.3,0.2,0.4,0.3s0.3,0.2,0.4,0.2s0.3,0.2,0.4,0.2s0.3,0.1,0.4,0.2s0.3,0.1,0.4,0.2s0.3,0.1,0.4,0.2
		c0.1,0.1,0.3,0.1,0.4,0.2s0.3,0.1,0.4,0.2l0.4,0.1l0.4,0.1c0.1,0,0.3,0.1,0.4,0.1c2.6,0.8,5.3-0.1,7.1-2.1c0.8-0.9,1.3-1.9,1.8-3
		C158.7,20.7,159.2,17.3,159,13.9z M153.7,8.7c-0.8,0.6-4.1,5.8-4.6,5.8c-1-0.1,0.3-3,0.7-3.3c1.2-1,2.4-1.9,3.6-2.9
		c0.1-0.1,0.3-0.1,0.5-0.1C154,8.3,153.8,8.6,153.7,8.7z"/>
	<path id="Path_201" class="st1" d="M2.5,16.6c0.4-0.3,0.7-0.7,1-1.1c0.7-1.1,1.2-2.3,1.9-3.4c0.6-1,1.2-2,1.7-3.1
		c0.3-0.6,0.5-1.2,0.6-1.8c0.2-0.7,0.6-0.8,1.2-0.8c0.7,0,0.8,0.5,0.8,1c0,1.5,0,3.1,0,4.6c0,1.5-0.1,3-0.3,4.4
		c-0.1,0.7-0.2,1.4-0.4,2.1c-0.1,0.4-0.3,0.8-0.8,0.7C7.6,19,7.2,18.5,7.2,18c0.2-1.7,0.4-3.4,0.5-5.2c0-0.2,0-0.4,0-0.6l-0.2-0.1
		c-0.3,0.3-0.6,0.6-0.8,0.9c-0.4,0.8-0.8,1.7-1.2,2.6c-0.3,0.7-0.7,1.4-1.1,2.1c-0.5,0.9-1.5,1.2-2.4,0.8c-0.4-0.2-0.7-0.5-0.8-0.9
		c-0.9-1.5-1.3-3.3-1.1-5.1c0.1-1.7,0.5-3.4,0.7-5.1C0.8,6.5,1.5,6.9,2,6.9c0.5,0,0.6,0.3,0.6,0.8c-0.2,2.3-0.4,4.7-0.5,7
		c0,0.6,0.1,1.2,0.2,1.8L2.5,16.6z"/>
	<path id="Path_202" class="st1" d="M159,1.1L159,1.1c0,0,0,0.4,0,0.6c0,0.2,0,0.2,0,0.2l0,0V1.1z"/>
	<path class="st1" d="M122,1.5c0-0.7,0.3-0.9,0.9-0.6c0.3,0.1,0.6,0.2,0.9,0.4c0.3,0.2,0.3,0.5,0.2,0.8c-0.1,0.3-0.2,0.5-0.6,0.4
		c-0.3-0.1-0.5-0.1-0.8,0.1c-0.1,0.1-0.3,0-0.4-0.1C122.1,2.1,122,1.8,122,1.5z"/>
</g>
</svg>
