<svg xmlns="http://www.w3.org/2000/svg" width="1200" height="630" viewBox="0 0 1200 630" role="img" aria-labelledby="title desc">
  <title id="title">Example Domain Mobile Conversion Concept</title>
  <desc id="desc">A concept card for Example Domain showing a mobile-first modernization direction by Elinext.</desc>
  <defs>
    <linearGradient id="bg" x1="0" x2="1" y1="0" y2="1">
      <stop offset="0%" stop-color="#faf2e8" />
      <stop offset="100%" stop-color="#e9d6c6" />
    </linearGradient>
    <linearGradient id="card" x1="0" x2="1" y1="0" y2="1">
      <stop offset="0%" stop-color="#ffffff" stop-opacity="0.95" />
      <stop offset="100%" stop-color="#f8efe6" stop-opacity="0.9" />
    </linearGradient>
  </defs>
  <rect width="1200" height="630" fill="url(#bg)" />
  <circle cx="174" cy="126" r="146" fill="#c86441" fill-opacity="0.15" />
  <circle cx="1070" cy="520" r="180" fill="#1f3240" fill-opacity="0.08" />
  <rect x="82" y="72" width="1036" height="486" rx="34" fill="url(#card)" stroke="#1f3240" stroke-opacity="0.1" />
  <text x="144" y="172" fill="#8b3f28" font-family="Georgia, 'Times New Roman', serif" font-size="28" font-weight="700" letter-spacing="2">ELINEXT MOBILE MODERNIZATION</text>
  <text x="144" y="278" fill="#14212c" font-family="Georgia, 'Times New Roman', serif" font-size="76" font-weight="700">Example Domain</text>
  <text x="144" y="352" fill="#14212c" font-family="Georgia, 'Times New Roman', serif" font-size="76" font-weight="700">Conversion Concept</text>
  <text x="144" y="426" fill="#586773" font-family="Arial, sans-serif" font-size="30">Placeholder page reviewed and reframed as a mobile-safe, analytics-aware touchpoint.</text>
  <rect x="144" y="470" width="290" height="54" rx="27" fill="#bf5b3d" />
  <text x="181" y="505" fill="#ffffff" font-family="Arial, sans-serif" font-size="26" font-weight="700">https://example.com</text>
  <rect x="842" y="142" width="188" height="340" rx="34" fill="#14212c" />
  <rect x="858" y="160" width="156" height="304" rx="24" fill="#fbf6ef" />
  <rect x="878" y="192" width="116" height="16" rx="8" fill="#e3c9bb" />
  <rect x="878" y="226" width="116" height="78" rx="20" fill="#ffffff" />
  <rect x="878" y="324" width="54" height="54" rx="16" fill="#bf5b3d" fill-opacity="0.22" />
  <rect x="940" y="324" width="54" height="54" rx="16" fill="#1f3240" fill-opacity="0.12" />
  <rect x="878" y="396" width="116" height="18" rx="9" fill="#d6c4b7" />
  <rect x="878" y="426" width="82" height="16" rx="8" fill="#e4d9cf" />
</svg>
