<svg width="192" height="61" viewBox="0 0 192 61" fill="none" xmlns="http://www.w3.org/2000/svg">
<path d="M19.9206 0C21.9243 0 23.7682 0.174233 25.4234 0.537217C27.0787 0.885682 28.5016 1.48098 29.6921 2.27954C30.8827 3.09263 31.7975 4.16706 32.4508 5.50285C33.1042 6.85315 33.4236 8.50836 33.4236 10.483C33.4236 12.6173 32.9445 14.4032 31.9717 15.8116C30.9989 17.2345 29.576 18.3961 27.6739 19.3108C30.2874 20.0658 32.233 21.3725 33.5107 23.2601C34.7884 25.1331 35.4418 27.3981 35.4418 30.0406C35.4418 32.175 35.0208 34.0189 34.1931 35.587C33.3655 37.1551 32.2476 38.4183 30.8537 39.4056C29.4453 40.3929 27.8482 41.1189 26.0478 41.598C24.2474 42.0772 22.4034 42.3095 20.5014 42.3095H0V0H19.9206ZM18.73 17.1329C20.3852 17.1329 21.75 16.7409 22.8245 15.9423C23.8989 15.1582 24.4216 13.866 24.4216 12.0946C24.4216 11.1073 24.2474 10.2942 23.8844 9.65539C23.5359 9.03106 23.0568 8.5374 22.4615 8.17441C21.8662 7.82595 21.1838 7.5646 20.4143 7.43393C19.6447 7.28873 18.8462 7.23065 18.0186 7.23065H9.30693V17.1329H18.73ZM19.2672 35.0934C20.1674 35.0934 21.0386 35.0062 21.8807 34.832C22.7083 34.6578 23.4343 34.3529 24.0731 33.9463C24.6975 33.5253 25.2057 32.9735 25.5832 32.2621C25.9607 31.5506 26.1494 30.6359 26.1494 29.5324C26.1494 27.369 25.5396 25.8155 24.3055 24.8862C23.0858 23.957 21.4597 23.4924 19.4415 23.4924H9.30693V35.1079H19.2672V35.0934Z" fill="#0D7B3E"/>
<path d="M48.6527 34.9632C49.9158 36.1829 51.7308 36.8072 54.0974 36.8072C55.7962 36.8072 57.2627 36.3861 58.4823 35.5295C59.7019 34.6729 60.4569 33.7872 60.7328 32.8289H68.1377C66.9471 36.5023 65.1322 39.1303 62.6784 40.7129C60.2246 42.2955 57.2627 43.0796 53.7925 43.0796C51.3823 43.0796 49.2044 42.7021 47.2733 41.9325C45.3422 41.163 43.7015 40.0596 42.3512 38.6367C41.0009 37.2138 39.9701 35.515 39.2441 33.5403C38.5181 31.5657 38.1406 29.3878 38.1406 27.0211C38.1406 24.6545 38.5181 22.5927 39.2731 20.6181C40.0281 18.6435 41.0881 16.9302 42.4674 15.4928C43.8467 14.0553 45.502 12.9083 47.4185 12.0807C49.3351 11.2531 51.4549 10.832 53.7925 10.832C56.3915 10.832 58.671 11.3402 60.6021 12.342C62.5332 13.3439 64.1303 14.7087 65.379 16.4075C66.6277 18.1062 67.5279 20.0518 68.0796 22.2152C68.6313 24.3931 68.8346 26.6582 68.6749 29.0393H46.5619C46.678 31.769 47.375 33.7436 48.6381 34.9632M58.1774 18.8467C57.1755 17.7433 55.6365 17.1915 53.5892 17.1915C52.2389 17.1915 51.1355 17.4238 50.2353 17.8739C49.3496 18.324 48.6381 18.8903 48.1009 19.5582C47.5637 20.2261 47.1862 20.9375 46.9684 21.6925C46.7506 22.4475 46.6199 23.1154 46.5764 23.7107H60.2682C59.8761 21.5764 59.1647 19.9647 58.1629 18.8467" fill="#0D7B3E"/>
<path d="M81.1478 0H72.7266V42.324H81.1478V0Z" fill="#0D7B3E"/>
<path d="M94.7691 11.6733V15.8259H94.8853C95.9887 14.2432 97.3245 13.0236 98.8926 12.1524C100.461 11.2813 102.247 10.8457 104.25 10.8457C106.254 10.8457 107.953 11.2232 109.55 11.9782C111.147 12.7332 112.367 14.0545 113.194 15.942C114.109 14.6062 115.343 13.4156 116.897 12.3848C118.45 11.3539 120.309 10.8457 122.443 10.8457C124.069 10.8457 125.565 11.049 126.944 11.441C128.323 11.833 129.514 12.4719 130.501 13.3285C131.489 14.1997 132.258 15.3322 132.81 16.7406C133.362 18.149 133.638 19.8332 133.638 21.8078V42.3092H125.216V24.944C125.216 23.9132 125.173 22.9549 125.1 22.0401C125.013 21.1399 124.795 20.3414 124.447 19.6735C124.098 19.0056 123.561 18.4684 122.879 18.0764C122.182 17.6843 121.252 17.4811 120.062 17.4811C118.871 17.4811 117.913 17.7134 117.187 18.1635C116.461 18.6136 115.88 19.2089 115.474 19.9348C115.053 20.6608 114.777 21.5029 114.646 22.4322C114.501 23.3614 114.443 24.3052 114.443 25.2489V42.3237H106.022V25.1328C106.022 24.2326 106.007 23.3324 105.964 22.4322C105.92 21.5465 105.76 20.7189 105.455 19.9784C105.165 19.2234 104.657 18.6281 103.974 18.1635C103.277 17.7134 102.261 17.4811 100.925 17.4811C100.533 17.4811 100.011 17.5682 99.3572 17.7424C98.7039 17.9166 98.065 18.2506 97.4552 18.7442C96.8454 19.2379 96.3227 19.9494 95.8871 20.8786C95.4515 21.8078 95.2337 23.0275 95.2337 24.523V42.3092H86.8125V11.6733H94.7546H94.7691Z" fill="#0D7B3E"/>
<path d="M138.749 21.0964C138.865 19.1218 139.359 17.4811 140.23 16.1743C141.101 14.8676 142.205 13.8222 143.555 13.0381C144.891 12.2541 146.401 11.6878 148.085 11.3539C149.769 11.0199 151.454 10.8457 153.152 10.8457C154.691 10.8457 156.245 10.9473 157.828 11.1651C159.41 11.3829 160.848 11.804 162.154 12.4428C163.461 13.0817 164.521 13.9529 165.349 15.0854C166.176 16.2179 166.597 17.6989 166.597 19.5573V35.4996C166.597 36.879 166.67 38.2002 166.83 39.4779C166.989 40.7556 167.265 41.6849 167.657 42.3237H159.12C158.96 41.8446 158.829 41.3655 158.728 40.8718C158.626 40.3781 158.553 39.87 158.524 39.3618C157.174 40.7411 155.606 41.7139 153.777 42.2657C151.962 42.8174 150.103 43.0933 148.201 43.0933C146.735 43.0933 145.37 42.919 144.107 42.556C142.844 42.2076 141.74 41.6413 140.782 40.9008C139.838 40.1458 139.098 39.2021 138.56 38.055C138.023 36.908 137.762 35.5432 137.762 33.9606C137.762 32.2182 138.067 30.7953 138.676 29.6628C139.286 28.5303 140.085 27.6446 141.043 26.9622C142.016 26.2943 143.119 25.7862 144.368 25.4522C145.617 25.1183 146.865 24.8424 148.129 24.6536C149.392 24.4504 150.64 24.3052 151.86 24.1745C153.08 24.0583 154.169 23.8841 155.127 23.6373C156.071 23.405 156.826 23.0565 157.377 22.6064C157.929 22.1563 158.19 21.4884 158.147 20.6172C158.147 19.7025 158.002 18.9911 157.697 18.4539C157.406 17.9166 157 17.5101 156.506 17.2052C156.013 16.9148 155.446 16.7115 154.793 16.6099C154.14 16.5083 153.443 16.4647 152.688 16.4647C151.032 16.4647 149.726 16.8132 148.767 17.5246C147.824 18.2361 147.257 19.4267 147.112 21.0819H138.691L138.749 21.0964ZM158.19 27.3252C157.828 27.6446 157.392 27.8915 156.855 28.0657C156.317 28.2399 155.751 28.3851 155.141 28.5158C154.532 28.632 153.893 28.7336 153.21 28.8062C152.542 28.8788 151.875 28.9804 151.192 29.0966C150.553 29.2127 149.929 29.3724 149.319 29.5757C148.709 29.779 148.172 30.0403 147.722 30.3743C147.272 30.7082 146.894 31.1293 146.619 31.652C146.343 32.1747 146.212 32.8135 146.212 33.6121C146.212 34.4107 146.357 34.9914 146.619 35.5141C146.894 36.0223 147.272 36.4289 147.751 36.7338C148.23 37.0242 148.782 37.2419 149.406 37.3581C150.031 37.4743 150.698 37.5323 151.366 37.5323C153.022 37.5323 154.314 37.2565 155.214 36.7047C156.129 36.153 156.797 35.4851 157.232 34.7156C157.668 33.946 157.944 33.162 158.031 32.378C158.132 31.5939 158.176 30.9551 158.176 30.4759V27.3397L158.19 27.3252Z" fill="#0D7B3E"/>
<path d="M179.939 11.6742V17.3658H180.056C180.448 16.422 180.985 15.5363 181.653 14.7232C182.321 13.9101 183.09 13.2277 183.961 12.647C184.832 12.0807 185.762 11.6306 186.749 11.3112C187.736 10.9917 188.767 10.832 189.827 10.832C190.379 10.832 190.989 10.9337 191.657 11.1224V18.9484C191.264 18.8758 190.785 18.8032 190.234 18.7451C189.682 18.687 189.145 18.658 188.636 18.658C187.097 18.658 185.791 18.9193 184.731 19.4275C183.656 19.9357 182.8 20.6471 182.146 21.5328C181.493 22.4185 181.028 23.4639 180.752 24.64C180.477 25.8306 180.331 27.1083 180.331 28.4876V42.2955H171.91V11.6742H179.91H179.939Z" fill="#0D7B3E"/>
<path d="M186.153 38.9548H185.078V38.5918H187.677V38.9548H186.603V41.9167H186.167V38.9548H186.153ZM188.258 38.5918H188.94L190.015 41.2924L191.06 38.5918H191.743V41.9167H191.321V38.9838H191.307L190.131 41.9167H189.884L188.708 38.9838H188.693V41.9167H188.272V38.5918H188.258Z" fill="#0D7B3E"/>
<path d="M5.25521 48.7988C5.74887 48.7988 6.19897 48.8714 6.60551 49.0166C7.01205 49.1473 7.36052 49.3651 7.63639 49.6264C7.91226 49.8878 8.14457 50.2362 8.30428 50.6283C8.46399 51.0203 8.53659 51.4559 8.53659 51.9495C8.53659 52.4432 8.46399 52.8933 8.30428 53.2853C8.14457 53.6773 7.92678 54.0113 7.63639 54.2872C7.346 54.563 6.99754 54.7663 6.60551 54.9115C6.19897 55.0567 5.74887 55.1148 5.25521 55.1148H1.40757V59.8481H0.347656V48.8133H5.25521V48.7988ZM5.0229 54.2146C5.74887 54.2146 6.34416 54.0258 6.80878 53.6628C7.25888 53.2853 7.49119 52.7191 7.49119 51.9641C7.49119 51.209 7.25888 50.6428 6.80878 50.2653C6.35868 49.8878 5.76339 49.7136 5.0229 49.7136H1.40757V54.2291H5.0229V54.2146Z" fill="#165B2E"/>
<path d="M13.9087 48.7988V53.5902H20.4714V48.7988H21.5168V59.8336H20.4714V54.4904H13.9087V59.8336H12.8633V48.7988H13.9087Z" fill="#165B2E"/>
<path d="M30.9265 48.7988L35.2533 59.8336H34.1208L32.7705 56.407H27.7467L26.411 59.8336H25.293L29.7359 48.7988H30.912H30.9265ZM32.422 55.5068L30.2876 49.8442L28.0807 55.5068H32.422Z" fill="#165B2E"/>
<path d="M44.0801 48.7988C44.5302 48.7988 44.9658 48.8569 45.3723 48.9731C45.7789 49.0892 46.1273 49.2634 46.4322 49.4958C46.7371 49.7281 46.984 50.0185 47.1582 50.396C47.3324 50.7589 47.4341 51.1945 47.4341 51.6882C47.4341 52.3851 47.2598 52.9949 46.8969 53.5176C46.5339 54.0258 45.9967 54.3598 45.2852 54.5049V54.534C45.6482 54.5921 45.9531 54.6792 46.1854 54.8244C46.4177 54.9696 46.621 55.1438 46.7662 55.3616C46.9114 55.5794 47.0275 55.8262 47.0856 56.1166C47.1582 56.407 47.2018 56.7119 47.2163 57.0313C47.2163 57.2201 47.2308 57.4379 47.2453 57.7137C47.2453 57.9751 47.2744 58.2509 47.3034 58.5268C47.3324 58.8027 47.376 59.064 47.4486 59.2963C47.5212 59.5432 47.6083 59.7319 47.7245 59.8626H46.5629C46.5048 59.761 46.4467 59.6303 46.4177 59.4851C46.3742 59.3399 46.3596 59.1802 46.3451 59.0205C46.3306 58.8608 46.3161 58.701 46.3016 58.5559C46.3016 58.3961 46.287 58.2655 46.2725 58.1493C46.258 57.7573 46.2144 57.3653 46.1709 56.9878C46.1273 56.5957 46.0257 56.2473 45.8805 55.9569C45.7353 55.652 45.5175 55.4051 45.2271 55.2164C44.9367 55.0276 44.5592 54.955 44.0656 54.9696H40.0727V59.8771H39.0273V48.8424H44.0801V48.7988ZM43.993 54.0403C44.3124 54.0403 44.6173 53.9968 44.9077 53.8951C45.1981 53.7935 45.4449 53.6483 45.6627 53.4741C45.8805 53.2853 46.0547 53.0675 46.1854 52.8062C46.3161 52.5448 46.3742 52.2399 46.3742 51.906C46.3742 51.2236 46.1709 50.6863 45.7934 50.2943C45.4014 49.9023 44.8061 49.7136 43.993 49.7136H40.0727V54.0548H43.993V54.0403Z" fill="#165B2E"/>
<path d="M53.62 48.7988L57.2789 58.4833L61.0829 48.7988H62.622V59.8336H61.5766V50.2943H61.5476L57.7725 59.8336H56.7852L53.1554 50.2943H53.1263V59.8336H52.0664V48.7988H53.62Z" fill="#165B2E"/>
<path d="M71.9734 48.7988L76.3001 59.8336H75.1676L73.8173 56.407H68.7936L67.4578 59.8336H66.3398L70.7828 48.7988H71.9589H71.9734ZM73.4689 55.5068L71.3345 49.8442L69.1276 55.5068H73.4689Z" fill="#165B2E"/>
<path d="M87.8987 57.6265C88.0874 58.004 88.3343 58.3089 88.6682 58.5412C88.9876 58.7735 89.3797 58.9332 89.8152 59.0204C90.2508 59.122 90.73 59.1656 91.2381 59.1656C91.5285 59.1656 91.848 59.122 92.1819 59.0349C92.5159 58.9478 92.8353 58.8171 93.1257 58.6429C93.4161 58.4686 93.6629 58.2363 93.8662 57.9459C94.0694 57.6701 94.1565 57.3216 94.1565 56.9151C94.1565 56.6101 94.0839 56.3343 93.9533 56.1165C93.8081 55.8842 93.6338 55.6954 93.416 55.5502C93.1983 55.3905 92.9514 55.2744 92.6756 55.1727C92.4142 55.0711 92.1529 54.9985 91.8915 54.9259L89.4377 54.3306C89.1183 54.2435 88.8134 54.1418 88.5085 54.0257C88.2036 53.895 87.9422 53.7353 87.7099 53.532C87.4921 53.3288 87.3034 53.0674 87.1582 52.777C87.013 52.4721 86.9549 52.1091 86.9549 51.6736C86.9549 51.3977 87.013 51.0928 87.1146 50.7298C87.2163 50.3668 87.405 50.0329 87.6954 49.7134C87.9858 49.394 88.3633 49.1327 88.857 48.9004C89.3506 48.6826 89.9895 48.5664 90.759 48.5664C91.3107 48.5664 91.8189 48.639 92.3126 48.7842C92.8062 48.9294 93.2418 49.1472 93.6048 49.4376C93.9823 49.728 94.2727 50.0909 94.4905 50.512C94.7083 50.9331 94.8244 51.4412 94.8244 52.0075H93.7645C93.75 51.5864 93.6484 51.2235 93.4741 50.904C93.2999 50.5846 93.0821 50.3233 92.8062 50.12C92.5304 49.9167 92.2255 49.7425 91.8625 49.6408C91.514 49.5247 91.1365 49.4811 90.7445 49.4811C90.3815 49.4811 90.033 49.5247 89.6991 49.5973C89.3651 49.6699 89.0748 49.8006 88.8134 49.9748C88.5666 50.149 88.3633 50.3668 88.2036 50.6427C88.0439 50.9185 87.9713 51.267 87.9713 51.6736C87.9713 51.9349 88.0148 52.1527 88.102 52.3414C88.1891 52.5302 88.3052 52.6899 88.4649 52.8206C88.6247 52.9513 88.7989 53.0674 89.0022 53.14C89.2054 53.2271 89.4232 53.2852 89.641 53.3433L92.3271 54.0112C92.7191 54.1128 93.0821 54.2435 93.4306 54.3887C93.779 54.5339 94.084 54.7226 94.3453 54.9404C94.6066 55.1582 94.8099 55.4341 94.9696 55.7535C95.1148 56.0729 95.1874 56.465 95.1874 56.9151C95.1874 57.0312 95.1874 57.2054 95.1439 57.4087C95.1148 57.612 95.0567 57.8298 94.9551 58.0621C94.8535 58.2944 94.7228 58.5267 94.534 58.759C94.3598 58.9913 94.113 59.2091 93.7936 59.3979C93.4741 59.5866 93.0966 59.7463 92.632 59.8625C92.1674 59.9786 91.6157 60.0367 90.9623 60.0367C90.3089 60.0367 89.7136 59.9641 89.1474 59.8189C88.5956 59.6737 88.1165 59.4414 87.7245 59.1365C87.3324 58.8316 87.0275 58.4251 86.8243 57.9459C86.6065 57.4668 86.5193 56.8715 86.5484 56.2036H87.5938C87.5938 56.7699 87.6664 57.249 87.8551 57.6265" fill="#165B2E"/>
<path d="M99.3858 52.1393C99.6036 51.4424 99.923 50.8325 100.359 50.3098C100.794 49.7726 101.331 49.3516 101.985 49.0467C102.638 48.7272 103.408 48.582 104.264 48.582C105.121 48.582 105.891 48.7417 106.544 49.0467C107.197 49.3661 107.734 49.7871 108.17 50.3098C108.606 50.8471 108.925 51.4569 109.143 52.1393C109.361 52.8362 109.462 53.5622 109.462 54.3172C109.462 55.0722 109.361 55.8127 109.143 56.4951C108.925 57.192 108.606 57.7873 108.17 58.3245C107.734 58.8618 107.197 59.2683 106.544 59.5877C105.891 59.9072 105.136 60.0669 104.264 60.0669C103.393 60.0669 102.638 59.9072 101.985 59.5877C101.331 59.2683 100.78 58.8472 100.359 58.3245C99.9376 57.8018 99.6036 57.192 99.3858 56.4951C99.168 55.7982 99.0664 55.0722 99.0664 54.3172C99.0664 53.5622 99.1826 52.8217 99.3858 52.1393ZM100.344 56.0886C100.504 56.6693 100.751 57.192 101.085 57.6566C101.419 58.1213 101.854 58.4843 102.377 58.7601C102.9 59.036 103.524 59.1812 104.264 59.1812C105.005 59.1812 105.615 59.036 106.137 58.7601C106.66 58.4843 107.081 58.1067 107.415 57.6566C107.749 57.192 107.996 56.6839 108.156 56.0886C108.315 55.5078 108.402 54.9125 108.402 54.3172C108.402 53.7219 108.33 53.1121 108.156 52.5458C107.996 51.965 107.749 51.4569 107.415 50.9922C107.081 50.5276 106.646 50.1646 106.137 49.8888C105.615 49.6129 104.99 49.4677 104.264 49.4677C103.538 49.4677 102.9 49.6129 102.377 49.8888C101.854 50.1646 101.419 50.5421 101.085 50.9922C100.751 51.4569 100.504 51.965 100.344 52.5458C100.184 53.1266 100.097 53.7219 100.097 54.3172C100.097 54.9125 100.17 55.5078 100.344 56.0886Z" fill="#165B2E"/>
<path d="M114.919 48.7988V58.9479H121.105V59.8336H113.859V48.7988H114.919Z" fill="#165B2E"/>
<path d="M125.881 48.7988V55.6375C125.881 56.2763 125.954 56.828 126.099 57.2636C126.244 57.7137 126.448 58.0767 126.738 58.3671C127.014 58.6575 127.362 58.8608 127.754 58.9914C128.161 59.1221 128.611 59.1802 129.119 59.1802C129.627 59.1802 130.092 59.1076 130.498 58.9914C130.905 58.8608 131.239 58.6575 131.515 58.3671C131.791 58.0767 132.009 57.7137 132.154 57.2636C132.299 56.8135 132.371 56.2763 132.371 55.6375V48.7988H133.431V55.8698C133.431 56.436 133.344 56.9732 133.185 57.4814C133.025 57.9896 132.778 58.4397 132.43 58.8172C132.081 59.1947 131.646 59.4996 131.094 59.7174C130.557 59.9352 129.903 60.0514 129.119 60.0514C128.335 60.0514 127.711 59.9352 127.159 59.7174C126.622 59.4996 126.172 59.1947 125.823 58.8172C125.475 58.4397 125.228 57.9896 125.068 57.4814C124.909 56.9732 124.836 56.436 124.836 55.8698V48.7988H125.881Z" fill="#165B2E"/>
<path d="M145.862 48.7988V49.699H142.014V59.8336H140.954V49.699H137.121V48.7988H145.862Z" fill="#165B2E"/>
<path d="M150.784 48.7988H149.738V59.8336H150.784V48.7988Z" fill="#165B2E"/>
<path d="M155.605 52.1393C155.822 51.4424 156.142 50.8325 156.577 50.3098C157.013 49.7726 157.55 49.3516 158.204 49.0467C158.857 48.7272 159.626 48.582 160.483 48.582C161.34 48.582 162.109 48.7417 162.763 49.0467C163.416 49.3661 163.953 49.7871 164.389 50.3098C164.824 50.8471 165.144 51.4569 165.362 52.1393C165.579 52.8362 165.681 53.5622 165.681 54.3172C165.681 55.0722 165.579 55.8127 165.362 56.4951C165.144 57.192 164.824 57.7873 164.389 58.3245C163.953 58.8618 163.416 59.2683 162.763 59.5877C162.109 59.9072 161.354 60.0669 160.483 60.0669C159.612 60.0669 158.857 59.9072 158.204 59.5877C157.55 59.2683 156.998 58.8472 156.577 58.3245C156.156 57.8018 155.822 57.192 155.605 56.4951C155.387 55.7982 155.285 55.0722 155.285 54.3172C155.285 53.5622 155.401 52.8217 155.605 52.1393ZM156.563 56.0886C156.723 56.6693 156.969 57.192 157.303 57.6566C157.637 58.1213 158.073 58.4843 158.596 58.7601C159.118 59.036 159.743 59.1812 160.483 59.1812C161.224 59.1812 161.833 59.036 162.356 58.7601C162.879 58.4843 163.3 58.1067 163.634 57.6566C163.968 57.192 164.215 56.6839 164.374 56.0886C164.534 55.5078 164.621 54.9125 164.621 54.3172C164.621 53.7219 164.549 53.1121 164.374 52.5458C164.215 51.965 163.968 51.4569 163.634 50.9922C163.3 50.5276 162.864 50.1646 162.356 49.8888C161.833 49.6129 161.209 49.4677 160.483 49.4677C159.757 49.4677 159.118 49.6129 158.596 49.8888C158.073 50.1646 157.637 50.5421 157.303 50.9922C156.969 51.4569 156.723 51.965 156.563 52.5458C156.403 53.1266 156.316 53.7219 156.316 54.3172C156.316 54.9125 156.389 55.5078 156.563 56.0886Z" fill="#165B2E"/>
<path d="M171.242 48.7988L177.675 58.1348H177.704V48.7988H178.764V59.8336H177.587L171.155 50.4976H171.126V59.8336H170.066V48.7988H171.242Z" fill="#165B2E"/>
<path d="M184.496 57.6265C184.685 58.004 184.932 58.3089 185.266 58.5412C185.585 58.7735 185.977 58.9332 186.413 59.0204C186.848 59.122 187.328 59.1656 187.836 59.1656C188.126 59.1656 188.446 59.122 188.78 59.0349C189.114 58.9478 189.433 58.8171 189.723 58.6429C190.014 58.4686 190.261 58.2363 190.464 57.9459C190.667 57.6701 190.754 57.3216 190.754 56.9151C190.754 56.6101 190.682 56.3343 190.551 56.1165C190.406 55.8842 190.231 55.6954 190.014 55.5502C189.796 55.3905 189.549 55.2744 189.273 55.1727C189.012 55.0711 188.751 54.9985 188.489 54.9259L186.035 54.3306C185.716 54.2435 185.411 54.1418 185.106 54.0257C184.801 53.895 184.54 53.7353 184.308 53.532C184.075 53.3288 183.901 53.0674 183.756 52.777C183.611 52.4721 183.553 52.1091 183.553 51.6736C183.553 51.3977 183.611 51.0928 183.712 50.7298C183.814 50.3668 184.003 50.0329 184.293 49.7134C184.583 49.394 184.961 49.1327 185.455 48.9004C185.948 48.6826 186.587 48.5664 187.357 48.5664C187.908 48.5664 188.417 48.639 188.91 48.7842C189.404 48.9294 189.839 49.1472 190.202 49.4376C190.58 49.728 190.87 50.0909 191.088 50.512C191.306 50.9331 191.422 51.4412 191.422 52.0075H190.362C190.348 51.5864 190.246 51.2235 190.072 50.904C189.898 50.5846 189.68 50.3233 189.404 50.12C189.128 49.9167 188.823 49.7425 188.46 49.6408C188.112 49.5247 187.734 49.4811 187.342 49.4811C186.979 49.4811 186.631 49.5247 186.297 49.5973C185.963 49.6699 185.672 49.8006 185.411 49.9748C185.164 50.149 184.961 50.3668 184.801 50.6427C184.642 50.9185 184.569 51.267 184.569 51.6736C184.569 51.9349 184.612 52.1527 184.7 52.3414C184.787 52.5302 184.903 52.6899 185.063 52.8206C185.222 52.9513 185.397 53.0674 185.6 53.14C185.803 53.2271 186.021 53.2852 186.239 53.3433L188.925 54.0112C189.317 54.1128 189.68 54.2435 190.028 54.3887C190.377 54.5339 190.682 54.7226 190.943 54.9404C191.204 55.1582 191.408 55.4341 191.567 55.7535C191.712 56.0729 191.785 56.465 191.785 56.9151C191.785 57.0312 191.785 57.2054 191.742 57.4087C191.712 57.612 191.654 57.8298 191.553 58.0621C191.451 58.2944 191.32 58.5267 191.132 58.759C190.957 58.9913 190.711 59.2091 190.391 59.3979C190.072 59.5866 189.694 59.7463 189.23 59.8625C188.765 59.9786 188.213 60.0367 187.56 60.0367C186.907 60.0367 186.311 59.9641 185.745 59.8189C185.193 59.6737 184.714 59.4414 184.322 59.1365C183.93 58.8316 183.625 58.4251 183.422 57.9459C183.204 57.4668 183.117 56.8715 183.146 56.2036H184.191C184.191 56.7699 184.264 57.249 184.453 57.6265" fill="#165B2E"/>
</svg>
