<?xml version="1.0" encoding="UTF-8"?> <svg xmlns="http://www.w3.org/2000/svg" width="150" height="29.438" viewBox="0 0 150 29.438"><path id="Pfad_436" data-name="Pfad 436" d="M1.528,14.406V-15.032H23.355v4.98H7.472v6.526H22.251v4.96H7.472V9.446H23.917v4.96Zm31.606,0L26.106-15.032H32.19L36.628,5.189,42.01-15.032h7.068L54.239,5.53l4.518-20.562h5.984L57.592,14.406H51.287L45.423-7.6,39.58,14.406Zm34.639,0V-15.032H89.6v4.98H73.717v6.526H88.5v4.96H73.717V9.446H90.162v4.96Zm27.45,0V-15.032h12.51a21.412,21.412,0,0,1,6.857.793,6.765,6.765,0,0,1,3.424,2.821A8.48,8.48,0,0,1,119.3-6.779a7.858,7.858,0,0,1-1.948,5.472,9.354,9.354,0,0,1-5.823,2.721,13.867,13.867,0,0,1,3.183,2.47,33.55,33.55,0,0,1,3.384,4.779l3.594,5.743H114.58L110.283,8a41.551,41.551,0,0,0-3.133-4.327,4.561,4.561,0,0,0-1.787-1.225,9.8,9.8,0,0,0-2.992-.331h-1.2V14.406Zm5.944-16.988h4.4a22.709,22.709,0,0,0,5.341-.361,3.2,3.2,0,0,0,1.667-1.245,3.833,3.833,0,0,0,.6-2.209,3.53,3.53,0,0,0-.793-2.4,3.64,3.64,0,0,0-2.239-1.155q-.723-.1-4.337-.1h-4.639Zm23.815,16.988V-15.032h5.944V-1.96l12.008-13.072h7.992L139.841-3.566l11.687,17.972h-7.691L135.745.59l-4.819,4.92v8.9Z" transform="translate(-1.528 15.032)" fill="#fff"></path></svg> 