<?xml version="1.0" encoding="utf-8"?>
<!-- Generator: Adobe Illustrator 22.1.0, SVG Export Plug-In . SVG Version: 6.00 Build 0)  -->
<svg version="1.1" id="Layer_1" xmlns="http://www.w3.org/2000/svg" xmlns:xlink="http://www.w3.org/1999/xlink" x="0px" y="0px"
	 viewBox="0 0 278.8 75" style="enable-background:new 0 0 278.8 75;" xml:space="preserve">
<style type="text/css">
	.st0{fill:#071631;}
	.st1{fill:url(#SVGID_1_);}
	.st2{fill:url(#SVGID_2_);}
	.st3{fill:url(#SVGID_3_);}
	.st4{fill:url(#SVGID_4_);}
</style>
<g>
	<path class="st0" d="M105.1,75H90.7v-4.2h4.6L93,64.2H78.6l-2.2,6.6h4.5V75H66.7v-4.2h4.5l10.1-28.1H77v-4.2h12l11.6,32.3h4.5V75z
		 M85.8,43.2l-5.7,16.6h11.5L85.8,43.2z"/>
	<path class="st0" d="M121.6,70.8h5.4V75h-15.7v-4.2h5.3V42.7h-5.3v-4.2H127v4.2h-5.4V70.8z"/>
	<path class="st0" d="M179.2,48.5h-4.5v-5.7h-13.8v11.6h14.5v4.5h-14.5v11.8h5.8v4.2h-15.8v-4.2h5v-28h-5v-4.2h28.4L179.2,48.5
		L179.2,48.5z"/>
	<path class="st0" d="M196.9,70.8h5.4V75h-15.7v-4.2h5.3V42.7h-5.3v-4.2h15.7v4.2h-5.4V70.8z"/>
	<path class="st0" d="M243.4,75h-8.1l-7.4-15h-8.3v10.7h5.4v4.2h-15.4v-4.2h5v-28h-5v-4.2h22.7c5,0,7.3,2.3,7.3,7.3v6.6
		c0,4.6-2.1,7-6.5,7.3l5.5,11.1h4.8V75z M231.7,55.5c2,0,2.8-0.8,2.8-2.9v-6.8c0-2-0.8-2.8-2.8-2.8h-12.2v12.5H231.7z"/>
	<path class="st0" d="M277.7,48.5h-4.5v-5.7h-13.8v11.3h14.5v4.5h-14.5v12.1h13.8V65h4.5v10h-28.4v-4.2h5V42.7h-5v-4.2h28.4V48.5z"
		/>
</g>
<g>
	
		<linearGradient id="SVGID_1_" gradientUnits="userSpaceOnUse" x1="17.9383" y1="76.8112" x2="17.9383" y2="1.8152" gradientTransform="matrix(1 0 0 -1 0 76.8)">
		<stop  offset="0" style="stop-color:#F08B5B"/>
		<stop  offset="0.5" style="stop-color:#E44D25"/>
		<stop  offset="1" style="stop-color:#951B1E"/>
	</linearGradient>
	<path class="st1" d="M34.2,14.5c-0.4-1.6-1-3.1-1.6-4.5s-1.4-2.7-2.3-3.8c-1.1-1.3-2.3-2.5-3.7-3.5c-1.2-0.8-2.5-1.5-3.9-1.9
		c-0.9-0.3-1.6-0.5-2.6-0.7c0.6,0.5,1.3,1.6,1.6,2.2c0.5,0.8,0.8,1.7,1.1,2.6c0.5,1.9,0.7,3.9,0.4,5.8c-0.8,5-4.5,9.4-7.7,13.1
		c-0.7,0.8-1.4,1.6-2.1,2.3c-0.7,0.7-1.3,1.5-2,2.3c-0.5,0.6-1.1,1.2-1.6,1.8C7,33.5,4.8,37.1,3.2,41C3,41.1,3,41.1,3,41.2
		c-0.2,0.6-0.5,1.2-0.7,1.9c-0.8,2.4-1.2,5-1.2,7.6c0,10.3,6.3,19,15.3,22.6c1.1,0.4,2.2,0.8,3.4,1c1.6,0.4,3.2,0.6,4.8,0.6
		c0.2,0,1.6-0.1,1.6-0.1s-0.8-0.2-3.1-2c-0.4-0.3-0.7-0.7-1.1-1.1c-1.5-1.7-2.4-3.7-2.9-5.9c-0.3-1.2-0.4-2.5-0.5-3.8
		c-0.2-2.4,0-4.8,0.4-7.2c0.5-2.5,1.2-5,2.3-7.3c1-2.2,2.2-4.4,3.5-6.5s2.5-4.1,3.8-6.2c1.5-2.4,2.8-4.8,4-7.3
		c0-0.1,0.1-0.1,0.1-0.2c1.1-2.4,1.8-4.9,2-7.6C34.9,18.1,34.7,16.3,34.2,14.5z"/>
	
		<linearGradient id="SVGID_2_" gradientUnits="userSpaceOnUse" x1="37.1986" y1="3.0864" x2="37.1986" y2="51.1136" gradientTransform="matrix(1 0 0 -1 0 76.8)">
		<stop  offset="0" style="stop-color:#70ACDE"/>
		<stop  offset="0.5" style="stop-color:#638FC4"/>
		<stop  offset="0.9949" style="stop-color:#1B4689"/>
	</linearGradient>
	<path class="st2" d="M47.2,39.6c0-0.1-0.1-0.2-0.1-0.3c-0.5-1.1-1.1-2.2-1.8-3.2c-0.6-0.8-1.2-1.6-1.7-2.5
		c-1.2-1.8-2.3-3.6-3.5-5.4c-0.2-0.3-0.4-0.7-0.6-1c-0.1-0.2-0.9-1.5-0.9-1.6c-0.4,0.6,0.4,3.2,0.5,5c0.1,1,0.1,1.9,0.1,2.9
		c0,1.5-0.3,3-0.8,4.5c-0.6,1.9-1.4,3.7-2.4,5.4s-2.2,3.3-3.4,4.8C28.2,53.8,23,60.4,24.9,68c0.4,1.5,1.1,3,2.3,4
		c2.2,1.9,5.5,2,8.2,1c8.8-3.3,14.5-13.3,14.5-22.4C49.7,46.7,48.9,43,47.2,39.6z M24.6,66.6c0,0.1,0,0.2,0,0.3
		C24.6,66.8,24.6,66.7,24.6,66.6z"/>
	
		<linearGradient id="SVGID_3_" gradientUnits="userSpaceOnUse" x1="22.685" y1="1.9" x2="22.685" y2="76.8" gradientTransform="matrix(1 0 0 -1 0 76.8)">
		<stop  offset="0" style="stop-color:#F08B5B"/>
		<stop  offset="0.5" style="stop-color:#E44D25"/>
		<stop  offset="1" style="stop-color:#951B1E"/>
	</linearGradient>
	<path class="st3" d="M22,71.8c-1.5-1.7-2.4-3.7-2.9-5.9c-0.3-1.2-0.4-2.5-0.5-3.8c-0.2-2.4,0-4.8,0.4-7.2c0.5-2.5,1.2-5,2.3-7.3
		c1-2.2,2.2-4.4,3.5-6.5s2.5-4.1,3.8-6.2c1.5-2.4,2.8-4.8,4-7.3c0-0.1,0.1-0.1,0.1-0.2c1.1-2.4,1.8-4.9,2-7.6c0.2-1.8,0-3.6-0.5-5.4
		c-0.4-1.6-1-3.1-1.6-4.5c-0.6-1.4-1.4-2.7-2.3-3.8c-1.1-1.3-2.3-2.5-3.7-3.5c-1.2-0.8-2.5-1.5-3.9-1.9c-0.9-0.3-1.6-0.5-2.6-0.7
		c16.6,10.4,6.3,22.2-4.2,38.1C5.7,53.4,10.8,71.7,26.1,74.9c0,0-0.8-0.2-3.1-2C22.6,72.6,22.3,72.2,22,71.8z"/>
	
		<linearGradient id="SVGID_4_" gradientUnits="userSpaceOnUse" x1="40.644" y1="51.0826" x2="40.644" y2="4.2853" gradientTransform="matrix(1 0 0 -1 0 76.8)">
		<stop  offset="0" style="stop-color:#70ACDE"/>
		<stop  offset="0.5" style="stop-color:#638FC4"/>
		<stop  offset="0.9949" style="stop-color:#1B4689"/>
	</linearGradient>
	<path class="st4" d="M49.7,50.7c0-4-0.8-7.7-2.5-11.1c0-0.1-0.1-0.2-0.1-0.3c-0.5-1.1-1.1-2.2-1.8-3.2c-0.6-0.8-1.2-1.6-1.7-2.5
		c-1.2-1.8-2.3-3.6-3.5-5.4c-0.2-0.3-0.4-0.7-0.6-1c-0.1-0.2-0.8-1.3-0.9-1.6c1.4,5.8,5.8,12.9,3.9,21.8
		C40.2,57.9,27.7,66,32.8,71.2c1.3,1.3,2.9,1.5,4.7,0.8C44.9,68.1,49.7,59,49.7,50.7z"/>
</g>
</svg>
