<svg width="167" height="41" viewBox="0 0 167 41" fill="none" xmlns="http://www.w3.org/2000/svg">
<path d="M82.2576 20.5823C82.3702 24.771 81.593 28.7572 79.5021 32.439C75.8827 38.8121 69.1872 41.1814 62.4686 40.3289C53.4845 39.1888 48.6861 32.4008 47.7698 23.96C47.2882 19.5246 47.5542 15.134 49.2792 10.9308C52.4101 3.30208 59.3293 0.228235 66.6862 0.876894C76.8477 1.77281 81.518 9.23302 82.2472 17.836C82.3242 18.7452 82.2576 19.6665 82.2576 20.5823ZM56.5604 20.2466C56.5604 24.202 57.1644 26.8825 58.5107 29.1194C61.6271 34.2973 68.6226 34.3381 71.4377 29.0003C74.254 23.6603 74.2469 18.0327 71.7049 12.5595C70.4069 9.76499 68.0126 8.30461 64.8353 8.35223C61.722 8.39889 59.5585 9.96629 58.1476 12.6377C56.8574 15.0804 56.4597 17.7273 56.5604 20.2466Z" fill="black"/>
<path d="M94.0229 1.97914C100.3 2.27767 106.582 1.24888 112.691 3.18016C118.618 5.05396 122.06 9.17588 123.359 15.1825C124.244 19.2739 124.198 23.3726 123.252 27.4331C121.567 34.6609 116.236 39.4662 108.66 40.0612C103.86 40.4383 99.0053 40.1316 94.0229 40.1316V1.97914ZM102.624 33.1263C108.457 33.9894 112.872 31.4536 114.329 26.4137C115.234 23.2829 115.246 20.0983 114.653 16.8995C113.626 11.356 109.467 8.38758 102.624 9.25115V33.1263Z" fill="black"/>
<path d="M32.1925 39.9895C28.7957 39.9895 25.7084 40.0275 22.6244 39.9438C22.2159 39.9327 21.7244 39.3692 21.4398 38.9478C17.799 33.5553 14.1898 28.1415 10.5692 22.7354C10.2932 22.3232 9.9917 21.9281 9.46496 21.1951V39.8817H0.918945V1.93136H9.40106V20.2234C9.50108 20.2581 9.60109 20.2928 9.70113 20.3275C10.4062 19.309 11.1253 18.2998 11.8141 17.2703C15.0349 12.456 18.2345 7.62754 21.484 2.8328C21.7819 2.39326 22.3715 1.88397 22.8392 1.8704C25.8349 1.78345 28.8343 1.82604 32.1716 1.82604C31.7568 2.50538 31.5018 2.95813 31.2141 3.38902C27.6284 8.7591 24.0726 14.1498 20.4205 19.4744C19.6601 20.5831 19.7275 21.3252 20.4616 22.3982C24.0787 27.6854 27.6082 33.0324 31.1655 38.3604C31.4634 38.8065 31.7386 39.2678 32.1925 39.9895Z" fill="black"/>
<path d="M144.551 1.69562H155.013C159.002 14.393 162.978 27.0486 167 39.8506C164.043 39.8506 161.297 39.8861 158.554 39.8063C158.205 39.7961 157.681 39.2389 157.565 38.8403C156.793 36.1697 156.109 33.4734 155.392 30.7721H143.87C143.168 33.4128 142.401 36.0344 141.801 38.6935C141.58 39.6702 141.169 39.8884 140.264 39.8697C137.774 39.8183 135.282 39.8519 132.564 39.8519C136.585 27.0527 140.56 14.4002 144.551 1.69562ZM145.692 23.8635H153.615C152.293 18.6777 151.004 13.6169 149.714 8.5561C149.635 8.5786 149.556 8.60113 149.476 8.62363C148.219 13.6853 146.962 18.747 145.692 23.8635Z" fill="black"/>
</svg>
