<svg width="141" height="26" viewBox="0 0 141 26" fill="none" xmlns="http://www.w3.org/2000/svg">
<path fill-rule="evenodd" clip-rule="evenodd" d="M64.051 0.499978C64.4395 0.499978 64.7531 0.824234 64.7531 1.2228H64.7518V14.1309C64.7518 14.7916 65.5418 15.1063 65.9736 14.6173L69.9998 10.0574C70.1337 9.90745 70.3213 9.82098 70.5195 9.82098H73.5746C74.1875 9.82098 74.5063 10.5735 74.089 11.0356L68.9421 16.7425C68.6967 17.0154 68.6914 17.4356 68.9316 17.7139L74.5969 24.2814C74.9998 24.7476 74.6783 25.4839 74.072 25.4839H70.8817C70.6783 25.4839 70.4867 25.3934 70.3528 25.2366L65.9841 20.0918C65.5576 19.5892 64.7531 19.8999 64.7531 20.5674V24.7597C64.7531 25.1583 64.4395 25.4825 64.051 25.4825H61.6035C61.2164 25.4825 60.9014 25.1583 60.9014 24.7597V1.2228C60.9014 0.824234 61.2164 0.499978 61.6035 0.499978H64.051ZM102.267 4.05598C102.267 5.50973 103.391 6.66624 104.803 6.66624C106.215 6.66624 107.338 5.50973 107.338 4.05598C107.338 2.60224 106.215 1.44572 104.803 1.44572C103.391 1.44572 102.267 2.60224 102.267 4.05598ZM102.876 24.7599C102.876 25.1585 103.191 25.4828 103.579 25.4828H106.026C106.415 25.4828 106.728 25.1585 106.728 24.7599V10.5413C106.728 10.1428 106.413 9.81851 106.026 9.81851H103.579C103.19 9.81851 102.876 10.1428 102.876 10.5413V24.7586V24.7599ZM110.648 23.0522C110.398 22.8239 110.385 22.4429 110.589 22.1699L111.882 20.4419C112.147 20.088 112.664 20.0569 113 20.3406C113.787 21.0067 115.261 22.0119 116.979 22.0119C118.553 22.0119 119.868 21.5485 119.868 20.5905C119.868 19.5664 119.161 19.3678 116.85 18.872C113.833 18.2113 111.201 16.8886 111.201 13.9149C111.201 11.4695 113.576 9.02408 117.749 9.02408C120.206 9.02408 122.071 10.005 122.934 10.5629C123.243 10.7629 123.305 11.1777 123.1 11.4884L121.953 13.2205C121.727 13.5623 121.264 13.6447 120.915 13.4407C120.231 13.0421 119.055 12.495 117.749 12.495C116.305 12.495 114.99 13.0232 114.99 13.9825C114.99 14.9417 116.017 15.1728 118.584 15.7335C121.601 16.3941 123.752 17.4182 123.752 20.6568C123.752 23.3332 120.991 25.4814 117.108 25.4814C113.717 25.4814 111.512 23.8399 110.65 23.0522H110.648ZM133.329 9.02509C128.932 9.02545 125.69 12.6597 125.69 17.2531C125.69 21.8467 129.253 25.4811 133.875 25.4811C136.6 25.4811 138.625 24.257 139.499 23.6166C139.781 23.4085 139.831 23.014 139.638 22.7168L138.528 21.0023C138.281 20.6199 137.74 20.5564 137.366 20.8064C136.679 21.2657 135.488 21.8467 133.875 21.8467C131.933 21.8467 130.534 20.6848 129.913 19.5067C129.701 19.1027 130.028 18.6744 130.474 18.6744H140.303C140.676 18.6744 140.984 18.3745 140.992 17.9908C141 17.6584 141 17.3679 141 17.1869C141 12.3625 137.502 9.02543 133.329 9.02509ZM130.378 15.7993C129.963 15.7993 129.637 15.4278 129.773 15.0252C130.181 13.8281 131.301 12.627 133.328 12.627C135.356 12.627 136.616 13.8633 137.007 15.0576C137.135 15.4494 136.812 15.7993 136.411 15.7993H130.378ZM76.286 10.7883C76.0734 10.3101 76.4133 9.76424 76.9251 9.76424H79.6587C79.9448 9.76424 80.2034 9.94393 80.3097 10.2168L82.643 16.1737C82.8766 16.7709 83.6968 16.779 83.9409 16.1859L86.4028 10.206C86.513 9.93852 86.7676 9.76559 87.0498 9.76559H89.3569C89.6416 9.76559 89.8975 9.94258 90.0065 10.2128L92.3949 16.1872C92.6324 16.7817 93.45 16.7857 93.6915 16.1926L96.1311 10.2087C96.24 9.93987 96.4959 9.76559 96.7781 9.76559H99.1495C99.6574 9.76559 99.9972 10.302 99.7925 10.7802L93.6731 25.0515C93.4277 25.623 92.6416 25.6271 92.391 25.0569L88.66 16.5574C88.4081 15.9832 87.6128 15.9926 87.3739 16.5736L83.9028 25.0191C83.6653 25.5987 82.8713 25.6095 82.618 25.038L76.2887 10.7883H76.286ZM52.8086 10.6667C53.491 10.0303 54.4936 9.42235 55.84 9.42235C56.592 9.42235 57.3059 9.56962 57.7994 9.70337C58.176 9.8047 58.3571 10.2208 58.2167 10.5937L57.403 12.7473C57.2534 13.1445 56.7954 13.335 56.3925 13.2432C56.0999 13.177 55.7285 13.1229 55.2941 13.1229C53.3335 13.1229 52.2718 14.6037 51.9779 15.0874C51.9188 15.1846 51.8926 15.2981 51.8926 15.413V24.7583C51.8926 25.1569 51.5776 25.4811 51.1905 25.4811H48.743C48.3545 25.4811 48.0409 25.1569 48.0409 24.7583V10.541C48.0409 10.1425 48.3545 9.81821 48.743 9.81821H51.2731C51.5094 9.81821 51.6996 10.0155 51.6996 10.2573C51.6996 10.7194 52.4765 10.9761 52.8086 10.6653V10.6667ZM37.109 9.02635C32.5828 9.02635 28.9883 12.6283 28.9883 17.2543C28.9883 21.848 32.5828 25.4823 37.109 25.4823C41.6352 25.4823 45.2297 21.8804 45.2297 17.2543C45.2297 12.6283 41.6352 9.02635 37.109 9.02635ZM37.109 21.7818C34.5093 21.7818 32.9043 19.6998 32.9043 17.2543C32.9043 14.8089 34.5093 12.7269 37.109 12.7269C39.7087 12.7269 41.3137 14.8089 41.3137 17.2543C41.3137 19.6998 39.7087 21.7818 37.109 21.7818Z" fill="black"/>
<path fill-rule="evenodd" clip-rule="evenodd" d="M26.434 13.1284C27.2358 11.4355 26.5534 9.39407 24.9091 8.56857C23.2647 7.74307 21.2818 8.44563 20.48 10.1385L15.5351 20.5755C14.7333 22.2684 15.4157 24.3098 17.06 25.1353C18.7044 25.9608 20.6873 25.2583 21.4891 23.5654L26.434 13.1284ZM14.7993 8.58729C16.4436 9.41279 17.126 11.4542 16.3242 13.1471L11.3793 23.5841C10.5775 25.277 8.59458 25.9796 6.95023 25.1541C5.30588 24.3286 4.62347 22.2871 5.4253 20.5942L10.3702 10.1572C11.172 8.46434 13.1549 7.76178 14.7993 8.58729ZM0 11.6869C0 9.80349 1.48293 8.27678 3.31232 8.27678C5.14171 8.27678 6.62465 9.80349 6.62465 11.6869C6.62465 13.5703 5.14171 15.097 3.31232 15.097C1.48293 15.097 0 13.5703 0 11.6869Z" fill="black"/>
</svg>
