<?xml version="1.0" encoding="utf-8"?>
<!-- Generator: Adobe Illustrator 25.4.1, SVG Export Plug-In . SVG Version: 6.00 Build 0)  -->
<svg version="1.1" id="Brandmark" xmlns="http://www.w3.org/2000/svg" xmlns:xlink="http://www.w3.org/1999/xlink" x="0px" y="0px"
	 viewBox="0 0 61.4 50" style="enable-background:new 0 0 61.4 50;" xml:space="preserve">
<style type="text/css">
	.st0{fill:#D5A5FF;}
</style>
<path id="Path_1" class="st0" d="M16.9,35.4c0,0.1-0.1,0.2-0.2,0.3L16.9,35.4z"/>
<path id="Path_2" class="st0" d="M28.5,5.8c-2-3.5-5.7-5.6-9.7-5.7l0,0L0,0.2l8.2,15.2C8.4,16,8.7,16.6,9,17.1l9.6,17.6l10.2-17.3
	C30.8,13.8,30.7,9.4,28.5,5.8z"/>
<path id="Path_4" class="st0" d="M52.2,22.3c-2,0.6-8,1.5-14.1,2.8c-12.9,2.8-14,6.9-14.9,8.2L23,33.6h0c-2.8,5.7-0.4,12.5,5.2,15.3
	c5.1,2.5,11.2,0.9,14.4-3.8h0l16.5-28C57.7,19.7,55.2,21.5,52.2,22.3z"/>
<path id="Path_5" class="st0" d="M42.8,22.1L42.8,22.1l-0.3,0.5c0-0.2,0.2-0.2,0.2-0.3L42.8,22.1z"/>
<path id="Path_6" class="st0" d="M55.7,1.6c-5.3-3.1-12.2-1.4-15.4,3.8l0,0l0,0c0,0,0,0,0,0.1c0,0-0.1,0.1-0.1,0.2
	c0,0,0,0.1-0.1,0.1c0,0,0,0,0,0c0,0,0,0,0,0L23.7,33.4c0.9-1.3,2-5.4,14.9-8.2c6-1.3,12.1-2.2,14.1-2.8c2.9-0.7,5.4-2.6,7-5.2
	c0,0,0.1-0.1,0.1-0.2c0,0,0-0.1,0.1-0.1c0,0,0,0,0-0.1C62.9,11.5,61.1,4.7,55.7,1.6z"/>
<path id="Path_7" class="st0" d="M25.7,34.8c-0.7,1.1-1,1.6-1,1.6L25.7,34.8z"/>
</svg>
