<svg width="96" height="96" viewBox="0 0 96 96" fill="none" xmlns="http://www.w3.org/2000/svg">
  <defs>
    <linearGradient id="bg" x1="12" y1="10" x2="82" y2="86" gradientUnits="userSpaceOnUse">
      <stop stop-color="#16395F"/>
      <stop offset="1" stop-color="#0C1B31"/>
    </linearGradient>
    <linearGradient id="line" x1="24" y1="24" x2="72" y2="72" gradientUnits="userSpaceOnUse">
      <stop stop-color="#69E1FF"/>
      <stop offset="1" stop-color="#FFB36D"/>
    </linearGradient>
  </defs>
  <rect x="6" y="6" width="84" height="84" rx="24" fill="url(#bg)"/>
  <path d="M60.5 27C49.1 27 39 35.8 39 48C39 60.2 49.1 69 60.5 69C66.3 69 71 67.2 75 63.7L69.9 57.8C67.5 59.9 64.6 61 60.9 61C54.2 61 48.8 55.4 48.8 48C48.8 40.6 54.2 35 60.9 35C64.6 35 67.4 36.1 69.8 38.1L75 32.2C70.8 28.9 66.2 27 60.5 27Z" fill="url(#line)"/>
  <rect x="20" y="22" width="9" height="9" rx="3" fill="#69E1FF" fill-opacity="0.9"/>
  <rect x="20" y="38" width="9" height="9" rx="3" fill="#69E1FF" fill-opacity="0.6"/>
  <rect x="20" y="54" width="9" height="9" rx="3" fill="#69E1FF" fill-opacity="0.4"/>
  <rect x="20" y="70" width="9" height="9" rx="3" fill="#FFB36D" fill-opacity="0.65"/>
</svg>
