<?xml version="1.0" encoding="UTF-8"?>
<svg id="Layer_2" data-name="Layer 2" xmlns="http://www.w3.org/2000/svg" viewBox="0 0 409.92 158.49">
  <defs>
    <style>
      .cls-1, .cls-2 {
        fill: #fff;
      }

      .cls-2, .cls-3, .cls-4 {
        fill-rule: evenodd;
      }

      .cls-3 {
        fill: #40a0d9;
      }

      .cls-4 {
        fill: #7c7b7a;
      }
    </style>
  </defs>
  <g id="Layer_2-2" data-name="Layer 2">
    <g>
      <g>
        <path class="cls-2" d="M225.55,33.84l-13.47.26s-.19-4.24-4.2-6.87c-3.27-2.15-9.19-2.78-12.83-1.21-10.44,4.51-9.75,25.25,1.6,27.69,6.4,1.67,15.02-.85,15.56-8.5h13.27s.72,14.52-16.41,19.03c-10.71,2.77-23.76.39-30.5-8.95-5.08-7.05-6.19-19.55-2.32-27.47,1.69-3.47,5.01-8.28,11.09-11.1,8.64-4.01,20.19-3.35,28.64,1.56,5.88,3.42,9.44,8.43,9.57,15.55Z"/>
        <polygon class="cls-2" points="239.47 64.4 253.55 64.4 253.55 45.38 272.22 14.9 256.56 14.9 246.67 33.14 236.77 14.9 221.12 14.9 239.47 44.86 239.47 64.4"/>
        <path class="cls-2" d="M275,14.9h25.18c3.23,0,6.5.11,9.65,1.28,11.66,4.34,11.45,20.66.75,22.68,14.7,3.68,12.45,23.94-5.77,25.36-9.35.73-20.26.23-29.81.23V14.9h0ZM288.71,44.19v10.07h12.71c2.77,0,5.03-2.26,5.03-5.03h0c0-2.77-2.26-5.03-5.03-5.03h-12.71ZM288.71,25.02v9.26h11.69c2.55,0,4.63-2.08,4.63-4.63h0c0-2.55-2.08-4.63-4.63-4.63h-11.69Z"/>
        <polygon class="cls-2" points="323.29 14.96 326.85 14.96 337.28 14.96 362.99 14.96 362.99 26.2 337.28 26.2 337.28 34.17 360.67 34.17 360.67 44.48 337.28 44.48 337.28 53.37 362.99 53.37 362.99 64.62 337.28 64.62 326.85 64.62 323.29 64.62 323.29 14.96"/>
        <path class="cls-2" d="M366.48,14.96h13.73v.07h13.71c16.76-.72,22.59,21.8,6.49,26.49,0,0,7.59.63,8.51,8.74v11.95s-.06,1.56.75,2.36h-13.62s-.92-2.25-.92-3.8v-9.48s-.46-5.17-5.17-5.11h-9.75v18.44h-13.73V14.96h0ZM380.21,25.32v10.8h10.67s4.66-.46,4.71-4.43c0,0,.98-5-3.56-6.38h-11.82Z"/>
        <polygon class="cls-3" points="262.85 69.2 276.38 69.2 276.38 108.02 298.88 108.02 298.88 119.36 276.38 119.36 267.48 119.36 262.85 119.36 262.85 69.2"/>
        <polygon class="cls-3" points="344.47 69.2 347.96 69.2 358.17 69.2 383.33 69.2 383.33 80.56 358.17 80.56 358.17 88.61 381.06 88.61 381.06 99.02 358.17 99.02 358.17 108.01 383.33 108.01 383.33 119.36 358.17 119.36 347.96 119.36 344.47 119.36 344.47 69.2"/>
        <polygon class="cls-3" points="306.67 119.36 323.36 119.36 341.02 69.2 326.54 69.2 315.09 105.47 303.63 69.2 289.33 69.2 306.67 119.36"/>
        <path class="cls-3" d="M232.32,68.69h4.21c13.13,0,23.88,10.74,23.88,23.88v3.5c0,13.13-10.74,23.88-23.88,23.88h-4.21c-13.13,0-23.88-10.74-23.88-23.88v-3.5c0-13.13,10.74-23.88,23.88-23.88h0ZM232.89,79.73c-5.96,0-10.84,4.88-10.84,10.84v7.5c0,5.96,4.88,10.84,10.84,10.84h3.07c5.96,0,10.84-4.88,10.84-10.84v-7.5c0-5.96-4.88-10.84-10.84-10.84h-3.07Z"/>
        <path class="cls-3" d="M175.48,102.72c.64,11.51,20.71,7.97,16.93.4-2.08-4.16-13.94-3.7-19.15-5.47-1.85-.63-3.88-1.57-5.59-2.96-3.28-2.68-4.14-6.37-4.16-10.38-.03-6.23,3.04-10.95,8.72-13.56,0,0,7.57-3.24,16.36-2.11,9.25,1.19,16.33,5.93,16.64,16.36h-12.99c-1.06-6.21-7.91-7.97-11.99-5.92-.99.5-1.82,1.22-2.36,2.15-4.41,7.61,8.89,7.15,12.69,7.71,4.56.67,12.04,2.64,14.55,8.31,0,0,5.59,12.6-5.7,19.15-7.29,5.39-26.33,5.26-33.29-2.5-2.15-2.39-3.95-5.93-3.81-11.01,0,0,13.17,0,13.17-.17Z"/>
        <g>
          <path class="cls-1" d="M162.3,157.59l3.83-21.75h2.92l-.09,2.34c.61-.77,1.36-1.41,2.25-1.91.89-.53,1.98-.79,3.28-.79s2.34.28,3.25.85c.93.57,1.65,1.35,2.16,2.34.51.97.76,2.07.76,3.28,0,1.32-.22,2.54-.67,3.68-.43,1.11-1.03,2.1-1.82,2.95-.79.85-1.72,1.52-2.79,2-1.05.47-2.2.7-3.43.7-1.15,0-2.16-.27-3.01-.82-.85-.55-1.46-1.16-1.82-1.85l-1.58,8.99h-3.22ZM171.9,148.48c1.05,0,1.98-.26,2.79-.79.81-.53,1.45-1.24,1.91-2.13.49-.91.73-1.93.73-3.07,0-1.22-.35-2.22-1.06-3.01-.71-.81-1.67-1.22-2.89-1.22-1.03,0-1.96.27-2.79.82-.83.55-1.49,1.29-1.97,2.22-.47.91-.7,1.94-.7,3.1s.36,2.18,1.09,2.95c.73.75,1.69,1.12,2.89,1.12Z"/>
          <path class="cls-1" d="M186.72,151.27c-1.7,0-2.95-.39-3.74-1.18-.77-.79-1.15-1.73-1.15-2.82,0-1.66.68-2.97,2.04-3.92,1.38-.95,3.19-1.43,5.44-1.43h3.95l.03-.27c.06-.28.09-.58.09-.88,0-.87-.26-1.53-.79-1.97-.53-.45-1.22-.67-2.07-.67s-1.71.22-2.46.67c-.75.43-1.28,1.06-1.58,1.91h-3.19c.3-1.09.83-2.03,1.58-2.79.75-.79,1.65-1.39,2.7-1.79,1.05-.43,2.18-.64,3.37-.64,1.84,0,3.25.43,4.22,1.28.97.83,1.46,1.99,1.46,3.49,0,.22-.01.46-.03.7,0,.22-.03.46-.09.7l-1.61,9.26h-2.89l.24-2.52c-.59.83-1.34,1.52-2.25,2.07-.89.55-1.98.82-3.28.82ZM187.81,148.66c.85,0,1.61-.2,2.28-.61.69-.43,1.27-.98,1.73-1.67.47-.69.8-1.45,1-2.28h-3.58c-1.22,0-2.18.24-2.89.73-.71.49-1.06,1.14-1.06,1.97,0,.61.22,1.07.67,1.4.45.3,1.06.46,1.85.46Z"/>
          <path class="cls-1" d="M197.77,150.91l2.64-15.07h2.92l-.21,2.7c.69-.93,1.56-1.67,2.61-2.22,1.05-.57,2.24-.85,3.55-.85l-.61,3.37h-.88c-.89,0-1.71.14-2.46.43-.75.26-1.39.72-1.91,1.37-.53.65-.88,1.53-1.06,2.64l-1.37,7.62h-3.22Z"/>
          <path class="cls-1" d="M214.53,150.91c-1.32,0-2.36-.26-3.13-.79-.75-.55-1.12-1.47-1.12-2.76,0-.45.05-.92.15-1.43l1.31-7.38h-2.4l.49-2.7h2.4l1.06-3.83h2.82l-.67,3.83h4.25l-.49,2.7h-4.25l-1.31,7.38c-.06.28-.09.54-.09.76,0,.55.15.93.46,1.15.3.22.81.33,1.52.33h2l-.49,2.73h-2.52Z"/>
          <path class="cls-1" d="M234.03,151.27c-1.28,0-2.41-.28-3.4-.85-.97-.59-1.74-1.38-2.31-2.37-.55-1.01-.82-2.16-.82-3.43s.22-2.5.67-3.61c.47-1.11,1.1-2.09,1.91-2.92.83-.83,1.78-1.47,2.86-1.91,1.09-.47,2.27-.7,3.52-.7s2.43.28,3.4.85c.99.55,1.77,1.32,2.34,2.31.57.97.85,2.11.85,3.4s-.23,2.51-.7,3.65c-.47,1.11-1.11,2.1-1.94,2.95-.81.83-1.76,1.48-2.86,1.94-1.07.47-2.25.7-3.52.7ZM234.45,148.51c.99,0,1.88-.27,2.67-.82.81-.57,1.45-1.32,1.91-2.25.47-.95.7-2.03.7-3.22,0-1.26-.36-2.23-1.09-2.92-.71-.71-1.56-1.06-2.55-1.06s-1.89.28-2.7.85c-.79.55-1.42,1.3-1.88,2.25-.47.93-.7,1.99-.7,3.19,0,1.25.35,2.24,1.06,2.95.73.69,1.59,1.03,2.58,1.03Z"/>
          <path class="cls-1" d="M244.92,150.91l2.19-12.36h-2.16l.49-2.7h2.16l.36-2.19c.3-1.64.93-2.82,1.88-3.52.95-.73,2.18-1.09,3.68-1.09h1.58l-.49,2.73h-1.09c-.71,0-1.25.15-1.61.46-.36.28-.61.77-.73,1.46l-.36,2.16h3.46l-.49,2.7h-3.46l-2.19,12.36h-3.22Z"/>
        </g>
        <g>
          <path class="cls-1" d="M268.59,148.95c-.08.58-.37,1.09-.85,1.49-.91.77-2.26.77-2.95-.01-.34-.4-.47-.9-.4-1.48l2.11-15.04c.08-.56.35-1.07.79-1.47.91-.82,2.29-.82,2.98-.01.34.4.49.92.41,1.49l-2.11,15.04h0Z"/>
          <path class="cls-1" d="M280.05,148.95c-.08.58-.37,1.09-.85,1.49-.91.77-2.26.77-2.95-.01-.34-.4-.47-.9-.4-1.48l2.11-15.04c.08-.56.35-1.07.79-1.47.91-.82,2.29-.82,2.98-.01.34.4.49.92.41,1.49l-2.11,15.04h0Z"/>
          <path class="cls-1" d="M274.09,139.32c.58,0,1.06.22,1.4.63.66.8.47,2.16-.43,2.95-.45.4-.99.6-1.56.6h-6.24c-.56,0-1.04-.2-1.39-.59-.71-.79-.51-2.17.4-2.98.46-.4,1.01-.62,1.57-.62h6.24Z"/>
          <path class="cls-1" d="M294.39,150.91h-9.77c-.57,0-1.05-.21-1.39-.6s-.47-.9-.4-1.48l2.08-14.79c.08-.57.36-1.07.8-1.48.46-.41,1-.63,1.57-.63h9.77c.55,0,1.02.21,1.35.59s.47.88.39,1.44c-.08.56-.36,1.06-.81,1.44-.44.37-.96.57-1.5.57h-7.67l-.48,3.42h6.79c.55,0,1.01.2,1.35.59s.47.89.4,1.44c-.08.56-.36,1.06-.81,1.44-.44.37-.96.57-1.5.57h-6.79l-.48,3.44h7.67c.55,0,1.02.21,1.35.6.33.38.47.88.39,1.44-.08.56-.36,1.05-.81,1.44-.44.37-.96.57-1.5.57"/>
          <path class="cls-1" d="M312.86,151.03c-.67,0-1.22-.31-1.55-.86l-3.64-5.55-5.16,5.59c-.66.68-1.31.82-1.74.82-.54,0-1-.21-1.33-.59h0c-.33-.39-.46-.88-.39-1.41.07-.47.27-.91.6-1.27l6.03-6.33-4.2-6.25c-.25-.4-.33-.83-.25-1.3.08-.57.36-1.07.8-1.46.7-.61,1.7-.77,2.46-.37.29.16.5.36.66.61l3.58,5.53,5.16-5.59c.7-.86,2.28-1.04,3.04-.19.35.39.49.89.42,1.45-.06.43-.25.84-.55,1.18l-6.05,6.37,4.24,6.3c.23.31.33.75.27,1.26-.08.57-.35,1.07-.79,1.46-.45.4-.99.62-1.59.62"/>
          <path class="cls-1" d="M331.99,151.03c-.42,0-.79-.11-1.11-.34-.32-.23-.53-.54-.66-.92l-.89-3.23h-6.98l-1.78,3.2c-.25.41-.55.72-.92.94-.94.56-2.05.42-2.63-.27h0c-.32-.4-.45-.9-.37-1.46.04-.27.14-.55.32-.86l8.28-14.68c.26-.45.6-.82.99-1.11.46-.33.98-.49,1.55-.49h.24c.57,0,1.04.16,1.4.49.33.29.55.66.68,1.09l4.16,14.68c.09.33.12.6.08.87-.08.56-.35,1.07-.78,1.46-.46.41-1,.62-1.59.62M324.58,142.54h3.64l-1.2-4.38-2.43,4.38h0Z"/>
          <path class="cls-1" d="M350.92,151.03c-.54,0-1.03-.18-1.41-.51-.39-.33-.63-.76-.72-1.29l-1.65-9.45-4.32,9.46c-.23.51-.59.95-1.07,1.28-.98.66-2.19.66-2.94.03-.36-.3-.61-.73-.73-1.27l-2.72-14.71c-.05-.3-.05-.52-.02-.72.05-.53.31-1.06.77-1.46.8-.71,2.09-.8,2.82-.12.3.28.49.64.57,1.09l1.7,10.39,4.63-10.33c.2-.47.55-.88.99-1.18.9-.59,2.02-.59,2.74,0,.37.3.6.71.68,1.19l1.72,10.32,4.62-10.38c.2-.45.5-.82.88-1.11.88-.67,2.17-.59,2.78.12.34.4.47.92.35,1.52-.02.14-.08.36-.2.62l-6.85,14.71c-.29.57-.65.99-1.1,1.3-.47.32-.99.47-1.52.47"/>
          <path class="cls-1" d="M372.57,151.03c-.42,0-.79-.11-1.11-.34-.32-.23-.53-.54-.66-.92l-.89-3.23h-6.97l-1.78,3.2c-.25.41-.55.72-.92.94-.94.56-2.05.42-2.63-.27h0c-.32-.4-.45-.9-.37-1.46.04-.27.14-.55.32-.86l8.28-14.68c.26-.45.6-.82.99-1.11.46-.33.98-.49,1.55-.49h.24c.57,0,1.04.16,1.4.49.33.29.55.66.68,1.09l4.16,14.68c.09.33.12.6.08.87-.08.56-.35,1.07-.78,1.46-.46.41-1,.62-1.59.62M365.17,142.54h3.64l-1.2-4.38-2.43,4.38h0Z"/>
          <path class="cls-1" d="M389.55,151.03c-.67,0-1.22-.31-1.55-.86l-6.15-9.71,4.9-.05,4.9,7.29c.16.2.35.62.27,1.26-.08.56-.35,1.07-.78,1.46-.45.41-.99.62-1.59.62"/>
          <path class="cls-1" d="M378.34,151.03c-.57,0-1.05-.21-1.39-.6-.34-.4-.47-.9-.4-1.48l2.09-14.91c.08-.57.36-1.07.8-1.48.46-.41,1-.63,1.57-.63h5.68c2.43,0,4.24.53,5.37,1.59,1.18,1.1,1.66,2.56,1.4,4.34-.21,1.51-1.42,6.42-8.02,6.42h-4.06l-.66,4.67c-.08.58-.37,1.09-.84,1.49-.46.39-.99.59-1.56.59M381.96,140.21h3.43c1.19,0,2.16-.22,2.87-.66.6-.37.91-.84,1.01-1.52.09-.66-.05-1.12-.46-1.45-.33-.27-1.11-.59-2.95-.59h-3.3l-.59,4.22h0Z"/>
          <path class="cls-1" d="M405.49,150.91h-9.77c-.57,0-1.05-.21-1.4-.61-.34-.4-.47-.9-.39-1.47l2.08-14.79c.08-.56.36-1.07.79-1.47.46-.42,1-.63,1.58-.63h9.77c.55,0,1.02.21,1.35.59.33.38.47.88.39,1.44-.08.56-.36,1.06-.81,1.44-.44.37-.96.57-1.5.57h-7.67l-.48,3.42h6.79c.55,0,1.01.2,1.35.59s.47.89.4,1.44c-.08.56-.36,1.06-.81,1.44-.44.37-.96.57-1.5.57h-6.79l-.48,3.44h7.67c.55,0,1.02.21,1.35.6.33.38.47.88.39,1.44s-.36,1.06-.81,1.44c-.44.37-.96.57-1.5.57"/>
        </g>
      </g>
      <g>
        <path class="cls-3" d="M80.14,0c17.07,0,33.52,2.71,48.93,7.71l5.14,1.85-4.86,1.78c-5.54,2.34-10.94,4.98-16.15,7.9l-10.51,6.65-2.92-1.59c-5.84-2.47-12.26-3.83-18.99-3.83-26.95,0-48.8,21.85-48.8,48.79,0,10.11,3.08,19.49,8.34,27.28l1.64,1.99-5.84,15.67-1.34,5.19-3.51-4.19C13.5,91.34,2.28,62.34.28,30.82l-.28-8.87,4.69-2.85C27.11,6.93,52.81,0,80.14,0Z"/>
        <path class="cls-2" d="M144.04,13.53l3.04,1.3c2.9,1.36,5.76,2.8,8.55,4.32l4.16,2.53-.31,10.11c-3.19,50.39-29.99,94.38-69.44,121.03l-9.34,5.67-10.87-6.6c-9.87-6.67-18.93-14.41-27.05-23.07l-2.55-3.05,2.35-9.14c.87-2.79,1.81-5.54,2.83-8.26l1.65-4.06,6.53,5.39c7.78,5.26,17.16,8.33,27.26,8.33,26.94,0,48.78-21.83,48.78-48.77,0-13.46-5.46-25.65-14.28-34.48l-5.84-4.8,7.11-4.5c5.01-2.8,10.18-5.33,15.51-7.58l11.93-4.37h0ZM80.54,25.77c-24.11,0-43.66,19.54-43.66,43.66s19.54,43.65,43.66,43.65,43.66-19.54,43.66-43.65-19.55-43.66-43.66-43.66h0ZM80.52,33.76c-19.71,0-35.71,15.99-35.71,35.71s15.99,35.71,35.71,35.71,35.72-15.99,35.72-35.71-15.99-35.71-35.72-35.71Z"/>
        <path class="cls-4" d="M80.45,99.04c16.26,0,29.53-13.27,29.53-29.53s-13.27-29.53-29.53-29.53-29.53,13.27-29.53,29.53,13.27,29.53,29.53,29.53Z"/>
      </g>
    </g>
  </g>
</svg>