<svg width="180" height="28" viewBox="0 0 180 28" fill="none" xmlns="http://www.w3.org/2000/svg">
<g clip-path="url(#clip0_3_258)">
<path d="M29.0372 11.9748H9.38434C8.79241 11.9369 8.45454 11.2596 8.80052 10.7584C9.04107 10.4089 9.28434 10.054 9.50327 9.7343L11.6953 6.49134C11.9981 6.04161 12.6576 6.03619 12.9711 6.47779L15.5443 10.1244H21.2933L15.3821 1.76642C14.7226 0.847992 13.7576 0 12.2305 0C10.7034 0 9.8114 0.777552 9.12757 1.76642L0.137702 14.8087C-0.216379 15.3235 0.151216 16.0279 0.775588 16.0279H20.4257C21.0176 16.0658 21.3555 16.7431 21.0095 17.2443C20.769 17.5938 20.5257 17.9487 20.3068 18.2684L18.1147 21.5114C17.812 21.9611 17.1525 21.9665 16.839 21.5249L14.2658 17.8783H8.51671L14.4307 26.239C15.0902 27.1574 16.0551 28.0054 17.5823 28.0054C19.1094 28.0054 20.0014 27.2279 20.6852 26.239L29.6723 13.1994C30.0264 12.6847 29.6588 11.9803 29.0345 11.9803L29.0372 11.9748Z" fill="#EEA042"/>
<path d="M38.7921 19.5932H43.6276C44.9602 19.5932 45.1521 19.6041 45.5413 19.6555C46.8738 19.856 47.2549 20.4304 47.2549 22.2429C47.2549 23.8115 46.9684 24.4265 46.1224 24.7354C45.6467 24.8952 45.171 24.9358 43.6466 24.9358H40.9382V26.6643H38.7894V19.5905L38.7921 19.5932ZM43.6276 23.1667C44.6223 23.1559 44.6655 23.1559 44.8439 23.0502C45.044 22.9229 45.1088 22.7332 45.1088 22.2456C45.1088 21.7579 45.0142 21.5249 44.7385 21.4301C44.5899 21.3759 44.5682 21.3759 43.6276 21.3678H40.9409V23.1694H43.6276V23.1667Z" fill="white"/>
<path d="M57.3368 19.9752C57.8774 20.3898 58.0341 21.0996 58.0341 23.1234C58.0341 25.1472 57.8747 25.8705 57.3368 26.2823C56.7989 26.6942 56.1313 26.77 53.2122 26.77C50.293 26.77 49.5849 26.6969 49.0443 26.2823C48.4929 25.857 48.3469 25.158 48.3469 23.08C48.3469 21.002 48.5064 20.387 49.0443 19.9725C49.5822 19.558 50.239 19.4849 53.1905 19.4849C56.1421 19.4849 56.7989 19.558 57.3368 19.9725V19.9752ZM50.6633 21.7688C50.5363 22.0126 50.493 22.4163 50.493 23.3157C50.493 24.2152 50.5579 24.4834 50.8093 24.6839C51.0958 24.9061 51.4336 24.9386 53.2095 24.9386C54.9853 24.9386 55.2826 24.8952 55.5691 24.6839C55.8123 24.4942 55.8853 24.1854 55.8853 23.3266C55.8853 22.2781 55.8232 21.8744 55.6313 21.6414C55.388 21.3542 55.1555 21.3244 53.1878 21.3244C51.0715 21.3244 50.8714 21.3569 50.6606 21.7688H50.6633Z" fill="white"/>
<path d="M61.5614 19.5932V22.1589H62.7345L65.5266 19.5499H68.816L64.7319 23.0583L69.1539 26.6643H65.8969L62.7345 23.9605H61.5614V26.6643H59.4126V19.5905H61.5614V19.5932Z" fill="white"/>
<path d="M77.7789 19.5932V21.2567H72.0865V22.2862H77.4923V23.844H72.0865V24.9684H77.8194V26.6643H69.9702V19.5905H77.7761L77.7789 19.5932Z" fill="white"/>
<path d="M79.0276 19.5933H84.2226C85.8443 19.5933 86.8065 19.6854 87.1093 19.8696C87.6499 20.1974 87.8066 20.6661 87.8066 21.8961C87.8066 22.9473 87.7012 23.3483 87.3201 23.6354C87.1201 23.7953 86.9174 23.8684 86.4957 23.9335C87.585 24.0608 87.7769 24.3778 87.7336 26.0115V26.6698H85.6173V26.2986C85.6173 25.5021 85.574 25.2502 85.4064 25.0686C85.2578 24.898 85.101 24.879 84.2118 24.879H81.1764V26.6698H79.0276V19.596V19.5933ZM84.2009 23.1044C84.9199 23.09 85.329 23.0475 85.4281 22.9771C85.5983 22.8714 85.6605 22.6601 85.6605 22.2131C85.6605 21.7363 85.5767 21.5358 85.3524 21.4383C85.2037 21.3759 85.1713 21.3759 84.1982 21.3651H81.1737V23.1044H84.1982H84.2009Z" fill="white"/>
<path d="M56.9286 10.2843C56.8394 9.66117 56.6286 9.07869 56.3042 8.55309C55.5474 7.3231 54.2635 6.58889 52.8688 6.58889H43.1411C43.0681 6.58889 42.9924 6.58077 42.9167 6.56722C42.2626 6.4453 41.8004 5.84385 41.8193 5.13403C41.8275 4.79267 41.9491 4.46214 42.1599 4.20747C42.368 3.95551 42.6518 3.78483 42.9546 3.73065C43.0384 3.7171 43.1113 3.70897 43.1843 3.70897H56.9718V0.674622H42.6248C42.5762 0.674622 42.5302 0.674622 42.4816 0.677331C40.5111 0.747771 38.7894 2.29204 38.384 4.35106L38.3785 4.38086C38.3272 4.63824 38.3002 4.89833 38.2948 5.15571V5.40496C38.2948 5.57564 38.3137 5.75716 38.338 5.93868V5.97119C38.484 6.9438 38.938 7.84869 39.6246 8.51516C40.3706 9.23853 41.349 9.63408 42.3761 9.63408H52.1201C52.1931 9.63408 52.2661 9.64221 52.3418 9.65575C52.8337 9.74516 53.231 10.119 53.3824 10.6257C53.4202 10.753 53.4418 10.8857 53.4445 11.0185C53.4445 11.0348 53.4445 11.0537 53.4445 11.0727V11.0971C53.4445 11.1187 53.4445 11.135 53.4418 11.154C53.4013 11.8204 52.9256 12.3867 52.3066 12.4977C52.2255 12.5113 52.1526 12.5194 52.0796 12.5194H38.2921V15.589H52.6526C52.7012 15.589 52.7472 15.589 52.7958 15.5863C54.7879 15.5158 56.5123 13.9445 56.8962 11.8529C56.934 11.6525 56.9556 11.4466 56.9691 11.2407C56.9691 11.1865 56.9745 11.1296 56.9745 11.07V11.0646C56.9745 11.005 56.9745 10.9454 56.9745 10.8885C56.9745 10.8261 56.9691 10.7611 56.9664 10.6988C56.9583 10.5606 56.9448 10.4198 56.9259 10.2816L56.9286 10.2843Z" fill="white"/>
<path d="M73.8947 9.91313C73.8947 10.6013 73.6488 11.2488 73.2028 11.7365C72.7406 12.2431 72.1189 12.5221 71.4567 12.5221H64.9508C64.2859 12.5221 63.6669 12.2431 63.2047 11.7392C62.7588 11.2488 62.5128 10.6013 62.5128 9.91313V0.674622H58.9423V12.048C58.9423 12.0832 58.9423 12.1185 58.945 12.1537C58.9693 13.0504 59.299 13.8903 59.8775 14.5243C60.5045 15.2124 61.3478 15.5917 62.2587 15.5917H74.1488C75.057 15.5917 75.903 15.2124 76.5301 14.5243C77.1085 13.8903 77.4382 13.0504 77.4626 12.1591C77.4626 12.1185 77.4626 12.0832 77.4626 12.048V0.674622H73.892V9.91313H73.8947Z" fill="white"/>
<path d="M115.892 11.2054L116.39 10.9128C117.536 10.2355 118.39 9.13016 118.787 7.80534C118.858 7.56964 118.912 7.33123 118.949 7.10094V7.07656C118.993 6.83273 119.017 6.58348 119.025 6.33423C119.028 6.26649 119.028 6.19335 119.028 6.12561C119.028 6.04163 119.028 5.97661 119.025 5.917C119.014 5.65421 118.987 5.40496 118.949 5.17738L118.944 5.13674C118.906 4.90375 118.852 4.67617 118.779 4.44318C118.628 3.95551 118.414 3.48952 118.141 3.06688C117.382 1.88023 116.192 1.04308 114.879 0.774863C114.56 0.709842 114.233 0.674622 113.9 0.674622H100.186V15.5917H104.002V12.2946C104.002 11.9071 104.294 11.5929 104.654 11.5929H112.308C112.527 11.5929 112.73 11.7094 112.852 11.9044L115.13 15.589H118.614L115.895 11.2054H115.892ZM115.506 6.15812C115.506 6.15812 115.506 6.17438 115.506 6.18522V6.20147C115.506 6.30442 115.495 6.40467 115.479 6.50762L115.474 6.54284C115.455 6.65392 115.43 6.76229 115.398 6.86524C115.146 7.70239 114.487 8.32552 113.679 8.49349C113.568 8.51516 113.452 8.52871 113.33 8.53684C113.308 8.53684 113.279 8.53684 113.249 8.53684H104.651C104.292 8.53684 104 8.22257 104 7.83514V4.40796C104 4.02053 104.292 3.70626 104.651 3.70626H113.246C113.387 3.70626 113.53 3.71981 113.673 3.74961C114.255 3.86882 114.779 4.23727 115.114 4.76287C115.236 4.95251 115.33 5.15841 115.395 5.37515C115.425 5.47269 115.452 5.57835 115.471 5.69484L115.476 5.73548C115.492 5.8276 115.501 5.92513 115.503 6.01724C115.503 6.03892 115.503 6.05788 115.503 6.07956V6.15812H115.506Z" fill="white"/>
<path d="M124.055 0.677331C123.209 0.71526 122.409 1.09184 121.812 1.73935C121.198 2.40312 120.858 3.28091 120.85 4.21289L120.879 12.0182C120.914 13.8903 122.312 15.4562 124.061 15.5809L124.299 15.589H137.589V12.4977H125.063C124.707 12.4977 124.415 12.1835 124.412 11.8015L124.404 10.3629C124.404 10.1759 124.472 9.99712 124.593 9.86437C124.717 9.73161 124.88 9.65846 125.055 9.65846H135.537V6.58889H125.031C124.674 6.58889 124.382 6.27462 124.38 5.88991L124.372 4.4513C124.372 4.26437 124.439 4.08556 124.561 3.9528C124.685 3.82005 124.847 3.7469 125.023 3.7469H137.589V0.674622H124.055V0.677331Z" fill="white"/>
<path d="M149.754 10.3358C149.636 10.5552 149.427 10.6853 149.192 10.6853C148.957 10.6853 148.749 10.5552 148.63 10.3358L143.4 0.674622H139.667V15.5917H143.378L143.295 9.15454C143.289 8.83215 143.481 8.5558 143.77 8.46911C144.059 8.38241 144.354 8.50975 144.508 8.7888L147.416 14.0908C147.644 14.4917 147.933 14.8629 148.276 15.188C148.525 15.421 148.822 15.5484 149.192 15.5809C149.56 15.5484 149.86 15.4183 150.109 15.1853C150.452 14.8602 150.741 14.4917 150.968 14.0881L153.876 8.7888C154.028 8.50975 154.325 8.38241 154.614 8.46911C154.904 8.5558 155.095 8.83215 155.09 9.15454L155.006 15.589H158.623H158.72V0.674622H154.987L149.757 10.3358H149.754Z" fill="white"/>
<path d="M98.1155 7.80534C98.1884 7.56422 98.2452 7.3231 98.2857 7.09823L98.2911 7.07114C98.3317 6.83002 98.3587 6.58077 98.3668 6.33152C98.3695 6.25837 98.3722 6.18793 98.3722 6.1229V6.10936C98.3722 6.04434 98.3722 5.97661 98.3695 5.90887C98.3614 5.64608 98.3371 5.39683 98.2992 5.16925L98.2938 5.13674C98.256 4.90104 98.2046 4.67075 98.1344 4.43505C97.9884 3.94738 97.7776 3.4841 97.5073 3.05604C96.7586 1.87211 95.5801 1.04037 94.2746 0.772154C93.9584 0.707132 93.6313 0.674622 93.3043 0.674622H79.4978L79.4924 8.13316V15.5917H83.0008L83.0305 12.2891C83.0359 11.9071 83.3333 11.5956 83.6982 11.5956H93.2286C93.2881 11.5956 93.3448 11.5956 93.3962 11.5902C93.6638 11.582 93.9341 11.5495 94.2071 11.4926C96.0342 11.116 97.5343 9.70452 98.1182 7.80534H98.1155ZM93.0259 8.49349C92.9178 8.51516 92.7988 8.53142 92.6718 8.53684H92.6556C92.634 8.53684 92.6123 8.53684 92.5907 8.53684H83.6819C83.3143 8.53684 83.0143 8.22257 83.0143 7.83514V4.40796C83.0143 4.02053 83.3116 3.70626 83.6819 3.70626H92.6123C92.7529 3.70626 92.8988 3.71981 93.0448 3.74961C93.6313 3.86882 94.1584 4.23998 94.4936 4.76828C94.6125 4.95793 94.7071 5.16383 94.772 5.38057C94.8017 5.47811 94.8233 5.58377 94.8422 5.70026L94.8476 5.73548C94.8612 5.8276 94.872 5.92513 94.8747 6.01995C94.8747 6.04163 94.8747 6.06601 94.8747 6.08768V6.15812C94.8747 6.17438 94.8747 6.19064 94.872 6.20418C94.8693 6.30713 94.8584 6.40467 94.8449 6.5022L94.8368 6.54013C94.8206 6.64037 94.7936 6.74603 94.7611 6.8544C94.5017 7.69426 93.8368 8.31739 93.0232 8.48536L93.0259 8.49349Z" fill="white"/>
<path d="M172.056 2.16197C171.816 1.76371 171.502 1.39797 171.124 1.08098C170.826 0.829025 170.451 0.698981 169.978 0.677307C169.505 0.698981 169.129 0.829025 168.832 1.08098C168.453 1.39797 168.14 1.76371 167.899 2.16197L159.953 15.5781H163.785L165.25 13.0992H174.705L176.167 15.5781H180.003L172.056 2.16197ZM167.061 10.0323L169.088 6.59971C169.088 6.59971 169.094 6.59158 169.094 6.58887C169.475 5.95762 170.478 5.95762 170.856 6.58887C170.856 6.59158 170.859 6.59429 170.861 6.59971L172.889 10.0323H167.061Z" fill="white"/>
</g>
<defs>
<clipPath id="clip0_3_258">
<rect width="180" height="28" fill="white"/>
</clipPath>
</defs>
</svg>
