<svg xmlns="http://www.w3.org/2000/svg" xmlns:xlink="http://www.w3.org/1999/xlink" width="127" height="50" viewBox="0 0 127 50"><defs><clipPath id="clip-path"><rect id="Rectangle_6412" data-name="Rectangle 6412" width="127" height="50" transform="translate(0.498 0)" fill="#f5f7ff"></rect></clipPath></defs><g id="Group_13456" data-name="Group 13456" transform="translate(-0.498 0)" clip-path="url(#clip-path)"><path id="Path_16598" data-name="Path 16598" d="M24.965,13.921V11.114a5.325,5.325,0,0,0,.943.089c1.205,0,1.666-.615,1.666-2.194V4.93H24.944V1.969h9.6c2.764,0,4.3,1.645,4.3,4.606v7.435H35.229V6.641A1.5,1.5,0,0,0,33.606,4.93H31.193V9.558c0,3.07-1.447,4.606-4.364,4.606a7.464,7.464,0,0,1-1.864-.242" transform="translate(4.619 0.365)" fill="#f5f7ff"></path><path id="Path_16599" data-name="Path 16599" d="M37.785,14.009V11.049h1.491c.9,0,1.359-.482,1.359-1.426V4.93H38V1.969h6.251v7.9c0,2.675-1.448,4.145-4.035,4.145Z" transform="translate(6.997 0.365)" fill="#f5f7ff"></path><path id="Path_16600" data-name="Path 16600" d="M45.762,9.864V4.93H44.447V1.969h4.934V9.864Z" transform="translate(8.23 0.365)" fill="#f5f7ff"></path><path id="Path_16601" data-name="Path 16601" d="M50,14.009V11.049h6.031V6.641c0-1.119-.549-1.711-1.624-1.711h-4.3V1.969h5.241c2.764,0,4.3,1.645,4.3,4.606v4.474h1.864v2.961Z" transform="translate(9.258 0.365)" fill="#f5f7ff"></path><path id="Path_16602" data-name="Path 16602" d="M.022,27.9V25.095a5.313,5.313,0,0,0,.942.089c1.205,0,1.666-.615,1.666-2.194V18.911H0V15.95H9.6c2.764,0,4.3,1.645,4.3,4.606V27.99H10.285V20.622a1.5,1.5,0,0,0-1.622-1.711H6.249v4.628c0,3.07-1.447,4.606-4.364,4.606A7.448,7.448,0,0,1,.022,27.9" transform="translate(0 2.953)" fill="#f5f7ff"></path><path id="Path_16603" data-name="Path 16603" d="M14.25,27.99V18.91H12.935V15.95h4.978V27.99Z" transform="translate(2.395 2.953)" fill="#f5f7ff"></path><path id="Path_16604" data-name="Path 16604" d="M18.522,27.99V25.073h2.5c2.588,0,3.641-.9,3.641-3.115,0-2.084-.943-3.048-3-3.048H18.631V15.95h3.9c3.794,0,5.79,1.974,5.79,5.681,0,4.1-2.39,6.36-6.71,6.36Z" transform="translate(3.43 2.953)" fill="#f5f7ff"></path><path id="Path_16605" data-name="Path 16605" d="M33.27,27.99V20.622c0-1.119-.548-1.711-1.622-1.711h-4.3V15.95h5.263c2.764,0,4.3,1.645,4.3,4.606l-.023,7.435Z" transform="translate(5.064 2.953)" fill="#f5f7ff"></path><path id="Path_16606" data-name="Path 16606" d="M36.7,27.99V25.03h3.334l-3.62-9.08h3.926l3.311,8.794c.614-.307.921-.986,1.1-2.412a34.846,34.846,0,0,0,.175-3.75V15.95h3.729c0,.417.021.812.021,1.623a35.6,35.6,0,0,1-.2,4.321c-.482,4.276-2.654,6.1-7.238,6.1Z" transform="translate(6.743 2.953)" fill="#f5f7ff"></path><path id="Path_16607" data-name="Path 16607" d="M54.21,28.079V25.119a5.886,5.886,0,0,0,1.031.088c1.886,0,2.806-1.052,2.806-3.2,0-2.04-.833-3.224-2.259-3.224a2.26,2.26,0,0,0-2.017,1.229c-.549.921-.789,2.04-1.25,5.79l-.284,2.3h-3.6c.175-2.04.526-4.453,1.119-8L47.5,15.974h4.122l.943,1.579a4.479,4.479,0,0,1,3.772-1.733c3.334,0,5.307,2.238,5.307,6.009,0,4.058-2.215,6.4-6.031,6.4a5.147,5.147,0,0,1-1.4-.154" transform="translate(8.796 2.929)" fill="#f5f7ff"></path><path id="Path_16608" data-name="Path 16608" d="M23.31,41.971V34.6a1.5,1.5,0,0,0-1.645-1.71h-6.14V29.931H22.63c2.764,0,4.3,1.645,4.3,4.606v7.435Zm-7.785-6.119h3.618v6.119H15.525Z" transform="translate(2.875 5.542)" fill="#f5f7ff"></path><path id="Path_16609" data-name="Path 16609" d="M26.257,41.971V39.011h1.491c.9,0,1.359-.482,1.359-1.426V32.892H26.476V29.931h6.251v7.9c0,2.675-1.448,4.145-4.036,4.145Z" transform="translate(4.862 5.542)" fill="#f5f7ff"></path><path id="Path_16610" data-name="Path 16610" d="M32.919,41.971V39.054h2.5c2.588,0,3.641-.9,3.641-3.115,0-2.084-.943-3.048-3-3.048H33.028V29.931h3.9c3.794,0,5.79,1.974,5.79,5.681,0,4.1-2.39,6.36-6.71,6.36Z" transform="translate(6.096 5.542)" fill="#f5f7ff"></path><path id="Path_16611" data-name="Path 16611" d="M43.246,41.971v-9.08H41.93V29.931h4.978v12.04Z" transform="translate(7.764 5.542)" fill="#f5f7ff"></path><path id="Path_16612" data-name="Path 16612" d="M47.447,41.882V39.075a5.325,5.325,0,0,0,.943.089c1.205,0,1.666-.615,1.666-2.194V32.891H47.426V29.93h9.6c2.764,0,4.3,1.645,4.3,4.606V41.97H57.711V34.6a1.5,1.5,0,0,0-1.622-1.711H53.675v4.628c0,3.07-1.447,4.606-4.364,4.606a7.465,7.465,0,0,1-1.864-.242" transform="translate(8.782 5.542)" fill="#f5f7ff"></path><path id="Path_16613" data-name="Path 16613" d="M65.325.057c.306-.013.582-.037.858-.037Q90.3.018,114.422,0c.814,0,.969.247.968,1q-.03,24,0,48.005c0,.767-.175,1-.975.994q-24.08-.037-48.162-.019h-.929ZM91.441,29.41a18.617,18.617,0,0,0,3.182-.459c2.05-.659,2.8-1.675,2.645-3.433-.02-.229,0-.462,0-.693,0-1.993-.7-3-2.648-3.5a13,13,0,0,0-6.183-.053c-2.086.476-2.837,1.541-2.835,3.673,0,.308.013.617,0,.924a2.721,2.721,0,0,0,1.316,2.457c1.369.966,2.932,1,4.526,1.083m.1,2.611-.025.11c-.718.046-1.436.075-2.152.141-2.55.236-3.571,1.406-3.456,3.937,0,.128.015.257.009.385a2.321,2.321,0,0,0,1.481,2.3c1.822.914,3.762.738,5.672.567,2.971-.265,3.813-1.28,3.93-4.188a2.466,2.466,0,0,0-2-2.639,23.9,23.9,0,0,0-3.464-.613m-.06-13.829c.007-.055.014-.11.023-.165a13.686,13.686,0,0,0,1.845-.013c2.219-.3,3.986-.873,3.629-4a3.029,3.029,0,0,0-2.167-2.834,12.218,12.218,0,0,0-5.56-.352c-2.488.3-3.07.953-3.394,3.4-.243,1.822.322,2.884,2.078,3.4a26.188,26.188,0,0,0,3.546.563M76.7,29.158a26.081,26.081,0,0,0,2.884-.329A2.924,2.924,0,0,0,82.124,25.6c0-.282-.006-.564-.013-.847-.044-2.037-.937-3.173-2.984-3.387a18.314,18.314,0,0,0-4.367.072,3,3,0,0,0-2.874,3.574,4.826,4.826,0,0,1,.011.692,2.58,2.58,0,0,0,1.786,2.761,21.294,21.294,0,0,0,3.014.695m28.745-.207c.283,0,.567.008.849,0,3-.1,3.988-1.179,4.066-4.158a3,3,0,0,0-2.711-3.262,23.005,23.005,0,0,0-3.918-.143,4.055,4.055,0,0,0-1.726.595,2.288,2.288,0,0,0-1.272,1.9c-.039.717,0,1.438-.03,2.156a2.493,2.493,0,0,0,1.319,2.278,5.277,5.277,0,0,0,3.422.634M76.271,18.484c.014-.05.027-.1.041-.149.666-.046,1.335-.071,2-.142,2.191-.232,4.435-1.365,4.017-3.941a.622.622,0,0,1,.017-.153c.145-1.593-.407-2.567-1.989-2.724a18.465,18.465,0,0,0-4.807.2c-1.993.335-2.806,1.408-3.04,3.42-.03.255-.055.51-.081.766a1.77,1.77,0,0,0,1.19,2.085,21.571,21.571,0,0,0,2.654.634m.181,13.364a21.1,21.1,0,0,0-2.633.459,1.85,1.85,0,0,0-1.381,2.19c.046.485.134.966.175,1.451A2.518,2.518,0,0,0,74,38.036a9.516,9.516,0,0,0,6.361.849c1.686-.3,2.136-1.075,1.993-2.806a3.048,3.048,0,0,1-.043-.536,2.991,2.991,0,0,0-2.5-3.145c-1.06-.273-2.168-.361-3.362-.549m29.794-13.225c.012-.044.023-.088.034-.132a11.364,11.364,0,0,0,1.381-.084,2.168,2.168,0,0,0,2.037-2.821c-.04-.28-.092-.557-.122-.837a2.813,2.813,0,0,0-1.485-2.292,8.984,8.984,0,0,0-5.973-.895c-1.4.232-1.907,1.057-1.816,2.486.021.332.1.664.094.994a2.713,2.713,0,0,0,2.046,2.761,33.076,33.076,0,0,0,3.8.818m.018,13.085a28.563,28.563,0,0,0-3.693.712,3.981,3.981,0,0,0-2.111,5.119,1.308,1.308,0,0,0,.539.62,4.41,4.41,0,0,0,1.779.628,22.845,22.845,0,0,0,4.264-.454,3.008,3.008,0,0,0,2.466-2.279,15.945,15.945,0,0,0,.261-1.979A1.671,1.671,0,0,0,108.6,32.2a17.3,17.3,0,0,0-2.34-.5m-15.6,15.75c1.376-.141,2.36-.165,3.31-.357,1.707-.344,2.232-1.013,2.341-2.724.072-1.147-.188-1.646-1.288-1.954a13.244,13.244,0,0,0-7.371.078c-.773.225-1.419.678-1.384,1.62.04,1.1-.066,2.336,1.314,2.729,1.121.319,2.294.457,3.078.607M91.3,8.408c1.22-.149,2.3-.21,3.346-.429,1.115-.233,1.692-.8,1.649-1.55-.109-1.874-.094-2.418-1.463-2.893A11.6,11.6,0,0,0,87.711,3.4c-1.223.35-1.479.948-1.464,2.692a1.652,1.652,0,0,0,1.468,1.716c1.21.3,2.464.421,3.583.6M80.641,46.892a13.312,13.312,0,0,0,1.716-.448,1.448,1.448,0,0,0,.743-.708,3.386,3.386,0,0,0-.879-3.02,10.036,10.036,0,0,0-7.463-1.159,1.44,1.44,0,0,0-.863.936,3.477,3.477,0,0,0,1.538,3.2c1.57.894,3.337.916,5.208,1.195M80.477,3.5c-.007-.037-.013-.073-.019-.11-1.31.237-2.644.386-3.922.737a3.166,3.166,0,0,0-2.51,2.605c-.264,1.442-.047,2,1.426,2.161a13.193,13.193,0,0,0,5.6-.68,3.794,3.794,0,0,0,.83-.4,3.175,3.175,0,0,0,1.2-3.26c-.38-1-1.382-.907-2.223-1.049a2.3,2.3,0,0,0-.384,0m21.247,43.022c0,.026.011.052.015.078,1.157-.217,2.325-.38,3.465-.663a3.521,3.521,0,0,0,2.925-2.97c.215-1.22-.032-1.794-1.279-1.9a12.069,12.069,0,0,0-5.5.8,2.984,2.984,0,0,0-1.914,2.466c-.277,1.524.181,1.908,1.6,2.139a6.7,6.7,0,0,0,.691.045m-.237-42.768a6.919,6.919,0,0,0-1.38.3,1.542,1.542,0,0,0-.792.751,3.7,3.7,0,0,0,1.108,3.106,10.192,10.192,0,0,0,6.735,1.247c.38-.05,1-.668.975-.975a3.612,3.612,0,0,0-1.381-3.016c-1.569-1.038-3.361-1.167-5.267-1.408M65.7,39.426c0,1.21,0,2.328.008,3.445a.5.5,0,0,0,.162.329,6.6,6.6,0,0,0,5.032,1.621c.268-.025.735-.513.7-.725a4.586,4.586,0,0,0-1.153-2.929c-1.321-1.23-2.988-1.436-4.753-1.742m-.006-28.5c.892-.211,1.662-.377,2.421-.577a4.19,4.19,0,0,0,3.436-3.393c.232-1.173-.057-1.695-1.257-1.58a7.7,7.7,0,0,0-4.177,1.6,1.084,1.084,0,0,0-.4.683C65.672,8.679,65.7,9.7,65.7,10.928m0,8.078c1.592-.019,2.917-.462,3.592-1.831a9.14,9.14,0,0,0,.588-2.671,1.371,1.371,0,0,0-1.255-1.769,11.935,11.935,0,0,0-2.644.222c-.108.014-.268.25-.269.385-.018,1.864-.012,3.729-.012,5.665m.045,18.24c.653.139,1.272.321,1.9.395a1.771,1.771,0,0,0,2.163-2.225c-.052-.354-.085-.712-.135-1.067a3.51,3.51,0,0,0-3.931-3.076Zm.013-15.513v6.76A2.581,2.581,0,0,0,69.1,25.935c.013-.462.012-.924,0-1.387-.045-2.1-1.156-3.058-3.346-2.815m49.226-10.386c0-1.419,0-2.591-.007-3.764a.446.446,0,0,0-.153-.329A6.58,6.58,0,0,0,110.8,5.985a.666.666,0,0,0-.658.858c.321,1.358.666,2.728,2.094,3.392.825.384,1.688.687,2.745,1.113m0,27.927c-2.389.058-3.909,1.317-4.622,3.744-.293,1,.091,1.583,1.108,1.383a19.735,19.735,0,0,0,3.174-1.082.7.7,0,0,0,.326-.535c.03-1.151.014-2.3.014-3.51M68.283,4.452c.855-.274,2.031-.619,3.186-1.029a3.851,3.851,0,0,0,2.364-2.364c.2-.508.04-.631-.443-.658a7.924,7.924,0,0,0-4.032,1.054,4.381,4.381,0,0,0-1.978,2.07c-.313.632-.145.907.9.927M73.92,49.6A7.443,7.443,0,0,0,72.8,47.824a9.607,9.607,0,0,0-5.023-1.919c-.721-.1-.9.282-.575.962a4.8,4.8,0,0,0,2.225,2.239c1.369.716,2.8.421,4.491.5m41.066-30.563c0-1.851,0-3.644-.007-5.436,0-.132-.1-.376-.165-.378a6.885,6.885,0,0,0-2.086.038,1.23,1.23,0,0,0-.69,1.48c.1.685.178,1.375.324,2.05a2.976,2.976,0,0,0,2.624,2.246m0,12.2a3.048,3.048,0,0,0-2.643,2.549c-.087.556-.14,1.118-.232,1.673-.107.639,0,1.308.606,1.51a7.005,7.005,0,0,0,2.07.127c.065,0,.19-.235.191-.36.012-1.816.008-3.631.008-5.5m-6.1,18.331c1.945-.519,4.163-.974,5.222-3.318.1-.215.211-.594.115-.684a.911.911,0,0,0-.747-.2,31,31,0,0,0-3.124,1.036,3.906,3.906,0,0,0-2.235,2.3c-.249.647-.145.846.769.865m4.391-44.427c.267-.1.6-.129.691-.292a.9.9,0,0,0-.105-.695c-1.125-2.208-3.215-2.874-5.423-3.283-.678-.126-.8.169-.525.825,1,2.383,3.335,2.638,5.363,3.444M98.446.461c-.039.069-.077.137-.116.207a5.8,5.8,0,0,0,1.3.911,17.545,17.545,0,0,0,2.822.715,19.883,19.883,0,0,0,2.821.27.986.986,0,0,0,.775-.462c.249-.609-.641-1.695-1.329-1.7q-2.887-.009-5.773,0a4.5,4.5,0,0,0-.5.055M114.96,21.9a2.107,2.107,0,0,0-2.057,1.9,13.586,13.586,0,0,0,.021,2.759,1.906,1.906,0,0,0,2.036,1.755ZM83.664.655,83.577.44c-.247-.012-.494-.034-.742-.034Q79.912.4,76.987.4c-.769,0-1.2.34-1.2,1.032s.587.723,1.054.724a15.13,15.13,0,0,0,5.95-.955,6.027,6.027,0,0,0,.875-.55M98.7,49.269c.032.108.065.215.1.322,2.227,0,4.455.007,6.681-.014a.686.686,0,0,0,.456-.324c.606-.983.328-1.579-.828-1.492a33.35,33.35,0,0,0-4.4.695,11.818,11.818,0,0,0-2.008.813m-15.485.324.071-.233a4.888,4.888,0,0,0-1.092-.46q-2.5-.414-5.007-.727a2.1,2.1,0,0,0-1.112.216.768.768,0,0,0-.29.67c.041.205.337.508.525.512,2.3.034,4.6.023,6.9.023M86.992.461c1.2,1.214,7.624,1.2,8.383,0ZM95.146,49.57c-1.3-.8-6.573-.761-7.478,0Z" transform="translate(12.096 0)" fill="#f5f7ff"></path></g></svg>