<svg xmlns="http://www.w3.org/2000/svg" id="Layer_1" data-name="Layer 1" viewBox="0 0 578.5 264">
    <defs>
        <style>
            .cls-1 {
            fill: #fff;
            }

            .cls-2 {
            fill: #ccc;
            }

            .cls-3, .cls-4 {
            fill: #fff;
            }

            .cls-5 {
            fill: #38b000;
            }

            .cls-4 {
            font-family: Montserrat-Bold, Montserrat;
            font-size: 15.37px;
            font-weight: 700;
            letter-spacing: .05em;
            }
        </style>
    </defs>
    <path class="cls-3" d="m69.8,143.23c-4.19,4.17-8.73,7.87-13.77,10.94.38.8.78,1.56,1.21,2.31,3.56-2.17,6.9-4.64,10.06-7.37.52-.45,1.14-.68,1.73-.31.45.28.73.79,1.14,1.26-.34.54-.51,1.01-.83,1.3-3.25,2.86-6.74,5.43-10.43,7.67.49.69,1.02,1.36,1.56,1.99,4.69-3.12,9.02-6.69,13.3-10.35-1.81-2.06-3.17-4.58-3.96-7.44Zm13.89,27.09c-1.88-1.33-3.71-2.73-5.48-4.05-1.72,1.2-3.41,2.39-5.1,3.56,1.06.41,2.16.77,3.28,1.06.53-.26,1.11-.42,1.64-.63.68.21,1.3.29,1.81.59.55.33,1.07.68,1.58,1.05h0c1.67.21,3.4.34,5.16.35-.97-.63-1.94-1.26-2.89-1.93Zm-14.25-37.57c.21-1.12.52-2.18.89-3.19-2.35.9-4.64,2.25-6.86,4.08-2.42,1.99-4.59,4.29-6.96,6.35-1.15,1.01-2.44,1.89-3.7,2.77.11.96.25,1.89.43,2.79,1.14-.79,2.29-1.55,3.44-2.31.66-.44,1.49-.22,1.96.39.47.63.47,1.52-.19,1.98-1.47,1.05-2.98,2.06-4.48,3.07.26.89.54,1.77.86,2.63.25-.15.5-.3.75-.46,4.55-2.9,8.66-6.34,12.45-10.16.36-.37.72-.7,1.09-1.01-.08-.78-.13-1.56-.13-2.38,0-.29,0-.56.02-.84-.94.61-1.81,1.33-2.62,2.17-.58.6-1.16,1.21-1.81,1.74-.6.52-1.47.44-1.99-.1-.58-.57-.63-1.42-.07-2.06,2.02-2.26,4.26-4.17,6.91-5.47Z"/>
    <path class="cls-3" d="m138.04,85.02c0,12.88,19.53,12.88,19.53,0s-19.53-12.88-19.53,0Zm15.71,34.29c.77-.21,1.55-.42,2.32-.61v-2.65c-3.82.79-7.45,2.27-10.87,4.52-1.91,1.26-3.58,2.88-5.32,4.37-.12.1-.23.2-.36.28v3.43c.87-.83,1.73-1.65,2.65-2.43,1.58-1.37,3.24-2.65,4.93-3.9.86-.64,1.78-.45,2.24.3.47.77.17,1.52-.7,2.18-1.69,1.31-3.36,2.65-4.99,4.06-1.4,1.21-2.77,2.45-4.14,3.68v3.37c2.19-1.71,4.25-3.58,6.22-5.57,3.07-3.07,6.53-5.06,10.32-6.1v-2.57c-.34.09-.68.18-1.02.29-.17.05-.33.11-.51.15-.86.19-1.64-.26-1.84-1.05-.2-.76.21-1.55,1.05-1.77Zm-9.93,39.95c4.35-2.68,8.36-5.81,12.25-9.06v-10.57c-.13.12-.27.24-.39.37-4.57,4.64-9.56,8.71-15.2,12-.15.09-.3.19-.46.27-.16.08-.33.13-.49.17v18.28h16.55v-2.85c-.66.46-1.33.91-2,1.37-.42.28-1.06.45-1.54.35-1.1-.23-1.39-1.62-.59-2.4.15-.13.33-.23.49-.36,1.22-.87,2.43-1.73,3.64-2.61v-10.22c-3.34,2.74-6.78,5.35-10.48,7.63-.24.14-.48.29-.74.38-.67.27-1.4,0-1.75-.63-.34-.59-.22-1.34.29-1.8.13-.13.29-.21.43-.31Zm3.56,4.25c1.97-1.29,3.94-2.56,5.92-3.83.51-.33,1.08-.42,1.56-.04.36.29.59.74.94,1.21-.34.49-.52.99-.88,1.23-1.98,1.34-4,2.64-6.02,3.91-.76.48-1.63.21-2.04-.51-.39-.7-.2-1.5.53-1.98Zm-5.07-6.27c-.84.47-1.69.27-2.11-.46-.43-.73-.19-1.6.64-2.06,4.16-2.38,8.05-5.14,11.66-8.28.5-.44,1.1-.66,1.67-.3.42.26.7.76,1.09,1.22-.33.52-.49.97-.8,1.25-3.75,3.3-7.8,6.18-12.15,8.63Zm13.76-27.23v-2.68c-2.5.86-4.93,2.23-7.27,4.17-2.33,1.93-4.43,4.15-6.72,6.14-.8.71-1.67,1.33-2.56,1.95v3c.9-.62,1.81-1.22,2.72-1.82.64-.42,1.45-.21,1.9.39.46.61.45,1.47-.18,1.91-1.46,1.04-2.94,2.04-4.43,3.03v3.03c.55-.33,1.12-.66,1.66-1.01,4.39-2.8,8.36-6.12,12.02-9.82.92-.93,1.87-1.68,2.86-2.28v-2.83c-1.64.73-3.14,1.77-4.44,3.13-.55.59-1.13,1.17-1.73,1.69-.59.5-1.42.42-1.94-.1-.55-.55-.61-1.37-.06-1.98,2.32-2.6,4.95-4.72,8.18-5.92Zm-12.95-17.97c1.51-.77,3.03-1.53,4.59-2.16,2.64-1.05,5.38-1.82,8.36-2.3v-2.73c-.63-.14-1.04-.6-1.11-1.24h-15.44v17.74c1.2-1.07,2.42-2.12,3.75-3.01,3.89-2.64,8.08-4.33,12.8-5.19v-2.63c-3.75.7-7.45,1.98-11.11,3.84-.16.08-.31.16-.47.23-.79.35-1.59.1-1.97-.61-.38-.71-.17-1.56.6-1.95Z"/>
    <path class="cls-3" d="m249.75,103.6c-.33.31-.83.46-1.45.38-.83-.11-1.65-.19-2.48-.24v2.55c4.28.37,8.04,1.26,11.61,2.69,1.56.63,3.08,1.39,4.59,2.16.13.06.24.14.34.23v-7.77h-12.62Zm10.91,10.09c-.16-.07-.31-.15-.47-.23-4.72-2.4-9.51-3.84-14.36-4.3v2.63c6.08.61,11.3,2.41,16.05,5.65.17.12.33.22.49.35v-4.35c-.42.43-1.07.55-1.71.26Zm-9.68,31.55c.57-.36,1.17-.13,1.67.3,3.04,2.65,6.27,5.01,9.72,7.11v-2.97c-4.71-3.02-8.97-6.6-12.9-10.59-1-1.02-2.26-1.77-3.65-2.23v2.71c.15.07.3.15.45.24,1.02.61,1.01,2.08-.04,2.51-.12.05-.26.08-.4.08v4.14c4.94,4.22,9.94,8.38,15.51,11.82.14.1.3.19.43.31.51.46.63,1.21.29,1.8-.35.63-1.08.9-1.75.63-.26-.1-.5-.24-.74-.38-4.9-3.03-9.36-6.63-13.73-10.35v3.72s.03.02.04.04c.71.65.81,1.51.26,2.15-.1.11-.2.21-.3.28v4.41c2.29,1.66,4.59,3.31,6.89,4.95.16.13.34.22.49.36.8.79.51,2.17-.59,2.4-.47.1-1.12-.07-1.54-.35-1.76-1.19-3.5-2.4-5.26-3.62v3.15c.22.16.46.33.68.49.73.54.91,1.39.46,2.06-.07.12-.16.21-.25.3h15.65v-14.64c-4.17-2.4-8.06-5.18-11.67-8.36-.31-.28-.47-.73-.8-1.25.39-.46.67-.96,1.09-1.22Zm7.32,19.35c-.41.72-1.28.99-2.04.51-2.03-1.27-4.04-2.57-6.02-3.91-.36-.24-.54-.74-.88-1.23.35-.46.58-.92.94-1.21.47-.38,1.05-.29,1.56.04,1.98,1.27,3.95,2.54,5.92,3.83.72.47.92,1.28.53,1.98Zm4.07-24.93v-3.55c-2.03-1.82-3.93-3.78-6.02-5.52-3.34-2.77-6.86-4.4-10.52-5v2.65c.45.07.89.16,1.34.27,4.13.99,7.33,3.41,10.09,6.51.55.62.49,1.43-.06,1.98-.52.52-1.35.6-1.94.1-.61-.52-1.18-1.1-1.73-1.69-2.04-2.13-4.52-3.45-7.37-4.12-.11-.03-.22-.05-.33-.07v2.54c2.19.56,4.24,1.73,6.11,3.64,3.22,3.24,6.67,6.2,10.43,8.78v-3.18c-.39-.27-.79-.55-1.18-.82-.63-.45-.63-1.3-.18-1.91.33-.44.85-.67,1.36-.6Zm-4.33-18.23c1.48,1.09,2.93,2.21,4.33,3.39v-3.29c-.78-.66-1.57-1.3-2.42-1.85-4.38-2.88-9.11-4.51-14.12-5.01v2.57c.38.04.77.09,1.16.14,1.49.22,2.96.64,4.42,1.04.83.22,1.24,1.01,1.05,1.77-.2.79-.98,1.23-1.84,1.05-.18-.04-.34-.1-.51-.15-1.41-.43-2.83-.72-4.27-.9v2.53c5.09.66,9.64,2.83,13.58,6.75.97.97,1.96,1.92,2.97,2.82v-3.53c-.29-.27-.59-.52-.89-.78-1.63-1.4-3.3-2.74-4.99-4.06-.87-.66-1.17-1.41-.7-2.18.46-.75,1.39-.95,2.24-.3Z"/>
    <path class="cls-3" d="m122.83,134.81c.7-.19,1.4-.38,2.11-.56v-2.89c-3.99.87-7.79,2.46-11.38,4.82-2.08,1.37-3.88,3.12-5.77,4.74-.28.24-.55.44-.83.55-.4,2.11-1.09,4.04-2.04,5.77.16-.13.31-.26.46-.39,1.64-1.5,3.2-3.09,4.88-4.54,1.73-1.47,3.53-2.86,5.35-4.22.94-.7,1.93-.49,2.44.33.51.83.18,1.64-.75,2.36-1.84,1.43-3.66,2.89-5.43,4.4-2.01,1.73-3.96,3.56-5.95,5.31-.36.31-.83.48-1.1.63-.9-.12-1.4-.43-1.66-1.09-.02-.04-.03-.07-.03-.11-1.75,2.18-3.96,3.91-6.46,5.09.94.63,1.9,1.22,2.87,1.81.15.09.32.18.46.29.79.54,1,1.38.55,2.11-.45.72-1.33.96-2.13.46-1.76-1.11-3.52-2.21-5.23-3.39-1.67.45-3.43.67-5.24.67-4.59,0-8.76-1.51-12.01-4.17-4.32,3.67-8.67,7.31-13.37,10.48.67.63,1.36,1.23,2.08,1.8,1.15-.74,2.31-1.48,3.46-2.23.53-.34,1.12-.43,1.61-.04.38.3.61.77.97,1.25-.36.52-.54,1.03-.9,1.28-.81.55-1.64,1.1-2.47,1.64.8.51,1.63.98,2.48,1.41,2.2-1.58,4.41-3.16,6.6-4.76,1.32-.97,2.11-.97,3.44,0,2.99,2.2,6.02,4.35,9.04,6.52.15.11.31.19.46.3.56.45.77,1.09.56,1.69,7.11-.62,14.01-3.57,18.51-10.57l.55,4.65c.08-.04.15-.09.23-.14,4.76-3.03,9.07-6.64,13.05-10.65.86-.88,1.76-1.61,2.69-2.21v-3.15c-1.63.78-3.1,1.84-4.42,3.2-.6.64-1.22,1.27-1.88,1.83-.64.55-1.54.46-2.1-.11-.61-.6-.66-1.48-.07-2.15,2.41-2.71,5.15-4.94,8.46-6.27v-2.91c-2.57.94-5.06,2.39-7.47,4.39-2.53,2.09-4.81,4.5-7.29,6.66-1.38,1.2-2.93,2.21-4.42,3.28-.96.67-1.92.55-2.46-.24-.55-.79-.31-1.73.65-2.37,3.72-2.49,7.05-5.42,10.21-8.57,3.23-3.21,6.84-5.34,10.79-6.49v-2.81c-.23.06-.46.13-.7.21-.19.06-.36.12-.55.17-.93.2-1.78-.29-1.99-1.14-.21-.82.23-1.68,1.14-1.92Zm-27.93,33.72c-.21.67-.71,1.05-1.4,1.04-.37,0-.76-.18-1.08-.38-4.8-2.82-9.29-6.08-13.47-9.75-.25-.22-.51-.45-.82-.72-.64.56-1.22,1.09-1.83,1.59-.8.64-1.64.6-2.23-.08-.57-.67-.47-1.56.27-2.23.56-.51,1.14-1,1.72-1.5,1.52-1.35,2.68-1.35,4.2.02,3.18,2.86,6.56,5.47,10.13,7.82,1.27.83,2.58,1.6,3.86,2.42.63.41.92,1,.67,1.76Zm3.74-3.94c-.46.78-1.36.99-2.24.43-2.45-1.56-4.87-3.16-7.29-4.75-.63-.43-.88-1.05-.64-1.78.21-.65.71-1.02,1.63-1.04.18.08.55.21.87.41,2.32,1.5,4.64,3.02,6.96,4.53.88.57,1.17,1.41.72,2.19Zm26.28-7.34c-4.69,4.77-9.81,8.99-15.54,12.45l.13,1.06h15.44v-13.53s0,0-.02.02Zm-1-76.99c.33-.2.67-.37,1.02-.5v-3.66h-16.53v7.34c1.52-1.05,3.07-2.09,4.62-3.11.7-.46,1.56-.23,2.05.42.49.66.49,1.59-.2,2.07-1.98,1.42-4.02,2.76-6.05,4.12-.13.08-.28.12-.42.13v4.34c3.66-2.24,7.12-4.79,10.38-7.62.55-.47,1.2-.71,1.81-.33.46.29.77.83,1.19,1.32-.36.56-.53,1.05-.88,1.36-3.86,3.41-8.04,6.4-12.5,8.97v4.17c5.68-3.7,10.83-8.06,15.95-12.45v4.16c-5.02,4.27-10.11,8.46-15.75,11.94-.07.04-.13.08-.21.13v10c-3.92-6.91-14.89-10.7-21.93-10.7-1.96,0-3.83.12-5.68.37,1.34.12,2.68.23,4.01.36,1.09.11,1.67.83,1.54,1.78-.12.86-.84,1.36-1.86,1.22-4.23-.55-8.46-.55-12.68,0-.65.08-1.18-.07-1.52-.4-3.13,1.44-5.94,3.36-8.36,5.75.13-.05.28-.12.41-.17,5.01-2.01,10.4-3,16.98-3,5.93.05,12.66,1.64,18.93,5.02.36.19.72.46.94.8.38.59.27,1.22-.21,1.73-.54.56-1.18.61-1.87.29-1.62-.74-3.19-1.6-4.85-2.2-11.2-4.07-22.13-3.41-32.77,2-.16.08-.32.17-.48.24-.34.15-.69.19-1,.13-1.14,1.77-2.13,3.71-2.94,5.81.86-.73,1.75-1.44,2.68-2.07,6.12-4.17,12.99-6.04,21.4-6.12,1.05.11,3.1.3,5.15.55.46.05.97.27,1.33.57.5.43.55,1.05.25,1.65-.36.7-.95.93-1.71.83-1.27-.16-2.54-.37-3.82-.45-7.45-.48-14.36,1.19-20.61,5.29-1.98,1.3-3.7,2.98-5.51,4.52-.24.21-.47.38-.72.47-.31,1.4-.55,2.86-.72,4.38,1.26-1.19,2.5-2.4,3.82-3.53,1.64-1.41,3.37-2.74,5.1-4.03.9-.67,1.85-.47,2.33.31.49.8.17,1.56-.72,2.25-1.75,1.36-3.49,2.75-5.17,4.2-1.92,1.64-3.75,3.38-5.65,5.03,0,.45-.02.89-.02,1.35,0,.66.02,1.3.04,1.95,2.78-2.05,5.34-4.34,7.79-6.78,3.5-3.5,7.51-5.66,11.91-6.62.74-1.13,1.59-2.14,2.55-3.04-1.64.19-3.24.5-4.83.98-.17.05-.35.12-.53.15-.88.2-1.7-.26-1.9-1.07-.21-.8.22-1.61,1.08-1.83,1.51-.41,3.03-.85,4.58-1.07,2.15-.31,4.26-.44,6.34-.36h.02c2.54-1.18,5.39-1.8,8.44-1.8.43,0,.86,0,1.28.04,2.99.19,5.83,1.01,8.33,2.4.13-.26.33-.47.62-.63,2.06-1.14,4.15-2.24,6.24-3.33.74-.38,1.59-.05,2,.64.41.71.31,1.63-.42,2.04-1.89,1.07-3.82,2.07-5.74,3.08.29.22.57.46.85.72.77.7,1.48,1.47,2.13,2.29.18-.22.35-.4.55-.53,4.67-2.76,9.56-5.01,14.69-6.75.99-.34,1.86.05,2.15.91.3.87-.12,1.74-1.09,2.07-4.92,1.69-9.62,3.85-14.11,6.47-.19.11-.38.2-.58.24,1.54,2.74,2.42,5.97,2.46,9.57,1.32-1.18,2.67-2.33,4.14-3.33,4.1-2.79,8.53-4.6,13.48-5.57v-2.84c-3.92.77-7.8,2.14-11.65,4.09-.17.09-.34.17-.51.25-.86.38-1.73.11-2.14-.66-.41-.76-.19-1.7.65-2.11,1.64-.83,3.28-1.66,4.98-2.35,2.73-1.1,5.59-1.9,8.66-2.42v-3.18c-.45-.22-.73-.64-.8-1.19-.07-.64.23-1.19.8-1.5v-2.2c-.7.22-1.38,0-1.77-.62-.49-.73-.3-1.65.5-2.23.43-.3.84-.62,1.27-.91v-3.41c-2.08,1.47-4.15,2.89-6.23,4.3-.46.3-1.15.48-1.67.38-1.19-.25-1.51-1.75-.64-2.61.17-.14.37-.25.54-.38,2.67-1.91,5.35-3.83,8.01-5.77v-4.17c-.32-.06-.61-.23-.86-.53-.61-.7-.5-1.63.28-2.33.2-.18.38-.35.58-.52v-12.19c-.35.04-.7.02-.97-.09-1.14-.46-1.15-2.06-.05-2.73Zm-7.56,32.74c.78-.3,1.58.11,1.91.85.34.74.14,1.65-.63,1.98-2.24.97-4.51,1.85-6.78,2.75-.21.08-.49.03-.65.04-.73-.24-1.17-.65-1.28-1.35-.11-.76.21-1.34.87-1.63,2.17-.91,4.36-1.8,6.56-2.65Zm4.16-10.44c-2.15,1.46-4.34,2.86-6.54,4.24-.82.52-1.76.22-2.21-.55-.43-.75-.21-1.63.58-2.15,2.13-1.39,4.27-2.77,6.41-4.15.55-.36,1.17-.46,1.69-.04.39.31.63.81,1.02,1.31-.38.54-.56,1.08-.95,1.34Z"/>
    <g>
        <path class="cls-3" d="m232.83,127.21c-1.05.14-1.79-.38-1.89-1.27-.09-.88.55-1.54,1.61-1.64.26-.03.52-.04.78-.06-1.12-2.98-2.79-5.8-5.13-8.45l7.45-9.48-12.2-9.22-6.64,8.41c-4.61-3.12-10.04-3.8-15.32-3.8-18.71,0-33.89,13.01-33.89,33.89,0,6.37,1.22,12,3.5,16.72,2.01-1.4,4.03-2.77,6.09-4.12.73-.48,1.65-.24,2.16.45.52.7.51,1.67-.21,2.19-2.09,1.49-4.24,2.9-6.38,4.34-.02.02-.04.03-.07.04.52.83,1.08,1.63,1.68,2.39.54-.33,1.08-.64,1.61-.98,4.18-2.67,8.03-5.75,11.61-9.16-.57-.78-1.09-1.61-1.54-2.51-.04.04-.08.07-.13.11-.66.56-1.62.47-2.21-.12-.63-.63-.7-1.56-.07-2.27.36-.4.72-.8,1.1-1.17-.3-1.07-.5-2.21-.63-3.41-2.45,2.09-4.69,4.42-7.12,6.53-1.46,1.27-3.08,2.34-4.67,3.46-1,.72-2.02.59-2.59-.25-.58-.84-.32-1.81.71-2.5,3.91-2.63,7.42-5.7,10.74-9.03.93-.93,1.89-1.77,2.88-2.51.1-1.4.31-2.74.64-3.99-.06.05-.13.11-.2.16-1.94,1.5-3.85,3.04-5.71,4.63-2.13,1.83-4.17,3.75-6.28,5.6-.37.32-.88.5-1.15.65-.95-.11-1.48-.44-1.75-1.14-.27-.71-.08-1.33.46-1.81.61-.54,1.28-.99,1.88-1.55,1.72-1.58,3.37-3.25,5.15-4.78,1.81-1.56,3.72-3.02,5.64-4.45.99-.73,2.04-.52,2.57.35.04.06.07.13.1.19,1.13-2.9,2.88-5.29,5.08-7.1-3.45.97-6.77,2.48-9.92,4.56-2.18,1.43-4.09,3.29-6.09,5-.65.56-1.29.88-2.11.5-1.13-.53-1.35-1.89-.32-2.81,2.05-1.81,4.06-3.73,6.31-5.26,6.78-4.59,14.35-6.67,23.64-6.76,1.15.12,3.42.32,5.68.61.52.06,1.08.3,1.47.63.51.44.61,1.06.35,1.67,2.93,1.53,5.37,3.93,7.03,7.06h0c.93.47,1.84.99,2.74,1.56.45.28.88.77,1.07,1.26.26.66-.03,1.32-.64,1.74-.46.32-.93.36-1.41.21.3,1.28.47,2.63.53,4.05.08-.07.18-.13.29-.19,1.51-.77,3.03-1.53,4.59-2.16,3.41-1.37,7-2.24,11.06-2.65-.13-.85-.31-1.68-.53-2.5-.46.04-.93.09-1.39.15Zm-39.27-23.38c2.42-.21,4.84-.42,7.27-.63,2.49.21,4.96.4,7.43.64,1.21.12,1.85.91,1.71,1.96-.14.96-.94,1.5-2.06,1.36-4.67-.61-9.34-.62-14.01,0-1.21.15-2.06-.45-2.16-1.46-.11-1,.63-1.76,1.83-1.87Zm-13.27,14.16c-.18.09-.36.2-.54.28-.9.38-1.81.11-2.24-.7-.44-.8-.2-1.79.68-2.23,1.73-.88,3.46-1.74,5.26-2.47,5.52-2.22,11.48-3.32,18.75-3.31,6.54.05,13.98,1.81,20.92,5.54.39.21.8.52,1.03.88.42.65.3,1.36-.23,1.91-.59.63-1.3.67-2.06.32-1.79-.82-3.52-1.76-5.36-2.43-12.37-4.49-24.45-3.76-36.19,2.21Zm45.63,8.49c-.62.8-1.64.87-2.61.12-2.72-2.09-5.68-3.74-8.89-4.96-.96-.37-1.41-1.09-1.25-1.92.15-.81.83-1.39,1.77-1.39.18.05.49.13.79.23,3.48,1.31,6.69,3.11,9.63,5.4.99.77,1.19,1.72.56,2.53Zm3.81,15.18c1.46-.39,2.92-.81,4.42-1.04.25-.04.5-.06.74-.1.13-.88.22-1.76.28-2.61-4.96.52-9.64,2.15-13.98,5.01-1.91,1.26-3.58,2.88-5.32,4.37-.31.27-.62.47-.95.55-1.39,1.77-3.09,3.2-5.01,4.25.71.67,1.42,1.33,2.15,1.98.52-.46,1.1-.85,1.6-1.31,1.51-1.39,2.95-2.85,4.5-4.18,1.58-1.37,3.24-2.65,4.93-3.9.86-.64,1.78-.45,2.24.3.47.77.17,1.52-.7,2.18-1.69,1.31-3.36,2.65-4.99,4.06-1.82,1.56-3.57,3.18-5.35,4.76.67.56,1.36,1.11,2.05,1.63,1.88-1.53,3.66-3.17,5.39-4.91,3.47-3.46,7.43-5.55,11.8-6.44.3-.89.56-1.8.77-2.69-1.1.18-2.18.43-3.26.76-.17.05-.33.11-.51.15-.86.19-1.64-.26-1.84-1.05-.2-.76.21-1.55,1.05-1.77Zm4.97,36.58c-.1.34-.05.69.12,1.01-.03-.34-.07-.68-.12-1.01Zm.41-45.83c-4.79.47-9.51,1.9-14.17,4.28-.16.08-.31.16-.47.23-.61.27-1.23.18-1.65-.21-.08,1.72-.34,3.33-.75,4.83.39-.3.79-.59,1.19-.87,4.74-3.22,9.93-5.02,15.98-5.65,0-.88-.04-1.75-.13-2.61Zm-45.25,17.52c-4.07,3.84-8.45,7.29-13.23,10.22.72.72,1.46,1.38,2.25,2.01,3.53-2.23,6.86-4.73,10.03-7.48.57-.49,1.25-.74,1.9-.34.48.3.8.87,1.25,1.39-.38.6-.56,1.12-.92,1.43-2.93,2.59-6.04,4.95-9.3,7.08.84.52,1.73,1,2.64,1.43,4.73-3.41,9.16-7.2,13.6-11,.29-.25.59-.47.89-.65-3.47-.46-6.61-1.85-9.11-4.08Z"/>
        <g>
            <path class="cls-3" d="m234.82,179.25c-.17-.32-.21-.67-.12-1.01.04.33.09.67.12,1.01Z"/>
            <path class="cls-3" d="m218.85,195.17c-1.2-1.18-2.56-2.2-3.91-3.2-.42.45-.87.87-1.35,1.25.34.29.68.56,1.02.84.67.55.68,1.43.16,2.04-.52.6-1.35.67-2.05.17-.14-.11-.28-.22-.41-.34-.43-.36-.87-.7-1.3-1.03-.85.43-1.75.8-2.7,1.1,1.72,1.22,3.32,2.61,4.8,4.18,1.64,1.73,2.99,3.74,4.41,5.68.7.97.25,2.09-.8,2.33-.78.17-1.26-.22-1.72-.82-1.38-1.84-2.65-3.78-4.25-5.42-1.98-2.04-4.14-3.74-6.47-5.11h0c-.89.1-1.81.15-2.76.15-1.17,0-2.31-.09-3.42-.25.17.05.33.12.5.18,1.41.54,2.75,1.27,4.09,1.97.76.39.99,1.25.64,1.95-.37.72-1.22.99-2.03.63-.16-.08-.31-.17-.46-.26-2.33-1.31-4.83-2.19-7.43-2.82-3.42-.72-6.86-.95-10.31-.3-1.71.31-3.38.84-5.06,1.31-.64.18-1.21.13-1.67-.36-.45-.47-.57-1.09-.22-1.61.26-.38.72-.71,1.15-.88,5.29-1.89,10.56-2.23,15.81-1.2-1.85-.79-3.49-1.83-4.86-3.13-.32-.29-.63-.6-.91-.92-1.14-1.27-2.02-2.74-2.58-4.35-.96.06-1.92.15-2.9.29-1.7.22-3.36.71-5.03,1.07-.72.15-1.32-.02-1.71-.66-.35-.58-.33-1.2.15-1.68.28-.27.67-.45,1.05-.55,2.61-.74,5.24-1.21,7.79-1.42-.04-.45-.07-.89-.07-1.36h-16.4c0,9.09,3.68,16.59,9.83,21.79-.25-.36-.37-.81-.61-1.36.55-.41.95-.85,1.44-1.05,3.84-1.59,7.85-2.11,11.97-1.57,7.58.98,13.69,4.42,17.87,10.95l.35.54c.94-.13,1.86-.31,2.76-.52-.24-.34-.5-.68-.75-1.02-1.29-1.72-2.63-3.39-4-5.03-.7-.84-.84-1.64-.21-2.28.63-.64,1.56-.63,2.26.19,1.38,1.58,2.73,3.19,3.99,4.86.6.8,1.17,1.63,1.74,2.47,4.27-1.33,8.04-3.38,11.16-6.04-1.56-3.45-3.72-6.59-6.54-9.39Zm-44.9.03c-.97.46-1.83.21-2.21-.58-.38-.82-.04-1.59.96-2.06,2.94-1.39,6.02-2.33,9.24-2.8.27-.04.55-.04.71-.05.8.18,1.27.8,1.24,1.53-.02.73-.54,1.27-1.43,1.4-2.97.44-5.8,1.3-8.52,2.57Zm42.73,5.07c-.12-.13-.24-.25-.36-.39-.55-.69-.48-1.59.13-2.11.6-.51,1.49-.48,2.06.16.98,1.14,2,2.28,2.86,3.52.37.55.71,1.1,1.05,1.66l-2.64,1.28c-.89-1.47-1.91-2.85-3.1-4.12Zm18.14-21.01c-.17-.32-.21-.67-.12-1.01h0c-.16-1.2-.39-2.36-.72-3.5-3.95,3.31-7.99,6.5-12.4,9.22-.24.14-.48.29-.74.38-.67.27-1.4,0-1.75-.63-.34-.59-.22-1.34.29-1.8.13-.13.29-.21.43-.31,4.67-2.88,8.94-6.27,13.11-9.79-1.02-2.24-2.48-4.36-4.53-6.32-.69-.66-1.44-1.3-2.26-1.91-1.43-1.09-3.07-2.1-4.97-3.05.83-.38,1.62-.8,2.35-1.25,2.68-1.63,4.8-3.68,6.45-5.99.85-1.16,1.57-2.4,2.18-3.66-2.53.85-4.98,2.24-7.35,4.2-2.11,1.74-4.02,3.72-6.06,5.55,1.88,1.34,3.81,2.61,5.8,3.8.18.11.36.21.53.32.22.15.41.33.55.53.38.55.41,1.21.04,1.8-.5.8-1.47,1.06-2.36.51-.08-.04-.15-.1-.23-.14-.88-.55-1.75-1.11-2.63-1.67-.73-.46-1.47-.94-2.19-1.43-.47-.31-.95-.63-1.41-.97-.27-.19-.53-.38-.8-.57-.83-.59-1.64-1.21-2.44-1.84-2.48-1.94-4.83-4.03-7.08-6.25-1.18.34-2.41.56-3.68.64.2.12.38.23.54.38,1.6,1.33,3.08,2.8,4.61,4.22.81.77.91,1.73.27,2.46-.64.74-1.69.76-2.54,0-1.38-1.24-2.77-2.46-4.07-3.77-.63-.64-.97-.54-1.61,0-3.91,3.33-7.81,6.67-11.91,9.75,3.98,1.35,8.46,2.06,13.37,2.06,1.54,0,3.08.14,4.59.44-1.47-1.14-2.9-2.33-4.31-3.57-.29-.25-.56-.49-.91-.79-.71.62-1.36,1.21-2.03,1.75-.87.72-1.81.67-2.47-.09-.63-.73-.52-1.73.3-2.46.63-.56,1.27-1.1,1.89-1.65,1.69-1.48,2.97-1.49,4.65.02,3.51,3.16,7.24,6.04,11.19,8.63.17.12.34.22.52.33.92.61,1.86,1.17,2.79,1.75.32.2.63.39.95.6.5.32.8.74.84,1.26.02.21,0,.44-.09.68-.24.74-.79,1.17-1.56,1.15-.21,0-.43-.05-.64-.13.38.78.7,1.63.9,2.53.21.93.33,1.91.33,2.97,0,2.67-.63,5-1.75,6.96,1.38,1,2.74,2.04,3.96,3.21,2.92,2.81,5.2,5.99,6.94,9.65.6-.64,1.17-1.32,1.7-2.02-1.05-1.7-2.23-3.35-3.57-4.96-.11-.13-.22-.27-.33-.41-.51-.69-.44-1.53.17-2.05.6-.53,1.48-.51,2.03.15,1.08,1.31,2.15,2.63,3.12,4.01.13.2.26.38.38.58,1.61-2.74,2.76-5.84,3.38-9.23-1.47,1.02-2.94,2.03-4.42,3.03-.42.28-1.06.45-1.54.35-1.1-.23-1.39-1.62-.59-2.4.15-.13.33-.23.49-.36,2.17-1.56,4.34-3.1,6.51-4.67h0c.04-.61.05-1.22.05-1.84,0-1.14-.04-2.27-.16-3.39Zm-17.09-9.15c-.8-.52-1.58-1.04-2.38-1.56-.78-.52-1.56-1.03-2.34-1.55-.09-.05-.17-.12-.24-.18-.53-.46-.71-1.07-.48-1.78.24-.72.79-1.12,1.81-1.14.2.09.61.22.96.46.22.14.45.29.67.44.88.56,1.77,1.14,2.65,1.73.78.5,1.56,1.01,2.33,1.52.68.44,1.36.88,2.04,1.32.2.13.37.27.51.42.55.59.68,1.31.29,1.99-.51.87-1.5,1.1-2.49.47-.21-.13-.42-.27-.63-.41-.9-.57-1.8-1.15-2.69-1.73Zm13.17,14.34c-1.98,1.34-4,2.64-6.02,3.91-.76.48-1.63.21-2.04-.51-.39-.7-.2-1.5.53-1.98,1.97-1.29,3.94-2.56,5.92-3.83.51-.33,1.08-.42,1.56-.04.36.29.59.74.94,1.21-.34.49-.52.99-.88,1.23Zm-26.03,27.42c-5.69-7.28-13.25-9.75-22.22-8.15-1.21.21-2.36.72-3.53,1.12-.39.13-.8.19-1.14.05,5.21,4.22,12.08,6.83,19.92,7.45-.95-.78-1.99-1.43-3.13-1.98-2.31-1.12-4.76-1.64-7.33-1.71-1.07-.03-1.74-.84-1.52-1.8.18-.76.78-1.16,1.74-1.13,3.05.09,5.94.8,8.69,2.14,2.34,1.13,4.22,2.72,5.78,4.6,1.04,0,2.06-.05,3.07-.14-.11-.15-.22-.3-.34-.45Z"/>
        </g>
    </g>
    <g>
        <path class="cls-2" d="m177.98,204.88c-.18-.06-.33-.17-.47-.34-.03-.04-.05-.07-.06-.11.18.16.35.3.54.45Z"/>
        <path class="cls-2" d="m188.22,192.23c-.44-.14-.76-.43-.91-.92.29.32.59.63.91.92Z"/>
    </g>
    <path class="cls-3" d="m244.04,85.02c0,12.88,19.53,12.88,19.53,0s-19.53-12.88-19.53,0Z"/>
    <path class="cls-3" d="m361.76,119.31c.77-.21,1.55-.42,2.32-.61v-2.65c-3.82.79-7.45,2.27-10.87,4.52-1.91,1.26-3.58,2.88-5.32,4.37-.12.1-.23.2-.36.28v3.43c.87-.83,1.73-1.65,2.65-2.43,1.58-1.37,3.24-2.65,4.93-3.9.86-.64,1.78-.45,2.24.3.47.77.17,1.52-.7,2.18-1.69,1.31-3.36,2.65-4.99,4.06-1.4,1.21-2.77,2.45-4.14,3.68v3.37c2.19-1.71,4.25-3.58,6.22-5.57,3.07-3.07,6.53-5.06,10.32-6.1v-2.57c-.34.09-.68.18-1.02.29-.17.05-.33.11-.51.15-.86.19-1.64-.26-1.84-1.05-.2-.76.21-1.55,1.05-1.77Z"/>
    <path class="cls-3" d="m351.83,159.26c4.35-2.68,8.35-5.81,12.25-9.07v-10.56c-.13.11-.27.24-.39.37-4.57,4.63-9.57,8.71-15.21,11.99-.15.09-.3.19-.45.27-.16.08-.33.13-.49.17v18.28h16.54v-2.85c-.66.45-1.33.91-2,1.36-.42.28-1.07.45-1.54.35-1.1-.23-1.39-1.62-.59-2.4.15-.14.33-.23.49-.36,1.22-.87,2.43-1.73,3.64-2.61v-10.22c-3.34,2.74-6.78,5.36-10.48,7.64-.24.14-.48.28-.74.38-.67.27-1.4,0-1.75-.63-.34-.59-.22-1.34.29-1.8.13-.13.28-.21.43-.31Zm3.55,4.25c1.97-1.29,3.95-2.55,5.92-3.82.51-.33,1.08-.42,1.56-.04.35.29.59.74.93,1.21-.33.49-.51.99-.87,1.23-1.99,1.34-4,2.64-6.03,3.91-.76.48-1.62.2-2.03-.51-.4-.7-.2-1.5.52-1.98Zm-5.06-6.27c-.84.47-1.69.27-2.11-.46-.43-.73-.19-1.6.63-2.06,4.17-2.38,8.05-5.14,11.67-8.28.5-.44,1.09-.66,1.67-.3.42.26.69.76,1.09,1.21-.33.52-.49.98-.81,1.25-3.74,3.3-7.8,6.18-12.14,8.64Z"/>
    <path class="cls-3" d="m364.08,130v-2.68c-2.5.86-4.93,2.23-7.27,4.17-2.33,1.93-4.43,4.15-6.72,6.14-.8.71-1.67,1.33-2.56,1.95v3c.9-.62,1.81-1.22,2.72-1.82.64-.42,1.45-.21,1.9.39.46.61.45,1.47-.18,1.91-1.46,1.04-2.94,2.04-4.43,3.03v3.03c.55-.33,1.12-.66,1.66-1.01,4.39-2.8,8.36-6.12,12.02-9.82.92-.93,1.87-1.68,2.86-2.28v-2.83c-1.64.73-3.14,1.77-4.44,3.13-.55.59-1.13,1.17-1.73,1.69-.59.5-1.42.42-1.94-.1-.55-.55-.61-1.37-.06-1.98,2.32-2.6,4.95-4.72,8.18-5.92Z"/>
    <path class="cls-3" d="m351.13,112.03c1.51-.77,3.03-1.53,4.59-2.16,2.64-1.05,5.38-1.82,8.36-2.3v-2.73c-.63-.14-1.04-.6-1.11-1.24h-15.44v17.74c1.2-1.07,2.42-2.12,3.75-3.01,3.89-2.64,8.08-4.33,12.8-5.19v-2.63c-3.75.7-7.45,1.98-11.11,3.84-.16.08-.31.16-.47.23-.79.35-1.59.1-1.97-.61-.38-.71-.17-1.56.6-1.95Z"/>
    <g>
        <path class="cls-3" d="m440.83,127.21c-1.05.14-1.79-.38-1.89-1.27-.09-.88.55-1.54,1.61-1.64.26-.03.52-.04.78-.06-1.12-2.98-2.79-5.8-5.13-8.45l7.45-9.48-12.2-9.22-6.64,8.41c-4.61-3.12-10.04-3.8-15.32-3.8-18.71,0-33.89,13.01-33.89,33.89,0,6.37,1.22,12,3.5,16.72,2.01-1.4,4.03-2.77,6.09-4.12.73-.48,1.65-.24,2.16.45.52.7.51,1.67-.21,2.19-2.09,1.49-4.24,2.9-6.38,4.34-.02.02-.04.03-.07.04.52.83,1.08,1.63,1.68,2.39.54-.33,1.08-.64,1.61-.98,4.18-2.67,8.03-5.75,11.61-9.16-.57-.78-1.09-1.61-1.54-2.51-.04.04-.08.07-.13.11-.66.56-1.62.47-2.21-.12-.63-.63-.7-1.56-.07-2.27.36-.4.72-.8,1.1-1.17-.3-1.07-.5-2.21-.63-3.41-2.45,2.09-4.69,4.42-7.12,6.53-1.46,1.27-3.08,2.34-4.67,3.46-1,.72-2.02.59-2.59-.25-.58-.84-.32-1.81.71-2.5,3.91-2.63,7.42-5.7,10.74-9.03.93-.93,1.89-1.77,2.88-2.51.1-1.4.31-2.74.64-3.99-.06.05-.13.11-.2.16-1.94,1.5-3.85,3.04-5.71,4.63-2.13,1.83-4.17,3.75-6.28,5.6-.37.32-.88.5-1.15.65-.95-.11-1.48-.44-1.75-1.14-.27-.71-.08-1.33.46-1.81.61-.54,1.28-.99,1.88-1.55,1.72-1.58,3.37-3.25,5.15-4.78,1.81-1.56,3.72-3.02,5.64-4.45.99-.73,2.04-.52,2.57.35.04.06.07.13.1.19,1.13-2.9,2.88-5.29,5.08-7.1-3.45.97-6.77,2.48-9.92,4.56-2.18,1.43-4.09,3.29-6.09,5-.65.56-1.29.88-2.11.5-1.13-.53-1.35-1.89-.32-2.81,2.05-1.81,4.06-3.73,6.31-5.26,6.78-4.59,14.35-6.67,23.64-6.76,1.15.12,3.42.32,5.68.61.52.06,1.08.3,1.47.63.51.44.61,1.06.35,1.67,2.93,1.53,5.37,3.93,7.03,7.06h0c.93.47,1.84.99,2.74,1.56.45.28.88.77,1.07,1.26.26.66-.03,1.32-.64,1.74-.46.32-.93.36-1.41.21.3,1.28.47,2.63.53,4.05.08-.07.18-.13.29-.19,1.51-.77,3.03-1.53,4.59-2.16,3.41-1.37,7-2.24,11.06-2.65-.13-.85-.31-1.68-.53-2.5-.46.04-.93.09-1.39.15Zm-39.27-23.38c2.42-.21,4.84-.42,7.27-.63,2.49.21,4.96.4,7.43.64,1.21.12,1.85.91,1.71,1.96-.14.96-.94,1.5-2.06,1.36-4.67-.61-9.34-.62-14.01,0-1.21.15-2.06-.45-2.16-1.46-.11-1,.63-1.76,1.83-1.87Zm-13.27,14.16c-.18.09-.36.2-.54.28-.9.38-1.81.11-2.24-.7-.44-.8-.2-1.79.68-2.23,1.73-.88,3.46-1.74,5.26-2.47,5.52-2.22,11.48-3.32,18.75-3.31,6.54.05,13.98,1.81,20.92,5.54.39.21.8.52,1.03.88.42.65.3,1.36-.23,1.91-.59.63-1.3.67-2.06.32-1.79-.82-3.52-1.76-5.36-2.43-12.37-4.49-24.45-3.76-36.19,2.21Zm45.63,8.49c-.62.8-1.64.87-2.61.12-2.72-2.09-5.68-3.74-8.89-4.96-.96-.37-1.41-1.09-1.25-1.92.15-.81.83-1.39,1.77-1.39.18.05.49.13.79.23,3.48,1.31,6.69,3.11,9.63,5.4.99.77,1.19,1.72.56,2.53Zm3.81,15.18c1.46-.39,2.92-.81,4.42-1.04.25-.04.5-.06.74-.1.13-.88.22-1.76.28-2.61-4.96.52-9.64,2.15-13.98,5.01-1.91,1.26-3.58,2.88-5.32,4.37-.31.27-.62.47-.95.55-1.39,1.77-3.09,3.2-5.01,4.25.71.67,1.42,1.33,2.15,1.98.52-.46,1.1-.85,1.6-1.31,1.51-1.39,2.95-2.85,4.5-4.18,1.58-1.37,3.24-2.65,4.93-3.9.86-.64,1.78-.45,2.24.3.47.77.17,1.52-.7,2.18-1.69,1.31-3.36,2.65-4.99,4.06-1.82,1.56-3.57,3.18-5.35,4.76.67.56,1.36,1.11,2.05,1.63,1.88-1.53,3.66-3.17,5.39-4.91,3.47-3.46,7.43-5.55,11.8-6.44.3-.89.56-1.8.77-2.69-1.1.18-2.18.43-3.26.76-.17.05-.33.11-.51.15-.86.19-1.64-.26-1.84-1.05-.2-.76.21-1.55,1.05-1.77Zm4.97,36.58c-.1.34-.05.69.12,1.01-.03-.34-.07-.68-.12-1.01Zm.41-45.83c-4.79.47-9.51,1.9-14.17,4.28-.16.08-.31.16-.47.23-.61.27-1.23.18-1.65-.21-.08,1.72-.34,3.33-.75,4.83.39-.3.79-.59,1.19-.87,4.74-3.22,9.93-5.02,15.98-5.65,0-.88-.04-1.75-.13-2.61Zm-45.25,17.52c-4.07,3.84-8.45,7.29-13.23,10.22.72.72,1.46,1.38,2.25,2.01,3.53-2.23,6.86-4.73,10.03-7.48.57-.49,1.25-.74,1.9-.34.48.3.8.87,1.25,1.39-.38.6-.56,1.12-.92,1.43-2.93,2.59-6.04,4.95-9.3,7.08.84.52,1.73,1,2.64,1.43,4.73-3.41,9.16-7.2,13.6-11,.29-.25.59-.47.89-.65-3.47-.46-6.61-1.85-9.11-4.08Z"/>
        <g>
            <path class="cls-3" d="m442.82,179.25c-.17-.32-.21-.67-.12-1.01.04.33.09.67.12,1.01Z"/>
            <path class="cls-3" d="m426.85,195.17c-1.2-1.18-2.56-2.2-3.91-3.2-.42.45-.87.87-1.35,1.25.34.29.68.56,1.02.84.67.55.68,1.43.16,2.04-.52.6-1.35.67-2.05.17-.14-.11-.28-.22-.41-.34-.43-.36-.87-.7-1.3-1.03-.85.43-1.75.8-2.7,1.1,1.72,1.22,3.32,2.61,4.8,4.18,1.64,1.73,2.99,3.74,4.41,5.68.7.97.25,2.09-.8,2.33-.78.17-1.26-.22-1.72-.82-1.38-1.84-2.65-3.78-4.25-5.42-1.98-2.04-4.14-3.74-6.47-5.11h0c-.89.1-1.81.15-2.76.15-1.17,0-2.31-.09-3.42-.25.17.05.33.12.5.18,1.41.54,2.75,1.27,4.09,1.97.76.39.99,1.25.64,1.95-.37.72-1.22.99-2.03.63-.16-.08-.31-.17-.46-.26-2.33-1.31-4.83-2.19-7.43-2.82-3.42-.72-6.86-.95-10.31-.3-1.71.31-3.38.84-5.06,1.31-.64.18-1.21.13-1.67-.36-.45-.47-.57-1.09-.22-1.61.26-.38.72-.71,1.15-.88,5.29-1.89,10.56-2.23,15.81-1.2-1.85-.79-3.49-1.83-4.86-3.13-.32-.29-.63-.6-.91-.92-1.14-1.27-2.02-2.74-2.58-4.35-.96.06-1.92.15-2.9.29-1.7.22-3.36.71-5.03,1.07-.72.15-1.32-.02-1.71-.66-.35-.58-.33-1.2.15-1.68.28-.27.67-.45,1.05-.55,2.61-.74,5.24-1.21,7.79-1.42-.04-.45-.07-.89-.07-1.36h-16.4c0,9.09,3.68,16.59,9.83,21.79-.25-.36-.37-.81-.61-1.36.55-.41.95-.85,1.44-1.05,3.84-1.59,7.85-2.11,11.97-1.57,7.58.98,13.69,4.42,17.87,10.95l.35.54c.94-.13,1.86-.31,2.76-.52-.24-.34-.5-.68-.75-1.02-1.29-1.72-2.63-3.39-4-5.03-.7-.84-.84-1.64-.21-2.28.63-.64,1.56-.63,2.26.19,1.38,1.58,2.73,3.19,3.99,4.86.6.8,1.17,1.63,1.74,2.47,4.27-1.33,8.04-3.38,11.16-6.04-1.56-3.45-3.72-6.59-6.54-9.39Zm-44.9.03c-.97.46-1.83.21-2.21-.58-.38-.82-.04-1.59.96-2.06,2.94-1.39,6.02-2.33,9.24-2.8.27-.04.55-.04.71-.05.8.18,1.27.8,1.24,1.53-.02.73-.54,1.27-1.43,1.4-2.97.44-5.8,1.3-8.52,2.57Zm42.73,5.07c-.12-.13-.24-.25-.36-.39-.55-.69-.48-1.59.13-2.11.6-.51,1.49-.48,2.06.16.98,1.14,2,2.28,2.86,3.52.37.55.71,1.1,1.05,1.66l-2.64,1.28c-.89-1.47-1.91-2.85-3.1-4.12Zm18.14-21.01c-.17-.32-.21-.67-.12-1.01h0c-.16-1.2-.39-2.36-.72-3.5-3.95,3.31-7.99,6.5-12.4,9.22-.24.14-.48.29-.74.38-.67.27-1.4,0-1.75-.63-.34-.59-.22-1.34.29-1.8.13-.13.29-.21.43-.31,4.67-2.88,8.94-6.27,13.11-9.79-1.02-2.24-2.48-4.36-4.53-6.32-.69-.66-1.44-1.3-2.26-1.91-1.43-1.09-3.07-2.1-4.97-3.05.83-.38,1.62-.8,2.35-1.25,2.68-1.63,4.8-3.68,6.45-5.99.85-1.16,1.57-2.4,2.18-3.66-2.53.85-4.98,2.24-7.35,4.2-2.11,1.74-4.02,3.72-6.06,5.55,1.88,1.34,3.81,2.61,5.8,3.8.18.11.36.21.53.32.22.15.41.33.55.53.38.55.41,1.21.04,1.8-.5.8-1.47,1.06-2.36.51-.08-.04-.15-.1-.23-.14-.88-.55-1.75-1.11-2.63-1.67-.73-.46-1.47-.94-2.19-1.43-.47-.31-.95-.63-1.41-.97-.27-.19-.53-.38-.8-.57-.83-.59-1.64-1.21-2.44-1.84-2.48-1.94-4.83-4.03-7.08-6.25-1.18.34-2.41.56-3.68.64.2.12.38.23.54.38,1.6,1.33,3.08,2.8,4.61,4.22.81.77.91,1.73.27,2.46-.64.74-1.69.76-2.54,0-1.38-1.24-2.77-2.46-4.07-3.77-.63-.64-.97-.54-1.61,0-3.91,3.33-7.81,6.67-11.91,9.75,3.98,1.35,8.46,2.06,13.37,2.06,1.54,0,3.08.14,4.59.44-1.47-1.14-2.9-2.33-4.31-3.57-.29-.25-.56-.49-.91-.79-.71.62-1.36,1.21-2.03,1.75-.87.72-1.81.67-2.47-.09-.63-.73-.52-1.73.3-2.46.63-.56,1.27-1.1,1.89-1.65,1.69-1.48,2.97-1.49,4.65.02,3.51,3.16,7.24,6.04,11.19,8.63.17.12.34.22.52.33.92.61,1.86,1.17,2.79,1.75.32.2.63.39.95.6.5.32.8.74.84,1.26.02.21,0,.44-.09.68-.24.74-.79,1.17-1.56,1.15-.21,0-.43-.05-.64-.13.38.78.7,1.63.9,2.53.21.93.33,1.91.33,2.97,0,2.67-.63,5-1.75,6.96,1.38,1,2.74,2.04,3.96,3.21,2.92,2.81,5.2,5.99,6.94,9.65.6-.64,1.17-1.32,1.7-2.02-1.05-1.7-2.23-3.35-3.57-4.96-.11-.13-.22-.27-.33-.41-.51-.69-.44-1.53.17-2.05.6-.53,1.48-.51,2.03.15,1.08,1.31,2.15,2.63,3.12,4.01.13.2.26.38.38.58,1.61-2.74,2.76-5.84,3.38-9.23-1.47,1.02-2.94,2.03-4.42,3.03-.42.28-1.06.45-1.54.35-1.1-.23-1.39-1.62-.59-2.4.15-.13.33-.23.49-.36,2.17-1.56,4.34-3.1,6.51-4.67h0c.04-.61.05-1.22.05-1.84,0-1.14-.04-2.27-.16-3.39Zm-17.09-9.15c-.8-.52-1.58-1.04-2.38-1.56-.78-.52-1.56-1.03-2.34-1.55-.09-.05-.17-.12-.24-.18-.53-.46-.71-1.07-.48-1.78.24-.72.79-1.12,1.81-1.14.2.09.61.22.96.46.22.14.45.29.67.44.88.56,1.77,1.14,2.65,1.73.78.5,1.56,1.01,2.33,1.52.68.44,1.36.88,2.04,1.32.2.13.37.27.51.42.55.59.68,1.31.29,1.99-.51.87-1.5,1.1-2.49.47-.21-.13-.42-.27-.63-.41-.9-.57-1.8-1.15-2.69-1.73Zm13.17,14.34c-1.98,1.34-4,2.64-6.02,3.91-.76.48-1.63.21-2.04-.51-.39-.7-.2-1.5.53-1.98,1.97-1.29,3.94-2.56,5.92-3.83.51-.33,1.08-.42,1.56-.04.36.29.59.74.94,1.21-.34.49-.52.99-.88,1.23Zm-26.03,27.42c-5.69-7.28-13.25-9.75-22.22-8.15-1.21.21-2.36.72-3.53,1.12-.39.13-.8.19-1.14.05,5.21,4.22,12.08,6.83,19.92,7.45-.95-.78-1.99-1.43-3.13-1.98-2.31-1.12-4.76-1.64-7.33-1.71-1.07-.03-1.74-.84-1.52-1.8.18-.76.78-1.16,1.74-1.13,3.05.09,5.94.8,8.69,2.14,2.34,1.13,4.22,2.72,5.78,4.6,1.04,0,2.06-.05,3.07-.14-.11-.15-.22-.3-.34-.45Z"/>
        </g>
    </g>
    <g>
        <path class="cls-3" d="m385.98,204.88c-.18-.06-.33-.17-.47-.34-.03-.04-.05-.07-.06-.11.18.16.35.3.54.45Z"/>
        <path class="cls-3" d="m396.22,192.23c-.44-.14-.76-.43-.91-.92.29.32.59.63.91.92Z"/>
    </g>
    <path class="cls-3" d="m334.4,155.45c-.66.6-1.55.5-2.09-.13-.51-.61-.47-1.44.16-2.04,1.69-1.62,3.39-3.22,5.08-4.83.05-.04.09-.08.14-.12-.16-1.15-.43-2.25-.79-3.28-2.06,2.34-4.22,4.6-6.53,6.71-.21.18-.42.37-.65.51-.61.38-1.38.25-1.84-.3-.44-.51-.46-1.27-.05-1.81.1-.14.24-.26.37-.38,2.62-2.39,5.04-4.96,7.36-7.63-.38-.66-.82-1.28-1.3-1.88-2.43,2.8-5.08,5.4-7.92,7.81-.73.61-1.61.57-2.16-.06-.55-.64-.47-1.53.25-2.15,2.79-2.37,5.39-4.94,7.78-7.7-.62-.54-1.29-1.04-2.02-1.52-2.04,2.35-4.23,4.56-6.61,6.62-.14.12-.27.24-.41.34-.71.55-1.57.48-2.1-.15-.51-.61-.45-1.44.19-2.04.75-.7,1.55-1.37,2.3-2.08,1.42-1.33,2.77-2.72,4.05-4.17-3.57-1.78-8.12-3.08-13.71-3.96.23.25.35.56.35.93.02.98-.8,1.62-1.85,1.42-2.51-.49-5.02-.49-7.51.1-2.83.67-5.32,1.98-7.34,4.11-.56.58-1.12,1.16-1.74,1.69-.58.49-1.41.41-1.92-.1-.56-.55-.61-1.37-.07-1.98,2.76-3.09,5.94-5.51,10.07-6.49,1.17-.28,2.33-.46,3.5-.54-2.43-.34-4.44-.77-6.06-1.32-2.26.87-4.47,2.18-6.6,3.94-1.9,1.57-3.64,3.33-5.46,5,2.26,1.45,4.95,2.64,8.03,3.56.62-.58,1.22-1.18,1.82-1.78,4.14-4.18,9.11-4.84,14.52-3.22,2.11.64,3.73,2.08,5.26,3.61.23.23.32.6.56,1.08-.33.4-.6.89-1.01,1.18-.52.37-1.11.19-1.6-.22-.65-.56-1.27-1.16-1.95-1.67-3.79-2.84-10-2.43-13.32.93-.32.32-.63.64-.96.95,1.11.25,2.27.46,3.47.65,1.3.2,2.65.37,4.05.5,3.18.33,5.79.78,7.88,1.38,4.26,1.22,6.38,3.07,6.76,5.84,2.13,1.63,4.37,3.14,6.69,4.53.16.09.31.17.46.27.75.52.96,1.33.52,2.03-.43.7-1.29.93-2.05.44-1.9-1.19-3.81-2.38-5.64-3.67-.13-.09-.26-.18-.38-.27-.31.77-.78,1.46-1.42,2.07.08.04.16.08.24.13,2.24,1.45,4.47,2.92,6.71,4.37.85.55,1.13,1.36.69,2.11s-1.3.96-2.16.41c-2.35-1.5-4.69-3.04-7.02-4.57-.38-.26-.62-.58-.68-.95-.96.46-2.08.83-3.35,1.11,1.7,1.33,3.45,2.58,5.25,3.77,1.22.8,2.48,1.54,3.71,2.33.61.39.89.96.65,1.69-.21.65-.68,1.03-1.35,1.01-.35,0-.73-.18-1.05-.36-3.97-2.34-7.72-4.98-11.25-7.93h-.01c-.63.03-1.29.05-1.97.05-3.63,0-7.24-.46-10.67-1.33-2.31,1.77-4.69,3.46-7.18,5-.23.15-.47.29-.73.39-.67.26-1.4-.01-1.75-.64-.34-.58-.22-1.34.29-1.79.13-.12.28-.21.43-.31,1.87-1.16,3.68-2.39,5.44-3.7-.88-.3-1.73-.64-2.56-1.01-1.43.95-2.89,1.85-4.39,2.7-.84.47-1.69.26-2.11-.46-.42-.73-.18-1.59.64-2.06.95-.54,1.88-1.1,2.8-1.69-.83-.46-1.63-.95-2.39-1.49-.52-.34-1.02-.71-1.51-1.1l-1.19,1.85-5.89,9.17c7.65,5.69,16.11,8.9,25.44,9.72-.39-.66-.19-1.46.51-1.97.75-.55,1.49-1.13,2.29-1.6.6-.34,1.29-.52,1.91-.77.65.21,1.25.29,1.73.58.97.58,1.9,1.24,2.8,1.93.59.45.69,1.24.34,1.84,14.68-1.37,24.17-9.26,24.32-20.48-1.16,1.13-2.34,2.24-3.54,3.34Zm-41.62,11.41c-.4-.69-.2-1.5.53-1.97,1.96-1.28,3.92-2.54,5.89-3.81.51-.33,1.08-.42,1.55-.04.36.29.59.74.94,1.2-.34.5-.52,1-.87,1.23-1.98,1.34-3.99,2.64-6.01,3.91-.76.47-1.62.2-2.03-.52Zm27.26,3.49c-.42.68-1.26.92-1.98.47-1.31-.8-2.61-1.63-3.86-2.53-1.81-1.28-3.57-2.62-5.28-3.89-3.01,2.1-5.96,4.17-8.94,6.19-.42.28-1.06.45-1.54.35-1.09-.24-1.39-1.62-.58-2.4.15-.14.32-.24.49-.35,2.94-2.12,5.91-4.22,8.83-6.37,1.28-.94,2.04-.94,3.32,0,2.88,2.12,5.8,4.19,8.7,6.28.15.11.3.19.44.3.65.52.8,1.29.4,1.95Zm-10.56,1.26c-.46-.34-.84-.34-1.3.01-.52.4-1.05.77-1.59,1.13.78.03,1.57.05,2.37.05.72,0,1.43,0,2.13-.05-.55-.35-1.09-.74-1.61-1.14Zm.29-69.32c-17.42,0-29.13,8.3-29.13,20.55,0,3.52.9,6.65,2.63,9.34.12-.1.24-.2.35-.3,1.51-1.39,2.94-2.84,4.49-4.17,1.59-1.36,3.24-2.64,4.92-3.89.87-.64,1.78-.45,2.24.31.47.76.17,1.5-.69,2.17-1.69,1.31-3.36,2.65-4.98,4.04-1.56,1.34-3.06,2.73-4.59,4.09.56.63,1.19,1.24,1.87,1.81,1.66-1.38,3.26-2.87,4.8-4.41,1.92-1.91,3.99-3.41,6.19-4.5-1.55-1.17-2.25-2.65-2.25-4.49,0-1.46.46-2.73,1.36-3.79-2.01.78-3.96,1.79-5.84,3.02-1.91,1.25-3.57,2.87-5.31,4.36-.57.5-1.13.77-1.84.44-.99-.46-1.18-1.65-.28-2.45,1.78-1.58,3.53-3.25,5.5-4.59,5.91-4.01,12.52-5.82,20.62-5.89,1,.1,2.98.28,4.96.52.45.06.94.27,1.28.56.24.2.37.44.4.71h.01c1.21.2,2.39.46,3.56.8,3.37.95,6.61,2.42,9.74,4.41l.08-.13,6.59-10.76c-7.48-5.17-16.47-7.76-26.68-7.76Zm-7.3,1.23c2.11-.19,4.22-.37,6.34-.55,2.16.18,4.32.35,6.48.56,1.05.1,1.61.8,1.48,1.71-.12.83-.81,1.31-1.8,1.18-4.07-.53-8.14-.53-12.21,0-1.06.14-1.79-.39-1.89-1.27-.09-.87.55-1.53,1.6-1.62Zm26.46,12.26c-.51.54-1.13.59-1.8.28-1.55-.72-3.07-1.54-4.68-2.12-10.78-3.92-21.31-3.28-31.55,1.92-.16.08-.31.17-.48.24-.78.34-1.58.09-1.95-.6-.38-.71-.17-1.56.59-1.95,1.51-.76,3.02-1.53,4.58-2.15,4.82-1.94,10.01-2.89,16.36-2.89,5.71.05,12.19,1.58,18.24,4.84.34.18.69.44.9.76.37.57.25,1.18-.21,1.67Z"/>
    <path class="cls-3" d="m498.79,116.32c-.64.43-1.27.91-1.87,1.42.75.47,1.44,1.02,2.07,1.63.58-.45,1.17-.9,1.77-1.35-.66-.57-1.3-1.15-1.97-1.7Zm16.98.03c-2.31.11-4.59.44-6.81,1.12-.17.06-.33.11-.51.15-.86.19-1.63-.25-1.84-1.04-.19-.76.22-1.54,1.04-1.76,1.46-.39,2.93-.82,4.42-1.03.71-.1,1.41-.18,2.11-.24-.54-.83-1.12-1.62-1.74-2.38-3.85.47-7.52,1.63-10.99,3.52.56.47,1.1.97,1.64,1.49.28.27.55.61.66.98.16.51.02.96-.32,1.3.21.64-.12,1.27-.85,1.84-.57.44-1.13.88-1.69,1.33.05.07.1.14.14.21.4.58.75,1.21,1.06,1.87.11-.08.21-.16.32-.23,4.24-3.2,9.11-4.64,14.48-4.61-.33-.87-.71-1.71-1.12-2.52Zm-2.99,19.81c1.22-.74,2.58-.97,3.81-.99,1.01,0,1.93.12,2.78.38v-2.65c-3.43-.79-7.37.1-9.79,2.54-1.75,1.77-3.56,3.47-5.45,5.07v3.26c.77-.62,1.53-1.25,2.28-1.9.5-.44,1.1-.66,1.66-.31.43.27.71.76,1.09,1.21-.32.52-.48.98-.8,1.25-1.37,1.21-2.78,2.36-4.23,3.45v2.8c3.54-2.66,6.91-5.54,10.28-8.42.72-.62,1.47-1.06,2.44-1.04.03-.06.06-.13.1-.2.7.36,1.49.6,2.07,1.09.12.1.24.2.35.3v-3.27c-1.5-.82-3.27-.88-4.99-.16-.46.19-1.12.27-1.56.09-1.06-.43-1.06-1.9-.04-2.5Zm2.05,12.82c1.47-1.29,2.58-1.3,4.05.02.16.15.32.29.49.43v-3.44c-.63-.57-1.26-1.15-1.86-1.76-.55-.56-.85-.46-1.4.01-3.9,3.33-7.81,6.67-11.98,9.67v3.15c1.02-.66,2.04-1.32,3.07-1.98.51-.33,1.08-.42,1.55-.04.36.29.59.74.94,1.2-.34.5-.52,1-.87,1.23-1.55,1.05-3.11,2.07-4.69,3.07v9.63h15.24v-3.24c-.65-.4-1.28-.85-1.89-1.32-.46-.34-.84-.34-1.3.01-.64.49-1.3.95-1.98,1.39-.79.51-1.66.36-2.12-.35-.45-.68-.26-1.52.47-2.05.75-.55,1.49-1.13,2.29-1.6.6-.34,1.29-.52,1.91-.77.65.21,1.25.29,1.73.58.3.18.6.37.89.56v-3.15c-.83-.62-1.64-1.23-2.45-1.83-3.01,2.1-5.96,4.17-8.94,6.19-.42.28-1.06.45-1.54.35-1.09-.24-1.39-1.62-.58-2.4.15-.14.32-.24.49-.35,2.94-2.12,5.91-4.22,8.83-6.37,1.28-.94,2.04-.94,3.32,0,.29.21.58.42.87.63v-3.15c-.58-.49-1.17-.99-1.74-1.49-.24-.22-.49-.43-.79-.69-.63.54-1.19,1.05-1.77,1.53-.76.62-1.59.58-2.15-.08-.55-.64-.46-1.5.26-2.14.54-.49,1.1-.96,1.65-1.45Zm4.18-21.64c-2.04-.25-4.09-.16-6.12.32-2.83.67-5.32,1.98-7.34,4.11-.47.48-.93.96-1.43,1.41,0,.26,0,.52,0,.78v2.65c1.02-.92,2.02-1.88,2.99-2.86,3.53-3.56,7.66-4.57,12.15-3.78-.06-.9-.14-1.77-.26-2.63Zm-1.14-5.58c-5.17-.34-10.08,1.2-14.69,4.85.25.88.46,1.8.61,2.77,2.3-2.12,4.92-3.73,8.1-4.49,2.2-.53,4.41-.71,6.62-.53-.18-.89-.39-1.76-.64-2.6Zm-10.36-15.18c-2.89.74-5.76,1.84-8.61,3.28-.16.08-.31.17-.48.24-.78.34-1.58.09-1.95-.6-.38-.71-.17-1.56.59-1.95,1.51-.76,3.02-1.53,4.58-2.15.8-.32,1.61-.62,2.43-.88-3.89-1.93-8.41-2.96-13.42-2.96-.59,0-1.18,0-1.76.04,1.46.54,2.91,1.08,4.36,1.64.99.38,1.34,1.2.97,2.05-.33.76-1.13,1.04-2.05.65-3.5-1.48-7.11-2.53-10.86-3.14-1.83.5-3.57,1.17-5.21,2.01,3.36.14,6.87.73,10.72,1.81,4.03,1.16,8.24,3.2,12.15,6.09,3.4-2.01,7.04-3.34,11.08-4.07-.8-.75-1.65-1.44-2.54-2.06Zm-36.15,1.28h0c-1.1.89-2.13,1.85-3.11,2.92,5.34-1.01,10.86-.63,16.96,1.02.94.37,2.8,1.07,4.64,1.84.41.17.83.5,1.08.87.23.34.26.71.13,1.06,1.06.16,2.06.42,3,.76.73-.65,1.48-1.27,2.26-1.86-7.68-5.18-16-7.38-24.95-6.61Zm14.14,7.18c-6.78-2.37-13.64-2.61-20.49-.43-2.17.7-4.21,1.81-6.28,2.78-.69.32-1.29.43-1.9-.08-.82-.7-.68-1.91.39-2.43,2.15-1.05,4.28-2.19,6.54-2.94,1.19-.4,2.39-.73,3.6-.99l-.04-2.54c-.29.05-.58.1-.87.16-.18.03-.35.07-.52.1-.85.12-1.55-.34-1.72-1.11-.18-.78.25-1.55,1.09-1.72.66-.13,1.32-.26,1.98-.37h0s-.04-2.55-.04-2.55h-13.61v19.77c.5-.21,1.02-.4,1.51-.65,1.82-.93,3.59-1.95,5.44-2.82,1.89-.88,3.83-1.66,5.78-2.41,1.01-.39,1.84.04,2.08.89.25.86-.24,1.5-1.25,1.91-1.98.8-3.95,1.65-5.88,2.55-2.22,1.04-4.39,2.17-6.59,3.23-.37.18-.81.22-1.09.28v2.89c3.22-1.2,6.29-2.71,9.29-4.4,3.59-2.03,7.25-3.02,10.98-3.09.83-.9,1.75-1.7,2.75-2.4-.84-.07-1.69-.09-2.55-.07-.18,0-.36.02-.53,0-.88-.05-1.51-.69-1.49-1.5,0-.78.62-1.43,1.47-1.42,1.51.02,3.04,0,4.53.19,1.02.13,2.03.3,3.01.52,1.63-.57,3.4-.92,5.27-1.04-.28-.11-.57-.22-.86-.32Zm-31.87,28.05v2.62c3.94-1.11,7.76-2.54,11.46-4.3.59-.28,1.23-.33,1.68.16.34.36.47.92.72,1.46-.45.41-.73.8-1.1.98-4.11,1.99-8.36,3.56-12.76,4.73v2.57c5.26-1.54,10.28-3.68,15.24-5.96v-8.72c-4.86,2.71-9.91,4.93-15.24,6.46Zm.76,11.05c-.25.08-.51.14-.76.17v15.86h15.24v-3.3c-.22-.09-.46-.08-.75.04-.75.31-1.52.57-2.29.81-.9.29-1.7-.1-1.95-.9-.25-.77.16-1.54,1-1.85.88-.33,1.74-.69,2.64-.92.44-.11.9-.15,1.35-.18v-3.04c-2.82.98-5.6,1.96-8.38,2.89-.47.16-1.14.14-1.57-.08-.99-.52-.91-1.92.08-2.46.18-.1.38-.14.56-.21,3.11-1.14,6.22-2.26,9.31-3.42v-8.99c-4.71,2.14-9.49,4.13-14.48,5.58Zm8.82,2.95c-2.26.76-4.55,1.47-6.84,2.14-.86.26-1.61-.23-1.81-1.04-.2-.77.21-1.49,1.03-1.75,2.24-.71,4.47-1.4,6.71-2.09.58-.18,1.15-.11,1.5.38.27.37.37.87.58,1.41-.46.39-.76.82-1.17.95Zm.28-27.01c2.14-1.38,4.37-2.46,6.75-3.06.37-.98.81-1.91,1.32-2.78-1.97.32-3.97.92-6.01,1.83-2.76,1.23-5.37,2.79-8.11,4.09-1.23.59-2.52,1.04-3.81,1.49v2.59c1.04-.35,2.08-.69,3.13-1.02.73-.23,1.44.18,1.71.88.27.7.04,1.52-.68,1.79-1.38.5-2.77.97-4.16,1.42v2.73c.05-.01.09-.03.14-.04,4.97-1.52,9.67-3.64,14.18-6.21.32-.19.65-.36.97-.51.06-1.01.19-1.99.38-2.93-.8.28-1.57.65-2.33,1.1-.7.42-1.4.83-2.13,1.16-.69.32-1.47.02-1.83-.61-.38-.68-.22-1.48.48-1.92Z"/>
    <text class="cls-4" transform="translate(505.72 75.06)"><tspan x="0" y="0">TM</tspan></text>
    <g>
        <path class="cls-5" d="m356.47,65c1.02.23,2.06.4,3.05.71,6.6,2.09,10.93,8.45,10.44,15.28-.5,6.95-5.68,12.63-12.55,13.78-8.05,1.34-15.63-4.08-17.17-12.27-1.46-7.78,3.89-15.6,11.75-17.19.47-.09.93-.2,1.4-.31,1.02,0,2.05,0,3.07,0Zm-3.41,16.39c-.54-.58-1-1.1-1.49-1.59-1.03-1.01-2.42-1.04-3.36-.1-.93.93-.88,2.34.12,3.36,1,1.02,2.02,2.04,3.04,3.04,1.07,1.05,2.39,1.06,3.47,0,2.11-2.09,4.21-4.18,6.29-6.31.32-.33.59-.79.71-1.24.27-1.01-.21-2-1.08-2.48-.92-.51-1.97-.4-2.75.37-1.62,1.6-3.22,3.22-4.94,4.95Z"/>
        <path class="cls-1" d="m353.06,81.39c1.72-1.73,3.32-3.35,4.94-4.95.79-.78,1.83-.89,2.75-.37.87.48,1.35,1.48,1.08,2.48-.12.45-.38.91-.71,1.24-2.08,2.12-4.18,4.22-6.29,6.31-1.07,1.06-2.4,1.06-3.47,0-1.02-1-2.04-2.02-3.04-3.04-1-1.02-1.04-2.43-.12-3.36.94-.94,2.33-.91,3.36.1.49.48.94,1,1.49,1.59Z"/>
    </g>
    <g>
        <path class="cls-3" d="m468.87,151.76v2.24c-.16-.13-.29-.31-.39-.53-.29-.62-.14-1.27.39-1.71Z"/>
        <path class="cls-3" d="m502.41,123.48c-.11.07-.21.15-.32.23-.31-.66-.66-1.29-1.06-1.87.48.53.94,1.07,1.38,1.64Z"/>
    </g>
</svg>