<?xml version="1.0" encoding="UTF-8"?>
<svg id="Layer_1" xmlns="http://www.w3.org/2000/svg" version="1.1" viewBox="0 0 335.8 60.2">
  <!-- Generator: Adobe Illustrator 30.3.0, SVG Export Plug-In . SVG Version: 2.1.3 Build 182)  -->
  <defs>
    <style>
      .st0 {
        fill: #ff6b00;
      }

      .st1 {
        fill: #3d3935;
      }
    </style>
  </defs>
  <path class="st0" d="M43.4,30.1c1.9-1.2,3.8-2.6,5.4-4.3l8.6-8.6-5.7-5.7-8.6,8.6c-3.9,3.9-9.1,5.9-14.3,5.9,0,0,0,0-.1,0-5.2,0-10.3-2-14.3-5.9L5.7,11.5,0,17.2l8.6,8.6c1.7,1.7,3.5,3.1,5.4,4.3-1.9,1.2-3.8,2.6-5.4,4.3L0,42.9l5.7,5.7,8.6-8.6c3.9-3.9,9.1-5.9,14.3-5.9,0,0,.1,0,.2,0,5.2,0,10.3,2,14.3,5.9l8.6,8.6,5.7-5.7-8.6-8.6c-1.7-1.7-3.5-3.1-5.4-4.3Z"/>
  <path class="st0" d="M20.1,45.8l-8.6,8.6,5.7,5.7,8.6-8.6c1.6-1.6,4.2-1.6,5.7,0l8.6,8.6,5.7-5.7-8.6-8.6c-4.7-4.7-12.5-4.7-17.2,0Z"/>
  <path class="st0" d="M37.3,14.4l8.6-8.6-5.7-5.7-8.6,8.6c-1.6,1.6-4.2,1.6-5.7,0L17.2,0l-5.7,5.7,8.6,8.6c4.7,4.7,12.5,4.7,17.2,0Z"/>
  <path class="st1" d="M77.9,15.7h-5v5.9h-3.8v4.1h3.8v14.1c0,2.3.6,4,1.7,5.1,1.1,1.1,2.9,1.6,5.3,1.6h4.6v-4.1h-3.6c-1,0-1.8-.2-2.3-.7-.5-.4-.8-1.2-.8-2.4v-13.8h6.6v-4.1h-6.6v-5.9Z"/>
  <rect class="st1" x="88.8" y="21.6" width="5" height="25"/>
  <rect class="st1" x="88.7" y="13" width="5.2" height="5"/>
  <path class="st1" d="M129.9,22.2c-1.2-.7-2.7-1.1-4.5-1.1s-2.6.3-3.6.8c-1.1.5-1.9,1.3-2.6,2.3-.4.6-.8,1.3-1,2.1-.4-1.4-1.2-2.5-2.2-3.4-1.3-1.2-3.1-1.8-5.2-1.8s-2.3.3-3.4.8c-1,.5-1.9,1.3-2.6,2.3-.4.5-.7,1.1-1,1.8v-4.3h-4.7v25h5v-14.6c0-1.4.2-2.6.7-3.6.4-1,1-1.8,1.8-2.3.8-.5,1.7-.8,2.7-.8,1.7,0,2.9.6,3.6,1.8.7,1.2,1.1,2.8,1.1,5v14.6h4.7v-14.6c0-1.4.2-2.6.6-3.6.4-1,1-1.8,1.8-2.3.8-.5,1.7-.8,2.7-.8,1.6,0,2.8.5,3.6,1.6.8,1.1,1.2,2.7,1.2,4.9v14.8h5v-16.1c0-2-.3-3.8-1-5.2-.6-1.4-1.6-2.5-2.8-3.2Z"/>
  <path class="st1" d="M153.1,41.8c-1,.7-2.2,1-3.7,1s-3.6-.6-4.8-1.8c-1.2-1.2-1.8-3.1-1.9-5.5h17.9v-1.3c0-2.8-.5-5.2-1.4-7.1-1-2-2.3-3.5-4-4.5-1.7-1-3.7-1.6-6-1.6s-4.4.5-6.2,1.6c-1.8,1.1-3.1,2.6-4.1,4.6-1,2-1.4,4.2-1.4,6.9s.5,4.9,1.4,6.9c1,2,2.3,3.5,4.1,4.6,1.8,1.1,3.9,1.6,6.3,1.6s5.1-.7,7-2.1c1.9-1.4,3.2-3.3,3.9-5.6l-5.2-.3c-.4,1.2-1,2.1-2,2.8ZM144.8,26.9c1.1-1.1,2.6-1.7,4.4-1.7s3.1.5,4.2,1.6c1.1,1.1,1.7,2.7,1.9,4.9h-12.7c.3-2.1,1-3.7,2.1-4.9Z"/>
  <polygon class="st1" points="186.6 21.4 178.9 21.4 173.7 29.5 168.3 21.4 160.8 21.4 169.6 33.8 160.6 46.6 168.2 46.6 173.8 38 179.3 46.6 186.8 46.6 177.9 33.9 186.6 21.4"/>
  <path class="st1" d="M199.3,15.5h-7v5.9h-4v5.3h4v12.3c0,2.6.6,4.5,1.8,5.8,1.2,1.2,3.1,1.8,5.7,1.8h6.1v-5.3h-3.5c-1,0-1.8-.2-2.3-.7-.5-.4-.8-1.3-.8-2.5v-11.5h6.6v-5.3h-6.6v-5.9Z"/>
  <path class="st1" d="M227.3,22.7c-1.8-1.1-4-1.6-6.5-1.6s-4.8.5-6.7,1.6c-1.9,1.1-3.3,2.6-4.4,4.6-1,2-1.6,4.3-1.6,6.9s.5,5,1.6,6.9c1,2,2.5,3.5,4.4,4.6,1.9,1.1,4.1,1.6,6.7,1.6s5.6-.7,7.7-2.1c2.1-1.4,3.5-3.4,4.2-5.9l-7.1-.4c-.3,1-.9,1.8-1.7,2.3-.8.5-1.8.8-3,.8s-2.9-.5-3.9-1.5c-1-1-1.5-2.5-1.6-4.5h17.7v-1.4c0-2.8-.5-5.2-1.5-7.3-1-2-2.4-3.6-4.3-4.7ZM215.5,31.7c.2-1.8.8-3.1,1.7-4.1,1-1,2.2-1.4,3.6-1.4s2.7.5,3.6,1.4c.9.9,1.4,2.3,1.5,4.1h-10.5Z"/>
  <path class="st1" d="M255.4,22c-1.3-.8-2.8-1.2-4.6-1.2s-2.6.3-3.8.8c-1.2.5-2.1,1.3-2.9,2.4-.3.4-.5.9-.8,1.5l-.2-4.1h-6.3v25.2h7v-13.8c0-2,.4-3.6,1.2-4.7.8-1.1,1.9-1.6,3.4-1.6s1.8.2,2.3.7c.6.5,1,1.2,1.2,2.1.2.9.3,2.1.3,3.4v13.8h7v-16.2c0-1.9-.3-3.6-1-5-.7-1.4-1.6-2.5-2.9-3.3Z"/>
  <path class="st1" d="M281,25c-.7-1.3-1.6-2.3-2.9-3-1.3-.7-2.8-1.1-4.6-1.1s-3.9.5-5.5,1.6c-1.5,1.1-2.7,2.6-3.6,4.6-.8,2-1.3,4.3-1.3,7s.4,5,1.2,7c.8,2,2,3.5,3.6,4.6,1.5,1.1,3.4,1.6,5.5,1.6s3.3-.4,4.7-1.1c1.4-.8,2.4-1.8,3.1-3.1v3.7h6.9V13.3h-7v11.7ZM280.3,38.3c-.4,1.1-1,2-1.8,2.6-.8.6-1.7.9-2.9.9-1.6,0-2.9-.7-3.9-2.1-1-1.4-1.5-3.3-1.5-5.6s.5-4.3,1.5-5.7c1-1.4,2.3-2.1,3.9-2.1s2.1.3,2.9.9c.8.6,1.4,1.4,1.8,2.6.4,1.1.6,2.6.6,4.3s-.2,3.1-.6,4.2Z"/>
  <path class="st1" d="M311,22.5c-1.8-1.1-4-1.6-6.5-1.6s-4.8.5-6.7,1.6c-1.9,1.1-3.3,2.6-4.4,4.6-1,2-1.6,4.3-1.6,6.9s.5,5,1.6,6.9c1,2,2.5,3.5,4.4,4.6,1.9,1.1,4.1,1.6,6.7,1.6s5.6-.7,7.7-2.1c2.1-1.4,3.5-3.4,4.2-5.9l-7.1-.4c-.3,1-.9,1.8-1.7,2.3-.8.5-1.8.8-3,.8s-2.9-.5-3.9-1.5c-1-1-1.5-2.5-1.6-4.5h17.7v-1.4c0-2.8-.5-5.2-1.5-7.3-1-2-2.4-3.6-4.3-4.7ZM299.2,31.6c.2-1.8.8-3.1,1.7-4.1,1-1,2.2-1.4,3.6-1.4s2.7.5,3.6,1.4c.9.9,1.4,2.3,1.5,4.1h-10.5Z"/>
  <path class="st1" d="M333.5,21.4c-1.8,0-3.2.6-4.3,1.7-.7.8-1.3,1.9-1.7,3.4l-.2-5.1h-6.7v25.2h7v-14.1c0-1.3.2-2.3.6-3.1.4-.8,1.1-1.3,1.9-1.6.8-.3,1.9-.5,3.2-.5h2.3v-5.8h-2.3Z"/>
</svg>