<svg width="107" height="76" viewBox="0 0 107 76" fill="none" xmlns="http://www.w3.org/2000/svg">
<g clip-path="url(#clip0_129_193)">
<path d="M51.4433 0.0371094L33.4744 31.1175H69.4168L51.4433 0.0371094ZM51.4433 14.967L56.463 23.6502H46.4235L51.4433 14.967Z" fill="#2C2347"/>
<path d="M21.1992 6.64118V16.0019C21.1992 20.4433 17.5785 24.0586 13.1304 24.0586C10.0116 24.0586 7.3019 22.2811 5.95865 19.6915L0 24.7965C2.83989 29.0151 7.65979 31.7858 13.1304 31.7858C21.8592 31.7858 28.938 24.7176 28.938 16.0019V0.013916L21.1992 6.64118Z" fill="#2C2347"/>
<path d="M92.4426 12.4702L77.8806 0V31.0664H107V0L92.4426 12.4702Z" fill="#2C2347"/>
<path d="M6.20974 10.5952C9.12864 10.5952 11.4991 8.23301 11.4991 5.31386C11.4991 2.39471 9.13329 0.0371094 6.20974 0.0371094C3.2862 0.0371094 0.925049 2.39935 0.925049 5.31386C0.925049 8.22836 3.29085 10.5952 6.21439 10.5952H6.20974Z" fill="#2C2347"/>
<path d="M0.883057 63.6877C0.883057 61.3022 1.39898 59.1859 2.43082 57.3342C3.46266 55.4871 4.96394 54.0299 6.93466 52.9671C8.90538 51.9043 11.3084 51.3752 14.1343 51.3752C20.7111 51.3752 24.699 54.0902 26.1027 59.5201L20.3811 60.1791C19.8745 58.7543 19.1308 57.7287 18.1455 57.0929C17.1601 56.4571 15.8215 56.1415 14.1343 56.1415C11.8754 56.1415 10.1045 56.7959 8.82172 58.1092C7.53889 59.4226 6.89748 61.2837 6.89748 63.6923C6.89748 66.1009 7.53889 67.962 8.82172 69.2753C10.1045 70.5887 11.9079 71.2431 14.2319 71.2431C17.8945 71.2431 20.0418 69.8415 20.6786 67.0384H26.4978C26.1678 69.8833 24.9268 72.0878 22.7655 73.6564C20.6042 75.2204 17.7272 76.0047 14.1343 76.0047C11.2851 76.0047 8.87285 75.4849 6.90213 74.4454C4.9314 73.4058 3.43477 71.9625 2.41223 70.1107C1.39433 68.259 0.883057 66.1195 0.883057 63.6923V63.6877Z" fill="#2C2347"/>
<path d="M41.0691 51.9646H52.7772C59.461 51.9646 62.8075 54.4707 62.8075 59.4829C62.8075 61.1258 62.4449 62.467 61.7245 63.5066C60.9994 64.5462 59.9397 65.363 58.536 65.9524L64.3227 75.4106H58.0108L53.1119 67.0709H46.5676V75.4106H41.0784V51.9692L41.0691 51.9646ZM57.1835 59.4829C57.1835 58.3227 56.8116 57.5012 56.0633 57.0186C55.3196 56.5359 54.1112 56.2946 52.4472 56.2946H46.5629V62.7316H52.3822C54.0043 62.7316 55.2081 62.4763 55.9982 61.9612C56.7884 61.446 57.1835 60.6199 57.1835 59.4829Z" fill="#2C2347"/>
<path d="M77.8667 51.9646H84.5411L92.5309 69.201L100.488 51.9646H107V75.406H101.608V59.9099L94.5714 75.406H90.1977L83.1607 59.9424V75.406H77.8667V51.9646Z" fill="#2C2347"/>
</g>
<defs>
<clipPath id="clip0_129_193">
<rect width="107" height="76" fill="white"/>
</clipPath>
</defs>
</svg>
