					<svg width="686" height="477" viewBox="0 0 686 477" fill="none" xmlns="http://www.w3.org/2000/svg">
						<path
							d="M685.761 238.895C685.761 182.165 646.029 134.717 592.917 122.809C592.88 122.809 592.843 122.772 592.806 122.698C578.28 73.4009 532.745 37.4176 478.783 37.4176C463.593 37.4176 449.104 40.3022 435.762 45.4796C435.725 45.4796 435.651 45.4796 435.614 45.4426C413.807 18.298 380.395 0.916504 342.88 0.916504C305.366 0.916504 271.954 18.298 250.147 45.4426C250.147 45.4796 250.036 45.5166 249.999 45.4796C236.657 40.3022 222.168 37.4176 206.977 37.4176C153.016 37.4176 107.48 73.4009 92.9551 122.698C92.9551 122.735 92.9181 122.772 92.8442 122.809C39.7323 134.717 0 182.165 0 238.895C0 295.625 39.7323 343.073 92.8442 354.981C92.8811 354.981 92.9181 355.018 92.9551 355.092C107.48 404.388 153.016 440.372 206.977 440.372C222.168 440.372 236.657 437.487 249.999 432.31C250.036 432.31 250.11 432.31 250.147 432.347C271.954 459.491 305.366 476.873 342.88 476.873C380.395 476.873 413.807 459.491 435.614 432.347C435.614 432.31 435.725 432.273 435.762 432.31C449.104 437.487 463.593 440.372 478.783 440.372C532.745 440.372 578.28 404.388 592.806 355.092C592.806 355.055 592.843 355.018 592.917 354.981C646.065 343.11 685.761 295.662 685.761 238.895Z"
							fill="#00F0A4" />
						<path
							d="M246.884 180.336H239.144L229.304 145.896H230.144L220.244 180.336H212.504L199.904 137.436H207.284L217.484 174.936H215.624L226.424 137.436H233.024L243.824 174.936H242.144L252.284 137.436H259.484L246.884 180.336ZM286.265 171.276L290.105 175.476C288.545 177.276 286.605 178.696 284.285 179.736C281.965 180.776 279.385 181.296 276.545 181.296C273.185 181.296 270.205 180.616 267.605 179.256C265.045 177.896 263.025 176.016 261.545 173.616C260.105 171.216 259.385 168.476 259.385 165.396C259.385 162.276 260.085 159.516 261.485 157.116C262.885 154.716 264.805 152.836 267.245 151.476C269.685 150.116 272.425 149.436 275.465 149.436C278.425 149.436 281.045 150.116 283.325 151.476C285.605 152.796 287.405 154.636 288.725 156.996C290.045 159.316 290.705 162.016 290.705 165.096V165.456H284.045V164.796C284.045 162.796 283.665 161.056 282.905 159.576C282.185 158.056 281.185 156.896 279.905 156.096C278.625 155.256 277.125 154.836 275.405 154.836C273.605 154.836 272.005 155.276 270.605 156.156C269.245 156.996 268.185 158.196 267.425 159.756C266.665 161.276 266.285 163.116 266.285 165.276C266.285 167.436 266.725 169.316 267.605 170.916C268.525 172.516 269.765 173.756 271.325 174.636C272.925 175.476 274.765 175.896 276.845 175.896C280.645 175.896 283.785 174.356 286.265 171.276ZM290.705 167.496H264.065V162.936H289.745L290.705 165.156V167.496ZM337.369 180.336H330.649V163.056C330.649 160.376 330.049 158.376 328.849 157.056C327.649 155.736 326.029 155.076 323.989 155.076C322.509 155.076 321.109 155.456 319.789 156.216C318.509 156.976 317.469 158.176 316.669 159.816C315.869 161.456 315.469 163.576 315.469 166.176V180.336H308.749V137.136H315.469V159.636H314.569C314.969 156.996 315.729 154.956 316.849 153.516C318.009 152.036 319.369 150.996 320.929 150.396C322.489 149.756 324.089 149.436 325.729 149.436C329.329 149.436 332.169 150.536 334.249 152.736C336.329 154.936 337.369 158.136 337.369 162.336V180.336ZM371.372 180.336H365.192V174.396L364.892 173.136V161.916C364.892 159.676 364.172 157.936 362.732 156.696C361.292 155.416 359.332 154.776 356.852 154.776C355.052 154.776 353.372 155.136 351.812 155.856C350.292 156.576 348.972 157.576 347.852 158.856L344.012 154.656C345.652 153.016 347.572 151.736 349.772 150.816C351.972 149.896 354.412 149.436 357.092 149.436C359.932 149.436 362.412 149.936 364.532 150.936C366.692 151.896 368.372 153.296 369.572 155.136C370.772 156.976 371.372 159.176 371.372 161.736V180.336ZM354.572 181.296C352.292 181.296 350.272 180.876 348.512 180.036C346.752 179.196 345.392 178.056 344.432 176.616C343.472 175.176 342.992 173.496 342.992 171.576C342.992 169.496 343.592 167.736 344.792 166.296C345.992 164.816 347.652 163.696 349.772 162.936C351.932 162.136 354.412 161.736 357.212 161.736H365.612V166.356H357.812C355.452 166.356 353.532 166.776 352.052 167.616C350.612 168.456 349.892 169.696 349.892 171.336C349.892 172.816 350.452 173.996 351.572 174.876C352.692 175.716 354.152 176.136 355.952 176.136C357.672 176.136 359.252 175.776 360.692 175.056C362.132 174.336 363.272 173.356 364.112 172.116C364.992 170.836 365.492 169.376 365.612 167.736L367.772 168.756C367.772 171.196 367.212 173.376 366.092 175.296C364.972 177.176 363.412 178.656 361.412 179.736C359.412 180.776 357.132 181.296 354.572 181.296ZM393.692 180.336H387.152L374.312 150.396H381.332L391.412 175.956H389.552L399.692 150.396H406.472L393.692 180.336ZM435.269 171.276L439.109 175.476C437.549 177.276 435.609 178.696 433.289 179.736C430.969 180.776 428.389 181.296 425.549 181.296C422.189 181.296 419.209 180.616 416.609 179.256C414.049 177.896 412.029 176.016 410.549 173.616C409.109 171.216 408.389 168.476 408.389 165.396C408.389 162.276 409.089 159.516 410.489 157.116C411.889 154.716 413.809 152.836 416.249 151.476C418.689 150.116 421.429 149.436 424.469 149.436C427.429 149.436 430.049 150.116 432.329 151.476C434.609 152.796 436.409 154.636 437.729 156.996C439.049 159.316 439.709 162.016 439.709 165.096V165.456H433.049V164.796C433.049 162.796 432.669 161.056 431.909 159.576C431.189 158.056 430.189 156.896 428.909 156.096C427.629 155.256 426.129 154.836 424.409 154.836C422.609 154.836 421.009 155.276 419.609 156.156C418.249 156.996 417.189 158.196 416.429 159.756C415.669 161.276 415.289 163.116 415.289 165.276C415.289 167.436 415.729 169.316 416.609 170.916C417.529 172.516 418.769 173.756 420.329 174.636C421.929 175.476 423.769 175.896 425.849 175.896C429.649 175.896 432.789 174.356 435.269 171.276ZM439.709 167.496H413.069V162.936H438.749L439.709 165.156V167.496ZM484.693 180.336H478.513V174.396L478.213 173.136V161.916C478.213 159.676 477.493 157.936 476.053 156.696C474.613 155.416 472.653 154.776 470.173 154.776C468.373 154.776 466.693 155.136 465.133 155.856C463.613 156.576 462.293 157.576 461.173 158.856L457.333 154.656C458.973 153.016 460.893 151.736 463.093 150.816C465.293 149.896 467.733 149.436 470.413 149.436C473.253 149.436 475.733 149.936 477.853 150.936C480.013 151.896 481.693 153.296 482.893 155.136C484.093 156.976 484.693 159.176 484.693 161.736V180.336ZM467.893 181.296C465.613 181.296 463.593 180.876 461.833 180.036C460.073 179.196 458.713 178.056 457.753 176.616C456.793 175.176 456.313 173.496 456.313 171.576C456.313 169.496 456.913 167.736 458.113 166.296C459.313 164.816 460.973 163.696 463.093 162.936C465.253 162.136 467.733 161.736 470.533 161.736H478.933V166.356H471.133C468.773 166.356 466.853 166.776 465.373 167.616C463.933 168.456 463.213 169.696 463.213 171.336C463.213 172.816 463.773 173.996 464.893 174.876C466.013 175.716 467.473 176.136 469.273 176.136C470.993 176.136 472.573 175.776 474.013 175.056C475.453 174.336 476.593 173.356 477.433 172.116C478.313 170.836 478.813 169.376 478.933 167.736L481.093 168.756C481.093 171.196 480.533 173.376 479.413 175.296C478.293 177.176 476.733 178.656 474.733 179.736C472.733 180.776 470.453 181.296 467.893 181.296ZM141.787 250.336H134.407C131.887 250.336 129.987 249.696 128.707 248.416C127.427 247.096 126.787 245.196 126.787 242.716V212.176H133.507V241.696C133.507 242.736 133.747 243.516 134.227 244.036C134.707 244.516 135.467 244.756 136.507 244.756H141.787V250.336ZM141.367 225.856H121.207V220.396H141.367V225.856ZM176.236 250.336H169.516V233.056C169.516 230.376 168.916 228.376 167.716 227.056C166.516 225.736 164.896 225.076 162.856 225.076C161.376 225.076 159.976 225.456 158.656 226.216C157.376 226.976 156.336 228.176 155.536 229.816C154.736 231.456 154.336 233.576 154.336 236.176V250.336H147.616V207.136H154.336V229.636H153.436C153.836 226.996 154.596 224.956 155.716 223.516C156.876 222.036 158.236 220.996 159.796 220.396C161.356 219.756 162.956 219.436 164.596 219.436C168.196 219.436 171.036 220.536 173.116 222.736C175.196 224.936 176.236 228.136 176.236 232.336V250.336ZM208.98 241.276L212.82 245.476C211.26 247.276 209.32 248.696 207 249.736C204.68 250.776 202.1 251.296 199.26 251.296C195.9 251.296 192.92 250.616 190.32 249.256C187.76 247.896 185.74 246.016 184.26 243.616C182.82 241.216 182.1 238.476 182.1 235.396C182.1 232.276 182.8 229.516 184.2 227.116C185.6 224.716 187.52 222.836 189.96 221.476C192.4 220.116 195.14 219.436 198.18 219.436C201.14 219.436 203.76 220.116 206.04 221.476C208.32 222.796 210.12 224.636 211.44 226.996C212.76 229.316 213.42 232.016 213.42 235.096V235.456H206.76V234.796C206.76 232.796 206.38 231.056 205.62 229.576C204.9 228.056 203.9 226.896 202.62 226.096C201.34 225.256 199.84 224.836 198.12 224.836C196.32 224.836 194.72 225.276 193.32 226.156C191.96 226.996 190.9 228.196 190.14 229.756C189.38 231.276 189 233.116 189 235.276C189 237.436 189.44 239.316 190.32 240.916C191.24 242.516 192.48 243.756 194.04 244.636C195.64 245.476 197.48 245.896 199.56 245.896C203.36 245.896 206.5 244.356 208.98 241.276ZM213.42 237.496H186.78V232.936H212.46L213.42 235.156V237.496ZM234.865 251.296C231.705 251.296 228.885 250.616 226.405 249.256C223.965 247.896 222.045 246.016 220.645 243.616C219.245 241.216 218.545 238.456 218.545 235.336C218.545 232.256 219.245 229.516 220.645 227.116C222.045 224.716 223.965 222.836 226.405 221.476C228.885 220.116 231.705 219.436 234.865 219.436C238.065 219.436 240.885 220.116 243.325 221.476C245.805 222.836 247.725 224.716 249.085 227.116C250.485 229.516 251.185 232.256 251.185 235.336C251.185 238.456 250.485 241.216 249.085 243.616C247.725 246.016 245.805 247.896 243.325 249.256C240.885 250.616 238.065 251.296 234.865 251.296ZM234.865 245.656C236.745 245.656 238.385 245.216 239.785 244.336C241.185 243.456 242.265 242.256 243.025 240.736C243.825 239.176 244.225 237.376 244.225 235.336C244.225 233.336 243.825 231.576 243.025 230.056C242.265 228.496 241.185 227.276 239.785 226.396C238.385 225.516 236.745 225.076 234.865 225.076C233.025 225.076 231.405 225.516 230.005 226.396C228.605 227.276 227.505 228.496 226.705 230.056C225.945 231.576 225.565 233.336 225.565 235.336C225.565 237.376 225.945 239.176 226.705 240.736C227.505 242.256 228.605 243.456 230.005 244.336C231.405 245.216 233.025 245.656 234.865 245.656ZM275.181 219.856V226.096H273.741C271.901 226.096 270.261 226.496 268.821 227.296C267.381 228.096 266.241 229.336 265.401 231.016C264.561 232.696 264.141 234.896 264.141 237.616V250.336H257.421V220.396H264.081V230.056H263.181C263.581 227.456 264.361 225.416 265.521 223.936C266.681 222.456 268.041 221.416 269.601 220.816C271.161 220.176 272.721 219.856 274.281 219.856H275.181ZM303.305 220.396H310.085L295.505 254.476C294.505 256.916 293.205 258.776 291.605 260.056C290.005 261.336 287.825 261.976 285.065 261.976H281.465V256.396H284.765C286.005 256.396 287.025 256.096 287.825 255.496C288.665 254.936 289.325 254.076 289.805 252.916L290.825 250.396L277.925 220.396H284.945L295.265 246.616H292.925L303.305 220.396ZM353.56 250.336H347.38V244.396L347.08 243.136V231.916C347.08 229.676 346.36 227.936 344.92 226.696C343.48 225.416 341.52 224.776 339.04 224.776C337.24 224.776 335.56 225.136 334 225.856C332.48 226.576 331.16 227.576 330.04 228.856L326.2 224.656C327.84 223.016 329.76 221.736 331.96 220.816C334.16 219.896 336.6 219.436 339.28 219.436C342.12 219.436 344.6 219.936 346.72 220.936C348.88 221.896 350.56 223.296 351.76 225.136C352.96 226.976 353.56 229.176 353.56 231.736V250.336ZM336.76 251.296C334.48 251.296 332.46 250.876 330.7 250.036C328.94 249.196 327.58 248.056 326.62 246.616C325.66 245.176 325.18 243.496 325.18 241.576C325.18 239.496 325.78 237.736 326.98 236.296C328.18 234.816 329.84 233.696 331.96 232.936C334.12 232.136 336.6 231.736 339.4 231.736H347.8V236.356H340C337.64 236.356 335.72 236.776 334.24 237.616C332.8 238.456 332.08 239.696 332.08 241.336C332.08 242.816 332.64 243.996 333.76 244.876C334.88 245.716 336.34 246.136 338.14 246.136C339.86 246.136 341.44 245.776 342.88 245.056C344.32 244.336 345.46 243.356 346.3 242.116C347.18 240.836 347.68 239.376 347.8 237.736L349.96 238.756C349.96 241.196 349.4 243.376 348.28 245.296C347.16 247.176 345.6 248.656 343.6 249.736C341.6 250.776 339.32 251.296 336.76 251.296ZM367.264 250.336H360.604V207.136H367.324V229.636H365.704C366.024 227.636 366.744 225.876 367.864 224.356C368.984 222.836 370.424 221.636 372.184 220.756C373.944 219.876 375.924 219.436 378.124 219.436C380.924 219.436 383.444 220.116 385.684 221.476C387.964 222.836 389.764 224.716 391.084 227.116C392.404 229.516 393.064 232.256 393.064 235.336C393.064 238.456 392.384 241.216 391.024 243.616C389.704 246.016 387.904 247.896 385.624 249.256C383.344 250.616 380.764 251.296 377.884 251.296C375.244 251.296 372.964 250.756 371.044 249.676C369.124 248.556 367.664 247.056 366.664 245.176C365.704 243.256 365.304 241.116 365.464 238.756L366.844 237.676C367.044 239.236 367.584 240.616 368.464 241.816C369.344 243.016 370.484 243.956 371.884 244.636C373.284 245.316 374.804 245.656 376.444 245.656C378.404 245.656 380.084 245.216 381.484 244.336C382.924 243.456 384.044 242.236 384.844 240.676C385.644 239.116 386.044 237.336 386.044 235.336C386.044 233.376 385.664 231.616 384.904 230.056C384.144 228.496 383.064 227.276 381.664 226.396C380.304 225.516 378.704 225.076 376.864 225.076C375.024 225.076 373.384 225.536 371.944 226.456C370.504 227.336 369.364 228.576 368.524 230.176C367.724 231.776 367.324 233.656 367.324 235.816V242.596L367.264 242.896V250.336ZM414.396 251.296C411.236 251.296 408.416 250.616 405.936 249.256C403.496 247.896 401.576 246.016 400.176 243.616C398.776 241.216 398.076 238.456 398.076 235.336C398.076 232.256 398.776 229.516 400.176 227.116C401.576 224.716 403.496 222.836 405.936 221.476C408.416 220.116 411.236 219.436 414.396 219.436C417.596 219.436 420.416 220.116 422.856 221.476C425.336 222.836 427.256 224.716 428.616 227.116C430.016 229.516 430.716 232.256 430.716 235.336C430.716 238.456 430.016 241.216 428.616 243.616C427.256 246.016 425.336 247.896 422.856 249.256C420.416 250.616 417.596 251.296 414.396 251.296ZM414.396 245.656C416.276 245.656 417.916 245.216 419.316 244.336C420.716 243.456 421.796 242.256 422.556 240.736C423.356 239.176 423.756 237.376 423.756 235.336C423.756 233.336 423.356 231.576 422.556 230.056C421.796 228.496 420.716 227.276 419.316 226.396C417.916 225.516 416.276 225.076 414.396 225.076C412.556 225.076 410.936 225.516 409.536 226.396C408.136 227.276 407.036 228.496 406.236 230.056C405.476 231.576 405.096 233.336 405.096 235.336C405.096 237.376 405.476 239.176 406.236 240.736C407.036 242.256 408.136 243.456 409.536 244.336C410.936 245.216 412.556 245.656 414.396 245.656ZM465.032 250.336H458.372V244.576L458.312 242.896V220.396H465.032V250.336ZM458.792 237.676L460.172 238.816C460.292 241.256 459.852 243.416 458.852 245.296C457.852 247.176 456.432 248.656 454.592 249.736C452.792 250.776 450.672 251.296 448.232 251.296C444.712 251.296 441.892 250.236 439.772 248.116C437.652 245.996 436.592 242.936 436.592 238.936V220.396H443.312V238.276C443.312 240.676 443.912 242.516 445.112 243.796C446.312 245.036 447.952 245.656 450.032 245.656C451.512 245.656 452.872 245.316 454.112 244.636C455.392 243.956 456.452 243.016 457.292 241.816C458.132 240.616 458.632 239.236 458.792 237.676ZM491.298 250.336H483.918C481.398 250.336 479.498 249.696 478.218 248.416C476.938 247.096 476.298 245.196 476.298 242.716V212.176H483.018V241.696C483.018 242.736 483.258 243.516 483.738 244.036C484.218 244.516 484.978 244.756 486.018 244.756H491.298V250.336ZM490.878 225.856H470.718V220.396H490.878V225.856ZM540.046 240.016H515.326V234.136H540.046V240.016ZM548.566 250.336H541.246L526.546 212.116H528.826L514.126 250.336H507.046L524.026 207.436H531.586L548.566 250.336ZM561.938 250.336H555.038V207.436H561.938V250.336ZM168.574 320.336H161.854V290.396H168.574V320.336ZM165.214 284.216C164.054 284.216 163.054 283.816 162.214 283.016C161.374 282.216 160.954 281.256 160.954 280.136C160.954 278.936 161.374 277.936 162.214 277.136C163.054 276.336 164.054 275.936 165.214 275.936C166.414 275.936 167.414 276.336 168.214 277.136C169.054 277.936 169.474 278.916 169.474 280.076C169.474 281.236 169.054 282.216 168.214 283.016C167.414 283.816 166.414 284.216 165.214 284.216ZM204.713 320.336H197.993V303.056C197.993 300.376 197.393 298.376 196.193 297.056C194.993 295.736 193.373 295.076 191.333 295.076C189.853 295.076 188.453 295.456 187.133 296.216C185.853 296.976 184.813 298.176 184.013 299.816C183.213 301.456 182.813 303.576 182.813 306.176V320.336H176.093V290.396H182.753V299.636H181.853C182.253 296.996 183.033 294.956 184.193 293.516C185.353 292.036 186.713 290.996 188.273 290.396C189.833 289.756 191.433 289.436 193.073 289.436C196.673 289.436 199.513 290.536 201.593 292.736C203.673 294.936 204.713 298.136 204.713 302.336V320.336ZM271.555 320.336H264.835V302.876C264.835 300.276 264.275 298.336 263.155 297.056C262.075 295.736 260.615 295.076 258.775 295.076C257.415 295.076 256.135 295.456 254.935 296.216C253.735 296.976 252.755 298.156 251.995 299.756C251.275 301.356 250.915 303.436 250.915 305.996V320.336H244.195V302.876C244.195 300.276 243.635 298.336 242.515 297.056C241.435 295.736 239.975 295.076 238.135 295.076C236.775 295.076 235.475 295.456 234.235 296.216C233.035 296.976 232.055 298.156 231.295 299.756C230.575 301.356 230.215 303.436 230.215 305.996V320.336H223.495V290.396H230.155V297.296L229.735 297.236C230.295 295.236 231.115 293.676 232.195 292.556C233.275 291.436 234.495 290.636 235.855 290.156C237.215 289.676 238.575 289.436 239.935 289.436C242.535 289.436 244.695 290.156 246.415 291.596C248.135 292.996 249.275 295.076 249.835 297.836L249.055 297.896C249.655 295.776 250.535 294.096 251.695 292.856C252.895 291.616 254.255 290.736 255.775 290.216C257.295 289.696 258.815 289.436 260.335 289.436C263.855 289.436 266.595 290.536 268.555 292.736C270.555 294.936 271.555 298.136 271.555 302.336V320.336ZM305.572 320.336H299.392V314.396L299.092 313.136V301.916C299.092 299.676 298.372 297.936 296.932 296.696C295.492 295.416 293.532 294.776 291.052 294.776C289.252 294.776 287.572 295.136 286.012 295.856C284.492 296.576 283.172 297.576 282.052 298.856L278.212 294.656C279.852 293.016 281.772 291.736 283.972 290.816C286.172 289.896 288.612 289.436 291.292 289.436C294.132 289.436 296.612 289.936 298.732 290.936C300.892 291.896 302.572 293.296 303.772 295.136C304.972 296.976 305.572 299.176 305.572 301.736V320.336ZM288.772 321.296C286.492 321.296 284.472 320.876 282.712 320.036C280.952 319.196 279.592 318.056 278.632 316.616C277.672 315.176 277.192 313.496 277.192 311.576C277.192 309.496 277.792 307.736 278.992 306.296C280.192 304.816 281.852 303.696 283.972 302.936C286.132 302.136 288.612 301.736 291.412 301.736H299.812V306.356H292.012C289.652 306.356 287.732 306.776 286.252 307.616C284.812 308.456 284.092 309.696 284.092 311.336C284.092 312.816 284.652 313.996 285.772 314.876C286.892 315.716 288.352 316.136 290.152 316.136C291.872 316.136 293.452 315.776 294.892 315.056C296.332 314.336 297.472 313.356 298.312 312.116C299.192 310.836 299.692 309.376 299.812 307.736L301.972 308.756C301.972 311.196 301.412 313.376 300.292 315.296C299.172 317.176 297.612 318.656 295.612 319.736C293.612 320.776 291.332 321.296 288.772 321.296ZM330.376 289.856V296.096H328.936C327.096 296.096 325.456 296.496 324.016 297.296C322.576 298.096 321.436 299.336 320.596 301.016C319.756 302.696 319.336 304.896 319.336 307.616V320.336H312.616V290.396H319.276V300.056H318.376C318.776 297.456 319.556 295.416 320.716 293.936C321.876 292.456 323.236 291.416 324.796 290.816C326.356 290.176 327.916 289.856 329.476 289.856H330.376ZM342.481 320.336H335.761V277.136H342.481V320.336ZM366.421 320.336H357.541L340.801 304.796H341.401L356.341 290.396H364.681L348.781 305.396V304.256L366.421 320.336ZM393.667 311.276L397.507 315.476C395.947 317.276 394.007 318.696 391.687 319.736C389.367 320.776 386.787 321.296 383.947 321.296C380.587 321.296 377.607 320.616 375.007 319.256C372.447 317.896 370.427 316.016 368.947 313.616C367.507 311.216 366.787 308.476 366.787 305.396C366.787 302.276 367.487 299.516 368.887 297.116C370.287 294.716 372.207 292.836 374.647 291.476C377.087 290.116 379.827 289.436 382.867 289.436C385.827 289.436 388.447 290.116 390.727 291.476C393.007 292.796 394.807 294.636 396.127 296.996C397.447 299.316 398.107 302.016 398.107 305.096V305.456H391.447V304.796C391.447 302.796 391.067 301.056 390.307 299.576C389.587 298.056 388.587 296.896 387.307 296.096C386.027 295.256 384.527 294.836 382.807 294.836C381.007 294.836 379.407 295.276 378.007 296.156C376.647 296.996 375.587 298.196 374.827 299.756C374.067 301.276 373.687 303.116 373.687 305.276C373.687 307.436 374.127 309.316 375.007 310.916C375.927 312.516 377.167 313.756 378.727 314.636C380.327 315.476 382.167 315.896 384.247 315.896C388.047 315.896 391.187 314.356 393.667 311.276ZM398.107 307.496H371.467V302.936H397.147L398.107 305.156V307.496ZM422.041 320.336H414.661C412.141 320.336 410.241 319.696 408.961 318.416C407.681 317.096 407.041 315.196 407.041 312.716V282.176H413.761V311.696C413.761 312.736 414.001 313.516 414.481 314.036C414.961 314.516 415.721 314.756 416.761 314.756H422.041V320.336ZM421.621 295.856H401.461V290.396H421.621V295.856ZM434.59 320.336H427.87V290.396H434.59V320.336ZM431.23 284.216C430.07 284.216 429.07 283.816 428.23 283.016C427.39 282.216 426.97 281.256 426.97 280.136C426.97 278.936 427.39 277.936 428.23 277.136C429.07 276.336 430.07 275.936 431.23 275.936C432.43 275.936 433.43 276.336 434.23 277.136C435.07 277.936 435.49 278.916 435.49 280.076C435.49 281.236 435.07 282.216 434.23 283.016C433.43 283.816 432.43 284.216 431.23 284.216ZM470.728 320.336H464.008V303.056C464.008 300.376 463.408 298.376 462.208 297.056C461.008 295.736 459.388 295.076 457.348 295.076C455.868 295.076 454.468 295.456 453.148 296.216C451.868 296.976 450.828 298.176 450.028 299.816C449.228 301.456 448.828 303.576 448.828 306.176V320.336H442.108V290.396H448.768V299.636H447.868C448.268 296.996 449.048 294.956 450.208 293.516C451.368 292.036 452.728 290.996 454.288 290.396C455.848 289.756 457.448 289.436 459.088 289.436C462.688 289.436 465.528 290.536 467.608 292.736C469.688 294.936 470.728 298.136 470.728 302.336V320.336ZM509.052 317.036C509.052 320.196 508.332 322.956 506.892 325.316C505.452 327.716 503.472 329.576 500.952 330.896C498.472 332.256 495.612 332.936 492.372 332.936C489.532 332.936 486.912 332.456 484.512 331.496C482.112 330.576 480.132 329.296 478.572 327.656L482.472 323.156C483.632 324.476 484.992 325.496 486.552 326.216C488.152 326.976 489.992 327.356 492.072 327.356C494.152 327.356 495.952 326.936 497.472 326.096C499.032 325.256 500.232 324.096 501.072 322.616C501.912 321.136 502.332 319.376 502.332 317.336V305.816C502.332 303.456 501.892 301.496 501.012 299.936C500.132 298.336 498.992 297.136 497.592 296.336C496.192 295.496 494.632 295.076 492.912 295.076C491.072 295.076 489.452 295.516 488.052 296.396C486.652 297.276 485.552 298.476 484.752 299.996C483.992 301.476 483.612 303.156 483.612 305.036C483.612 306.956 484.012 308.656 484.812 310.136C485.612 311.616 486.732 312.776 488.172 313.616C489.612 314.456 491.292 314.876 493.212 314.876C494.852 314.876 496.352 314.556 497.712 313.916C499.112 313.236 500.252 312.296 501.132 311.096C502.052 309.896 502.612 308.516 502.812 306.956L504.252 308.036C504.452 310.396 504.032 312.536 502.992 314.456C501.992 316.336 500.512 317.836 498.552 318.956C496.632 320.036 494.372 320.576 491.772 320.576C488.932 320.576 486.352 319.936 484.032 318.656C481.752 317.336 479.932 315.516 478.572 313.196C477.252 310.836 476.592 308.136 476.592 305.096C476.592 302.016 477.272 299.316 478.632 296.996C479.992 294.636 481.812 292.796 484.092 291.476C486.372 290.116 488.892 289.436 491.652 289.436C493.772 289.436 495.672 289.836 497.352 290.636C499.072 291.436 500.492 292.596 501.612 294.116C502.772 295.636 503.512 297.476 503.832 299.636H502.392V290.396H509.052V317.036ZM524.624 316.616C524.624 317.816 524.184 318.836 523.304 319.676C522.464 320.516 521.424 320.936 520.184 320.936C518.984 320.936 517.944 320.516 517.064 319.676C516.224 318.836 515.804 317.816 515.804 316.616C515.804 315.416 516.224 314.396 517.064 313.556C517.944 312.716 518.984 312.296 520.184 312.296C521.424 312.296 522.464 312.716 523.304 313.556C524.184 314.396 524.624 315.416 524.624 316.616Z"
							fill="#2C2347" />
					</svg>