<?xml version="1.0" encoding="UTF-8"?> <svg xmlns="http://www.w3.org/2000/svg" id="Layer_1" viewBox="0 0 231 109"><defs><style>.cls-1{fill:#10a2dc;}.cls-1,.cls-2,.cls-3,.cls-4,.cls-5{stroke-width:0px;}.cls-2{fill:#002d5b;}.cls-3{fill:#00b5ef;}.cls-4{fill:#00a9b7;}.cls-5{fill:#007fa4;}</style></defs><path class="cls-2" d="M31.34,26.77c0-2.5,1.79-4.4,5.05-4.4s5.05,1.9,5.05,4.4-1.96,4.35-5.05,4.35-5.05-1.9-5.05-4.35ZM32.21,59.76v-22.72c0-1.68.92-2.61,2.61-2.61h3.15c1.68,0,2.66.92,2.66,2.61v22.72c0,1.68-.98,2.61-2.66,2.61h-3.15c-1.68,0-2.61-.92-2.61-2.61Z"></path><path class="cls-2" d="M55.85,58.46v1.3c0,1.68-.98,2.61-2.66,2.61h-3.15c-1.68,0-2.61-.92-2.61-2.61V25.69c0-1.68.92-2.61,2.61-2.61h3.15c1.68,0,2.66.92,2.66,2.61v12.72c2.01-3.15,5.27-4.57,8.91-4.57,7.88,0,13.48,6.36,13.48,14.56s-5.6,14.56-13.48,14.56c-3.64,0-6.9-1.41-8.91-4.51ZM69.82,48.4c0-4.29-2.61-7.83-6.96-7.83s-7.12,3.37-7.17,7.83c.05,4.46,2.83,7.83,7.17,7.83s6.96-3.48,6.96-7.83Z"></path><path class="cls-2" d="M83.3,59.76v-22.72c0-1.68.92-2.61,2.61-2.61h2.99c1.68,0,2.61.92,2.61,2.61v3.48c.92-5.11,4.84-6.68,7.23-6.68l.92.05c1.3.11,1.58,1.14,1.58,2.23v3.8c0,1.52-.76,2.17-1.9,2.01-.49-.05-.92-.11-1.36-.11-3.26,0-6.25,2.12-6.25,9.13v8.8c0,1.68-.92,2.61-2.61,2.61h-3.21c-1.68,0-2.61-.92-2.61-2.61Z"></path><path class="cls-2" d="M103.19,48.4c0-8.21,5.6-14.56,13.42-14.56,3.69,0,6.96,1.41,8.97,4.57v-1.36c0-1.68.92-2.61,2.61-2.61h3.21c1.68,0,2.61.92,2.61,2.61v22.72c0,1.68-.92,2.61-2.61,2.61h-3.21c-1.68,0-2.61-.92-2.61-2.61v-1.3c-2.01,3.1-5.27,4.51-8.97,4.51-7.83,0-13.42-6.3-13.42-14.56ZM125.69,48.4c0-4.46-2.83-7.83-7.12-7.83s-6.96,3.53-6.96,7.83,2.55,7.83,6.96,7.83,7.12-3.37,7.12-7.83Z"></path><path class="cls-3" d="M193.98,30.99l-13.19-13.19c-3.1-3.1-8.12-3.1-11.22,0l-20.32,20.32c-5,5-1.46,13.55,5.61,13.55h19.51c.38-1.05.99-2.06,1.88-2.95l17.72-17.72Z"></path><path class="cls-4" d="M228.11,48.71l-20.32-20.32c-3.1-3.1-8.12-3.1-11.22,0l-2.59,2.59,7.13,7.13c5,5,1.46,13.55-5.61,13.55h-21.12c-1.73,4.83,1.69,10.6,7.5,10.6h40.63c7.07,0,10.61-8.55,5.61-13.55Z"></path><path class="cls-5" d="M201.11,38.11l-7.13-7.13-17.72,17.72c-.89.89-1.51,1.9-1.88,2.95h21.12c7.07,0,10.61-8.55,5.61-13.55Z"></path><rect class="cls-1" x="171.09" y="13.35" width="45.29" height="4.25" rx="1.53" ry="1.53" transform="translate(22.12 -75.74) rotate(23.43)"></rect><rect class="cls-5" x="166.52" y="9.32" width="51.99" height="7.74" rx="2.78" ry="2.78" transform="translate(21.11 -75.45) rotate(23.43)"></rect><path class="cls-2" d="M3.01,59.64V27c0-1.68.97-2.59,2.65-2.59h3.35c1.68,0,2.59.92,2.59,2.59v27.99h14.48c1.67,0,2.65.92,2.65,2.59v2.05c0,1.67-.97,2.59-2.65,2.59H5.66c-1.67,0-2.65-.92-2.65-2.59Z"></path><path class="cls-2" d="M1,99.64c-.33-.66,0-1.15.7-1.36l.99-.25c.66-.17,1.03.08,1.36.7,1.07,1.98,3.5,3.71,6.93,3.71,4.25,0,6.76-2.27,6.76-5.07,0-2.6-2.23-4.21-4.7-5.07l-4.62-1.57c-5.48-1.77-6.47-4.95-6.47-7.38,0-4.86,4.29-7.79,9.15-7.79,4.45,0,7.67,2.19,8.86,5.44.25.66-.08,1.15-.74,1.36l-.87.25c-.66.21-1.07-.04-1.36-.7-.91-2.18-3.09-3.42-5.94-3.42-3.13,0-5.81,1.77-5.81,4.78,0,1.44.49,3.26,4.16,4.57l4.66,1.65c4.25,1.36,6.88,4.37,6.88,7.67,0,4.78-3.92,8.16-9.89,8.16-5.07,0-8.62-2.51-10.06-5.69Z"></path><path class="cls-2" d="M26.6,94.61c0-5.9,4.86-10.76,10.76-10.76s10.84,4.9,10.84,10.76-4.86,10.72-10.84,10.72-10.76-4.74-10.76-10.72ZM45.03,94.65c0-4.37-3.42-8-7.67-8s-7.59,3.63-7.59,8,3.42,7.87,7.59,7.87,7.67-3.55,7.67-7.87Z"></path><path class="cls-2" d="M55.42,103.76v-27.58c0-.7.41-1.11,1.11-1.11h.95c.66,0,1.07.41,1.07,1.11v27.58c0,.7-.41,1.11-1.07,1.11h-.95c-.7,0-1.11-.41-1.11-1.11Z"></path><path class="cls-2" d="M67.05,96.01v-10.59c0-.66.41-1.11,1.11-1.11h.95c.7,0,1.11.41,1.11,1.11v10.59c0,4.95,2.6,6.51,5.19,6.51,2.27,0,6.93-1.61,6.97-8.24v-8.86c0-.7.41-1.11,1.11-1.11h.95c.7,0,1.11.41,1.11,1.11v18.34c0,.7-.41,1.11-1.11,1.11h-.95c-.7,0-1.11-.41-1.11-1.11v-3.26c-1.07,3.26-4.12,4.82-7.17,4.82-4.37,0-8.16-2.56-8.16-9.32Z"></path><path class="cls-2" d="M111.37,77.46c0-1.36.95-2.35,2.27-2.35s2.27.99,2.27,2.35-.99,2.31-2.27,2.31-2.27-.99-2.27-2.31Z"></path><path class="cls-2" d="M112.07,103.76v-18.34c0-.66.41-1.11,1.11-1.11h.95c.66,0,1.07.41,1.07,1.11v18.34c0,.7-.41,1.11-1.07,1.11h-.95c-.7,0-1.11-.41-1.11-1.11Z"></path><path class="cls-2" d="M122.42,94.61c0-5.9,4.86-10.76,10.76-10.76s10.84,4.9,10.84,10.76-4.86,10.72-10.84,10.72-10.76-4.74-10.76-10.72ZM140.84,94.65c0-4.37-3.42-8-7.67-8s-7.59,3.63-7.59,8,3.42,7.87,7.59,7.87,7.67-3.55,7.67-7.87Z"></path><path class="cls-2" d="M151.11,103.76v-18.34c0-.66.41-1.11,1.07-1.11h.95c.7,0,1.11.41,1.11,1.11v3.26c1.11-3.26,4.12-4.82,7.17-4.82,4.37,0,8.16,2.56,8.16,9.36v10.55c0,.7-.41,1.11-1.11,1.11h-.95c-.7,0-1.11-.41-1.11-1.11v-10.55c0-4.99-2.6-6.55-5.19-6.55-2.27,0-6.93,1.61-6.97,8.24v8.86c0,.7-.41,1.11-1.11,1.11h-.95c-.66,0-1.07-.41-1.07-1.11Z"></path><path class="cls-2" d="M176.47,101.5c-.41-.7-.04-1.2.66-1.4l.74-.21c.62-.17.99.08,1.4.62.82,1.28,2.47,2.1,4.37,2.1,2.31,0,4.08-1.36,4.08-3.3,0-1.57-1.15-2.51-2.89-3.09l-2.93-.95c-2.97-.91-4.91-2.56-4.91-5.44,0-3.26,2.56-5.98,6.6-5.98,2.35,0,4.7.95,5.98,3.38.37.7,0,1.24-.74,1.4l-.66.17c-.62.17-.99-.08-1.4-.66-.74-1.07-1.94-1.57-3.09-1.57-2.27,0-3.63,1.52-3.63,3.17s1.44,2.51,2.84,2.97l3.05.99c3.67,1.11,4.78,3.38,4.78,5.65,0,3.75-3.3,5.98-7.13,5.98-3.09,0-5.85-1.36-7.13-3.83Z"></path><path class="cls-2" d="M105.3,84.31h-5.98v-5.24c0-.62-.37-.95-.99-.95h-.54c-.58,0-.95.29-1.03.91l-.62,5.28h-2.8c-.45,0-.66.25-.66.66v1.19c0,.45.21.66.66.66h.23v-.02h2.61v16.96c0,.7.41,1.11,1.11,1.11h.95c.66,0,1.07-.41,1.07-1.11v-16.96h6.13c.31-.05.5-.25.5-.64v-1.19c0-.41-.25-.66-.66-.66Z"></path><path class="cls-2" d="M199.5,81.84c0,2.27-1.78,4.05-4.1,4.05s-4.12-1.78-4.12-4.05,1.83-4,4.12-4,4.1,1.78,4.1,4ZM192.31,81.84c0,1.78,1.32,3.19,3.12,3.19s3.05-1.41,3.05-3.17-1.29-3.22-3.07-3.22-3.1,1.44-3.1,3.19ZM194.77,83.93h-.93v-4c.37-.07.88-.12,1.54-.12.76,0,1.1.12,1.39.29.22.17.39.49.39.88,0,.44-.34.78-.83.93v.05c.39.15.61.44.73.98.12.61.2.85.29,1h-1c-.12-.15-.2-.51-.32-.98-.07-.44-.32-.63-.83-.63h-.44v1.61ZM194.8,81.66h.44c.51,0,.93-.17.93-.58,0-.37-.27-.61-.85-.61-.24,0-.42.02-.51.05v1.15Z"></path></svg> 