<svg xmlns="http://www.w3.org/2000/svg" width="590.66" height="145" viewBox="0 0 590.66 145"><g fill="none" fill-rule="evenodd"><path fill="#000" d="M33.64 38.21c35.91.54 67.86 5.03 93.29 16.05.09.39-.44.6-.67.78-1.94 1.52-4.43 3.13-6.46 4.68-23.77-9.89-53.04-14.27-86.27-14.71v-6.47c-.01-.16-.02-.31.11-.33m96.29 35.11c-2.42 1.59-5.18 2.85-7.8 4.24-16.32-10.39-37.68-15.75-62.3-17.83.89-1.97 1.76-4.39 2.79-6.02.06-.1 0-.47.22-.22 12.89 1.45 25.25 3.76 36.56 6.91 11.33 3.16 21.81 7.08 30.54 12.93zm-96.07-9.59c24.06.83 46.28 3.5 64.65 10.03.13.28-.29.54-.45.67-1.58 1.25-3.79 2.48-5.46 3.79-16.28-6.38-37.49-7.83-59.07-8.92.05-1.77.17-3.47.22-5.24 0-.16-.02-.32.11-.34zm19.51 11.6c8.34 1.31 16.83 2.8 24.74 4.68 7.9 1.88 15.49 3.93 21.51 7.8-2.05 1.26-4.37 2.24-6.46 3.46-11.94-5.75-26.36-9.01-42.24-10.81.72-1.81 1.54-3.51 2.45-5.13m21.84 14.82c-1.3 1.44-2.88 2.61-4.46 3.79-4.85-2.3-10.83-3.28-17.16-4.01-6.31-.73-13.13-1.07-19.84-1.34.07-1.41-.15-3.12.11-4.34 15.09.66 29.63 1.88 41.35 5.91zm-1.67 10.36c-1.78.67-3.37 1.54-5.02 2.34-7.09-3.13-16.22-4.22-25.08-5.57.62-1.35 1.2-2.74 2.01-3.9 9.07 1.1 18.07 2.47 25.3 5.58.99.42 2.09.71 2.79 1.56zm-17.39 2.9c-.99 1.35-2.33 2.35-3.57 3.46-5.41-1.8-12.14-2.28-19.06-2.56v-3.45c8.66-.27 15.92.87 22.62 2.56zm-4.57 7.25c-1.14 1.05-2.77 1.61-4.01 2.56-2.98-1.25-6.82-1.65-10.48-2.23.55-.94.89-2.08 1.56-2.9 5.08.09 9.56.78 12.93 2.57"/><path fill="#ffc72c" fill-rule="nonzero" d="M69.11 136.67c-33.83-1.81-60.8-29.9-60.8-64.18s26.97-62.35 60.8-64.17V0C30.69 1.82 0 33.64 0 72.5s30.69 70.68 69.11 72.5v-8.33M76.06 0v8.32c33.83 1.81 60.8 29.9 60.8 64.18s-26.97 62.37-60.8 64.18V145c38.42-1.82 69.11-33.64 69.11-72.5S114.47 1.82 76.06 0"/><path fill="#000" fill-rule="nonzero" d="M189.36 90.67c-3.51 0-6.73-1.31-9.14-3.72-3.36-3.36-3.36-6.87-3.36-14.45s0-11.09 3.36-14.46c2.41-2.41 5.62-3.72 9.14-3.72 6.43 0 11.19 3.92 12.4 10.64h-3.92c-.95-4.37-4.02-7.23-8.48-7.23-2.36 0-4.62.9-6.17 2.51-2.26 2.31-2.51 4.77-2.51 12.25s.25 9.94 2.51 12.25c1.56 1.61 3.82 2.51 6.17 2.51 4.47 0 7.63-2.86 8.58-7.23h3.81c-1.16 6.73-6.02 10.64-12.4 10.64zm42.57-15.06v14.76h-3.82V75.61l-10.64-20.98h4.11l8.43 17.12 8.33-17.12h4.12l-10.54 20.98zm42.56 14.76h-13.91V54.63h13.45c6.22 0 10.54 3.56 10.54 9.54 0 3.76-2.26 6.73-5.27 7.83 3.41 1.26 5.82 4.22 5.82 8.48 0 6.47-4.32 9.89-10.64 9.89zm-.75-32.33h-9.34v12.4h9.34c3.96 0 7.03-1.96 7.03-6.23s-3.06-6.17-7.03-6.17m.4 15.82h-9.74v13.1h9.74c4.42 0 7.18-2.56 7.18-6.57s-2.76-6.52-7.18-6.52zm32.53 16.51V54.63h22.19v3.41h-18.37v12.6h15.66v3.41h-15.66v12.9h18.37v3.42zm63.19 0-8.13-15.86h-8.58v15.86h-3.81V54.63h13.7c6.23 0 10.59 3.76 10.59 9.94 0 5.22-3.16 8.64-7.78 9.59l8.48 16.21zm-7.17-32.33h-9.54v13.1h9.54c4.17 0 7.13-2.16 7.13-6.53s-2.96-6.57-7.13-6.57m50.19 32.33V75.41h-12.1v14.96h-6.98V54.63h6.98v14.61h12.1V54.63h6.98v35.74zm48.19 0-2.11-6.33h-12.7l-2.16 6.33h-7.28l13-35.74h5.47l13.05 35.74h-7.28zm-8.33-25.2-4.52 13h8.88l-4.37-13zm61.68 25.2h-5.82l-6.58-21.69-6.57 21.69h-5.82l-9.54-35.74h7.28l5.52 22.54 6.53-22.54h5.22l6.53 22.54 5.57-22.54h7.28l-9.59 35.74zm47.39 0-9.19-16.26-4.62 5.52v10.74h-6.98V54.63H548v15.56l12.6-15.56h8.48l-11.84 14.2 12.7 21.54z"/><path fill="#ffc72c" fill-rule="nonzero" d="M577.55 55.91h-2.16v-1.28h5.69v1.28h-2.18v6.14h-1.35zm11.75.11h-.03l-2.31 6.02h-.9l-2.29-6.02h-.03v6.02h-1.35v-7.42h2.13l2 5.48 2.01-5.48h2.13v7.42h-1.35v-6.02z"/></g></svg>
