<svg xmlns="http://www.w3.org/2000/svg" xmlns:xlink="http://www.w3.org/1999/xlink" width="102.739" height="42.125" viewBox="0 0 102.739 42.125">
  <defs>
    <clipPath id="clip-path">
      <rect id="Rectangle_290" data-name="Rectangle 290" width="102.739" height="42.125" fill="#fff"/>
    </clipPath>
  </defs>
  <g id="Group_153" data-name="Group 153" clip-path="url(#clip-path)">
    <path id="Path_187" data-name="Path 187" d="M0,214.056H2.715l.392-1.526a5.421,5.421,0,0,0,3.943,1.8c3.859,0,5.818-3.326,5.818-7.742,0-3.49-2.07-6.978-5.818-6.978a5.083,5.083,0,0,0-3.524,1.58H3.471v-6.815H0Zm3.468-10.523a4.014,4.014,0,0,1,2.685-1.2c2.07,0,3.245,1.636,3.245,4.633S8.225,211.6,6.155,211.6a3.7,3.7,0,0,1-2.685-1.254Zm19.795,3.435c0,3.162-.923,4.635-2.853,4.635s-2.852-1.472-2.852-4.635.923-4.633,2.852-4.633,2.853,1.472,2.853,4.633m-9.174,0c0,4.5,2.377,7.361,6.321,7.361s6.321-2.862,6.321-7.361-2.377-7.359-6.321-7.359-6.321,2.862-6.321,7.359m12.776,12.158a11.07,11.07,0,0,0,1.678.109c2.853,0,4.083-1.09,5.621-5.153l4.587-14.2H35.285L32.8,208.6h-.056l-2.405-8.722h-3.5l3.887,12.1a6.914,6.914,0,0,1,.447,1.691,3.643,3.643,0,0,1-.559,1.663,2.236,2.236,0,0,1-2.293,1.116,6.728,6.728,0,0,1-1.455-.108Zm24.087-5.07a6.168,6.168,0,0,1-.278-2.045v-6.679c0-4.252-1.678-5.642-5.594-5.723a6.578,6.578,0,0,0-5.425,2.589l2.237,1.664a3.744,3.744,0,0,1,3.188-1.745c1.231,0,2.125.6,2.125,1.689v1.2c-5.649.653-8.335,2.345-8.335,5.561a3.671,3.671,0,0,0,3.944,3.762,7.69,7.69,0,0,0,4.531-1.5l.223,1.228Zm-3.747-3.735a6.064,6.064,0,0,1-3.188,1.5,1.558,1.558,0,0,1-1.678-1.662c0-1.99,2.544-2.454,4.866-2.89Zm5.761,3.735h3.468V194.375H52.968Zm6.6,0H63.04V194.375H59.572Z" transform="translate(-0.003 -177.111)" fill="#fff" fill-rule="evenodd"/>
    <path id="Path_188" data-name="Path 188" d="M3.473,14.565V4.29A5.314,5.314,0,0,1,6.386,2.751a1.591,1.591,0,0,1,1.738,1.84v9.974H11.6V4.29a5.316,5.316,0,0,1,2.913-1.539,1.591,1.591,0,0,1,1.737,1.84v9.974H19.72V4.29C19.72.882,17.648,0,16.135,0a6.573,6.573,0,0,0-5.014,2.088A3.839,3.839,0,0,0,7.535,0,5.781,5.781,0,0,0,3.166,1.816V.279H0V14.565Zm27.456-8.5a4.552,4.552,0,0,0-4.546-3.023c-3.126,0-5.011,2.283-5.011,5.872s1.885,5.871,5.011,5.871A4.728,4.728,0,0,0,31,11.955L28.912,10.8a2.808,2.808,0,0,1-2.439,1.805c-1.619,0-2.35-1.174-2.35-3.7s.732-3.7,2.262-3.7c1.33,0,1.818.761,2.262,1.717Zm6.5,8.228c3.362,0,4.4.99,4.4,1.648,0,.5-.755,1.594-3,1.594-2.914,0-3.866-.494-3.866-1.594,0-.6.56-1.648,2.465-1.648m3.025-9.4A2.453,2.453,0,1,1,38.07,2.532a2.363,2.363,0,0,1,2.381,2.362M45.1,0a3.821,3.821,0,0,0-3.418,1.264A5.9,5.9,0,0,0,38.1,0c-3.782,0-5.742,2.473-5.742,4.973a4.712,4.712,0,0,0,2.157,3.792c-.645.192-2.269,1.236-2.269,2.609,0,1.539,1.484,1.9,2.156,2.308v.055a2.545,2.545,0,0,0-2.632,2.637c0,2.253,2.577,3.407,6.5,3.407,4.649,0,6.751-2.2,6.751-4.23,0-5.715-9.58-2.582-9.58-4.891,0-.824,1.205-.88,2.717-.88,3.642,0,5.491-1.924,5.491-4.615a4.134,4.134,0,0,0-.784-2.528,4.7,4.7,0,0,1,2.241-.33Zm4.857,14.561V5.884a4.137,4.137,0,0,1,3.249-2.308,4.06,4.06,0,0,1,.617.027V0a4.3,4.3,0,0,0-4.09,2.72h-.056V.279H46.485V14.565Zm7.507-8.9c.055-1.978,1.12-3.131,2.8-3.131s2.745,1.153,2.8,3.131Zm8.8,2.308V6.57c0-3.434-2.128-6.593-5.939-6.566-3.949,0-6.331,2.885-6.331,7.418s2.382,7.419,6.163,7.419c2.8,0,4.763-.879,6.107-2.912L63.74,10.39a3.883,3.883,0,0,1-3.249,1.7c-1.625,0-2.97-1.154-3.025-4.121Zm6.552,6.319c3.361,0,4.4.99,4.4,1.648,0,.5-.756,1.594-3,1.594-2.914,0-3.867-.494-3.867-1.594,0-.6.561-1.648,2.465-1.648m3.025-9.4a2.452,2.452,0,1,1-2.381-2.362,2.362,2.362,0,0,1,2.381,2.362M80.489,0A3.82,3.82,0,0,0,77.07,1.268,5.9,5.9,0,0,0,73.485,0C69.7,0,67.743,2.477,67.743,4.977A4.708,4.708,0,0,0,69.9,8.769c-.645.192-2.27,1.236-2.27,2.609,0,1.539,1.484,1.9,2.157,2.308v.055a2.545,2.545,0,0,0-2.633,2.637c0,2.253,2.577,3.407,6.5,3.407,4.65,0,6.75-2.2,6.75-4.23,0-5.715-9.58-2.582-9.58-4.891,0-.824,1.2-.88,2.717-.88,3.642,0,5.491-1.924,5.491-4.615a4.132,4.132,0,0,0-.784-2.528,4.7,4.7,0,0,1,2.241-.33Zm9.575,7.418c0,3.187-.924,4.671-2.858,4.671s-2.857-1.484-2.857-4.671.924-4.671,2.857-4.671,2.858,1.484,2.858,4.671m-9.187,0c0,4.533,2.38,7.419,6.33,7.419s6.33-2.886,6.33-7.419S91.155,0,87.205,0s-6.33,2.885-6.33,7.418m18,7.144V5.884a4.139,4.139,0,0,1,3.251-2.308,4.046,4.046,0,0,1,.616.027V0a4.3,4.3,0,0,0-4.09,2.72h-.056V.279H95.4V14.565Z" transform="translate(0 0.001)" fill="#fff" fill-rule="evenodd"/>
  </g>
</svg>
