<svg width="284" height="60" viewBox="0 0 284 60" fill="none" xmlns="http://www.w3.org/2000/svg">
<g clip-path="url(#clip0_4952_3749)">
<path d="M29.8954 53.4849C16.9138 53.4849 6.38994 42.9843 6.38994 30.0314C6.38994 17.0785 16.9114 6.58019 29.8954 6.58019C36.6913 6.58019 42.8131 9.4573 47.1016 14.0574L51.156 10.012C51.4185 9.75233 51.4185 9.32985 51.156 9.06786C45.7202 3.57798 38.1602 0.179263 29.8078 0.205226C13.297 0.25243 -0.240403 14.0078 0.00323807 30.4822C0.244513 46.7465 13.5336 59.8599 29.893 59.8599C38.2123 59.8599 45.7391 56.4706 51.156 50.9972C51.4162 50.7352 51.4162 50.3151 51.156 50.0579L47.1016 46.0124C42.8107 50.6125 36.6913 53.4896 29.8954 53.4896" fill="#FF8B00"/>
<path d="M29.8954 47.1104C20.3603 47.1104 12.6442 39.3287 12.7814 29.784C12.9162 20.3974 20.7435 12.8211 30.1509 12.958C34.8368 13.0264 39.0662 14.9736 42.1153 18.0797C42.3778 18.344 42.8036 18.3511 43.0686 18.0867L47.104 14.0602C42.8154 9.46012 36.6937 6.58301 29.8978 6.58301C16.9162 6.58301 6.39233 17.0836 6.39233 30.0365C6.39233 42.9894 16.9162 53.4877 29.8978 53.4877C36.6937 53.4877 42.8131 50.613 47.104 46.0105L43.0686 41.984C42.8036 41.722 42.3778 41.7244 42.1176 41.9934C39.0118 45.1514 34.6831 47.1128 29.8978 47.1128" fill="#E45F0C"/>
<path d="M40.6177 30.0308C40.6177 32.6837 39.6503 35.1076 38.0489 36.9769C36.0856 39.2758 33.1571 40.7344 29.8905 40.7344C23.9674 40.7344 19.1655 35.9408 19.1655 30.0308C19.1655 24.1208 23.9674 19.3271 29.8905 19.3271C33.1571 19.3271 36.0856 20.7858 38.0489 23.0846C39.6503 24.9563 40.6177 27.3802 40.6177 30.0308Z" fill="#FF8B00"/>
<path d="M50.948 30.1159C50.948 20.3186 58.8226 13.0303 68.1684 13.0303C72.9632 13.0303 77.0388 14.9704 79.9815 18.0457C80.3126 18.3762 80.1258 18.7066 79.8868 18.9922L75.6622 23.4884C75.428 23.8189 74.9998 23.8189 74.716 23.5852C72.9608 22.0699 70.7799 21.1235 68.1684 21.1235C63.1419 21.1235 59.298 24.9093 59.298 30.1159C59.298 35.3226 63.1395 39.0635 68.1684 39.0635C70.7799 39.0635 72.9632 38.1171 74.716 36.6018C74.9998 36.3658 75.428 36.3658 75.7118 36.6962L79.8868 41.1948C80.1258 41.4308 80.3126 41.7613 79.9815 42.0917C77.0412 45.2166 72.9632 47.1591 68.1684 47.1591C58.8226 47.1591 50.948 39.9132 50.948 30.1159Z" fill="white"/>
<path d="M84.8181 45.7871V14.1672C84.8181 13.74 85.102 13.4072 85.5301 13.4072H92.3118C92.74 13.4072 93.0711 13.74 93.0711 14.1672V45.7871C93.0711 46.2143 92.74 46.5448 92.3118 46.5448H85.5301C85.102 46.5448 84.8181 46.2143 84.8181 45.7871Z" fill="white"/>
<path d="M117.36 46.0704L107.207 27.0422V45.7871C107.207 46.2143 106.876 46.5448 106.448 46.5448H99.664C99.2358 46.5448 98.9543 46.2143 98.9543 45.7871V14.1672C98.9543 13.74 99.2382 13.4072 99.664 13.4072H107.491C107.87 13.4072 108.154 13.5512 108.345 13.8816L118.545 33.0065V14.1672C118.545 13.74 118.829 13.4072 119.255 13.4072H126.041C126.467 13.4072 126.8 13.74 126.8 14.1672V45.7871C126.8 46.2143 126.467 46.5448 126.041 46.5448H118.214C117.835 46.5448 117.549 46.4008 117.36 46.0704Z" fill="white"/>
<path d="M160.099 47.251L157.584 44.7421C155.023 46.3045 152.033 47.1566 148.809 47.1566C139.418 47.1566 131.683 39.6747 131.683 30.1134C131.683 20.5521 139.418 13.0254 148.809 13.0254C158.2 13.0254 165.934 20.5026 165.934 30.1134C165.934 33.472 164.986 36.5993 163.325 39.2522L165.698 41.6171C166.029 41.9523 166.029 42.2827 165.648 42.6603L161.097 47.2038C160.811 47.4894 160.385 47.5342 160.099 47.251ZM148.809 39.061C149.76 39.061 150.658 38.917 151.512 38.6338L148.333 35.464C148.002 35.1336 148.002 34.8008 148.333 34.4704L152.936 29.875C153.173 29.6414 153.599 29.5446 153.932 29.875L157.111 33.0472C157.395 32.1503 157.54 31.1543 157.54 30.1134C157.54 24.954 153.79 21.121 148.811 21.121C143.832 21.121 140.035 24.954 140.035 30.1134C140.035 35.2729 143.832 39.061 148.811 39.061" fill="white"/>
<path d="M169.915 30.1159C169.915 20.3186 177.79 13.0303 187.135 13.0303C191.93 13.0303 196.006 14.9704 198.949 18.0457C199.28 18.3762 199.093 18.7066 198.854 18.9922L194.629 23.4884C194.395 23.8189 193.967 23.8189 193.683 23.5852C191.928 22.0699 189.747 21.1235 187.135 21.1235C182.109 21.1235 178.265 24.9093 178.265 30.1159C178.265 35.3226 182.107 39.0635 187.135 39.0635C189.747 39.0635 191.93 38.1171 193.683 36.6018C193.967 36.3658 194.395 36.3658 194.679 36.6962L198.854 41.1948C199.093 41.4308 199.28 41.7613 198.949 42.0917C196.008 45.2166 191.93 47.1591 187.135 47.1591C177.79 47.1591 169.915 39.9132 169.915 30.1159Z" fill="white"/>
<path d="M201.178 45.7376L212.089 13.976C212.231 13.5984 212.612 13.4072 212.993 13.4072H220.156C220.534 13.4072 220.96 13.5984 221.102 13.976L232.014 45.7376C232.205 46.212 231.921 46.5424 231.399 46.5424H224.331C223.952 46.5424 223.619 46.4008 223.477 45.9736L222.242 41.9966H210.904L209.67 45.9736C209.528 46.4008 209.244 46.5424 208.863 46.5424H201.795C201.275 46.5424 200.988 46.212 201.178 45.7376ZM219.964 34.7082L216.596 23.8701L213.18 34.7082H219.966H219.964Z" fill="white"/>
<path d="M252.078 46.0704L245.531 35.3738H244.488V45.7871C244.488 46.212 244.156 46.5448 243.728 46.5448H236.947C236.518 46.5448 236.235 46.212 236.235 45.7871V14.1672C236.235 13.74 236.518 13.4072 236.947 13.4072H247.383C255.541 13.4072 259.385 17.8586 259.385 24.3893C259.385 28.9847 257.488 32.5793 253.455 34.2834L260.618 45.6904C260.949 46.212 260.712 46.5424 260.142 46.5424H252.93C252.551 46.5424 252.268 46.3984 252.078 46.068M247.191 28.0807C249.375 28.0807 251.508 27.5119 251.508 24.3846C251.508 21.2573 249.372 20.6956 247.191 20.6956H244.488V28.0807H247.191Z" fill="white"/>
<path d="M265.214 45.7871V14.1672C265.214 13.74 265.497 13.4072 265.926 13.4072H283.288C283.716 13.4072 284 13.74 284 14.1672V19.9403C284 20.3675 283.716 20.698 283.288 20.698H273.467V26.2374H282.673C283.099 26.2374 283.432 26.5702 283.432 26.995V32.8153C283.432 33.2425 283.099 33.5258 282.673 33.5258H273.467V39.254H283.241C283.666 39.254 284 39.5845 284 40.0117V45.7871C284 46.2143 283.666 46.5448 283.241 46.5448H265.926C265.497 46.5448 265.214 46.2143 265.214 45.7871Z" fill="white"/>
</g>
<defs>
<clipPath id="clip0_4952_3749">
<rect width="284" height="59.6546" fill="white" transform="translate(0 0.205078)"/>
</clipPath>
</defs>
</svg>
