<svg xmlns="http://www.w3.org/2000/svg" width="256" height="56" viewBox="0 0 256 56" fill="none"><g clip-path="url(#clip0_5573_531)"><path d="M50.5843 27.3481C50.5713 27.5375 50.615 27.7265 50.7097 27.8915C62.4197 47.9738 62.1807 47.5367 65.6997 53.6559C65.7884 53.7805 65.9067 53.8818 66.0442 53.9507C66.1817 54.0197 66.3341 54.0544 66.4883 54.0516H71.6502L56.1166 27.6671L72.6002 1.35931H67.6414C67.3805 1.34912 67.1215 1.40642 66.8899 1.52556C66.6584 1.64469 66.4622 1.82152 66.321 2.03856C62.2524 8.50033 50.7874 26.8461 50.7874 26.8461C50.68 27.0031 50.6123 27.1834 50.5902 27.3718" fill="#5FB22D"></path><path d="M22.636 46.8744C13.6265 46.8744 10.1613 40.6725 10.1613 27.6486C10.1613 14.6246 13.6265 9.02521 22.636 9.02521C31.6455 9.02521 34.9852 14.4061 34.9852 27.6486C34.9852 40.5957 31.6395 46.8744 22.636 46.8744ZM22.636 0C7.35924 0 0.237673 8.76532 0.00466914 27.6486C-0.216386 46.1479 7.41301 56 22.63 56C37.2973 56 44.6399 45.823 45.0701 29.5564V25.2564C44.6339 8.85982 37.3093 0 22.636 0Z" fill="#5FB22D"></path><path d="M98.6861 34.237C98.6861 34.237 96.5174 33.994 95.5734 33.994C93.9364 33.994 93.0462 34.6401 93.0462 35.8374C93.0462 37.2599 93.8587 37.6155 95.8363 37.9889C98.011 38.4275 99.0147 38.9787 99.0147 40.7154C99.0147 42.9025 97.8915 43.8568 95.5256 43.8568C94.2291 43.8568 92.1381 43.6019 92.1381 43.6019L92.2217 42.7662C92.2217 42.7662 94.3606 43.0033 95.4778 43.0033C97.1507 43.0033 98.011 42.3039 98.011 40.7747C98.011 39.5892 97.294 39.1566 95.4121 38.8128C93.1298 38.3623 92.0425 37.8111 92.0425 35.8492C92.0425 34.0237 93.321 33.1287 95.5435 33.1287C96.6178 33.1582 97.6893 33.2532 98.7518 33.4132L98.6861 34.237Z" fill="#1B232C"></path><path d="M107.617 39.6307C107.617 37.5088 106.942 36.4538 105.18 36.4538C103.298 36.4538 102.677 37.3962 102.677 39.6189C102.677 41.8415 103.089 43.0507 105.18 43.0507C107.271 43.0507 107.617 41.7586 107.617 39.6307ZM108.693 39.6307C108.693 42.3335 107.946 43.8983 105.18 43.8983C102.414 43.8983 101.595 42.4757 101.595 39.6189C101.595 36.9517 102.479 35.6062 105.18 35.6062C107.689 35.6062 108.693 36.9991 108.693 39.6307Z" fill="#1B232C"></path><path d="M113.174 43.7383H112.182V36.8213H111.119V35.9856H112.188V35.2151C112.188 33.1406 112.828 32.4175 114.387 32.4175C114.984 32.4175 115.875 32.5064 115.875 32.5064V33.2947C115.875 33.2947 115.02 33.2532 114.536 33.2532C113.533 33.2532 113.18 33.7748 113.18 35.2329V35.9856H115.707V36.7917H113.18L113.174 43.7383Z" fill="#1B232C"></path><path d="M119.722 36.8391V40.6265C119.722 42.4402 119.919 43.0567 121.042 43.0567C121.514 43.0567 122.452 42.9796 122.452 42.9796L122.518 43.7679C122.001 43.8449 121.48 43.8924 120.958 43.9102C119.351 43.9102 118.718 43.1811 118.718 41.1066V36.8391H117.523V36.0211H118.718V33.5732H119.722V36.0211H122.368V36.8391H119.722Z" fill="#1B232C"></path><path d="M125.582 35.7544L127.452 42.8729H127.847L129.938 35.9144H131.043L133.134 42.8729H133.534L135.398 35.7544H136.456L134.329 43.7382H132.375L130.475 37.1591L128.558 43.7382H126.634L124.525 35.7544H125.582Z" fill="#1B232C"></path><path d="M141.648 39.8737C140.507 39.9686 140.005 40.6087 140.005 41.4681C139.988 41.6613 140.009 41.8559 140.068 42.0408C140.127 42.2257 140.222 42.3972 140.348 42.5454C140.474 42.6936 140.629 42.8156 140.803 42.9043C140.976 42.9931 141.166 43.0469 141.361 43.0625H141.439C142.398 43.0447 143.346 42.8601 144.241 42.5172V39.6663L141.648 39.8737ZM145.274 42.3335C145.369 42.5533 145.529 42.7394 145.733 42.8674C145.937 42.9954 146.175 43.0593 146.415 43.0507L146.368 43.9042C146.023 43.937 145.676 43.8969 145.348 43.7865C145.021 43.6761 144.721 43.4981 144.468 43.2641C143.474 43.6702 142.412 43.8874 141.337 43.9042C140.728 43.9283 140.134 43.7114 139.686 43.3013C139.238 42.8912 138.972 42.3214 138.947 41.7171C138.941 41.6421 138.941 41.5668 138.947 41.4918C138.947 40.0515 139.849 39.2869 141.528 39.121L144.241 38.8839V38.1489C144.241 36.9635 143.685 36.5012 142.616 36.5012C141.553 36.5229 140.492 36.5981 139.437 36.7264L139.383 35.8966C140.466 35.7347 141.557 35.6377 142.652 35.6062C144.444 35.6062 145.274 36.4064 145.274 38.1608V42.3335Z" fill="#1B232C"></path><path d="M149.355 35.7544H150.389V36.8865C151.313 36.2788 152.341 35.8448 153.424 35.6062V36.5901C152.36 36.832 151.338 37.2316 150.395 37.7755V43.7382H149.355V35.7544Z" fill="#1B232C"></path><path d="M161.55 39.364C161.55 37.2539 160.774 36.436 159.268 36.436C157.762 36.436 156.83 37.2836 156.83 39.364H161.55ZM162.243 42.9203L162.279 43.7027C161.228 43.8339 160.171 43.9091 159.113 43.9279C156.621 43.9279 155.773 42.3157 155.773 39.8085C155.773 36.8983 157.159 35.6595 159.268 35.6595C161.377 35.6595 162.584 36.8094 162.584 39.4292L162.554 40.1997H156.83C156.83 41.8119 157.368 43.0862 159.166 43.0862C160.391 43.0862 162.243 42.944 162.243 42.944" fill="#1B232C"></path><path d="M175.045 38.4395H178.032V43.5427C176.861 43.7253 175.68 43.8401 174.495 43.8865C171.161 43.8865 170.265 41.7942 170.265 38.5521C170.265 35.3099 171.108 33.1643 174.483 33.1643C175.674 33.191 176.861 33.3159 178.032 33.5377V34.3734C176.9 34.1789 175.756 34.064 174.609 34.0297C171.89 34.0297 171.352 35.7663 171.352 38.5521C171.352 41.3378 171.902 43.0271 174.597 43.0271C175.433 42.9937 176.267 42.9125 177.094 42.784V39.2633H175.045V38.4395Z" fill="#1B232C"></path><path d="M181.927 43.7383V35.7545H182.949V36.3472C183.718 35.9306 184.567 35.6782 185.44 35.6063C185.838 35.5681 186.239 35.6221 186.613 35.764C186.986 35.9059 187.321 36.132 187.591 36.4242C188.572 35.9845 189.62 35.7081 190.692 35.6063C193.01 35.6063 193.566 36.7917 193.566 39.6012V43.7501H192.556V39.6012C192.556 37.3844 192.299 36.442 190.602 36.442C189.697 36.5064 188.812 36.7439 187.997 37.1414C188.243 37.9254 188.355 38.7449 188.326 39.5656V43.7146H187.286V39.5656C187.286 37.3251 186.874 36.4183 185.315 36.4183C184.476 36.4643 183.659 36.6994 182.925 37.1058V43.685L181.927 43.7383Z" fill="#1B232C"></path><path d="M203.006 39.7552C203.006 38.0186 202.605 36.7027 201.01 36.7027C200.191 36.712 199.381 36.8708 198.62 37.171V43.0033C198.62 43.0033 199.642 43.0803 200.144 43.0803C202.611 43.0803 203.012 41.5926 203.012 39.7552H203.006ZM204.051 39.7552C204.051 42.3217 203.197 43.9042 200.162 43.9042C199.104 43.9042 197.617 43.7501 197.617 43.7501V32.5715H198.62V36.3767C199.402 36.0575 200.237 35.8847 201.082 35.867C203.328 35.867 204.069 37.414 204.069 39.7315" fill="#1B232C"></path><path d="M214.346 38.9195H208.407V43.7383H207.421V33.3065H208.407V38.0542H214.346V33.3065H215.331V43.7383H214.346V38.9195Z" fill="#1B232C"></path><path d="M101.064 17.6115C101.064 14.0078 100.185 12.2415 97.479 12.2415C94.7726 12.2415 93.978 13.9603 93.978 17.6115C93.978 21.2626 94.8324 22.8155 97.5209 22.8155C100.209 22.8155 101.106 21.2981 101.106 17.6115H101.064ZM91.3851 17.6115C91.3851 12.7571 93.0101 10.0721 97.5448 10.0721C102.079 10.0721 103.722 12.7394 103.722 17.6115C103.722 22.4836 102.097 24.9374 97.5448 24.9374C92.9922 24.9374 91.3433 22.4539 91.3433 17.5877" fill="#1B232C"></path><path d="M110.401 18.4532V22.6022H113.556C114.936 22.6022 115.993 21.9561 115.993 20.4743C115.993 18.9925 114.572 18.4532 113.514 18.4532H110.401ZM110.401 12.3779V16.4261H113.466C113.991 16.474 114.514 16.3139 114.92 15.9807C115.327 15.6476 115.584 15.1684 115.635 14.6479C115.647 14.5297 115.647 14.4106 115.635 14.2923C115.635 13.018 114.733 12.3779 113.401 12.3779H110.401ZM113.508 10.2915C116.215 10.2915 118.222 11.3999 118.222 13.8952C118.222 15.7682 117.66 16.6632 116.43 17.3092C117.828 17.8308 118.616 18.7258 118.616 20.6403C118.616 23.5386 116.531 24.7241 113.687 24.7241H107.892V10.2915H113.508Z" fill="#1B232C"></path><path d="M126.277 22.3532C126.277 25.3938 125.261 26.1406 121.814 26.1406V24.1313C123.302 24.0898 123.756 23.7105 123.756 22.3176V10.2737H126.241L126.277 22.3532Z" fill="#1B232C"></path><path d="M131.552 10.2915H141.052V12.4371H134.056V16.4794H139.695V18.5836H134.056V22.537H141.052V24.7004H131.552V10.2915Z" fill="#1B232C"></path><path d="M149.935 18.708L147.862 18.8503V24.7004H145.359V10.2915H147.862V16.7284L149.894 16.5624L153.024 10.2915H155.958L152.146 17.4752L156.119 24.7004H153.162L149.935 18.708Z" fill="#1B232C"></path><path d="M158.234 10.2915H168.791V12.5438H164.824V24.7004H162.32V12.5438H158.234V10.2915Z" fill="#1B232C"></path><path d="M176.797 18.1449L174.3 18.1864V24.7062H172.919V10.1907H174.3V17.0009L176.755 16.9595L181.11 10.1907H182.735L177.998 17.4573L183.028 24.7062H181.355L176.797 18.1449Z" fill="#1B232C"></path><path d="M192.928 23.6808C195.503 23.6808 196.942 22.6851 196.942 20.4565V10.1907H198.347V20.4565C198.347 23.4971 196.494 24.89 192.969 24.89C189.588 24.89 187.736 23.5149 187.736 20.4565V10.1907H189.116V20.4565C189.116 22.6851 190.532 23.6808 192.969 23.6808" fill="#1B232C"></path><path d="M204.177 24.7003V10.1907H205.557V23.4971H212.506V24.7003H204.177Z" fill="#1B232C"></path><path d="M214.376 10.1907H225.113V11.3998H220.464V24.7062H219.09V11.3998H214.376V10.1907Z" fill="#1B232C"></path><path d="M234.192 23.6808C236.761 23.6808 238.207 22.6851 238.207 20.4565V10.1907H239.569V20.4565C239.569 23.4971 237.723 24.89 234.192 24.89C230.811 24.89 228.958 23.5149 228.958 20.4565V10.1907H230.333V20.4565C230.333 22.6851 231.755 23.6808 234.192 23.6808Z" fill="#1B232C"></path><path d="M250.922 11.3761H246.817V17.8248H250.922C253.473 17.8248 254.351 16.349 254.351 14.4938C254.351 12.4963 253.198 11.3702 250.898 11.3702L250.922 11.3761ZM250.85 19.0102H246.811V24.7359H245.431V10.1907H250.922C254.148 10.1907 255.797 11.625 255.797 14.4997C255.797 16.6038 254.96 18.2042 252.81 18.7257L256 24.724H254.465L251.388 19.0102H250.85Z" fill="#1B232C"></path></g><defs><clipPath id="clip0_5573_531"><rect width="256" height="56" fill="white"></rect></clipPath></defs></svg>