<?xml version="1.0" encoding="UTF-8"?><svg id="Layer_1" xmlns="http://www.w3.org/2000/svg" viewBox="0 0 512 512"><defs><style>.cls-1{fill:#d0d0d0;}</style></defs><path class="cls-1" d="m262.44,142.93c-3.77,2.66-7.41,5.52-10.88,8.54,3.83,3.24,7.45,6.75,10.84,10.54,3.41-3.73,7.05-7.2,10.86-10.41-3.45-3.07-7.07-5.96-10.82-8.67Z"/><path class="cls-1" d="m318.03,255.99c0,43.85-17.34,79.82-44.85,104.31-3.43,3.07-7.01,5.94-10.73,8.65-24.32,17.57-54.8,27.3-87.53,27.3-78.46,0-143.5-55.29-143.5-140.26S96.46,115.75,174.91,115.75c32.73,0,63.21,9.65,87.53,27.17-3.77,2.66-7.41,5.52-10.88,8.54-20.85-17.65-47.58-27.2-76.65-27.2-66.66,0-120.33,49.6-120.33,131.72s53.67,131.72,120.33,131.72c29.11,0,55.88-9.56,76.73-27.28,3.79-3.22,7.39-6.69,10.75-10.46,20.36-22.53,32.86-54.5,32.86-93.98s-12.5-71.45-32.86-93.98c3.41-3.73,7.05-7.2,10.86-10.41,27.47,24.47,44.77,60.38,44.77,104.4Z"/><path class="cls-1" d="m480.18,273.07c-5.71.81-15.06,1.21-23.17,1.21s-17.89-.41-23.6-1.21l-.4,2.02c9.35,3.26,12.2,7.73,12.61,19.93.4,10.97.81,37.4.81,57.31-26,24-61.78,35.37-95.54,35.37-29.37,0-56.52-9.63-77.71-27.41-3.43,3.07-7.01,5.94-10.73,8.65,24.73,17.57,55.54,27.3,88.44,27.3,48.79,0,91.06-21.55,116.28-57.73,0-15.44.4-32.52.81-43.89.4-11.8,3.26-16.27,12.61-19.53l-.4-2.02Zm-206.92-121.48c21.17-17.74,48.3-27.32,77.63-27.32,44.72,0,87,13.82,106.12,53.67l2.43-.81-1.62-23.17c-24.81-25.22-66.68-38.21-106.93-38.21-32.9,0-63.72,9.65-88.44,27.17-3.77,2.66-7.41,5.52-10.88,8.54-28.01,24.47-45.79,60.44-45.79,104.52s17.82,79.93,45.87,104.44c3.79-3.22,7.39-6.69,10.75-10.46-20.68-22.53-33.46-54.5-33.46-93.98s12.78-71.45,33.46-93.98c3.41-3.73,7.05-7.2,10.86-10.41Z"/></svg>