<?xml version="1.0" encoding="UTF-8"?> <svg xmlns="http://www.w3.org/2000/svg" xmlns:xlink="http://www.w3.org/1999/xlink" id="Layer_1" viewBox="0 0 345 341"><defs><style>.cls-1,.cls-2,.cls-3,.cls-4,.cls-5,.cls-6,.cls-7,.cls-8{fill:none;}.cls-2{stroke:#7b76b7;}.cls-2,.cls-9,.cls-3,.cls-10,.cls-5,.cls-6,.cls-11,.cls-8{stroke-width:.98px;}.cls-9{fill:#7b76b7;}.cls-9,.cls-10,.cls-11{stroke:#fff;}.cls-12{fill:#2c3a47;}.cls-13{fill:#5b58a6;}.cls-14{fill:url(#linear-gradient);}.cls-3{stroke:rgba(13,14,26,.15);stroke-dasharray:1.96;}.cls-10{fill:#f5918b;}.cls-15{fill:#fff;}.cls-4{stroke-width:.57px;}.cls-4,.cls-5{stroke:#00b19b;}.cls-6{stroke:#3cc4df;}.cls-16{fill:#e6e9ef;stroke:#d5cce6;}.cls-11{fill:#3cc4df;}.cls-7{stroke:url(#linear-gradient-2);stroke-width:2px;}.cls-17{clip-path:url(#clippath);}.cls-18{fill:#00b19b;}.cls-8{stroke:rgba(13,14,26,.3);}</style><clipPath id="clippath"><rect class="cls-1" width="345" height="341" rx="32" ry="32"></rect></clipPath><linearGradient id="linear-gradient" x1="70" y1="440" x2="80" y2="454" gradientTransform="translate(234 486) scale(1 -1)" gradientUnits="userSpaceOnUse"><stop offset="0" stop-color="#d5cce6"></stop><stop offset=".23" stop-color="#9588c1"></stop><stop offset=".6" stop-color="#5b58a6"></stop><stop offset="1" stop-color="#2e2e75"></stop></linearGradient><linearGradient id="linear-gradient-2" x1="-234" y1="315.5" x2="111" y2="315.5" gradientTransform="translate(234 486) scale(1 -1)" gradientUnits="userSpaceOnUse"><stop offset="0" stop-color="#e6e9ef"></stop><stop offset=".08" stop-color="#e0e0f1"></stop><stop offset=".26" stop-color="#d8d2e9"></stop><stop offset=".42" stop-color="#d5cce6"></stop><stop offset="1" stop-color="#9588c1"></stop></linearGradient></defs><g class="cls-17"><rect class="cls-15" width="345" height="341" rx="32" ry="32"></rect><path class="cls-12" d="M21.35,42.96v-7.71c0-.32,0-.62-.02-.9h4.62c.95,0,1.75.09,2.4.26.65.17,1.17.46,1.56.85.4.39.69.92.87,1.59.18.67.27,1.51.27,2.51v.24c0,.8-.06,1.5-.17,2.09-.11.58-.29,1.08-.54,1.49-.24.4-.56.72-.96.96-.4.24-.89.42-1.45.52-.56.1-1.22.15-1.98.15h-4.62c.01-.3.02-.61.02-.93v-1.11ZM23.18,43.81l-.42-.43h3.19c.63,0,1.16-.06,1.58-.17s.75-.3.99-.56c.24-.27.41-.64.51-1.11.1-.47.15-1.07.15-1.8v-.15c0-.73-.05-1.33-.15-1.8-.1-.47-.27-.83-.51-1.09-.24-.27-.57-.46-.99-.57-.41-.11-.94-.16-1.58-.16h-3.19l.42-.44v8.28ZM40.55,42.15v1.32c0,.43,0,.94.02,1.53h-1.62l-.03-1.49.03-.56-.13-.57v-.38l.21-.56-.26-.54v-1.44c0-.36-.03-.65-.1-.88-.06-.24-.17-.43-.33-.57-.16-.15-.38-.26-.66-.32-.27-.06-.62-.09-1.03-.09s-.74.03-.99.08c-.25.04-.44.11-.58.21-.13.09-.22.22-.27.39-.04.17-.06.38-.06.62l-1.71-.04c0-.48.05-.9.17-1.25.13-.35.33-.63.61-.85.29-.23.67-.4,1.14-.51.47-.11,1.04-.17,1.72-.17.77,0,1.4.06,1.9.18s.9.31,1.19.56c.29.24.49.55.62.93.13.37.19.81.19,1.32v.79c0,.23,0,.46-.02.67v1.61ZM35.93,45.18c-.61,0-1.13-.06-1.56-.17-.42-.1-.76-.26-1.02-.48-.25-.22-.43-.51-.54-.85s-.17-.77-.17-1.26.06-.92.17-1.27c.12-.36.31-.65.57-.89.26-.23.6-.39,1.02-.49.42-.11.94-.17,1.54-.17s1.08.05,1.49.15.75.25,1.02.45c.28.19.49.43.63.72.15.29.24.62.27,1.01l-.54.09c0-.18-.03-.33-.1-.47-.06-.14-.17-.26-.35-.34-.16-.1-.38-.18-.66-.23-.27-.05-.62-.08-1.05-.08s-.82.03-1.11.09c-.29.05-.51.14-.66.26-.15.11-.26.26-.31.45-.06.18-.09.4-.09.67,0,.35.06.62.19.83.13.19.35.33.67.42.32.08.74.12,1.28.12.43,0,.78-.03,1.06-.08.29-.05.51-.13.67-.24.17-.11.28-.25.35-.42.07-.17.1-.38.1-.62l.54.14c-.03.39-.12.75-.27,1.08-.15.33-.36.62-.63.85-.27.23-.61.41-1.03.54-.41.12-.9.18-1.49.18ZM43,42.97v-5.81c0-.33,0-.63-.01-.9h1.82c-.01.27-.02.57-.02.9v6.9c0,.32,0,.63.02.93h-1.82c.01-.3.01-.61.01-.93v-1.1ZM42.98,33.87h1.82v1.49h-1.82v-1.49ZM47.3,42.97v-8.29c0-.33,0-.63-.01-.9h1.81c-.01.27-.01.57-.01.9v9.39c0,.32,0,.63.01.93h-1.81c0-.3.01-.61.01-.93v-1.1ZM56.22,45.13c-.13.39-.26.72-.4.98-.14.26-.31.46-.49.6-.19.15-.43.26-.72.33-.28.07-.62.1-1.03.1-.17,0-.34,0-.51-.01-.16,0-.32-.01-.48-.03-.16,0-.33-.02-.5-.04l.05-1.51c.17,0,.33.02.48.03.16.02.31.03.43.03h.41c.23,0,.42-.03.57-.09.15-.05.28-.16.39-.33.12-.16.22-.39.31-.69l.27-.81.45.24h-1.81c-.15-.39-.33-.83-.54-1.33s-.44-1.03-.67-1.59c-.23-.56-.47-1.12-.72-1.69-.24-.57-.47-1.11-.69-1.63-.22-.52-.42-.99-.59-1.4h2.01l1.41,3.42c.28.67.55,1.35.81,2.03.27.68.51,1.3.72,1.86l-.66-1.23h.93l-.52,1.18c.16-.55.34-1.16.54-1.83.21-.67.42-1.35.63-2.04l1.06-3.39h1.92c-.15.41-.33.91-.54,1.5-.2.58-.42,1.2-.65,1.88-.22.67-.45,1.35-.69,2.02-.23.67-.44,1.31-.65,1.91-.2.6-.38,1.12-.53,1.56ZM74.35,34.35c-.01.25-.01.54-.01.87v3.63c.01.27.01.56.01.86v.96c0,.67-.06,1.26-.17,1.77-.1.5-.26.93-.5,1.29-.22.35-.52.64-.9.86-.37.22-.83.38-1.37.48-.54.1-1.17.15-1.9.15-.91,0-1.67-.08-2.29-.24s-1.11-.42-1.49-.76c-.37-.35-.64-.82-.81-1.4-.16-.59-.24-1.31-.24-2.15v-1.82c.01-.27.01-.52.01-.75v-2.88c0-.32,0-.61-.01-.87h1.86c0,.28-.01.59-.01.92v5.3c0,.59.04,1.08.14,1.47.1.38.26.69.48.92.22.22.52.38.91.47s.88.13,1.46.13,1.07-.04,1.46-.13.69-.24.92-.47c.22-.23.38-.53.46-.92.1-.39.15-.88.15-1.47v-5.31c0-.33,0-.63-.01-.9h1.86ZM76.79,43.02v-5.85c0-.29,0-.59-.01-.9h1.68l.03,1.63-.09.62.18,1.97v3.9c.01.19.01.4.01.62h-1.82c.01-.22.01-.43.01-.63v-1.35ZM84.55,41.46v2.85c.01.21.01.44.01.69h-1.8c.01-.23.01-.44.01-.62v-4.22c0-.5-.03-.91-.1-1.23s-.18-.56-.35-.73c-.16-.18-.37-.31-.63-.38-.26-.07-.58-.11-.98-.11s-.72.04-1,.12c-.27.07-.49.2-.66.4-.17.19-.3.47-.38.83-.07.36-.11.83-.11,1.41l-.58-.36c.03-.77.12-1.41.28-1.92.17-.52.4-.94.69-1.25.29-.31.65-.53,1.08-.66.43-.14.93-.21,1.5-.21.53,0,.99.06,1.36.17s.69.28.93.52c.25.24.43.56.54.94.12.38.18.85.18,1.41v.51c0,.2,0,.45-.01.75v1.06ZM87,42.97v-5.81c0-.33,0-.63-.01-.9h1.82c-.01.27-.01.57-.01.9v6.9c0,.32,0,.63.01.93h-1.82c.01-.3.01-.61.01-.93v-1.1ZM86.99,33.87h1.82v1.49h-1.82v-1.49ZM92.33,37.81h-2.07v-1.54h5.49v1.54h-3.42ZM91.64,39.06v-3.57c0-.34,0-.64-.01-.9l1.8-.05c0,.32-.01.63-.01.93v6.74c0,.35.03.62.09.8.06.18.19.31.39.38.21.07.53.1.94.1h.43c.12-.01.28-.02.48-.03v1.54c-.19.02-.4.03-.58.04-.19.01-.4.02-.63.02-.6,0-1.1-.04-1.49-.12-.38-.09-.67-.23-.88-.42-.2-.19-.34-.44-.42-.76-.08-.32-.12-.72-.12-1.19v-1.53c0-.31.01-.63.01-.96v-1.02ZM100.89,45.18c-.8,0-1.45-.05-1.96-.14-.51-.09-.91-.24-1.2-.46-.29-.22-.49-.53-.61-.92-.12-.4-.18-.9-.18-1.5l1.69-.05v.21c0,.28.03.51.09.69.07.18.18.33.35.44.17.1.4.17.7.22.3.04.69.06,1.15.06.37,0,.68-.02.92-.06.25-.04.44-.1.58-.19.14-.09.24-.21.3-.35s.09-.31.09-.51c0-.16-.03-.3-.09-.42-.05-.13-.16-.24-.33-.34-.17-.11-.42-.21-.76-.3-.33-.09-.77-.18-1.32-.27-.66-.11-1.21-.23-1.64-.36-.42-.13-.75-.29-.99-.48-.23-.2-.39-.44-.48-.72-.09-.28-.14-.62-.14-1.03,0-.47.06-.87.18-1.2.13-.34.33-.61.6-.81.27-.21.63-.36,1.08-.45.45-.1,1-.15,1.65-.15.78,0,1.41.05,1.89.15.49.1.86.26,1.12.49.27.22.45.51.56.87.11.35.17.78.17,1.29l-1.73.04v-.22c0-.21-.03-.39-.09-.54-.06-.16-.17-.28-.32-.38-.14-.1-.35-.17-.61-.21-.27-.04-.61-.06-1.04-.06-.32,0-.59.02-.81.06-.22.03-.4.09-.54.18-.14.08-.24.19-.3.33-.06.14-.09.3-.09.48,0,.17.03.32.07.45.06.13.17.24.32.33s.37.17.66.26c.29.07.67.14,1.14.21.77.12,1.39.26,1.88.4.49.15.86.33,1.11.54s.42.45.51.74c.1.28.15.6.15.97,0,.49-.06.91-.18,1.26-.11.35-.31.63-.58.84-.28.21-.67.36-1.15.45-.48.1-1.08.15-1.82.15ZM111.15,41.58l.35-1.61h4.6c.47,0,.85-.06,1.12-.18.29-.12.5-.32.62-.61.13-.3.19-.71.19-1.22v-.03c0-.52-.07-.92-.19-1.2-.12-.29-.33-.49-.62-.62-.28-.12-.65-.18-1.12-.18h-4.17l.66-.47v8.57c0,.28,0,.6.01.96h-1.86c.01-.36.01-.68.01-.96v-8.78c0-.28,0-.58-.01-.92h5.52c.68,0,1.25.07,1.71.19.47.13.85.34,1.12.63.29.28.5.65.63,1.11.14.45.21.99.21,1.62v.06c0,.64-.07,1.19-.21,1.65-.13.45-.34.82-.63,1.11-.28.29-.65.51-1.12.66-.46.14-1.03.21-1.71.21h-2.95c-.32-.01-.62-.01-.9-.01h-1.26ZM122.93,40.2c.03-.7.11-1.31.26-1.82.15-.52.35-.95.6-1.29.26-.34.57-.59.94-.75.38-.17.82-.26,1.32-.26.46,0,.84.04,1.14.13.31.09.56.24.74.45.19.2.33.47.4.81.08.34.12.76.12,1.27v.63c0,.22,0,.42-.01.62l-1.7.03v-.87c0-.28-.02-.51-.06-.69-.04-.19-.11-.34-.22-.45-.1-.11-.25-.19-.43-.23-.19-.05-.44-.08-.74-.08s-.56.04-.78.12c-.22.07-.41.2-.56.4-.14.2-.25.49-.33.87-.07.38-.11.88-.11,1.49l-.58-.4ZM121.73,43.02v-5.85c0-.29,0-.59-.01-.9h1.68l.03,1.63-.09.62.18,2.08v3.78c.01.19.01.4.01.62h-1.81c0-.22.01-.43.01-.63v-1.35ZM133.84,45.18c-.75,0-1.39-.07-1.93-.21-.53-.14-.96-.37-1.29-.69-.32-.33-.56-.77-.71-1.33s-.23-1.26-.23-2.08v-.45c0-.84.08-1.53.23-2.08.15-.56.38-1,.71-1.32.33-.33.76-.57,1.29-.71.54-.14,1.18-.21,1.93-.21s1.4.07,1.94.21c.53.14.96.38,1.29.71.33.32.57.76.72,1.32.15.55.23,1.24.23,2.08v.45c0,.83-.08,1.52-.23,2.08s-.39,1.01-.72,1.33c-.33.32-.76.55-1.29.69-.53.14-1.18.21-1.94.21ZM133.84,43.58c.45,0,.83-.04,1.12-.12.31-.09.56-.24.74-.45.18-.21.31-.5.39-.87.08-.38.12-.86.12-1.44v-.12c0-.59-.04-1.07-.12-1.44-.08-.37-.21-.66-.39-.87-.18-.21-.42-.35-.74-.43-.3-.09-.67-.14-1.12-.14s-.82.05-1.12.14c-.3.08-.54.22-.72.43-.18.21-.31.5-.39.87-.08.37-.12.85-.12,1.44v.12c0,.58.04,1.06.12,1.44.08.37.21.66.39.87.18.21.42.36.72.45.3.08.68.12,1.12.12ZM147.73,35.81v8.6c0,.2.01.4.01.6h-1.66l-.03-1.63.09-.62-.18-2.04v-.15l.14-1.85-.15-.9v-1.22c0-.41,0-.8-.01-1.17,0-.37,0-.69-.01-.97v-.68h1.83c0,.26-.01.56-.01.9v1.12ZM143.03,45.18c-.63,0-1.17-.07-1.62-.21s-.82-.37-1.12-.69c-.29-.32-.5-.76-.64-1.32-.14-.56-.21-1.26-.21-2.1v-.45c0-.84.07-1.54.21-2.1.14-.56.36-1,.66-1.32.3-.33.68-.56,1.14-.69.47-.14,1.03-.21,1.67-.21.59,0,1.1.08,1.51.26.42.17.76.43,1.04.78.27.34.47.77.61,1.29.15.51.24,1.1.26,1.77l-.57.38c0-.57-.04-1.04-.12-1.41-.08-.37-.21-.66-.39-.86-.18-.21-.41-.35-.71-.43-.29-.09-.65-.14-1.07-.14-.47,0-.86.05-1.18.14-.31.08-.56.22-.75.43-.18.2-.31.49-.39.86-.08.37-.12.84-.12,1.42v.12c0,.57.04,1.05.12,1.42.08.37.21.66.39.87.18.2.42.34.72.43.31.08.69.12,1.14.12s.81-.04,1.11-.12c.3-.09.54-.24.72-.43.19-.21.32-.5.4-.87.08-.37.12-.84.12-1.41l.57.36c-.02.68-.1,1.28-.26,1.78-.14.51-.35.94-.63,1.29-.28.35-.64.61-1.07.78-.43.17-.95.26-1.54.26ZM150.13,39.62v-2.46c0-.27,0-.56-.01-.88h1.8v.56c0,.17,0,.34-.01.52v3.75c0,.49.03.9.09,1.22.07.32.18.57.33.75.15.18.35.31.6.38.26.07.58.1.97.1s.72-.03.99-.1c.27-.08.49-.22.66-.42.17-.21.29-.51.36-.89.08-.38.12-.87.12-1.47l.59.36c-.03.79-.13,1.45-.3,1.99-.16.53-.39.95-.68,1.27-.29.31-.65.54-1.08.68-.42.14-.91.21-1.49.21-.53,0-.98-.06-1.35-.17-.37-.11-.68-.28-.92-.52-.23-.24-.4-.56-.52-.95-.11-.39-.17-.86-.17-1.41v-.99c.01-.22.01-.46.01-.71v-.82ZM157.82,38.25v5.85c0,.29,0,.59.01.9h-1.68l-.03-1.63.09-.62-.18-2.08v-3.78c0-.2,0-.4-.01-.61h1.82c0,.22,0,.43-.01.63v1.35ZM163.84,45.18c-.73,0-1.36-.07-1.89-.21-.52-.14-.95-.37-1.28-.69-.32-.33-.55-.77-.7-1.33-.15-.56-.23-1.26-.23-2.08v-.45c0-.84.07-1.53.23-2.08.15-.56.38-1,.7-1.32.32-.33.74-.57,1.26-.71.53-.14,1.16-.21,1.9-.21s1.38.06,1.89.19c.51.12.91.32,1.21.6.31.28.54.66.68,1.12.14.47.21,1.05.21,1.73l-1.75.06c0-.38-.04-.7-.12-.96-.07-.27-.19-.49-.36-.65-.17-.17-.4-.29-.68-.38-.28-.08-.64-.12-1.07-.12s-.81.05-1.11.14c-.29.08-.52.22-.71.43-.17.21-.29.5-.38.87-.08.37-.12.85-.12,1.44v.12c0,.58.04,1.06.12,1.44.08.37.21.66.39.87.18.21.42.36.71.45.3.08.66.12,1.1.12s.79-.04,1.08-.12c.29-.08.52-.2.69-.36.17-.16.29-.38.36-.65.08-.27.12-.6.12-.98l1.76.05c0,.67-.07,1.24-.21,1.71-.14.46-.37.83-.69,1.12-.31.29-.72.5-1.24.63-.51.13-1.14.19-1.88.19ZM173.38,45.18c-.76,0-1.4-.07-1.93-.21s-.96-.37-1.29-.69c-.33-.33-.58-.77-.74-1.33-.15-.56-.23-1.26-.23-2.08v-.45c0-.84.07-1.53.23-2.08.16-.56.4-1,.72-1.32.33-.33.75-.57,1.27-.71s1.15-.21,1.88-.21,1.37.07,1.88.21.92.38,1.23.71c.32.32.56.76.71,1.32.15.55.23,1.24.23,2.08v.76h-6.86v-1.33h5.97l-.97,1.06v-.65c0-.55-.04-1-.11-1.35-.07-.36-.18-.64-.34-.84-.16-.2-.38-.34-.66-.42-.27-.08-.62-.12-1.05-.12s-.79.05-1.1.14c-.3.08-.54.22-.72.43-.17.21-.29.51-.38.89s-.12.87-.12,1.47v.24c0,.58.04,1.06.12,1.44.08.38.21.68.39.9.19.21.43.36.74.45.31.09.7.13,1.15.13s.82-.03,1.1-.09c.28-.06.49-.15.65-.28.16-.13.27-.29.33-.49s.09-.44.09-.71l1.77.06c0,.55-.07,1.02-.2,1.41-.13.39-.35.71-.65.96-.29.24-.69.42-1.2.53-.5.12-1.13.18-1.9.18ZM187.01,35.81v8.6c0,.2.01.4.01.6h-1.66l-.03-1.63.09-.62-.18-2.04v-.15l.14-1.85-.15-.9v-1.22c0-.41,0-.8-.01-1.17,0-.37,0-.69-.01-.97v-.68h1.83c0,.26-.01.56-.01.9v1.12ZM182.32,45.18c-.63,0-1.17-.07-1.62-.21s-.82-.37-1.12-.69c-.29-.32-.51-.76-.65-1.32-.14-.56-.21-1.26-.21-2.1v-.45c0-.84.07-1.54.21-2.1.14-.56.36-1,.66-1.32.3-.33.68-.56,1.14-.69.47-.14,1.03-.21,1.67-.21.59,0,1.1.08,1.51.26.42.17.76.43,1.03.78.27.34.48.77.62,1.29.15.51.24,1.1.26,1.77l-.57.38c0-.57-.04-1.04-.12-1.41-.08-.37-.21-.66-.39-.86-.18-.21-.42-.35-.71-.43-.29-.09-.65-.14-1.07-.14-.47,0-.86.05-1.18.14-.31.08-.56.22-.75.43-.18.2-.31.49-.39.86-.08.37-.12.84-.12,1.42v.12c0,.57.04,1.05.12,1.42.08.37.21.66.39.87.18.2.42.34.72.43.31.08.69.12,1.14.12s.81-.04,1.11-.12c.3-.09.54-.24.72-.43.19-.21.32-.5.4-.87.08-.37.12-.84.12-1.41l.57.36c-.02.68-.11,1.28-.26,1.78-.14.51-.35.94-.63,1.29-.28.35-.63.61-1.06.78-.43.17-.95.26-1.55.26Z"></path><circle class="cls-18" cx="25.5" cy="65.5" r="4.5"></circle><path class="cls-12" d="M37.75,70h-2.69v-8.73h2.81c.85,0,1.57.17,2.17.52.6.35,1.06.85,1.39,1.5.32.65.48,1.42.48,2.33s-.16,1.69-.49,2.35c-.32.65-.8,1.16-1.41,1.51-.62.35-1.37.52-2.26.52ZM36.11,69.06h1.57c.72,0,1.32-.14,1.79-.42.47-.28.83-.67,1.06-1.19.23-.51.35-1.13.35-1.84s-.12-1.31-.35-1.82c-.23-.51-.57-.9-1.03-1.18-.46-.28-1.03-.41-1.71-.41h-1.69v6.85ZM45.47,70.15c-.41,0-.79-.08-1.13-.23-.34-.16-.61-.39-.81-.69-.2-.3-.3-.66-.3-1.09,0-.38.07-.68.22-.91.15-.24.35-.42.59-.55.25-.13.52-.23.82-.3.3-.07.6-.12.91-.16.4-.05.72-.09.97-.11.25-.03.43-.08.55-.14.12-.07.17-.18.17-.34v-.03c0-.42-.12-.75-.35-.98-.23-.23-.57-.35-1.04-.35s-.86.11-1.13.32c-.27.21-.46.43-.58.67l-.95-.34c.17-.4.4-.71.68-.93.29-.22.6-.38.94-.47.34-.09.68-.14,1.01-.14.21,0,.45.03.72.08.28.05.54.15.8.3.26.15.47.38.64.69.17.31.26.72.26,1.24v4.31h-1.01v-.89h-.05c-.07.14-.18.29-.34.46-.16.16-.37.3-.63.41-.26.11-.59.17-.97.17ZM45.62,69.25c.4,0,.73-.08,1.01-.23.28-.16.48-.36.62-.61.14-.25.21-.51.21-.78v-.92c-.04.05-.14.1-.28.14-.14.04-.31.08-.49.11-.18.03-.37.05-.54.08-.17.02-.31.04-.42.05-.26.03-.51.09-.73.17-.22.07-.41.19-.55.34-.14.15-.2.35-.2.61,0,.35.13.61.39.79.26.18.59.26.99.26ZM50.72,72.45c-.17,0-.32-.01-.46-.04-.13-.03-.23-.05-.28-.08l.26-.89c.24.06.46.09.65.07.19-.02.35-.1.5-.25.15-.15.28-.39.4-.72l.19-.51-2.42-6.58h1.09l1.81,5.22h.07l1.81-5.22h1.09l-2.78,7.5c-.12.34-.28.62-.46.84-.18.22-.4.39-.64.5-.24.11-.51.16-.82.16Z"></path><circle class="cls-13" cx="72.5" cy="65.5" r="4.5"></circle><path class="cls-12" d="M88.98,61.27v8.73h-1.02l-4.76-6.85h-.09v6.85h-1.06v-8.73h1.02l4.77,6.87h.09v-6.87h1.04ZM90.96,70v-6.55h1.01v6.55h-1.01ZM91.47,62.36c-.2,0-.37-.07-.51-.2-.14-.13-.21-.29-.21-.48s.07-.35.21-.48c.14-.13.31-.2.51-.2s.36.07.5.2c.14.13.21.29.21.48s-.07.35-.21.48c-.14.13-.31.2-.5.2ZM96.45,72.59c-.49,0-.9-.06-1.25-.19-.35-.12-.64-.28-.87-.49-.23-.2-.41-.41-.55-.64l.8-.56c.09.12.21.26.35.41.14.16.33.29.57.4.24.12.56.17.96.17.53,0,.96-.13,1.31-.38.34-.26.52-.66.52-1.2v-1.33h-.09c-.07.12-.18.27-.32.44-.13.17-.33.33-.58.46-.25.13-.59.2-1.01.2-.53,0-1-.12-1.42-.38-.42-.25-.75-.61-.99-1.09-.24-.48-.36-1.06-.36-1.74s.12-1.25.35-1.75c.24-.5.56-.89.98-1.16.42-.28.91-.41,1.46-.41.43,0,.76.07,1.01.21.25.14.45.3.58.48.14.18.24.32.32.43h.1v-1.04h.97v6.73c0,.56-.13,1.02-.38,1.37-.25.36-.59.61-1.02.78-.43.17-.9.25-1.42.25ZM96.41,68.99c.4,0,.74-.09,1.02-.28.28-.18.49-.45.64-.8.14-.35.22-.76.22-1.24s-.07-.89-.21-1.25c-.14-.36-.35-.64-.63-.85-.28-.2-.62-.31-1.03-.31s-.78.11-1.07.32c-.28.22-.49.51-.64.87-.14.36-.21.77-.21,1.21s.07.86.21,1.21c.14.35.36.62.64.82.28.2.64.29,1.06.29ZM102.12,66.06v3.94h-1.01v-8.73h1.01v3.2h.09c.15-.34.38-.61.69-.81.31-.2.72-.3,1.24-.3.45,0,.84.09,1.17.27.33.18.6.45.78.81.19.36.28.83.28,1.39v4.16h-1.01v-4.09c0-.52-.14-.92-.4-1.21-.27-.29-.64-.43-1.11-.43-.33,0-.62.07-.89.21-.26.14-.46.34-.61.61-.15.27-.22.59-.22.97ZM111.05,63.45v.85h-3.39v-.85h3.39ZM108.65,61.89h1v6.24c0,.28.04.5.12.64.08.14.19.23.32.28.13.05.27.07.42.07.11,0,.2,0,.27-.02.07-.01.13-.03.17-.03l.2.9c-.07.03-.16.05-.29.08-.12.03-.28.04-.46.04-.28,0-.56-.06-.84-.18-.27-.12-.49-.31-.67-.56-.18-.25-.26-.57-.26-.95v-6.51Z"></path><path d="M20.43,120.28v-.75l2.82-3.08c.33-.36.6-.67.82-.94.21-.27.37-.52.47-.76.11-.24.16-.49.16-.75,0-.3-.07-.56-.22-.78-.14-.22-.34-.39-.58-.51-.25-.12-.52-.18-.83-.18-.33,0-.61.07-.86.2-.24.13-.43.32-.56.56-.13.24-.2.52-.2.85h-.98c0-.5.12-.94.35-1.32.23-.38.54-.67.94-.88.4-.21.85-.32,1.35-.32s.94.11,1.33.32c.39.21.69.5.91.85.22.36.33.76.33,1.19,0,.31-.06.62-.17.92-.11.3-.31.63-.58,1-.27.36-.66.81-1.15,1.33l-1.92,2.05v.07h3.97v.92h-5.38ZM30.32,120.4c-.63,0-1.16-.17-1.6-.51-.44-.34-.78-.84-1.01-1.5-.23-.66-.35-1.45-.35-2.38s.12-1.71.35-2.36c.24-.65.57-1.15,1.02-1.5.44-.35.98-.52,1.6-.52s1.15.17,1.6.52c.44.34.78.84,1.02,1.5.24.65.35,1.44.35,2.36s-.12,1.72-.35,2.38c-.23.65-.57,1.15-1.01,1.5-.44.34-.98.51-1.6.51ZM30.32,119.48c.62,0,1.11-.3,1.45-.9.34-.6.52-1.46.52-2.57,0-.74-.08-1.37-.24-1.89-.16-.52-.38-.92-.67-1.19-.29-.27-.64-.41-1.05-.41-.62,0-1.1.3-1.45.91-.35.61-.52,1.46-.52,2.57,0,.74.08,1.37.23,1.88.16.52.38.91.67,1.18.29.27.65.4,1.06.4ZM37.65,120.4c-.63,0-1.16-.17-1.6-.51-.44-.34-.78-.84-1.01-1.5-.23-.66-.35-1.45-.35-2.38s.12-1.71.35-2.36c.24-.65.57-1.15,1.02-1.5.44-.35.98-.52,1.6-.52s1.15.17,1.6.52c.44.34.78.84,1.02,1.5.24.65.35,1.44.35,2.36s-.12,1.72-.35,2.38c-.23.65-.57,1.15-1.01,1.5-.44.34-.98.51-1.6.51ZM37.65,119.48c.62,0,1.11-.3,1.45-.9.34-.6.52-1.46.52-2.57,0-.74-.08-1.37-.24-1.89-.16-.52-.38-.92-.67-1.19-.29-.27-.64-.41-1.05-.41-.62,0-1.1.3-1.45.91-.35.61-.52,1.46-.52,2.57,0,.74.08,1.37.23,1.88.16.52.38.91.67,1.18.29.27.65.4,1.06.4Z"></path><path d="M25.43,157.3v8.53h-1.03v-7.45h-.05l-2.08,1.38v-1.05l2.13-1.42h1.03ZM30.55,165.95c-.49,0-.93-.1-1.32-.29-.39-.19-.71-.46-.94-.8-.24-.34-.37-.73-.39-1.16h1c.04.39.21.71.52.96.31.25.69.37,1.12.37.35,0,.66-.08.93-.24.27-.16.49-.39.65-.68.16-.29.24-.62.24-.98s-.08-.7-.25-1c-.16-.29-.38-.53-.67-.7-.28-.17-.61-.26-.97-.26-.26,0-.53.04-.8.12-.27.08-.5.18-.68.31l-.97-.12.52-4.2h4.43v.92h-3.57l-.3,2.52h.05c.18-.14.39-.25.66-.35.26-.09.54-.14.82-.14.52,0,.99.12,1.4.38.41.25.73.59.97,1.02.24.43.35.92.35,1.47s-.12,1.03-.37,1.46c-.24.43-.57.76-1,1.01-.42.24-.91.37-1.45.37ZM37.81,165.95c-.63,0-1.16-.17-1.6-.51-.44-.35-.78-.84-1.01-1.5-.23-.65-.35-1.45-.35-2.37s.12-1.71.35-2.36c.24-.66.57-1.15,1.02-1.5.44-.35.98-.52,1.6-.52s1.15.17,1.6.52c.44.35.78.84,1.02,1.5.24.65.35,1.44.35,2.36s-.12,1.72-.35,2.37c-.23.65-.57,1.15-1.01,1.5-.44.34-.98.51-1.6.51ZM37.81,165.03c.62,0,1.11-.3,1.45-.9.34-.6.52-1.46.52-2.57,0-.74-.08-1.37-.24-1.89-.16-.52-.38-.92-.67-1.19-.29-.27-.64-.41-1.05-.41-.62,0-1.1.3-1.45.91-.35.61-.52,1.46-.52,2.57,0,.74.08,1.37.23,1.88.16.52.38.91.67,1.18.29.27.65.4,1.06.4Z"></path><path d="M24.43,202.86v8.53h-1.03v-7.45h-.05l-2.08,1.38v-1.05l2.13-1.42h1.03ZM29.67,211.5c-.63,0-1.16-.17-1.6-.51-.44-.34-.78-.84-1.01-1.5-.23-.65-.35-1.45-.35-2.37s.12-1.71.35-2.36c.24-.65.57-1.15,1.02-1.5.44-.35.98-.52,1.6-.52s1.15.17,1.6.52c.44.34.78.84,1.02,1.5.24.65.35,1.44.35,2.36s-.12,1.72-.35,2.37c-.23.65-.57,1.15-1.01,1.5-.44.34-.98.51-1.6.51ZM29.67,210.59c.62,0,1.11-.3,1.45-.9.34-.6.52-1.46.52-2.57,0-.74-.08-1.37-.24-1.89-.16-.52-.38-.91-.67-1.19-.29-.27-.64-.41-1.05-.41-.62,0-1.1.3-1.45.91-.35.6-.52,1.46-.52,2.57,0,.74.08,1.37.23,1.88.16.52.38.91.67,1.18.29.27.65.4,1.06.4ZM37,211.5c-.63,0-1.16-.17-1.6-.51-.44-.34-.78-.84-1.01-1.5-.23-.65-.35-1.45-.35-2.37s.12-1.71.35-2.36c.24-.65.57-1.15,1.02-1.5.44-.35.98-.52,1.6-.52s1.15.17,1.6.52c.44.34.78.84,1.02,1.5.24.65.35,1.44.35,2.36s-.12,1.72-.35,2.37c-.23.65-.57,1.15-1.01,1.5-.44.34-.98.51-1.6.51ZM37,210.59c.62,0,1.11-.3,1.45-.9.34-.6.52-1.46.52-2.57,0-.74-.08-1.37-.24-1.89-.16-.52-.38-.91-.67-1.19-.29-.27-.64-.41-1.05-.41-.62,0-1.1.3-1.45.91-.35.6-.52,1.46-.52,2.57,0,.74.08,1.37.23,1.88.16.52.38.91.67,1.18.29.27.65.4,1.06.4Z"></path><path d="M30.1,257.06c-.49,0-.93-.1-1.32-.29-.39-.19-.71-.46-.94-.8-.24-.34-.37-.73-.39-1.16h1c.04.39.21.71.52.96.31.25.69.37,1.12.37.35,0,.66-.08.93-.25.27-.16.49-.39.65-.67.16-.29.24-.62.24-.98s-.08-.7-.25-1c-.16-.29-.38-.53-.67-.7-.28-.17-.61-.26-.97-.26-.26,0-.53.04-.8.12-.27.08-.5.19-.68.31l-.97-.12.52-4.2h4.43v.92h-3.57l-.3,2.52h.05c.17-.14.39-.25.66-.35.26-.09.54-.14.82-.14.52,0,.99.12,1.4.38.41.25.73.59.97,1.02.24.43.35.92.35,1.48s-.12,1.03-.37,1.46c-.24.43-.57.76-1,1.01-.42.24-.91.37-1.45.37ZM37.35,257.06c-.63,0-1.16-.17-1.6-.51-.44-.34-.78-.84-1.01-1.5-.23-.66-.35-1.45-.35-2.38s.12-1.71.35-2.36c.24-.66.57-1.16,1.02-1.5.44-.35.98-.52,1.6-.52s1.15.17,1.6.52c.44.34.78.84,1.02,1.5.24.65.35,1.44.35,2.36s-.12,1.72-.35,2.38c-.23.65-.57,1.15-1.01,1.5-.44.34-.98.51-1.6.51ZM37.35,256.14c.62,0,1.11-.3,1.45-.9.34-.6.52-1.46.52-2.57,0-.74-.08-1.37-.24-1.89-.16-.52-.38-.91-.67-1.19-.29-.27-.64-.41-1.05-.41-.62,0-1.1.3-1.45.91-.35.61-.52,1.46-.52,2.57,0,.74.08,1.37.23,1.88.16.52.38.91.67,1.18.29.27.65.4,1.06.4Z"></path><path d="M37.22,302.61c-.63,0-1.16-.17-1.6-.51-.44-.35-.78-.84-1.01-1.5-.23-.65-.35-1.45-.35-2.37s.12-1.71.35-2.36c.24-.65.57-1.15,1.02-1.5.44-.35.98-.52,1.6-.52s1.15.17,1.6.52c.44.35.78.85,1.02,1.5.24.65.35,1.44.35,2.36s-.12,1.72-.35,2.37c-.23.65-.57,1.15-1.01,1.5-.44.34-.98.51-1.6.51ZM37.22,301.7c.62,0,1.11-.3,1.45-.9.34-.6.52-1.46.52-2.57,0-.74-.08-1.37-.24-1.89-.16-.52-.38-.92-.67-1.19-.29-.27-.64-.41-1.05-.41-.62,0-1.1.3-1.45.91-.35.61-.52,1.46-.52,2.57,0,.74.08,1.37.23,1.88.16.52.38.91.67,1.18.29.27.65.4,1.06.4Z"></path><line class="cls-3" x1="46.44" y1="114.66" x2="330.95" y2="114.66"></line><line class="cls-3" x1="46.44" y1="160.74" x2="330.95" y2="160.74"></line><line class="cls-3" x1="46.44" y1="206.82" x2="330.95" y2="206.82"></line><line class="cls-3" x1="46.44" y1="252.89" x2="330.95" y2="252.89"></line><line class="cls-8" x1="46.44" y1="298.97" x2="330.95" y2="298.97"></line><line class="cls-3" x1="45.95" y1="299.46" x2="45.95" y2="115.15"></line><line class="cls-3" x1="69.66" y1="299.46" x2="69.66" y2="115.15"></line><line class="cls-3" x1="93.37" y1="299.46" x2="93.37" y2="115.15"></line><line class="cls-3" x1="117.08" y1="299.46" x2="117.08" y2="115.15"></line><line class="cls-3" x1="140.79" y1="299.46" x2="140.79" y2="115.15"></line><line class="cls-3" x1="164.49" y1="299.46" x2="164.49" y2="115.15"></line><line class="cls-3" x1="188.2" y1="299.46" x2="188.2" y2="115.15"></line><line class="cls-3" x1="211.91" y1="299.46" x2="211.91" y2="115.15"></line><line class="cls-3" x1="235.62" y1="299.46" x2="235.62" y2="115.15"></line><line class="cls-3" x1="259.33" y1="299.46" x2="259.33" y2="115.15"></line><line class="cls-3" x1="283.04" y1="299.46" x2="283.04" y2="115.15"></line><line class="cls-3" x1="306.75" y1="299.46" x2="306.75" y2="115.15"></line><line class="cls-3" x1="330.46" y1="299.46" x2="330.46" y2="115.15"></line><path class="cls-6" d="M57.4,203.2l23.87-23.21,23.87,4.82,23.87,31.79,23.87-12.35,23.87,50.81,23.87-43.92,23.87,12.57,23.87,3.57,23.87-31.25,23.87,24.45,23.87-3.34M319.99,217.14h0Z"></path><path class="cls-11" d="M61.59,203.2l-4.2,4.2-4.2-4.2,4.2-4.2,4.2,4.2Z"></path><path class="cls-11" d="M85.46,179.99l-4.2,4.2-4.2-4.2,4.2-4.2,4.2,4.2Z"></path><path class="cls-11" d="M109.34,184.82l-4.2,4.2-4.2-4.2,4.2-4.2,4.2,4.2Z"></path><path class="cls-11" d="M133.21,216.6l-4.2,4.2-4.2-4.2,4.2-4.2,4.2,4.2Z"></path><path class="cls-11" d="M157.08,204.26l-4.2,4.2-4.2-4.2,4.2-4.2,4.2,4.2Z"></path><path class="cls-11" d="M180.95,255.06l-4.2,4.2-4.2-4.2,4.2-4.2,4.2,4.2Z"></path><path class="cls-11" d="M204.82,211.14l-4.2,4.2-4.2-4.2,4.2-4.2,4.2,4.2Z"></path><path class="cls-11" d="M228.7,223.71l-4.2,4.2-4.2-4.2,4.2-4.2,4.2,4.2Z"></path><path class="cls-11" d="M252.57,227.28l-4.2,4.2-4.2-4.2,4.2-4.2,4.2,4.2Z"></path><path class="cls-11" d="M276.44,196.03l-4.2,4.2-4.2-4.2,4.2-4.2,4.2,4.2Z"></path><path class="cls-11" d="M300.31,220.48l-4.2,4.2-4.2-4.2,4.2-4.2,4.2,4.2Z"></path><path class="cls-11" d="M324.18,217.14l-4.2,4.2-4.2-4.2,4.2-4.2,4.2,4.2Z"></path><path class="cls-5" d="M57.4,203.2l23.87-23.21,23.87,4.82,23.87,31.79,23.87-12.35,23.87,50.81,23.87-43.92,23.87,12.57,23.87,3.57,23.87-31.25,23.87,24.45,23.87-3.34M319.99,217.14h0Z"></path><rect class="cls-4" x="57.68" y="203.48" width=".57" height=".67"></rect><path class="cls-10" d="M61.59,203.2l-4.2,4.2-4.2-4.2,4.2-4.2,4.2,4.2Z"></path><rect class="cls-4" x="81.55" y="180.28" width=".57" height=".67"></rect><path class="cls-10" d="M85.46,179.99l-4.2,4.2-4.2-4.2,4.2-4.2,4.2,4.2Z"></path><rect class="cls-4" x="105.42" y="185.1" width=".57" height=".67"></rect><path class="cls-10" d="M109.34,184.82l-4.2,4.2-4.2-4.2,4.2-4.2,4.2,4.2Z"></path><rect class="cls-4" x="129.3" y="216.89" width=".57" height=".67"></rect><path class="cls-10" d="M133.21,216.6l-4.2,4.2-4.2-4.2,4.2-4.2,4.2,4.2Z"></path><rect class="cls-4" x="153.17" y="204.54" width=".57" height=".67"></rect><path class="cls-10" d="M157.08,204.26l-4.2,4.2-4.2-4.2,4.2-4.2,4.2,4.2Z"></path><rect class="cls-4" x="177.04" y="255.35" width=".57" height=".67"></rect><path class="cls-10" d="M180.95,255.06l-4.2,4.2-4.2-4.2,4.2-4.2,4.2,4.2Z"></path><rect class="cls-4" x="200.91" y="211.43" width=".57" height=".67"></rect><path class="cls-10" d="M204.82,211.14l-4.2,4.2-4.2-4.2,4.2-4.2,4.2,4.2Z"></path><rect class="cls-4" x="224.78" y="223.99" width=".57" height=".67"></rect><path class="cls-10" d="M228.7,223.71l-4.2,4.2-4.2-4.2,4.2-4.2,4.2,4.2Z"></path><rect class="cls-4" x="248.66" y="227.56" width=".57" height=".67"></rect><path class="cls-10" d="M252.57,227.28l-4.2,4.2-4.2-4.2,4.2-4.2,4.2,4.2Z"></path><rect class="cls-4" x="272.53" y="196.32" width=".57" height=".67"></rect><path class="cls-10" d="M276.44,196.03l-4.2,4.2-4.2-4.2,4.2-4.2,4.2,4.2Z"></path><rect class="cls-4" x="296.4" y="220.76" width=".57" height=".67"></rect><path class="cls-10" d="M300.31,220.48l-4.2,4.2-4.2-4.2,4.2-4.2,4.2,4.2Z"></path><rect class="cls-4" x="320.27" y="217.43" width=".57" height=".67"></rect><path class="cls-10" d="M324.18,217.14l-4.2,4.2-4.2-4.2,4.2-4.2,4.2,4.2Z"></path><path class="cls-2" d="M57.4,251.23l23.87-7.06,23.87-15.32,23.87,17.77,23.87-28.91,23.87,69.27,23.87-23.93,23.87-20.78,23.87,35.55,23.87-42.85,23.87-.95,23.87,14.07M319.99,248.09h0Z"></path><path class="cls-9" d="M61.59,251.23l-4.2,4.2-4.2-4.2,4.2-4.2,4.2,4.2Z"></path><path class="cls-9" d="M85.46,244.17l-4.2,4.2-4.2-4.2,4.2-4.2,4.2,4.2Z"></path><path class="cls-9" d="M109.34,228.85l-4.2,4.2-4.2-4.2,4.2-4.2,4.2,4.2Z"></path><path class="cls-9" d="M133.21,246.62l-4.2,4.2-4.2-4.2,4.2-4.2,4.2,4.2Z"></path><path class="cls-9" d="M157.08,217.71l-4.2,4.2-4.2-4.2,4.2-4.2,4.2,4.2Z"></path><path class="cls-9" d="M180.95,286.98l-4.2,4.2-4.2-4.2,4.2-4.2,4.2,4.2Z"></path><path class="cls-9" d="M204.82,263.05l-4.2,4.2-4.2-4.2,4.2-4.2,4.2,4.2Z"></path><path class="cls-9" d="M228.7,242.27l-4.2,4.2-4.2-4.2,4.2-4.2,4.2,4.2Z"></path><path class="cls-9" d="M252.57,277.82l-4.2,4.2-4.2-4.2,4.2-4.2,4.2,4.2Z"></path><path class="cls-9" d="M276.44,234.97l-4.2,4.2-4.2-4.2,4.2-4.2,4.2,4.2Z"></path><path class="cls-9" d="M300.31,234.02l-4.2,4.2-4.2-4.2,4.2-4.2,4.2,4.2Z"></path><path class="cls-9" d="M324.18,248.09l-4.2,4.2-4.2-4.2,4.2-4.2,4.2,4.2Z"></path><path d="M52.21,306.01h1.03v6.1c0,.54-.1,1.01-.3,1.39-.2.38-.48.67-.85.87-.36.2-.79.3-1.29.3-.47,0-.88-.08-1.25-.25-.36-.17-.65-.42-.86-.73-.21-.32-.31-.69-.31-1.13h1.02c0,.24.06.45.18.63.12.18.29.32.5.42.21.1.45.15.72.15.3,0,.55-.06.76-.19s.37-.31.47-.55c.11-.24.17-.54.17-.9v-6.1ZM57.07,314.69c-.41,0-.77-.08-1.1-.23-.33-.15-.59-.38-.79-.67-.19-.29-.29-.65-.29-1.07,0-.37.07-.66.22-.89.14-.23.34-.41.58-.54.24-.13.51-.23.8-.29.29-.07.59-.12.89-.16.39-.05.7-.09.95-.11.24-.03.42-.07.53-.14.11-.06.17-.17.17-.33v-.03c0-.41-.11-.73-.34-.96-.22-.23-.56-.34-1.01-.34s-.84.1-1.1.31c-.27.21-.45.43-.56.66l-.93-.33c.17-.39.39-.69.67-.91.28-.22.59-.37.92-.46.33-.09.66-.13.98-.13.21,0,.44.02.71.07.27.05.53.15.78.3.25.15.46.38.63.68.17.3.25.71.25,1.22v4.21h-.98v-.87h-.05c-.07.14-.18.29-.33.45-.16.16-.36.29-.62.4-.26.11-.57.17-.95.17ZM57.22,313.81c.39,0,.72-.08.98-.23.27-.15.47-.35.61-.59.14-.24.21-.49.21-.76v-.9s-.13.1-.27.14c-.14.04-.3.07-.48.1-.18.03-.36.05-.53.08-.17.02-.31.04-.41.05-.26.03-.49.09-.72.16-.22.07-.4.18-.53.33-.13.14-.2.34-.2.59,0,.34.13.6.38.77.26.17.58.26.97.26ZM62.78,310.69v3.85h-.98v-6.4h.95v1h.08c.15-.32.38-.59.68-.78.31-.2.7-.3,1.18-.3.43,0,.81.09,1.14.27.32.17.58.44.76.8.18.36.27.8.27,1.35v4.07h-.98v-4c0-.5-.13-.89-.39-1.17-.26-.28-.62-.42-1.07-.42-.31,0-.59.07-.84.2-.24.14-.44.33-.58.6-.14.26-.21.58-.21.95Z"></path><path d="M72.39,314.54v-8.53h5.12v.92h-4.08v2.88h3.7v.92h-3.7v3.82h-1.03ZM81.35,314.67c-.62,0-1.15-.14-1.6-.41-.44-.27-.79-.66-1.03-1.15-.24-.49-.36-1.07-.36-1.72s.12-1.23.36-1.73c.24-.5.58-.89,1.01-1.17.43-.28.94-.42,1.52-.42.33,0,.66.05.99.17.32.11.62.29.89.54.27.25.48.58.64.98.16.41.24.91.24,1.51v.42h-4.93v-.85h3.93c0-.36-.07-.68-.22-.97-.14-.28-.34-.51-.61-.67-.26-.16-.57-.25-.92-.25-.39,0-.73.1-1.02.29-.28.19-.5.44-.65.75-.15.31-.23.64-.23.99v.57c0,.48.08.89.25,1.23.17.33.4.59.7.76.3.17.65.26,1.05.26.26,0,.49-.04.7-.11.21-.08.39-.19.55-.33.15-.15.27-.34.35-.56l.95.27c-.1.32-.27.61-.5.85-.24.24-.53.43-.87.57-.35.13-.74.2-1.17.2ZM85.63,314.54v-8.53h.98v3.15h.08c.07-.11.17-.25.3-.43.13-.17.32-.33.56-.47.24-.14.57-.21.99-.21.54,0,1.01.13,1.42.4.41.27.73.65.96,1.14.23.49.35,1.08.35,1.75s-.12,1.27-.35,1.76c-.23.49-.55.88-.96,1.15-.41.27-.88.4-1.41.4-.41,0-.74-.07-.99-.21-.25-.14-.44-.29-.57-.47-.13-.18-.24-.32-.31-.44h-.12v.98h-.95ZM86.6,311.34c0,.48.07.91.21,1.28.14.37.35.65.62.86.27.21.61.31,1,.31s.75-.11,1.03-.32c.28-.22.49-.51.62-.88.14-.37.21-.79.21-1.24s-.07-.86-.21-1.22c-.14-.36-.34-.65-.62-.86-.27-.21-.62-.32-1.04-.32s-.74.1-1.01.3c-.27.2-.48.48-.62.84-.14.36-.21.78-.21,1.25Z"></path><path d="M95.73,306.01h1.23l2.9,7.08h.1l2.9-7.08h1.23v8.53h-.97v-6.48h-.08l-2.67,6.48h-.93l-2.67-6.48h-.08v6.48h-.97v-8.53ZM107.92,314.69c-.41,0-.77-.08-1.1-.23-.33-.15-.59-.38-.79-.67-.19-.29-.29-.65-.29-1.07,0-.37.07-.66.22-.89.14-.23.34-.41.58-.54.24-.13.51-.23.8-.29.29-.07.59-.12.89-.16.39-.05.7-.09.94-.11.24-.03.42-.07.53-.14.11-.06.17-.17.17-.33v-.03c0-.41-.11-.73-.34-.96-.22-.23-.56-.34-1.01-.34s-.84.1-1.1.31c-.27.21-.45.43-.56.66l-.93-.33c.17-.39.39-.69.67-.91.28-.22.59-.37.92-.46.33-.09.66-.13.98-.13.21,0,.44.02.71.07.27.05.53.15.78.3.25.15.46.38.63.68.17.3.25.71.25,1.22v4.21h-.98v-.87h-.05c-.07.14-.18.29-.33.45-.15.16-.36.29-.62.4-.26.11-.57.17-.94.17ZM108.07,313.81c.39,0,.72-.08.98-.23.27-.15.47-.35.61-.59.14-.24.21-.5.21-.76v-.9s-.13.1-.27.14c-.14.04-.3.07-.48.1-.18.03-.36.05-.53.08-.17.02-.31.04-.41.05-.26.03-.49.09-.72.16-.22.07-.4.18-.53.33-.13.14-.2.34-.2.59,0,.34.13.6.38.77.26.17.58.26.97.26ZM112.65,314.54v-6.4h.95v.97h.07c.12-.32.33-.57.63-.77.31-.2.65-.3,1.03-.3.07,0,.16,0,.27,0,.11,0,.19,0,.25.01v1s-.11-.02-.23-.04c-.12-.02-.24-.03-.37-.03-.31,0-.59.07-.83.2-.24.13-.43.3-.58.53-.14.23-.21.48-.21.77v4.05h-.98Z"></path><path d="M120.85,314.54h-1.08l3.13-8.53h1.07l3.13,8.53h-1.08l-2.55-7.18h-.07l-2.55,7.18ZM121.25,311.21h4.37v.92h-4.37v-.92ZM128.3,316.94v-8.8h.95v1.02h.12c.07-.11.17-.25.3-.43.13-.17.32-.33.56-.47.24-.14.57-.21.99-.21.54,0,1.01.13,1.43.4.41.27.73.65.96,1.14.23.49.35,1.08.35,1.75s-.12,1.27-.35,1.76c-.23.49-.55.88-.96,1.15-.41.27-.88.4-1.41.4-.41,0-.74-.07-.99-.21-.25-.14-.44-.29-.57-.47-.13-.18-.24-.32-.31-.44h-.08v3.38h-.98ZM129.26,311.34c0,.48.07.91.21,1.28.14.37.35.65.62.86.27.21.6.31,1,.31s.75-.11,1.03-.32c.28-.22.49-.51.62-.88.14-.37.21-.79.21-1.24s-.07-.86-.21-1.22c-.14-.36-.34-.65-.62-.86-.28-.21-.62-.32-1.04-.32s-.74.1-1.01.3c-.27.2-.48.48-.62.84-.14.36-.21.78-.21,1.25ZM135.45,314.54v-6.4h.95v.97h.07c.12-.32.33-.57.63-.77.3-.2.65-.3,1.03-.3.07,0,.16,0,.27,0,.11,0,.19,0,.24.01v1s-.11-.02-.23-.04c-.12-.02-.24-.03-.37-.03-.31,0-.59.07-.83.2-.24.13-.43.3-.57.53-.14.23-.21.48-.21.77v4.05h-.98Z"></path><path d="M142.34,306.01h1.23l2.9,7.08h.1l2.9-7.08h1.23v8.53h-.97v-6.48h-.08l-2.67,6.48h-.93l-2.67-6.48h-.08v6.48h-.97v-8.53ZM154.52,314.69c-.4,0-.77-.08-1.1-.23-.33-.15-.59-.38-.79-.67-.19-.29-.29-.65-.29-1.07,0-.37.07-.66.22-.89.14-.23.34-.41.58-.54.24-.13.51-.23.8-.29.29-.07.59-.12.89-.16.39-.05.7-.09.95-.11.24-.03.42-.07.53-.14.11-.06.17-.17.17-.33v-.03c0-.41-.11-.73-.34-.96-.22-.23-.56-.34-1.01-.34s-.84.1-1.1.31c-.27.21-.45.43-.56.66l-.93-.33c.17-.39.39-.69.67-.91.28-.22.59-.37.92-.46.33-.09.66-.13.98-.13.21,0,.44.02.71.07.27.05.53.15.78.3.25.15.46.38.63.68.17.3.25.71.25,1.22v4.21h-.98v-.87h-.05c-.07.14-.18.29-.33.45-.15.16-.36.29-.62.4-.26.11-.57.17-.95.17ZM154.67,313.81c.39,0,.72-.08.98-.23.27-.15.47-.35.61-.59.14-.24.21-.5.21-.76v-.9s-.13.1-.27.14c-.14.04-.3.07-.48.1-.18.03-.36.05-.53.08-.17.02-.31.04-.41.05-.26.03-.49.09-.72.16-.22.07-.4.18-.53.33-.13.14-.2.34-.2.59,0,.34.13.6.38.77.26.17.58.26.97.26ZM159.65,316.94c-.17,0-.32-.01-.45-.04-.13-.02-.22-.05-.27-.08l.25-.87c.24.06.45.08.63.07.18-.02.35-.1.49-.25.15-.14.28-.38.4-.7l.18-.5-2.37-6.43h1.07l1.77,5.1h.07l1.77-5.1h1.07l-2.72,7.33c-.12.33-.27.6-.45.82-.18.22-.39.38-.63.49-.24.11-.5.16-.8.16Z"></path><path d="M171.04,306.01h1.03v6.1c0,.54-.1,1.01-.3,1.39-.2.38-.48.67-.85.87-.36.2-.79.3-1.29.3-.47,0-.88-.08-1.24-.25-.36-.17-.65-.42-.86-.73-.21-.32-.31-.69-.31-1.13h1.02c0,.24.06.45.18.63.12.18.29.32.5.42.21.1.45.15.72.15.3,0,.55-.06.76-.19.21-.12.37-.31.47-.55.11-.24.17-.54.17-.9v-6.1ZM178.04,311.92v-3.78h.98v6.4h-.98v-1.08h-.07c-.15.33-.38.6-.7.83-.32.23-.72.34-1.2.34-.4,0-.76-.09-1.07-.26-.31-.18-.56-.44-.73-.8-.18-.36-.27-.81-.27-1.35v-4.07h.98v4c0,.47.13.84.39,1.12.26.28.6.42,1.01.42.24,0,.49-.06.74-.19.26-.12.47-.32.64-.57.18-.26.26-.59.26-.99ZM181.8,310.69v3.85h-.98v-6.4h.95v1h.08c.15-.32.38-.59.68-.78.31-.2.7-.3,1.18-.3.43,0,.81.09,1.14.27.33.17.58.44.76.8.18.36.27.8.27,1.35v4.07h-.98v-4c0-.5-.13-.89-.39-1.17-.26-.28-.62-.42-1.07-.42-.31,0-.59.07-.84.2-.24.14-.44.33-.58.6-.14.26-.21.58-.21.95Z"></path><path d="M196.86,306.01h1.03v6.1c0,.54-.1,1.01-.3,1.39-.2.38-.48.67-.85.87-.36.2-.79.3-1.29.3-.47,0-.88-.08-1.25-.25-.36-.17-.65-.42-.86-.73-.21-.32-.31-.69-.31-1.13h1.02c0,.24.06.45.18.63.12.18.29.32.5.42.21.1.45.15.72.15.3,0,.55-.06.76-.19.21-.12.37-.31.48-.55.11-.24.17-.54.17-.9v-6.1ZM203.86,311.92v-3.78h.98v6.4h-.98v-1.08h-.07c-.15.33-.38.6-.7.83-.32.23-.72.34-1.2.34-.4,0-.76-.09-1.07-.26-.31-.18-.56-.44-.73-.8-.18-.36-.27-.81-.27-1.35v-4.07h.98v4c0,.47.13.84.39,1.12.26.28.6.42,1.01.42.24,0,.49-.06.75-.19.26-.12.47-.32.64-.57.17-.26.26-.59.26-.99ZM207.63,306.01v8.53h-.98v-8.53h.98Z"></path><path d="M214.77,314.54h-1.08l3.13-8.53h1.07l3.13,8.53h-1.08l-2.55-7.18h-.07l-2.55,7.18ZM215.17,311.21h4.37v.92h-4.37v-.92ZM226.24,311.92v-3.78h.98v6.4h-.98v-1.08h-.07c-.15.33-.38.6-.7.83-.32.23-.72.34-1.2.34-.4,0-.76-.09-1.07-.26-.31-.18-.56-.44-.73-.8-.18-.36-.27-.81-.27-1.35v-4.07h.98v4c0,.47.13.84.39,1.12.26.28.6.42,1.01.42.24,0,.49-.06.74-.19.26-.12.47-.32.64-.57.18-.26.26-.59.26-.99ZM231.61,317.07c-.47,0-.88-.06-1.22-.18-.34-.12-.63-.28-.85-.48-.23-.2-.4-.4-.54-.62l.78-.55c.09.12.2.25.34.4.14.15.32.29.56.4.24.11.55.17.94.17.52,0,.94-.12,1.28-.38.34-.25.5-.64.5-1.17v-1.3h-.08c-.07.12-.18.26-.31.43-.13.17-.32.32-.57.45-.24.13-.57.2-.99.2-.52,0-.98-.12-1.39-.37-.41-.24-.73-.6-.97-1.07-.24-.47-.35-1.03-.35-1.7s.12-1.23.35-1.71c.23-.49.55-.87.96-1.13.41-.27.89-.4,1.43-.4.42,0,.75.07.99.21.25.14.44.29.57.47.13.17.24.31.31.43h.1v-1.02h.95v6.58c0,.55-.12,1-.38,1.34-.25.35-.58.6-1,.76-.42.16-.88.25-1.39.25ZM231.57,313.56c.4,0,.73-.09,1-.27.27-.18.48-.44.62-.78.14-.34.21-.74.21-1.22s-.07-.87-.21-1.22c-.14-.35-.35-.63-.62-.83-.27-.2-.61-.3-1.01-.3s-.76.1-1.04.32c-.27.21-.48.5-.62.85-.14.36-.2.75-.2,1.18s.07.84.21,1.18c.14.34.35.61.62.8.28.19.62.29,1.03.29Z"></path><path d="M243.08,308.14c-.05-.42-.25-.75-.61-.98-.36-.23-.79-.35-1.31-.35-.38,0-.71.06-.99.18-.28.12-.5.29-.66.5-.15.21-.23.46-.23.73,0,.23.05.42.16.59.11.16.25.29.42.4.17.11.35.19.54.26.19.07.36.12.52.16l.87.23c.22.06.47.14.74.24.27.1.54.24.79.42.25.17.46.4.62.67.16.27.25.61.25,1.01,0,.46-.12.88-.36,1.25-.24.37-.59.67-1.05.89-.46.22-1.01.33-1.67.33-.61,0-1.14-.1-1.59-.29-.45-.2-.8-.47-1.05-.83-.25-.35-.4-.76-.43-1.23h1.07c.03.32.14.59.32.8.19.21.43.36.73.47.29.1.61.15.95.15.39,0,.75-.06,1.06-.19.31-.13.56-.31.75-.54.18-.23.27-.51.27-.82,0-.28-.08-.51-.24-.69-.16-.18-.37-.32-.62-.43s-.54-.21-.84-.29l-1.05-.3c-.67-.19-1.19-.46-1.58-.82-.39-.36-.58-.82-.58-1.4,0-.48.13-.89.39-1.25.26-.36.61-.64,1.05-.83.44-.2.93-.3,1.48-.3s1.04.1,1.47.3c.43.19.77.46,1.02.8.25.34.39.72.4,1.15h-1ZM248.45,314.67c-.62,0-1.15-.14-1.6-.41-.44-.27-.79-.66-1.03-1.15-.24-.49-.36-1.07-.36-1.72s.12-1.23.36-1.73c.24-.5.58-.89,1.01-1.17.43-.28.94-.42,1.52-.42.33,0,.66.05.99.17.32.11.62.29.89.54.27.25.48.58.64.98.16.41.24.91.24,1.51v.42h-4.93v-.85h3.93c0-.36-.07-.68-.22-.97-.14-.28-.34-.51-.61-.67-.26-.16-.57-.25-.92-.25-.39,0-.73.1-1.02.29-.28.19-.5.44-.65.75-.15.31-.23.64-.23.99v.57c0,.48.08.89.25,1.23.17.33.4.59.7.76.3.17.65.26,1.04.26.26,0,.49-.04.7-.11.21-.08.39-.19.55-.33.15-.15.27-.34.35-.56l.95.27c-.1.32-.27.61-.5.85-.24.24-.53.43-.87.57-.35.13-.74.2-1.17.2ZM252.59,316.94v-8.8h.95v1.02h.12c.07-.11.17-.25.3-.43.13-.17.32-.33.56-.47.24-.14.57-.21.99-.21.54,0,1.01.13,1.42.4.41.27.73.65.96,1.14.23.49.35,1.08.35,1.75s-.11,1.27-.35,1.76c-.23.49-.55.88-.96,1.15-.41.27-.88.4-1.41.4-.41,0-.74-.07-.99-.21-.25-.14-.44-.29-.57-.47-.13-.18-.24-.32-.31-.44h-.08v3.38h-.98ZM253.56,311.34c0,.48.07.91.21,1.28.14.37.35.65.62.86.27.21.61.31,1,.31s.75-.11,1.03-.32c.28-.22.49-.51.62-.88.14-.37.21-.79.21-1.24s-.07-.86-.21-1.22c-.14-.36-.34-.65-.62-.86-.27-.21-.62-.32-1.04-.32s-.74.1-1.01.3c-.27.2-.48.48-.62.84-.14.36-.21.78-.21,1.25Z"></path><path d="M270.26,310.27c0,.9-.16,1.68-.49,2.33-.33.66-.77,1.16-1.34,1.52-.57.36-1.21.53-1.94.53s-1.38-.18-1.94-.53c-.57-.36-1.01-.86-1.34-1.52-.33-.65-.49-1.43-.49-2.33s.16-1.68.49-2.33c.32-.65.77-1.16,1.34-1.52.57-.36,1.21-.53,1.94-.53s1.38.18,1.94.53c.57.36,1.01.86,1.34,1.52s.49,1.43.49,2.33ZM269.26,310.27c0-.74-.12-1.36-.37-1.87-.24-.51-.58-.89-.99-1.15-.42-.26-.88-.39-1.4-.39s-.99.13-1.4.39c-.42.26-.75.64-.99,1.15-.24.51-.37,1.13-.37,1.87s.12,1.36.37,1.87c.25.51.58.89.99,1.15.42.26.89.39,1.4.39s.98-.13,1.4-.39c.42-.26.75-.65.99-1.15.25-.51.37-1.13.37-1.87ZM274.46,314.67c-.6,0-1.12-.14-1.55-.43-.43-.28-.77-.67-1-1.17-.23-.5-.35-1.07-.35-1.7s.12-1.22.36-1.72c.24-.5.58-.89,1.01-1.17.43-.28.94-.42,1.52-.42.45,0,.85.08,1.22.25.36.17.66.4.89.7.23.3.37.65.43,1.05h-.98c-.08-.29-.24-.55-.5-.77-.26-.23-.6-.34-1.03-.34-.38,0-.72.1-1.01.3-.29.2-.51.48-.67.84-.16.36-.24.78-.24,1.26s.08.93.23,1.29c.16.37.38.65.67.85.29.2.63.3,1.02.3.26,0,.49-.04.7-.13.21-.09.38-.22.53-.38.14-.17.25-.37.31-.6h.98c-.06.38-.19.72-.41,1.02-.22.3-.5.54-.86.72-.36.17-.77.26-1.24.26ZM281.19,308.14v.83h-3.32v-.83h3.32ZM278.84,306.61h.98v6.1c0,.28.04.49.12.62.08.14.19.23.32.27.13.05.27.07.41.07.11,0,.2,0,.27-.02.07-.01.12-.02.17-.03l.2.88c-.07.02-.16.05-.28.07-.12.03-.27.04-.45.04-.28,0-.55-.06-.82-.18-.26-.12-.48-.3-.66-.54-.17-.24-.26-.55-.26-.93v-6.36Z"></path><path d="M292.42,306.01v8.53h-1l-4.65-6.7h-.08v6.7h-1.03v-8.53h1l4.67,6.71h.08v-6.71h1.02ZM296.95,314.67c-.58,0-1.08-.14-1.52-.41-.43-.28-.77-.66-1.02-1.15-.24-.49-.36-1.07-.36-1.73s.12-1.25.36-1.74c.24-.5.58-.88,1.02-1.16.44-.27.94-.41,1.52-.41s1.08.14,1.52.41c.44.27.78.66,1.02,1.16.24.5.37,1.08.37,1.74s-.12,1.24-.37,1.73c-.24.5-.58.88-1.02,1.15-.43.27-.94.41-1.52.41ZM296.95,313.79c.44,0,.8-.11,1.08-.34.28-.23.49-.52.63-.89.14-.37.2-.76.2-1.19s-.07-.83-.2-1.19c-.14-.37-.35-.67-.63-.9-.28-.23-.64-.34-1.08-.34s-.8.11-1.08.34c-.28.23-.49.53-.63.9-.14.37-.2.77-.2,1.19s.07.83.2,1.19c.14.37.35.66.63.89.28.23.64.34,1.08.34ZM306.35,308.14l-2.37,6.4h-1l-2.37-6.4h1.07l1.77,5.1h.07l1.77-5.1h1.07Z"></path><path d="M312.23,314.54h-2.63v-8.53h2.75c.83,0,1.54.17,2.12.51.59.34,1.04.83,1.35,1.46.31.63.47,1.39.47,2.27s-.16,1.65-.48,2.3c-.32.64-.78,1.13-1.38,1.48-.61.34-1.34.51-2.21.51ZM310.63,313.62h1.53c.7,0,1.29-.14,1.75-.41.46-.27.81-.66,1.04-1.16.23-.5.34-1.1.34-1.8s-.11-1.28-.34-1.78c-.23-.5-.56-.88-1.01-1.15-.45-.27-1-.4-1.67-.4h-1.65v6.7ZM320.58,314.67c-.62,0-1.15-.14-1.6-.41-.44-.27-.79-.66-1.03-1.15-.24-.49-.36-1.07-.36-1.72s.12-1.23.36-1.73c.24-.5.58-.89,1.01-1.17.43-.28.94-.42,1.52-.42.33,0,.66.05.99.17.32.11.62.29.89.54.27.25.48.58.64.98.16.41.24.91.24,1.51v.42h-4.93v-.85h3.93c0-.36-.07-.68-.22-.97-.14-.28-.34-.51-.61-.67-.26-.16-.57-.25-.92-.25-.39,0-.73.1-1.02.29-.28.19-.5.44-.65.75-.15.31-.23.64-.23.99v.57c0,.48.08.89.25,1.23.17.33.4.59.7.76.3.17.65.26,1.05.26.26,0,.49-.04.7-.11.21-.08.39-.19.55-.33.15-.15.27-.34.35-.56l.95.27c-.1.32-.27.61-.5.85-.24.24-.53.43-.88.57-.35.13-.74.2-1.17.2ZM327.32,314.67c-.6,0-1.12-.14-1.55-.43-.43-.28-.77-.67-1-1.17s-.35-1.07-.35-1.7.12-1.22.36-1.72c.24-.5.58-.89,1.01-1.17.43-.28.94-.42,1.52-.42.45,0,.85.08,1.22.25.36.17.66.4.89.7.23.3.37.65.43,1.05h-.98c-.07-.29-.24-.55-.5-.77-.26-.23-.6-.34-1.03-.34-.38,0-.72.1-1.01.3-.29.2-.51.48-.67.84-.16.36-.24.78-.24,1.26s.08.93.23,1.29c.16.37.38.65.67.85.29.2.63.3,1.02.3.26,0,.49-.04.7-.13.21-.09.38-.22.53-.38.14-.17.25-.37.31-.6h.98c-.05.38-.19.72-.41,1.02-.22.3-.5.54-.86.72-.36.17-.77.26-1.24.26Z"></path><circle class="cls-16" cx="308.5" cy="38.5" r="17"></circle><path class="cls-14" d="M303.19,45.42c-.32.45-.22,1.07.23,1.39.45.32,1.07.22,1.39-.23l-.81-.58-.81-.58ZM314.99,31.84c-.09-.54-.61-.91-1.15-.82l-8.88,1.48c-.55.09-.91.61-.82,1.15.09.54.61.91,1.15.82l7.89-1.32,1.32,7.89c.09.54.61.91,1.15.82.54-.09.91-.61.82-1.15l-1.48-8.88ZM304,46l.81.58,10-14-.81-.58-.81-.58-10,14,.81.58Z"></path></g><rect class="cls-7" x="1" y="1" width="343" height="339" rx="31" ry="31"></rect></svg> 