<?xml version="1.0" encoding="utf-8"?>
<!-- Generator: Adobe Illustrator 21.0.0, SVG Export Plug-In . SVG Version: 6.00 Build 0)  -->
<svg version="1.1" id="Layer_1" xmlns="http://www.w3.org/2000/svg" xmlns:xlink="http://www.w3.org/1999/xlink" x="0px" y="0px"
	 viewBox="0 0 1767.1 278.8" style="enable-background:new 0 0 1767.1 278.8;" xml:space="preserve">
<style type="text/css">
	.st0{fill:#082D33;}
	.st1{fill:#3FBCD1;}
	.st2{fill:#FFFFFF;}
</style>
<g>
	<path class="st1" d="M125.6,18.5c-57.3,0-104,46.6-104,104c0,31.8,14.3,61.5,39.2,81.3l1,0.8c1.9,1.5,3.9,3.1,5.7,4.7l52.2,46.3
		c1.7,1.5,3.8,2.2,5.9,2.2c2.1,0,4.2-0.7,5.9-2.2l29.7-26.3c3.6-3.2,4-8.8,0.7-12.5c-3.2-3.6-8.8-4-12.5-0.7l-23.8,21.1l-46.4-41.1
		c-2.1-1.8-4.3-3.6-6.4-5.3l-1-0.8c-20.7-16.5-32.6-41.1-32.6-67.5c0-47.6,38.7-86.3,86.3-86.3s86.3,38.7,86.3,86.3
		c0,25.3-10.9,48.9-29.9,65.3l-37.4-26.9l18.8-26.1c15.1-20.9,6-40.3-9.6-51.5c-15.5-11.1-37-13.8-52.1,7.1l-24.3,33.8
		c-2.2,3-1.4,7.4,1.7,9.7l99.5,71.7c3.6,2.6,8.4,2,11.1-1.4c0.2-0.1,0.4-0.2,0.6-0.4c24.9-19.9,39.2-49.5,39.2-81.3
		C229.5,65.2,182.9,18.5,125.6,18.5z M95.5,125.3L114,99.5c8.2-11.5,21.1-9.4,30.1-2.9c9.2,6.6,14.8,18.1,6.2,30.1l-18,25.1
		L95.5,125.3z"/>
	<g>
		<path class="st0" d="M407.7,179.1v17.7h-74.2V79.6h21v99.5H407.7z"/>
		<path class="st0" d="M516,196.8l-10-30.3h-43.1l-10,30.3h-21.6l41.6-117.2h23.6l41.6,117.2H516z M484.1,100.3l-16.4,50H501
			l-16.3-50H484.1z"/>
		<path class="st0" d="M587.5,196.8h-20.2V79.6h18.2l58.2,82.1h0.7V79.6h20.1v117.2h-18l-58.2-82.2h-0.7V196.8z"/>
		<path class="st0" d="M701.8,79.6h42.8c17.5,0,31.2,5.1,41,15.3c9.8,10.2,14.7,24.5,14.7,43.1c0,18.6-4.9,33-14.7,43.4
			c-9.8,10.3-23.5,15.5-41,15.5h-42.8V79.6z M722.8,97.3v81.8h19.7c11.8,0,20.8-3.5,27.1-10.6c6.3-7,9.4-17.2,9.4-30.5
			c0-13.1-3.2-23.2-9.5-30.2c-6.3-7-15.4-10.5-27.1-10.5H722.8z"/>
		<path class="st0" d="M854.5,196.8h-21V79.6h21V196.8z"/>
		<path class="st0" d="M912,196.8h-20.2V79.6H910l58.2,82.1h0.7V79.6H989v117.2h-18l-58.2-82.2H912V196.8z"/>
		<path class="st0" d="M1129,147.9c0,15.9-4.5,28.4-13.5,37.4c-9,9-21.5,13.5-37.6,13.5c-17.1,0-30.6-5.5-40.6-16.4
			c-9.9-10.9-14.9-25.8-14.9-44.6c0-18.6,4.9-33.2,14.8-44c9.9-10.7,23.3-16.1,40.3-16.1c13.3,0,24.6,3.6,33.9,10.8
			c9.3,7.2,14.8,16.7,16.7,28.4h-21.3c-2-6.7-5.6-12-10.7-15.8c-5.1-3.8-11.3-5.7-18.5-5.7c-10.6,0-18.8,3.7-24.8,11.1
			c-6,7.4-8.9,17.7-8.9,31c0,13.5,3.1,24.1,9.2,31.8c6.1,7.7,14.5,11.6,25.1,11.6c8.8,0,16-2.5,21.7-7.6c5.6-5.1,8.5-11.7,8.7-20
			l0.1-1.9h-28.3v-16h48.7V147.9z"/>
		<path class="st0" d="M1212.6,79.6h45.6c11.7,0,21.2,3.6,28.5,10.8s11,16.7,11,28.4c0,11.6-3.7,21.1-11.3,28.4
			c-7.5,7.3-17.2,10.9-29.1,10.9h-23.7v38.8h-21V79.6z M1233.6,96.7v44.4h19c7.5,0,13.4-1.9,17.5-5.8s6.3-9.4,6.3-16.5
			c0-7-2.1-12.5-6.2-16.3c-4.1-3.8-10-5.8-17.5-5.8H1233.6z"/>
		<path class="st0" d="M1381.3,77.6c17.1,0,30.6,5.4,40.6,16.3c10,10.9,15,25.6,15,44.3c0,18.6-5,33.4-15,44.2
			c-10,10.9-23.5,16.3-40.6,16.3c-17.1,0-30.7-5.4-40.7-16.3c-10-10.9-15-25.6-15-44.2c0-18.6,5-33.4,15-44.3
			C1350.6,83.1,1364.2,77.6,1381.3,77.6z M1406.2,107.1c-6.2-7.7-14.5-11.6-24.9-11.6c-10.4,0-18.8,3.8-24.9,11.5
			c-6.2,7.7-9.3,18.1-9.3,31.2c0,13.1,3.1,23.4,9.3,31.1c6.2,7.7,14.5,11.5,24.9,11.5c10.4,0,18.8-3.8,24.9-11.5
			c6.2-7.7,9.3-18.1,9.3-31.1C1415.5,125.2,1412.4,114.8,1406.2,107.1z"/>
		<path class="st0" d="M1491.1,196.8h-21V79.6h21V196.8z"/>
		<path class="st0" d="M1548.6,196.8h-20.2V79.6h18.2l58.2,82.1h0.7V79.6h20.1v117.2h-18l-58.2-82.2h-0.7V196.8z"/>
		<path class="st0" d="M1712.5,196.8h-20.9V97.3h-35.1V79.6h91v17.7h-35V196.8z"/>
	</g>
</g>
</svg>
