<?xml version="1.0" encoding="UTF-8"?>
<svg xmlns="http://www.w3.org/2000/svg" width="131" height="25" viewBox="0 0 131 25" fill="none">
  <path d="M36.0325 21.7415C35.5084 22.2837 35.5084 23.1512 36.0325 23.6934C36.5566 24.2355 37.3952 24.2355 37.9193 23.6934C38.4434 23.1512 38.4434 22.2837 37.9193 21.7415C37.3952 21.1993 36.5566 21.1993 36.0325 21.7415ZM47.3794 2.35849C47.9035 1.81631 47.9035 0.948819 47.3794 0.406637C46.8553 -0.135546 46.0167 -0.135546 45.4926 0.406637C44.9685 0.948819 44.9685 1.81631 45.4926 2.35849C46.0167 2.90067 46.8553 2.90067 47.3794 2.35849ZM45.0209 3.82238L41.6666 7.26524H41.6928C44.2348 7.26524 46.305 9.40686 46.305 12.0364C46.305 13.3648 45.7809 14.5576 44.9423 15.398L39.8061 20.7114C40.4088 20.8469 41.0377 20.9282 41.6928 20.9282C46.4622 20.9282 50.3144 16.9432 50.3144 12.0093C50.3144 8.34961 48.1393 5.15073 45.0209 3.82238ZM41.6928 16.8076C39.1509 16.8076 37.0807 14.666 37.0807 12.0364C37.0807 10.7081 37.6048 9.5153 38.4434 8.67492L43.5796 3.36153C42.9769 3.22598 42.348 3.14466 41.6928 3.14466C36.9235 3.14466 33.0713 7.1297 33.0713 12.0636C33.0713 15.7775 35.2463 18.9493 38.3648 20.3047L41.719 16.8076C41.719 16.8076 41.719 16.8076 41.6928 16.8076Z" fill="#006DFF"></path>
  <path d="M20.3353 20.5217V9.81363C20.3353 8.2413 19.654 7.10272 17.8982 7.10272C16.3783 7.10272 15.1205 8.15997 14.4915 9.08168V20.5488H10.1415V9.81363C10.1415 8.2413 9.46012 7.10272 7.70436 7.10272C6.21066 7.10272 4.95281 8.15997 4.29767 9.08168V20.5488H0V3.55142H4.32388V5.72015C5.03142 4.74422 7.18026 3.11768 9.69597 3.11768C12.1069 3.11768 13.6792 4.28337 14.2557 6.18101C15.1991 4.6629 17.3741 3.11768 19.8898 3.11768C22.9034 3.11768 24.7116 4.77133 24.7116 8.2413V20.5217H20.3353Z" fill="black"></path>
  <path d="M26.9912 20.5223V3.552H31.3151V20.5223H26.9912Z" fill="black"></path>
  <path d="M56.2629 20.5223L49.6592 3.552H54.2975L58.569 15.3716L62.8929 3.552H67.505L60.9013 20.5223H56.2629Z" fill="black"></path>
  <path d="M68.6582 20.5223V3.552H72.9821V20.5223H68.6582Z" fill="black"></path>
  <path d="M74.1875 18.3259L76.0481 15.0999C77.2797 16.2927 79.6906 17.4584 81.7346 17.4584C83.5952 17.4584 84.4862 16.7264 84.4862 15.6692C84.4862 12.9041 74.764 15.1812 74.764 8.48527C74.764 5.63881 77.1487 3.14478 81.4988 3.14478C84.2503 3.14478 86.4516 4.1207 88.1025 5.47616L86.373 8.62082C85.3772 7.56356 83.5166 6.64185 81.525 6.64185C79.9527 6.64185 78.9307 7.34669 78.9307 8.29551C78.9307 10.7895 88.679 8.67503 88.679 15.5336C88.679 18.6512 86.0847 20.9555 81.5512 20.9555C78.6948 20.9555 75.9171 19.9795 74.1875 18.3259Z" fill="black"></path>
  <path d="M90.4609 20.5223V3.552H94.7848V20.5223H90.4609Z" fill="black"></path>
  <path d="M126.65 20.5215V10.2742C126.65 7.91574 125.471 7.10247 123.637 7.10247C121.933 7.10247 120.649 8.0784 119.889 9.08144V20.5486H115.565V3.55118H119.889V5.71991C120.938 4.44578 122.982 3.11743 125.628 3.11743C129.271 3.11743 131 5.23194 131 8.53925V20.5215H126.65Z" fill="black"></path>
  <path d="M105.188 3.11743C100.419 3.11743 96.5664 7.10247 96.5664 12.0363C96.5664 16.9702 100.419 20.9552 105.188 20.9552C109.957 20.9552 113.809 16.9702 113.809 12.0363C113.783 7.12958 109.931 3.11743 105.188 3.11743ZM105.188 16.8075C102.646 16.8075 100.576 14.6659 100.576 12.0363C100.576 9.40675 102.646 7.26513 105.188 7.26513C107.73 7.26513 109.8 9.40675 109.8 12.0363C109.8 14.6659 107.73 16.8075 105.188 16.8075Z" fill="black"></path>
</svg>
