<?xml version="1.0" encoding="UTF-8"?>
<svg xmlns="http://www.w3.org/2000/svg" width="135" height="90" viewBox="0 0 135 90" fill="none">
  <path d="M135 90H0V0H135V90ZM2.78613 87.2002H132.214V2.7998H2.78613V87.2002ZM49.4238 66.5078C49.9252 66.5079 50.3847 66.5993 50.8164 66.7812C51.2483 66.9632 51.6316 67.2151 51.959 67.5371L51.7012 68.6084C51.4643 68.2234 51.1441 67.9146 50.7471 67.6836C50.35 67.4526 49.9036 67.3408 49.416 67.3408C48.9077 67.3409 48.448 67.4668 48.0371 67.7188C47.6262 67.9707 47.2985 68.3066 47.0547 68.7266C46.8109 69.1465 46.6924 69.6228 46.6924 70.1406C46.6924 70.6586 46.8109 71.114 47.0547 71.541C47.2915 71.968 47.6193 72.3045 48.0303 72.5635C48.4411 72.8153 48.9009 72.9414 49.4092 72.9414C49.7017 72.9414 49.9737 72.9059 50.2314 72.8359C50.4892 72.7659 50.7333 72.6682 50.9492 72.5352V70.7012H49.0264V69.9102H51.7988V72.9902C51.4854 73.2562 51.116 73.452 50.7051 73.585C50.2871 73.718 49.855 73.7812 49.4092 73.7812L49.416 73.8018C48.9077 73.8017 48.4407 73.7036 48.002 73.5146C47.5633 73.3257 47.1799 73.0673 46.8457 72.7314C46.5114 72.3955 46.2535 72.0103 46.0654 71.5693C45.8774 71.1284 45.7871 70.6592 45.7871 70.1553C45.7871 69.6513 45.8782 69.1822 46.0732 68.7412C46.2682 68.3003 46.5183 67.915 46.8525 67.5791C47.1869 67.2431 47.5709 66.9839 48.0098 66.7949C48.4485 66.606 48.9224 66.5078 49.4238 66.5078ZM67.8623 66.5078C68.3638 66.5078 68.8376 66.5989 69.2764 66.7949C69.7152 66.9839 70.0983 67.2431 70.4326 67.5791C70.7669 67.9081 71.0248 68.3003 71.2129 68.7412C71.4009 69.1821 71.498 69.6514 71.498 70.1553C71.498 70.6592 71.4009 71.1284 71.2129 71.5693C71.0248 72.0102 70.7669 72.3955 70.4326 72.7314C70.0984 73.0603 69.715 73.3257 69.2764 73.5146C68.8376 73.7036 68.3638 73.8017 67.8623 73.8018C67.3608 73.8018 66.8941 73.7036 66.4482 73.5146C66.0096 73.3257 65.6194 73.0672 65.2852 72.7314C64.9509 72.4025 64.6929 72.0102 64.5049 71.5693C64.3168 71.1284 64.2188 70.6592 64.2188 70.1553C64.2188 69.6513 64.3099 69.1822 64.5049 68.7412C64.6999 68.3002 64.9508 67.9151 65.2852 67.5791C65.6195 67.2502 66.0025 66.9839 66.4482 66.7949C66.887 66.606 67.3608 66.5078 67.8623 66.5078ZM76.2422 71.4141C76.2422 71.8761 76.3749 72.2473 76.6396 72.5273C76.9043 72.8073 77.2387 72.9473 77.6357 72.9473C78.0326 72.9472 78.3672 72.8071 78.6318 72.5342C78.8963 72.2542 79.0283 71.897 79.0283 71.4492V66.6475H79.8779V71.4141C79.8779 71.8691 79.781 72.276 79.5859 72.626C79.391 72.9757 79.1261 73.2484 78.792 73.4443C78.4576 73.6403 78.06 73.7383 77.6211 73.7383V73.7529C77.1825 73.7529 76.7924 73.6549 76.4512 73.459C76.1099 73.263 75.8454 72.9964 75.6504 72.6465C75.4553 72.3035 75.3574 71.9042 75.3574 71.4492V66.6475H76.2422V71.4141ZM57.9082 66.6621C58.3468 66.6622 58.7228 66.7528 59.0361 66.9277C59.3496 67.1027 59.5934 67.3341 59.7676 67.6211C59.9416 67.908 60.0253 68.2226 60.0254 68.5654C60.0254 68.9504 59.9141 69.2936 59.6982 69.6016C59.4824 69.9095 59.1826 70.1333 58.8066 70.2803L61.1475 73.6621H60.1162L57.9004 70.4414H57.0371V73.6621H56.1592V66.6621H57.9082ZM85.9873 66.6621C86.4471 66.6621 86.8379 66.7321 87.1514 66.8721C87.4716 67.012 87.7219 67.1941 87.9238 67.418C88.1258 67.6419 88.2659 67.8864 88.3564 68.1523C88.447 68.4183 88.4883 68.6777 88.4883 68.9297C88.4883 69.1815 88.4469 69.4334 88.3564 69.6992C88.2659 69.9651 88.1265 70.2105 87.9316 70.4414C87.7366 70.6724 87.4786 70.8551 87.1582 70.9951C86.8378 71.1351 86.4471 71.2051 85.9873 71.2051H85.1445V73.6621H84.2598V66.6621H85.9873ZM67.8623 67.3623C67.3538 67.3623 66.8934 67.4882 66.4824 67.7402C66.0717 67.9922 65.7447 68.3282 65.501 68.748C65.2572 69.1681 65.1387 69.6441 65.1387 70.1621C65.1387 70.6801 65.2572 71.1424 65.501 71.5693C65.7447 71.996 66.0717 72.3321 66.4824 72.584C66.8934 72.836 67.3538 72.9619 67.8623 72.9619C68.3707 72.9619 68.8372 72.8359 69.248 72.584C69.659 72.332 69.9867 71.9962 70.2305 71.5693C70.4743 71.1424 70.5928 70.6731 70.5928 70.1621C70.5928 69.6511 70.4743 69.175 70.2305 68.748C69.9867 68.321 69.666 67.9922 69.248 67.7402C68.8302 67.4883 68.3707 67.3623 67.8623 67.3623ZM85.1309 70.4062H85.9316C86.3495 70.4062 86.6771 70.3296 86.9209 70.1826C87.1646 70.0357 87.339 69.8469 87.4365 69.623C87.534 69.399 87.5898 69.1677 87.5898 68.9297C87.5898 68.6918 87.5409 68.475 87.4365 68.2441C87.332 68.0131 87.1646 67.8238 86.9277 67.6768C86.6909 67.5298 86.3566 67.4531 85.9248 67.4531H85.1309V70.4062ZM57.0303 69.6992L57.0371 69.6924H57.9004C58.1998 69.6924 58.4438 69.6363 58.6318 69.5244C58.8199 69.4124 58.9592 69.2726 59.0498 69.0977C59.1404 68.9227 59.1826 68.7474 59.1826 68.5654C59.1826 68.2365 59.0639 67.9705 58.8271 67.7676C58.5903 67.5577 58.2836 67.46 57.8936 67.46H57.0303V69.6992ZM104.768 39.3828C105.004 40.0477 105.234 40.7127 105.464 41.3916C105.687 42.0706 105.889 42.9109 106.077 43.9189C106.286 42.911 106.502 42.0706 106.711 41.3916C106.92 40.7127 107.157 40.0477 107.422 39.3828L115.502 17.8848H119.779L106.077 54.9014L97.8369 31.6543C97.6001 30.9684 97.3771 30.2964 97.1611 29.6455C96.9522 28.9945 96.7363 28.1682 96.5273 27.1602C96.3184 28.1682 96.1016 29.0015 95.8926 29.6455C95.6836 30.2964 95.4615 30.9685 95.2178 31.6543L86.9414 54.9014L73.1982 17.8848H77.7959L85.876 39.3828C86.1685 40.1247 86.4058 40.8388 86.5869 41.5107C86.775 42.1897 86.9698 42.9881 87.1787 43.9189C87.3877 42.988 87.597 42.1897 87.792 41.5107C87.987 40.8318 88.2236 40.1247 88.4883 39.3828L96.6455 16.6953L104.768 39.3828ZM58.0615 17.1709C60.6248 17.1709 62.9723 17.64 65.1943 18.585C67.4095 19.53 69.3668 20.8188 71.0596 22.4639L69.75 27.958C68.538 25.9982 66.9012 24.4232 64.8604 23.2402C62.8124 22.0572 60.5482 21.4698 58.0684 21.4697C55.4562 21.4697 53.0947 22.1134 50.998 23.4014C48.9014 24.6893 47.2292 26.4113 45.9893 28.5742C44.7493 30.7372 44.1289 33.1458 44.1289 35.7988C44.1289 38.4517 44.7494 40.825 45.9893 43.002C47.2292 45.1789 48.9014 46.9073 50.998 48.1953C53.0948 49.4833 55.4562 50.1279 58.0684 50.1279C60.6805 50.1279 62.8469 49.5329 64.8809 48.3359C66.9149 47.1389 68.5379 45.5777 69.75 43.6387L71.0596 49.1338C69.3669 50.7508 67.4164 52.0391 65.1943 52.998C62.9793 53.95 60.597 54.4326 58.0615 54.4326V54.4258C55.4981 54.4258 53.087 53.9426 50.8301 52.9766C48.5733 52.0106 46.5952 50.6736 44.8887 48.9727C43.1891 47.2717 41.8519 45.2978 40.8906 43.0439C39.9294 40.79 39.4414 38.3748 39.4414 35.7988C39.4414 33.2228 39.9224 30.8077 40.8906 28.5537C41.8519 26.2997 43.189 24.318 44.8887 22.624C46.5882 20.9302 48.5733 19.5931 50.8301 18.6201C53.087 17.6541 55.4981 17.1709 58.0615 17.1709ZM32.7891 43.8906C32.789 46.2495 32.3359 48.1957 31.4443 49.7217C30.5527 51.2476 29.3612 52.3746 27.8984 53.1025C26.4356 53.8305 24.8405 54.1943 23.127 54.1943V54.1875C21.8592 54.1875 20.6051 53.9918 19.3652 53.5928C18.1254 53.1938 17.0529 52.5144 16.1543 51.5625L17.4639 46.7881C18.0699 47.8241 18.8571 48.6363 19.8184 49.2383C20.7796 49.8332 21.873 50.1347 23.085 50.1348C24.4851 50.1348 25.6976 49.6441 26.7285 48.6641C27.7593 47.684 28.2744 45.969 28.2744 43.5332V17.8994H32.7891V43.8906Z" fill="#022612"></path>
</svg>
