<svg id="Layer_1" data-name="Layer 1" xmlns="http://www.w3.org/2000/svg" viewBox="0 0 200 36.33"><defs><style>.cls-1{fill:#27233d;}.cls-2{fill:#ff593b;}</style></defs><path class="cls-1" d="M46.31,2.8c8.33,0,13.52,5.12,13.52,12.25S54.64,27.3,46.31,27.3H37.76V2.8Zm0,21c6,0,9.57-3.62,9.57-8.7s-3.61-8.7-9.57-8.7H41.67v17.4Z"/><path class="cls-1" d="M80.7,27.3H76.9V25.21a8.84,8.84,0,0,1-6.58,2.6c-4.75,0-9-3.84-9-9.58s4.24-9.58,9-9.58a8.84,8.84,0,0,1,6.58,2.6V9.16h3.8Zm-3.8-9.07a6,6,0,0,0-6-6.22C67.61,12,65,14.43,65,18.23s2.59,6.21,5.92,6.21A6,6,0,0,0,76.9,18.23Zm23.48,9.9c0,4.65-3.66,8.2-9.15,8.2C87,36.33,84,34.69,82.45,32l2.61-2.56a6.89,6.89,0,0,0,6.17,3.18,5.05,5.05,0,0,0,5.34-5v-2.5a7.81,7.81,0,0,1-6.25,2.74c-4.39,0-7.29-3.15-7.29-7.69v-11h3.81V19.38c0,3,1.72,4.94,4.35,4.94,3.26,0,5.38-2.2,5.38-6.77V9.16h3.81Z"/><path class="cls-1" d="M106.24,21.63c.26,2.16,2.16,3.07,4.54,3.07,2.19,0,3.58-1,3.58-2.41,0-1.1-.77-1.79-2.45-2.16l-4-.8c-3.14-.7-4.93-2.38-4.93-4.94,0-3.36,2.81-5.74,7.16-5.74,4.17,0,7,2.19,7.64,5.23l-3.62.77c-.29-1.76-1.79-3-4.13-3s-3.21,1.09-3.21,2.37c0,1,.58,1.68,2.19,2l4.31.95c2.92.62,4.72,2.34,4.72,4.9,0,3.8-3.11,5.85-7.64,5.85-4.06,0-7.53-1.72-8-5.38Z"/><path class="cls-1" d="M137.76,16.33v11h-3.84V17.1c0-3-1.71-4.94-4.31-4.94-3.25,0-5.41,2.19-5.41,6.76V27.3h-3.8V1h3.8V11.39a7.85,7.85,0,0,1,6.29-2.74C134.84,8.65,137.76,11.8,137.76,16.33Z"/><path class="cls-1" d="M158.83,27.3H155V25.21a8.86,8.86,0,0,1-6.58,2.6c-4.75,0-9-3.84-9-9.58s4.24-9.58,9-9.58a8.86,8.86,0,0,1,6.58,2.6V9.16h3.8ZM155,18.23a6,6,0,0,0-6-6.22c-3.33,0-5.92,2.42-5.92,6.22s2.59,6.21,5.92,6.21A6,6,0,0,0,155,18.23Z"/><path class="cls-1" d="M180.37,18.23c0,5.74-4.23,9.58-9,9.58a8.82,8.82,0,0,1-6.57-2.6V35.65H161V9.16h3.81v2.09a8.82,8.82,0,0,1,6.57-2.6C176.14,8.65,180.37,12.53,180.37,18.23Zm-3.69,0c0-3.8-2.59-6.22-5.92-6.22a6,6,0,0,0-5.95,6.22,6,6,0,0,0,5.95,6.21C174.09,24.44,176.68,22.07,176.68,18.23Z"/><path class="cls-1" d="M200,19.14H185.31a5.62,5.62,0,0,0,5.48,5.38,5.43,5.43,0,0,0,5.34-3.15l3.39.73c-1.49,3.81-4.71,5.71-8.73,5.71a9.22,9.22,0,0,1-9.25-9.54,9.27,9.27,0,0,1,9.4-9.62c4.86,0,8.88,3.73,9.06,9.18Zm-14.58-2.7h10.67A5.07,5.07,0,0,0,190.94,12,5.53,5.53,0,0,0,185.42,16.44Z"/><path class="cls-2" d="M23.65,3.42A26.16,26.16,0,0,1,26.38,15a26.15,26.15,0,0,1-2.73,11.57A15.2,15.2,0,0,0,29.4,15,15.21,15.21,0,0,0,23.65,3.42Z"/><path class="cls-2" d="M10.91.32a26.74,26.74,0,0,1,4.56,14.77,26.75,26.75,0,0,1-4.56,14.78,15,15,0,0,0,0-29.55Z"/><path class="cls-2" d="M.06,0H0V29.89H.06c6.83,0,12.37-6.69,12.37-14.94S6.89,0,.06,0Z"/></svg>