<?xml version="1.0" encoding="utf-8"?>
<!-- Generator: Adobe Illustrator 25.3.1, SVG Export Plug-In . SVG Version: 6.00 Build 0)  -->
<svg version="1.1" id="Livello_1" xmlns="http://www.w3.org/2000/svg" xmlns:xlink="http://www.w3.org/1999/xlink" x="0px" y="0px"
	 viewBox="0 0 293.3 80" style="enable-background:new 0 0 293.3 80;" xml:space="preserve">
<style type="text/css">
	.st0{fill:#200018;}
	.st1{fill:url(#Path_262_1_);}
</style>
<g id="Group_44" transform="translate(-1535 -200.488)">
	<g id="Group_43" transform="translate(1586.429 211.917)">
		<path id="Path_256" class="st0" d="M69.3,15.5h-2c-2.4-0.1-2.8,0.3-2.8,3.1v6.9h12.6v-6.9c0-2.7-0.4-3.1-2.8-3.1h-2v-4.1h17.9v4.1
			h-1.9c-2.8-0.1-3.2,0.3-3.2,3.1v19.1c0,2.7,0.3,3.1,3.2,3.1h1.9v4.1H72.5v-4.1h2c2.4,0.1,2.8-0.4,2.8-3.1v-7.9H64.6v7.9
			c0,2.7,0.4,3.1,2.8,3.1h2v4.1H51.4v-4.1h1.9c2.8,0.1,3.2-0.4,3.2-3.1V18.6c0-2.7-0.3-3.1-3.2-3.1h-1.9v-4.1h17.9V15.5z"/>
		<path id="Path_257" class="st0" d="M116.4,36.8c-0.1,2-0.8,3.8-2.1,5.3c-2.4,2.5-5.8,3.9-9.2,3.7c-7.6,0-12.5-4.8-12.5-12.3
			c0-7.8,5-13,12.4-13c3.4-0.1,6.7,1.2,9,3.7c2.1,2.4,2.8,4.8,2.9,9.8h-16.4c-0.2,1.9,0.3,3.8,1.3,5.5c1,1.4,2.6,2.1,4.3,2
			c3.1,0,4.7-1.3,5.5-4.6L116.4,36.8z M109.4,30.1c0.1-1.4-0.2-2.8-0.8-4.1c-0.8-1.1-2.1-1.8-3.5-1.7c-1.4-0.1-2.7,0.6-3.5,1.7
			c-0.7,1.2-1,2.6-0.8,4.1H109.4z"/>
		<path id="Path_258" class="st0" d="M130.4,24.4c1.2-2.3,3.6-3.8,6.2-3.7c2.8-0.2,5.3,1.8,5.6,4.7c0,0.2,0,0.4,0,0.6
			c0.2,2.3-1.6,4.4-3.9,4.5c-0.1,0-0.2,0-0.4,0c-1.8,0.1-3.4-1.2-3.5-3c0-0.1,0-0.1,0-0.2c0-1.6,0.8-2.6,2.7-3.3
			c-0.5-0.3-1-0.4-1.5-0.5c-1.5,0.1-2.8,0.8-3.6,2c-1.1,1.5-1.5,3-1.5,6.5v6c0,2.5,0.3,2.9,2.6,3h2.3v3.7h-15.9v-3.7h1.3
			c2.3-0.1,2.6-0.4,2.6-3V28c0-2.5-0.4-2.9-2.6-3h-1.3v-3.7h10.9L130.4,24.4z"/>
		<path id="Path_259" class="st0" d="M144.3,41.1h1.4c2.3-0.1,2.6-0.4,2.7-3V28c-0.1-2.5-0.4-2.9-2.7-3h-1.4v-3.7h11.1v3.9
			c3.1-3.6,5.1-4.7,8.6-4.7c3.3,0,4.8,1.2,6.2,4.7c3.2-3.6,5.2-4.7,8.3-4.7c1.9-0.1,3.8,0.7,5.2,2.1c1.2,1.3,1.6,3.1,1.6,6.6v8.9
			c0,2.5,0.3,2.9,2.6,3h1.3v3.7h-13.9v-3.7h0.9c1.7-0.1,1.9-0.4,1.9-3v-8.8c0.1-1.1,0-2.3-0.4-3.4c-0.4-0.8-1.2-1.2-2.1-1.3
			c-3,0-5.1,2.7-5.1,6.5v7c0,2.4,0.3,2.8,2.3,3h0.7v3.7h-13v-3.7h0.9c1.7-0.1,2-0.4,2-3v-8.8c0.1-1.1,0-2.3-0.5-3.4
			c-0.4-0.8-1.2-1.3-2.1-1.3c-3,0-5.1,2.7-5.1,6.5v7c0,2.5,0.3,2.9,2.5,3h0.5v3.7h-14.2V41.1z"/>
		<path id="Path_260" class="st0" d="M215,36.8c-0.1,2-0.8,3.8-2.1,5.3c-2.4,2.5-5.8,3.9-9.2,3.7c-7.6,0-12.5-4.8-12.5-12.3
			c0-7.8,5-13,12.4-13c3.4-0.1,6.7,1.2,9,3.7c2.1,2.4,2.8,4.8,2.9,9.8h-16.4c-0.2,1.9,0.3,3.8,1.3,5.5c1,1.4,2.6,2.1,4.3,2
			c3.1,0,4.7-1.3,5.5-4.6L215,36.8z M208,30.1c0.1-1.4-0.2-2.8-0.8-4.1c-0.8-1.1-2.1-1.8-3.5-1.7c-1.4-0.1-2.7,0.6-3.5,1.7
			c-0.7,1.2-1,2.6-0.8,4.1H208z"/>
		<path id="Path_261" class="st0" d="M222.5,45.2h-3.4V36h3.9c0.9,3.5,4,5.9,7.6,5.8c2.5,0,4-1,4-2.5c0-0.7-0.4-1.4-1.1-1.7
			c-0.9-0.6-1-0.6-6-1.9c-2-0.5-3.9-1.3-5.6-2.4c-1.8-1.1-2.9-3.1-2.9-5.2c0-4.5,4.2-7.7,9.9-7.7c2.7,0,5.3,0.7,7.6,2.1l0.7-1.5h3.4
			v8h-3.4c-0.8-1.6-2.1-2.9-3.6-3.9c-1.2-0.7-2.6-1-4-1.1c-2,0-3.3,0.9-3.3,2.3c0,0.6,0.2,1.2,0.7,1.6c0.8,0.6,1.1,0.8,4.7,1.7
			c2.3,0.5,4.5,1.2,6.6,2.2c2.2,1.2,3.6,3.5,3.5,6c0,4.6-4.1,7.8-9.9,7.8c-3,0-6-0.8-8.6-2.4L222.5,45.2z"/>
	</g>
	
		<linearGradient id="Path_262_1_" gradientUnits="userSpaceOnUse" x1="1459.9052" y1="650.8531" x2="1461.905" y2="650.8531" gradientTransform="matrix(34.2849 0 0 -40.0015 -48517.7188 26275.5781)">
		<stop  offset="0" style="stop-color:#FA9632"/>
		<stop  offset="1" style="stop-color:#9E005D"/>
	</linearGradient>
	<path id="Path_262" class="st1" d="M1580.7,211.9h-22.9c0-6.3-5.1-11.4-11.4-11.4c-6.3,0-11.4,5.1-11.4,11.4
		c0,12.6,10.2,22.9,22.9,22.9c0,12.6,10.2,22.9,22.9,22.9c0,12.6,10.2,22.9,22.9,22.9v-45.7C1603.6,222.2,1593.3,211.9,1580.7,211.9
		C1580.7,211.9,1580.7,211.9,1580.7,211.9z"/>
</g>
</svg>
