<?xml version="1.0" encoding="UTF-8" standalone="no"?>
<svg xmlns="http://www.w3.org/2000/svg" xmlns:xlink="http://www.w3.org/1999/xlink" xmlns:serif="http://www.serif.com/" width="100%" height="100%" viewBox="0 0 1486 578" version="1.1" xml:space="preserve" style="fill-rule:evenodd;clip-rule:evenodd;stroke-linejoin:round;stroke-miterlimit:2;">
    <g transform="matrix(1,0,0,1,-528.063,-436.429)">
        <g transform="matrix(4.16667,0,0,4.16667,0,0)">
            <path d="M172.257,156.29C172.793,157.567 173.32,158.854 173.839,160.149C174.356,158.816 174.893,157.503 175.449,156.207C176.004,154.912 176.596,153.673 177.225,152.488L200.986,108.019C201.282,107.464 201.588,107.019 201.902,106.686C202.217,106.353 202.568,106.113 202.957,105.965C203.346,105.817 203.78,105.724 204.262,105.687C204.742,105.651 205.316,105.632 205.982,105.632L217.253,105.632L217.253,166.908L204.096,166.908L204.096,134.056C204.096,133.094 204.123,132.039 204.179,130.891C204.234,129.745 204.317,128.579 204.429,127.394L180.168,172.918C179.612,173.954 178.89,174.759 178.003,175.332C177.114,175.907 176.078,176.193 174.893,176.193L172.84,176.193C171.654,176.193 170.619,175.907 169.73,175.332C168.843,174.759 168.121,173.954 167.565,172.918L142.972,127.227C143.119,128.449 143.222,129.642 143.277,130.808C143.332,131.974 143.36,133.057 143.36,134.056L143.36,185.908L130.203,185.908L130.203,105.632L141.472,105.632C142.139,105.632 142.712,105.651 143.193,105.687C143.674,105.724 144.109,105.817 144.498,105.965C144.887,106.113 145.248,106.353 145.581,106.686C145.914,107.019 146.227,107.464 146.524,108.019L170.508,152.598C171.137,153.783 171.72,155.013 172.257,156.29Z" style="fill:white;fill-rule:nonzero;"></path>
            <path d="M284.094,105.632L284.094,117.512L248.508,117.512L248.508,139.774L276.543,139.774L276.543,151.266L248.508,151.266L248.508,173.972L284.094,173.972L284.094,185.908L233.463,185.908L233.463,105.632L284.094,105.632Z" style="fill:white;fill-rule:nonzero;"></path>
            <path d="M353.6,105.632L353.6,117.545L329.45,117.545L329.45,185.908L314.516,185.908L314.516,117.545L290.256,117.545L290.256,105.632L353.6,105.632Z" style="fill:white;fill-rule:nonzero;"></path>
            <path d="M373.53,155.596L399.124,155.596L389.352,128.893C388.908,127.709 388.418,126.311 387.882,124.701C387.345,123.092 386.817,121.343 386.3,119.455C385.78,121.343 385.272,123.101 384.772,124.729C384.273,126.358 383.782,127.783 383.302,129.004L373.53,155.596ZM425.494,185.908L413.946,185.908C412.65,185.908 411.587,185.585 410.755,184.937C409.922,184.289 409.319,183.485 408.95,182.522L402.954,166.145L369.7,166.145L363.704,182.522C363.407,183.373 362.824,184.151 361.955,184.854C361.085,185.557 360.02,185.908 358.763,185.908L347.16,185.908L378.693,105.632L393.961,105.632L425.494,185.908Z" style="fill:white;fill-rule:nonzero;"></path>
            <path d="M476.79,120.232C476.382,121.047 475.91,121.62 475.374,121.953C474.837,122.286 474.199,122.453 473.459,122.453C472.718,122.453 471.886,122.167 470.961,121.593C470.035,121.019 468.943,120.381 467.685,119.677C466.427,118.975 464.955,118.336 463.271,117.762C461.587,117.189 459.597,116.902 457.304,116.902C455.23,116.902 453.426,117.151 451.89,117.651C450.354,118.151 449.059,118.845 448.005,119.733C446.95,120.621 446.163,121.685 445.645,122.925C445.126,124.165 444.868,125.526 444.868,127.006C444.868,128.893 445.395,130.467 446.45,131.724C447.505,132.983 448.901,134.056 450.641,134.944C452.381,135.833 454.361,136.629 456.582,137.331C458.803,138.035 461.069,138.784 463.383,139.58C465.695,140.376 467.963,141.301 470.183,142.356C472.404,143.41 474.384,144.743 476.124,146.353C477.863,147.963 479.261,149.934 480.315,152.265C481.37,154.597 481.897,157.429 481.897,160.76C481.897,164.387 481.277,167.783 480.038,170.947C478.797,174.111 476.984,176.868 474.596,179.219C472.21,181.57 469.295,183.42 465.853,184.771C462.411,186.121 458.47,186.797 454.028,186.797C451.474,186.797 448.957,186.547 446.477,186.047C443.998,185.547 441.62,184.835 439.344,183.909C437.067,182.986 434.939,181.875 432.96,180.579C430.979,179.283 429.212,177.84 427.658,176.248L431.988,169.087C432.394,168.569 432.885,168.135 433.459,167.783C434.032,167.431 434.671,167.255 435.375,167.255C436.299,167.255 437.299,167.635 438.372,168.393C439.445,169.152 440.713,169.994 442.176,170.919C443.637,171.845 445.358,172.687 447.339,173.445C449.318,174.204 451.696,174.583 454.472,174.583C458.727,174.583 462.022,173.575 464.354,171.557C466.685,169.541 467.851,166.644 467.851,162.869C467.851,160.76 467.324,159.038 466.269,157.706C465.215,156.374 463.817,155.255 462.078,154.347C460.338,153.441 458.358,152.673 456.138,152.043C453.917,151.414 451.659,150.73 449.364,149.99C447.069,149.249 444.812,148.361 442.592,147.325C440.371,146.289 438.39,144.937 436.651,143.272C434.911,141.606 433.514,139.524 432.46,137.026C431.405,134.528 430.878,131.447 430.878,127.783C430.878,124.859 431.461,122.009 432.627,119.233C433.792,116.457 435.494,113.996 437.734,111.849C439.972,109.703 442.721,107.982 445.978,106.686C449.234,105.391 452.954,104.743 457.137,104.743C461.874,104.743 466.242,105.484 470.239,106.964C474.236,108.445 477.64,110.517 480.454,113.182L476.79,120.232Z" style="fill:white;fill-rule:nonzero;"></path>
            <path d="M155.246,209.167C155.01,209.585 154.736,209.879 154.425,210.05C154.113,210.221 153.743,210.306 153.313,210.306C152.884,210.306 152.4,210.159 151.864,209.865C151.327,209.571 150.693,209.243 149.963,208.882C149.232,208.522 148.379,208.194 147.402,207.9C146.425,207.605 145.27,207.457 143.938,207.457C142.735,207.457 141.688,207.586 140.798,207.842C139.906,208.099 139.154,208.454 138.543,208.91C137.93,209.367 137.473,209.912 137.174,210.548C136.872,211.185 136.722,211.883 136.722,212.642C136.722,213.611 137.028,214.418 137.64,215.064C138.253,215.709 139.063,216.26 140.073,216.716C141.082,217.172 142.231,217.58 143.519,217.941C144.808,218.302 146.124,218.687 147.467,219.095C148.808,219.503 150.124,219.978 151.413,220.519C152.701,221.061 153.849,221.744 154.859,222.571C155.869,223.397 156.68,224.408 157.292,225.604C157.904,226.801 158.21,228.253 158.21,229.963C158.21,231.825 157.85,233.567 157.131,235.19C156.411,236.814 155.359,238.229 153.973,239.435C152.589,240.641 150.897,241.59 148.9,242.283C146.902,242.977 144.615,243.324 142.038,243.324C140.555,243.324 139.096,243.195 137.657,242.939C136.218,242.682 134.838,242.317 133.516,241.842C132.196,241.367 130.961,240.798 129.812,240.133C128.662,239.468 127.638,238.728 126.735,237.91L129.248,234.236C129.483,233.97 129.768,233.747 130.102,233.567C130.434,233.386 130.804,233.296 131.214,233.296C131.75,233.296 132.33,233.491 132.953,233.88C133.576,234.269 134.311,234.701 135.16,235.176C136.008,235.651 137.007,236.083 138.156,236.472C139.305,236.862 140.684,237.056 142.296,237.056C144.765,237.056 146.677,236.538 148.03,235.503C149.383,234.469 150.059,232.983 150.059,231.045C150.059,229.963 149.754,229.079 149.141,228.396C148.529,227.712 147.719,227.138 146.709,226.672C145.699,226.207 144.551,225.814 143.263,225.491C141.973,225.167 140.663,224.817 139.332,224.436C138,224.057 136.69,223.601 135.401,223.069C134.113,222.537 132.964,221.844 131.955,220.99C130.945,220.134 130.134,219.067 129.522,217.784C128.91,216.502 128.604,214.921 128.604,213.041C128.604,211.541 128.942,210.078 129.619,208.655C130.296,207.23 131.283,205.967 132.583,204.866C133.882,203.764 135.476,202.881 137.367,202.216C139.257,201.551 141.415,201.219 143.842,201.219C146.591,201.219 149.125,201.599 151.445,202.359C153.764,203.118 155.74,204.182 157.373,205.549L155.246,209.167Z" style="fill:white;fill-rule:nonzero;"></path>
            <path d="M200.639,222.271C200.639,220.011 200.3,217.984 199.623,216.189C198.947,214.395 197.974,212.87 196.708,211.617C195.44,210.364 193.899,209.405 192.085,208.74C190.269,208.075 188.224,207.742 185.948,207.742C183.671,207.742 181.62,208.075 179.795,208.74C177.969,209.405 176.417,210.364 175.139,211.617C173.861,212.87 172.879,214.395 172.192,216.189C171.504,217.984 171.161,220.011 171.161,222.271C171.161,224.532 171.504,226.559 172.192,228.353C172.879,230.148 173.861,231.667 175.139,232.911C176.417,234.156 177.969,235.11 179.795,235.774C181.62,236.439 183.671,236.771 185.948,236.771C188.224,236.771 190.269,236.439 192.085,235.774C193.899,235.11 195.44,234.156 196.708,232.911C197.974,231.667 198.947,230.148 199.623,228.353C200.3,226.559 200.639,224.532 200.639,222.271ZM209.529,222.271C209.529,225.29 208.96,228.087 207.822,230.66C206.683,233.235 205.084,235.461 203.022,237.341C200.96,239.221 198.479,240.688 195.58,241.742C192.68,242.796 189.47,243.324 185.948,243.324C182.426,243.324 179.209,242.796 176.3,241.742C173.389,240.688 170.897,239.221 168.825,237.341C166.753,235.461 165.147,233.235 164.009,230.66C162.87,228.087 162.302,225.29 162.302,222.271C162.302,219.251 162.87,216.455 164.009,213.881C165.147,211.308 166.753,209.081 168.825,207.201C170.897,205.322 173.389,203.854 176.3,202.8C179.209,201.746 182.426,201.219 185.948,201.219C189.47,201.219 192.68,201.751 195.58,202.814C198.479,203.878 200.96,205.345 203.022,207.215C205.084,209.086 206.683,211.308 207.822,213.881C208.96,216.455 209.529,219.251 209.529,222.271Z" style="fill:white;fill-rule:nonzero;"></path>
            <path d="M225.025,236.543L243.678,236.543L243.678,242.867L216.359,242.867L216.359,201.675L225.025,201.675L225.025,236.543Z" style="fill:white;fill-rule:nonzero;"></path>
            <path d="M268.42,236.686C270.095,236.686 271.593,236.439 272.913,235.945C274.234,235.451 275.35,234.758 276.263,233.866C277.177,232.973 277.875,231.891 278.358,230.617C278.841,229.346 279.083,227.921 279.083,226.345L279.083,201.675L287.749,201.675L287.749,226.345C287.749,228.794 287.303,231.06 286.412,233.139C285.52,235.219 284.237,237.013 282.562,238.523C280.887,240.033 278.857,241.211 276.473,242.056C274.09,242.901 271.404,243.324 268.42,243.324C265.433,243.324 262.75,242.901 260.364,242.056C257.98,241.211 255.957,240.033 254.293,238.523C252.628,237.013 251.35,235.219 250.459,233.139C249.567,231.06 249.122,228.794 249.122,226.345L249.122,201.675L257.788,201.675L257.788,226.317C257.788,227.893 258.03,229.318 258.513,230.589C258.996,231.862 259.689,232.95 260.591,233.851C261.493,234.753 262.604,235.451 263.926,235.945C265.246,236.439 266.744,236.686 268.42,236.686Z" style="fill:white;fill-rule:nonzero;"></path>
            <path d="M329.403,201.675L329.403,207.97L315.388,207.97L315.388,242.867L306.723,242.867L306.723,207.97L292.644,207.97L292.644,201.675L329.403,201.675Z" style="fill:white;fill-rule:nonzero;"></path>
            <rect x="335.974" y="201.675" width="8.699" height="41.192" style="fill:white;fill-rule:nonzero;"></rect>
            <path d="M390.933,222.271C390.933,220.011 390.595,217.984 389.919,216.189C389.242,214.395 388.27,212.87 387.003,211.617C385.735,210.364 384.194,209.405 382.38,208.74C380.565,208.075 378.519,207.742 376.243,207.742C373.967,207.742 371.915,208.075 370.09,208.74C368.264,209.405 366.712,210.364 365.434,211.617C364.157,212.87 363.174,214.395 362.487,216.189C361.8,217.984 361.456,220.011 361.456,222.271C361.456,224.532 361.8,226.559 362.487,228.353C363.174,230.148 364.157,231.667 365.434,232.911C366.712,234.156 368.264,235.11 370.09,235.774C371.915,236.439 373.967,236.771 376.243,236.771C378.519,236.771 380.565,236.439 382.38,235.774C384.194,235.11 385.735,234.156 387.003,232.911C388.27,231.667 389.242,230.148 389.919,228.353C390.595,226.559 390.933,224.532 390.933,222.271ZM399.825,222.271C399.825,225.29 399.256,228.087 398.117,230.66C396.978,233.235 395.379,235.461 393.317,237.341C391.256,239.221 388.775,240.688 385.876,241.742C382.976,242.796 379.765,243.324 376.243,243.324C372.721,243.324 369.505,242.796 366.595,241.742C363.684,240.688 361.193,239.221 359.12,237.341C357.048,235.461 355.442,233.235 354.305,230.66C353.166,228.087 352.596,225.29 352.596,222.271C352.596,219.251 353.166,216.455 354.305,213.881C355.442,211.308 357.048,209.081 359.12,207.201C361.193,205.322 363.684,203.854 366.595,202.8C369.505,201.746 372.721,201.219 376.243,201.219C379.765,201.219 382.976,201.751 385.876,202.814C388.775,203.878 391.256,205.345 393.317,207.215C395.379,209.086 396.978,211.308 398.117,213.881C399.256,216.455 399.825,219.251 399.825,222.271Z" style="fill:white;fill-rule:nonzero;"></path>
            <path d="M412.163,201.717C412.421,201.746 412.651,201.803 412.856,201.888C413.059,201.974 413.259,202.098 413.452,202.259C413.645,202.42 413.859,202.634 414.096,202.9L438.548,230.447C438.462,229.783 438.403,229.132 438.371,228.495C438.339,227.86 438.322,227.266 438.322,226.715L438.322,201.675L445.958,201.675L445.958,242.867L441.479,242.867C440.792,242.867 440.223,242.773 439.772,242.582C439.321,242.393 438.881,242.051 438.451,241.557L414.096,214.123C414.161,214.732 414.209,215.334 414.241,215.933C414.273,216.531 414.29,217.077 414.29,217.571L414.29,242.867L406.654,242.867L406.654,201.675L411.197,201.675C411.584,201.675 411.906,201.689 412.163,201.717Z" style="fill:white;fill-rule:nonzero;"></path>
            <path d="M480.332,209.167C480.095,209.585 479.821,209.879 479.51,210.05C479.198,210.221 478.828,210.306 478.398,210.306C477.969,210.306 477.485,210.159 476.949,209.865C476.412,209.571 475.778,209.243 475.048,208.882C474.318,208.522 473.464,208.194 472.487,207.9C471.51,207.605 470.355,207.457 469.024,207.457C467.821,207.457 466.774,207.586 465.883,207.842C464.991,208.099 464.24,208.454 463.628,208.91C463.015,209.367 462.559,209.912 462.259,210.548C461.958,211.185 461.807,211.883 461.807,212.642C461.807,213.611 462.113,214.418 462.725,215.064C463.338,215.709 464.148,216.26 465.158,216.716C466.167,217.172 467.316,217.58 468.605,217.941C469.893,218.302 471.209,218.687 472.552,219.095C473.893,219.503 475.209,219.978 476.498,220.519C477.786,221.061 478.935,221.744 479.945,222.571C480.954,223.397 481.765,224.408 482.377,225.604C482.989,226.801 483.296,228.253 483.296,229.963C483.296,231.825 482.935,233.567 482.216,235.19C481.496,236.814 480.444,238.229 479.059,239.435C477.674,240.641 475.982,241.59 473.985,242.283C471.988,242.977 469.7,243.324 467.123,243.324C465.641,243.324 464.18,243.195 462.742,242.939C461.303,242.682 459.923,242.317 458.602,241.842C457.281,241.367 456.046,240.798 454.897,240.133C453.748,239.468 452.722,238.728 451.821,237.91L454.334,234.236C454.569,233.97 454.854,233.747 455.187,233.567C455.52,233.386 455.89,233.296 456.299,233.296C456.835,233.296 457.415,233.491 458.038,233.88C458.661,234.269 459.396,234.701 460.245,235.176C461.094,235.651 462.092,236.083 463.241,236.472C464.389,236.862 465.77,237.056 467.381,237.056C469.85,237.056 471.763,236.538 473.115,235.503C474.469,234.469 475.144,232.983 475.144,231.045C475.144,229.963 474.839,229.079 474.226,228.396C473.614,227.712 472.804,227.138 471.795,226.672C470.785,226.207 469.636,225.814 468.347,225.491C467.058,225.167 465.749,224.817 464.417,224.436C463.085,224.057 461.775,223.601 460.487,223.069C459.198,222.537 458.049,221.844 457.04,220.99C456.03,220.134 455.22,219.067 454.607,217.784C453.995,216.502 453.689,214.921 453.689,213.041C453.689,211.541 454.027,210.078 454.704,208.655C455.381,207.23 456.368,205.967 457.668,204.866C458.967,203.764 460.561,202.881 462.452,202.216C464.342,201.551 466.5,201.219 468.928,201.219C471.676,201.219 474.211,201.599 476.53,202.359C478.849,203.118 480.825,204.182 482.458,205.549L480.332,209.167Z" style="fill:white;fill-rule:nonzero;"></path>
            <rect x="204.096" y="172.751" width="13.157" height="13.157" style="fill:rgb(106,190,81);fill-rule:nonzero;"></rect>
        </g>
    </g>
</svg>
