<?xml version="1.0" encoding="UTF-8" standalone="no"?> <svg xmlns="http://www.w3.org/2000/svg" xmlns:xlink="http://www.w3.org/1999/xlink" xmlns:serif="http://www.serif.com/" width="100%" height="100%" viewBox="0 0 258 77" version="1.1" xml:space="preserve" style="fill-rule:evenodd;clip-rule:evenodd;stroke-linejoin:round;stroke-miterlimit:2;"><path d="M47.392,9.337l-12.469,5.529l0,-13.657c0,-0.874 -0.9,-1.458 -1.698,-1.103l-32.025,14.25c-0.73,0.325 -1.2,1.049 -1.2,1.848l-0,49.077c-0,0.685 0.347,1.324 0.922,1.697l13.699,8.874c0.574,0.371 1.297,0.428 1.921,0.15l31.83,-14.176c0.436,-0.194 0.716,-0.626 0.716,-1.103l0,-50.283c0,-0.873 -0.898,-1.457 -1.696,-1.103Z" style="fill:#fff;fill-rule:nonzero;"></path><path d="M8.976,13.123l-0,6.813l-6.224,-4.055l6.224,-2.758Z" style="fill:#314f6f;fill-rule:nonzero;"></path><path d="M23.109,70.858l-6.811,3.018l0,-48.505l6.811,-3.019l-0,48.506Z" style="fill:#314f6f;fill-rule:nonzero;"></path><path d="M9.324,58.848l0,-6.908l2.975,1.938l-0,6.908l-2.975,-1.938Zm-2.779,-27.446l-2.608,-1.699l0,-6.908l2.608,1.7l0,6.907Zm0,12.82l-2.608,-1.699l0,-6.909l2.608,1.7l0,6.908Zm0,12.82l-2.608,-1.699l0,-6.908l2.608,1.699l0,6.908Zm2.779,-17.922l2.975,1.938l-0,6.908l-2.975,-1.938l0,-6.908Zm0,-12.82l2.975,1.938l-0,6.908l-2.975,-1.937l0,-6.909Zm5.737,47.367l-0.001,-48.375l-12.896,-8.401l0,48.374l4.299,2.796l-0,-5.604l2.975,1.937l-0,5.605l5.623,3.668Z" style="fill:#314f6f;fill-rule:nonzero;"></path><path d="M102.778,45.504c-0,3.596 -2.121,5.651 -8.735,5.651c-0.899,-0 -4.241,-0.062 -5.269,-0.062l0,-12.011l7.194,-0c5.139,-0 6.81,2.633 6.81,5.716l-0,0.706Zm-14.004,-24.71c0.861,-0.06 3.691,-0.06 4.676,-0.06c6.336,-0 8.49,1.532 8.49,5.356c0,3.823 -1.415,5.348 -6.276,5.348l-6.89,-0l0,-10.644Zm18.949,14.496c3.405,-1.668 4.79,-5.04 4.79,-9.2c0,-9.589 -7.552,-13.911 -19.691,-13.911c-2.548,-0 -8.386,0.148 -12.997,0.337c-1.064,0.044 -1.906,0.916 -1.906,1.982l-0,43.32c-0,1.056 0.826,1.932 1.88,1.98c4.631,0.216 10.676,0.351 13.408,0.351c11.114,-0 20.232,-3.084 20.232,-14.388l0,-0.963c0,-4.432 -2.311,-7.837 -5.716,-9.508Z" style="fill:#fff;fill-rule:nonzero;"></path><path d="M126.386,10.713l-8.239,-0c-0.696,-0 -1.267,0.571 -1.267,1.27l-0,5.893c-0,0.697 0.571,1.267 1.267,1.267l8.239,-0c0.697,-0 1.267,-0.57 1.267,-1.267l-0,-5.893c-0,-0.699 -0.57,-1.27 -1.267,-1.27Z" style="fill:#fff;fill-rule:nonzero;"></path><path d="M126.133,23.264l-7.733,-0c-0.696,-0 -1.267,0.57 -1.267,1.267l0,33.781c0,0.696 0.571,1.267 1.267,1.267l7.733,-0c0.697,-0 1.267,-0.571 1.267,-1.267l0,-33.781c0,-0.697 -0.57,-1.267 -1.267,-1.267Z" style="fill:#fff;fill-rule:nonzero;"></path><path d="M72.062,10.713l-8.238,-0c-0.697,-0 -1.267,0.571 -1.267,1.27l-0,5.893c-0,0.697 0.57,1.267 1.267,1.267l8.238,-0c0.697,-0 1.267,-0.57 1.267,-1.267l0,-5.893c0,-0.699 -0.57,-1.27 -1.267,-1.27Z" style="fill:#fff;fill-rule:nonzero;"></path><path d="M71.81,23.264l-7.733,-0c-0.697,-0 -1.267,0.57 -1.267,1.267l0,33.781c0,0.696 0.57,1.267 1.267,1.267l7.733,-0c0.696,-0 1.267,-0.571 1.267,-1.267l0,-33.781c0,-0.697 -0.571,-1.267 -1.267,-1.267Z" style="fill:#fff;fill-rule:nonzero;"></path><path d="M151.658,22.755c-4.057,-0 -6.846,0.826 -10.331,3.295l-0,-1.519c-0,-0.697 -0.571,-1.267 -1.268,-1.267l-7.098,-0c-0.696,-0 -1.267,0.57 -1.267,1.267l0,33.716c0,0.697 0.632,1.332 1.331,1.332l7.669,-0c0.697,-0 1.267,-0.635 1.267,-1.332l-0,-24.969c2.155,-1.143 4.118,-2.028 5.957,-2.028c3.866,-0 4.689,1.455 4.689,5.893l-0,21.104c-0,0.697 0.57,1.332 1.269,1.332l7.669,-0c0.697,-0 1.328,-0.635 1.328,-1.332l0,-21.104c0,-7.986 -2.027,-14.388 -11.215,-14.388Z" style="fill:#fff;fill-rule:nonzero;"></path><path d="M187.747,51.339c-1.206,0.191 -3.107,0.38 -5.197,0.38c-4.5,-0 -5.64,-3.295 -5.64,-7.795l0,-4.944c0,-4.436 1.14,-7.73 5.64,-7.73c1.52,-0 3.674,0.126 5.197,0.314l-0,19.775Zm8.935,-40.37l-7.669,-0c-0.696,-0 -1.266,0.57 -1.266,1.267l-0,10.963c-1.837,-0.253 -3.93,-0.444 -5.197,-0.444c-10.711,-0 -15.907,6.276 -15.907,16.225l0,4.944c0,10.266 5.641,16.225 15.907,16.225c4.879,-0 9.888,-0.762 13.5,-1.649c1.71,-0.379 1.963,-0.823 1.963,-1.837l0,-44.427c0,-0.697 -0.635,-1.267 -1.331,-1.267Z" style="fill:#fff;fill-rule:nonzero;"></path><path d="M223.359,38.284l-11.536,-0l-0,-0.253c-0,-4.627 2.345,-7.037 5.831,-7.037c3.551,-0 5.705,2.346 5.705,7.037l-0,0.253Zm-5.641,-15.529c-10.078,-0 -16.036,6.467 -16.036,16.669l0,4.438c0,12.23 8.239,16.287 15.907,16.287c5.514,-0 8.939,-0.506 12.994,-1.521c1.077,-0.254 1.332,-0.699 1.332,-1.712l-0,-4.815c-0,-0.7 -0.508,-1.015 -1.205,-1.015l-0.191,-0c-2.534,0.253 -8.174,0.571 -12.168,0.571c-5.006,-0 -6.528,-3.298 -6.528,-6.91l-0,-0.126l20.218,-0c0.824,-0 1.332,-0.571 1.332,-1.52l0,-3.677c0,-9.57 -5.261,-16.669 -15.655,-16.669Z" style="fill:#fff;fill-rule:nonzero;"></path><path d="M255.818,22.755c-3.042,-0 -6.211,1.079 -8.556,3.042l-0,-1.266c-0,-0.697 -0.57,-1.267 -1.267,-1.267l-7.542,-0c-0.697,-0 -1.267,0.57 -1.267,1.267l0,33.716c0,0.697 0.632,1.332 1.331,1.332l7.669,-0c0.696,-0 1.267,-0.635 1.267,-1.332l0,-24.781c2.345,-1.267 5.07,-2.216 8.174,-2.216l0.508,-0c0.571,-0 0.949,-0.635 0.949,-1.206l0,-6.022c0,-0.696 -0.57,-1.267 -1.266,-1.267Z" style="fill:#fff;fill-rule:nonzero;"></path></svg> 