<?xml version="1.0" encoding="UTF-8"?>
<svg xmlns="http://www.w3.org/2000/svg" width="119" height="49" viewBox="0 0 119 49" fill="none">
  <g clip-path="url(#clip0_1403_5939)">
    <path d="M41.8972 23.0362L40.6523 23.0256C40.1833 23.0256 39.7251 22.9684 39.2799 22.854C39.0097 22.7842 38.8736 22.1424 38.8736 20.931V8.72132C38.9773 7.80004 39.5976 7.06725 40.7453 6.52506C41.8756 5.98076 43.7732 5.70756 46.4403 5.70544V3.46259C43.9418 3.46259 41.9469 3.96453 40.4513 4.96841C39.7705 5.42588 39.2453 5.95323 38.8757 6.5526V3.44141L33.7578 4.46647V5.11878L34.8104 4.92605C35.5625 4.78415 36.0488 4.71214 36.2692 4.71214C36.4529 4.71214 36.5848 4.84769 36.6626 5.1209C36.7404 5.39622 36.7793 5.87275 36.7793 6.55048V20.9331C36.7793 22.1445 36.6453 22.7842 36.3773 22.8562C35.9299 22.9705 35.4717 23.0277 35.0027 23.0277L33.7578 23.0383V23.6991H41.8994V23.0383L41.8972 23.0362Z" fill="white"></path>
    <path d="M48.3366 22.9221C47.2603 22.9221 46.4131 22.2741 45.8014 20.9758C45.2481 19.8025 44.9715 18.4407 44.9715 15.6705C44.9715 12.9003 45.2481 11.513 45.8014 10.3609C46.4282 9.05415 47.2603 8.40184 48.2934 8.40184C49.3957 8.40184 50.2537 9.05415 50.8761 10.3609C51.4359 11.5215 51.7169 12.8812 51.7169 15.6705C51.7169 18.4597 51.4359 19.8025 50.8761 20.9758C50.2645 22.2741 49.4173 22.9221 48.3388 22.9221M52.4712 21.2787C53.5021 19.7347 54.0165 18.2861 54.0165 15.7065C54.0165 13.1269 53.5021 11.6168 52.4777 10.0623C51.451 8.50774 50.0743 7.73047 48.3431 7.73047C46.6119 7.73047 45.2352 8.50774 44.2107 10.0623C43.1841 11.6168 42.6719 13.093 42.6719 15.7149C42.6719 18.3369 43.1884 19.7326 44.2215 21.2787C45.2546 22.8205 46.627 23.5914 48.3453 23.5914C50.0635 23.5914 51.4446 22.8205 52.4733 21.2787" fill="white"></path>
    <path d="M59.6228 10.4366C60.2496 9.13201 61.0795 8.47758 62.1147 8.47758C63.2148 8.47758 64.0729 9.13201 64.6932 10.4366C65.2551 11.5972 65.5361 12.9569 65.5361 15.7441C65.5361 18.5312 65.2551 19.8761 64.6932 21.0515C64.0837 22.3498 63.2365 22.9979 62.1601 22.9979C61.0838 22.9979 60.2344 22.3498 59.6228 21.0515C59.0673 19.8761 58.7928 18.5164 58.7928 15.7441C58.7928 12.9718 59.0673 11.5866 59.6228 10.4366ZM56.0826 4.13166C56.3506 4.20366 56.4867 4.84539 56.4867 6.05471V20.4395C56.4867 21.1172 56.4478 21.5916 56.37 21.8669C56.2922 22.1422 56.1604 22.2799 55.9767 22.2799C55.7541 22.2799 55.2699 22.2079 54.5156 22.066L53.4609 21.8733V22.5256L58.581 23.5506V22.0596C59.5363 23.1334 60.7315 23.6714 62.1601 23.6714C63.8848 23.6714 65.2616 22.9004 66.2904 21.3607C67.3191 19.8168 67.8335 18.3682 67.8335 15.7886C67.8335 13.209 67.3213 11.6989 66.2968 10.1444C65.2702 8.58983 63.8913 7.81468 62.1601 7.81468C60.725 7.81468 59.532 8.3505 58.581 9.42428V6.05894C58.581 4.84962 58.7172 4.2079 58.9874 4.13589C59.4326 4.02364 59.8908 3.96434 60.3576 3.96434L61.6025 3.95375V3.29297H53.4609V3.95375L54.7058 3.96434C55.1748 3.96434 55.633 4.02153 56.0804 4.13589" fill="white"></path>
    <path d="M72.3756 10.3801C73.0024 9.07547 73.8345 8.42316 74.8676 8.42316C75.9677 8.42316 76.8279 9.07547 77.4482 10.3801C78.008 11.5407 78.2911 12.9025 78.2911 15.6897C78.2911 18.4768 78.0101 19.8217 77.4482 20.9971C76.8344 22.2954 75.9915 22.9435 74.9108 22.9435C73.8302 22.9435 72.9895 22.2954 72.3756 20.9971C71.8224 19.8217 71.5435 18.462 71.5435 15.6897C71.5435 12.9173 71.8202 11.5344 72.3756 10.3801ZM74.9173 23.6127C76.642 23.6127 78.0188 22.8418 79.0454 21.3C80.0742 19.756 80.5907 18.3074 80.5907 15.7278C80.5907 13.1482 80.0785 11.6381 79.0519 10.0857C78.0274 8.52906 76.6507 7.75391 74.9173 7.75391C73.184 7.75391 71.8094 8.52906 70.7849 10.0857C69.7583 11.6381 69.2461 13.1143 69.2461 15.7384C69.2461 18.3624 69.7626 19.756 70.7957 21.3C71.8288 22.8418 73.2034 23.6127 74.9173 23.6127Z" fill="white"></path>
    <path d="M82.363 4.50121C82.5489 4.50121 82.6785 4.63887 82.7585 4.9142C82.832 5.16834 82.8687 5.60039 82.873 6.20611H82.8644V7.76488H79.8732V8.42778L81.1181 8.43838C81.5871 8.43838 82.0453 8.49556 82.4905 8.60992C82.6893 8.66075 82.8125 9.01868 82.8644 9.67946V23.6978L87.9845 22.6728V22.0226L86.932 22.2153C86.1798 22.3572 85.6935 22.4271 85.4731 22.4271C85.2894 22.4271 85.1575 22.2894 85.0776 22.0162C85.0062 21.7599 84.9673 21.33 84.963 20.7243H84.9717V10.5309H84.9933C84.9933 9.31942 85.1273 8.67981 85.3953 8.60992C85.8427 8.49556 86.3009 8.43838 86.7699 8.43838L88.0148 8.42778V7.76488H84.9717V3.23047L79.8516 4.25553V4.90784L80.9063 4.71723C81.6584 4.57533 82.1425 4.50332 82.363 4.50332" fill="white"></path>
    <path d="M88.4545 16.2101H90.7346H92.8052H95.6213C95.9974 16.2313 96.4296 16.2144 96.7301 16.3796C96.9873 16.5172 97.1818 17.536 97.1493 18.3513C97.1493 18.741 96.8122 20.4375 96.5204 21.058C95.9196 22.3542 95.0875 23.0022 94.0263 23.0022C92.9651 23.0022 92.133 22.3542 91.53 21.058C91.3679 20.7043 91.2317 20.2935 91.1193 19.8169H89.1374C89.3622 20.3506 89.641 20.8505 89.9782 21.3609C90.9962 22.9027 92.347 23.6736 94.0349 23.6736C95.7229 23.6736 97.0845 22.9027 98.096 21.3609C98.7876 20.3062 99.2415 19.2959 99.4619 17.9384C99.5138 17.4576 99.516 17.0044 99.4965 16.621C99.4684 16.0259 99.3884 15.6002 99.369 15.507C99.369 15.4943 97.4303 15.4985 97.4303 15.507H94.0263L92.7079 15.5155C92.5263 15.5155 92.3448 15.5049 92.1676 15.4858C91.932 15.4646 91.7007 15.435 91.4738 15.3863C91.4068 15.3715 91.3463 15.3609 91.2879 15.3376C91.0156 15.2317 90.8773 14.6302 90.8708 13.4315C91.0005 12.1311 91.2209 11.0785 91.5451 10.4008C92.1568 9.10249 93.004 8.45441 94.0803 8.45441C95.1566 8.45441 96.0039 9.10249 96.6177 10.4008C96.8122 10.8116 96.9678 11.3009 97.0932 11.8812H99.1529C98.9086 11.2564 98.5931 10.6824 98.1997 10.0979C97.1666 8.55607 95.7942 7.78516 94.076 7.78516C92.3578 7.78516 90.9767 8.55607 89.9479 10.0979C88.9732 11.5571 88.461 12.9359 88.4091 15.2613C88.394 15.2783 88.3594 16.2101 88.3594 16.2101H88.4588H88.4545Z" fill="white"></path>
    <path d="M44.1578 40.4481C43.5462 41.7464 42.699 42.3966 41.6205 42.3966C40.542 42.3966 39.6969 41.7464 39.0831 40.4481C38.5298 39.2727 38.2532 37.9151 38.2532 35.1407C38.2532 32.3662 38.5298 30.9854 39.0831 29.8353C39.7099 28.5286 40.542 27.8763 41.5773 27.8763C42.6795 27.8763 43.5376 28.5265 44.1578 29.8353C44.7198 30.9959 45.0008 32.3535 45.0008 35.1407C45.0008 37.9278 44.7198 39.2748 44.1578 40.4481ZM41.627 27.207C40.1681 27.207 38.9621 27.7577 38.0068 28.8611V27.3235L32.8867 28.3486V28.9988L33.9393 28.806C34.6914 28.6641 35.1777 28.5943 35.3981 28.5943C35.5818 28.5943 35.7137 28.7319 35.7915 29.0051C35.8693 29.2783 35.9082 29.7549 35.9082 30.4326V44.8152C35.9082 46.0267 35.7742 46.6641 35.504 46.7362C35.0588 46.8526 34.6006 46.9077 34.1316 46.9077L32.8867 46.9183V47.5833H41.0283V46.9183L39.7834 46.9077C39.3144 46.9077 38.8584 46.8526 38.411 46.7362C38.1408 46.6641 38.0068 46.0245 38.0068 44.8152V41.4054C38.9686 42.5109 40.1767 43.0658 41.627 43.0658C43.3474 43.0658 44.7263 42.2928 45.755 40.751C46.7838 39.207 47.3004 37.7605 47.3004 35.1809C47.3004 32.6013 46.7881 31.0913 45.7615 29.5388C44.7371 27.9822 43.3582 27.207 41.6291 27.207" fill="white"></path>
    <path d="M51.5853 34.2956C52.197 32.9952 53.0442 32.3472 54.1227 32.3472C55.2012 32.3472 56.0462 32.9952 56.6579 34.2956C57.0901 35.2084 57.3754 36.9705 57.4381 38.3599C57.4748 38.9529 57.2544 39.1901 57.0534 39.3002C56.6384 39.5353 56.1219 39.4781 55.6356 39.4781L50.7857 39.4866C50.8462 37.1908 51.099 35.3164 51.5875 34.2956M53.8893 46.9818V46.9882C52.8886 46.9501 52.0976 46.321 51.5205 45.099C51.032 44.0803 50.764 42.4368 50.7143 40.1707H59.7701V39.5522C59.7701 39.5522 59.7853 39.1414 59.7766 38.9465C59.6988 36.7439 59.1866 35.4075 58.2399 33.9906C57.2068 32.4467 55.8323 31.6758 54.1162 31.6758C52.4001 31.6758 51.1228 32.5251 49.9881 33.9906C48.5811 35.8057 48.4688 39.5628 48.4688 39.5628C48.4925 41.9857 48.9918 43.9299 49.9687 45.3955C50.9694 46.8929 52.3072 47.6447 53.98 47.6447V47.632C55.4994 47.6066 56.7378 46.9585 57.6931 45.6814H56.0268C55.4713 46.5477 54.7559 46.9818 53.8871 46.9818" fill="white"></path>
    <path d="M74.4528 46.6779C74.1848 46.608 74.0487 45.9662 74.0487 44.7548V39.4558C74.0487 39.4558 73.8758 35.7897 72.5185 33.8498C71.4529 32.3291 70.1108 31.5815 68.3947 31.5815C66.9596 31.5815 65.7644 32.1194 64.8113 33.189V30.7852L59.6934 31.8102V32.4604L60.7481 32.2677C61.5002 32.1258 61.9865 32.0538 62.2048 32.0538C62.3885 32.0538 62.5225 32.1914 62.5981 32.4668C62.6781 32.74 62.7148 33.2165 62.7148 33.8921V44.7061C62.7148 45.9154 62.5808 46.555 62.3128 46.6291C61.8655 46.7414 61.4073 46.7986 60.9404 46.7986L59.6955 46.8092V47.4699H67.8349V46.8092L66.59 46.7986C66.1232 46.7986 65.665 46.7414 65.2176 46.6291C64.9496 46.555 64.8135 45.9154 64.8135 44.7061V39.4262C64.8675 37.0986 65.3732 35.2285 65.866 34.1971C66.4777 32.8967 67.3249 32.2507 68.4012 32.2507C69.4775 32.2507 70.5236 32.7506 71.1374 34.0488C71.6129 35.0633 71.8874 36.6835 71.9846 38.8522L71.9544 44.7548C71.9544 45.9662 71.8204 46.6058 71.5502 46.6779C71.105 46.7922 70.6468 46.8494 70.1799 46.8494L68.935 46.86V47.5208H77.0766V46.86L75.8317 46.8494C75.3627 46.8494 74.9045 46.7922 74.4593 46.6779" fill="white"></path>
    <path d="M81.8498 32.2513C82.9521 32.2513 83.8123 32.9015 84.4326 34.2082C84.7957 34.9622 85.0421 35.8051 85.1696 37.0631H87.3633C87.1234 35.8411 86.6825 34.8923 86.0362 33.9117C85.0096 32.3551 83.6329 31.582 81.9017 31.582C80.1705 31.582 78.7938 32.3572 77.7693 33.9117C76.7427 35.4641 76.2305 36.9403 76.2305 39.5623C76.2305 42.1842 76.747 43.582 77.7801 45.126C78.8154 46.6678 80.1878 47.4387 81.9039 47.4387C83.6199 47.4387 84.8843 46.7292 85.9001 45.3145H84.1732C83.5897 46.2823 82.831 46.7695 81.8995 46.7695C80.821 46.7695 79.9781 46.1214 79.3643 44.821C78.8111 43.6477 78.5344 42.288 78.5344 39.5136C78.5344 36.7391 78.8111 35.3582 79.3643 34.2061C79.9911 32.8994 80.8232 32.2492 81.8563 32.2492" fill="white"></path>
    <path d="M92.9283 46.7793C92.6603 46.7073 92.5242 46.0677 92.5242 44.8563V30.6367L87.4062 31.6618V32.312L88.4588 32.1192C89.2109 31.9773 89.6951 31.9075 89.9177 31.9075C90.1014 31.9075 90.2332 32.0451 90.311 32.3183C90.3888 32.5915 90.4277 33.0681 90.4277 33.7458V44.8563C90.4277 46.0677 90.2937 46.7073 90.0236 46.7793C89.5762 46.8937 89.118 46.9488 88.6511 46.9488L87.4062 46.9593V47.6222H95.5478V46.9593L94.3029 46.9488C93.8339 46.9488 93.3779 46.8937 92.9283 46.7793Z" fill="white"></path>
    <path d="M102.419 46.4989C102.149 46.429 102.015 45.7852 102.015 44.5759V27.082L96.8967 28.1092V28.7594L97.9492 28.5688C98.7014 28.4248 99.1855 28.3549 99.406 28.3549C99.5897 28.3549 99.7215 28.4926 99.7993 28.7658C99.8771 29.0411 99.916 29.5176 99.916 30.1932V44.5759C99.916 45.7852 99.782 46.4269 99.5119 46.4989C99.0645 46.6112 98.6063 46.6683 98.1394 46.6683L96.8945 46.6789V47.3439H105.036V46.6789L103.791 46.6683C103.322 46.6683 102.866 46.6112 102.419 46.4989Z" fill="white"></path>
    <path d="M90.1211 28.2768C90.1211 28.9079 90.6333 29.4247 91.2644 29.4247C91.8955 29.4247 92.4077 28.9079 92.4077 28.2768C92.4077 27.6457 91.8977 27.1289 91.2644 27.1289C90.6312 27.1289 90.1211 27.6436 90.1211 28.2768Z" fill="white"></path>
    <path d="M116.43 39.0383C116.43 39.0256 114.491 39.0319 114.491 39.0383H111.087L109.766 39.0467C109.585 39.0467 109.403 39.034 109.224 39.0171C108.991 38.9959 108.759 38.9662 108.532 38.9175C108.463 38.9027 108.407 38.8921 108.349 38.8688C108.074 38.7629 107.936 38.1593 107.929 36.9648C108.059 35.6623 108.28 34.6097 108.604 33.9341C109.215 32.6337 110.063 31.9857 111.141 31.9857C112.22 31.9857 113.065 32.6337 113.676 33.9341C113.871 34.3429 114.026 34.8321 114.152 35.4124H116.209C115.967 34.7876 115.652 34.2179 115.258 33.6291C114.225 32.0873 112.853 31.3164 111.135 31.3164C109.416 31.3164 108.035 32.0873 107.007 33.6291C106.034 35.0905 105.52 36.465 105.468 38.7947C105.453 38.8116 105.418 39.7414 105.418 39.7414H105.515H107.795H109.866L112.684 39.7435C113.06 39.7626 113.495 39.7478 113.793 39.9108C114.048 40.0506 114.245 41.0672 114.212 41.8826C114.212 42.2702 113.875 43.9708 113.583 44.5893C112.98 45.8875 112.15 46.5356 111.087 46.5356C110.024 46.5356 109.196 45.8875 108.593 44.5893C108.429 44.2377 108.292 43.8268 108.18 43.3503H106.2C106.425 43.884 106.704 44.3817 107.039 44.8921C108.057 46.434 109.408 47.2049 111.096 47.2049C112.784 47.2049 114.143 46.434 115.157 44.8921C115.846 43.8395 116.304 42.8293 116.523 41.4717C116.575 40.9888 116.577 40.5356 116.559 40.1523C116.529 39.5593 116.451 39.1314 116.434 39.0383" fill="white"></path>
    <path d="M110.388 22.4602C109.223 22.4602 108.253 22.0514 107.475 21.2318C106.697 20.4122 106.306 19.3934 106.306 18.1693C106.306 16.6677 107.008 15.5092 108.408 14.6896C109.72 16.9155 111.292 19.2304 113.122 21.6405C112.249 22.1848 111.339 22.458 110.388 22.458M110.591 8.31049C111.644 8.31049 112.171 9.00728 112.171 10.4009C112.171 11.9384 111.557 13.1329 110.326 13.9801C110.157 13.673 110.029 13.4443 109.947 13.2918C109.282 12.11 108.949 11.1421 108.949 10.3903C108.949 9.00304 109.496 8.30837 110.591 8.30837M113.712 15.1767V15.8121L113.907 15.8227C114.436 15.8566 114.737 15.8735 114.804 15.8735C115.098 15.8735 115.275 15.937 115.344 16.0641C115.411 16.1933 115.446 16.5258 115.446 17.0616C115.446 18.3154 115.143 19.3956 114.536 20.2957C113.047 18.2561 111.877 16.5343 111.026 15.1365C110.944 14.9925 110.816 14.7785 110.637 14.4905C112.91 13.673 114.045 12.415 114.045 10.7249C114.045 9.80784 113.719 9.07505 113.07 8.51805C112.42 7.96104 111.56 7.68359 110.483 7.68359C109.463 7.68359 108.616 7.99916 107.944 8.63241C107.269 9.26143 106.932 10.0535 106.932 11.0002C106.932 11.8813 107.324 12.9254 108.104 14.1347C105.56 14.9543 104.289 16.4856 104.289 18.7305C104.289 20.0966 104.78 21.2487 105.763 22.1912C106.746 23.1336 107.948 23.6038 109.37 23.6038C110.689 23.6038 112.699 22.8986 114.114 21.7845L114.819 21.1068C116.072 19.512 116.738 18.1672 116.868 16.7969C116.915 16.2928 116.905 16.0133 116.976 15.9603C117.047 15.9095 117.479 15.865 118.277 15.8248L118.491 15.8142V15.1788H113.704L113.712 15.1767Z" fill="white"></path>
    <path d="M25.0177 21.8666H28.5406C28.5406 21.8666 28.4606 19.6597 28.4174 19.1938C27.4686 9.39851 21.1879 4.81326 15.16 4.48922V2.98975H16.7767C17.0468 3.70984 17.7514 4.22449 18.5792 4.22449C19.6382 4.22449 20.5006 3.37945 20.5006 2.33956C20.5006 1.29967 19.6361 0.454632 18.577 0.454632C17.7514 0.454632 17.0468 0.969281 16.7745 1.68937H15.1579V1.06035C15.1579 0.700308 14.8618 0.410156 14.4944 0.410156C14.1269 0.410156 13.8308 0.700308 13.8308 1.06035V1.68937H12.212C11.9419 0.969281 11.2373 0.454632 10.4095 0.454632C9.35049 0.454632 8.48813 1.29967 8.48813 2.33956C8.48813 3.37945 9.35049 4.22449 10.4095 4.22449C11.2351 4.22449 11.9397 3.70984 12.212 2.98975H13.8308V4.48711C10.6775 4.6523 7.70358 5.95481 5.391 8.19342C2.63968 10.8599 0.973323 14.6975 0.571323 19.2933C0.530258 19.755 0.5 21.8687 0.5 21.8687H3.97103V23.1246H0.545387L2.30036 42.7893H3.4091C2.8061 43.3844 2.43219 44.204 2.43219 45.1062C2.43436 46.9255 3.94294 48.4059 5.793 48.4102C7.0271 48.408 8.10774 47.7494 8.69345 46.7773C9.27916 47.7515 10.3576 48.408 11.5874 48.4102C12.841 48.408 13.9346 47.7303 14.5138 46.7328C15.106 47.6837 16.1715 48.3212 17.3862 48.3233C18.603 48.3212 19.6685 47.6837 20.2607 46.7328C20.8399 47.7303 21.9314 48.408 23.1806 48.4102C25.035 48.4059 26.5414 46.9255 26.5479 45.1105C26.5457 44.2061 26.1718 43.3844 25.5688 42.7893H26.6884L28.4433 23.1246H25.0177V21.8687V21.8666ZM1.62387 20.7822C1.63468 20.2718 1.65197 19.6301 1.67358 19.3844C2.50784 9.84538 8.71507 5.563 14.4944 5.55241C22.4328 5.56723 26.6538 12.4652 27.3151 19.2954C27.3411 19.5602 27.3713 20.2951 27.3929 20.7822H1.62387ZM3.314 41.7049L1.75139 24.2068H5.2851L6.84771 41.7049H3.314ZM5.79516 47.3258C4.5481 47.3237 3.53877 46.3346 3.53661 45.1084C3.53661 43.8842 4.5481 42.8952 5.79516 42.893C7.04007 42.893 8.05155 43.8842 8.05371 45.1084C8.05155 46.3346 7.04007 47.3237 5.79516 47.3258ZM11.5896 47.3258C10.3425 47.3237 9.3332 46.3346 9.3332 45.1084C9.3332 43.8842 10.3447 42.8952 11.5896 42.893C12.8366 42.893 13.846 43.8842 13.8481 45.1084C13.8481 46.3346 12.8366 47.3237 11.5896 47.3258ZM17.3883 47.239C16.1413 47.2368 15.1319 46.2457 15.1276 45.0194C15.1319 43.7974 16.1391 42.8062 17.3883 42.8041C18.6332 42.8062 19.6426 43.7974 19.6426 45.0194C19.6426 46.2457 18.6311 47.2347 17.3883 47.239ZM7.95861 41.7049L6.396 24.2068H22.811L21.2484 41.7049H7.95645H7.95861ZM23.1827 47.3258C21.9357 47.3237 20.9264 46.3346 20.9242 45.1084C20.9264 43.8842 21.9357 42.8952 23.1827 42.893C24.4277 42.893 25.437 43.8842 25.4413 45.1084C25.437 46.3346 24.4298 47.3237 23.1827 47.3258ZM27.2352 24.2068L25.6726 41.7049H22.3593L23.9219 24.2068H27.2352Z" fill="white"></path>
    <path d="M10.2755 31.6753L10.8872 39.3823H18.1988L18.7997 31.6414L14.529 25.3555L10.2734 31.6753H10.2755ZM16.9993 35.9704L14.5398 37.7939L12.0932 35.9894C11.5399 35.407 11.5399 34.3841 12.0932 33.7995C12.3655 33.5136 12.7135 33.3611 13.0939 33.3611C13.4742 33.3611 13.8265 33.5178 14.0945 33.7995L14.5419 34.2803L14.9893 33.8016C15.2638 33.5178 15.6204 33.3611 15.99 33.3611C16.3596 33.3611 16.7162 33.5178 16.9863 33.8016C17.2457 34.0685 17.4056 34.5005 17.4056 34.9262C17.4056 35.3244 17.2543 35.7014 17.0036 35.9704H16.9993ZM17.531 31.6837H11.568L13.645 28.6022H15.4367L17.531 31.6837Z" fill="white"></path>
    <path d="M19.8241 10.207C17.4834 10.207 15.588 12.0729 15.588 14.3645C15.588 16.656 17.4834 18.5219 19.8241 18.5219C22.1648 18.5219 24.0602 16.6645 24.0602 14.3645C24.0602 12.0644 22.1648 10.207 19.8241 10.207ZM19.8198 17.4481C18.0756 17.4439 16.6708 16.0651 16.6664 14.3645C16.6708 12.6638 18.0756 11.285 19.8198 11.2808C21.5618 11.2829 22.9666 12.6617 22.9688 14.3645C22.9666 16.0651 21.5618 17.4439 19.8198 17.4481Z" fill="white"></path>
    <path d="M19.8254 12.8789C18.989 12.8789 18.3147 13.5418 18.3125 14.3572C18.3147 15.1726 18.989 15.8334 19.8254 15.8355C20.6597 15.8355 21.334 15.1726 21.3361 14.3572C21.3361 13.5418 20.6618 12.881 19.8254 12.8789Z" fill="white"></path>
    <path d="M9.51798 11.4883C7.90349 11.4883 6.59375 12.776 6.59375 14.358C6.59375 15.9401 7.90349 17.2278 9.51798 17.2278C11.1325 17.2278 12.4422 15.9443 12.4422 14.358C12.4422 12.7717 11.1325 11.4883 9.51798 11.4883ZM9.51798 16.1667C8.49569 16.1646 7.67223 15.3556 7.67007 14.358C7.67223 13.3605 8.49569 12.5536 9.51798 12.5515C10.5381 12.5515 11.3616 13.3605 11.3637 14.358C11.3637 15.3556 10.5381 16.1625 9.51798 16.1667Z" fill="white"></path>
  </g>
  <defs>
    <clipPath id="clip0_1403_5939">
      <rect width="118" height="48" fill="white" transform="translate(0.5 0.410156)"></rect>
    </clipPath>
  </defs>
</svg>
