<svg xmlns="http://www.w3.org/2000/svg" id="Layer_1" viewBox="0 0 883 252"><defs><style>.cls-1{fill:#051c40;}.cls-2,.cls-3{fill:#3bb5db;}.cls-3{fill-rule:evenodd;}</style></defs><path class="cls-1" d="m567.61,86.28h-15.08v83.25h15.08v-83.25Z"></path><path class="cls-1" d="m631.86,118.22c-2.8-2.8-6.22-5.09-10.14-6.73-3.97-1.68-8.35-2.5-13.09-2.5s-9.12.82-13.09,2.5c-3.98,1.68-7.34,3.92-10.14,6.73-2.81,2.85-4.99,6.11-6.57,9.93-1.58,3.77-2.39,7.8-2.39,12.02s.81,8.25,2.39,12.02c1.58,3.77,3.77,7.13,6.57,9.99,2.8,2.85,6.22,5.15,10.14,6.78,3.97,1.68,8.3,2.5,13.09,2.5s9.12-.82,13.09-2.5c3.98-1.68,7.34-3.92,10.14-6.78,2.81-2.85,4.99-6.22,6.57-9.99,1.58-3.77,2.34-7.8,2.34-12.02s-.81-8.25-2.34-12.02c-1.53-3.77-3.77-7.08-6.57-9.93Zm-7.28,28.48c-.66,2.14-1.73,4.18-3.11,6.01-1.43,1.83-3.16,3.31-5.3,4.43-2.14,1.12-4.63,1.68-7.54,1.68s-5.4-.56-7.54-1.68c-2.14-1.12-3.92-2.6-5.3-4.43-1.43-1.83-2.44-3.82-3.11-6.01-.66-2.14-1.02-4.33-1.02-6.47s.36-4.23,1.02-6.42c.66-2.19,1.73-4.18,3.11-6.01,1.43-1.78,3.16-3.26,5.3-4.38,2.14-1.12,4.63-1.68,7.54-1.68s5.4.56,7.54,1.68c2.14,1.12,3.92,2.6,5.3,4.38,1.43,1.78,2.44,3.77,3.11,6.01.66,2.19,1.02,4.33,1.02,6.42s-.3,4.28-1.02,6.47Z"></path><path class="cls-1" d="m690.15,142.73c0,2.14-.36,4.18-1.07,6.06-.72,1.89-1.73,3.52-3.01,4.94-1.27,1.43-2.8,2.5-4.59,3.31-1.78.82-3.72,1.17-5.76,1.17-3.31,0-6.01-1.02-8.1-3.06-2.09-2.04-3.11-4.94-3.11-8.66v-35.51h-15.08v35.56c0,7.39,1.94,13.3,5.86,17.68,3.92,4.38,9.63,6.57,17.11,6.57,2.4,0,4.54-.25,6.37-.76,1.89-.51,3.52-1.12,4.99-1.94,1.43-.82,2.7-1.63,3.82-2.55,1.12-.92,2.04-1.78,2.8-2.6l.41,6.62h14.41v-58.59h-15.08v31.74Z"></path><path class="cls-1" d="m758.62,169.53h14.57v-83.25h-14.93v26.09c-1.12-.41-2.09-.82-2.96-1.12-.87-.36-1.78-.61-2.81-.82-1.02-.2-2.19-.41-3.46-.51-1.27-.1-2.9-.2-4.84-.2-1.43,0-3.16.2-5.1.56-1.98.36-3.97,1.02-6.06,1.89-2.09.87-4.13,1.99-6.22,3.31-2.04,1.32-3.92,3.01-5.61,4.99-2.04,2.39-3.77,5.35-5.14,8.81-1.38,3.46-2.04,7.49-2.04,12.02,0,4.84.76,9.12,2.29,12.89,1.53,3.72,3.52,6.88,6.01,9.48,2.45,2.6,5.3,4.53,8.46,5.86,3.16,1.32,6.32,1.99,9.58,1.99,2.29,0,4.38-.25,6.22-.76,1.83-.51,3.46-1.12,4.99-1.89,1.48-.76,2.8-1.58,3.87-2.5,1.12-.92,2.04-1.78,2.81-2.6l.35,5.76Zm-3.57-15.84c-1.12,1.53-2.55,2.75-4.33,3.67-1.78.97-3.98,1.43-6.52,1.43-4.84,0-8.56-1.68-11.11-4.99-2.55-3.31-3.82-7.49-3.82-12.48,0-2.39.35-4.74,1.07-6.93.71-2.19,1.73-4.13,3-5.81,1.48-1.83,3.16-3.31,5.09-4.43,1.94-1.12,4.44-1.68,7.39-1.68s5.45.25,7.33.71c1.94.46,3.62,1.27,5.05,2.45v17.98c0,1.68-.26,3.41-.76,5.2-.46,1.78-1.27,3.41-2.39,4.89Z"></path><path class="cls-1" d="m320.52,125.05c2.34-4.02,3.52-8.66,3.52-13.91,0-2.65-.51-5.45-1.58-8.36-1.07-2.9-2.75-5.6-5.04-8.05-2.29-2.5-5.35-4.48-9.07-6.06-3.77-1.58-8.3-2.39-13.65-2.39h-28.22v83.25h15.49v-32.86h12.13l17.27,32.86h18.14l-19.67-34.85c4.79-2.39,8.36-5.6,10.7-9.63Zm-16.2-4.84c-2.24,2.34-5.45,3.52-9.53,3.52h-12.89v-24.1h12.89c3.82,0,6.93,1.12,9.32,3.36,2.39,2.24,3.57,5.15,3.57,8.76,0,3.31-1.12,6.16-3.36,8.46Z"></path><path class="cls-1" d="m385.89,119.6c-2.29-3.16-5.35-5.71-9.12-7.64-3.77-1.94-8.41-2.96-13.86-2.96-4.53,0-8.61.76-12.33,2.34-3.72,1.58-6.88,3.77-9.58,6.47-2.7,2.75-4.74,5.96-6.27,9.68-1.48,3.72-2.24,7.69-2.24,12.02,0,4.74.76,9.07,2.24,12.99,1.48,3.92,3.62,7.29,6.37,10.04,2.75,2.8,6.11,4.99,10.04,6.57,3.92,1.58,8.25,2.39,13.04,2.39s8.71-.51,12.07-1.48c3.36-1.02,6.16-2.14,8.3-3.36,2.19-1.22,3.82-2.45,4.99-3.57,1.17-1.12,1.83-1.83,2.09-2.09l-8.2-8.97c-.51.51-1.27,1.12-2.24,1.94-.97.82-2.24,1.53-3.77,2.24-1.53.71-3.36,1.32-5.55,1.89-2.19.56-4.69.82-7.59.82-1.94,0-3.92-.31-5.96-1.02-1.99-.66-3.77-1.63-5.35-2.85-1.58-1.27-2.85-2.75-3.82-4.48-.97-1.73-1.48-3.72-1.48-5.86h44.73v-2.14c0-4.18-.51-8.25-1.53-12.23-1.02-3.97-2.7-7.59-4.99-10.75Zm-38.31,14.47c0-1.48.36-3.01,1.02-4.48.66-1.48,1.68-2.85,2.95-4.08,1.27-1.17,2.85-2.19,4.79-3.01,1.94-.82,4.13-1.17,6.57-1.17,2.29,0,4.33.41,6.11,1.17,1.78.76,3.26,1.78,4.43,3.01,1.12,1.22,2.04,2.55,2.6,4.08.61,1.48.92,3.01.92,4.48h-29.4Z"></path><path class="cls-1" d="m442.24,112.37c-1.12-.41-2.09-.82-2.95-1.12-.87-.36-1.78-.61-2.8-.82-1.02-.2-2.19-.41-3.41-.51-1.27-.1-2.9-.2-4.84-.2-1.48,0-3.16.2-5.09.56-1.99.36-3.97,1.02-6.06,1.89-2.09.87-4.13,1.99-6.22,3.31-2.04,1.32-3.92,3.01-5.6,4.99-2.04,2.39-3.77,5.35-5.09,8.81-1.38,3.46-2.04,7.49-2.04,12.02,0,4.84.76,9.12,2.29,12.89,1.53,3.72,3.52,6.88,6.01,9.48,2.45,2.6,5.3,4.53,8.46,5.86,3.16,1.32,6.32,1.99,9.58,1.99,2.29,0,4.38-.25,6.16-.76,1.83-.51,3.52-1.12,4.99-1.89,1.48-.76,2.8-1.58,3.87-2.5,1.12-.92,2.04-1.78,2.8-2.6l.41,5.76h14.57v-83.25h-14.93v26.09h-.1Zm0,31.23c0,1.68-.25,3.41-.76,5.2-.51,1.78-1.32,3.41-2.45,4.94-1.12,1.53-2.55,2.75-4.33,3.67-1.78.97-3.97,1.43-6.52,1.43-4.84,0-8.56-1.68-11.11-4.99-2.55-3.31-3.82-7.49-3.82-12.48,0-2.39.36-4.74,1.07-6.93.71-2.19,1.73-4.13,3.01-5.81,1.43-1.83,3.16-3.31,5.09-4.43,1.94-1.12,4.43-1.68,7.39-1.68s5.45.25,7.34.71c1.94.46,3.62,1.27,5.04,2.45v17.93h.05Z"></path><path class="cls-1" d="m491.14,107.07c2.34-2.7,5.2-4.89,8.51-6.47,3.31-1.63,7.08-2.45,11.26-2.45,5.45,0,9.98,1.17,13.6,3.52,3.62,2.34,6.78,5.4,9.52,9.22l11.36-9.88c-1.68-2.34-3.67-4.53-5.86-6.57-2.19-2.04-4.74-3.82-7.59-5.3-2.85-1.48-6.01-2.7-9.53-3.57-3.46-.87-7.34-1.32-11.51-1.32-6.47,0-12.38,1.17-17.78,3.52-5.35,2.34-9.99,5.5-13.86,9.48-3.87,3.97-6.88,8.66-9.02,13.96-2.14,5.35-3.21,11.06-3.21,17.12s1.07,11.97,3.21,17.22c2.14,5.25,5.09,9.83,8.97,13.65,3.82,3.87,8.36,6.88,13.65,9.07,5.3,2.14,11.11,3.26,17.52,3.26,4.08,0,7.95-.56,11.62-1.63,3.67-1.07,7.03-2.45,10.09-4.18,3.06-1.73,5.71-3.57,8-5.55,2.24-1.99,4.02-3.97,5.3-5.86l-11.26-9.48c-1.02,1.02-2.14,2.19-3.41,3.57-1.22,1.38-2.75,2.7-4.59,3.92-1.83,1.27-4.02,2.29-6.62,3.11-2.6.82-5.71,1.22-9.37,1.22-4.03,0-7.59-.76-10.8-2.24-3.21-1.48-5.96-3.52-8.25-6.11-2.29-2.6-4.08-5.6-5.3-9.12-1.22-3.46-1.83-7.23-1.83-11.21s.61-7.79,1.83-11.41,3.01-6.78,5.35-9.48Z"></path><path class="cls-1" d="m804.77,86.28c-6.77,0-12.28,5.35-12.28,11.97s5.5,11.97,12.28,11.97,12.23-5.35,12.23-11.97-5.45-11.97-12.23-11.97Zm0,21.14c-5.2,0-9.42-4.13-9.42-9.17s4.23-9.17,9.42-9.17,9.43,4.13,9.43,9.17c-.05,5.04-4.28,9.17-9.43,9.17Z"></path><path class="cls-1" d="m808.84,100.24c-.2-.87-.51-1.58-.97-2.09.97-.76,1.48-1.83,1.48-3.11,0-1.17-.46-2.19-1.22-2.85-.92-.82-2.14-1.17-4.02-1.17-1.12,0-2.29.1-3.11.25l-.71.15v13.09h3.31v-5.04h.51c.81.05,1.22.2,1.53,1.58.41,1.83.66,2.65.87,3.01l.25.46h3.62l-.71-1.27c-.2-.41-.56-1.94-.82-3.01Zm-4.63-3.67h-.66v-2.6h.61c1.83,0,1.83.92,1.83,1.27.05,1.17-1.22,1.32-1.78,1.32Z"></path><path class="cls-3" d="m218.68,165.78c6.59-11.77,10.35-25.33,10.35-39.78,0-45.02-36.5-81.51-81.52-81.51s-81.51,36.5-81.51,81.51,36.5,81.52,81.51,81.52c13.85,0,26.89-3.45,38.31-9.54-3.31-3.99-5.29-9.12-5.29-14.71,0-12.75,10.33-23.08,23.08-23.08,5.76,0,11.03,2.11,15.07,5.6Z"></path><circle class="cls-2" cx="204.49" cy="183.56" r="15.78"></circle></svg>