<svg width="22" height="20" viewBox="0 0 22 20" fill="none" xmlns="http://www.w3.org/2000/svg">
<path d="M7.3443 0.139211L15.4758 14.1995L12.1077 20L0.65625 0.139211H7.3443ZM17.8816 0C17.208 0 16.5344 0.185615 15.957 0.556845C15.3796 0.928074 14.9465 1.48492 14.706 2.08817C14.4654 2.73782 14.3692 3.38747 14.5135 4.08353C14.6579 4.73318 14.9947 5.38283 15.4758 5.84687C15.957 6.31091 16.5825 6.63573 17.2561 6.77494C17.9297 6.91415 18.6033 6.82135 19.2288 6.58933C19.8543 6.3109 20.3836 5.89327 20.7685 5.33643C21.1534 4.77958 21.3459 4.12993 21.3459 3.43387C21.3459 2.96984 21.2497 2.5522 21.1053 2.13457C20.9129 1.71694 20.6723 1.34571 20.3355 1.02088C19.9987 0.696056 19.6137 0.464037 19.2288 0.278422C18.7477 0.0928074 18.3146 0 17.8816 0Z" fill="url(#paint0_linear_111_18650)"/>
<defs>
<linearGradient id="paint0_linear_111_18650" x1="5.82866" y1="13" x2="10.8688" y2="5.57686" gradientUnits="userSpaceOnUse">
<stop stop-color="#4148FF"/>
<stop offset="1" stop-color="#418DFF"/>
</linearGradient>
</defs>
</svg>
