<?xml version="1.0" encoding="UTF-8"?>
<svg xmlns="http://www.w3.org/2000/svg" width="143" height="22" viewBox="0 0 143 22" fill="none">
  <path d="M15.2144 5.18058C15.3812 5.18058 15.5165 5.3158 15.5165 5.4826V6.91116C15.5165 7.07796 15.3812 7.21318 15.2144 7.21318H2.83147C2.66467 7.21318 2.52945 7.3484 2.52945 7.5152V9.28252C2.52945 9.44933 2.66467 9.58455 2.83147 9.58455H10.0045C10.1713 9.58455 10.3066 9.71977 10.3066 9.88657V11.2022C10.3066 11.369 10.1713 11.5042 10.0045 11.5042H2.83147C2.66467 11.5042 2.52945 11.6394 2.52945 11.8062V13.6488C2.52945 13.8157 2.66467 13.9509 2.83147 13.9509H15.2144C15.3812 13.9509 15.5165 14.0861 15.5165 14.2529V15.7191C15.5165 15.8859 15.3812 16.0211 15.2144 16.0211H0.302024C0.135221 16.0211 0 15.8859 0 15.7191V5.4826C0 5.3158 0.135221 5.18058 0.302024 5.18058H15.2144Z" fill="white"></path>
  <path d="M38.5077 16.0211C38.4128 16.0211 38.3234 15.9765 38.2664 15.9007L30.5661 5.66416C30.4164 5.46511 30.5584 5.18058 30.8075 5.18058H33.1055C33.2027 5.18058 33.294 5.22736 33.3507 5.30628L38.9431 13.0839C39.0634 13.2512 39.3122 13.2516 39.433 13.0847L45.0621 5.30555C45.1189 5.22706 45.2099 5.18058 45.3068 5.18058H47.4233C47.6712 5.18058 47.8135 5.46261 47.6663 5.66199L40.1087 15.8985C40.0517 15.9756 39.9616 16.0211 39.8657 16.0211H38.5077Z" fill="white"></path>
  <path d="M95.0997 16.0211C94.9329 16.0211 94.7976 15.8859 94.7976 15.7191V5.4826C94.7976 5.3158 94.9329 5.18058 95.0997 5.18058H96.8915C96.9538 5.18058 97.0147 5.19988 97.0656 5.23583L107.233 12.4104C107.433 12.5515 107.709 12.4085 107.709 12.1636V5.4826C107.709 5.3158 107.844 5.18058 108.011 5.18058H110.088C110.254 5.18058 110.39 5.3158 110.39 5.4826V15.7191C110.39 15.8859 110.254 16.0211 110.088 16.0211H108.672C108.611 16.0211 108.55 16.0022 108.5 15.9669L97.7641 8.48503C97.5638 8.34549 97.2893 8.48876 97.2893 8.73282V15.7191C97.2893 15.8859 97.1541 16.0211 96.9873 16.0211H95.0997Z" fill="white"></path>
  <path d="M134.552 5.14294C134.647 5.14294 134.736 5.18755 134.793 5.2634L142.493 15.4999C142.643 15.6989 142.501 15.9835 142.252 15.9835H139.954C139.857 15.9835 139.766 15.9367 139.709 15.8578L134.116 8.0801C133.996 7.9128 133.747 7.91243 133.626 8.07936L127.997 15.8585C127.941 15.937 127.85 15.9835 127.753 15.9835H125.636C125.388 15.9835 125.246 15.7014 125.393 15.5021L132.951 5.26557C133.008 5.18845 133.098 5.14294 133.194 5.14294L134.552 5.14294Z" fill="white"></path>
  <path d="M70.8783 3.00586L64.6469 6.81738V14.2217L70.8783 18.1064V21.0391L62.0082 15.6875V6.81738L53.0648 0L63.4008 4.61816L70.8783 0V3.00586ZM81.2142 5.35156V14.2217L90.1576 21.0391L79.8217 16.4209L72.3441 21.0391V18.0332L78.5756 14.2217V6.81738L72.3441 2.93262V0L81.2142 5.35156Z" fill="#1586FF"></path>
</svg>
