<svg role="img" aria-label="Gravitas Recruitment Group UK" viewBox="0 0 338 50" fill="#353535" xmlns="http://www.w3.org/2000/svg">
    <path d="M7.07581 32.3941C5.04191 32.3941 3.41055 31.6737 2.33004 30.4873C0.296147 28.3051 0.105469 25.8263 0.105469 16.5466C0.105469 7.28813 0.296147 4.78813 2.33004 2.60593C3.41055 1.41949 5.04191 0.720337 7.07581 0.720337C9.10971 0.720337 10.6139 1.3983 11.6945 2.47881C13.0504 3.87712 13.7072 5.97457 13.7072 8.32627V8.68644H10.5292V8.34746C10.508 5.9322 9.87242 3.64407 7.07581 3.64407C5.91055 3.64407 5.16903 4.02542 4.63937 4.63983C3.4953 5.99576 3.26225 7.6483 3.26225 16.5678C3.26225 25.4873 3.4953 27.1398 4.63937 28.4958C5.16903 29.1102 5.91055 29.4915 7.07581 29.4915C9.04615 29.4703 10.508 27.9873 10.5292 25.2754V18.1356H6.75801V15.339H13.7072V25.2542C13.7072 29.9153 10.5928 32.3729 7.07581 32.3941Z"/>
    <path d="M24.9153 12.2881C22.5 12.3093 21.0593 13.7288 21.017 16.1864V32.0551H17.9873V9.72455H20.9958V11.2712C21.1653 11.0593 21.3559 10.8686 21.5043 10.7415C22.5636 9.78811 23.9195 9.36438 25.4237 9.36438H25.7415V12.2881H25.4237H24.9153Z"/>
    <path d="M32.5422 32.394C31.1016 32.394 29.8516 31.8856 28.8558 30.8474C27.9448 29.894 27.3516 28.1356 27.3516 25.7203C27.3516 23.6228 27.966 21.7584 29.2795 20.572C30.4024 19.5339 31.7583 19.0254 33.7499 19.0466H35.8897V15.5084C35.8473 13.1991 35.0422 12.161 33.2414 12.1398C32.4787 12.1398 31.949 12.4364 31.5253 12.8601C30.9109 13.5169 30.6355 14.2372 30.6355 15.6567V15.9745H27.6058V15.6567C27.6058 14.0042 27.9448 12.2669 29.2795 10.9533C30.2329 9.97877 31.61 9.40674 33.2626 9.40674C35.0211 9.40674 36.4405 9.89403 37.3727 10.8686C38.4321 11.9491 38.9617 13.4322 38.9617 15.6144V32.0762H36.3346H36.0168V30.8474C35.7838 31.1017 35.5507 31.3347 35.36 31.483C34.6609 32.0127 33.8346 32.394 32.6058 32.394C32.5634 32.394 32.5422 32.394 32.5422 32.394ZM31.4617 22.4152C30.8261 23.0508 30.4024 24.3008 30.4024 25.6779C30.4448 28.2203 31.2499 29.5974 33.0931 29.5974C34.788 29.5974 35.8897 28.1567 35.9109 26.0169V21.5678H33.8558C32.7965 21.5889 32.0973 21.8008 31.4617 22.4152Z"/>
    <path d="M46.0797 32.0551L40.8467 9.72461H44.173L47.6052 26.356L51.0374 9.72461H54.3213L49.1518 31.8009L49.0882 32.0551H46.0797Z"/>
    <path d="M56.3976 32.0551V10.0424V9.70337H59.4484V32.0339L56.3976 32.0551ZM56.0586 5.40252V2.01269V1.67371H59.7874V5.40252H56.0586Z"/>
    <path d="M71.3763 32.0551C69.6178 32.0551 67.8805 31.8856 66.5246 30.5932C65.3805 29.5339 64.7873 27.9873 64.8085 25.9322V12.2458H62.1602V9.72458H64.8085V3.36865H67.8593V9.7034H71.5669V12.2246H67.8593V25.911C67.9017 28.3687 68.9822 29.1949 71.3974 29.2373H71.7152V32.0339H71.3763V32.0551Z"/>
    <path d="M82.4355 32.055H82.1177V30.8262C81.9058 31.0805 81.6728 31.3135 81.4609 31.4618C80.7618 31.9915 79.9355 32.3728 78.7067 32.3728C78.6855 32.3728 78.6855 32.3728 78.6643 32.3728C77.2236 32.3728 75.9736 31.8644 74.9779 30.8262C74.0669 29.8728 73.4948 28.1144 73.4736 25.6991C73.4736 23.6017 74.088 21.7372 75.4016 20.5508C76.5245 19.5127 77.8804 19.0042 79.8719 19.0254H82.0118V15.5084C81.9694 13.1991 81.1855 12.161 79.3635 12.1398C78.6008 12.1398 78.0711 12.4364 77.6474 12.8601C77.033 13.5169 76.7787 14.2372 76.7575 15.6567V15.9745H73.7279V15.6567C73.7279 14.0042 74.0669 12.2669 75.4016 10.9533C76.355 9.97877 77.7321 9.40674 79.3847 9.40674C81.1431 9.40674 82.5626 9.89403 83.4948 10.8686C84.533 11.9491 85.0838 13.4322 85.0626 15.6144V32.0762L82.4355 32.055ZM77.5626 22.4152C76.927 23.0296 76.5033 24.2796 76.5033 25.6779C76.5457 28.2203 77.3508 29.5974 79.194 29.5974C80.8889 29.5974 81.9906 28.1567 82.0118 26.0169V21.5678H79.9567C78.8974 21.5889 78.2194 21.8008 77.5626 22.4152Z"/>
    <path d="M90.0841 30.7627C88.7705 29.4279 88.2832 27.733 88.2832 25.8474V25.5296H91.334V25.8474C91.334 27.161 91.6095 28.072 92.351 28.8135C92.8807 29.3432 93.5586 29.6186 94.279 29.6186C95.2324 29.6186 95.9315 29.322 96.5247 28.7288C97.0968 28.1568 97.4146 27.3093 97.4146 26.2712C97.4146 25.4237 97.2663 24.7246 96.8637 24.1101C96.4188 23.4534 95.8044 22.8813 94.8086 22.3517L92.0756 20.8474C90.6773 20.0635 89.6603 19.0466 89.1307 18.1568C88.6857 17.2881 88.4951 16.3771 88.4951 15.2754C88.4951 13.5169 89.2154 12.0339 90.2959 10.9534C91.3552 9.89404 92.7959 9.36438 94.4061 9.36438C96.0798 9.36438 97.4781 9.85167 98.5163 10.911C99.6603 12.0551 100.19 13.6864 100.19 15.8262V16.1652H97.1391V15.8262C97.1391 14.2373 96.9061 13.5593 96.2917 12.9025C95.762 12.3517 95.1052 12.161 94.4061 12.161C93.5163 12.161 92.8595 12.394 92.3722 12.8813C91.779 13.4322 91.5247 14.3644 91.5459 15.1907C91.5459 15.8686 91.673 16.4618 91.9273 16.9068C92.1391 17.3517 92.8171 17.8601 93.7917 18.3898L96.4612 19.9152C97.9018 20.6991 98.8764 21.5466 99.512 22.5847C100.148 23.6229 100.423 24.8729 100.423 26.1652C100.423 27.9449 99.7027 29.5339 98.6222 30.6144C97.4993 31.7373 95.9951 32.3729 94.2578 32.3729C94.2366 32.3729 94.2366 32.3729 94.2366 32.3729C92.5205 32.394 91.1222 31.8008 90.0841 30.7627Z"/>
    <path d="M123.432 31.716L118.877 17.7118H114.534V31.716H112.839V1.41943H118.199C121.186 1.41943 124.322 2.22452 124.322 9.5974C124.322 14.6186 122.881 16.7372 120.487 17.4788L125.297 31.7584H123.432V31.716ZM118.326 2.94486H114.534V16.2288H118.326C121.525 16.2288 122.627 14.0254 122.627 9.5974C122.627 5.14825 121.525 2.94486 118.326 2.94486Z"/>
    <path d="M131.101 21.0382C131.101 26.1441 131.271 28.4111 132.372 29.6399C132.881 30.1907 133.686 30.6145 134.724 30.6145C135.571 30.6145 136.461 30.3602 137.054 29.767C137.817 29.0467 138.156 27.9026 138.156 26.3136H139.724C139.724 28.4534 139.258 29.6399 138.241 30.6992C137.351 31.589 136.08 32.0551 134.703 32.0551C133.135 32.0551 131.927 31.4619 131.122 30.5721C129.851 29.1738 129.47 26.6102 129.47 21.0382C129.47 15.4662 129.809 12.9026 131.08 11.5043C131.885 10.6145 133.05 10.0212 134.618 10.0212C136.186 10.0212 137.33 10.6145 138.156 11.5043C139.427 12.9026 139.766 15.4662 139.766 21.0382H131.101ZM136.927 12.4365C136.419 11.8856 135.656 11.4619 134.639 11.4619C133.622 11.4619 132.86 11.8856 132.33 12.4365C131.313 13.5382 131.143 15.5085 131.08 19.6611H138.156C138.114 15.5085 137.944 13.5382 136.927 12.4365Z"/>
    <path d="M152.351 30.7416C151.462 31.6314 150.275 32.0551 148.813 32.0551C147.373 32.0551 146.101 31.4619 145.275 30.5721C144.004 29.1738 143.665 26.6102 143.665 21.0382C143.665 15.4662 144.004 12.9026 145.275 11.5043C146.101 10.6145 147.373 10.0212 148.813 10.0212C150.36 10.0212 151.504 10.4026 152.351 11.2501C153.58 12.4789 153.707 14.1102 153.707 15.7628H152.118C152.118 14.534 152.076 13.284 151.186 12.3517C150.593 11.7162 149.83 11.4619 148.835 11.4619C147.818 11.4619 147.013 11.8856 146.504 12.4365C145.402 13.6653 145.275 15.9323 145.275 21.0382C145.275 26.1441 145.402 28.4111 146.504 29.6399C147.013 30.1907 147.818 30.6145 148.835 30.6145C149.682 30.6145 150.487 30.3602 151.101 29.767C151.949 28.9195 152.118 27.7755 152.118 26.3136H153.686C153.707 28.3475 153.368 29.6823 152.351 30.7416Z"/>
    <path d="M164.173 11.4619C161.44 11.4619 159.83 13.1145 159.83 15.8051V31.7373H158.22V10.339H159.83V12.606C159.957 12.2246 160.338 11.6314 160.55 11.4195C161.482 10.4026 162.817 10.0212 164.343 10.0212V11.4619H164.173Z"/>
    <path d="M175.741 31.7161V29.9788C175.53 30.4449 174.979 30.9958 174.64 31.25C173.962 31.7585 173.136 32.0551 172.076 32.0551C170.763 32.0551 169.703 31.5466 168.877 30.6992C168.03 29.8517 167.563 28.6441 167.563 26.6525V10.339H169.174V26.6949C169.174 29.3009 170.636 30.572 172.458 30.572C174.28 30.572 175.741 29.3009 175.741 26.6949V10.339H177.373V31.7161H175.741Z"/>
    <path d="M182.605 2.20337H184.978V4.59744H182.605V2.20337ZM182.987 10.339H184.597V31.7161H182.987V10.339Z"/>
    <path d="M192.225 30.3602C191.292 29.428 190.826 28.072 190.826 26.3135V11.6737H188.051V10.3602H190.826V3.79236H192.436V10.3602H196.356V11.6737H192.436V26.3983C192.436 29.1737 193.941 30.2754 196.568 30.2754V31.7373C194.958 31.7161 193.411 31.5466 192.225 30.3602Z"/>
    <path d="M216.567 31.7161V15.3814C216.567 12.7754 215.127 11.5042 213.283 11.5042C211.461 11.5042 209.999 12.7754 209.999 15.3814V31.7373H208.368V15.3814C208.368 12.7754 206.927 11.5042 205.084 11.5042C203.241 11.5042 201.8 12.7754 201.8 15.3814V31.7373H200.169V10.339H201.8V12.0763C202.012 11.6102 202.563 11.0593 202.902 10.8051C203.622 10.2966 204.385 10 205.466 10C206.991 10 208.58 10.9746 209.385 12.2458C209.682 11.7373 210.233 11.1441 210.699 10.8051C211.419 10.2966 212.309 10 213.389 10C215.042 10 216.038 10.5085 216.843 11.3559C217.69 12.2034 218.156 13.3898 218.156 15.4025V31.7161H216.567Z"/>
    <path d="M224.448 21.0382C224.448 26.1441 224.618 28.4111 225.72 29.6399C226.228 30.1907 227.033 30.6145 228.05 30.6145C228.898 30.6145 229.787 30.3602 230.381 29.767C231.143 29.0467 231.482 27.9026 231.482 26.3136H233.05C233.05 28.4534 232.584 29.6399 231.567 30.6992C230.677 31.589 229.385 32.0551 228.029 32.0551C226.461 32.0551 225.254 31.4619 224.448 30.5721C223.156 29.1738 222.796 26.6102 222.796 21.0382C222.796 15.4662 223.135 12.9026 224.406 11.5043C225.211 10.6145 226.355 10.0212 227.944 10.0212C229.512 10.0212 230.677 10.6145 231.482 11.5043C232.754 12.9026 233.114 15.4662 233.114 21.0382H224.448ZM230.275 12.4365C229.766 11.8856 229.004 11.4619 227.965 11.4619C226.948 11.4619 226.186 11.8856 225.677 12.4365C224.66 13.5382 224.491 15.5085 224.448 19.6611H231.504C231.482 15.5085 231.292 13.5382 230.275 12.4365Z"/>
    <path d="M245.953 31.7161V15.3814C245.953 12.7754 244.513 11.5042 242.669 11.5042C240.847 11.5042 239.386 12.7754 239.386 15.3814V31.7373H237.775V10.339H239.386V12.0763C239.597 11.6102 240.148 11.0593 240.487 10.8051C241.165 10.2966 241.97 10 243.03 10C244.343 10 245.424 10.5085 246.229 11.3559C247.076 12.2034 247.542 13.3898 247.542 15.4025V31.7161H245.953Z"/>
    <path d="M254.978 30.3602C254.046 29.428 253.58 28.072 253.58 26.3135V11.6737H250.805V10.3602H253.58V3.79236H255.19V10.3602H259.11V11.6737H255.19V26.3983C255.19 29.1737 256.673 30.2754 259.322 30.2754V31.7373C257.69 31.7161 256.165 31.5466 254.978 30.3602Z"/>
    <path d="M277.33 32.0551C275.678 32.0551 274.216 31.5467 273.284 30.5721C271.504 28.7289 271.165 27.034 271.165 16.5679C271.165 6.08057 271.504 4.38565 273.284 2.56362C274.216 1.58904 275.657 1.08057 277.33 1.08057C279.11 1.08057 280.445 1.67379 281.377 2.60599C282.563 3.87718 283.072 5.76277 283.072 7.96616H281.377C281.377 5.27548 280.572 2.60599 277.33 2.60599C276.101 2.60599 275.127 2.98735 274.47 3.66531C273.114 5.14836 272.839 6.48311 272.839 16.5679C272.839 26.6526 273.093 27.9873 274.47 29.4704C275.106 30.1484 276.08 30.5297 277.33 30.5297C279.555 30.5297 281.377 28.9195 281.377 25.7628V17.3306H277.33V15.8051H283.072V25.8475C283.072 30.0212 280.254 32.0551 277.33 32.0551Z"/>
    <path d="M294.322 11.4619C291.588 11.4619 289.978 13.1145 289.978 15.8051V31.7373H288.368V10.339H289.978V12.606C290.105 12.2246 290.487 11.6314 290.699 11.4195C291.631 10.4026 292.966 10.0212 294.491 10.0212V11.4619H294.322Z"/>
    <path d="M305.847 30.5721C305.042 31.4619 303.897 32.0551 302.308 32.0551C300.741 32.0551 299.575 31.4619 298.77 30.5721C297.499 29.1738 297.16 26.6102 297.16 21.0382C297.16 15.4662 297.499 12.9026 298.77 11.5043C299.575 10.6145 300.719 10.0212 302.308 10.0212C303.876 10.0212 305.042 10.6145 305.847 11.5043C307.118 12.9026 307.457 15.4662 307.457 21.0382C307.478 26.6102 307.139 29.1738 305.847 30.5721ZM304.618 12.4365C304.109 11.8856 303.347 11.4619 302.308 11.4619C301.292 11.4619 300.529 11.8856 300.02 12.4365C298.919 13.6653 298.792 15.9323 298.792 21.0382C298.792 26.1441 298.919 28.4111 300.02 29.6399C300.529 30.1907 301.292 30.6145 302.308 30.6145C303.325 30.6145 304.088 30.1907 304.618 29.6399C305.719 28.4111 305.847 26.1441 305.847 21.0382C305.847 15.9323 305.719 13.6653 304.618 12.4365Z"/>
    <path d="M320.296 31.7161V29.9788C320.084 30.4449 319.533 30.9958 319.194 31.25C318.516 31.7585 317.711 32.0551 316.631 32.0551C315.317 32.0551 314.258 31.5466 313.432 30.6992C312.584 29.8517 312.118 28.6441 312.118 26.6525V10.339H313.728V26.6949C313.728 29.3009 315.169 30.572 317.012 30.572C318.834 30.572 320.296 29.3009 320.296 26.6949V10.339H321.906V31.7161H320.296Z"/>
    <path d="M335.953 30.6144C335.233 31.4195 334.216 32.0551 332.796 32.0551C331.737 32.0551 330.974 31.8432 330.254 31.3347C329.873 31.0805 329.406 30.5297 329.152 30.0636V40.6568H327.542V10.339H329.152V12.0763C329.364 11.6102 329.936 11.0593 330.254 10.8051C330.974 10.2542 331.779 10 332.796 10C333.983 10 335.106 10.5085 335.953 11.4407C337.224 12.839 337.563 15.4449 337.563 21.0169C337.563 26.6102 337.245 29.2161 335.953 30.6144ZM334.724 12.4364C334.216 11.8856 333.453 11.4619 332.521 11.4619C331.631 11.4619 330.868 11.7585 330.254 12.3093C329.534 13.0297 329.152 14.0466 329.152 15.6356V26.4407C329.152 28.0085 329.534 29.0466 330.254 29.767C330.847 30.3178 331.61 30.6144 332.521 30.6144C333.453 30.6144 334.216 30.1907 334.724 29.6398C335.826 28.411 335.953 26.1441 335.953 21.0381C335.953 15.9322 335.826 13.6653 334.724 12.4364Z"/>
    <path d="M174.195 46.483C174.195 47.3517 173.898 48.0297 173.284 48.5169C172.669 49.0042 171.864 49.2585 170.826 49.2585C170.084 49.2585 169.343 49.1102 168.623 48.8347C168.135 48.6441 167.818 48.4746 167.69 48.3475L168.199 47.4576C168.983 47.9873 169.83 48.2415 170.741 48.2415C171.44 48.2415 171.991 48.0932 172.394 47.7966C172.796 47.5 172.987 47.0975 172.987 46.6102C172.987 46.0593 172.712 45.6144 172.182 45.2542C171.991 45.1271 171.483 44.9153 170.635 44.5975C169.746 44.2373 169.131 43.9407 168.835 43.6864C168.326 43.2627 168.051 42.6695 168.051 41.928C168.051 41.1864 168.347 40.5932 168.94 40.1483C169.534 39.7034 170.275 39.4703 171.165 39.4703C171.864 39.4703 172.542 39.5975 173.178 39.8517C173.601 40.0212 173.856 40.1695 174.004 40.2966L173.538 41.1229C172.775 40.6992 172.012 40.4873 171.292 40.4873C170.741 40.4873 170.254 40.6144 169.873 40.8686C169.47 41.1229 169.279 41.4619 169.279 41.8856C169.279 42.3729 169.47 42.733 169.894 43.0085C170.063 43.1144 170.529 43.3475 171.292 43.6441C172.288 44.0466 172.923 44.3644 173.22 44.5763C173.877 45.0636 174.195 45.6991 174.195 46.483Z"/>
    <path d="M183.919 43.9619C183.919 43.983 183.919 44.089 183.898 44.2373C183.876 44.3856 183.876 44.5127 183.876 44.5975H177.182C177.182 45.6568 177.457 46.5254 178.008 47.161C178.58 47.8178 179.364 48.1356 180.381 48.1356C181.165 48.1356 182.076 47.8814 183.093 47.3729L183.622 48.2627C183.537 48.3686 183.22 48.5381 182.669 48.7712C181.885 49.0678 181.101 49.2161 180.296 49.2161C178.961 49.2161 177.902 48.7712 177.139 47.9025C176.376 47.0127 175.995 45.8686 175.995 44.428C175.995 42.9237 176.376 41.7161 177.139 40.8263C177.923 39.9153 178.94 39.4703 180.254 39.4703C181.355 39.4703 182.245 39.8517 182.902 40.6356C183.58 41.4407 183.919 42.5424 183.919 43.9619ZM182.732 43.6017C182.732 42.7754 182.542 42.0763 182.182 41.5042C181.715 40.8051 181.08 40.4449 180.254 40.4449C179.427 40.4449 178.728 40.7203 178.135 41.2924C177.563 41.8644 177.245 42.6271 177.203 43.6017H182.732Z"/>
    <path d="M191.165 39.5975L190.89 40.572C190.615 40.5297 190.36 40.5085 190.127 40.5085C189.534 40.5085 189.004 40.6356 188.538 40.911C188.178 41.1017 187.882 41.3559 187.627 41.6737C187.5 41.822 187.394 41.9915 187.288 42.1398V49.0254H186.123V39.6822H187.225V40.911C188.03 39.9153 189.026 39.428 190.191 39.428C190.53 39.428 190.848 39.4915 191.165 39.5975Z"/>
    <path d="M194.47 36.5255C194.47 36.7373 194.386 36.9068 194.259 37.0763C194.11 37.2246 193.92 37.3094 193.708 37.3094C193.496 37.3094 193.305 37.2246 193.157 37.0763C193.009 36.928 192.924 36.7373 192.924 36.5255C192.924 36.3136 193.009 36.1229 193.157 35.9746C193.305 35.8263 193.496 35.7416 193.708 35.7416C193.92 35.7416 194.11 35.8263 194.259 35.9746C194.386 36.1229 194.47 36.3136 194.47 36.5255ZM194.28 49.0255H193.115V39.6823H194.28V49.0255Z"/>
    <path d="M204.979 44.428C204.979 45.8898 204.597 47.0763 203.813 47.9449C203.029 48.8136 201.991 49.2585 200.678 49.2585C199.407 49.2585 198.39 48.8136 197.606 47.9237C196.843 47.0339 196.44 45.8475 196.44 44.3432C196.44 42.839 196.822 41.6526 197.606 40.7627C198.39 39.8729 199.428 39.428 200.762 39.428C202.034 39.428 203.051 39.8729 203.813 40.7627C204.597 41.6737 204.979 42.8814 204.979 44.428ZM203.771 44.4068C203.771 43.2627 203.496 42.3093 202.902 41.589C202.33 40.8475 201.589 40.4873 200.72 40.4873C199.788 40.4873 199.068 40.8263 198.517 41.5466C197.966 42.2458 197.69 43.178 197.69 44.3432C197.69 45.5085 197.966 46.4407 198.559 47.161C199.131 47.8814 199.873 48.2415 200.741 48.2415C201.695 48.2415 202.436 47.9026 202.966 47.2034C203.496 46.5042 203.771 45.5932 203.771 44.4068Z"/>
    <path d="M214.258 49.0255H213.177V48.2839C212.245 48.8984 211.228 49.2161 210.148 49.2161C209.194 49.2161 208.453 48.9407 207.881 48.3899C207.478 47.9873 207.224 47.4365 207.097 46.7585C207.054 46.4831 207.033 45.8899 207.033 45.0212V39.6823H208.198V45.2543C208.198 46.4831 208.389 47.267 208.749 47.6484C209.131 48.0297 209.597 48.1992 210.211 48.1992C210.804 48.1992 211.419 48.0509 212.097 47.7755C212.415 47.606 212.732 47.4577 213.071 47.2882V39.7034H214.237L214.258 49.0255Z"/>
    <path d="M222.754 46.483C222.754 47.3517 222.458 48.0297 221.843 48.5169C221.25 49.0042 220.424 49.2585 219.386 49.2585C218.644 49.2585 217.903 49.1102 217.182 48.8347C216.695 48.6441 216.377 48.4746 216.25 48.3475L216.758 47.4576C217.542 47.9873 218.39 48.2415 219.301 48.2415C220 48.2415 220.551 48.0932 220.953 47.7966C221.356 47.5 221.547 47.0975 221.547 46.6102C221.547 46.0593 221.271 45.6144 220.742 45.2542C220.551 45.1271 220.042 44.9153 219.195 44.5975C218.305 44.2373 217.691 43.9407 217.394 43.6864C216.864 43.2627 216.61 42.6695 216.61 41.928C216.61 41.1864 216.907 40.5932 217.5 40.1483C218.093 39.7034 218.835 39.4703 219.725 39.4703C220.424 39.4703 221.081 39.5975 221.737 39.8517C222.161 40.0212 222.436 40.1695 222.564 40.2966L222.097 41.1229C221.335 40.6992 220.572 40.4873 219.831 40.4873C219.28 40.4873 218.792 40.6144 218.411 40.8686C218.03 41.1229 217.818 41.4619 217.818 41.8856C217.818 42.3729 218.008 42.733 218.411 43.0085C218.581 43.1144 219.047 43.3475 219.809 43.6441C220.805 44.0466 221.441 44.3644 221.737 44.5763C222.415 45.0636 222.754 45.6991 222.754 46.483Z"/>
    <path d="M236.186 49.0255H235.127V48.3264C234.83 48.4747 234.534 48.6441 234.237 48.7925C233.538 49.0891 232.839 49.2162 232.161 49.2162C231.271 49.2162 230.551 48.9619 229.979 48.4323C229.428 47.9026 229.152 47.2247 229.152 46.3772C229.152 44.3433 230.953 43.3264 234.534 43.3264H235.021V42.9662C235.021 41.9704 234.873 41.3348 234.555 40.9958C234.195 40.6357 233.601 40.445 232.775 40.445C231.928 40.445 231.059 40.6992 230.19 41.1865L229.703 40.3603C229.851 40.2119 230.148 40.0425 230.614 39.8518C231.335 39.5552 232.097 39.4069 232.902 39.4069C233.983 39.4069 234.83 39.7035 235.424 40.2967C235.763 40.6357 235.974 41.0594 236.059 41.5467C236.123 41.8433 236.165 42.3306 236.165 42.9874L236.186 49.0255ZM235.021 47.4365V44.2797H234.491C231.716 44.2797 230.339 44.9789 230.339 46.3984C230.339 46.9069 230.508 47.3306 230.826 47.6484C231.186 48.0086 231.716 48.1992 232.394 48.1992C233.072 48.1992 233.94 47.945 235.021 47.4365Z"/>
    <path d="M246.631 44.195C246.631 45.678 246.186 46.8856 245.296 47.8178C244.406 48.7501 243.284 49.2162 241.885 49.2162C240.911 49.2162 239.873 49.0043 238.729 48.6017V35.0212H239.894V40.2967C240.593 39.7458 241.462 39.4704 242.5 39.4704C243.75 39.4704 244.745 39.8941 245.487 40.7628C246.271 41.6102 246.631 42.7543 246.631 44.195ZM245.423 44.2373C245.423 43.1145 245.148 42.2034 244.597 41.5043C244.046 40.8263 243.305 40.4873 242.394 40.4873C241.589 40.4873 240.762 40.784 239.894 41.3984V47.8602C240.635 48.0721 241.313 48.1992 241.928 48.1992C242.987 48.1992 243.834 47.839 244.47 47.1187C245.127 46.3984 245.423 45.4238 245.423 44.2373Z"/>
    <path d="M256.822 44.428C256.822 45.8898 256.44 47.0763 255.656 47.9449C254.872 48.8136 253.834 49.2585 252.542 49.2585C251.271 49.2585 250.254 48.8136 249.47 47.9237C248.707 47.0339 248.305 45.8475 248.305 44.3432C248.305 42.839 248.686 41.6526 249.47 40.7627C250.254 39.8729 251.292 39.428 252.627 39.428C253.898 39.428 254.915 39.8729 255.678 40.7627C256.44 41.6737 256.822 42.8814 256.822 44.428ZM255.614 44.4068C255.614 43.2627 255.317 42.3093 254.745 41.589C254.173 40.8475 253.453 40.4873 252.563 40.4873C251.652 40.4873 250.911 40.8263 250.36 41.5466C249.809 42.2458 249.534 43.178 249.534 44.3432C249.534 45.5085 249.83 46.4407 250.402 47.161C250.974 47.8814 251.716 48.2415 252.584 48.2415C253.538 48.2415 254.279 47.9026 254.809 47.2034C255.339 46.5042 255.614 45.5932 255.614 44.4068Z"/>
    <path d="M266.102 49.0255H265.021V48.2839C264.089 48.8984 263.072 49.2161 261.992 49.2161C261.038 49.2161 260.297 48.9407 259.746 48.3899C259.343 47.9873 259.089 47.4365 258.962 46.7585C258.92 46.4831 258.898 45.8899 258.898 45.0212V39.6823H260.064V45.2543C260.064 46.4831 260.233 47.267 260.615 47.6484C260.996 48.0297 261.462 48.1992 262.076 48.1992C262.648 48.1992 263.284 48.0509 263.962 47.7755C264.28 47.606 264.619 47.4577 264.937 47.2882V39.7034H266.102V49.0255Z"/>
    <path d="M273.856 48.7924C273.263 49.089 272.648 49.2373 272.013 49.2373C271.165 49.2373 270.529 49.0255 270.085 48.5805C269.852 48.3263 269.682 48.0085 269.618 47.5848C269.555 47.3094 269.534 46.8433 269.534 46.1653V40.6356H267.902V39.6822H269.534V37.0339H270.699V39.6822H273.686V40.6356H270.699V45.9534C270.699 46.8009 270.763 47.3305 270.847 47.5636C271.038 47.9873 271.462 48.1992 272.161 48.1992C272.457 48.1992 272.775 48.1568 273.093 48.0509C273.241 47.9873 273.39 47.945 273.538 47.8814L273.856 48.7924Z"/>
    <path d="M285.72 48.7924C285.127 49.089 284.512 49.2373 283.877 49.2373C283.029 49.2373 282.394 49.0255 281.949 48.5805C281.695 48.3263 281.546 48.0085 281.483 47.5848C281.419 47.3094 281.398 46.8433 281.398 46.1653V40.6356H279.767V39.6822H281.398V37.0339H282.563V39.6822H285.551V40.6356H282.563V45.9534C282.563 46.8009 282.606 47.3305 282.712 47.5636C282.902 47.9873 283.326 48.1992 284.025 48.1992C284.322 48.1992 284.639 48.1568 284.957 48.0509C285.106 47.9873 285.254 47.945 285.402 47.8814L285.72 48.7924Z"/>
    <path d="M294.343 49.0255H293.283V48.3264C292.987 48.4747 292.69 48.6441 292.394 48.7925C291.694 49.0891 290.995 49.2162 290.317 49.2162C289.428 49.2162 288.707 48.9619 288.156 48.4323C287.606 47.9026 287.33 47.2247 287.33 46.3772C287.33 44.3433 289.131 43.3264 292.711 43.3264H293.199V42.9662C293.199 41.9704 293.05 41.3348 292.733 40.9958C292.394 40.6357 291.779 40.445 290.953 40.445C290.084 40.445 289.237 40.6992 288.368 41.1865L287.881 40.3603C288.029 40.2119 288.326 40.0425 288.792 39.8518C289.512 39.5552 290.275 39.4069 291.08 39.4069C292.182 39.4069 293.008 39.7035 293.601 40.2967C293.94 40.6357 294.152 41.0594 294.237 41.5467C294.3 41.8433 294.343 42.3306 294.343 42.9874V49.0255ZM293.178 47.4365V44.2797H292.648C289.894 44.2797 288.495 44.9789 288.495 46.3984C288.495 46.9069 288.644 47.3306 288.983 47.6484C289.343 48.0086 289.872 48.1992 290.572 48.1992C291.207 48.1992 292.076 47.945 293.178 47.4365Z"/>
    <path d="M298.072 49.0255H296.906V35.0212H298.072V49.0255Z"/>
    <path d="M308.22 43.9619C308.22 43.983 308.22 44.089 308.198 44.2373C308.177 44.3856 308.177 44.5127 308.177 44.5975H301.482C301.482 45.6568 301.758 46.5254 302.309 47.161C302.859 47.8178 303.665 48.1356 304.681 48.1356C305.487 48.1356 306.376 47.8814 307.393 47.3729L307.923 48.2627C307.838 48.3686 307.52 48.5381 306.97 48.7712C306.186 49.0678 305.402 49.2161 304.597 49.2161C303.262 49.2161 302.203 48.7712 301.44 47.9025C300.677 47.0127 300.296 45.8686 300.296 44.428C300.296 42.9237 300.677 41.7161 301.44 40.8263C302.224 39.9153 303.262 39.4703 304.554 39.4703C305.656 39.4703 306.546 39.8517 307.203 40.6356C307.859 41.4407 308.22 42.5424 308.22 43.9619ZM307.012 43.6017C307.012 42.7754 306.821 42.0763 306.461 41.5042C306.016 40.8051 305.359 40.4449 304.533 40.4449C303.707 40.4449 303.008 40.7203 302.436 41.2924C301.864 41.8644 301.546 42.6271 301.504 43.6017H307.012Z"/>
    <path d="M317.606 49.0254H316.44V43.5805C316.44 42.839 316.419 42.3305 316.377 42.0551C316.292 41.6102 316.144 41.25 315.89 40.9958C315.551 40.6356 315.063 40.4661 314.428 40.4661C313.835 40.4661 313.199 40.6144 312.5 40.911C311.991 41.1229 311.674 41.2712 311.568 41.3771V49.0042H310.402V39.661H311.504V40.339C312.479 39.7246 313.496 39.428 314.576 39.428C315.508 39.428 316.229 39.6822 316.737 40.2119C317.14 40.5932 317.373 41.1017 317.5 41.6949C317.563 42.0339 317.606 42.6059 317.606 43.3898V49.0254Z"/>
    <path d="M325.233 48.7924C324.639 49.089 324.025 49.2373 323.389 49.2373C322.542 49.2373 321.906 49.0255 321.462 48.5805C321.207 48.3263 321.059 48.0085 320.995 47.5848C320.953 47.3094 320.911 46.8433 320.911 46.1653V40.6356H319.279V39.6822H320.911V37.0339H322.076V39.6822H325.063V40.6356H322.076V45.9534C322.076 46.8009 322.118 47.3305 322.224 47.5636C322.415 47.9873 322.839 48.1992 323.517 48.1992C323.813 48.1992 324.131 48.1568 324.449 48.0509C324.597 47.9873 324.745 47.945 324.894 47.8814L325.233 48.7924Z"/>
    <path d="M0.422852 44.7458V43.75H163.262V44.7458H0.422852Z"/>
</svg>
