<?xml version="1.0" encoding="UTF-8"?>
<svg id="Ebene_2" data-name="Ebene 2" xmlns="http://www.w3.org/2000/svg" viewBox="0 0 159.86 40">
  <defs>
    <style>
      .cls-1 {
        fill: #868787;
      }

      .cls-1, .cls-2 {
        stroke-width: 0px;
      }

      .cls-2 {
        fill: #e63027;
      }
    </style>
  </defs>
  <g id="Ebene_1-2" data-name="Ebene 1">
    <g>
      <path class="cls-1" d="m86.4,33.93c.01-2.3.67-4.24,1.97-5.84,1.27-1.62,3.03-2.44,5.29-2.48,3.85.03,5.82,1.99,5.91,5.89-.01,2.32-.64,4.29-1.88,5.92-1.24,1.68-3.04,2.54-5.39,2.58-3.89-.05-5.86-2.07-5.9-6.07Zm2.93,0c-.01.97.23,1.79.73,2.46.47.7,1.24,1.06,2.29,1.07.73,0,1.37-.18,1.9-.55.54-.33.99-.78,1.34-1.34.71-1.2,1.06-2.48,1.06-3.86,0-1-.22-1.84-.67-2.52-.45-.68-1.22-1.03-2.29-1.04-1.47.04-2.56.67-3.27,1.89-.72,1.19-1.08,2.49-1.08,3.89Z"/>
      <path class="cls-1" d="m103.41,25.94h3.02l3.61,9.77h.04l1.9-9.77h2.68l-2.81,13.73h-2.93l-3.65-9.64h-.04l-1.9,9.64h-2.74l2.81-13.73Z"/>
      <path class="cls-1" d="m117.64,25.94h10.15l-.5,2.53h-7.23l-.59,2.94h6.68l-.48,2.35h-6.69l-.68,3.37h7.34l-.53,2.53h-10.26l2.79-13.73Z"/>
      <path class="cls-1" d="m139.52,25.94h2.99l2.22,13.73h-2.91l-.43-3.05h-4.96l-1.68,3.05h-3.09l7.86-13.73Zm-1.94,8.42h3.55l-.65-5.47h-.04l-2.86,5.47Z"/>
      <path class="cls-1" d="m156.25,38.28h-.04c-.44.6-.95,1.03-1.53,1.3-.59.28-1.2.42-1.83.42-3.89-.05-5.86-2.08-5.91-6.08.01-2.3.67-4.24,1.97-5.83,1.27-1.62,3.03-2.44,5.29-2.48,1.61,0,2.94.39,4.01,1.16,1.07.8,1.61,2.03,1.64,3.71h-2.93c-.12-1.58-1.02-2.36-2.7-2.33-1.47.04-2.56.67-3.27,1.89-.72,1.19-1.08,2.49-1.08,3.89-.01.97.23,1.79.73,2.46.47.7,1.24,1.06,2.29,1.07,1.1,0,1.93-.28,2.49-.85.58-.54.98-1.24,1.2-2.12h-3.07s.46-2.26.46-2.26h5.64l-1.53,7.43h-1.84v-1.39Z"/>
    </g>
    <g>
      <polygon class="cls-2" points="0 39.49 6.29 9.92 13.44 9.92 7.13 39.49 0 39.49 0 39.49"/>
      <polygon class="cls-2" points="15.23 9.92 33.01 9.92 31.7 16.03 26.31 16.03 21.29 39.49 14.15 39.49 19.14 16.03 13.93 16.03 15.23 9.92 15.23 9.92"/>
      <path class="cls-2" d="m35.29,39.49h-6.94l6.29-29.57h10.13c5.68,0,7.9,3.28,6.52,8.12-.92,3.24-2.03,5.04-5.08,6.66l-.02.08c1.81.24,2.92,1.87,2.59,3.91-.4,2.5-1.61,7.32-1.94,9-.11.58-.1,1.02.56,1.27l-.09.54h-7.34c0-.53.03-1.13.15-1.72.54-2.71.93-4.98,1.28-6.86.29-1.55.01-2.97-1.57-3.09h-2.07l-2.48,11.67h0Zm3.62-17.06h2.09c1.8,0,2.84-1.64,3.22-3.53.58-2.87-.4-3.57-3.79-3.57l-1.52,7.1h0Z"/>
      <path class="cls-2" d="m66.07,29.53l-.46,2.16c-.36,1.69.03,2.88,2.04,2.82,1.38-.04,2.43-1.13,2.73-2.63.5-2.53-.47-3.06-2.68-4.53-1.86-1.24-3.31-2.32-4.29-3.82-.95-1.5-1.71-3.27-1.15-5.87,1.18-5.56,4.54-8.44,9.9-8.44,6.03,0,8.25,4.02,6.76,9.58h-6.12c.29-1.73.87-4.1-1.38-4.26-1.39-.12-1.79.63-2.23,1.93-.57,1.77.4,2.73,1.58,3.67,2.25,1.66,3.99,2.32,5.22,3.87.77.97,1.79,2.91.84,7.46-1.18,5.68-5.51,8.45-10.3,8.43-6.35-.03-8.32-3.24-7.49-7.14l.7-3.22h6.34Z"/>
      <polygon class="cls-2" points="6.83 7.34 8.39 0 15.56 0 13.99 7.34 6.83 7.34 6.83 7.34"/>
      <polygon class="cls-2" points="48.74 39.49 55.02 9.92 62.17 9.92 55.87 39.49 48.74 39.49 48.74 39.49"/>
      <polygon class="cls-2" points="55.56 7.34 57.13 0 64.29 0 62.72 7.34 55.56 7.34 55.56 7.34"/>
    </g>
  </g>
</svg>