<svg width="312" height="45" viewBox="0 0 312 45" fill="none" xmlns="http://www.w3.org/2000/svg">
<g clip-path="url(#clip0_15_122)">
<path d="M0 10.8H7.05L10.6 27.4001L14.45 10.8H20.05L24 27.3L27.65 10.8H34.45L28.25 35H21.2L17.25 19.4501L13.45 35H6.45L0 10.8Z" fill="black"/>
<path d="M108.93 29.55C108.13 30.22 106.98 30.54 105.48 30.5C104.21 30.5 103.11 30.16 102.16 29.48C101.21 28.8 100.51 27.77 100.06 26.4C99.8301 25.71 99.7001 24.94 99.6701 24.1H117.03C117.53 21.8 117.4 19.57 116.63 17.4C115.86 15.24 114.52 13.48 112.61 12.13C110.69 10.78 108.35 10.1 105.58 10.1C103.11 10.1 100.92 10.69 99.0101 11.85C97.0901 13.02 95.6201 14.59 94.6101 16.55C93.5901 18.52 93.0801 20.64 93.0801 22.9C93.0801 25.16 93.5901 27.43 94.6101 29.38C95.6201 31.33 97.0601 32.87 98.9301 34C100.8 35.14 103.01 35.7 105.58 35.7C107.81 35.7 109.76 35.33 111.43 34.58C113.1 33.83 114.41 32.82 115.38 31.55C116.35 30.29 116.91 28.87 117.08 27.3L110.33 26.9C110.2 28 109.73 28.89 108.93 29.55ZM100.96 17.5C101.41 16.77 102.01 16.2 102.78 15.78C103.55 15.36 104.41 15.15 105.38 15.15C106.51 15.15 107.46 15.37 108.21 15.8C108.96 16.24 109.5 16.82 109.83 17.55C110.16 18.29 110.33 19.12 110.33 20.05H100.03C100.2 19.09 100.51 18.24 100.96 17.5Z" fill="black"/>
<path d="M120.11 10.8H126.96V15.55C127.46 13.92 128.34 12.6 129.61 11.6C130.88 10.6 132.39 10.1 134.16 10.1C134.69 10.1 135.24 10.16 135.78 10.27C136.33 10.39 136.86 10.58 137.36 10.85L136.81 17.4C136.14 17 135.52 16.73 134.93 16.57C134.34 16.41 133.71 16.35 133.01 16.35C132.01 16.35 131.05 16.58 130.13 17.05C129.21 17.52 128.45 18.29 127.85 19.38C127.25 20.46 126.95 21.91 126.95 23.71V35.01H120.1V10.81L120.11 10.8Z" fill="black"/>
<path d="M149.15 0.0999756H153.25V35H149.15V0.0999756Z" fill="black"/>
<path d="M162.97 34C161.22 32.9 159.89 31.39 158.97 29.48C158.05 27.56 157.59 25.42 157.59 23.05C157.59 20.68 158.06 18.54 159.01 16.63C159.96 14.71 161.33 13.21 163.11 12.13C164.89 11.05 166.9 10.51 169.13 10.51C171.63 10.51 173.74 11.1 175.46 12.29C177.18 13.47 178.38 15.05 179.08 17.01C179.78 18.98 179.9 21.09 179.43 23.36H159.73L161.68 21.66C161.41 24.16 161.63 26.22 162.33 27.83C163.03 29.45 163.98 30.61 165.18 31.3C166.38 32 167.7 32.35 169.13 32.35C171.06 32.35 172.57 31.89 173.66 30.97C174.74 30.05 175.38 28.83 175.58 27.29L179.58 27.59C179.41 29.12 178.87 30.51 177.96 31.74C177.04 32.97 175.84 33.93 174.34 34.62C172.84 35.31 171.11 35.65 169.14 35.65C166.77 35.65 164.72 35.1 162.97 34ZM175.02 17.1C174.6 16.07 173.89 15.24 172.87 14.62C171.85 14 170.59 13.7 169.09 13.7C167.79 13.7 166.62 13.99 165.56 14.58C164.51 15.16 163.66 15.97 163.01 17C162.36 18.03 161.95 19.22 161.79 20.55H175.54C175.61 19.28 175.43 18.13 175.01 17.1H175.02Z" fill="black"/>
<path d="M199.37 32.5C199.25 31.4 199.2 30.42 199.2 29.55V17.75C199.2 16.55 198.69 15.58 197.67 14.85C196.65 14.12 195.28 13.75 193.55 13.75C191.58 13.75 190.02 14.25 188.85 15.25C187.68 16.25 187.08 17.58 187.05 19.25L182.95 18.85C183.15 17.22 183.72 15.77 184.67 14.5C185.62 13.23 186.86 12.25 188.39 11.55C189.92 10.85 191.64 10.5 193.54 10.5C195.44 10.5 197.16 10.83 198.62 11.48C200.07 12.13 201.21 13.06 202.04 14.28C202.87 15.5 203.29 16.92 203.29 18.55V29.1C203.29 30.07 203.37 31.17 203.51 32.4C203.66 33.63 203.92 34.5 204.29 35H199.84C199.64 34.43 199.48 33.6 199.37 32.5ZM186.62 34.83C185.44 34.28 184.53 33.51 183.89 32.53C183.25 31.55 182.94 30.36 182.94 28.95C182.94 27.18 183.42 25.79 184.39 24.78C185.36 23.77 186.52 23.02 187.89 22.55C189.26 22.08 190.99 21.63 193.09 21.2C194.49 20.87 195.6 20.58 196.42 20.35C197.24 20.12 197.9 19.79 198.42 19.37C198.94 18.95 199.2 18.41 199.2 17.75L199.7 20.95C199.43 21.62 198.86 22.13 197.97 22.5C197.09 22.87 195.81 23.25 194.14 23.65C192.61 23.98 191.38 24.32 190.47 24.65C189.56 24.98 188.76 25.48 188.09 26.15C187.42 26.82 187.09 27.67 187.09 28.7C187.09 29.9 187.48 30.82 188.26 31.45C189.04 32.08 190.14 32.4 191.54 32.4C193.11 32.4 194.47 32.02 195.64 31.25C196.81 30.48 197.69 29.53 198.29 28.37C198.89 27.22 199.19 26.1 199.19 24.99L199.59 27.99C199.49 29.52 199.05 30.86 198.26 31.99C197.48 33.12 196.43 34.02 195.11 34.66C193.79 35.31 192.33 35.64 190.73 35.64C189.13 35.64 187.79 35.36 186.61 34.81L186.62 34.83Z" fill="black"/>
<path d="M208.8 11.1H212.9V15.95C213.5 14.28 214.48 12.96 215.82 11.98C217.16 11 218.63 10.5 220.2 10.5C220.77 10.5 221.31 10.56 221.82 10.67C222.34 10.79 222.83 10.98 223.29 11.25L222.94 15.15C222.41 14.82 221.87 14.57 221.34 14.42C220.81 14.27 220.24 14.2 219.64 14.2C218.67 14.2 217.69 14.43 216.69 14.9C215.69 15.37 214.81 16.24 214.04 17.52C213.27 18.8 212.89 20.61 212.89 22.94V34.99H208.79V11.09L208.8 11.1Z" fill="black"/>
<path d="M242.45 15.73C241.42 14.55 239.98 13.95 238.15 13.95C236.68 13.95 235.38 14.3 234.23 15C233.08 15.7 232.17 16.75 231.51 18.15C230.84 19.55 230.51 21.2 230.51 23.1V35H226.41V11.1H230.51V16C231.21 14.37 232.32 13.04 233.84 12.03C235.36 11.01 237.13 10.5 239.16 10.5C240.96 10.5 242.54 10.88 243.91 11.65C245.28 12.42 246.32 13.54 247.03 15.03C247.74 16.52 248.11 18.32 248.11 20.45V35H244.01V20.9C244.01 18.63 243.49 16.91 242.46 15.73H242.45Z" fill="black"/>
<path d="M253.45 1.94995H257.85V6.49995H253.45V1.94995ZM253.6 11.1H257.7V35H253.6V11.1Z" fill="black"/>
<path d="M279.45 15.73C278.42 14.55 276.98 13.95 275.15 13.95C273.68 13.95 272.38 14.3 271.23 15C270.08 15.7 269.17 16.75 268.51 18.15C267.84 19.55 267.51 21.2 267.51 23.1V35H263.41V11.1H267.51V16C268.21 14.37 269.32 13.04 270.84 12.03C272.36 11.01 274.13 10.5 276.16 10.5C277.96 10.5 279.54 10.88 280.91 11.65C282.28 12.42 283.32 13.54 284.03 15.03C284.74 16.52 285.11 18.32 285.11 20.45V35H281.01V20.9C281.01 18.63 280.49 16.91 279.46 15.73H279.45Z" fill="black"/>
<path d="M291.5 42.78C289.67 41.56 288.75 39.92 288.75 37.86C288.75 36.36 289.21 35.12 290.13 34.13C291.05 33.15 292.25 32.41 293.75 31.91L295.15 33.06C294.25 33.53 293.57 34.05 293.1 34.64C292.63 35.23 292.37 35.93 292.3 36.76V37.31C292.3 38.18 292.58 38.93 293.13 39.59C293.68 40.25 294.5 40.73 295.58 41.06C296.66 41.39 297.99 41.56 299.55 41.56C301.11 41.56 302.51 41.39 303.63 41.04C304.75 40.69 305.59 40.17 306.16 39.49C306.73 38.81 307.01 38 307.01 37.06C307.01 36.06 306.65 35.26 305.93 34.66C305.21 34.06 304.19 33.78 302.85 33.81C301.78 33.81 300.73 33.89 299.7 34.06C299.27 34.13 298.82 34.18 298.35 34.21C297.88 34.24 297.38 34.26 296.85 34.26C294.85 34.26 293.26 33.78 292.08 32.81C290.9 31.84 290.3 30.64 290.3 29.21C290.3 28.44 290.46 27.77 290.78 27.18C291.1 26.6 291.5 26.06 292 25.58C292.5 25.1 293.12 24.66 293.85 24.25L295.5 25.95C295.27 26.12 295.02 26.35 294.75 26.65C294.55 26.95 294.39 27.26 294.28 27.57C294.16 27.89 294.1 28.23 294.1 28.6C294.1 29.3 294.36 29.87 294.88 30.32C295.4 30.77 296.12 30.99 297.05 30.99C297.88 30.99 298.95 30.91 300.25 30.74C300.75 30.67 301.29 30.61 301.87 30.54C302.45 30.47 303.04 30.44 303.65 30.44C305.12 30.41 306.4 30.65 307.5 31.16C308.6 31.68 309.45 32.42 310.05 33.39C310.65 34.36 310.95 35.49 310.95 36.79C310.95 38.42 310.48 39.82 309.55 40.97C308.62 42.12 307.3 43.01 305.6 43.64C303.9 44.27 301.87 44.59 299.5 44.59C296 44.59 293.33 43.98 291.5 42.76V42.78ZM294.32 26.25C292.84 25.55 291.68 24.56 290.84 23.28C290 22 289.59 20.54 289.59 18.9C289.59 17.26 290.01 15.82 290.84 14.55C291.67 13.28 292.83 12.29 294.32 11.58C295.8 10.86 297.48 10.5 299.34 10.5C301.2 10.5 302.82 10.86 304.27 11.58C305.72 12.3 306.86 13.29 307.69 14.55C308.52 15.82 308.94 17.27 308.94 18.9C308.94 20.53 308.52 21.95 307.69 23.25C306.86 24.55 305.71 25.55 304.27 26.25C302.82 26.95 301.18 27.3 299.34 27.3C297.5 27.3 295.8 26.95 294.32 26.25ZM302.25 23.6C303.08 23.13 303.74 22.48 304.22 21.65C304.7 20.82 304.95 19.88 304.95 18.85C304.95 17.25 304.43 15.94 303.4 14.92C302.37 13.9 301.02 13.4 299.35 13.4C298.22 13.4 297.21 13.64 296.33 14.12C295.45 14.6 294.76 15.24 294.28 16.04C293.8 16.84 293.55 17.77 293.55 18.84C293.55 20.41 294.09 21.71 295.17 22.74C296.25 23.77 297.65 24.29 299.34 24.29C300.44 24.29 301.41 24.06 302.24 23.59L302.25 23.6ZM307.45 10.8C308.45 10.13 309.52 9.64998 310.65 9.34998L312.1 12.35C311.03 12.62 310 13.01 309 13.52C308 14.03 307.07 14.73 306.2 15.6L304.3 13.3C305.4 12.3 306.45 11.47 307.45 10.8Z" fill="black"/>
<path d="M75.95 10.82H92.5V16.02H75.95V10.82ZM83.3 34.69C81.97 34.01 80.95 33.03 80.25 31.77C79.55 30.5 79.2 29.02 79.2 27.32V3.52002H86.05V26.37C86.05 27.64 86.31 28.58 86.82 29.19C87.34 29.81 88.06 30.12 89 30.12C89.57 30.12 90.13 30 90.7 29.74C91.27 29.49 91.77 29.13 92.2 28.66L93.15 34.16C92.58 34.63 91.82 35 90.85 35.28C89.88 35.56 88.93 35.71 88 35.71C86.2 35.71 84.63 35.37 83.3 34.68V34.69Z" fill="black"/>
<path d="M78.1399 34.17C77.5699 34.63 76.7999 35.01 75.8399 35.29C74.8699 35.58 73.9199 35.72 72.9899 35.72C71.1899 35.72 69.6199 35.38 68.2899 34.69C67.9799 34.51 67.6099 34.3 67.6099 34.3C67.2099 34.05 66.8499 33.76 66.5199 33.45C66.2699 33.21 66.0399 32.94 65.8199 32.66C65.6099 32.38 65.4199 32.09 65.2399 31.77C65.1799 31.66 65.1199 31.55 65.0699 31.44C65.0299 31.36 64.9899 31.28 64.9499 31.19C64.9299 31.14 64.9099 31.09 64.8899 31.04C64.8599 30.99 64.8399 30.94 64.8199 30.88C64.7799 30.77 64.7399 30.66 64.6999 30.55C64.6699 30.46 64.6399 30.37 64.6099 30.27C64.5999 30.27 64.5999 30.27 64.5999 30.25C64.5799 30.17 64.5499 30.09 64.5299 30.01C64.4899 29.88 64.4599 29.75 64.4299 29.61C64.4199 29.56 64.4099 29.5 64.3999 29.45C64.3799 29.37 64.3699 29.3 64.3499 29.22C64.3499 29.19 64.3399 29.16 64.3399 29.13C64.3199 29.02 64.2999 28.91 64.2899 28.79C64.2499 28.56 64.2299 28.33 64.2199 28.09C64.2099 28.04 64.2099 28 64.2099 27.95C64.2099 27.74 64.1899 27.53 64.1899 27.32V0.150024H71.0299V26.37C71.0399 27.65 71.2899 28.58 71.8099 29.19C72.3299 29.81 73.0499 30.12 73.9899 30.12C74.5499 30.12 75.1199 29.99 75.6899 29.74C76.2499 29.49 76.7499 29.13 77.1899 28.67L78.1399 34.17Z" fill="black"/>
<path d="M62.3201 29.36C62.1401 29.48 61.9601 29.58 61.7701 29.66C61.2101 29.91 60.6401 30.04 60.0701 30.04C59.8901 30.04 59.6901 30.01 59.5001 29.94C58.3401 29.58 57.6201 28.43 57.6201 27.22V19.62C57.6201 17.62 57.1601 15.92 56.2801 14.52C55.4001 13.12 54.1501 12.04 52.5301 11.27C50.9101 10.51 49.0101 10.12 46.8101 10.12C44.8701 10.12 43.0701 10.5 41.4101 11.25C39.7401 12 38.3701 13.02 37.3101 14.32C36.2401 15.62 35.6201 17.07 35.4601 18.67L42.1601 19.37C42.1601 18.14 42.5801 17.15 43.4301 16.4C44.2801 15.65 45.4101 15.27 46.8101 15.27C48.0101 15.27 48.9701 15.52 49.6801 16.02C50.4001 16.52 50.7601 17.21 50.7601 18.07C50.7601 18.6 50.4901 19.11 50.0601 19.42C49.5901 19.76 48.9901 20.04 48.2601 20.27C47.5201 20.51 46.5701 20.76 45.4101 21.02C43.3701 21.39 41.6701 21.81 40.3101 22.27C38.9401 22.74 37.7701 23.5 36.7801 24.55C35.8001 25.6 35.3101 27.04 35.3101 28.87C35.3101 30.24 35.6501 31.45 36.3301 32.5C37.0201 33.55 37.9501 34.35 39.1301 34.9C40.3201 35.45 41.6601 35.72 43.1601 35.72C44.8201 35.72 46.2701 35.4 47.5101 34.77C48.7401 34.14 49.6801 33.26 50.3301 32.15C50.6401 31.62 50.8801 31.04 51.0501 30.41C51.1901 29.89 51.2801 29.35 51.3301 28.76C51.3301 30.02 51.6501 32.98 54.3801 34.6C54.4101 34.62 54.4401 34.64 54.4801 34.66C54.4901 34.66 54.5001 34.66 54.5101 34.68C55.8201 35.31 57.3301 35.64 59.0701 35.64H59.1501C60.0601 35.63 60.9901 35.48 61.9201 35.21C62.4101 35.07 62.8501 34.9 63.2401 34.71L62.3201 29.36ZM50.7601 24.72C50.7601 25.72 50.5301 26.68 50.0801 27.6C49.6301 28.51 48.9801 29.26 48.1301 29.82C47.2801 30.39 46.3201 30.67 45.2601 30.67C44.3601 30.67 43.6601 30.47 43.1601 30.07C42.6601 29.67 42.4101 29.09 42.4101 28.32C42.4101 27.59 42.6301 26.99 43.0801 26.52C43.5301 26.06 44.0701 25.7 44.7101 25.45C45.3401 25.2 46.1601 24.91 47.1601 24.57C48.3201 24.31 49.2701 24.02 49.9801 23.72C50.2701 23.6 50.5301 23.46 50.7601 23.3V24.72Z" fill="black"/>
</g>
<defs>
<clipPath id="clip0_15_122">
<rect width="312" height="45" fill="white"/>
</clipPath>
</defs>
</svg>
