<?xml version="1.0" encoding="UTF-8"?>
<svg xmlns="http://www.w3.org/2000/svg" viewBox="0 0 300 97.7">
  <path d="m76.4 46.5v-22.8h-36.1v19.2h-10.6v12.8h14.8v14.7h18.4v-23.9z" fill="#ee4136"></path>
  <path d="m88.8 46.5h-12.4v23.9h-13.5v10.7h34.6v-27.3h-8.7z" fill="#ffc700"></path>
  <path d="m62.9 46.5h13.6v23.9h-13.6z" fill="#ff7923"></path>
  <path d="m106 36.6h-17.2v9.9h8.7v7.3h8.5z" fill="#39c4ba"></path>
  <path d="m40.3 23.7v-15.4h-34.6v34.6h24v-19.2z" fill="#00588a"></path>
  <path d="m29.7 23.7h10.7v19.3h-10.7z" fill="#012e47"></path>
  <path d="m88.8 46.5h8.7v7.3h-8.7z" fill="#71e88e"></path>
  <path d="m29.7 55.7h-14.8v29.5h29.6v-14.8-14.7z" fill="#ff3d81"></path>
  <g fill="#fff">
    <path d="m120.1 41.5c.7.9 1.5 1.7 2.5 2.2 1.3.7 2.8 1.1 4.5 1.1 1.9 0 3.7-.5 5.2-1.4s2.7-2.2 3.6-3.8 1.3-3.4 1.3-5.4-.4-3.9-1.3-5.4c-.9-1.6-2.1-2.9-3.6-3.8s-3.2-1.4-5.1-1.4c-1.7 0-3.2.4-4.5 1.1-1.1.6-1.9 1.3-2.6 2.3v-3h-3.5v27.9h3.5zm.9-11c.6-1.1 1.4-1.9 2.4-2.6 1-.6 2.2-.9 3.4-.9 1.3 0 2.4.3 3.4.9s1.8 1.5 2.4 2.6.9 2.3.9 3.7-.3 2.6-.9 3.7-1.4 2-2.4 2.6-2.1.9-3.4.9-2.4-.3-3.4-.9-1.8-1.5-2.4-2.6-.9-2.3-.9-3.7.3-2.7.9-3.7z"></path>
    <path d="m156.7 43.4c1.6-.9 2.8-2.2 3.8-3.8s1.4-3.4 1.4-5.5-.5-3.9-1.4-5.5-2.2-2.8-3.8-3.8c-1.6-.9-3.4-1.4-5.4-1.4s-3.7.5-5.3 1.4-2.8 2.2-3.8 3.8c-.9 1.6-1.4 3.4-1.4 5.4s.5 3.9 1.4 5.5 2.2 2.9 3.8 3.8 3.3 1.4 5.3 1.4c2.1 0 3.8-.4 5.4-1.3zm-11.1-5.6c-.6-1.1-.9-2.3-.9-3.7s.3-2.6.9-3.7 1.4-1.9 2.4-2.6c1-.6 2.2-.9 3.4-.9 1.3 0 2.4.3 3.4.9s1.8 1.5 2.4 2.6.9 2.3.9 3.7-.3 2.6-.9 3.7-1.4 2-2.4 2.6-2.2.9-3.4.9c-1.3 0-2.4-.3-3.4-.9s-1.8-1.5-2.4-2.6z"></path>
    <path d="m186.3 44.3v-28.5h-3.5v10.9c-.7-.8-1.5-1.5-2.5-2.1-1.3-.7-2.8-1.1-4.5-1.1-1.9 0-3.7.5-5.2 1.4s-2.7 2.2-3.6 3.8-1.3 3.4-1.3 5.4.4 3.8 1.3 5.4 2.1 2.9 3.6 3.8 3.3 1.4 5.2 1.4c1.7 0 3.2-.4 4.5-1.1 1.1-.6 2-1.4 2.6-2.4v3h3.4zm-4.5-6.5c-.6 1.1-1.4 2-2.4 2.6s-2.2.9-3.4.9c-1.3 0-2.4-.3-3.4-.9s-1.8-1.5-2.4-2.6-.9-2.3-.9-3.7.3-2.6.9-3.7 1.4-1.9 2.4-2.6c1-.6 2.2-.9 3.4-.9s2.4.3 3.4.9 1.8 1.5 2.4 2.6.9 2.3.9 3.7-.3 2.6-.9 3.7z"></path>
    <path d="m142.3 61.3c-1.1-.7-2.4-1-3.8-1-1.5 0-2.9.4-4.2 1.2-.9.6-1.7 1.4-2.2 2.4-.5-.9-1.2-1.7-2.1-2.3-1.3-.9-2.7-1.3-4.3-1.3-1.4 0-2.6.3-3.7 1-.8.5-1.4 1.2-1.9 2v-2.5h-3.5v20.3h3.5v-12.1c0-1.1.2-2.1.6-2.8.4-.8 1-1.4 1.7-1.8s1.5-.6 2.4-.6 1.7.2 2.4.6 1.2 1 1.6 1.8.6 1.7.6 2.9v12h3.5v-12.1c0-1.1.2-2.1.6-2.8.4-.8 1-1.4 1.7-1.8s1.5-.6 2.4-.6 1.7.2 2.4.6 1.3 1 1.7 1.8.6 1.7.6 2.9v12h3.5v-13.2c0-1.5-.3-2.8-1-3.9-.5-1.2-1.4-2.1-2.5-2.7z"></path>
    <path d="m163.5 61.2c-1.2-.6-2.6-.9-4.1-.9-1.2 0-2.4.2-3.5.6s-2.1 1-2.9 1.7-1.4 1.5-1.8 2.5l3.1 1.6c.4-.9 1.1-1.7 2-2.3s1.9-.9 3.1-.9c1.3 0 2.4.3 3.2 1s1.2 1.6 1.2 2.6v.9l-6.9 1.1c-1.5.2-2.8.7-3.8 1.3s-1.7 1.3-2.2 2.2c-.5.8-.7 1.8-.7 2.9s.3 2.1.9 2.9 1.4 1.5 2.4 2 2.2.7 3.5.7c1.2 0 2.2-.2 3.2-.5s1.8-.8 2.6-1.4c.4-.3.8-.7 1.1-1.1v3h3.4v-14c0-1.3-.3-2.5-1-3.5s-1.6-1.9-2.8-2.4zm-.6 14c-.5.9-1.3 1.6-2.2 2.2-.9.5-2.1.8-3.3.8-1 0-1.8-.3-2.5-.8s-1-1.2-1-2c0-.9.3-1.6.9-2.2s1.5-1 2.8-1.2l6.1-1v1.3c-0 1-.2 2-.8 2.9z"></path>
    <path d="m177.9 61.4c-.8.4-1.4 1-1.8 1.8v-2.4h-3.5v20.3h3.5v-12.1c0-1.6.4-2.9 1.3-3.8s2-1.3 3.5-1.3h1.8v-3.4h-1.2c-1.4-0-2.6.3-3.6.9z"></path>
    <path d="m203.2 60.8h-4.5l-9.3 9.5v-17.8h-3.6v28.6h3.6v-6.1l3.5-3.7 6.7 9.8h4.2l-8.4-12.2z"></path>
    <path d="m222.4 63.2c-.8-.9-1.8-1.6-2.9-2.1s-2.5-.8-3.9-.8c-1.8 0-3.5.4-4.9 1.3-1.5.9-2.6 2.1-3.5 3.7s-1.3 3.3-1.3 5.3.4 3.7 1.3 5.3 2 2.8 3.6 3.7c1.5.9 3.2 1.4 5.1 1.4 1.4 0 2.6-.2 3.7-.7 1.1-.4 2.1-1 2.9-1.8s1.4-1.6 1.8-2.5l-2.9-1.5c-.6 1-1.3 1.7-2.2 2.4-.9.6-2 .9-3.4.9-1.2 0-2.3-.3-3.3-.9s-1.8-1.5-2.4-2.5c-.4-.8-.6-1.7-.7-2.7h15.2c0-.3.1-.6.1-1 0-.3.1-.6.1-.9 0-1.2-.2-2.4-.6-3.6-.4-1-1-2.1-1.8-3zm-10 1.1c1-.6 2-.9 3.2-.9s2.2.3 3.1.9 1.6 1.4 2.1 2.4c.3.6.5 1.3.5 2.1h-11.6c.1-.7.3-1.4.6-2 .4-1.1 1.2-1.9 2.1-2.5z"></path>
    <path d="m238.1 78.1c-.8 0-1.5-.1-2-.4s-.9-.7-1.1-1.2-.3-1.1-.3-1.8v-10.6h4.6v-3.4h-4.6v-4.7h-3.5v1.7c0 .9-.3 1.6-.8 2.2s-1.2.8-2.1.8h-.8v3.4h3.7v10.7c0 2.1.5 3.7 1.6 4.8s2.6 1.7 4.6 1.7c.3 0 .6 0 1-.1.4 0 .8-.1 1.1-.2v-3c-.2 0-.5.1-.7.1-.3 0-.5 0-.7 0z"></path>
    <path d="m244 60.8h3.5v20.3h-3.5z"></path>
    <path d="m244 53h3.5v4.5h-3.5z"></path>
    <path d="m266.1 61.3c-1.1-.7-2.4-1-3.9-1s-2.8.4-3.9 1.1c-.8.5-1.4 1.1-1.9 1.9v-2.5h-3.5v20.3h3.5v-12.1c0-1.1.2-2.1.6-2.8.4-.8 1-1.4 1.8-1.8.7-.4 1.6-.6 2.5-.6 1 0 1.8.2 2.5.6s1.3 1 1.7 1.8.6 1.7.6 2.9v12h3.5v-13.2c0-1.5-.3-2.8-1-3.9-.4-1.2-1.3-2.1-2.5-2.7z"></path>
    <path d="m290.8 60.8v2.9c-.7-.9-1.6-1.7-2.6-2.3-1.3-.7-2.7-1.1-4.3-1.1-1.9 0-3.6.4-5.1 1.3s-2.7 2.1-3.5 3.6c-.9 1.5-1.3 3.3-1.3 5.2s.4 3.6 1.3 5.1 2.1 2.8 3.6 3.7 3.2 1.3 5.1 1.3c1.6 0 3.1-.4 4.4-1.1 1-.5 1.8-1.3 2.4-2.2v2.9c0 1.2-.3 2.3-.8 3.1-.6.9-1.3 1.5-2.3 2-.9.4-2 .7-3.1.7-1.5 0-2.7-.3-3.7-1s-1.7-1.5-2-2.4l-3.3 1.5c.5 1.1 1.1 2 2 2.8s1.9 1.4 3.1 1.9 2.5.7 4 .7c1.9 0 3.6-.4 5-1.2 1.5-.8 2.6-1.9 3.4-3.3s1.2-3 1.2-4.7v-19.4zm-.9 13.1c-.6 1-1.4 1.8-2.3 2.4-1 .6-2.1.9-3.3.9-1.3 0-2.4-.3-3.4-.9s-1.8-1.4-2.3-2.4c-.6-1-.8-2.2-.8-3.4 0-1.3.3-2.4.8-3.4.6-1 1.4-1.8 2.4-2.4s2.1-.9 3.4-.9c1.2 0 2.3.3 3.3.9s1.7 1.4 2.3 2.4.9 2.1.9 3.4c-.2 1.2-.5 2.3-1 3.4z"></path>
  </g>
</svg>
