<svg width="240" height="80" viewBox="0 0 240 80" fill="none" xmlns="http://www.w3.org/2000/svg">
<path d="M208.411 32.2188H212.079V32.9066H210.647V36.7468H209.844V32.9066H208.411V32.2188ZM212.452 32.2188H213.57L214.802 35.7437L216.006 32.2188H217.095V36.7468H216.35V33.2505L215.089 36.7468H214.429L213.168 33.2505V36.7468H212.423V32.2188H212.452Z" fill="#0B1157"/>
<path d="M147.168 62.1951H148.257V59.1573H151.151V58.2976H148.257V56.1768H151.352V55.2884H147.168V62.1951ZM155.078 57.6098C154.734 57.4091 154.333 57.3232 153.874 57.3232C153.415 57.3232 153.014 57.4091 152.67 57.6098C152.326 57.8104 152.069 58.0969 151.868 58.4695C151.667 58.8421 151.581 59.2719 151.581 59.8165C151.581 60.3323 151.667 60.7908 151.868 61.1347C152.069 61.5073 152.326 61.7939 152.67 61.9945C153.014 62.1951 153.415 62.2811 153.874 62.2811C154.333 62.2811 154.734 62.1951 155.078 61.9945C155.422 61.7939 155.68 61.5073 155.851 61.1347C156.023 60.7622 156.109 60.3036 156.109 59.7878C156.109 59.2719 156.023 58.8421 155.851 58.4695C155.68 58.0969 155.422 57.8104 155.078 57.6098ZM154.734 61.0488C154.533 61.3354 154.218 61.4786 153.874 61.4786C153.501 61.4786 153.215 61.3354 153.014 61.0488C152.785 60.7622 152.699 60.361 152.699 59.7878C152.699 59.2433 152.814 58.8134 153.014 58.5555C153.244 58.2976 153.53 58.1543 153.874 58.1543C154.247 58.1543 154.533 58.2976 154.734 58.5555C154.934 58.8134 155.049 59.2433 155.049 59.7878C155.049 60.3323 154.963 60.7622 154.734 61.0488ZM159.262 57.2945C158.832 57.3232 158.488 57.4378 158.259 57.6384C158.058 57.7817 157.944 58.011 157.829 58.2689V57.3805H156.769V62.1664H157.858V59.5299C157.858 59.1287 157.972 58.8421 158.173 58.6128C158.373 58.4122 158.66 58.2689 159.033 58.2402L159.663 58.1829L159.577 57.2659L159.262 57.2945ZM166.455 57.4951C166.226 57.3518 165.968 57.2945 165.624 57.2945C165.251 57.2945 164.908 57.3805 164.621 57.5811C164.392 57.7531 164.22 57.9823 164.105 58.2402C164.019 57.9537 163.876 57.6957 163.675 57.5524C163.446 57.3805 163.131 57.2945 162.787 57.2945C162.529 57.2945 162.328 57.3232 162.128 57.4091C161.927 57.4951 161.755 57.6098 161.612 57.7817C161.497 57.8963 161.44 58.0396 161.383 58.1829V57.3805H160.322V62.1664H161.411V59.3866C161.411 59.1287 161.469 58.8994 161.554 58.6988C161.64 58.4982 161.755 58.3549 161.927 58.2689C162.07 58.1829 162.271 58.1256 162.472 58.1256C162.729 58.1256 162.93 58.2116 163.045 58.3835C163.159 58.5555 163.217 58.8134 163.217 59.2146V62.1664H164.306V59.3866C164.306 59.1287 164.334 58.8994 164.42 58.6988C164.506 58.4982 164.621 58.3549 164.793 58.2689C164.936 58.1829 165.137 58.1256 165.337 58.1256C165.595 58.1256 165.796 58.2116 165.939 58.3835C166.054 58.5555 166.111 58.8134 166.111 59.2146V62.1664H167.2V59.1573C167.2 58.7274 167.143 58.3835 167.028 58.097C166.856 57.839 166.684 57.6384 166.455 57.4951ZM171.786 58.3835C171.957 58.7274 172.043 59.1573 172.043 59.6732V60.0457H168.776C168.805 60.3036 168.834 60.5616 168.92 60.7335C169.034 60.9628 169.206 61.1634 169.407 61.278C169.608 61.3927 169.894 61.45 170.209 61.45C170.467 61.45 170.725 61.4213 170.954 61.3354C171.212 61.2494 171.442 61.1347 171.642 60.9341L171.986 61.6793C171.757 61.8799 171.499 62.0232 171.184 62.1378C170.868 62.2524 170.553 62.3097 170.209 62.3097C169.693 62.3097 169.264 62.2238 168.92 62.0232C168.547 61.8225 168.289 61.536 168.089 61.1634C167.888 60.7908 167.802 60.361 167.802 59.8451C167.802 59.3293 167.888 58.8994 168.089 58.5268C168.289 58.1543 168.547 57.8677 168.891 57.6671C169.235 57.4665 169.608 57.3518 170.066 57.3518C170.496 57.3518 170.84 57.4378 171.155 57.6384C171.384 57.7817 171.614 58.0396 171.786 58.3835ZM168.776 59.3866H171.098C171.069 58.9854 171.012 58.6415 170.84 58.4409C170.668 58.1829 170.381 58.0683 170.009 58.0683C169.751 58.0683 169.522 58.1256 169.321 58.2689C169.149 58.4122 168.977 58.5841 168.891 58.8421C168.834 58.9854 168.805 59.186 168.776 59.3866ZM175.282 57.2945C174.852 57.3232 174.508 57.4378 174.279 57.6384C174.078 57.7817 173.964 58.011 173.849 58.2689V57.3805H172.789V62.1664H173.878V59.5299C173.878 59.1287 173.992 58.8421 174.193 58.6128C174.393 58.4122 174.68 58.2689 175.053 58.2402L175.683 58.1829L175.597 57.2659L175.282 57.2945ZM178.09 61.3927C177.947 61.3927 177.804 61.364 177.689 61.3067C177.575 61.2494 177.489 61.1347 177.46 60.9915C177.403 60.8482 177.374 60.6762 177.374 60.5043V55.2884H176.285V60.5616C176.285 61.1347 176.4 61.5646 176.657 61.8512C176.915 62.1378 177.288 62.2811 177.804 62.2811C177.918 62.2811 178.033 62.2811 178.119 62.2524C178.234 62.2238 178.348 62.2238 178.434 62.1951V61.3354C178.377 61.3354 178.32 61.364 178.262 61.364C178.234 61.3927 178.176 61.3927 178.09 61.3927ZM180.584 60.9055L179.265 57.4091H178.119L180.011 62.0518L179.208 63.9719H180.326L183.02 57.4378H181.931L180.584 60.9055ZM186.401 60.3323C186.401 60.5329 186.373 60.7049 186.315 60.8482C186.258 60.9915 186.172 61.1061 186.029 61.1921C185.914 61.278 185.742 61.3067 185.542 61.3354L184.911 61.364L184.997 62.2811L185.742 62.2524C186.115 62.2238 186.459 62.1378 186.717 61.9658C186.975 61.8225 187.175 61.5933 187.318 61.3354C187.462 61.0774 187.519 60.7335 187.519 60.3323V55.2884H186.401V60.3323ZM193.967 56.836C194.225 57.3518 194.368 57.9823 194.368 58.7274C194.368 59.4726 194.225 60.103 193.967 60.6189C193.709 61.1347 193.308 61.536 192.821 61.7939C192.334 62.0518 191.703 62.1951 190.987 62.1951H188.608V55.2884H190.987C191.703 55.2884 192.305 55.4317 192.821 55.6896C193.337 55.9476 193.709 56.3201 193.967 56.836ZM193.193 58.7274C193.193 57.8677 192.993 57.2372 192.62 56.8073C192.248 56.4061 191.675 56.1768 190.901 56.1768H189.668V61.2494H190.901C191.675 61.2494 192.248 61.0488 192.62 60.6189C193.021 60.2177 193.193 59.5872 193.193 58.7274ZM199.527 60.0171L200.616 62.1951H199.412L198.295 59.9884C198.209 59.8451 198.123 59.7018 198.037 59.6158C197.951 59.5299 197.836 59.4439 197.721 59.4152C197.607 59.3866 197.464 59.3579 197.292 59.3579H196.374V62.1664H195.285V55.2598H198.037C198.753 55.2598 199.298 55.4317 199.699 55.8043C200.1 56.1768 200.272 56.664 200.272 57.2945C200.272 57.7244 200.186 58.097 200.014 58.3835C199.842 58.6988 199.584 58.928 199.269 59.0713C199.126 59.1287 198.982 59.186 198.81 59.2146C198.925 59.2433 199.011 59.3006 199.097 59.3579C199.212 59.5299 199.384 59.7591 199.527 60.0171ZM197.807 58.5555C198.237 58.5555 198.581 58.4409 198.81 58.2402C199.04 58.0396 199.154 57.7244 199.154 57.3232C199.154 56.9506 199.04 56.6354 198.81 56.4348C198.581 56.2342 198.237 56.1482 197.807 56.1482H196.346V58.5555H197.807ZM205.545 56.1768V55.2884H201.361V62.1951H202.45V59.1573H205.345V58.2976H202.45V56.1768H205.545Z" fill="#0B1157"/>
<path d="M43.8262 32.1914H48.039C52.1658 32.1914 53.6847 33.481 53.6847 35.7737C53.6847 37.178 52.7103 38.2097 51.1914 38.6682C53.0255 38.9548 54.2005 39.9005 54.2005 41.8493C54.2005 44.4286 52.653 46.0621 48.7268 46.0621H43.8262V32.1914ZM48.8701 37.8085C50.0737 37.8085 50.8761 37.178 50.8761 35.9457C50.8761 34.6847 50.0451 34.2835 47.8957 34.2835H46.5201V37.8085H48.8701ZM48.5835 43.9414C50.5609 43.9414 51.392 43.2822 51.392 41.7633C51.392 40.4737 50.5609 39.9292 49.0133 39.9292H46.5487V43.97H48.5835V43.9414ZM56.3499 35.1719H58.7859L58.8145 37.2066C59.445 35.4871 60.4767 34.8566 61.3938 34.8566C62.2535 34.8566 62.798 35.3438 62.798 36.1749C62.798 37.006 62.2535 37.4072 61.5084 37.4072H60.8493C59.7316 37.4072 58.9865 38.1524 58.9865 40.531V46.0334H56.3499V35.1719ZM63.1993 40.617C63.1993 37.2353 65.3486 34.8853 68.3578 34.8853C71.5102 34.8853 73.459 37.3213 73.1437 41.1902H65.8932C66.0365 43.1962 66.8675 44.2853 68.6157 44.2853C69.5901 44.2853 70.2492 43.97 71.195 42.795L72.9718 43.9987C71.6248 45.7182 70.1919 46.3487 68.3578 46.3487C65.3486 46.3487 63.1993 43.9987 63.1993 40.617ZM70.5358 39.442C70.4499 37.7511 69.6188 36.8627 68.3578 36.8627C66.8962 36.8627 66.1511 37.6938 65.9505 39.442H70.5358ZM74.462 43.1103C74.462 41.0182 75.9236 39.8719 79.5919 39.2987C80.7955 39.0981 81.0535 38.8402 81.0535 38.267C81.0535 37.3213 80.3657 36.6335 79.248 36.6335C77.1846 36.6335 77.4425 38.7542 75.9236 38.7542C75.1785 38.7542 74.72 38.2956 74.72 37.5505C74.72 37.0633 75.0065 36.5761 75.4937 36.1749C76.3821 35.4298 77.6718 34.8853 79.248 34.8853C82.1425 34.8853 83.69 36.2896 83.69 39.8719V46.0621H81.3401L81.1968 44.4286C80.5376 45.7182 79.5632 46.3773 78.073 46.3773C75.8376 46.3487 74.462 45.1164 74.462 43.1103ZM78.5888 44.3139C80.3084 44.3139 81.0535 43.053 81.0535 41.4767V40.703C80.8242 40.8463 80.5376 40.9322 79.6779 41.1042C77.6718 41.4767 77.1559 42.0212 77.1559 42.9383C77.1273 43.7981 77.7004 44.3139 78.5888 44.3139ZM86.1547 32.1914H88.7912V39.2414L90.8833 36.9774C92.4309 35.3152 93.0614 34.9426 93.8924 34.9426C94.5802 34.9426 95.0101 35.3725 95.0101 36.0316C95.0101 36.6048 94.6949 36.8627 94.0931 37.1207C93.5772 37.3499 93.262 37.5505 92.3162 38.4676L91.0553 39.6999C91.829 39.8719 92.3162 40.3017 93.0614 41.4767L96.0132 46.0621H92.9181L90.7973 42.5658C90.3101 41.792 89.9662 41.4194 89.5077 41.2475L88.8199 41.9353V46.0621H86.1547V32.1914ZM96.9302 42.0786V32.1914H99.5668V35.2579C100.455 35.2005 101.172 35.0572 101.859 35.0572C102.547 35.0572 103.034 35.5158 103.034 36.2609C103.034 37.006 102.547 37.4646 101.859 37.4646C101.172 37.4646 100.455 37.3213 99.5668 37.2353V42.0212C99.5668 43.5688 100.054 44.0273 100.77 44.0273C101.258 44.0273 101.716 43.884 102.289 43.5975L103.12 45.5176C102.089 46.0621 101.229 46.3487 100.341 46.3487C98.0766 46.3487 96.9302 44.9444 96.9302 42.0786ZM107.419 46.0621H104.783V32.1914H107.419V36.8914C108.136 35.6018 109.311 34.8853 110.715 34.8853C113.266 34.8853 114.67 36.4615 114.67 39.6139V46.0621H112.033V39.9865C112.033 38.0664 111.489 37.1207 110.113 37.1207C108.652 37.1207 107.448 38.5249 107.448 41.6773V46.0621H107.419ZM116.791 35.1719H119.226L119.255 37.2066C119.886 35.4871 120.917 34.8566 121.834 34.8566C122.694 34.8566 123.239 35.3438 123.239 36.1749C123.239 37.006 122.694 37.4072 121.949 37.4072H121.29C120.172 37.4072 119.427 38.1524 119.427 40.531V46.0334H116.791V35.1719ZM123.267 40.617C123.267 37.2066 125.503 34.8853 128.712 34.8853C131.951 34.8853 134.158 37.2353 134.158 40.617C134.158 43.9987 131.922 46.3487 128.712 46.3487C125.503 46.3487 123.267 44.0273 123.267 40.617ZM128.741 44.2279C130.518 44.2279 131.492 42.795 131.492 40.617C131.492 38.4389 130.518 37.006 128.741 37.006C126.964 37.006 125.99 38.4389 125.99 40.617C125.99 42.795 126.964 44.2279 128.741 44.2279ZM135.676 41.6487V35.2005H138.313V41.2761C138.313 43.1962 138.858 44.142 140.176 44.142C141.637 44.142 142.784 42.7377 142.784 39.5853V35.2292H145.42V46.0907H142.812V44.3426C142.153 45.6322 140.978 46.406 139.545 46.406C137.081 46.3487 135.676 44.7725 135.676 41.6487ZM146.71 47.7529C146.71 46.8072 147.369 46.1194 148.515 45.7755C147.684 45.3456 147.197 44.6865 147.197 43.8554C147.197 42.9097 147.77 42.2219 149.06 41.6773C148.114 41.0182 147.57 39.9578 147.57 38.6969C147.57 36.4329 149.289 34.8566 152.098 34.8566C153.187 34.8566 154.104 35.0859 154.82 35.5158C155.537 34.4554 156.54 33.8536 157.314 33.8536C158.087 33.8536 158.603 34.4268 158.603 35.1146C158.603 35.917 158.087 36.3469 157.142 36.3469H155.795C156.311 36.9774 156.597 37.7798 156.597 38.6969C156.597 40.9609 154.878 42.5658 152.126 42.5658C151.639 42.5658 151.181 42.5084 150.751 42.4225C149.92 42.6804 149.662 42.9383 149.662 43.3395C149.662 43.7981 150.034 44.0847 151.009 44.0847H153.674C156.282 44.0847 157.686 45.145 157.686 47.0078C157.686 49.3578 155.651 50.7048 152.04 50.7048C148.515 50.6761 146.71 49.673 146.71 47.7529ZM152.155 48.8706C153.875 48.8706 154.992 48.3834 154.992 47.3517C154.992 46.6926 154.534 46.32 153.215 46.32H151.295C149.662 46.32 149.089 46.7212 149.089 47.4377C149.089 48.3261 150.092 48.8706 152.155 48.8706ZM152.098 40.703C153.301 40.703 154.075 39.9292 154.075 38.6969C154.075 37.4932 153.301 36.6908 152.098 36.6908C150.894 36.6908 150.12 37.4646 150.12 38.6969C150.149 39.9292 150.923 40.703 152.098 40.703ZM162.3 46.0621H159.664V32.1914H162.3V36.8914C163.017 35.6018 164.192 34.8853 165.596 34.8853C168.146 34.8853 169.551 36.4615 169.551 39.6139V46.0621H166.914V39.9865C166.914 38.0664 166.37 37.1207 164.994 37.1207C163.532 37.1207 162.329 38.5249 162.329 41.6773V46.0621H162.3ZM178.378 34.4554H174.537V32.1914H184.081C184.768 32.1914 185.227 32.6499 185.227 33.3377C185.227 33.9969 184.768 34.4554 184.081 34.4554H181.071V46.0334H178.378V34.4554ZM189.067 35.6018C188.437 36.7768 187.462 37.6079 186.545 37.6079C185.857 37.6079 185.37 37.1207 185.37 36.4329C185.37 35.7737 185.771 35.3438 186.602 35.0859C187.978 34.656 188.437 34.2262 189.554 32.1914H191.761V46.0621H189.067V35.6018ZM194.971 32.1914H199.27C203.31 32.1914 206.434 34.0255 206.434 39.1267C206.434 44.2279 203.282 46.0621 199.27 46.0621H194.971V32.1914ZM199.355 43.7981C201.849 43.7981 203.626 42.5084 203.626 39.1267C203.626 35.745 201.849 34.4268 199.355 34.4268H197.693V43.7981H199.355Z" fill="#0B1157"/>
<path d="M38.4381 11.098L41.9344 20.4979C42.221 21.3004 41.8198 22.1888 41.0174 22.4754C40.129 22.8193 39.0973 22.2174 38.954 21.2717L37.2631 11.3846C37.1485 10.6681 38.1515 10.4102 38.4381 11.098ZM36.9765 22.1028L26.1437 5.223C25.6851 4.59251 24.768 5.13702 25.0833 5.82482L34.2826 23.6504C35.4576 25.5418 38.0369 23.851 36.9765 22.1028ZM22.0455 15.626C21.4723 15.1388 20.6986 15.9126 21.1857 16.4858L30.4711 27.0894C31.0729 27.7772 32.1906 27.7772 32.7924 27.0894C33.3656 26.4589 33.2796 25.4845 32.6491 24.9113L22.0455 15.626ZM11.5852 19.6955C10.8687 19.3516 10.3529 20.326 10.9833 20.7559L27.6339 31.4455C28.379 31.9327 29.4394 31.6461 29.8406 30.8436C30.2418 30.0985 29.9266 29.1528 29.1814 28.7516L11.5852 19.6955ZM9.92298 29.8119C9.1492 29.6686 8.89128 30.729 9.60774 30.9869L26.029 36.3461C26.8888 36.6326 27.8345 36.0881 28.0065 35.1997C28.1784 34.3686 27.6625 33.5375 26.8028 33.3656L9.92298 29.8119ZM44.9436 0.580333L43.9979 20.2114C43.9979 22.3607 47.093 22.3607 47.093 20.2114L46.1472 0.580333C46.0899 -0.193444 45.0009 -0.193444 44.9436 0.580333ZM38.4381 68.902L41.9344 59.5021C42.221 58.6996 41.8198 57.8112 41.0174 57.5246C40.129 57.1807 39.0973 57.7826 38.954 58.7283L37.2631 68.6154C37.1485 69.3319 38.1515 69.5898 38.4381 68.902ZM34.3113 56.3496L25.1119 74.1752C24.768 74.863 25.7138 75.4075 26.1723 74.777L37.0052 57.8972C38.0369 56.149 35.4576 54.4582 34.3113 56.3496ZM22.0455 64.374L32.6491 55.0887C33.2796 54.5155 33.3656 53.5411 32.7924 52.9106C32.1906 52.2228 31.0729 52.2228 30.4711 52.9106L21.1857 63.5142C20.6986 64.0874 21.4437 64.8612 22.0455 64.374ZM11.5852 60.3045L29.1814 51.2198C29.9266 50.8186 30.2418 49.9015 29.8406 49.1277C29.4394 48.3253 28.4077 48.0387 27.6339 48.5259L10.9833 59.2155C10.3529 59.674 10.8974 60.6197 11.5852 60.3045ZM9.92298 50.1594L26.8315 46.6058C27.6625 46.4338 28.2071 45.6027 28.0351 44.7716C27.8632 43.8832 26.9174 43.3387 26.0577 43.6253L9.6364 48.9844C8.89128 49.271 9.17786 50.3027 9.92298 50.1594ZM44.9436 79.4197C45.0009 80.1935 46.0899 80.1935 46.1472 79.4197L47.093 59.7886C47.093 57.6393 43.9979 57.6393 43.9979 59.7886L44.9436 79.4197ZM0.580333 40.6162L25.7424 41.5619C27.8918 41.5619 27.8918 38.4668 25.7424 38.4668L0.580333 39.4125C-0.193444 39.4698 -0.193444 40.5588 0.580333 40.6162Z" fill="#002BFF"/>
</svg>
