<?xml version="1.0" encoding="UTF-8"?>
<svg xmlns="http://www.w3.org/2000/svg" id="Layer_2" viewBox="0 0 1384.51 346.13">
  <defs>
    <style>.cls-1{fill:#e74c2d;}.cls-2{fill:#2b2b6b;}.cls-3{fill:#2c5b32;}</style>
  </defs>
  <g id="Layer_1-2">
    <g>
      <g>
        <path class="cls-2" d="M78.41,345.31l10.01-47.91h14.46c3.47,0,6.12,.25,7.96,.75,2.62,.67,4.85,1.88,6.71,3.61,1.85,1.73,3.25,3.89,4.19,6.49,.94,2.59,1.41,5.5,1.41,8.73,0,3.86-.58,7.37-1.75,10.54-1.17,3.18-2.69,5.96-4.58,8.37-1.89,2.41-3.86,4.29-5.92,5.66-2.06,1.36-4.5,2.37-7.31,3.03-2.14,.5-4.77,.75-7.89,.75h-17.28Zm7.56-5.43h7.59c3.43,0,6.47-.31,9.13-.95,1.66-.39,3.08-.97,4.26-1.74,1.55-.98,2.95-2.27,4.22-3.89,1.66-2.14,2.99-4.57,3.98-7.31,.99-2.74,1.49-5.85,1.49-9.33,0-3.88-.67-6.86-2.02-8.94-1.36-2.08-3.08-3.45-5.17-4.13-1.55-.5-3.96-.75-7.23-.75h-8.48l-7.76,37.03Z"></path>
        <polygon class="cls-2" points="127.66 345.31 137.71 297.4 144.09 297.4 134.08 345.31 127.66 345.31"></polygon>
        <path class="cls-2" d="M169.91,326.42l1.15-5.43h21.01l-4.09,19.52c-2.64,1.65-5.65,3-9.03,4.05-3.38,1.05-6.71,1.57-9.98,1.57-6.98,0-12.2-2.1-15.65-6.31-2.9-3.55-4.35-8.12-4.35-13.69s1.27-10.99,3.81-15.7c2.54-4.72,5.75-8.2,9.62-10.46,3.87-2.26,8.17-3.39,12.91-3.39,3.4,0,6.46,.62,9.16,1.85,2.71,1.23,4.78,2.88,6.22,4.94,1.44,2.06,2.47,4.74,3.1,8.06l-6.28,.69c-.68-3.29-2.08-5.81-4.21-7.57-2.13-1.75-4.86-2.63-8.2-2.63s-6.71,.94-9.72,2.83c-3.01,1.89-5.42,4.73-7.21,8.53-1.8,3.8-2.7,8.12-2.7,12.96s1.19,8.45,3.57,10.92c2.38,2.46,5.66,3.69,9.85,3.69s8.65-1.37,13.45-4.12l2.16-10.29h-14.6Z"></path>
        <polygon class="cls-2" points="198.42 345.31 208.47 297.4 214.85 297.4 204.83 345.31 198.42 345.31"></polygon>
        <polygon class="cls-2" points="228.43 345.31 237.3 302.85 221.56 302.85 222.7 297.4 260.47 297.4 259.32 302.85 243.71 302.85 234.84 345.31 228.43 345.31"></polygon>
        <path class="cls-2" d="M247.84,345.31l27.19-47.91h7.56l7.92,47.91h-6.22l-2.32-13.79h-19.41l-7.69,13.79h-7.04Zm17.48-18.73h15.87l-1.86-12.03c-.72-4.77-1.17-8.75-1.35-11.93-1.09,2.75-2.68,6-4.77,9.77l-7.89,14.19Z"></path>
        <polygon class="cls-2" points="296.57 345.31 306.58 297.4 312.99 297.4 304.13 339.89 329.03 339.89 327.89 345.31 296.57 345.31"></polygon>
        <polygon class="cls-2" points="363.79 345.31 372.66 302.85 356.92 302.85 358.06 297.4 395.83 297.4 394.68 302.85 379.07 302.85 370.2 345.31 363.79 345.31"></polygon>
        <path class="cls-2" d="M392.65,345.31l10.05-47.91h20.13c3.97,0,6.98,.33,9.03,.99,2.05,.67,3.66,1.91,4.83,3.75,1.17,1.83,1.75,4.14,1.75,6.93,0,3.9-1.28,7.14-3.83,9.71-2.55,2.57-6.68,4.24-12.37,5,1.75,1.29,3.07,2.55,3.96,3.8,2.01,2.81,3.62,5.72,4.84,8.72l3.66,9.02h-7.17l-3.44-8.92c-1.24-3.22-2.66-6.01-4.25-8.36-1.09-1.64-2.21-2.71-3.34-3.22-1.14-.51-2.98-.77-5.53-.77h-7.46l-4.46,21.28h-6.41Zm11.95-26.47h8.87c4.1,0,6.78-.06,8.02-.17,2.42-.24,4.41-.78,5.96-1.63,1.55-.85,2.75-1.99,3.6-3.43,.85-1.44,1.28-2.99,1.28-4.64,0-1.39-.32-2.61-.95-3.64-.63-1.04-1.46-1.74-2.49-2.11-1.03-.37-2.77-.55-5.24-.55h-15.64l-3.4,16.18Z"></path>
        <path class="cls-2" d="M436.58,345.31l27.19-47.91h7.56l7.92,47.91h-6.22l-2.32-13.79h-19.41l-7.69,13.79h-7.04Zm17.48-18.73h15.87l-1.86-12.03c-.72-4.77-1.17-8.75-1.35-11.93-1.09,2.75-2.68,6-4.77,9.77l-7.89,14.19Z"></path>
        <path class="cls-2" d="M485.89,345.31l10.05-47.91h6.22l8.08,17.98c2.47,5.49,4.42,10.11,5.85,13.86,.83,2.18,1.79,5.12,2.89,8.83,.59-4.03,1.33-8.2,2.23-12.49l5.89-28.17h6.25l-10.01,47.91h-6.35l-11.91-27.68c-2.12-4.88-3.76-9.18-4.94-12.91-.33,3.11-.96,6.94-1.9,11.47l-6.09,29.12h-6.25Z"></path>
        <path class="cls-2" d="M535.74,329.82l6.29-.59-.07,1.67c0,1.85,.43,3.55,1.28,5.08,.85,1.54,2.26,2.72,4.22,3.57,1.97,.84,4.3,1.26,7.01,1.26,3.84,0,6.77-.84,8.78-2.52,2.02-1.68,3.03-3.59,3.03-5.75,0-1.5-.54-2.87-1.6-4.12-1.09-1.22-4.07-2.88-8.93-4.97-3.77-1.63-6.35-2.88-7.72-3.75-2.16-1.42-3.75-2.96-4.78-4.63-1.03-1.67-1.54-3.57-1.54-5.7,0-2.46,.68-4.68,2.03-6.67,1.35-1.98,3.33-3.5,5.94-4.54,2.61-1.04,5.55-1.57,8.82-1.57,3.9,0,7.2,.65,9.88,1.96,2.69,1.31,4.63,3.05,5.84,5.23,1.21,2.18,1.82,4.26,1.82,6.25,0,.19,0,.52-.03,.98l-6.19,.49c0-1.35-.12-2.4-.36-3.17-.44-1.32-1.11-2.45-2.03-3.36-.92-.92-2.18-1.65-3.78-2.21-1.6-.55-3.39-.83-5.38-.83-3.49,0-6.21,.78-8.15,2.35-1.49,1.2-2.22,2.79-2.22,4.77,0,1.18,.3,2.23,.91,3.15,.62,.93,1.72,1.84,3.31,2.73,1.13,.63,3.83,1.88,8.08,3.76,3.45,1.53,5.83,2.72,7.14,3.59,1.75,1.16,3.09,2.56,4.03,4.2,.93,1.65,1.41,3.52,1.41,5.61,0,2.59-.79,4.98-2.37,7.18-1.58,2.19-3.77,3.89-6.56,5.08-2.79,1.2-5.99,1.8-9.59,1.8-5.44,0-9.87-1.18-13.3-3.55-3.44-2.36-5.17-6.62-5.19-12.76"></path>
        <polygon class="cls-2" points="578.77 345.31 588.79 297.4 619.98 297.4 618.83 302.85 594.06 302.85 590.88 318.12 616.12 318.12 614.97 323.57 589.74 323.57 585.19 345.31 578.77 345.31"></polygon>
        <path class="cls-2" d="M622.79,325.25c0-8.55,2.47-15.46,7.41-20.74,4.94-5.28,10.93-7.93,17.98-7.93,5.98,0,10.85,1.94,14.62,5.84,3.76,3.89,5.64,9.1,5.64,15.63,0,4.66-.95,8.99-2.85,12.98-1.41,2.98-3.21,5.56-5.36,7.73-2.16,2.16-4.48,3.84-6.94,5.01-3.27,1.57-6.74,2.35-10.41,2.35s-7.33-.91-10.49-2.75c-3.15-1.83-5.54-4.38-7.17-7.66-1.62-3.28-2.44-6.77-2.44-10.47m6.32,.32c0,2.81,.58,5.39,1.75,7.75,1.17,2.35,2.91,4.19,5.22,5.52,2.31,1.33,4.74,2,7.3,2s4.81-.58,7.04-1.75c2.22-1.17,4.22-2.79,5.97-4.87,1.76-2.08,3.14-4.64,4.16-7.68,1.01-3.04,1.52-6.03,1.52-8.97,0-4.77-1.34-8.57-4.01-11.4-2.67-2.83-5.97-4.25-9.9-4.25-5.02,0-9.45,2.14-13.29,6.42-3.84,4.28-5.76,10.03-5.76,17.24"></path>
        <path class="cls-2" d="M671.95,345.31l10.05-47.91h20.13c3.97,0,6.98,.33,9.03,.99,2.06,.67,3.66,1.91,4.83,3.75,1.17,1.83,1.75,4.14,1.75,6.93,0,3.9-1.27,7.14-3.83,9.71-2.55,2.57-6.68,4.24-12.37,5,1.75,1.29,3.06,2.55,3.96,3.8,2.01,2.81,3.62,5.72,4.84,8.72l3.67,9.02h-7.17l-3.43-8.92c-1.24-3.22-2.66-6.01-4.25-8.36-1.09-1.64-2.2-2.71-3.34-3.22-1.13-.51-2.98-.77-5.53-.77h-7.46l-4.45,21.28h-6.42Zm11.95-26.47h8.87c4.1,0,6.78-.06,8.02-.17,2.42-.24,4.4-.78,5.95-1.63,1.55-.85,2.75-1.99,3.6-3.43,.86-1.44,1.28-2.99,1.28-4.64,0-1.39-.31-2.61-.95-3.64-.63-1.04-1.46-1.74-2.49-2.11-1.03-.37-2.77-.55-5.24-.55h-15.64l-3.4,16.18Z"></path>
        <path class="cls-2" d="M720.15,345.31l10.01-47.91h7.89l4.85,31.05c.63,4.08,1.05,7.99,1.24,11.73,1.33-3.22,3.56-7.59,6.68-13.1l16.82-29.68h8.02l-10.02,47.91h-6.31l5-23.3c1.16-5.38,2.82-11.42,4.98-18.11-1.37,3.12-3.08,6.47-5.1,10.07l-17.87,31.34h-6.19l-4.81-30.72c-.43-2.81-.75-6.09-.95-9.84-.55,4.21-1.08,7.54-1.6,10l-6.38,30.56h-6.25Z"></path>
        <path class="cls-2" d="M771.7,345.31l27.19-47.91h7.56l7.92,47.91h-6.22l-2.32-13.79h-19.41l-7.69,13.79h-7.04Zm17.48-18.73h15.87l-1.86-12.03c-.72-4.77-1.17-8.75-1.35-11.93-1.09,2.75-2.68,6-4.77,9.77l-7.89,14.19Z"></path>
        <polygon class="cls-2" points="827.99 345.31 836.86 302.85 821.12 302.85 822.26 297.4 860.03 297.4 858.89 302.85 843.28 302.85 834.4 345.31 827.99 345.31"></polygon>
        <polygon class="cls-2" points="857.54 345.31 867.59 297.4 873.97 297.4 863.95 345.31 857.54 345.31"></polygon>
        <path class="cls-2" d="M878.46,325.25c0-8.55,2.47-15.46,7.41-20.74,4.95-5.28,10.94-7.93,17.98-7.93,5.98,0,10.85,1.94,14.62,5.84,3.76,3.89,5.64,9.1,5.64,15.63,0,4.66-.95,8.99-2.85,12.98-1.42,2.98-3.21,5.56-5.37,7.73-2.16,2.16-4.48,3.84-6.94,5.01-3.27,1.57-6.74,2.35-10.41,2.35s-7.34-.91-10.49-2.75c-3.15-1.83-5.54-4.38-7.17-7.66-1.62-3.28-2.44-6.77-2.44-10.47m6.32,.32c0,2.81,.58,5.39,1.75,7.75,1.17,2.35,2.91,4.19,5.22,5.52,2.31,1.33,4.75,2,7.3,2s4.81-.58,7.04-1.75c2.23-1.17,4.22-2.79,5.97-4.87,1.76-2.08,3.14-4.64,4.16-7.68,1.01-3.04,1.52-6.03,1.52-8.97,0-4.77-1.33-8.57-4.01-11.4-2.67-2.83-5.97-4.25-9.9-4.25-5.02,0-9.45,2.14-13.29,6.42-3.84,4.28-5.76,10.03-5.76,17.24"></path>
        <path class="cls-2" d="M927.74,345.31l10.05-47.91h6.21l8.08,17.98c2.47,5.49,4.42,10.11,5.86,13.86,.83,2.18,1.79,5.12,2.88,8.83,.59-4.03,1.33-8.2,2.22-12.49l5.89-28.17h6.25l-10.01,47.91h-6.35l-11.91-27.68c-2.12-4.88-3.76-9.18-4.94-12.91-.33,3.11-.96,6.94-1.9,11.47l-6.09,29.12h-6.25Z"></path>
        <path class="cls-2" d="M994.38,345.31l10.05-47.91h20.03c3.47,0,6.07,.4,7.8,1.2,1.73,.79,3.17,2.15,4.3,4.08,1.13,1.93,1.7,4.09,1.7,6.49,0,1.99-.4,4-1.21,6.05-.81,2.04-1.83,3.74-3.06,5.06-1.23,1.33-2.48,2.33-3.74,3.01-1.27,.67-2.62,1.18-4.06,1.5-3.07,.72-6.19,1.08-9.33,1.08h-12.01l-4.06,19.45h-6.42Zm11.62-24.87h10.57c4.1,0,7.11-.44,9.03-1.33,1.92-.88,3.46-2.23,4.62-4.03,1.15-1.81,1.73-3.72,1.73-5.75,0-1.57-.3-2.85-.91-3.84-.61-.99-1.47-1.72-2.59-2.19-1.11-.47-3.25-.7-6.42-.7h-12.3l-3.73,17.85Z"></path>
        <path class="cls-2" d="M1029.89,345.31l27.19-47.91h7.56l7.92,47.91h-6.22l-2.32-13.79h-19.41l-7.69,13.79h-7.04Zm17.48-18.73h15.87l-1.86-12.03c-.72-4.77-1.17-8.75-1.34-11.93-1.09,2.75-2.68,6-4.78,9.77l-7.89,14.19Z"></path>
        <path class="cls-2" d="M1079.07,345.31l10.05-47.91h20.13c3.97,0,6.98,.33,9.03,.99,2.06,.67,3.66,1.91,4.83,3.75,1.17,1.83,1.75,4.14,1.75,6.93,0,3.9-1.27,7.14-3.83,9.71-2.55,2.57-6.68,4.24-12.37,5,1.75,1.29,3.06,2.55,3.96,3.8,2.01,2.81,3.62,5.72,4.84,8.72l3.67,9.02h-7.17l-3.43-8.92c-1.24-3.22-2.66-6.01-4.25-8.36-1.09-1.64-2.2-2.71-3.34-3.22-1.13-.51-2.98-.77-5.53-.77h-7.46l-4.45,21.28h-6.42Zm11.95-26.47h8.87c4.1,0,6.78-.06,8.02-.17,2.42-.24,4.41-.78,5.96-1.63,1.55-.85,2.75-1.99,3.6-3.43,.86-1.44,1.28-2.99,1.28-4.64,0-1.39-.31-2.61-.95-3.64-.63-1.04-1.46-1.74-2.49-2.11-1.03-.37-2.77-.55-5.24-.55h-15.64l-3.41,16.18Z"></path>
        <polygon class="cls-2" points="1138.34 345.31 1147.21 302.85 1131.47 302.85 1132.61 297.4 1170.38 297.4 1169.24 302.85 1153.63 302.85 1144.76 345.31 1138.34 345.31"></polygon>
        <path class="cls-2" d="M1167.34,345.31l10.04-47.91h6.22l8.09,17.98c2.47,5.49,4.42,10.11,5.86,13.86,.83,2.18,1.79,5.12,2.88,8.83,.59-4.03,1.33-8.2,2.22-12.49l5.89-28.17h6.25l-10.01,47.91h-6.35l-11.91-27.68c-2.12-4.88-3.76-9.18-4.94-12.91-.33,3.11-.96,6.94-1.9,11.47l-6.09,29.12h-6.25Z"></path>
        <polygon class="cls-2" points="1215.48 345.31 1225.53 297.4 1260.16 297.4 1259.01 302.85 1230.8 302.85 1227.66 317.76 1255.15 317.76 1254 323.21 1226.51 323.21 1223.04 339.89 1253.25 339.89 1252.1 345.31 1215.48 345.31"></polygon>
        <path class="cls-2" d="M1260.31,345.31l10.05-47.91h20.13c3.97,0,6.98,.33,9.03,.99,2.06,.67,3.66,1.91,4.83,3.75,1.17,1.83,1.75,4.14,1.75,6.93,0,3.9-1.27,7.14-3.83,9.71-2.55,2.57-6.68,4.24-12.37,5,1.75,1.29,3.06,2.55,3.96,3.8,2.01,2.81,3.62,5.72,4.84,8.72l3.67,9.02h-7.17l-3.44-8.92c-1.24-3.22-2.66-6.01-4.25-8.36-1.09-1.64-2.2-2.71-3.34-3.22-1.13-.51-2.98-.77-5.53-.77h-7.46l-4.46,21.28h-6.42Zm11.95-26.47h8.87c4.1,0,6.78-.06,8.02-.17,2.42-.24,4.41-.78,5.96-1.63,1.55-.85,2.75-1.99,3.6-3.43,.86-1.44,1.28-2.99,1.28-4.64,0-1.39-.31-2.61-.95-3.64-.63-1.04-1.46-1.74-2.49-2.11-1.03-.37-2.77-.55-5.24-.55h-15.64l-3.41,16.18Z"></path>
      </g>
      <g>
        <path class="cls-3" d="M97.19,77.85c0,.98-.06,2.04-.16,3.18-.11,1.14-.33,2.31-.65,3.5-.33,1.2-.76,2.39-1.3,3.58-.55,1.2-1.12,2.25-1.71,3.18-.6,.92-1.28,1.66-2.04,2.2-.76,.54-1.63,.81-2.61,.81H51.21l-16.47,81.76c-.44,2.28-.82,4.83-1.14,7.65-.33,2.82-.49,5.16-.49,7,0,5.54,1.17,9.58,3.51,12.13,2.34,2.55,6.12,3.83,11.33,3.83,2.94,0,5.49-.24,7.66-.73,2.17-.49,4.05-1,5.63-1.55,1.57-.54,2.96-1.06,4.16-1.55,1.2-.49,2.23-.73,3.1-.73s1.55,.3,2.04,.9c.49,.6,.73,1.71,.73,3.34,0,1.41-.14,2.96-.41,4.64-.27,1.68-.63,3.34-1.06,4.97-.44,1.63-.98,3.09-1.63,4.4-.65,1.3-1.36,2.34-2.12,3.09-.87,.76-2.18,1.52-3.91,2.28-1.74,.76-3.75,1.44-6.03,2.04-2.28,.6-4.7,1.06-7.26,1.38-2.56,.33-5.08,.49-7.58,.49-6.09,0-11.36-.65-15.82-1.95-4.46-1.3-8.21-3.34-11.25-6.11-3.04-2.77-5.3-6.24-6.77-10.42-1.47-4.18-2.2-9.2-2.2-15.06,0-1.3,.05-2.74,.16-4.32,.11-1.57,.3-3.23,.57-4.97,.27-1.74,.54-3.47,.82-5.21,.27-1.74,.57-3.36,.9-4.89L24.14,94.3H3.75c-1.2,0-2.12-.35-2.77-1.06-.65-.7-.98-2.09-.98-4.15,0-1.52,.16-3.28,.49-5.29,.33-2.01,.82-3.88,1.47-5.62,.65-1.74,1.49-3.2,2.53-4.4,1.03-1.19,2.26-1.79,3.67-1.79H28.7l7.01-34.85c.11-.76,.46-1.47,1.06-2.12,.6-.65,1.44-1.22,2.53-1.71,1.09-.49,2.53-.84,4.32-1.06,1.79-.22,4-.33,6.6-.33s4.75,.11,6.44,.33c1.68,.22,2.99,.57,3.91,1.06,.92,.49,1.52,1.06,1.79,1.71,.27,.65,.35,1.36,.24,2.12l-7.01,34.85h37.51c1.63,0,2.72,.6,3.26,1.79,.54,1.2,.82,2.55,.82,4.07Z"></path>
        <path class="cls-3" d="M240.7,106.19c0,7.49-1.74,14.22-5.22,20.19-3.48,5.97-8.92,11.07-16.31,15.31-7.39,4.23-16.85,7.49-28.38,9.77-11.52,2.28-25.33,3.42-41.42,3.42h-17.29c-.76,3.58-1.28,7.06-1.55,10.42-.27,3.37-.41,6.51-.41,9.45,0,10.86,2.69,19.16,8.07,24.92,5.38,5.76,14.11,8.63,26.17,8.63,6.96,0,13.21-.51,18.75-1.55,5.54-1.03,10.36-2.14,14.43-3.34,4.08-1.19,7.42-2.31,10.03-3.34,2.61-1.03,4.4-1.55,5.38-1.55s1.71,.35,2.2,1.06c.49,.71,.73,1.71,.73,3.01,0,1.09-.11,2.39-.33,3.91-.22,1.52-.55,3.07-.98,4.64-.44,1.58-1.01,3.07-1.71,4.48-.71,1.41-1.5,2.61-2.36,3.58-1.3,1.3-3.62,2.58-6.93,3.83-3.32,1.25-7.26,2.39-11.82,3.42-4.57,1.03-9.57,1.87-15,2.52-5.44,.65-10.87,.98-16.31,.98-9.68,0-18.16-1.09-25.44-3.26-7.28-2.17-13.35-5.51-18.18-10.02-4.84-4.5-8.45-10.12-10.84-16.86-2.39-6.73-3.59-14.66-3.59-23.78,0-7.06,.68-14.63,2.04-22.72,1.36-8.09,3.51-16.1,6.44-24.02,2.94-7.92,6.74-15.53,11.42-22.8,4.67-7.27,10.25-13.68,16.72-19.22,6.47-5.54,13.94-9.99,22.42-13.35,8.48-3.36,18.05-5.05,28.7-5.05,9.13,0,16.88,1.14,23.24,3.42,6.36,2.28,11.58,5.21,15.66,8.79,4.08,3.58,7.04,7.57,8.89,11.97,1.85,4.4,2.77,8.77,2.77,13.11Zm-27.56,2.44c0-5.54-2.18-10.02-6.52-13.44-4.35-3.42-10.55-5.13-18.59-5.13-7.07,0-13.32,1.22-18.75,3.66-5.44,2.44-10.25,5.73-14.43,9.85-4.19,4.13-7.77,8.93-10.76,14.41-2.99,5.48-5.41,11.27-7.26,17.34h16.63c11.42,0,20.96-.7,28.62-2.12,7.66-1.41,13.81-3.34,18.43-5.78,4.62-2.44,7.88-5.29,9.78-8.55,1.9-3.26,2.85-6.68,2.85-10.26Z"></path>
        <path class="cls-3" d="M388.61,89.09c0,1.95-.19,3.96-.57,6.03-.38,2.06-.95,3.99-1.71,5.78-.76,1.79-1.66,3.29-2.69,4.48-1.03,1.2-2.2,1.79-3.51,1.79-1.52,0-3.1-.79-4.73-2.36-1.63-1.57-3.78-3.34-6.44-5.29-2.67-1.95-6.03-3.75-10.11-5.37-4.08-1.63-9.27-2.44-15.57-2.44-6.96,0-13.13,1.44-18.51,4.32-5.38,2.88-10.06,6.62-14.02,11.24-3.97,4.62-7.26,9.85-9.87,15.72-2.61,5.86-4.73,11.78-6.36,17.75-1.63,5.97-2.8,11.75-3.51,17.34-.71,5.59-1.06,10.45-1.06,14.58,0,11.18,2.45,19.65,7.34,25.41,4.89,5.76,12.17,8.63,21.85,8.63,7.07,0,13.13-.87,18.18-2.61,5.06-1.74,9.35-3.72,12.88-5.94,3.53-2.22,6.44-4.21,8.72-5.94,2.28-1.74,4.29-2.61,6.03-2.61,.87,0,1.55,.41,2.04,1.22,.49,.81,.73,1.98,.73,3.5,0,1.3-.11,2.85-.33,4.64-.22,1.79-.57,3.64-1.06,5.54-.49,1.9-1.09,3.66-1.79,5.29-.71,1.63-1.71,3.12-3.02,4.48-1.3,1.36-3.59,3.01-6.85,4.97-3.26,1.95-7.04,3.72-11.33,5.29-4.3,1.58-8.94,2.88-13.94,3.91-5,1.03-10.17,1.55-15.49,1.55-17.51,0-30.58-4.45-39.22-13.35-8.64-8.9-12.96-22.15-12.96-39.74,0-6.62,.57-13.87,1.71-21.74,1.14-7.87,3.07-15.8,5.79-23.78,2.72-7.98,6.2-15.72,10.44-23.21,4.24-7.49,9.46-14.14,15.66-19.95,6.2-5.81,13.37-10.45,21.53-13.92,8.15-3.47,17.5-5.21,28.05-5.21,4.35,0,8.53,.35,12.56,1.06,4.02,.71,7.8,1.66,11.33,2.85,3.53,1.2,6.74,2.69,9.62,4.48,2.88,1.79,5.11,3.39,6.69,4.8,1.57,1.41,2.55,2.61,2.94,3.58,.38,.98,.57,2.06,.57,3.26Z"></path>
        <path class="cls-3" d="M521.52,222.79c-.22,.87-.6,1.6-1.14,2.2-.55,.6-1.39,1.11-2.53,1.55-1.14,.43-2.58,.76-4.32,.98-1.74,.22-3.97,.33-6.69,.33s-4.76-.11-6.44-.33c-1.69-.22-2.99-.54-3.91-.98-.92-.43-1.52-.95-1.79-1.55-.27-.6-.35-1.33-.24-2.2l18.1-90.55c.54-2.82,1-6,1.39-9.53,.38-3.53,.57-6.6,.57-9.2,0-3.15-.33-6.03-.98-8.63-.65-2.61-1.71-4.86-3.18-6.76-1.47-1.9-3.37-3.39-5.71-4.48-2.34-1.08-5.19-1.63-8.56-1.63-5.76,0-11.66,1.68-17.69,5.05-6.03,3.37-11.63,8.01-16.8,13.92-5.16,5.92-9.78,12.89-13.86,20.93-4.08,8.04-7.04,16.67-8.89,25.89l-13.05,64.98c-.22,.87-.6,1.6-1.14,2.2-.55,.6-1.36,1.11-2.45,1.55-1.09,.43-2.53,.76-4.32,.98-1.79,.22-4,.33-6.6,.33s-4.92-.11-6.6-.33c-1.69-.22-2.99-.54-3.91-.98-.92-.43-1.52-.95-1.79-1.55-.27-.6-.3-1.33-.08-2.2L442.26,5.21c.22-.87,.57-1.63,1.06-2.28s1.3-1.19,2.45-1.63c1.14-.43,2.61-.76,4.4-.98,1.79-.22,4.05-.33,6.77-.33s4.75,.11,6.44,.33c1.68,.22,2.99,.54,3.91,.98,.92,.44,1.49,.98,1.71,1.63,.22,.65,.27,1.41,.16,2.28l-13.05,66.28c-.55,2.82-1.2,5.7-1.96,8.63-.76,2.93-1.55,5.84-2.36,8.71-.82,2.88-1.63,5.62-2.45,8.22-.82,2.61-1.55,4.89-2.2,6.84,1.74-3.8,4.46-7.74,8.15-11.81,3.69-4.07,8.04-7.82,13.05-11.24,5-3.42,10.52-6.27,16.55-8.55s12.26-3.42,18.67-3.42c6.96,0,12.88,1.01,17.78,3.01,4.89,2.01,8.89,4.78,11.99,8.31,3.1,3.53,5.35,7.74,6.77,12.62,1.41,4.89,2.12,10.15,2.12,15.8,0,3.91-.22,7.71-.65,11.4-.44,3.69-1.03,7.44-1.79,11.24l-18.26,91.53Z"></path>
        <path class="cls-1" d="M699.27,89.09c0,1.95-.19,3.96-.57,6.03-.38,2.06-.95,3.99-1.71,5.78-.76,1.79-1.66,3.29-2.69,4.48-1.03,1.2-2.2,1.79-3.51,1.79-1.52,0-3.1-.79-4.73-2.36-1.63-1.57-3.78-3.34-6.44-5.29-2.67-1.95-6.03-3.75-10.11-5.37-4.08-1.63-9.27-2.44-15.57-2.44-6.96,0-13.13,1.44-18.51,4.32-5.38,2.88-10.06,6.62-14.02,11.24-3.97,4.62-7.26,9.85-9.87,15.72-2.61,5.86-4.73,11.78-6.36,17.75-1.63,5.97-2.8,11.75-3.51,17.34-.71,5.59-1.06,10.45-1.06,14.58,0,11.18,2.45,19.65,7.34,25.41,4.89,5.76,12.17,8.63,21.85,8.63,7.07,0,13.13-.87,18.18-2.61,5.06-1.74,9.35-3.72,12.88-5.94,3.53-2.22,6.44-4.21,8.72-5.94,2.28-1.74,4.29-2.61,6.03-2.61,.87,0,1.55,.41,2.04,1.22,.49,.81,.73,1.98,.73,3.5,0,1.3-.11,2.85-.33,4.64-.22,1.79-.57,3.64-1.06,5.54-.49,1.9-1.09,3.66-1.79,5.29-.71,1.63-1.71,3.12-3.02,4.48-1.3,1.36-3.59,3.01-6.85,4.97-3.26,1.95-7.04,3.72-11.33,5.29-4.3,1.58-8.94,2.88-13.94,3.91-5,1.03-10.17,1.55-15.49,1.55-17.51,0-30.58-4.45-39.22-13.35-8.64-8.9-12.96-22.15-12.96-39.74,0-6.62,.57-13.87,1.71-21.74,1.14-7.87,3.07-15.8,5.79-23.78,2.72-7.98,6.2-15.72,10.44-23.21,4.24-7.49,9.46-14.14,15.66-19.95,6.2-5.81,13.37-10.45,21.53-13.92,8.15-3.47,17.5-5.21,28.05-5.21,4.35,0,8.53,.35,12.56,1.06,4.02,.71,7.8,1.66,11.33,2.85,3.53,1.2,6.74,2.69,9.62,4.48,2.88,1.79,5.11,3.39,6.69,4.8,1.57,1.41,2.55,2.61,2.94,3.58,.38,.98,.57,2.06,.57,3.26Z"></path>
        <path class="cls-1" d="M829.24,222.79c-.44,1.85-1.63,3.15-3.59,3.91-1.96,.76-5.22,1.14-9.78,1.14-2.18,0-3.97-.11-5.38-.33-1.41-.22-2.56-.52-3.42-.9-.87-.38-1.47-.87-1.79-1.47-.33-.6-.33-1.38,0-2.36l5.38-27.69c-1.41,3.48-3.97,7.28-7.66,11.4-3.7,4.13-8.07,7.93-13.13,11.4-5.06,3.48-10.68,6.35-16.88,8.63-6.2,2.28-12.5,3.42-18.92,3.42-8.7,0-15.9-1.52-21.61-4.56-5.71-3.04-10.25-7.06-13.62-12.05-3.37-4.99-5.68-10.64-6.93-16.94-1.25-6.3-1.88-12.76-1.88-19.38,0-6.08,.57-12.97,1.71-20.68,1.14-7.71,2.99-15.58,5.54-23.61,2.55-8.03,5.87-15.85,9.95-23.45,4.08-7.6,8.99-14.41,14.76-20.44,5.76-6.03,12.45-10.86,20.06-14.49,7.61-3.64,16.25-5.46,25.93-5.46s17.96,1.95,24.87,5.86c6.9,3.91,13.07,9.28,18.51,16.12l3.1-14.82c.43-1.74,1.68-2.98,3.75-3.75,2.06-.76,5.27-1.14,9.62-1.14,2.17,0,4,.08,5.46,.24s2.63,.46,3.51,.9c.87,.44,1.41,.98,1.63,1.63,.22,.65,.27,1.36,.16,2.12l-29.35,146.74Zm-5.06-108.3c-5.11-7.49-10.63-13.11-16.55-16.86-5.93-3.75-12.58-5.62-19.98-5.62-5.87,0-11.17,1.38-15.9,4.15s-8.92,6.43-12.56,10.99c-3.64,4.56-6.8,9.75-9.46,15.55-2.67,5.81-4.84,11.81-6.52,18-1.69,6.19-2.94,12.27-3.75,18.24-.82,5.97-1.22,11.35-1.22,16.12,0,3.8,.3,7.57,.9,11.32,.6,3.75,1.74,7.17,3.42,10.26,1.68,3.09,4,5.59,6.93,7.49,2.94,1.9,6.74,2.85,11.42,2.85,5.98,0,11.99-1.65,18.02-4.97,6.03-3.31,11.66-7.9,16.88-13.76,5.22-5.86,9.84-12.76,13.86-20.68,4.02-7.92,7.01-16.67,8.97-26.22l5.54-26.87Z"></path>
        <path class="cls-1" d="M991.5,76.38c0,.44-.08,1.28-.24,2.52-.16,1.25-.35,2.69-.57,4.32-.22,1.63-.55,3.31-.98,5.05-.44,1.74-.98,3.34-1.63,4.8-.65,1.47-1.33,2.69-2.04,3.66-.71,.98-1.5,1.47-2.36,1.47s-1.82-.19-2.85-.57c-1.03-.38-2.18-.84-3.42-1.38-1.25-.54-2.69-1-4.32-1.38-1.63-.38-3.53-.57-5.71-.57-3.7,0-7.97,1.6-12.8,4.8-4.84,3.2-9.6,7.63-14.27,13.27-4.68,5.65-8.94,12.32-12.8,20.03-3.86,7.71-6.71,16.07-8.56,25.08l-12.88,65.31c-.22,.87-.6,1.6-1.14,2.2-.55,.6-1.36,1.11-2.45,1.55-1.09,.43-2.53,.76-4.32,.98-1.79,.22-4,.33-6.6,.33s-4.92-.11-6.6-.33c-1.69-.22-2.99-.54-3.91-.98-.92-.43-1.52-.95-1.79-1.55-.27-.6-.3-1.33-.08-2.2l29.19-146.74c.11-.76,.43-1.47,.98-2.12,.54-.65,1.36-1.19,2.45-1.63,1.09-.43,2.42-.73,4-.9,1.57-.16,3.45-.24,5.63-.24,2.28,0,4.16,.08,5.63,.24s2.61,.46,3.42,.9c.82,.44,1.33,.98,1.55,1.63,.22,.65,.27,1.36,.16,2.12l-5.38,26.71c2.5-4.45,5.46-8.74,8.89-12.87,3.42-4.13,7.15-7.74,11.17-10.83,4.02-3.09,8.24-5.56,12.64-7.41,4.4-1.84,8.72-2.77,12.96-2.77,1.85,0,3.72,.14,5.63,.41,1.9,.27,3.67,.6,5.3,.98,1.63,.38,3.07,.81,4.32,1.3,1.25,.49,2.2,1.06,2.85,1.71,.65,.65,.98,1.68,.98,3.09Z"></path>
        <path class="cls-1" d="M1105.98,76.38c0,.44-.08,1.28-.24,2.52-.16,1.25-.35,2.69-.57,4.32-.22,1.63-.55,3.31-.98,5.05-.44,1.74-.98,3.34-1.63,4.8-.65,1.47-1.33,2.69-2.04,3.66-.71,.98-1.5,1.47-2.36,1.47s-1.82-.19-2.85-.57c-1.03-.38-2.18-.84-3.42-1.38-1.25-.54-2.69-1-4.32-1.38-1.63-.38-3.53-.57-5.71-.57-3.7,0-7.97,1.6-12.8,4.8-4.84,3.2-9.6,7.63-14.27,13.27-4.68,5.65-8.94,12.32-12.8,20.03-3.86,7.71-6.71,16.07-8.56,25.08l-12.88,65.31c-.22,.87-.6,1.6-1.14,2.2-.55,.6-1.36,1.11-2.45,1.55-1.09,.43-2.53,.76-4.32,.98-1.79,.22-4,.33-6.6,.33s-4.92-.11-6.6-.33c-1.69-.22-2.99-.54-3.91-.98-.92-.43-1.52-.95-1.79-1.55-.27-.6-.3-1.33-.08-2.2l29.19-146.74c.11-.76,.43-1.47,.98-2.12,.54-.65,1.36-1.19,2.45-1.63,1.09-.43,2.42-.73,4-.9,1.57-.16,3.45-.24,5.63-.24,2.28,0,4.16,.08,5.63,.24s2.61,.46,3.42,.9c.82,.44,1.33,.98,1.55,1.63,.22,.65,.27,1.36,.16,2.12l-5.38,26.71c2.5-4.45,5.46-8.74,8.89-12.87,3.42-4.13,7.15-7.74,11.17-10.83,4.02-3.09,8.24-5.56,12.64-7.41,4.4-1.84,8.72-2.77,12.96-2.77,1.85,0,3.72,.14,5.63,.41,1.9,.27,3.67,.6,5.3,.98,1.63,.38,3.07,.81,4.32,1.3,1.25,.49,2.2,1.06,2.85,1.71,.65,.65,.98,1.68,.98,3.09Z"></path>
        <path class="cls-1" d="M1256.82,124.75c0,8.04-.76,16.23-2.28,24.59-1.52,8.36-3.83,16.42-6.93,24.18-3.1,7.76-7.04,15.06-11.82,21.9-4.79,6.84-10.41,12.81-16.88,17.91-6.47,5.1-13.81,9.15-22.02,12.13-8.21,2.98-17.37,4.48-27.48,4.48s-19.38-1.25-26.83-3.75c-7.45-2.5-13.56-6.13-18.35-10.91-4.79-4.78-8.32-10.64-10.6-17.59-2.28-6.95-3.42-14.82-3.42-23.61,0-8.03,.73-16.23,2.2-24.59,1.47-8.36,3.78-16.39,6.93-24.1,3.15-7.71,7.09-15.01,11.82-21.9,4.73-6.89,10.33-12.89,16.8-18,6.47-5.1,13.81-9.15,22.02-12.13,8.21-2.98,17.37-4.48,27.48-4.48s19.38,1.28,26.83,3.83c7.45,2.55,13.59,6.22,18.43,10.99,4.84,4.78,8.4,10.64,10.68,17.59,2.28,6.95,3.42,14.77,3.42,23.45Zm-28.38,1.63c0-5.43-.57-10.31-1.71-14.66-1.14-4.34-3.04-8.01-5.71-10.99-2.67-2.98-6.14-5.29-10.44-6.92-4.3-1.63-9.49-2.44-15.57-2.44-6.52,0-12.45,1.17-17.78,3.5-5.33,2.34-10.09,5.48-14.27,9.45-4.19,3.96-7.83,8.61-10.93,13.92-3.1,5.32-5.65,10.99-7.66,17.02-2.01,6.03-3.51,12.21-4.48,18.57-.98,6.35-1.47,12.57-1.47,18.65,0,5.43,.6,10.32,1.79,14.66,1.2,4.34,3.12,8.04,5.79,11.07,2.66,3.04,6.12,5.37,10.36,7,4.24,1.63,9.4,2.44,15.49,2.44,6.63,0,12.58-1.17,17.86-3.5,5.27-2.33,10-5.51,14.19-9.53,4.18-4.02,7.83-8.69,10.93-14.01,3.1-5.32,5.65-11.02,7.66-17.1,2.01-6.08,3.51-12.27,4.48-18.57,.98-6.3,1.47-12.48,1.47-18.57Z"></path>
        <path class="cls-1" d="M1384.51,77.85c0,.98-.06,2.04-.16,3.18-.11,1.14-.33,2.31-.65,3.5-.33,1.2-.76,2.39-1.3,3.58-.55,1.2-1.12,2.25-1.71,3.18-.6,.92-1.28,1.66-2.04,2.2-.76,.54-1.63,.81-2.61,.81h-37.51l-16.47,81.76c-.44,2.28-.82,4.83-1.14,7.65-.33,2.82-.49,5.16-.49,7,0,5.54,1.17,9.58,3.51,12.13,2.34,2.55,6.12,3.83,11.33,3.83,2.94,0,5.49-.24,7.66-.73,2.17-.49,4.05-1,5.63-1.55,1.57-.54,2.96-1.06,4.16-1.55,1.2-.49,2.23-.73,3.1-.73s1.55,.3,2.04,.9c.49,.6,.73,1.71,.73,3.34,0,1.41-.14,2.96-.41,4.64-.27,1.68-.63,3.34-1.06,4.97-.44,1.63-.98,3.09-1.63,4.4-.65,1.3-1.36,2.34-2.12,3.09-.87,.76-2.18,1.52-3.91,2.28-1.74,.76-3.75,1.44-6.03,2.04-2.28,.6-4.7,1.06-7.26,1.38-2.56,.33-5.08,.49-7.58,.49-6.09,0-11.36-.65-15.82-1.95-4.46-1.3-8.21-3.34-11.25-6.11-3.04-2.77-5.3-6.24-6.77-10.42-1.47-4.18-2.2-9.2-2.2-15.06,0-1.3,.05-2.74,.16-4.32,.11-1.57,.3-3.23,.57-4.97,.27-1.74,.54-3.47,.82-5.21,.27-1.74,.57-3.36,.9-4.89l16.47-82.41h-20.38c-1.2,0-2.12-.35-2.77-1.06-.65-.7-.98-2.09-.98-4.15,0-1.52,.16-3.28,.49-5.29,.33-2.01,.82-3.88,1.47-5.62,.65-1.74,1.49-3.2,2.53-4.4,1.03-1.19,2.25-1.79,3.67-1.79h20.55l7.01-34.85c.11-.76,.46-1.47,1.06-2.12,.6-.65,1.44-1.22,2.53-1.71,1.09-.49,2.53-.84,4.32-1.06,1.79-.22,4-.33,6.6-.33s4.75,.11,6.44,.33c1.68,.22,2.99,.57,3.91,1.06,.92,.49,1.52,1.06,1.79,1.71,.27,.65,.35,1.36,.24,2.12l-7.01,34.85h37.51c1.63,0,2.72,.6,3.26,1.79,.54,1.2,.82,2.55,.82,4.07Z"></path>
      </g>
    </g>
  </g>
</svg>
