<?xml version="1.0" encoding="UTF-8"?><svg id="Layer_2" xmlns="http://www.w3.org/2000/svg" viewBox="0 0 239.7 105.88"><defs><style>.cls-1{fill:#0d0630;}</style></defs><g id="Layer_1-2"><path class="cls-1" d="M233.12,79.91h-1.76v5.03h-.84v-5.03h-1.76v-.82h4.36v.82h0Z"/><path class="cls-1" d="M238.88,84.94h-.84v-3.73l-1.45,3.73h-.59l-1.44-3.72v3.72h-.84v-5.85h.81l1.76,4.56,1.78-4.56h.8v5.85h.01Z"/><path class="cls-1" d="M108.44,90.58l-.17-.07c-2.04-.84-3.38-1.39-3.38-2.35v-.06c0-.88.87-1.47,2.17-1.47s2.75.5,4.35,1.48l.17.1,1.91-3-.17-.11c-1.81-1.19-4.07-1.87-6.2-1.87-3.76,0-6.39,2.13-6.39,5.19v.06c0,2.94,2.49,4.15,5.26,5.24l.09.04c2.08.81,3.46,1.35,3.46,2.45,0,1.01-.95,1.67-2.42,1.67-1.57,0-3.31-.68-5.05-1.96l-.16-.12-2.11,2.93.16.12c2.02,1.54,4.61,2.42,7.09,2.42,4.01,0,6.61-2.11,6.61-5.41,0-2.89-2.47-4.14-5.22-5.27h0Z"/><path class="cls-1" d="M128.25,83.49l-3.93,11.96-4.16-11.83-.05-.13h-4.68l6.77,17.28c-.56,1.34-1.18,1.6-2.05,1.6-.62,0-1.36-.2-2.07-.56l-.19-.1-1.32,3.17.17.08c1.25.62,2.52.92,3.88.92,2.89,0,4.44-1.31,5.74-4.83l6.47-17.58h-4.57v.02Z"/><path class="cls-1" d="M141.6,90.58l-.17-.07c-2.04-.84-3.38-1.39-3.38-2.35v-.06c0-.88.87-1.47,2.17-1.47s2.75.5,4.35,1.48l.17.1,1.91-3-.17-.11c-1.81-1.19-4.07-1.87-6.2-1.87-3.76,0-6.39,2.13-6.39,5.19v.06c0,2.94,2.49,4.15,5.26,5.24l.09.04c2.08.81,3.46,1.35,3.46,2.45,0,1.01-.95,1.67-2.42,1.67-1.57,0-3.31-.68-5.05-1.96l-.16-.12-2.11,2.93.16.12c2.02,1.54,4.61,2.42,7.09,2.42,4.01,0,6.61-2.11,6.61-5.41,0-2.89-2.47-4.14-5.22-5.27h0Z"/><path class="cls-1" d="M159.77,87.01v-3.52h-4.21v-4.6h-4.4v4.6h-2.05v3.52h2.05v9.61c0,3.04,1.7,4.58,5.05,4.58,1.25,0,2.37-.25,3.41-.76l.11-.06v-3.44l-.29.14c-.65.31-1.33.46-2.07.46-1.24,0-1.81-.53-1.81-1.67v-8.87h4.21,0Z"/><path class="cls-1" d="M170.57,83.17c-4.75,0-8.2,3.78-8.2,8.98v.26c0,5.23,3.61,8.89,8.77,8.89,2.65,0,4.84-.88,6.72-2.7l.14-.14-2.36-2.54-.15.13c-1.37,1.21-2.66,1.75-4.18,1.75-2.41,0-4.12-1.53-4.51-4.01h11.71v-.19c.05-.52.05-1.04.05-1.27,0-5.57-3.13-9.18-7.99-9.18v.02ZM174.24,90.89h-7.48c.33-2.64,1.77-4.26,3.81-4.26s3.4,1.59,3.67,4.26Z"/><path class="cls-1" d="M202.03,83.17c-2.15,0-3.93.85-5.45,2.59-1-1.67-2.72-2.59-4.88-2.59-2.42,0-3.85,1.2-4.82,2.4v-2.08h-4.4v17.45h4.4v-10.5c0-2.18,1.25-3.59,3.2-3.59s2.95,1.24,2.95,3.5v10.59h4.4v-10.53c0-2.2,1.21-3.56,3.16-3.56s2.98,1.22,2.98,3.53v10.56h4.4v-11.62c0-3.85-2.22-6.15-5.93-6.15h0Z"/><path class="cls-1" d="M219.69,90.58l-.16-.07c-2.04-.84-3.39-1.39-3.39-2.35v-.06c0-.88.87-1.47,2.17-1.47s2.75.5,4.35,1.48l.17.1,1.91-3-.17-.11c-1.81-1.19-4.07-1.87-6.2-1.87-3.76,0-6.4,2.13-6.4,5.19v.06c0,2.94,2.49,4.15,5.26,5.24l.09.04c2.08.81,3.46,1.35,3.46,2.45,0,1.01-.95,1.67-2.42,1.67-1.57,0-3.31-.68-5.05-1.96l-.16-.12-2.11,2.93.16.12c2.02,1.54,4.61,2.42,7.09,2.42,4.01,0,6.61-2.11,6.61-5.41,0-2.89-2.47-4.14-5.22-5.27h.01Z"/><path class="cls-1" d="M239.7,21.92h-14.06v49.28h-13.18V21.92h-14.05v-10.3h41.29v10.3Z"/><path class="cls-1" d="M179.23,30.85v40.36h11.9V26.6c0-3.38-.88-6.28-2.63-8.67-1.76-2.39-4.14-4.5-7.13-6.34l-8.29,7.75c2.14,1.55,3.7,3.14,4.68,4.79.98,1.64,1.47,3.88,1.47,6.72h0Z"/><path class="cls-1" d="M161.18,46.98c-.98-1.63-1.47-3.88-1.47-6.72V0h-11.9v44.5c0,3.39.88,6.28,2.63,8.67,1.76,2.39,4.14,4.5,7.13,6.34l8.28-7.75c-2.14-1.55-3.7-3.14-4.68-4.79h0Z"/><path class="cls-1" d="M44.23,57.04c-3.16,1.2-8.3,2.69-14.68,2.48-4.19-.14-14.55-.49-22.18-8.54C.09,43.3.02,33.58,0,30.59c-.02-2.97.05-11.89,6.46-19.72C14.91.54,27.77.2,30.83.12c6.21-.16,11.19,1.38,14.17,2.56l-2.73,10.24c-2.56-1.11-6.23-2.13-10.92-2.13-10.24,0-18.26,6.23-18.26,19.12,0,11.52,6.83,18.78,18.35,18.78,4.01,0,8.28-.77,10.92-1.87l1.88,10.24v-.02Z"/><path class="cls-1" d="M70.28,59.52c-11.69,0-20.69-7.68-20.69-20.61s8.51-21.18,21.43-21.18c12.18,0,20.36,8.42,20.36,20.53,0,14.55-10.38,21.26-21.02,21.26,0,0-.08,0-.08,0ZM70.52,50.6c4.91,0,7.94-4.83,7.94-12.02,0-5.89-2.29-11.94-7.94-11.94s-8.17,6.05-8.17,12.02c0,6.78,2.86,11.94,8.1,11.94h.08-.01Z"/><path class="cls-1" d="M119.34,59.52c-11.69,0-20.68-7.68-20.68-20.61s8.5-21.18,21.42-21.18c12.19,0,20.36,8.42,20.36,20.53,0,14.55-10.39,21.26-21.02,21.26h-.08,0ZM119.59,50.6c4.9,0,7.93-4.83,7.93-12.02,0-5.89-2.29-11.94-7.93-11.94s-8.18,6.05-8.18,12.02c0,6.78,2.86,11.94,8.1,11.94,0,0,.08,0,.08,0Z"/></g></svg>