<?xml version="1.0" encoding="utf-8"?>
<!-- Generator: Adobe Illustrator 22.1.0, SVG Export Plug-In . SVG Version: 6.00 Build 0)  -->
<svg version="1.1" id="Layer_1" xmlns="http://www.w3.org/2000/svg" xmlns:xlink="http://www.w3.org/1999/xlink" x="0px" y="0px"
	 viewBox="0 0 478.6 205.5" style="enable-background:new 0 0 478.6 205.5;" xml:space="preserve">
<style type="text/css">
	.st0{fill:url(#SVGID_1_);}
	.st1{fill:url(#SVGID_2_);}
	.st2{filter:url(#Adobe_OpacityMaskFilter);}
	.st3{fill:url(#SVGID_4_);}
	.st4{mask:url(#SVGID_3_);fill:#FFFFFF;}
	.st5{filter:url(#Adobe_OpacityMaskFilter_1_);}
	.st6{fill:url(#SVGID_6_);}
	.st7{mask:url(#SVGID_5_);fill:#FFFFFF;}
	.st8{fill:#575756;}
	.st9{fill:#9C9B9B;}
	.st10{fill:#BD1622;}
</style>
<linearGradient id="SVGID_1_" gradientUnits="userSpaceOnUse" x1="418.9534" y1="54.8953" x2="296.0353" y2="54.8953">
	<stop  offset="0" style="stop-color:#DDDB00"/>
	<stop  offset="1" style="stop-color:#F7EB60"/>
</linearGradient>
<path class="st0" d="M332.9,105.5c-14.8,0-26.8-11.6-26.8-25.8c0-14.2,12-25.8,26.8-25.8l94.2-0.1c16.7,0,30.3-13.1,30.2-29.3
	c0-7.7-3.2-15-8.5-20.3c18.1,9.1,29.9,27.1,29.9,47.5c0,29.6-24.9,53.7-55.6,53.7L332.9,105.5L332.9,105.5z"/>
<linearGradient id="SVGID_2_" gradientUnits="userSpaceOnUse" x1="461.9117" y1="50.4062" x2="257.8427" y2="50.4062">
	<stop  offset="2.571271e-02" style="stop-color:#E20613"/>
	<stop  offset="0.2786" style="stop-color:#DB0916"/>
	<stop  offset="0.6542" style="stop-color:#C7121E"/>
	<stop  offset="0.7971" style="stop-color:#BD1622"/>
</linearGradient>
<path class="st1" d="M299.1,100.8c-18.1-9-29.8-27-29.9-47.3c0-14.3,5.8-27.7,16.3-37.8C296,5.7,310,0.1,324.9,0.1L415,0
	c14.8,0,26.8,11.5,26.8,25.7c0,14.2-12,25.7-26.8,25.7l-94.2,0.1c-16.7,0-30.3,13.1-30.3,29.2C290.6,88.3,293.8,95.5,299.1,100.8z"
	/>
<defs>
	<filter id="Adobe_OpacityMaskFilter" filterUnits="userSpaceOnUse" x="391.4" y="1.3" width="48.8" height="48.8">
		<feColorMatrix  type="matrix" values="1 0 0 0 0  0 1 0 0 0  0 0 1 0 0  0 0 0 1 0"/>
	</filter>
</defs>
<mask maskUnits="userSpaceOnUse" x="391.4" y="1.3" width="48.8" height="48.8" id="SVGID_3_">
	<g class="st2">
		
			<radialGradient id="SVGID_4_" cx="-3389.1113" cy="5807.3511" r="40.511" gradientTransform="matrix(0.9998 -1.927580e-02 1.927580e-02 0.9998 3718.1206 -5857.9775)" gradientUnits="userSpaceOnUse">
			<stop  offset="0" style="stop-color:#FFFFFF"/>
			<stop  offset="2.221942e-02" style="stop-color:#EEEEEE"/>
			<stop  offset="9.362549e-02" style="stop-color:#BDBDBD"/>
			<stop  offset="0.1706" style="stop-color:#909090"/>
			<stop  offset="0.2514" style="stop-color:#696969"/>
			<stop  offset="0.3369" style="stop-color:#484848"/>
			<stop  offset="0.4285" style="stop-color:#2E2E2E"/>
			<stop  offset="0.5286" style="stop-color:#191919"/>
			<stop  offset="0.6414" style="stop-color:#0B0B0B"/>
			<stop  offset="0.7773" style="stop-color:#030303"/>
			<stop  offset="1" style="stop-color:#000000"/>
		</radialGradient>
		<path class="st3" d="M391.1,26.1c0.3,13.5,11.4,24.3,24.9,24c13.5-0.3,24.3-11.4,24-24.9c-0.3-13.5-11.4-24.3-24.9-24
			C401.5,1.5,390.8,12.6,391.1,26.1z"/>
	</g>
</mask>
<path class="st4" d="M440.2,25.2c0.3,13.5-10.4,24.6-23.9,24.8c-13.5,0.3-24.6-10.4-24.8-23.9s10.4-24.6,23.9-24.8
	C428.8,1,439.9,11.7,440.2,25.2z"/>
<defs>
	<filter id="Adobe_OpacityMaskFilter_1_" filterUnits="userSpaceOnUse" x="307.6" y="55.4" width="48.8" height="48.8">
		<feColorMatrix  type="matrix" values="1 0 0 0 0  0 1 0 0 0  0 0 1 0 0  0 0 0 1 0"/>
	</filter>
</defs>
<mask maskUnits="userSpaceOnUse" x="307.6" y="55.4" width="48.8" height="48.8" id="SVGID_5_">
	<g class="st5">
		
			<radialGradient id="SVGID_6_" cx="-3414.1665" cy="5861.7051" r="40.511" gradientTransform="matrix(-0.9998 1.927580e-02 -1.927580e-02 -0.9998 -2994.3188 6018.2158)" gradientUnits="userSpaceOnUse">
			<stop  offset="0" style="stop-color:#FFFFFF"/>
			<stop  offset="2.221942e-02" style="stop-color:#EEEEEE"/>
			<stop  offset="9.362549e-02" style="stop-color:#BDBDBD"/>
			<stop  offset="0.1706" style="stop-color:#909090"/>
			<stop  offset="0.2514" style="stop-color:#696969"/>
			<stop  offset="0.3369" style="stop-color:#484848"/>
			<stop  offset="0.4285" style="stop-color:#2E2E2E"/>
			<stop  offset="0.5286" style="stop-color:#191919"/>
			<stop  offset="0.6414" style="stop-color:#0B0B0B"/>
			<stop  offset="0.7773" style="stop-color:#030303"/>
			<stop  offset="1" style="stop-color:#000000"/>
		</radialGradient>
		<path class="st6" d="M356.8,79.3c-0.3-13.5-11.4-24.3-24.9-24c-13.5,0.3-24.3,11.4-24,24.9c0.3,13.5,11.4,24.3,24.9,24
			C346.3,103.9,357,92.8,356.8,79.3z"/>
	</g>
</mask>
<path class="st7" d="M307.6,80.2c-0.3-13.5,10.4-24.6,23.9-24.8c13.5-0.3,24.6,10.4,24.8,23.9s-10.4,24.6-23.9,24.8
	C319,104.4,307.9,93.7,307.6,80.2z"/>
<g>
	<path class="st8" d="M29.9,85.9L40,104.6H24.9l-6.8-16.2h-4.7v16.2h-13V58.1h17.7c12.5,0,18.8,4.6,18.8,15.1
		C36.9,79.4,34.4,84.1,29.9,85.9z M18.2,68.5h-4.9v10.7h4.8c3.8,0,5.3-0.9,5.3-5.5C23.4,69.6,22.1,68.5,18.2,68.5z"/>
	<path class="st8" d="M37.8,85.4c0-12.1,5.5-19.3,17.4-19.3c10.1,0,16.1,5.7,16.1,17.7c0,1.7-0.1,3.8-0.3,5.3H50.2
		c0.5,4.6,3.2,6.3,8.8,6.3c3.4,0,6.8-0.5,10-1.6l1.3,9.2c-3.2,1.4-7.8,2.3-12.8,2.3C44,105.3,37.8,98.3,37.8,85.4z M60.4,81.6
		c-0.1-4.3-1.9-6-5.1-6c-3.6,0-4.9,1.4-5.3,6H60.4z"/>
	<path class="st8" d="M87.6,75.3v17.4c0,2.4,1.2,3.5,3.9,3.5c0.9,0,2.2-0.2,2.9-0.4l0.6,8.3c-1.4,0.7-4.2,1.2-7.2,1.2
		c-8.3,0-12.2-4.8-12.2-12.2V75.3H72v-8.6h4.2l1.9-8.1l9.4-0.8v8.9h7.9v8.6H87.6z"/>
	<path class="st8" d="M131,90.8c0,9.5-5.5,14.5-16.7,14.5s-16.7-5.1-16.7-14.5V66.7h11.9v23.9c0,3,1.4,4.5,4.8,4.5
		c3.3,0,4.7-1.4,4.7-4.5V66.7h12V90.8z"/>
	<path class="st8" d="M134.2,104.6V67l9.5-0.4l1.1,5.5h0.2c2.4-4.1,5.8-6,9.7-6c1.8,0,3.3,0.2,4.3,0.6L158.3,78
		c-1.2-0.4-2.8-0.6-4.4-0.6c-4.6,0-7.7,3-7.7,8.4v18.9H134.2z"/>
	<path class="st8" d="M183,104.6V81c0-3.5-1.6-4.8-4.6-4.8c-2,0-3.9,0.8-5,2.2v26.3h-11.9V67l8.6-0.5l1.7,3c2.8-2.2,6.3-3.4,10-3.4
		c8,0,13.1,5.3,13.1,14.9v23.7H183z"/>
	<path class="st9" d="M208.8,73.4v20.8c0,3.3,1.7,4.6,4.9,4.6c1,0,2.4-0.2,3-0.4l0.5,5.9c-1.2,0.6-3.5,1-5.8,1
		c-7,0-10.5-4-10.5-10.9v-21h-4.6v-6.1h4.9l1.4-8.7l6.2-0.6v9.4h8.7v6.1H208.8z"/>
	<path class="st9" d="M235.8,105.5c-11.5,0-16.7-5.6-16.7-19.4c0-13.8,5.2-19.5,16.7-19.5c11.6,0,16.6,5.7,16.6,19.5
		C252.3,99.9,247.4,105.5,235.8,105.5z M235.8,98.9c6.1,0,8.4-3,8.4-12.8s-2.3-12.8-8.4-12.8c-6.2,0-8.6,3-8.6,12.8
		S229.6,98.9,235.8,98.9z"/>
	<path class="st8" d="M74.9,114.9l10.2,55l1.7,9.5h0.4l1.3-9.5l9.1-55h24.5l-20.6,88.9H71.9l-9.2-53.6l-1.4-9.6h-0.4l-1.5,9.6
		l-9.2,53.6H20.6L0,114.9h25.8l8.9,55.3l1.4,9.5h0.4l1.5-9.5l10.2-55.3H74.9z"/>
	<path class="st8" d="M150,205.5c-23.7,0-34.2-11-34.2-37.6s10.7-37.9,34.4-37.9c23.8,0,34.1,11.4,34.1,37.9S174,205.5,150,205.5z
		 M150.1,187.7c7.8,0,10.5-3.8,10.5-19.8c0-16.2-2.7-19.8-10.5-19.8c-7.9,0-10.7,3.6-10.7,19.8C139.5,184,142.3,187.7,150.1,187.7z"
		/>
	<path class="st8" d="M187.8,203.8v-71.9L206,131l2,10.4h0.4c4.5-7.8,11.1-11.4,18.6-11.4c3.4,0,6.3,0.5,8.2,1.2l-1.3,21.6
		c-2.4-0.7-5.3-1.2-8.4-1.2c-8.8,0-14.7,5.7-14.7,16v36.1H187.8z"/>
	<path class="st8" d="M261.4,156.3h8.1l11.7-25h24.9l-17.2,32.9l17.7,39.6h-25.4l-11.9-29.7h-7.9v29.7h-22.8v-91.6l22.8-1.1V156.3z"
		/>
	<path class="st10" d="M335.9,205.5c-10.3,0-20.3-2.4-28.3-6.5l3.1-20.5c8.1,4,16.4,6.4,25,6.4c7.9,0,11-2.4,11-6.8
		c0-10.9-39-6.3-39-36.3c0-15.6,10.1-28.4,33.9-28.4c8.9,0,18.6,1.7,25.8,4.5l-2.8,20c-7.7-2.3-15.3-3.4-21.6-3.4
		c-9.6,0-11.5,2.6-11.5,6c0,11,38.9,6,38.9,36C370.4,194.3,357.4,205.5,335.9,205.5z"/>
	<path class="st10" d="M424.8,188.5h-27.5l-3.9,15.3h-26.2l29.5-88.9h29.6l30,88.9h-27.6L424.8,188.5z M408.8,143.8l-6.4,24.9h17.4
		l-6.3-24.8l-2.1-9.5h-0.4L408.8,143.8z"/>
</g>
</svg>
