<svg width="96" height="96" viewBox="0 0 96 96" fill="none" xmlns="http://www.w3.org/2000/svg">
  <rect x="10" y="10" width="76" height="76" rx="18" fill="#F7F1E8"/>
  <path d="M31 27.5L59.4 25.4C62.9 25.1 63.8 25.3 66 26.9L75.1 33.2C76.6 34.3 77.1 34.6 77.1 35.8V70.8C77.1 73 76.3 74.3 73.5 74.5L40.3 76.5C38.2 76.6 37.2 76.3 36.1 74.9L29.4 66.2C28.2 64.6 27.7 63.4 27.7 62V31C27.7 29.2 28.5 27.7 31 27.5Z" fill="#111113"/>
  <path d="M64.4 42.7C64.6 43.6 64.4 44.5 63.5 44.6L62 44.9V66.9C60.7 67.6 59.5 68 58.5 68C56.9 68 56.5 67.5 55.3 66L45.5 50.6V65.5L48.6 66.2C48.6 66.2 48.6 68 46.1 68L39.2 68.4C39 68 39.2 67 39.9 66.8L41.7 66.3V46.7L39.2 46.5C39 45.6 39.5 44.3 40.9 44.2L48.3 43.7L58.5 59.3V45.6L55.9 45.3C55.7 44.2 56.5 43.4 57.5 43.3L64.4 42.7Z" fill="#F7F1E8"/>
</svg>
