<svg xmlns="http://www.w3.org/2000/svg" width="1200" height="630" viewBox="0 0 1200 630" role="img" aria-labelledby="title desc">
  <title id="title">Example Domain Mobile Conversion Concept</title>
  <desc id="desc">Elinext prototype concept for modernizing the Example Domain placeholder page.</desc>
  <defs>
    <linearGradient id="bg" x1="0" x2="1" y1="0" y2="1">
      <stop offset="0%" stop-color="#fbf7f1"/>
      <stop offset="100%" stop-color="#eadbcf"/>
    </linearGradient>
    <linearGradient id="accent" x1="0" x2="1" y1="0" y2="1">
      <stop offset="0%" stop-color="#bb5b3b"/>
      <stop offset="100%" stop-color="#7d3722"/>
    </linearGradient>
  </defs>
  <rect width="1200" height="630" fill="url(#bg)"/>
  <circle cx="1060" cy="110" r="180" fill="#bb5b3b" opacity="0.08"/>
  <circle cx="130" cy="560" r="200" fill="#16212b" opacity="0.08"/>
  <rect x="72" y="76" width="1056" height="478" rx="32" fill="#fffaf4" stroke="#e5d7ca"/>
  <text x="120" y="162" fill="#7d3722" font-family="Georgia, serif" font-size="28" font-weight="700" letter-spacing="2">ELINEXT MOBILE CONCEPT</text>
  <text x="120" y="258" fill="#16212b" font-family="Georgia, serif" font-size="72" font-weight="700">Example Domain</text>
  <text x="120" y="332" fill="#4f5f6c" font-family="Arial, sans-serif" font-size="30">From placeholder page to mobile-ready, analytics-aware lead surface.</text>
  <rect x="120" y="388" width="270" height="62" rx="31" fill="url(#accent)"/>
  <text x="167" y="428" fill="#ffffff" font-family="Arial, sans-serif" font-size="28" font-weight="700">See CTA Flow</text>
  <rect x="792" y="132" width="220" height="348" rx="28" fill="#16212b"/>
  <rect x="808" y="150" width="188" height="312" rx="22" fill="#f6efe8"/>
  <rect x="858" y="169" width="88" height="8" rx="4" fill="#b8a999"/>
  <rect x="830" y="206" width="144" height="28" rx="14" fill="#efd8ca"/>
  <rect x="830" y="250" width="144" height="48" rx="18" fill="#bb5b3b"/>
  <rect x="830" y="320" width="144" height="14" rx="7" fill="#d3c5b6"/>
  <rect x="830" y="348" width="144" height="14" rx="7" fill="#d3c5b6"/>
  <rect x="830" y="392" width="144" height="48" rx="18" fill="#ffffff" stroke="#d9cabb"/>
</svg>
