<svg xmlns="http://www.w3.org/2000/svg" width="176" height="28" viewBox="0 0 176 28" fill="none"><g clip-path="url(#clip0_901_225)"><path d="M8.83164 21.7247C7.82974 21.7247 6.27147 21.5004 5.71509 21.0623C5.12888 20.6008 4.83257 19.8529 4.83257 18.8422L4.8752 7.54096H0V7.14566C0 6.37856 0.221697 4.98113 0.658696 4.50677C1.10422 4.02386 1.73094 3.78027 2.5218 3.78027H14.0138V4.17557C14.0138 4.94053 13.7921 6.3401 13.3551 6.81232C12.9096 7.29309 12.2829 7.53882 11.492 7.53882H9.11516L9.13861 19.1713C9.13861 19.6115 9.14074 19.9726 9.14927 20.2482C9.15779 20.5196 9.16632 20.7333 9.18124 20.8914C9.19403 21.0581 9.20895 21.182 9.22175 21.2632L9.29636 21.7204H8.83164V21.7247Z" fill="#BE4638"></path><path d="M16.6956 13.5003C16.9003 13.5452 17.1433 13.5901 17.4225 13.6307C17.7082 13.6755 17.996 13.6969 18.2795 13.6969C18.4713 13.6969 18.661 13.6884 18.8508 13.667C19.2942 13.6221 19.6864 13.4939 20.0147 13.2888C20.1831 13.1841 20.4048 12.9832 20.4389 12.4213C20.4623 12.1285 20.3515 11.8935 20.0936 11.6777C19.842 11.4683 19.4604 11.3636 18.9595 11.3636C18.8998 11.3636 18.838 11.3636 18.7762 11.3678C18.6333 11.3807 18.4351 11.4234 18.207 11.4918C18.0045 11.5516 17.7998 11.6691 17.5952 11.8379C17.3906 12.0089 17.1923 12.2653 17.0132 12.5965C16.8789 12.8422 16.7724 13.1456 16.6935 13.5025M18.7548 21.7247C17.8894 21.7247 17.0601 21.5473 16.2927 21.1969C15.5338 20.8486 14.8538 20.3572 14.2719 19.7396C13.7112 19.1371 13.2614 18.4213 12.9332 17.6072C12.607 16.7952 12.4429 15.9106 12.4429 14.9768C12.4429 14.0431 12.5878 13.1691 12.8756 12.3614C13.1655 11.5452 13.5876 10.8187 14.1312 10.199C14.6833 9.58792 15.3569 9.10074 16.1371 8.74177C16.9194 8.3828 17.802 8.20117 18.7548 8.20117C19.2792 8.20117 19.8591 8.28023 20.4815 8.43835C21.1125 8.59861 21.7072 8.85716 22.2551 9.20545C22.8179 9.56656 23.289 10.0431 23.6556 10.6242C24.0351 11.2225 24.2269 11.9448 24.2269 12.7653C24.2269 13.5858 24.0074 14.2802 23.5704 14.8101C23.1632 15.3037 22.6729 15.699 22.108 15.9811C21.5602 16.2546 20.9739 16.4469 20.3643 16.5495C19.7781 16.6499 19.2515 16.7012 18.8039 16.7012C18.1366 16.7012 17.5419 16.6584 17.0388 16.5751C16.9152 16.5537 16.8001 16.5366 16.6956 16.5195C16.7617 16.8059 16.8512 17.058 16.9599 17.2631C17.1433 17.605 17.3458 17.8742 17.5632 18.0623C17.7743 18.246 17.981 18.3678 18.1771 18.4277C18.3946 18.4918 18.5886 18.526 18.7527 18.526C19.0895 18.526 19.4093 18.4939 19.7034 18.4319C20.0168 18.3657 20.2982 18.2931 20.5455 18.2097C20.8034 18.1243 21.0464 18.0388 21.2788 17.9512C21.5644 17.8465 21.8543 17.7909 22.1336 17.7909C22.4661 17.7909 22.771 17.8785 23.0396 18.0473C23.2868 18.1905 23.532 18.4405 23.7558 18.7738L24.1331 19.1478L23.7238 19.5601C23.1163 20.2225 22.3723 20.761 21.5261 21.1413C20.6734 21.5238 19.7397 21.7204 18.7527 21.7204" fill="#BE4638"></path><path d="M29.0871 21.4568C27.921 21.4568 26.9959 21.1982 26.3372 20.6897C25.6423 20.1512 25.2905 19.2709 25.2905 18.0722V14.6555C25.2905 13.4183 25.4781 12.3863 25.8448 11.5828C26.2157 10.7709 26.706 10.1234 27.3071 9.65977C27.9019 9.19823 28.5776 8.88199 29.313 8.71746C30.0165 8.56148 30.7264 8.48242 31.4192 8.48242H33.0712L33.1565 8.8414C33.2588 9.26875 33.2759 9.67687 33.2162 10.0508C33.1714 10.3841 33.0179 10.7196 32.7621 11.0316C32.4829 11.3734 32.048 11.5786 31.4725 11.6448C31.2103 11.6769 30.9438 11.7367 30.688 11.82C30.4706 11.8927 30.2808 12.0166 30.1018 12.2004C29.9249 12.3863 29.7692 12.6683 29.6456 13.038C29.5134 13.4247 29.4473 13.9675 29.4473 14.6491V18.4611C29.4473 18.9803 29.4516 19.4012 29.458 19.7239C29.4665 20.0337 29.4793 20.2837 29.4964 20.4675C29.5113 20.6662 29.5284 20.8093 29.5454 20.9055L29.6349 21.4482H29.085L29.0871 21.4568Z" fill="#BE4638"></path><path d="M36.6633 21.4568C35.4972 21.4568 34.5699 21.1982 33.9134 20.6897C33.2206 20.1512 32.8667 19.2709 32.8667 18.0722V14.6555C32.8667 13.4205 33.0522 12.3863 33.4209 11.5828C33.7919 10.7709 34.2843 10.1234 34.8833 9.65977C35.478 9.19823 36.1517 8.88199 36.8892 8.71746C37.5927 8.56148 38.3004 8.48242 38.9953 8.48242H40.6474L40.7327 8.8414C40.835 9.26875 40.8542 9.67687 40.7924 10.0508C40.7476 10.3863 40.5941 10.7217 40.3383 11.0337C40.0612 11.3756 39.6263 11.5807 39.0486 11.647C38.7864 11.679 38.5221 11.7388 38.2642 11.8222C38.0467 11.8948 37.857 12.0187 37.6801 12.2025C37.501 12.3884 37.3454 12.6726 37.2218 13.0401C37.0896 13.4269 37.0235 13.9696 37.0235 14.6534V18.4653C37.0235 18.9846 37.0278 19.4055 37.0342 19.7281C37.0427 20.038 37.0555 20.288 37.0726 20.4717C37.0896 20.6705 37.1045 20.8136 37.1194 20.9098L37.2132 21.4546H36.6611L36.6633 21.4568Z" fill="#BE4638"></path><path d="M46.889 15.8613C46.6566 15.8613 46.4392 15.8719 46.2367 15.8976C46.0469 15.9189 45.87 15.9595 45.7123 16.0172C45.3477 16.1348 45.0962 16.295 44.9257 16.5194C44.8574 16.6006 44.8127 16.6754 44.7786 16.7651C44.7423 16.857 44.7167 16.9595 44.7061 17.0749L44.6997 17.1262L44.6826 17.1754C44.6826 17.1754 44.6826 17.2181 44.6826 17.2587C44.6826 17.3933 44.704 17.545 44.7466 17.7053C44.7807 17.8356 44.8489 17.9574 44.9555 18.0771C45.0663 18.2138 45.2177 18.3207 45.4181 18.4104C45.6249 18.5044 45.9276 18.5514 46.3155 18.5514C46.4605 18.5514 46.5095 18.5407 46.5095 18.5407L46.5564 18.5301L46.614 18.5236C47.0126 18.5108 47.3515 18.3997 47.6457 18.1903C47.8077 18.092 47.9143 18.0023 48.0017 17.8933C48.0998 17.7715 48.1872 17.6369 48.2596 17.4916C48.4387 17.1818 48.5538 16.8848 48.6135 16.5835C48.6497 16.404 48.6753 16.2309 48.6902 16.0664C48.6199 16.0514 48.5368 16.0301 48.4451 16.0023C48.2298 15.9702 47.9846 15.9382 47.7139 15.904C47.4475 15.8719 47.1703 15.8548 46.8932 15.8548M46.3688 21.716C45.9872 21.716 45.5758 21.6839 45.1452 21.6177C44.6976 21.5493 44.2584 21.4168 43.8406 21.2266C43.4228 21.0642 43.0157 20.8335 42.6511 20.5557C42.2696 20.263 41.9455 19.8848 41.6876 19.4275C41.3252 18.8741 41.1227 18.1647 41.1035 17.3442V17.1775C41.1035 16.4104 41.2677 15.7523 41.5917 15.2245C41.8581 14.7245 42.2887 14.2694 42.86 13.8954C43.3759 13.5685 43.9621 13.3228 44.6016 13.1647C45.2262 13.0066 45.8934 12.9275 46.5756 12.9275C47.2577 12.9275 47.9463 13.0023 48.5986 13.1476C48.5453 12.9232 48.4813 12.7138 48.4003 12.5215C48.2149 12.0792 47.9484 11.7651 47.586 11.5707C47.4602 11.5087 47.3068 11.4553 47.1448 11.4189C46.9764 11.3826 46.776 11.3634 46.5479 11.3634H46.2601C46.0746 11.3783 45.8551 11.4147 45.6398 11.4681C45.4074 11.5258 45.1751 11.5984 44.9491 11.6775C44.6912 11.7694 44.4311 11.8506 44.171 11.9147C43.8896 11.9873 43.6125 12.0215 43.3503 12.0215C43.0412 12.0215 42.7364 11.9531 42.4486 11.8207C42.1289 11.6369 41.8858 11.3741 41.6876 11.0215L41.5021 10.654L41.726 10.3164L41.7516 10.2886C42.3143 9.68604 42.9815 9.19886 43.7383 8.83348C44.4887 8.47236 45.3179 8.25869 46.2025 8.19886C46.3113 8.17749 46.4051 8.16895 46.4839 8.16895H46.7056C47.569 8.16895 48.3726 8.32706 49.0931 8.64117C49.8115 8.95313 50.4446 9.39117 50.9733 9.94031C52.0519 11.1155 52.6126 12.6604 52.6509 14.5386V14.7587C52.6509 16.6818 52.1479 18.2736 51.1566 19.4937C50.6663 20.0984 50.0695 20.5963 49.3809 20.9745C48.6902 21.3527 47.9143 21.592 47.0701 21.686C46.9657 21.7053 46.8314 21.716 46.7035 21.716H46.3624H46.3688Z" fill="#BE4638"></path><path d="M59.8946 21.7225C59.0099 21.7225 58.17 21.5409 57.4026 21.1798C56.6437 20.8251 55.9658 20.3401 55.3903 19.7418C54.8232 19.1392 54.3734 18.4213 54.0452 17.6072C53.719 16.7952 53.5527 15.9106 53.5527 14.9768C53.5527 14.0431 53.7041 13.167 54.0025 12.3572C54.2988 11.5452 54.7252 10.8208 55.2688 10.199C55.8187 9.58792 56.4881 9.10074 57.2598 8.74391C58.0336 8.3828 58.9118 8.20117 59.8668 8.20117C60.8218 8.20117 61.7896 8.39562 62.6402 8.78023C63.4907 9.16485 64.2347 9.70331 64.8508 10.3764L65.2004 10.7268L64.8806 11.1563C64.6653 11.5131 64.4074 11.7653 64.1196 11.8956C63.8531 12.0537 63.5845 12.1328 63.3202 12.1328C63.284 12.1328 63.2477 12.1328 63.2093 12.1285H63.1966C62.9621 12.1285 62.6828 12.0815 62.4057 11.9896L61.6575 11.7375C61.3931 11.6328 61.1139 11.5473 60.8048 11.4725C60.5106 11.402 60.193 11.3678 59.8647 11.3678C59.6899 11.3678 59.4703 11.4127 59.2167 11.5003C58.9801 11.5815 58.7477 11.7418 58.5217 11.9747C58.2894 12.214 58.0869 12.5751 57.9163 13.0452C57.7437 13.526 57.6563 14.167 57.6563 14.949C57.6563 15.7311 57.7437 16.3721 57.9185 16.8529C58.0869 17.3208 58.2915 17.6798 58.5239 17.9213C58.7498 18.1563 58.9843 18.3166 59.2188 18.3956C59.4725 18.4832 59.692 18.5281 59.8668 18.5281C60.2036 18.5281 60.5234 18.496 60.8176 18.4341C61.1309 18.37 61.4145 18.2952 61.6617 18.2119C61.9069 18.1136 62.1648 18.0174 62.4078 17.9362C62.6892 17.8422 62.9727 17.7952 63.2498 17.7952C63.5526 17.7952 63.8574 17.8743 64.1537 18.0345C64.4223 18.2054 64.661 18.4384 64.9083 18.7695L64.9339 18.8037L65.1556 19.246L64.8422 19.5623C64.2347 20.2268 63.4907 20.7631 62.6444 21.1456C61.7918 21.5281 60.8666 21.7247 59.8967 21.7247" fill="#BE4638"></path><path d="M88.4335 21.7476C87.7897 21.7476 87.1502 21.6002 86.5299 21.3074C85.916 21.019 85.3532 20.5831 84.8544 20.0083C84.3641 19.4399 83.9676 18.7305 83.6798 17.8972C83.392 17.0745 83.2471 16.098 83.2471 14.9997L83.2748 9.75187C83.2748 8.55956 83.6159 7.67708 84.2852 7.13221C84.9269 6.60871 85.8456 6.34375 87.0159 6.34375H87.5489L87.4764 6.87366C87.4614 6.99119 87.4423 7.14717 87.4273 7.34802C87.4103 7.53606 87.3975 7.78392 87.389 8.09589C87.3783 8.42067 87.3762 8.83948 87.3762 9.35871L87.3932 10.1044H90.9169V10.5724C90.9169 11.4784 90.6547 12.222 90.1367 12.7818C89.6102 13.3502 88.8684 13.6386 87.9326 13.6386H87.3954L87.3762 15.0019C87.3762 15.6899 87.438 16.2732 87.5574 16.7284C87.6725 17.1685 87.8281 17.5296 88.0221 17.7989C88.3909 18.2647 88.8726 18.4976 89.4802 18.4976C89.7509 18.4976 90.0259 18.4591 90.2987 18.3822C90.4586 18.3352 90.6185 18.2839 90.772 18.2326L91.388 18.0254V18.6749C91.388 18.6749 91.388 18.6985 91.3987 18.7433C91.4435 18.9207 91.4648 19.0916 91.4648 19.254C91.4648 19.6493 91.3753 20.0126 91.1962 20.3352C91.0257 20.6472 90.7848 20.9143 90.4842 21.1343C89.915 21.5403 89.2244 21.7455 88.4292 21.7455" fill="#BE4638"></path><path d="M97.0329 21.7476C96.387 21.7476 95.7475 21.6002 95.1315 21.3074C94.5154 21.019 93.9526 20.5831 93.4581 20.0083C92.9678 19.442 92.5691 18.7326 92.2814 17.8972C91.9957 17.0767 91.8486 16.1002 91.8486 14.9997L91.8742 9.75187C91.8742 8.55742 92.2153 7.67708 92.8846 7.13221C93.5263 6.60871 94.445 6.34375 95.6154 6.34375H96.1525L96.0779 6.87794C96.0609 6.99332 96.046 7.14931 96.0289 7.35016C96.0118 7.54033 95.9991 7.78819 95.9905 8.09802C95.982 8.42067 95.9799 8.84161 95.9799 9.36298L95.9948 10.1087H99.5185V10.5767C99.5185 11.4826 99.2563 12.2262 98.7404 12.7861C98.2139 13.3544 97.4721 13.6429 96.5362 13.6429H95.9991L95.9799 15.0061C95.9799 15.6942 96.0417 16.2775 96.1589 16.7348C96.2762 17.1749 96.4318 17.5339 96.6258 17.8032C96.9946 18.269 97.4742 18.5019 98.0839 18.5019C98.3546 18.5019 98.6296 18.4634 98.9024 18.3865C99.0623 18.3395 99.2222 18.2882 99.3757 18.2369L99.9896 18.0296V18.6792C99.9896 18.6792 99.9896 18.7027 100.002 18.754C100.045 18.9314 100.068 19.098 100.068 19.2583C100.068 19.6536 99.9768 20.0168 99.7999 20.3395C99.6293 20.6493 99.3885 20.9185 99.0858 21.1386C98.5187 21.5446 97.8281 21.7497 97.0329 21.7497" fill="#BE4638"></path><path d="M106.103 15.8609C105.869 15.8609 105.656 15.8716 105.449 15.8972C105.259 15.9207 105.082 15.9592 104.925 16.0169C104.566 16.1301 104.306 16.2989 104.14 16.519C104.074 16.6002 104.027 16.6771 103.991 16.7647C103.957 16.8523 103.931 16.9592 103.918 17.0767L103.912 17.1216L103.899 17.1643C103.899 17.1814 103.897 17.2156 103.897 17.2605C103.897 17.3993 103.918 17.5511 103.961 17.707C103.993 17.8374 104.063 17.9592 104.172 18.081C104.281 18.2156 104.43 18.3224 104.63 18.4122C104.839 18.5062 105.142 18.5532 105.528 18.5532C105.675 18.5532 105.722 18.5425 105.726 18.5425L105.773 18.5318L105.826 18.5276C106.225 18.5147 106.562 18.4036 106.856 18.1942C107.018 18.0959 107.122 18.004 107.21 17.8972C107.312 17.7733 107.399 17.6408 107.468 17.4976C107.649 17.1857 107.762 16.8865 107.822 16.5874C107.858 16.4058 107.883 16.2348 107.898 16.0703C107.826 16.0553 107.743 16.034 107.653 16.0062C107.436 15.9741 107.193 15.9421 106.922 15.9079C106.655 15.8758 106.378 15.8587 106.101 15.8587M105.577 21.7199C105.193 21.7199 104.782 21.6878 104.353 21.6216C103.906 21.5532 103.469 21.4207 103.051 21.2305C102.631 21.0682 102.224 20.8374 101.859 20.5596C101.478 20.2669 101.151 19.8865 100.898 19.4314C100.535 18.8823 100.331 18.1707 100.312 17.3481V17.1814C100.312 16.4143 100.478 15.7562 100.8 15.2284C101.068 14.7284 101.499 14.2733 102.068 13.8993C102.586 13.5724 103.17 13.3267 103.812 13.1686C104.438 13.0105 105.104 12.9314 105.786 12.9314C106.468 12.9314 107.156 13.0062 107.809 13.1515C107.755 12.9271 107.689 12.7177 107.61 12.5254C107.425 12.0831 107.159 11.769 106.798 11.5746C106.673 11.5126 106.519 11.4592 106.355 11.4229C106.189 11.3865 105.986 11.3673 105.76 11.3673H105.472C105.289 11.3823 105.067 11.4186 104.852 11.472C104.622 11.5297 104.389 11.6023 104.161 11.6835C103.908 11.7733 103.646 11.8545 103.383 11.9186C103.102 11.9912 102.827 12.0254 102.563 12.0254C102.254 12.0254 101.951 11.957 101.659 11.8246C101.339 11.6408 101.096 11.378 100.898 11.0254L100.712 10.6579L100.938 10.3203L100.966 10.2925C101.527 9.69208 102.196 9.20277 102.953 8.83738C103.705 8.47627 104.532 8.2626 105.415 8.20277C105.526 8.1814 105.619 8.17285 105.698 8.17285H105.922C106.786 8.17285 107.587 8.33097 108.31 8.64507C109.026 8.95704 109.659 9.39507 110.19 9.94422C111.268 11.1194 111.831 12.6643 111.867 14.5425V14.7626C111.867 16.6857 111.364 18.2776 110.373 19.4976C109.883 20.1002 109.286 20.6002 108.595 20.9784C107.909 21.3566 107.133 21.5959 106.287 21.6899C106.18 21.7092 106.048 21.7199 105.922 21.7199H105.581H105.577Z" fill="#BE4638"></path><path d="M73.2028 21.4827C73.3414 21.4912 73.4778 21.504 73.6206 21.504C77.1891 21.504 80.1692 18.9955 80.9153 15.6451C79.8772 16.3737 74.9466 19.848 73.2028 21.4827ZM67.4877 9.71343C66.6372 10.9292 66.1362 12.4057 66.1362 14.004C66.1362 14.4442 66.181 14.8737 66.2535 15.2925C67.2127 14.472 70.4039 11.8865 74.0065 10.5767C74.0065 10.5767 68.2914 14.7498 67.0252 17.5532C67.7691 18.9335 68.9394 20.0468 70.3527 20.7369C70.9645 19.831 73.1048 17.0361 77.916 14.0831C77.916 14.0831 73.0643 17.7583 70.9176 20.9827C70.9986 21.0147 71.086 21.0382 71.1692 21.0681C71.6381 20.6365 73.2668 19.2647 76.8587 17.3245C77.4342 17.0297 80.101 15.6472 81.007 15.1151C81.0624 14.7519 81.0965 14.3822 81.0965 14.004C81.0965 10.2839 78.3935 7.20702 74.8528 6.61301C73.2945 6.88437 70.1673 7.65574 67.4856 9.7113M68.6111 8.35446C71.4975 6.75617 74.5053 6.51685 74.5053 6.51685C74.2729 6.49976 74.0491 6.49121 73.8317 6.49121C70.4444 6.49121 68.6111 8.35446 68.6111 8.35446Z" fill="url(#paint0_linear_901_225)"></path><mask id="mask0_901_225" style="mask-type:luminance" maskUnits="userSpaceOnUse" x="66" y="6" width="16" height="16"><path d="M73.2028 21.4827C73.3414 21.4912 73.4778 21.504 73.6206 21.504C77.1891 21.504 80.1692 18.9955 80.9153 15.6451C79.8772 16.3737 74.9466 19.848 73.2028 21.4827ZM67.4877 9.71343C66.6372 10.9292 66.1362 12.4057 66.1362 14.004C66.1362 14.4442 66.181 14.8737 66.2535 15.2925C67.2127 14.472 70.4039 11.8865 74.0065 10.5767C74.0065 10.5767 68.2914 14.7498 67.0252 17.5532C67.7691 18.9335 68.9394 20.0468 70.3527 20.7369C70.9645 19.831 73.1048 17.0361 77.916 14.0831C77.916 14.0831 73.0643 17.7583 70.9176 20.9827C70.9986 21.0147 71.086 21.0382 71.1692 21.0681C71.6381 20.6365 73.2668 19.2647 76.8587 17.3245C77.4342 17.0297 80.101 15.6472 81.007 15.1151C81.0624 14.7519 81.0965 14.3822 81.0965 14.004C81.0965 10.2839 78.3935 7.20702 74.8528 6.61301C73.2945 6.88437 70.1673 7.65574 67.4856 9.7113M68.6111 8.35446C71.4975 6.75617 74.5053 6.51685 74.5053 6.51685C74.2729 6.49976 74.0491 6.49121 73.8317 6.49121C70.4444 6.49121 68.6111 8.35446 68.6111 8.35446Z" fill="white"></path></mask><g mask="url(#mask0_901_225)"><path d="M77.3598 -0.00168027L59.6538 10.2451L69.8796 27.9986L87.5856 17.7518L77.3598 -0.00168027Z" fill="url(#paint1_linear_901_225)"></path></g><path d="M148.134 18.3353C147.642 18.3375 147.147 18.3545 146.655 18.3396C146.39 18.331 146.295 18.4229 146.273 18.6836C146.122 20.658 144.376 22.1622 142.17 22.1558C141.53 22.1537 140.91 22.0041 140.324 21.7328C140.07 21.6152 139.876 20.7947 140.061 20.6024C140.185 20.4721 140.296 20.6045 140.403 20.6494C141.281 21.0063 142.18 21.1622 143.097 20.8375C144.105 20.4806 144.711 19.7477 144.973 18.7157C145.037 18.4614 144.994 18.3567 144.692 18.3353C143.837 18.2798 142.973 18.3161 142.129 18.1195C140.424 17.7221 139.394 16.6708 139.149 14.9336C138.947 13.4998 139.038 12.0917 139.944 10.8652C141.268 9.07677 144.434 9.05327 145.706 10.8161C146.175 11.4657 146.299 12.2178 146.307 12.9892C146.322 14.2328 146.322 15.4785 146.305 16.7242C146.301 17.0362 146.386 17.143 146.702 17.1281C147.177 17.1067 147.657 17.1281 148.134 17.1281C147.983 17.5298 147.981 17.9315 148.134 18.3332V18.3353ZM145.03 14.7563C144.992 14.002 145.116 13.1067 144.907 12.2221C144.777 11.6665 144.512 11.2199 143.99 10.955C142.752 10.3225 141.251 10.8246 140.688 12.0896C140.243 13.0896 140.258 14.1387 140.524 15.1793C140.763 16.111 141.419 16.6622 142.321 16.9122C143.078 17.1216 143.86 17.1045 144.64 17.1281C144.977 17.1387 145.039 16.9956 145.033 16.7071C145.02 16.1024 145.028 15.4956 145.028 14.7563H145.03Z" fill="#BE4638"></path><path d="M142.187 22.519H142.17C141.494 22.5169 140.822 22.363 140.174 22.0617C139.818 21.8972 139.691 21.3545 139.659 21.1921C139.61 20.9293 139.593 20.5682 139.801 20.3502C139.934 20.2113 140.079 20.1814 140.177 20.1814C140.33 20.1814 140.445 20.2519 140.513 20.2925C140.524 20.2989 140.535 20.3053 140.545 20.3117C141.488 20.6942 142.251 20.7498 142.98 20.4912C143.824 20.1921 144.357 19.6023 144.606 18.69C144.393 18.6771 144.178 18.6707 143.965 18.6622C143.34 18.6408 142.694 18.6173 142.052 18.4677C140.183 18.0318 139.057 16.8267 138.795 14.9784C138.537 13.1643 138.812 11.7861 139.659 10.6429C140.356 9.70064 141.56 9.13867 142.884 9.13867C144.208 9.13867 145.346 9.68354 146.005 10.5959C146.582 11.3972 146.665 12.2904 146.674 12.9784C146.689 14.2327 146.689 15.4934 146.672 16.722C146.672 16.737 146.672 16.7476 146.672 16.7583H146.689C147.032 16.7412 147.375 16.7476 147.719 16.7541C147.859 16.7562 148 16.7583 148.141 16.7605H148.663L148.477 17.2519C148.356 17.5724 148.356 17.8823 148.477 18.1985L148.665 18.6878H148.141C147.998 18.6921 147.853 18.6942 147.71 18.6964C147.356 18.7006 147 18.707 146.646 18.6964H146.64C146.64 18.6964 146.64 18.7028 146.64 18.7049C146.474 20.8759 144.562 22.5126 142.191 22.5126L142.187 22.519ZM140.501 21.4143C141.046 21.6643 141.607 21.7904 142.172 21.7925L142.187 22.1558V21.7925C144.174 21.7925 145.777 20.4442 145.913 18.6558C145.958 18.0639 146.378 17.9741 146.623 17.9741H146.668C147.002 17.9848 147.337 17.9806 147.674 17.9763C147.652 17.8139 147.652 17.6494 147.674 17.4848C147.356 17.4784 147.039 17.4741 146.721 17.4891C146.697 17.4891 146.674 17.4891 146.651 17.4891C146.567 17.4891 146.314 17.4891 146.13 17.3032C145.96 17.1301 145.943 16.8994 145.945 16.7156C145.962 15.4934 145.962 14.2391 145.947 12.9912C145.936 12.128 145.772 11.5212 145.414 11.0276C144.89 10.3032 143.943 9.86944 142.88 9.86944C141.816 9.86944 140.797 10.3224 140.236 11.0788C139.511 12.0575 139.279 13.2647 139.509 14.878C139.731 16.4464 140.616 17.3887 142.212 17.7605C142.786 17.8951 143.37 17.9143 143.986 17.9357C144.229 17.9442 144.472 17.9528 144.715 17.9677C144.879 17.9784 145.116 18.0147 145.261 18.2135C145.418 18.4314 145.352 18.6878 145.325 18.7989C145.024 19.987 144.314 20.7861 143.219 21.175C142.353 21.4806 141.434 21.4357 140.364 21.019C140.39 21.1686 140.447 21.3438 140.501 21.41V21.4143ZM144.674 17.4934H144.63C144.508 17.4891 144.387 17.487 144.265 17.4827C143.598 17.4677 142.907 17.4506 142.227 17.2626C141.142 16.9635 140.432 16.2733 140.174 15.269C139.861 14.0447 139.923 12.925 140.36 11.9421C140.799 10.9549 141.782 10.3182 142.867 10.3182C143.31 10.3182 143.756 10.4271 144.156 10.6323C144.73 10.925 145.09 11.4186 145.261 12.1408C145.412 12.7818 145.399 13.4229 145.391 13.9891C145.386 14.2541 145.382 14.5062 145.393 14.7391V15.3994C145.391 15.863 145.389 16.2818 145.397 16.7006C145.401 16.8887 145.384 17.1237 145.212 17.2989C145.086 17.4293 144.909 17.4912 144.674 17.4912V17.4934ZM142.867 11.0447C142.057 11.0447 141.349 11.5019 141.021 12.2391C140.648 13.081 140.599 14.0126 140.876 15.0895C141.068 15.8374 141.586 16.3331 142.419 16.5639C143.014 16.7284 143.63 16.7412 144.282 16.7562C144.406 16.7583 144.53 16.7626 144.653 16.7669C144.66 16.7669 144.666 16.7669 144.672 16.7669C144.672 16.7519 144.672 16.737 144.672 16.7177C144.664 16.2925 144.666 15.8673 144.666 15.3972V14.7583C144.655 14.519 144.66 14.2562 144.666 13.9763C144.677 13.4271 144.685 12.8588 144.555 12.3075C144.436 11.7989 144.203 11.472 143.828 11.2797C143.525 11.1237 143.201 11.0468 142.869 11.0468L142.867 11.0447Z" fill="#BE4638"></path><path d="M148.42 17.1303C149.835 17.1281 151.255 17.0705 152.666 17.1346C154.83 17.2328 155.328 15.8418 155.16 14.1452C154.977 12.3034 153.427 11.485 151.905 11.3781C151.184 11.329 150.475 11.4123 149.788 11.6367C149.502 11.7307 149.417 11.6666 149.392 11.3461C149.343 10.7307 149.534 10.2713 149.965 9.81618C151.127 8.59396 152.274 7.3525 153.344 6.05122C153.86 5.42515 154.422 5.30977 155.222 5.46575C153.89 6.98285 152.587 8.46575 151.221 10.0213C151.969 10.0427 152.623 10.0918 153.265 10.267C155.143 10.782 156.307 12.1581 156.448 14.0961C156.49 14.6837 156.509 15.2799 156.377 15.8589C156.025 17.3867 154.857 18.3205 153.235 18.3375C151.566 18.3568 149.895 18.3375 148.226 18.3375C148.605 18.0149 148.349 17.5854 148.413 17.2093C148.413 17.1816 148.415 17.1559 148.417 17.1281L148.42 17.1303Z" fill="#BE4638"></path><path d="M151.536 18.7112C150.944 18.7112 150.349 18.709 149.756 18.7069C149.247 18.7069 148.737 18.7026 148.23 18.7026H147.245L147.998 18.0616C148.094 17.9804 148.096 17.9056 148.066 17.6406C148.051 17.4975 148.034 17.3372 148.059 17.1684C148.059 17.1535 148.059 17.1406 148.059 17.1257L148.064 16.7667H148.422C148.859 16.7667 149.296 16.7582 149.731 16.7518C150.208 16.7453 150.684 16.7389 151.161 16.7389C151.741 16.7389 152.225 16.7496 152.685 16.7689C153.468 16.8052 154.035 16.63 154.376 16.2518C154.753 15.833 154.896 15.1364 154.802 14.1791C154.595 12.0894 152.517 11.7838 151.884 11.7389C151.206 11.6919 150.536 11.7731 149.903 11.9804C149.784 12.0189 149.686 12.0381 149.599 12.0381C149.366 12.0381 149.078 11.9227 149.034 11.3736C148.978 10.6706 149.185 10.1129 149.707 9.56373C150.737 8.48039 151.939 7.18979 153.069 5.818C153.508 5.28595 154.009 5.03809 154.651 5.03809C154.845 5.03809 155.056 5.06159 155.294 5.10646L155.915 5.22826L151.992 9.69193C152.474 9.72826 152.918 9.79236 153.363 9.91415C155.403 10.474 156.661 11.9868 156.812 14.068C156.857 14.6684 156.876 15.3116 156.733 15.9398C156.341 17.6492 155.036 18.6812 153.242 18.7005C152.672 18.7069 152.103 18.709 151.534 18.709L151.536 18.7112ZM148.799 17.9761C149.119 17.9761 149.439 17.9761 149.758 17.9804C150.918 17.9847 152.078 17.9889 153.235 17.9761C154.693 17.959 155.71 17.1599 156.028 15.7774C156.143 15.2731 156.136 14.7518 156.09 14.1236C155.96 12.3436 154.924 11.0979 153.173 10.6171C152.574 10.4526 151.958 10.4056 151.214 10.3842L150.443 10.3629L154.469 5.7774C154.137 5.81586 153.885 5.97185 153.627 6.28381C152.483 7.6727 151.268 8.97612 150.232 10.068C149.867 10.4505 149.726 10.8009 149.752 11.2667C150.451 11.0488 151.187 10.9633 151.933 11.0146C153.532 11.1257 155.314 11.9975 155.523 14.1065C155.638 15.2753 155.433 16.162 154.913 16.7368C154.418 17.2838 153.668 17.5381 152.651 17.4932C152.201 17.4718 151.728 17.4633 151.159 17.4633C150.686 17.4633 150.212 17.4697 149.739 17.4761C149.417 17.4804 149.098 17.4847 148.778 17.4868C148.78 17.5103 148.782 17.5338 148.784 17.5573C148.797 17.677 148.812 17.8201 148.799 17.9718V17.9761Z" fill="#BE4638"></path><path d="M170.969 18.3336C170.178 18.3934 169.409 18.3015 168.703 17.9233C168.447 17.7865 168.387 17.8421 168.355 18.1071C168.266 18.8528 168.132 19.59 167.75 20.2502C166.782 21.9276 164.855 22.5857 162.858 21.9254C162.092 21.6733 162.105 21.6733 162.112 20.8635C162.114 20.5494 162.18 20.5216 162.461 20.6477C163.295 21.0237 164.171 21.1626 165.062 20.9041C166.309 20.543 167.061 19.3955 167.068 17.872C167.076 15.6092 167.085 13.3442 167.057 11.0814C167.051 10.6113 167.183 10.3357 167.618 10.1818C167.867 10.0942 168.068 9.89125 168.398 9.82715C168.398 10.2994 168.398 10.7524 168.398 11.2054C168.398 12.3699 168.424 13.5344 168.392 14.6968C168.349 16.2267 169.091 17.216 170.781 17.1199C170.845 17.1156 170.907 17.1263 170.971 17.1306C170.877 17.5301 170.877 17.9318 170.971 18.3314L170.969 18.3336Z" fill="#BE4638"></path><path d="M164.374 22.5431C163.836 22.5431 163.289 22.4512 162.745 22.2718C161.843 21.9748 161.741 21.8337 161.749 20.9021V20.8636C161.754 20.3017 162.056 20.2162 162.238 20.2162C162.359 20.2162 162.474 20.2568 162.611 20.3188C163.44 20.6906 164.224 20.7718 164.962 20.5581C166.049 20.244 166.699 19.2397 166.706 17.8743C166.714 15.6628 166.725 13.3743 166.695 11.088C166.691 10.6777 166.767 10.1008 167.497 9.84227C167.565 9.81877 167.637 9.77603 167.723 9.72689C167.878 9.63714 168.072 9.5239 168.332 9.47475L168.763 9.39355V11.2098C168.763 11.5666 168.765 11.9256 168.767 12.2824C168.773 13.0773 168.778 13.9 168.756 14.7119C168.737 15.4128 168.901 15.9641 169.232 16.3038C169.564 16.6457 170.08 16.8017 170.764 16.7632H170.813C170.858 16.7632 170.903 16.7632 170.948 16.7696L171.427 16.7995L171.329 17.2205C171.248 17.5624 171.248 17.9085 171.329 18.2547L171.425 18.6671L171.003 18.6991C170.85 18.7098 170.698 18.7162 170.549 18.7162C169.856 18.7162 169.249 18.588 168.701 18.3273C168.609 19.0324 168.458 19.7675 168.072 20.4363C167.3 21.7782 165.955 22.5474 164.382 22.5474L164.374 22.5431ZM162.472 21.0495C162.472 21.2141 162.474 21.3594 162.493 21.4C162.532 21.4363 162.764 21.5132 162.969 21.5816C163.44 21.7376 163.911 21.8166 164.371 21.8166C165.678 21.8166 166.793 21.1799 167.433 20.0688C167.765 19.4918 167.897 18.8487 167.991 18.0624C168.049 17.5859 168.298 17.4876 168.496 17.4876C168.609 17.4876 168.72 17.5218 168.871 17.603C169.355 17.8615 169.901 17.9876 170.541 17.9876H170.545C170.532 17.823 170.532 17.6585 170.545 17.494C169.763 17.4918 169.144 17.2611 168.705 16.8081C168.236 16.323 168 15.5901 168.025 14.6884C168.049 13.8893 168.042 13.0752 168.036 12.2846C168.034 11.9256 168.032 11.5666 168.032 11.2077V10.3829C167.94 10.4363 167.844 10.4876 167.735 10.526C167.497 10.6115 167.411 10.7077 167.416 11.0773C167.443 13.3701 167.435 15.6606 167.426 17.8743C167.42 19.5559 166.55 20.8508 165.158 21.2547C164.305 21.5004 163.399 21.432 162.47 21.0495H162.472Z" fill="#BE4638"></path><path d="M131.801 18.3289C130.413 18.4143 129.207 18.0959 128.429 16.8182C128.032 16.1686 127.949 15.4378 127.947 14.7006C127.939 11.9742 127.954 9.24552 127.932 6.51902C127.928 6.09808 128.173 5.97842 128.457 5.83313C128.997 5.55535 129.267 5.72273 129.267 6.33526C129.267 9.12586 129.267 11.9165 129.267 14.7092C129.267 14.9464 129.282 15.1878 129.311 15.4229C129.431 16.3972 130.102 17.0361 131.083 17.1088C131.351 17.128 131.622 17.1216 131.893 17.1259C131.701 17.5126 131.833 17.9271 131.801 18.3267V18.3289Z" fill="#BE4638"></path><path d="M131.394 18.7054C129.887 18.7054 128.814 18.1499 128.119 17.0089C127.648 16.2354 127.586 15.37 127.584 14.7033C127.58 13.6242 127.582 12.5452 127.582 11.4661C127.582 9.84647 127.582 8.16912 127.569 6.52168C127.565 5.8828 127.977 5.67126 128.279 5.51527C128.691 5.30374 128.891 5.20117 129.094 5.20117C129.194 5.20117 129.524 5.23536 129.601 5.6798C129.629 5.83365 129.629 6.03237 129.629 6.33151V8.00886C129.629 10.2418 129.629 12.4747 129.629 14.7054C129.629 14.9298 129.644 15.1563 129.669 15.3764C129.767 16.1734 130.304 16.6841 131.108 16.7439C131.281 16.7567 131.453 16.7567 131.639 16.7589C131.726 16.7589 131.811 16.7589 131.899 16.7589L132.472 16.7695L132.219 17.2845C132.133 17.4554 132.146 17.6606 132.159 17.8978C132.167 18.0431 132.176 18.1948 132.163 18.3529L132.138 18.667L131.824 18.6862C131.679 18.6948 131.536 18.699 131.394 18.699V18.7054ZM128.902 6.01527C128.821 6.05587 128.723 6.10502 128.625 6.1563C128.333 6.30587 128.292 6.33792 128.294 6.51741C128.307 8.16698 128.307 9.84433 128.307 11.4661C128.307 12.5431 128.307 13.6221 128.309 14.699C128.309 15.308 128.364 16.011 128.74 16.6285C129.307 17.5601 130.168 17.9896 131.438 17.9768C131.438 17.9661 131.438 17.9533 131.438 17.9426C131.43 17.7995 131.421 17.6456 131.434 17.4875C131.311 17.4875 131.187 17.4832 131.061 17.4725C129.906 17.3871 129.098 16.6178 128.957 15.4683C128.927 15.2204 128.91 14.964 128.91 14.7097C128.908 12.4768 128.908 10.2439 128.91 8.011V6.33579C128.91 6.22254 128.91 6.10929 128.91 6.01527H128.902Z" fill="#BE4638"></path><path d="M160.843 11.8915C160.843 13.885 160.835 15.8786 160.85 17.8722C160.852 18.2333 160.781 18.3722 160.383 18.3573C159.509 18.3252 159.509 18.3487 159.509 17.4727C159.509 13.853 159.509 10.2312 159.513 6.61154C159.513 6.4171 159.43 6.17351 159.656 6.04744C160.001 5.85299 160.349 5.65214 160.72 5.52394C160.882 5.46838 160.839 5.70556 160.839 5.81453C160.845 6.62864 160.843 7.4406 160.843 8.2547C160.843 9.46624 160.843 10.6778 160.843 11.8915Z" fill="#BE4638"></path><path d="M160.44 18.7203L160.302 18.716C159.3 18.6797 159.149 18.5152 159.149 17.4724V15.6284C159.149 12.622 159.149 9.6156 159.153 6.60919C159.153 6.57927 159.149 6.54722 159.146 6.51303C159.132 6.32713 159.1 5.94252 159.481 5.72671L159.551 5.68824C159.884 5.50235 160.229 5.3079 160.605 5.17756C160.779 5.1156 160.961 5.15833 161.078 5.28226C161.223 5.43611 161.214 5.64337 161.208 5.7673V5.81004C161.21 6.42329 161.21 7.03654 161.208 7.64978V13.4041C161.206 14.8912 161.204 16.3784 161.214 17.8656C161.214 18.0985 161.193 18.34 161.016 18.5194C160.839 18.6968 160.602 18.7182 160.44 18.7182V18.7203ZM159.886 17.9617C159.974 17.9767 160.153 17.9853 160.327 17.9917L160.44 17.9959C160.46 17.9959 160.474 17.9959 160.485 17.9959C160.487 17.9703 160.489 17.9318 160.489 17.8784C160.479 16.3891 160.479 14.8998 160.481 13.4105V7.65619C160.481 7.11132 160.481 6.56645 160.481 6.02158C160.291 6.11346 160.101 6.21816 159.903 6.32927L159.861 6.35277C159.861 6.38269 159.865 6.42756 159.867 6.45961C159.871 6.51303 159.875 6.56645 159.875 6.61773C159.871 9.62414 159.871 12.6306 159.871 15.6348V17.4788C159.871 17.6733 159.871 17.8741 159.886 17.9682V17.9617Z" fill="#BE4638"></path><path d="M171.25 17.1306C171.568 17.1178 171.892 17.1434 172.201 17.0879C173.248 16.8999 173.83 16.184 173.843 15.0623C173.858 13.7396 173.868 12.417 173.834 11.0943C173.821 10.6392 173.939 10.3849 174.361 10.1776C175.181 9.77593 175.169 9.74815 175.169 10.6605C175.169 12.0793 175.177 13.4981 175.166 14.9148C175.152 16.6071 174.29 17.8229 172.86 18.2011C172.331 18.34 171.794 18.3699 171.253 18.3336C171.404 17.9319 171.406 17.5302 171.253 17.1285L171.25 17.1306Z" fill="#BE4638"></path><path d="M171.662 18.7135C171.517 18.7135 171.372 18.7093 171.227 18.6986L170.741 18.6665L170.914 18.2093C171.035 17.8866 171.035 17.5768 170.914 17.2605L170.732 16.7862L171.238 16.767C171.549 16.7541 171.866 16.7776 172.137 16.7306C173.018 16.5725 173.47 16.0106 173.48 15.0576C173.495 13.72 173.506 12.4123 173.472 11.1024C173.455 10.4828 173.674 10.1067 174.201 9.85029L174.288 9.80756C174.629 9.63876 174.819 9.54688 175.006 9.54688C175.105 9.54688 175.426 9.58106 175.503 10.0105C175.529 10.1558 175.529 10.3396 175.529 10.6153V11.9593C175.533 12.9464 175.535 13.9315 175.527 14.9187C175.512 16.7712 174.548 18.1302 172.952 18.5533C172.547 18.6601 172.124 18.7135 171.662 18.7135ZM171.713 17.4892C171.734 17.6537 171.734 17.8204 171.713 17.987C172.092 17.9828 172.438 17.94 172.768 17.8524C174.049 17.5127 174.791 16.4422 174.804 14.9144C174.813 13.9315 174.81 12.9464 174.808 11.9635V10.6174C174.808 10.5319 174.808 10.4443 174.806 10.3674C174.746 10.3973 174.678 10.4294 174.61 10.4635L174.52 10.5063C174.25 10.6388 174.19 10.7477 174.199 11.0875C174.233 12.408 174.222 13.7242 174.207 15.0682C174.192 16.361 173.487 17.2285 172.267 17.4464C172.08 17.4806 171.894 17.487 171.715 17.4892H171.713Z" fill="#BE4638"></path><path d="M132.084 17.1263C132.417 17.1135 132.758 17.1434 133.082 17.0836C134.144 16.8827 134.7 16.169 134.713 14.9981C134.728 13.6605 134.732 12.3229 134.706 10.9853C134.7 10.6007 134.798 10.3635 135.163 10.2224C135.425 10.1199 135.668 9.97031 135.949 9.82715C136.052 10.0195 136.022 10.1947 136.022 10.3592C136.024 11.793 136.022 13.2267 136.022 14.6583C136.022 17.1113 134.815 18.3271 132.37 18.3421C132.274 18.3421 132.18 18.34 132.084 18.3378C132.236 17.934 132.238 17.5301 132.084 17.1242V17.1263Z" fill="#BE4638"></path><path d="M132.349 18.7072C132.287 18.7072 132.223 18.7072 132.161 18.705L131.564 18.6922L131.746 18.2115C131.867 17.8888 131.867 17.5747 131.746 17.2563L131.564 16.782L132.072 16.7649C132.149 16.7627 132.225 16.7606 132.302 16.7606H132.496C132.667 16.7606 132.848 16.7606 133.014 16.7264C133.901 16.5597 134.338 15.9935 134.348 14.9956C134.359 13.8909 134.37 12.4358 134.342 10.9935C134.336 10.6345 134.4 10.1303 135.028 9.88453C135.186 9.82257 135.348 9.73496 135.519 9.64308C135.604 9.59607 135.691 9.54906 135.783 9.50419L136.101 9.3418L136.267 9.65804C136.395 9.89949 136.388 10.1196 136.384 10.2798V10.3589C136.384 11.5362 136.384 12.7136 136.384 13.8909V14.658C136.384 17.3268 135.035 18.6901 132.372 18.705H132.351L132.349 18.7072ZM132.545 17.4871C132.566 17.6495 132.566 17.814 132.545 17.9785C134.666 17.9102 135.655 16.8525 135.657 14.6602V13.8931C135.657 12.7264 135.657 11.5597 135.657 10.3931C135.538 10.455 135.419 10.5127 135.291 10.5619C135.124 10.626 135.06 10.6794 135.067 10.9785C135.095 12.4315 135.084 13.8931 135.073 15.0021C135.058 16.3418 134.376 17.2072 133.148 17.4401C132.939 17.4785 132.73 17.485 132.547 17.4871H132.545Z" fill="#BE4638"></path><path d="M135.235 7.05793C134.721 7.04938 134.47 6.78442 134.476 6.24596C134.48 5.74169 134.779 5.44682 135.278 5.45323C135.759 5.45964 136.06 5.7887 136.043 6.28656C136.024 6.81647 135.764 7.06434 135.235 7.05579V7.05793Z" fill="#BE4638"></path><path d="M135.259 7.42104H135.229C134.513 7.41036 134.105 6.98087 134.112 6.24155C134.118 5.54284 134.57 5.08984 135.259 5.08984C135.613 5.09412 135.896 5.21164 136.101 5.42745C136.312 5.64967 136.416 5.95095 136.401 6.30138C136.374 7.0236 135.966 7.42104 135.254 7.42104H135.259ZM135.274 5.81848C134.973 5.81848 134.843 5.95096 134.839 6.2501C134.835 6.6219 134.965 6.69027 135.242 6.69454L135.261 7.05779V6.69454C135.579 6.69454 135.67 6.6048 135.683 6.2736C135.687 6.1689 135.672 6.02574 135.581 5.92745C135.495 5.83771 135.367 5.81848 135.276 5.81634L135.274 5.81848Z" fill="#BE4638"></path><path d="M132.954 7.05555C132.447 7.04914 132.182 6.77136 132.185 6.24786C132.187 5.74786 132.485 5.45085 132.984 5.45512C133.474 5.45726 133.743 5.75427 133.734 6.28418C133.726 6.83119 133.491 7.0641 132.954 7.05769V7.05555Z" fill="#BE4638"></path><path d="M132.975 7.4189H132.952C132.242 7.41036 131.82 6.97232 131.824 6.24583C131.826 5.54497 132.28 5.08984 132.98 5.08984C133.319 5.08984 133.596 5.19882 133.792 5.39967C133.937 5.54711 134.107 5.82061 134.099 6.28642C134.088 7.02574 133.698 7.41677 132.975 7.41677V7.4189ZM132.984 5.81634C132.681 5.81634 132.549 5.94882 132.547 6.24796C132.547 6.61762 132.69 6.68813 132.958 6.69241L132.973 7.05566V6.69241C133.282 6.69241 133.368 6.64113 133.372 6.27574C133.372 6.15608 133.357 5.99583 133.272 5.90822C133.214 5.84839 133.116 5.81848 132.982 5.81634H132.984Z" fill="#BE4638"></path><path d="M174.393 7.05764C173.862 7.05551 173.625 6.80978 173.623 6.26277C173.623 5.7414 173.896 5.45721 174.401 5.45508C174.885 5.45508 175.188 5.77132 175.179 6.27132C175.171 6.80123 174.913 7.05978 174.39 7.05764H174.393Z" fill="#BE4638"></path><path d="M174.401 7.42086H174.393C173.666 7.41658 173.265 7.00633 173.263 6.26274C173.263 5.54265 173.7 5.0918 174.403 5.0918C174.738 5.0918 175.023 5.20291 175.23 5.41445C175.441 5.63026 175.552 5.9294 175.546 6.27769C175.533 7.00419 175.117 7.42086 174.403 7.42086H174.401ZM174.405 5.81829C174.145 5.81829 173.985 5.89308 173.987 6.26274C173.987 6.63239 174.086 6.69222 174.395 6.69436L174.401 7.05761V6.69436C174.719 6.69436 174.812 6.59821 174.819 6.26487C174.819 6.16017 174.804 6.01701 174.712 5.92299C174.627 5.83539 174.499 5.81829 174.407 5.81829H174.405Z" fill="#BE4638"></path><path d="M172.877 6.30723C172.864 6.84355 172.621 7.07005 172.071 7.05723C171.572 7.04441 171.323 6.76236 171.333 6.22389C171.344 5.72389 171.645 5.43971 172.148 5.45466C172.636 5.46962 172.889 5.76449 172.875 6.30723H172.877Z" fill="#BE4638"></path><path d="M172.114 7.42086H172.061C171.364 7.40376 170.954 6.95504 170.969 6.21787C170.984 5.5341 171.43 5.0918 172.107 5.0918H172.159C172.854 5.1153 173.256 5.57257 173.237 6.31616C173.22 7.03838 172.83 7.42086 172.112 7.42086H172.114ZM172.135 5.81829C171.824 5.81829 171.7 5.94222 171.696 6.23069C171.688 6.61103 171.824 6.68581 172.08 6.69222H172.116C172.436 6.69222 172.508 6.62171 172.517 6.29692C172.527 5.8653 172.336 5.82257 172.139 5.81616L172.135 5.81829Z" fill="#BE4638"></path><path d="M171.25 17.1299C171.404 17.5316 171.402 17.9333 171.25 18.335C171.157 18.335 171.061 18.335 170.967 18.3329C170.873 17.9333 170.873 17.5316 170.967 17.132C171.061 17.132 171.154 17.132 171.248 17.1299H171.25Z" fill="#BE4638"></path><path d="M171.502 18.7007L170.679 18.6943L170.615 18.4144C170.509 17.9593 170.511 17.4999 170.615 17.049L170.681 16.7712L171.5 16.7627L171.589 16.9999C171.773 17.4828 171.775 17.9742 171.589 18.4636L171.5 18.7007H171.502Z" fill="#BE4638"></path><path d="M132.085 17.126C132.238 17.5298 132.238 17.9337 132.085 18.3397C131.991 18.3375 131.897 18.3332 131.801 18.3311C131.833 17.9315 131.701 17.5191 131.893 17.1302C131.957 17.1302 132.019 17.1303 132.083 17.1281L132.085 17.126Z" fill="#BE4638"></path><path d="M132.332 18.7116L132.072 18.703L132.082 18.3526L132.063 18.703L131.409 18.6795L131.439 18.3013C131.447 18.1924 131.439 18.0727 131.434 17.9445C131.417 17.6475 131.398 17.312 131.569 16.968L131.667 16.7693L132.332 16.7607L132.421 16.9979C132.607 17.483 132.607 17.9787 132.421 18.468L132.33 18.7116H132.332Z" fill="#BE4638"></path><path d="M148.417 17.2113C148.351 17.5873 148.609 18.0168 148.23 18.3395C148.198 18.3395 148.168 18.3373 148.136 18.3352C147.983 17.9335 147.983 17.5318 148.136 17.1301C148.2 17.1301 148.262 17.1301 148.326 17.1279C148.358 17.1557 148.388 17.1835 148.42 17.2113H148.417Z" fill="#BE4638"></path><path d="M148.356 18.7091L147.883 18.6899L147.797 18.4676C147.612 17.9847 147.612 17.4911 147.797 17.004L147.885 16.7732L148.462 16.7646L148.81 17.0766L148.776 17.2753C148.763 17.3501 148.776 17.4548 148.786 17.5638C148.818 17.848 148.865 18.2796 148.467 18.6172L148.358 18.7091H148.356Z" fill="#BE4638"></path><path d="M148.418 17.2113C148.386 17.1835 148.356 17.1557 148.324 17.1279C148.356 17.1279 148.388 17.1301 148.42 17.1322C148.42 17.16 148.42 17.1856 148.415 17.2134L148.418 17.2113Z" fill="#BE4638"></path><path d="M148.725 17.9742L147.341 16.7285L148.787 16.7798L148.782 17.1345C148.782 17.1687 148.782 17.2029 148.778 17.2371L148.723 17.9721L148.725 17.9742Z" fill="#BE4638"></path><path d="M120.746 6.13281H118.832V21.9576H120.746V6.13281Z" fill="#BE4638"></path></g><defs><linearGradient id="paint0_linear_901_225" x1="66.1384" y1="13.9998" x2="81.1008" y2="13.9998" gradientUnits="userSpaceOnUse"><stop stop-color="#F08949"></stop><stop offset="0.81" stop-color="#C8533B"></stop><stop offset="1" stop-color="#BE4638"></stop></linearGradient><linearGradient id="paint1_linear_901_225" x1="59.654" y1="-0.00174434" x2="87.5857" y2="-0.00174237" gradientUnits="userSpaceOnUse"><stop stop-color="#F08949"></stop><stop offset="0.81" stop-color="#C8533B"></stop><stop offset="1" stop-color="#BE4638"></stop></linearGradient><clipPath id="clip0_901_225"><rect width="175.544" height="28" fill="white"></rect></clipPath></defs></svg>