<svg xmlns="http://www.w3.org/2000/svg" viewBox="0 0 114.37 122.75"><defs><style>.cls-1{fill:#e93cac;}.cls-2{fill:#512d6d;}</style></defs><g id="Layer_2" data-name="Layer 2"><g id="Layer_1-2" data-name="Layer 1"><g id="Layer_2-2" data-name="Layer 2"><g id="Layer_1-2-2" data-name="Layer 1-2"><path class="cls-1" d="M0,122.75V26.23L35.57,0h78.8V89h-77ZM5.55,29v81.23L35.26,83.42h73.57V5.55H37.4Z"/><path class="cls-2" d="M38.13,48.94a3.27,3.27,0,0,0,.67,1.31,3,3,0,0,0,1.26.83,6.08,6.08,0,0,0,2.07.3h1.69a.66.66,0,0,0,.28,0,2.41,2.41,0,0,0,0-.38V49.55a1.21,1.21,0,0,0,0-.38,1.22,1.22,0,0,0-.27,0h-1.1a1.91,1.91,0,0,1-1.64-.69,3.25,3.25,0,0,1-.46-1.92v-8h3.48V36.84a1.21,1.21,0,0,0,0-.38H40.64v-4a.81.81,0,0,0,0-.38,1.24,1.24,0,0,0-.47,0H38.44a1.29,1.29,0,0,0-.48.06,1.15,1.15,0,0,0,0,.37v4H35.58v1.64a1.21,1.21,0,0,0,0,.38h2.31V47.1A7.15,7.15,0,0,0,38.13,48.94Z"/><path class="cls-2" d="M55.63,51.34h0a1.85,1.85,0,0,0,.47,0h1.66a1.29,1.29,0,0,0,.48-.06,1.15,1.15,0,0,0,0-.37V41.05a5.56,5.56,0,0,0-1.15-3.73A4.37,4.37,0,0,0,53.64,36a4.9,4.9,0,0,0-3.9,1.54l-.78.87V31.2a1,1,0,0,0-.05-.38,1.24,1.24,0,0,0-.47-.05H46.78a1.29,1.29,0,0,0-.48.06,1.15,1.15,0,0,0,0,.37V51a.71.71,0,0,0,.06.38,1.24,1.24,0,0,0,.47,0h1.66a1.29,1.29,0,0,0,.48-.06A.85.85,0,0,0,49,51V42.1a4.08,4.08,0,0,1,.91-2.79,3.32,3.32,0,0,1,2.58-1,2.89,2.89,0,0,1,2.45.92,3.93,3.93,0,0,1,.65,2.4V51A1.32,1.32,0,0,0,55.63,51.34Z"/><path class="cls-2" d="M72.11,48.52a2.73,2.73,0,0,0,.33-1.15.61.61,0,0,0,0-.19.9.9,0,0,0-.46-.06h-1.9c-.32,0-.37.13-.4.22-.26.84-1,1.87-3.11,1.87a3.37,3.37,0,0,1-2.81-1.12,5.64,5.64,0,0,1-.83-3.49V44h9.2a1.29,1.29,0,0,0,.48-.06,1.15,1.15,0,0,0,0-.37V42.15a7,7,0,0,0-1.54-4.94,6,6,0,0,0-4.6-1.63,6,6,0,0,0-4.67,1.76,7.36,7.36,0,0,0-1.62,5.14v2.36a6.71,6.71,0,0,0,1.63,4.87,6.21,6.21,0,0,0,4.64,1.66,8.69,8.69,0,0,0,2.81-.44,5.12,5.12,0,0,0,2-1.23A4.73,4.73,0,0,0,72.11,48.52Zm-9.19-6.81a4.89,4.89,0,0,1,.91-3.12,3.45,3.45,0,0,1,2.71-1,3,3,0,0,1,2.57,1.07,5,5,0,0,1,.77,3.06v.44h-7Z"/><path class="cls-2" d="M43.06,70.65a5.17,5.17,0,0,1-3.87-1.36v5.8a1,1,0,0,1-.18.69,1.15,1.15,0,0,1-.79.18H36.56a1.21,1.21,0,0,1-.79-.18,1,1,0,0,1-.18-.69V61.73a7.88,7.88,0,0,1,1.62-5.33c1.08-1.24,2.8-1.86,5.18-1.86a7.16,7.16,0,0,1,5.09,1.68A6.14,6.14,0,0,1,49.28,61v2.84a7.26,7.26,0,0,1-1.6,5.09A5.9,5.9,0,0,1,43.06,70.65Zm2.63-9.1a4.75,4.75,0,0,0-.79-3,3.1,3.1,0,0,0-2.51-.95,3,3,0,0,0-2.48.95,4.75,4.75,0,0,0-.79,3v1.87q0,4.17,3.26,4.17t3.29-4.14v-1.9Z"/><path class="cls-2" d="M57.17,60.89h1.59a14.63,14.63,0,0,1,1.68.14v-.79a3.32,3.32,0,0,0-.65-2.36,2.8,2.8,0,0,0-2-.63,3.55,3.55,0,0,0-1.54.29,1.63,1.63,0,0,0-.85,1,.82.82,0,0,1-.3.47,1.36,1.36,0,0,1-.66.11h-2a.92.92,0,0,1-.66-.17.66.66,0,0,1-.18-.5,3.22,3.22,0,0,1,.94-2.21,5,5,0,0,1,2-1.27,9.82,9.82,0,0,1,3.23-.45,10.15,10.15,0,0,1,3,.36A4.42,4.42,0,0,1,62.64,56a3.84,3.84,0,0,1,1,1.72,8.93,8.93,0,0,1,.29,2.36V66a7,7,0,0,1-.27,1.93,4,4,0,0,1-.94,1.66,4.56,4.56,0,0,1-1.78,1.15,8.12,8.12,0,0,1-2.81.42h-.85a7.68,7.68,0,0,1-4.73-1.19A4.57,4.57,0,0,1,51,66.06a5.72,5.72,0,0,1,.48-2.48A4.13,4.13,0,0,1,52.83,62a5.71,5.71,0,0,1,2-.85A10.83,10.83,0,0,1,57.17,60.89Zm.18,2.75a3.44,3.44,0,0,0-2.14.54A2.22,2.22,0,0,0,54.52,66a2.1,2.1,0,0,0,.69,1.81,3.28,3.28,0,0,0,2,.51h.51a2.67,2.67,0,0,0,2.11-.72,3.73,3.73,0,0,0,.63-2.45V63.81c-.66-.08-1.25-.13-1.75-.15Z"/><path class="cls-2" d="M73.86,54.54A4.65,4.65,0,0,1,77.65,56a6,6,0,0,1,1.22,4v9.91a1,1,0,0,1-.2.71,1.22,1.22,0,0,1-.77.17H76.24a1.22,1.22,0,0,1-.77-.17,1,1,0,0,1-.2-.71V60.56a3.49,3.49,0,0,0-.56-2.13,2.42,2.42,0,0,0-2-.74,3,3,0,0,0-2.28.89,3.52,3.52,0,0,0-.83,2.49v8.85a1,1,0,0,1-.2.71,1.22,1.22,0,0,1-.77.17h-1.7a1.22,1.22,0,0,1-.77-.17,1,1,0,0,1-.2-.71V55.84a1,1,0,0,1,.2-.71,1.22,1.22,0,0,1,.77-.17h1.6a1.22,1.22,0,0,1,.77.17,1,1,0,0,1,.2.71v.63a4.84,4.84,0,0,1,1.81-1.42A6.22,6.22,0,0,1,73.86,54.54Z"/><path class="cls-2" d="M84.5,63.85V64a5.36,5.36,0,0,0,.74,3.22,2.92,2.92,0,0,0,2.46,1c1.47,0,2.37-.52,2.69-1.57a.78.78,0,0,1,.82-.51h1.87a1.29,1.29,0,0,1,.72.15.64.64,0,0,1,.21.54,3.28,3.28,0,0,1-.38,1.34,4.53,4.53,0,0,1-.89,1.28,5.5,5.5,0,0,1-2.17,1.34,8.76,8.76,0,0,1-3,.47,6.56,6.56,0,0,1-5-1.8,7.11,7.11,0,0,1-1.75-5.18V61.87a7.78,7.78,0,0,1,1.74-5.44,6.44,6.44,0,0,1,5-1.9,6.43,6.43,0,0,1,4.92,1.77,7.37,7.37,0,0,1,1.66,5.24V63a1,1,0,0,1-.18.69,1.15,1.15,0,0,1-.79.18H84.5Zm3.17-6.41a3,3,0,0,0-2.37.85,4.49,4.49,0,0,0-.8,2.84h6.07a4.56,4.56,0,0,0-.68-2.79A2.61,2.61,0,0,0,87.67,57.44Z"/><path class="cls-2" d="M100.06,69.92a1,1,0,0,1-.2.71,1.22,1.22,0,0,1-.77.17H97.43a1.22,1.22,0,0,1-.77-.17,1,1,0,0,1-.2-.71V50.16a1,1,0,0,1,.2-.71,1.22,1.22,0,0,1,.77-.17h1.66a1.22,1.22,0,0,1,.77.17,1,1,0,0,1,.2.71Z"/></g></g></g></g></svg>