<svg width="158" height="45" viewBox="0 0 158 45" fill="none" xmlns="http://www.w3.org/2000/svg">
<path d="M20.1282 22.3888C20.1282 23.4422 19.8748 24.4983 19.3706 25.5624C18.8637 26.6265 18.1377 27.5817 17.19 28.4362C16.2422 29.288 15.0991 29.9832 13.7607 30.5192C12.4222 31.0552 10.9201 31.3232 9.25696 31.3232C8.37258 31.3232 7.54892 31.2702 6.79126 31.1667C6.03359 31.0605 5.32081 30.9199 4.65818 30.7395C3.99556 30.559 3.35669 30.3388 2.74687 30.0761C2.1344 29.8134 1.52458 29.5241 0.912109 29.2084L2.30336 24.8831C2.70463 25.1564 3.23526 25.451 3.90052 25.7667C4.56315 26.0825 5.28649 26.377 6.06527 26.6504C6.84405 26.9237 7.63076 27.1492 8.4201 27.3297C9.20944 27.5074 9.93278 27.5977 10.5848 27.5977C11.3214 27.5977 11.9286 27.5499 12.4038 27.4544C12.879 27.3588 13.304 27.2288 13.6841 27.059C14.1065 26.8918 14.4418 26.4699 14.6952 25.7959C14.9487 25.1219 15.0754 24.2489 15.0754 23.1769C15.0754 22.1871 14.748 21.399 14.096 20.8099C13.4413 20.2208 12.6255 19.7113 11.6461 19.2788C10.6667 18.8489 9.60807 18.4164 8.47026 17.9839C7.33244 17.554 6.27383 16.9941 5.29441 16.3095C4.31499 15.6249 3.49661 14.7466 2.84455 13.6745C2.18984 12.6025 1.86513 11.1908 1.86513 9.44479C1.86513 8.60362 2.08688 7.71468 2.52775 6.77798C2.97126 5.84128 3.61277 4.97888 4.45491 4.18812C5.29705 3.40002 6.33983 2.75256 7.58324 2.24573C8.82665 1.74156 10.239 1.48682 11.8203 1.48682C13.0849 1.48682 14.3019 1.5505 15.4714 1.67522C16.6409 1.80259 17.7734 1.96976 18.869 2.17939L17.9846 6.50466C17.4777 6.31626 16.9049 6.13582 16.2607 5.96865C15.6166 5.80148 14.9645 5.65288 14.3019 5.52551C13.6393 5.39814 12.9898 5.29996 12.3589 5.22566C11.7253 5.15136 11.1683 5.11421 10.6825 5.11421C10.1334 5.11421 9.62919 5.14074 9.16456 5.19381C8.69993 5.24689 8.28018 5.38752 7.90003 5.62103C7.541 5.83066 7.28492 6.1942 7.12653 6.70899C6.96813 7.22377 6.88893 7.8394 6.88893 8.55585C6.88893 9.27231 7.07901 9.90385 7.45916 10.3868C7.83931 10.8724 8.33826 11.297 8.96129 11.6658C9.58167 12.0346 10.2892 12.3716 11.0785 12.6768C11.8679 12.982 12.681 13.3083 13.5125 13.656C14.3441 14.0036 15.1572 14.4043 15.9466 14.8554C16.7359 15.3091 17.4434 15.8664 18.0638 16.5297C18.6842 17.1931 19.1858 17.9972 19.5659 18.9445C19.9461 19.8918 20.1362 21.0381 20.1362 22.3861L20.1282 22.3888Z" fill="#005983"/>
<path d="M30.086 30.9117H24.5527V11.4639H30.086V30.9117Z" fill="#005983"/>
<path d="M41.5619 44.4557C40.2762 44.4557 39.1859 44.3389 38.291 44.1081C37.3961 43.8772 36.6674 43.5667 36.1104 43.1767C35.5507 42.7866 35.1521 42.3408 34.9092 41.834C34.6664 41.3298 34.5449 40.7911 34.5449 40.2233C34.5449 39.2123 34.8828 38.3658 35.556 37.6812C36.2292 36.9966 37.1162 36.3597 38.2118 35.7706L39.508 36.1182C39.4024 36.5402 39.3232 36.9116 39.2704 37.238C39.2176 37.5644 39.1912 37.9386 39.1912 38.3578C39.1912 39.2415 39.4922 39.9473 40.0914 40.4727C40.6907 40.9981 41.583 41.2608 42.7631 41.2608C43.3122 41.2608 43.8534 41.229 44.3919 41.1653C44.9304 41.1016 45.4505 41.0167 45.9574 40.9132C46.4643 40.807 46.9315 40.6876 47.3645 40.5497C47.7974 40.4117 48.1591 40.2604 48.4548 40.0906C48.8772 39.8385 49.1438 39.459 49.2599 38.9549C49.3761 38.4507 49.4342 37.8404 49.4342 37.1239C49.4342 35.6937 47.9796 34.9772 45.073 34.9772L41.9737 34.9454C39.7826 34.9241 38.1854 34.6031 37.1849 33.9821C36.1843 33.3612 35.6827 32.3024 35.6827 30.8085C35.6827 30.3256 35.7883 29.84 35.9995 29.357C36.2107 28.8741 36.4774 28.4097 36.8047 27.9692C37.1321 27.5261 37.4885 27.1174 37.8792 26.738C38.2699 26.3585 38.6316 26.0109 38.9695 25.6951C38.4204 25.443 37.895 25.1007 37.3881 24.6682C36.8813 24.2383 36.4404 23.7368 36.0602 23.169C35.6801 22.6011 35.3818 21.9589 35.16 21.2425C34.9383 20.526 34.8274 19.7485 34.8274 18.9074C34.8274 17.6655 35.0439 16.5616 35.4768 15.5931C35.9098 14.6245 36.5038 13.8046 37.2641 13.1306C38.0217 12.4566 38.9193 11.9418 39.9515 11.5836C40.9837 11.2254 42.1004 11.0476 43.3016 11.0476C44.3127 11.0476 45.2076 11.1006 45.9891 11.2041C46.7678 11.3103 47.5281 11.4774 48.2647 11.7083C49.2547 11.6659 50.3133 11.5862 51.4405 11.4721C52.5678 11.3554 53.5525 11.2147 54.3973 11.0449L53.9538 13.5711C53.5525 13.7197 53.0271 13.8338 52.3724 13.9187C51.7177 14.0036 51.1396 14.0461 50.6327 14.0461C50.865 14.468 51.1237 15.0624 51.4062 15.8293C51.6913 16.5988 51.8339 17.5806 51.8339 18.78C51.8339 19.9794 51.6227 21.0833 51.2029 22.0306C50.7806 22.9779 50.1971 23.7713 49.4474 24.4135C48.7003 25.0556 47.808 25.5439 46.7758 25.8809C45.7435 26.2179 44.6163 26.385 43.394 26.385C43.2039 26.385 42.9822 26.3797 42.7314 26.3691C42.4779 26.3585 42.2245 26.3479 41.9737 26.3373C41.7203 26.3267 41.4827 26.3054 41.2636 26.2736C41.0418 26.2418 40.857 26.2046 40.7092 26.1621C40.5825 26.393 40.4452 26.7035 40.2974 27.0935C40.1495 27.4836 40.0756 27.8657 40.0756 28.2452C40.0756 28.7095 40.2921 29.02 40.7224 29.1766C41.1553 29.3331 41.9394 29.4127 43.0772 29.4127H47.4384C48.7663 29.4127 49.883 29.5189 50.7885 29.7285C51.694 29.9381 52.4279 30.2698 52.9849 30.7236C53.5419 31.1747 53.9379 31.7452 54.1702 32.4272C54.4026 33.1118 54.5187 33.9264 54.5187 34.8737C54.5187 36.0094 54.1966 37.1505 53.5551 38.2995C52.911 39.4458 52.0108 40.4727 50.8518 41.3776C49.6929 42.2824 48.3228 43.0201 46.7414 43.588C45.1601 44.1558 43.4336 44.4397 41.5566 44.4397L41.5619 44.4557ZM43.4574 23.8085C43.9431 23.8085 44.3523 23.766 44.6902 23.6811C45.0281 23.5962 45.3317 23.4715 45.6063 23.3016C45.8808 23.1345 46.1079 22.6382 46.2847 21.8183C46.4643 20.9984 46.554 19.9555 46.554 18.6924C46.554 17.976 46.4907 17.3152 46.3639 16.7023C46.2372 16.092 46.0366 15.5612 45.7647 15.1075C45.4901 14.6564 45.1575 14.3035 44.7694 14.0487C44.3787 13.7966 43.9114 13.6693 43.3623 13.6693C42.9188 13.6693 42.5413 13.7064 42.2245 13.7807C41.9077 13.855 41.6015 13.985 41.3085 14.1761C41.0128 14.3645 40.7805 14.8607 40.6141 15.6594C40.4452 16.4608 40.3607 17.5116 40.3607 18.8171C40.3607 19.4911 40.4293 20.128 40.5666 20.7277C40.7039 21.3274 40.8993 21.8581 41.1527 22.3225C41.4061 22.7868 41.7256 23.1477 42.1163 23.4104C42.507 23.6731 42.9531 23.8058 43.46 23.8058L43.4574 23.8085Z" fill="#005983"/>
<path d="M70.3267 30.9121V17.8753C70.3267 16.7183 70.1524 15.8665 69.804 15.3173C69.4555 14.7706 68.8826 14.4973 68.0801 14.4973C67.4887 14.4973 66.805 14.6618 66.0262 14.9856C65.2474 15.3119 64.5716 15.7073 64.004 16.169V30.9121H58.4707V11.4643H63.4021L63.8773 13.7384H63.9407C64.3208 13.4863 64.767 13.2077 65.2844 12.9025C65.8018 12.5974 66.3536 12.3081 66.9449 12.0348C67.5336 11.7615 68.1514 11.5306 68.7929 11.3396C69.4344 11.1512 70.0732 11.0557 70.7068 11.0557C71.739 11.0557 72.6657 11.2971 73.4893 11.7827C74.3103 12.2683 74.9334 13.0034 75.3558 13.9931C75.757 13.7198 76.2401 13.4147 76.8104 13.0777C77.3806 12.7407 77.9904 12.4196 78.6451 12.1144C79.2972 11.8093 79.9625 11.5572 80.6356 11.3582C81.3088 11.1592 81.9635 11.0583 82.5945 11.0583C83.3099 11.0583 83.9804 11.1804 84.6008 11.4219C85.2212 11.6633 85.765 12.0216 86.2297 12.4939C86.6917 12.9662 87.056 13.5633 87.32 14.2771C87.584 14.9935 87.716 15.8347 87.716 16.8032V30.9148H82.1826V17.8779C82.1826 16.721 82.0084 15.8692 81.6599 15.3199C81.3115 14.7733 80.7386 14.5 79.9361 14.5C79.3447 14.5 78.661 14.6645 77.8822 14.9882C77.1034 15.3146 76.4276 15.71 75.86 16.1717V30.9148H70.3267V30.9121Z" fill="#005983"/>
<path d="M109.971 28.0409C110.433 28.0409 111.077 27.9242 111.898 27.6933V29.0201C111.602 29.2934 111.254 29.5614 110.855 29.8241C110.454 30.0868 110.029 30.3177 109.575 30.5193C109.121 30.7183 108.653 30.8776 108.168 30.9917C107.682 31.1084 107.209 31.1641 106.745 31.1641C106.238 31.1641 105.807 31.0898 105.448 30.9439C105.089 30.7979 104.778 30.6122 104.516 30.392C104.252 30.1717 104.031 29.9143 103.854 29.6171C103.674 29.3226 103.521 29.0387 103.394 28.7653C102.93 29.0811 102.473 29.3916 102.019 29.6967C101.565 30.0019 101.092 30.2699 100.596 30.5008C100.1 30.7316 99.5798 30.9227 99.0307 31.0686C98.4816 31.2146 97.8717 31.2889 97.1986 31.2889C95.6806 31.2889 94.4847 30.8165 93.6109 29.8692C92.7371 28.9219 92.2988 27.4916 92.2988 25.5758C92.2988 24.5648 92.4308 23.6812 92.6922 22.9249C92.9562 22.166 93.3759 21.5424 93.9541 21.0462C94.5322 20.5526 95.2767 20.1732 96.1927 19.9105C97.1062 19.6478 98.2255 19.4965 99.5507 19.4514L102.893 19.3559V16.5272C102.893 15.7656 102.687 15.2031 102.278 14.8449C101.869 14.4866 101.166 14.3035 100.176 14.3035C99.4821 14.3035 98.6743 14.3884 97.7582 14.5556C96.8422 14.7254 95.8786 15.0094 94.8648 15.4074L94.1072 13.396C94.7804 13.1041 95.4826 12.8176 96.2086 12.5363C96.9346 12.255 97.6737 12.0056 98.4208 11.7853C99.1679 11.5651 99.9283 11.3899 100.696 11.2546C101.465 11.1193 102.23 11.0503 102.988 11.0503C103.856 11.0503 104.63 11.1299 105.308 11.2865C105.987 11.4457 106.554 11.7137 107.009 12.0905C107.465 12.4699 107.814 12.9741 108.057 13.6057C108.299 14.2372 108.424 15.0147 108.424 15.9408V24.9071C108.424 26.9901 108.941 28.033 109.973 28.033L109.971 28.0409ZM103.109 27.1254C103.088 27.0405 103.067 26.8256 103.046 26.478C103.025 26.1304 103.004 25.6899 102.983 25.1512C102.962 24.6152 102.946 24.0049 102.935 23.3203C102.925 22.6357 102.919 21.9165 102.919 21.1576C101.568 21.1576 100.549 21.2372 99.8623 21.3938C99.1759 21.5504 98.7482 21.7467 98.5845 21.9776C98.5 22.0625 98.434 22.219 98.3812 22.4499C98.3284 22.6808 98.2888 22.9382 98.2572 23.2247C98.2255 23.5087 98.2044 23.8032 98.1938 24.1084C98.1833 24.4135 98.178 24.6922 98.178 24.9442C98.178 25.8279 98.2968 26.5443 98.537 27.091C98.7772 27.6376 99.1759 27.9109 99.7382 27.9109C100.34 27.9109 100.918 27.8366 101.47 27.6907C102.022 27.5447 102.568 27.3537 103.109 27.1228V27.1254Z" fill="#005983"/>
<path d="M126.283 15.853C125.86 15.707 125.409 15.585 124.923 15.4895C124.437 15.3939 123.975 15.3462 123.532 15.3462C123.215 15.3462 122.93 15.3727 122.679 15.4258C122.426 15.4788 122.188 15.5691 121.969 15.6938C121.747 15.8211 121.525 15.9883 121.306 16.198C121.085 16.4076 120.836 16.6623 120.565 16.9569V30.9092H115.031V11.4614H119.994L120.47 14.5554H120.501C120.649 14.3246 120.829 14.0565 121.04 13.7514C121.251 13.4462 121.478 13.1411 121.718 12.8359C121.961 12.5308 122.215 12.2521 122.476 12C122.74 11.748 123.009 11.5702 123.281 11.464C123.764 11.2969 124.313 11.1854 124.926 11.1323C125.536 11.0793 126.201 11.0527 126.916 11.0527L126.285 15.8503L126.283 15.853Z" fill="#005983"/>
<path d="M59.3525 39.8251H58.8034V43.3278H57.1719V34.8471C57.5019 34.8232 57.8741 34.8019 58.2912 34.7834C58.7057 34.7648 59.1043 34.7568 59.4845 34.7568C60.456 34.7568 61.1951 34.9452 61.6994 35.3194C62.2036 35.6935 62.457 36.28 62.457 37.0813C62.457 37.4369 62.4148 37.7474 62.3277 38.0127C62.2432 38.2781 62.1297 38.5063 61.9871 38.7053C61.8472 38.9017 61.6835 39.0688 61.5014 39.2042C61.3166 39.3395 61.1265 39.4536 60.9232 39.5465C61.1608 39.9843 61.3905 40.3956 61.607 40.783C61.8234 41.1704 62.0399 41.5074 62.259 41.7967C62.4755 42.0859 62.6973 42.3141 62.919 42.484C63.1434 42.6538 63.381 42.7387 63.6397 42.7387H63.6952V43.2827C63.5658 43.3251 63.418 43.3623 63.2517 43.3888C63.0827 43.4153 62.8953 43.4313 62.6867 43.4313C62.3884 43.4313 62.127 43.4047 61.9026 43.349C61.6783 43.2933 61.4618 43.1739 61.2506 42.9908C61.0394 42.8077 60.8203 42.537 60.5959 42.1788C60.3688 41.8232 60.1075 41.3403 59.8065 40.7326L59.3577 39.8384L59.3525 39.8251ZM59.0964 38.9866C59.3234 38.9866 59.5425 38.9574 59.7511 38.899C59.9623 38.8406 60.1286 38.769 60.25 38.6814C60.3108 38.639 60.3715 38.5832 60.4348 38.5143C60.4956 38.4479 60.551 38.3577 60.5985 38.2462C60.6487 38.1348 60.6883 37.9942 60.7173 37.8217C60.749 37.6492 60.7622 37.4343 60.7622 37.1769C60.7622 36.8876 60.7305 36.6462 60.6672 36.4498C60.6038 36.2534 60.5061 36.0942 60.3794 35.9748C60.2527 35.8554 60.0916 35.7678 59.9016 35.7174C59.7115 35.6644 59.495 35.6378 59.2495 35.6378C59.1835 35.6378 59.107 35.6378 59.0251 35.6431C58.9433 35.6458 58.8667 35.6537 58.8007 35.667V38.9866H59.0938H59.0964Z" fill="#005983"/>
<path d="M66.8658 37.53C67.1351 37.53 67.3964 37.5698 67.6499 37.6441C67.9033 37.7211 68.1382 37.8511 68.3521 38.0315C68.5659 38.212 68.7507 38.4561 68.9065 38.7586C69.0622 39.0611 69.181 39.4432 69.2602 39.897V39.9713C69.2101 40.0402 69.1467 40.1013 69.0622 40.1544C68.9804 40.2101 68.8722 40.2578 68.7375 40.2976C68.6029 40.3374 68.4366 40.3746 68.2412 40.4091C68.0459 40.4436 67.8109 40.4701 67.5363 40.4887L65.757 40.6267V40.8655C65.757 41.3086 65.8732 41.6748 66.1055 41.9614C66.3378 42.2507 66.6863 42.3939 67.1509 42.3939C67.341 42.3939 67.539 42.3727 67.7475 42.3329C67.9561 42.2931 68.1514 42.2453 68.3389 42.1896C68.5263 42.1339 68.6979 42.0782 68.8537 42.0198C69.0094 41.9614 69.1282 41.911 69.2074 41.8685L69.3447 42.2825C69.1731 42.4125 68.9804 42.5452 68.7666 42.6832C68.5527 42.8212 68.323 42.9459 68.0775 43.0573C67.832 43.1688 67.5733 43.259 67.3014 43.328C67.0295 43.3996 66.7496 43.4341 66.4619 43.4341C66.1266 43.4341 65.8125 43.3837 65.5221 43.2829C65.2317 43.182 64.9809 43.0202 64.7697 42.7999C64.5585 42.5797 64.3922 42.2905 64.2707 41.9322C64.1493 41.5767 64.0859 41.1415 64.0859 40.632C64.0859 40.0615 64.1572 39.5759 64.2971 39.1805C64.4371 38.7851 64.6324 38.464 64.8832 38.2226C65.134 37.9784 65.4297 37.8033 65.7676 37.6919C66.1081 37.5804 66.4724 37.5273 66.8632 37.5273L66.8658 37.53ZM66.1029 38.4906C66.0606 38.5277 66.0184 38.5967 65.9788 38.6976C65.9392 38.7984 65.9049 38.9178 65.8732 39.0558C65.8415 39.1938 65.8177 39.3397 65.7993 39.4883C65.7808 39.6396 65.7729 39.7855 65.7729 39.9261L67.5443 39.8439C67.5258 39.6767 67.4994 39.5069 67.4624 39.3264C67.4255 39.1487 67.3727 38.9841 67.3014 38.8382C67.2301 38.6896 67.143 38.5675 67.04 38.4694C66.9371 38.3712 66.8104 38.3208 66.6652 38.3208C66.5622 38.3208 66.4645 38.334 66.3721 38.3579C66.2797 38.3818 66.1926 38.4269 66.1055 38.4879L66.1029 38.4906Z" fill="#005983"/>
<path d="M74.6874 38.8674C74.4868 38.764 74.2466 38.6605 73.9667 38.5623C73.6895 38.4641 73.3859 38.4137 73.0639 38.4137C72.9292 38.4137 72.7946 38.427 72.6599 38.4561C72.5253 38.4827 72.4091 38.5358 72.3115 38.6101C72.2006 38.6897 72.1135 38.8807 72.0448 39.1806C71.9762 39.4804 71.9445 39.9474 71.9445 40.5843C71.9445 40.9372 71.9683 41.2344 72.0184 41.4785C72.066 41.7227 72.1399 41.919 72.2376 42.0703C72.3352 42.2215 72.4567 42.3303 72.6045 42.394C72.7523 42.4577 72.9187 42.4922 73.1087 42.4922C73.4071 42.4922 73.7212 42.4603 74.0433 42.3967C74.3653 42.333 74.661 42.2454 74.925 42.134L75.0729 42.5479C74.7613 42.8026 74.4049 43.0176 74.0037 43.1874C73.6024 43.3572 73.1642 43.4422 72.6863 43.4422C72.3511 43.4422 72.0343 43.3917 71.736 43.2909C71.4403 43.1901 71.1842 43.0282 70.9704 42.808C70.7566 42.5877 70.5876 42.2985 70.4609 41.9402C70.3342 41.5847 70.2734 41.1495 70.2734 40.64C70.2734 40.1305 70.3394 39.7192 70.4714 39.3345C70.6034 38.9497 70.7935 38.6233 71.0443 38.358C71.2951 38.09 71.6066 37.8856 71.9788 37.745C72.3511 37.6044 72.7787 37.5327 73.2619 37.5327C73.5549 37.5327 73.8506 37.5539 74.1462 37.5964C74.4419 37.6389 74.7138 37.6866 74.9593 37.7423L74.6848 38.8701L74.6874 38.8674Z" fill="#005983"/>
<path d="M79.4765 38.9309C79.3551 38.8884 79.2231 38.8512 79.0832 38.8247C78.9433 38.7982 78.8086 38.7823 78.6793 38.7823C78.5869 38.7823 78.505 38.7902 78.4311 38.8061C78.3572 38.8221 78.2886 38.8486 78.2252 38.8857C78.1618 38.9229 78.0959 38.9707 78.0325 39.0343C77.9691 39.098 77.8952 39.1697 77.816 39.2546V43.3304H76.2109V37.6518H77.6523L77.7896 38.5541H77.8002C77.8424 38.4877 77.8952 38.4081 77.9559 38.3179C78.0167 38.2277 78.0827 38.1401 78.1539 38.0499C78.2252 37.9597 78.2965 37.8801 78.373 37.8058C78.4496 37.7315 78.5262 37.681 78.608 37.6492C78.7479 37.5988 78.9063 37.5669 79.0858 37.5537C79.2627 37.5377 79.4554 37.5298 79.664 37.5298L79.4792 38.9309H79.4765Z" fill="#005983"/>
<path d="M82.2366 37.6494V41.4572C82.2366 41.7942 82.2894 42.0463 82.3977 42.2082C82.5059 42.3701 82.6881 42.4523 82.9494 42.4523C83.0418 42.4523 83.1448 42.4391 83.2556 42.4099C83.3665 42.3833 83.48 42.3462 83.5988 42.2984C83.715 42.2533 83.8285 42.2002 83.9368 42.1419C84.045 42.0835 84.1453 42.0198 84.2377 41.9535V37.6494H85.8428V43.328H84.4014L84.2535 42.6646H84.2351C84.1242 42.7389 83.9922 42.8185 83.8364 42.9087C83.6807 42.999 83.5117 43.0839 83.3322 43.1661C83.1527 43.2484 82.9626 43.3174 82.7646 43.3731C82.5666 43.4288 82.3713 43.4554 82.1812 43.4554C81.9674 43.4554 81.7667 43.4209 81.5793 43.3492C81.3919 43.2776 81.2282 43.1741 81.0883 43.0361C80.9483 42.8981 80.8348 42.723 80.753 42.5107C80.6711 42.2984 80.6289 42.0543 80.6289 41.7783V37.6494H82.234H82.2366Z" fill="#005983"/>
<path d="M89.2535 43.3304H87.6484V37.6518H89.2535V43.3304ZM89.2218 36.0571C89.2218 36.4843 88.876 36.8319 88.451 36.8319C88.026 36.8319 87.6801 36.4843 87.6801 36.0571C87.6801 35.6298 88.026 35.2822 88.451 35.2822C88.876 35.2822 89.2218 35.6298 89.2218 36.0571Z" fill="#005983"/>
<path d="M91.1163 38.4348L90.5117 38.2332V37.8908L92.2514 36.6543H92.695L92.7134 37.6494H94.4294L94.3555 38.2756C94.2261 38.2995 94.0704 38.3207 93.8829 38.3393C93.6955 38.3579 93.5186 38.3738 93.347 38.3844C93.1464 38.403 92.9378 38.4216 92.724 38.4401V41.6297C92.724 41.8314 92.761 42.0038 92.8349 42.1418C92.9088 42.2798 93.0619 42.3488 93.2942 42.3488C93.3549 42.3488 93.4368 42.3461 93.5424 42.3408C93.6453 42.3355 93.7536 42.3249 93.8671 42.3143C93.9806 42.301 94.0888 42.2878 94.1971 42.2718C94.3053 42.2559 94.3951 42.2427 94.469 42.2294V42.6991C94.3343 42.784 94.1786 42.8715 94.0017 42.9618C93.8248 43.052 93.6374 43.1316 93.4368 43.2006C93.2388 43.2722 93.0381 43.328 92.8349 43.3704C92.6316 43.4129 92.4389 43.4341 92.2541 43.4341C92.1115 43.4341 91.9742 43.4208 91.8396 43.3916C91.705 43.3651 91.5835 43.3094 91.4753 43.2298C91.3671 43.1502 91.2826 43.0387 91.2166 42.8928C91.1532 42.7495 91.1189 42.5584 91.1189 42.3249V38.4242L91.1163 38.4348Z" fill="#005983"/>
<path d="M99.0017 43.3305V39.5227C99.0017 39.1857 98.9515 38.9362 98.8512 38.777C98.7509 38.6178 98.5845 38.5382 98.3522 38.5382C98.1806 38.5382 97.9826 38.586 97.7556 38.6815C97.5286 38.777 97.3332 38.8911 97.1695 39.0264V43.3331H95.5645V37.6546H96.9953L97.1326 38.318H97.1511C97.2619 38.2437 97.3913 38.164 97.5418 38.0738C97.6922 37.9836 97.8506 37.9013 98.0222 37.8191C98.1938 37.7395 98.3733 37.6705 98.5581 37.6174C98.7456 37.5617 98.9304 37.5352 99.1125 37.5352C99.4108 37.5352 99.6801 37.6068 99.9204 37.7474C100.158 37.8881 100.34 38.103 100.462 38.3923C100.578 38.3126 100.718 38.2224 100.884 38.1242C101.05 38.0261 101.227 37.9332 101.417 37.843C101.607 37.7527 101.8 37.6811 101.995 37.6227C102.191 37.5643 102.381 37.5352 102.563 37.5352C102.771 37.5352 102.964 37.5697 103.146 37.6413C103.326 37.7129 103.484 37.8164 103.619 37.9544C103.754 38.0924 103.859 38.2675 103.936 38.4745C104.012 38.6841 104.049 38.9283 104.049 39.2122V43.3331H102.444V39.5253C102.444 39.1883 102.394 38.9389 102.294 38.7797C102.193 38.6205 102.027 38.5409 101.795 38.5409C101.623 38.5409 101.425 38.5886 101.198 38.6841C100.971 38.7797 100.776 38.8938 100.612 39.0291V43.3358H99.0069L99.0017 43.3305Z" fill="#005983"/>
<path d="M108.202 37.53C108.471 37.53 108.732 37.5698 108.986 37.6441C109.239 37.7211 109.474 37.8511 109.688 38.0315C109.902 38.212 110.087 38.4561 110.242 38.7586C110.398 39.0611 110.517 39.4432 110.596 39.897V39.9713C110.546 40.0402 110.483 40.1013 110.398 40.1544C110.316 40.2101 110.208 40.2578 110.073 40.2976C109.939 40.3374 109.772 40.3746 109.577 40.4091C109.382 40.4436 109.147 40.4701 108.872 40.4887L107.093 40.6267V40.8655C107.093 41.3086 107.209 41.6748 107.441 41.9614C107.674 42.2507 108.022 42.3939 108.487 42.3939C108.677 42.3939 108.875 42.3727 109.083 42.3329C109.292 42.2931 109.487 42.2453 109.675 42.1896C109.862 42.1339 110.034 42.0782 110.19 42.0198C110.345 41.9614 110.464 41.911 110.543 41.8685L110.681 42.2825C110.509 42.4125 110.316 42.5452 110.102 42.6832C109.889 42.8212 109.659 42.9459 109.413 43.0573C109.168 43.1688 108.909 43.259 108.637 43.328C108.365 43.3996 108.086 43.4341 107.798 43.4341C107.463 43.4341 107.148 43.3837 106.858 43.2829C106.568 43.182 106.317 43.0202 106.106 42.7999C105.894 42.5797 105.728 42.2905 105.607 41.9322C105.485 41.5767 105.422 41.1415 105.422 40.632C105.422 40.0615 105.493 39.5759 105.633 39.1805C105.773 38.7851 105.968 38.464 106.219 38.2226C106.47 37.9784 106.766 37.8033 107.104 37.6919C107.444 37.5804 107.808 37.5273 108.199 37.5273L108.202 37.53ZM107.441 38.4906C107.399 38.5277 107.357 38.5967 107.317 38.6976C107.278 38.7984 107.243 38.9178 107.212 39.0558C107.18 39.1938 107.156 39.3397 107.138 39.4883C107.119 39.6396 107.111 39.7855 107.111 39.9261L108.883 39.8439C108.864 39.6767 108.838 39.5069 108.801 39.3264C108.764 39.1487 108.711 38.9841 108.64 38.8382C108.569 38.6896 108.482 38.5675 108.379 38.4694C108.276 38.3712 108.149 38.3208 108.004 38.3208C107.901 38.3208 107.803 38.334 107.711 38.3579C107.618 38.3818 107.531 38.4269 107.444 38.4879L107.441 38.4906Z" fill="#005983"/>
<path d="M115.604 43.3305V39.5227C115.604 39.1857 115.551 38.9362 115.443 38.777C115.335 38.6178 115.155 38.5382 114.897 38.5382C114.804 38.5382 114.701 38.5515 114.59 38.5753C114.477 38.5992 114.363 38.6364 114.25 38.6815C114.136 38.7266 114.025 38.7797 113.915 38.838C113.804 38.8964 113.703 38.9601 113.611 39.0264V43.3331H112.006V37.6546H113.437L113.585 38.318H113.603C113.714 38.2437 113.846 38.164 114.002 38.0738C114.157 37.9836 114.326 37.9013 114.511 37.8191C114.696 37.7395 114.883 37.6705 115.079 37.6174C115.274 37.5643 115.467 37.5352 115.657 37.5352C115.871 37.5352 116.071 37.5697 116.259 37.6413C116.446 37.7129 116.61 37.8164 116.75 37.9544C116.89 38.0924 117.003 38.2675 117.085 38.4745C117.167 38.6841 117.209 38.9283 117.209 39.2122V43.3331H115.604V43.3305Z" fill="#005983"/>
<path d="M119.034 38.4348L118.43 38.2332V37.8908L120.169 36.6543H120.613L120.631 37.6494H122.347L122.273 38.2756C122.144 38.2995 121.988 38.3207 121.801 38.3393C121.613 38.3579 121.437 38.3738 121.265 38.3844C121.064 38.403 120.856 38.4216 120.642 38.4401V41.6297C120.642 41.8314 120.679 42.0038 120.753 42.1418C120.827 42.2798 120.98 42.3488 121.212 42.3488C121.273 42.3488 121.355 42.3461 121.46 42.3408C121.563 42.3355 121.672 42.3249 121.785 42.3143C121.899 42.301 122.007 42.2878 122.115 42.2718C122.223 42.2559 122.313 42.2427 122.387 42.2294V42.6991C122.252 42.784 122.097 42.8715 121.92 42.9618C121.743 43.052 121.555 43.1316 121.355 43.2006C121.157 43.2722 120.956 43.328 120.753 43.3704C120.55 43.4129 120.357 43.4341 120.172 43.4341C120.029 43.4341 119.892 43.4208 119.758 43.3916C119.623 43.3651 119.502 43.3094 119.393 43.2298C119.285 43.1502 119.201 43.0387 119.135 42.8928C119.071 42.7495 119.037 42.5584 119.037 42.3249V38.4242L119.034 38.4348Z" fill="#005983"/>
<path d="M27.3198 9.70453C29.0227 9.70453 30.4032 8.31691 30.4032 6.6052C30.4032 4.89348 29.0227 3.50586 27.3198 3.50586C25.6168 3.50586 24.2363 4.89348 24.2363 6.6052C24.2363 8.31691 25.6168 9.70453 27.3198 9.70453Z" fill="#005983"/>
<path d="M150.897 9.16887C149.807 9.12641 148.97 9.21663 148.154 9.4183C146.668 9.78184 145.211 9.71815 143.793 9.15295C141.924 8.4073 140.754 6.8311 140.844 5.19121C140.931 3.60705 142.267 2.28027 144.067 1.98839C145.511 1.75222 146.969 2.25639 147.642 3.24882C148.143 3.99181 148.17 4.73745 147.555 5.43799C147.146 5.90236 146.457 6.10403 145.844 5.9687C145.382 5.86521 145.063 5.54678 145.092 5.2204C145.11 5.01342 145.258 4.86482 145.498 4.87278C145.881 4.88605 146.09 4.59682 145.955 4.27308C145.812 3.93343 145.321 3.69461 144.822 3.71849C144.025 3.75564 143.363 4.23328 143.154 4.92055C142.879 5.82541 143.413 6.82314 144.458 7.36181C145.799 8.05173 147.594 7.92701 148.801 7.01419C150.237 5.92624 150.599 4.55967 149.965 3.05776C149.271 1.41257 147.769 0.467906 145.699 0.162748C142.755 -0.272433 139.836 1.2162 138.925 3.62827C138.038 5.98197 138.811 8.03846 140.963 9.76326C142.08 10.6575 142.808 11.6871 142.943 12.9581C143.172 15.1101 141.504 16.9437 139.154 17.3338C137.383 17.6284 135.585 16.9835 134.738 15.7417C133.996 14.6537 134.22 13.319 135.292 12.5919C135.955 12.1408 136.713 11.9896 137.549 12.2576C138.101 12.4354 138.473 12.7644 138.555 13.2606C138.6 13.5339 138.508 13.7781 138.228 13.9505C137.961 14.1124 137.692 14.0726 137.499 13.8444C137.338 13.6534 137.095 13.6056 136.85 13.7303C136.525 13.8922 136.422 14.1496 136.462 14.4468C136.538 15.0252 137.193 15.5055 137.972 15.5692C139.149 15.6647 140.224 15.0385 140.583 14.0487C140.995 12.913 140.395 11.6446 139.102 10.9122C137.655 10.0923 135.646 10.1162 134.176 10.968C132.275 12.0692 131.551 14.1045 132.396 15.9513C133.376 18.0927 135.934 19.3187 138.524 19.255C141.599 19.1807 144.263 17.4055 145.015 14.8474C145.269 13.9797 145.651 13.1757 146.385 12.5123C147.597 11.4191 149.112 10.9043 150.942 11.0476C152.932 11.2015 154.617 12.4195 155.026 13.9824C155.374 15.3145 154.654 16.6492 153.27 17.2356C152.188 17.6947 150.876 17.5673 150.073 16.9092C149.508 16.4449 149.265 15.8956 149.522 15.2561C149.69 14.8315 150.139 14.5582 150.596 14.5715C151.1 14.5847 151.322 14.8581 151.132 15.2322C151.045 15.4047 151.132 15.5984 151.359 15.7045C151.647 15.8399 151.932 15.8133 152.209 15.6939C152.7 15.4816 152.982 14.9695 152.89 14.4653C152.74 13.6401 151.858 12.974 150.786 12.8785C149.226 12.7405 147.795 13.5631 147.362 14.8448C146.845 16.3759 147.763 18.0423 149.558 18.8384C151.742 19.8069 154.511 19.3319 156.069 17.7239C157.911 15.8213 157.795 13.1041 155.781 11.2015C154.427 9.92247 152.7 9.27766 150.9 9.17417L150.897 9.16887Z" fill="#005983"/>
</svg>
