<?xml version="1.0" encoding="utf-8"?>
<!-- Generator: Adobe Illustrator 24.0.0, SVG Export Plug-In . SVG Version: 6.00 Build 0)  -->
<svg version="1.1" id="Layer_1" xmlns="http://www.w3.org/2000/svg" xmlns:xlink="http://www.w3.org/1999/xlink" x="0px" y="0px"
	 viewBox="0 0 538 97" style="enable-background:new 0 0 538 97;" xml:space="preserve">
<style type="text/css">
	.st0{fill:none;}
	.st1{fill:#004A61;}
	.st2{fill:#959484;}
</style>
<rect x="4.3" class="st0" width="529" height="97"/>
<g>
	<g>
		<g>
			<path class="st1" d="M19.9,40.8v26.4c0,0.9-0.7,1.6-1.6,1.6h-10c-0.9,0-1.6-0.7-1.6-1.6V29.7c0-0.9,0.7-1.6,1.6-1.6h17.2
				c0.9,0,2,0.5,2.6,1.2l22.6,27.1c0.5,0.7,1.2,1.6,1.3,1.6l-0.1-2V29.7c0-0.9,0.7-1.6,1.6-1.6h10c0.9,0,1.6,0.7,1.6,1.6v37.5
				c0,0.9-0.7,1.6-1.6,1.6H46.2c-0.9,0-2-0.5-2.6-1.2L21,40.4c-0.6-0.7-1.2-1.5-1.2-1.5L19.9,40.8z"/>
		</g>
		<g>
			<path class="st1" d="M83.8,29.6c-0.3-0.8,0.2-1.5,1.1-1.5h9.7c0.9,0,1.8,0.7,2,1.5l8.2,26.9c0.3,0.8,0.5,2.1,0.5,2.1
				s0.3-1.3,0.6-2.1l9.8-26.9c0.3-0.8,1.2-1.5,2.1-1.5h9c0.9,0,1.8,0.7,2.1,1.5l9.8,26.9c0.3,0.8,0.6,2.1,0.6,2.1s0.3-1.3,0.5-2.1
				l8.2-26.9c0.2-0.8,1.2-1.5,2-1.5h9.7c0.9,0,1.3,0.7,1.1,1.5L148,67.3c-0.3,0.8-1.2,1.5-2.1,1.5H134c-0.9,0-1.8-0.7-2.1-1.5
				L123,43.4c-0.3-0.8-0.6-2.1-0.6-2.1s-0.3,1.3-0.6,2.1l-8.9,23.9c-0.3,0.8-1.2,1.5-2.1,1.5H98.9c-0.9,0-1.8-0.7-2.1-1.5L83.8,29.6
				z"/>
		</g>
		<path class="st1" d="M192.5,44.4h23.3c2.4,0,3.8-0.9,3.8-3.4s-1.4-3.4-3.8-3.4h-23.3V44.4z M192.5,59.2h23.6
			c2.8,0,4.7-0.7,4.7-3.2c0-3-1.9-3.6-4.7-3.6h-23.6V59.2z M225.6,48.2c5.7,0.7,8.7,3.7,8.7,9.8c0,8.9-5.5,10.8-13,10.8h-40.1
			c-0.9,0-1.6-0.7-1.6-1.6V29.7c0-0.9,0.7-1.6,1.6-1.6h36.1c10.4,0,15.5,2.7,15.5,10.7C232.7,45.7,229.2,47.2,225.6,48.2z"/>
		<path class="st1" d="M296.3,68.7c-0.9,0-1.6-0.7-1.6-1.6V29.7c0-0.9,0.7-1.6,1.6-1.6H326c7.6,0,9.7,4.4,9.7,9v3.5
			c0,2.9-1.5,5.9-5.9,6.4v0.2c3.9,0.2,7.3,1.9,7.3,8V60c0,5.7-4.5,8.6-10.6,8.6L296.3,68.7L296.3,68.7z M330.7,36.9
			c0-3.7-3.7-4.3-5.2-4.3h-25.8v13h25.6c2.7,0,5.5-1,5.5-5v-3.7H330.7z M332.1,55.9c0-5.1-2.5-5.8-7-5.8h-25.4v14.2h26.2
			c4.6,0,6.3-1.9,6.3-5.4v-3H332.1z"/>
		<path class="st1" d="M373.1,29.5c0.4-0.8,1.4-1.4,2.3-1.4h3c0.9,0,1.9,0.6,2.3,1.4L401,67.4c0.4,0.8,0,1.4-0.8,1.4h-2.5
			c-1.1,0-1.7-0.3-2.3-1.4l-3.1-5.8c-0.4-0.8-1.4-1.4-2.3-1.4h-26.2c-0.9,0-1.9,0.6-2.3,1.4l-3.1,5.8c-0.6,1.1-1.3,1.4-2.3,1.4h-2.5
			c-0.9,0-1.2-0.6-0.8-1.4L373.1,29.5z M376.9,32.6l-12.3,23.1h24.6L376.9,32.6z"/>
		<g>
			<path class="st1" d="M422.3,34.6v32.6c0,0.9-0.7,1.6-1.6,1.6h-1.8c-0.9,0-1.6-0.7-1.6-1.6V29.7c0-0.9,0.7-1.6,1.6-1.6h4.2
				c0.9,0,2,0.5,2.6,1.1l31.4,33.4l1.1,1.1v-1.6V29.7c0-0.9,0.7-1.6,1.6-1.6h1.8c0.9,0,1.6,0.7,1.6,1.6v37.5c0,0.9-0.7,1.6-1.6,1.6
				h-4.2c-0.9,0-2-0.5-2.6-1.1l-31.4-33.4l-1.1-1.3V34.6z"/>
		</g>
		<g>
			<g>
				<g>
					<g>
						<g>
							<g>
								<path class="st1" d="M504.2,48.6l26.1,19.1c0.5,0.4,0.3,1-0.4,1h-6.1c-0.9,0-1.6-0.4-2.3-0.9l-22.6-17
									c-0.7-0.5-1.4-0.9-2.3-0.9h-4.8v17.4c0,0.9-0.7,1.6-1.6,1.6h-1.8c-0.9,0-1.6-0.7-1.6-1.6V29.7c0-0.9,0.7-1.6,1.6-1.6h1.8
									c0.9,0,1.6,0.7,1.6,1.6v15.7h5.2c0.9,0,1.6-0.4,2.3-0.9L519.7,29c0.7-0.5,1.4-0.9,2.3-0.9h5.5c0.6,0,0.9,0.7,0.4,1
									l-23.7,17.6l-1.6,0.9L504.2,48.6z"/>
							</g>
						</g>
					</g>
				</g>
			</g>
		</g>
	</g>
	<path class="st2" d="M256,3.1c-0.3-0.4-0.7-0.6-1.2-0.6h-7.4c-0.6,0-1.1,0.3-1.3,0.8c-0.3,0.5-0.2,1.1,0.1,1.6
		c7.7,10.6,13.4,24.1,13.4,43.2c0,19.3-5.9,33-13.4,43.6c-0.3,0.5-0.4,1.1-0.1,1.6s0.8,0.8,1.3,0.8h7.4c0.5,0,0.9-0.2,1.2-0.6
		c7.1-9.4,14.6-23.6,14.5-45.2C270.6,26.5,263.1,12.2,256,3.1z"/>
</g>
</svg>
