<svg xmlns="http://www.w3.org/2000/svg" width="55" height="27" viewBox="0 0 199 106" data-test="logo-main" class="logo"><g><path fill="#7a9a33" d="M142.49 48.95C142.48 48.94 142.47 48.94 142.47 48.93C142.46 48.94 142.47 48.94 142.49 48.95Z"></path><path fill-rule="evenodd" fill="#414042" d="M4.56 66.69C5.37 67.16 7.98 68.4 11.11 68.4C14.83 68.4 18.13 67.03 18.13 62.79L18.13 61.29C17.62 62.02 15.39 64.76 10.99 64.76C4.57 64.76 0.29 59.92 0.29 53.08C0.29 46.19 4.74 41.31 11.07 41.31C15.26 41.31 17.66 43.83 18.34 44.86L18.34 41.86L22.75 41.86L22.75 61.25C22.75 69.64 17.66 72.42 11.15 72.42C8.16 72.42 5.03 71.43 3.06 70.28L4.56 66.69ZM11.58 45.46C7.73 45.46 4.95 48.54 4.95 53.04C4.95 57.62 7.82 60.61 11.63 60.61C15.65 60.61 18.26 57.44 18.26 53.04C18.26 48.46 15.43 45.46 11.58 45.46Z"></path><path fill="#414042" d="M27.63 55.31L27.63 41.87L32.25 41.87L32.25 55.69C32.25 58.77 34.18 60.57 36.74 60.57C39.69 60.57 41.62 58.43 41.62 55.35L41.62 41.87L46.29 41.87L46.29 64.21L41.71 64.21L41.71 61.3C40.73 63.1 38.42 64.76 35.42 64.76C29.64 64.77 27.63 60.19 27.63 55.31Z"></path><path fill="#414042" d="M62.29 46.02C57.41 46.02 56 49.74 56 54.58L56 64.21L51.33 64.21L51.33 41.87L55.91 41.87L55.91 45.38C56.77 43.16 59.12 41.32 62.29 41.32L62.29 46.02L62.29 46.02Z"></path><path fill="#414042" d="M65.76 33.27L70.42 33.27L70.42 51.41L78.68 41.87L83.99 41.87L75.05 51.97L84.59 64.21L79.07 64.21L70.42 52.48L70.42 64.21L65.76 64.21L65.76 33.27Z"></path><path fill-rule="evenodd" fill="#414042" d="M96.91 41.32C103.67 41.32 107.65 45.98 107.65 53C107.65 53.39 107.65 53.77 107.61 54.16L90.79 54.16C90.88 58.14 93.74 60.71 97.72 60.71C101.1 60.71 103.03 58.83 103.88 57.59L106.96 59.9C105.89 61.74 102.94 64.78 97.63 64.78C90.66 64.78 86.03 59.9 86.03 53.14C86.04 46.19 90.79 41.32 96.91 41.32ZM102.91 50.94C102.74 47.26 100.17 45.21 96.96 45.21C93.75 45.21 91.27 47.43 90.97 50.94L102.91 50.94Z"></path><path fill="#414042" d="M122.38 46.02C117.5 46.02 116.09 49.74 116.09 54.58L116.09 64.21L111.42 64.21L111.42 41.87L116 41.87L116 45.38C116.86 43.16 119.21 41.32 122.38 41.32L122.38 46.02Z"></path><path fill="#414042" d="M125.84 33.27L130.51 33.27L130.51 64.21L125.84 64.21L125.84 33.27Z"></path><path fill="#414042" d="M106.79 86.87C107.44 86.87 107.98 87.41 107.98 88.06C107.98 88.71 107.44 89.25 106.79 89.25C106.14 89.25 105.6 88.71 105.6 88.06C105.6 87.4 106.14 86.87 106.79 86.87Z"></path><path fill-rule="evenodd" fill="#414042" d="M116.33 79.56C118.34 79.56 119.9 80.41 120.55 81.15L120.55 78.91C120.55 76.45 118.94 75.12 116.53 75.12C114.58 75.12 113.02 75.85 112 76.48L111.41 75.37C112.2 74.86 114.13 73.81 116.62 73.81C120.27 73.81 121.97 75.93 121.97 78.99L121.97 88.87L120.81 88.87L120.55 87.48C119.76 88.39 118.46 89.23 116.33 89.23C112.99 89.23 110.7 87.08 110.7 84.36C110.69 81.6 113.08 79.56 116.33 79.56ZM116.41 87.94C118.9 87.94 120.63 86.41 120.63 84.37C120.63 82.27 118.96 80.86 116.39 80.86C113.79 80.86 112.14 82.39 112.14 84.37C112.14 86.33 113.78 87.94 116.41 87.94Z"></path><path fill="#414042" d="M126.01 71.13L127.42 71.13L127.42 74.19L130.88 74.19L130.88 75.47L127.42 75.47L127.42 83.73C127.42 86.93 128.16 87.75 130.37 87.75C130.68 87.75 131.02 87.72 131.02 87.72L131.02 89C131.02 89 130.34 89.05 129.8 89.05C127.48 89.05 126.01 87.61 126.01 84.63L126.01 75.46L124.2 75.46L124.2 74.18L126.01 74.18L126.01 71.13Z"></path><path fill="#9ac042" d="M86.63 24.45C86.64 24.44 86.68 24.42 86.75 24.38C86.72 24.41 86.67 24.43 86.63 24.45Z"></path><path fill="#798f29" d="M182.9 28.43L182.89 28.43L182.9 28.43L182.9 28.43Z"></path><path fill="#839d28" d="M142.5 49.14C142.49 49.14 142.48 49.13 142.48 49.13C142.48 49.13 142.49 49.13 142.5 49.14Z"></path><path fill="#6d9e2e" d="M173.85 11.65C173.84 11.52 173.8 11.38 173.81 11.25C173.85 10.18 173.51 9.27 172.69 8.57C172.47 8.39 172.04 8.17 172.07 7.91C172.24 6.28 172.59 3.54 172.65 2.24C172.71 0.7 170.76 0.55 170.2 0.51C169.73 0.47 167.59 4.17 166.51 7.11C166.23 7.85 165.96 8.59 165.69 9.34C167.09 9.43 169.81 9.84 173.17 11.26C173.4 11.37 173.63 11.51 173.85 11.65Z"></path><path fill="#798f29" d="M158.1 69.81C158.01 69.62 157.92 69.43 157.83 69.23C157.72 68.99 157.6 68.75 157.48 68.51C157.36 68.28 157.25 68.04 157.14 67.81C157.14 67.81 157.13 67.81 157.13 67.82C157.44 68.48 157.76 69.15 158.1 69.81Z"></path><path fill="#9bb92a" d="M151.87 44.56C151.91 44.88 151.98 45.58 152.06 46.18C152.04 45.86 152.02 45.56 152.02 45.51C151.96 45.19 151.91 44.88 151.87 44.56Z"></path><path fill="#6d9e2e" d="M152.06 46.18C151.98 45.58 151.91 44.88 151.87 44.56C151.84 44.35 151.81 44.15 151.78 43.94C151.32 40.56 151.13 37.25 150.77 33.78C150.65 32.64 150.59 31.58 150.56 30.84C150.56 30.83 150.56 30.83 150.56 30.82C150.53 30.17 150.53 29.76 150.53 29.76C146.66 28.91 145.36 28.74 145.35 28.74C143.72 32.93 142.09 39.81 142.48 49.11C142.48 49.11 146.32 47.66 152.13 46.91C152.1 46.74 152.07 46.45 152.06 46.18Z"></path><path fill="#9bb92a" d="M150.56 30.83L150.56 30.84L150.56 30.84C150.56 30.84 150.56 30.84 150.56 30.83Z"></path><path fill="#9bb92a" d="M168.51 47.11C168.46 47.1 168.41 47.1 168.36 47.09C168.4 47.09 168.45 47.1 168.51 47.11Z"></path><path fill-rule="evenodd" fill="#8bbe3f" d="M186.83 53.42C186.82 53.41 186.8 53.4 186.77 53.38C186.65 53.31 186.35 53.12 185.85 52.86C183.87 51.81 178.81 49.5 169.77 47.69C168.74 47.48 167.65 47.28 166.52 47.09C161.21 46.2 156.21 46.38 152.17 46.9C152.13 46.72 152.1 46.46 152.06 46.17C152.04 45.84 152.02 45.55 152.02 45.5C151.97 45.18 151.92 44.87 151.87 44.55C151.86 44.44 151.85 44.37 151.85 44.37C151.82 44.21 151.8 44.06 151.78 43.93C151.31 40.55 151.13 37.24 150.77 33.77C150.65 32.62 150.59 31.57 150.56 30.83L150.56 30.82C150.55 30.44 150.54 30.08 150.53 29.76C155.63 30.46 162.48 32.35 169.88 35.32C174.29 37.09 178.89 39.25 183.44 41.77C185.7 47.07 187.06 53.72 186.83 53.42ZM170.89 43.04C170.89 43.16 170.89 43.24 170.89 43.32C170.92 43.8 171.13 44.16 171.59 44.35C171.91 44.49 172.2 44.45 172.47 44.23C173.18 43.66 173.1 42.55 172.56 42.03C172.2 41.69 171.46 41.61 171.09 42.22C170.93 42.49 170.84 42.77 170.89 43.04ZM154.83 33.03C154.5 32.71 153.83 32.64 153.5 33.2C153.36 33.44 153.28 33.69 153.32 33.94C153.32 34.05 153.32 34.12 153.32 34.19C153.34 34.63 153.53 34.95 153.95 35.13C154.24 35.26 154.5 35.22 154.75 35.02C155.4 34.5 155.32 33.49 154.83 33.03ZM162.69 38.43C162.07 37.83 160.8 37.7 160.17 38.75C159.9 39.21 159.75 39.69 159.83 40.16C159.83 40.37 159.82 40.5 159.83 40.64C159.87 41.47 160.23 42.08 161.02 42.41C161.58 42.64 162.07 42.58 162.54 42.2C163.76 41.23 163.61 39.32 162.69 38.43ZM168.26 47.08C168.26 47.08 168.26 47.08 168.27 47.08C168.26 47.08 168.26 47.08 168.26 47.08ZM168.27 47.08C168.29 47.08 168.32 47.09 168.36 47.09C168.31 47.08 168.28 47.08 168.27 47.08Z"></path><path fill="#9bb92a" d="M168.36 47.09C168.3 47.08 168.26 47.08 168.26 47.08C168.29 47.08 168.32 47.09 168.36 47.09Z"></path><path fill="#798f29" d="M198.66 91.27C198.66 91.27 198.65 91.26 198.63 91.25C198.63 91.28 198.63 91.31 198.64 91.33C198.64 91.31 198.65 91.29 198.66 91.27Z"></path><g><path fill="#5f8b2f" d="M169.88 35.33C178.49 33.05 182.23 28.97 182.9 28.44L182.9 28.44C182.9 28.44 175.41 27.17 167.24 25.11C165.02 27 160.15 28.13 145.35 28.76C145.36 28.76 146.66 28.93 150.53 29.78C150.53 29.78 150.53 30.19 150.56 30.84C150.55 30.45 150.53 30.1 150.53 29.78C155.63 30.47 162.48 32.35 169.88 35.33Z"></path><path fill="#5f8b2f" d="M186.81 53.44C186.8 53.44 178.09 52.88 168.38 52.12C166.87 54.02 164.39 56.21 161.18 58.22C169.91 57.79 176.86 58 181.59 58.32C185.05 56.2 186.81 53.44 186.81 53.44Z"></path><path fill="#5f8b2f" d="M193.37 66.88C193.38 66.86 193.39 66.84 193.4 66.83C193.15 66.7 190.4 65.33 186.73 63.92C183.15 65.85 177.21 68.62 171.96 70.97C174.62 71.7 177.19 72.87 179.79 74.74C186.06 71.38 191.74 68.2 193.37 66.88Z"></path><path fill="#5f8b2f" d="M192.19 87.96C191.53 88.42 190.73 88.97 189.82 89.58C187.2 91.34 182.73 93.37 179.3 94.8C181.42 95.03 184.79 95.66 188.73 97.51L198.63 91.26C198.31 91.04 195.24 88.99 192.19 87.96Z"></path></g><path fill="#6d9e2e" d="M159.46 85.28L159.46 85.28C159.86 86.27 170.15 97.58 170.55 98.04C171.29 97.83 173.69 97.03 174.6 96.67C174.32 96.29 167.58 85.62 166.34 83.53C164.22 84.14 161.93 84.73 159.46 85.28Z"></path><path fill="#9bb92a" d="M193.42 66.83L193.42 66.83C193.42 66.83 193.41 66.83 193.4 66.82C193.39 66.84 193.38 66.86 193.37 66.87C193.39 66.86 193.41 66.85 193.42 66.83Z"></path><path fill="#9bb92a" d="M193.38 86.87C193.37 86.9 193.36 86.94 193.35 86.97C193.36 86.94 193.37 86.91 193.38 86.87C193.37 86.9 193.36 86.94 193.35 86.97C193.38 86.94 193.42 86.92 193.45 86.89C193.43 86.89 193.4 86.88 193.38 86.87Z"></path><path fill-rule="evenodd" fill="#8bbe3f" d="M194.52 86.31C194.52 86.31 193.69 86.93 192.19 87.97C191.53 88.43 190.74 88.98 189.82 89.59C187.2 91.34 182.72 93.37 179.3 94.81C176.8 95.86 174.86 96.59 174.62 96.68C174.61 96.68 174.61 96.67 174.61 96.67C174.33 96.3 167.59 85.63 166.35 83.54C166.44 83.52 166.53 83.49 166.61 83.47C190.18 76.66 193.43 66.85 193.43 66.84C193.43 66.84 193.42 66.84 193.41 66.83C193.41 66.82 193.42 66.82 193.42 66.81C193.43 66.87 194.75 68.84 194.99 74.36C195.39 82.73 194.52 86.31 194.52 86.31ZM170.73 85.92C170.73 86 170.73 86.05 170.73 86.1C170.75 86.42 170.88 86.65 171.19 86.78C171.4 86.87 171.59 86.84 171.77 86.7C172.24 86.32 172.18 85.59 171.83 85.25C171.59 85.02 171.1 84.97 170.86 85.37C170.76 85.54 170.7 85.73 170.73 85.92ZM178.92 88.83C178.43 88.37 177.45 88.26 176.96 89.08C176.74 89.43 176.63 89.81 176.69 90.17C176.69 90.33 176.69 90.43 176.69 90.54C176.72 91.19 177 91.66 177.62 91.92C178.06 92.11 178.44 92.05 178.8 91.76C179.75 90.99 179.63 89.51 178.92 88.83ZM183.79 82.83C183.42 82.49 182.69 82.41 182.32 83.02C182.16 83.29 182.08 83.57 182.12 83.84C182.12 83.96 182.12 84.04 182.12 84.12C182.14 84.6 182.35 84.96 182.81 85.15C183.14 85.29 183.43 85.25 183.7 85.03C184.41 84.46 184.32 83.35 183.79 82.83Z"></path><path fill="#a3bf31" d="M193.37 66.88C193.09 67.34 192.78 67.79 192.46 68.25C192.93 67.7 193.27 67.21 193.43 66.84C193.41 66.85 193.39 66.86 193.37 66.88Z"></path><path fill="#839d28" d="M198.63 91.25L198.63 91.25L198.63 91.25L198.63 91.25"></path><path fill="#839d28" d=""></path><path fill="#6d9e2e" d="M198.64 91.34C198.64 91.31 198.64 91.29 198.63 91.26L198.63 91.26C198.6 91.3 197.43 93.01 193.1 96.8C192.75 97.11 192.37 97.43 191.98 97.77C187.47 101.6 181.12 103.27 179.29 103.69C179.15 103.72 179.02 103.75 178.9 103.78C178.83 103.79 178.79 103.8 178.78 103.8L178.78 103.8C180.69 104.63 182.72 105.18 184.91 105.34C187.52 105.54 190 105.12 192.29 103.9C194.97 102.48 196.72 100.31 197.76 97.57C197.99 96.96 198.17 96.34 198.31 95.72C198.54 94.7 198.66 93.67 198.71 92.62C198.72 92.48 198.68 91.98 198.64 91.34Z"></path><path fill="#a3bf31" d="M198.63 91.25L198.63 91.25L198.63 91.25L198.63 91.25"></path><path fill="#a3bf31" d=""></path><path fill="#a3bf31" d="M178.78 103.79C178.79 103.79 178.83 103.78 178.9 103.77C178.86 103.78 178.82 103.79 178.78 103.79Z"></path><path fill="#a3bf31" d="M198.63 91.25L198.63 91.25L198.63 91.25L198.63 91.25Z"></path><path fill="#a3bf31" d="M186.75 53.4C186.72 53.39 186.69 53.37 186.64 53.35C186.7 53.38 186.75 53.41 186.81 53.44C186.81 53.44 186.79 53.42 186.75 53.4Z"></path><path fill="#a3bf31" d=""></path><path fill="#a3bf31" d="M152.12 46.92C152.13 47.02 152.15 47.09 152.16 47.11C152.17 47.1 152.18 47.09 152.19 47.08C152.18 47.04 152.17 46.98 152.16 46.92C152.15 46.92 152.14 46.92 152.12 46.92Z"></path><path fill="#a3bf31" d="M152.17 47.11C152.18 47.12 152.19 47.11 152.2 47.08C152.19 47.08 152.18 47.09 152.17 47.11Z"></path><path fill="#a3bf31" d=""></path><path fill="#a3bf31" d="M185.83 52.87C186.09 53.04 186.36 53.2 186.64 53.35C186.68 53.37 186.72 53.38 186.75 53.4C186.63 53.32 186.33 53.13 185.83 52.87Z"></path><path fill="#6d9e2e" d="M161.38 75.53C161.38 75.52 161.37 75.52 161.37 75.51C161.23 75.29 161.09 75.08 160.96 74.86C160.43 74.02 159.93 73.17 159.44 72.31C159.43 72.3 159.42 72.28 159.42 72.27C159.27 72.02 159.13 71.76 158.98 71.51C158.7 71 158.42 70.49 158.18 69.97L158.18 69.96C158.16 69.91 158.13 69.86 158.11 69.81C157.78 69.15 157.45 68.49 157.14 67.82C157.02 67.56 156.9 67.31 156.79 67.05C156.61 66.67 156.44 66.3 156.27 65.92C156.14 65.63 156.01 65.34 155.89 65.05C155.84 64.93 155.79 64.8 155.74 64.68C155.58 64.29 155.43 63.9 155.29 63.51C155.24 63.36 155.18 63.21 155.13 63.07C154.72 62.02 154.34 60.96 153.97 59.9C148.67 59.89 143.78 59.82 143.78 59.82L143.78 59.82L143.78 59.82C146.35 67.48 149.52 73.39 153.74 78.09C153.73 78.08 158.55 76.55 161.38 75.53L161.38 75.53Z"></path><path fill="#9bb92a" d="M188.47 59C188.58 59.02 188.63 59.03 188.63 59.03C188.62 59.01 188.56 59.01 188.47 59Z"></path><path fill-rule="evenodd" fill="#8bbe3f" d="M189.91 61.87C189.6 62.28 188.43 63.01 186.74 63.92C183.16 65.85 177.22 68.62 171.97 70.97C166.77 73.3 162.26 75.23 161.39 75.54C161.39 75.53 161.38 75.53 161.38 75.52C161.24 75.31 161.11 75.09 160.97 74.87C160.59 74.26 160.23 73.65 159.87 73.04C159.73 72.8 159.59 72.56 159.45 72.32C159.01 71.55 158.59 70.77 158.19 69.98C158.16 69.93 158.14 69.87 158.11 69.82C158.02 69.62 157.93 69.43 157.84 69.24C157.72 69 157.61 68.76 157.49 68.52C157.38 68.29 157.26 68.05 157.15 67.82C157.1 67.72 157.05 67.62 157 67.52C156.93 67.36 156.85 67.21 156.78 67.05C156.19 65.74 155.63 64.4 155.11 63.06C154.98 62.69 154.84 62.32 154.71 61.95C154.46 61.26 154.21 60.57 153.96 59.88C155.4 59.89 156.87 59.89 158.28 59.88C161.82 59.86 164.99 59.81 166.35 59.68C168.41 59.48 174.6 59.31 179.93 59.19C184.61 59.08 188.64 59.02 188.64 59.02C188.96 59.22 189.97 60.77 189.91 61.87ZM160.22 66.43C160.34 66.54 160.48 66.64 160.66 66.71C161.07 66.89 161.43 66.84 161.78 66.56C162.12 66.28 162.32 65.9 162.39 65.5C162.51 64.86 162.31 64.17 161.89 63.77C161.43 63.33 160.5 63.23 160.03 64.01C159.83 64.35 159.72 64.71 159.78 65.05C159.78 65.2 159.78 65.3 159.78 65.4C159.8 65.83 159.94 66.18 160.22 66.43ZM171.66 63.79C171.04 63.19 169.77 63.06 169.14 64.11C168.87 64.57 168.72 65.05 168.8 65.52C168.8 65.73 168.8 65.86 168.8 66C168.83 66.83 169.19 67.44 169.99 67.77C170.55 68 171.04 67.94 171.51 67.56C172.73 66.58 172.58 64.68 171.66 63.79Z"></path><path fill="#9bb92a" d="M160.96 74.86C161.1 75.08 161.23 75.3 161.37 75.51C161.37 75.52 161.38 75.52 161.38 75.53C161.38 75.52 161.37 75.52 161.37 75.51C161.23 75.29 161.09 75.08 160.96 74.86Z"></path><path fill="#9bb92a" d="M158.98 71.5C159.12 71.76 159.27 72.01 159.42 72.26C159.43 72.27 159.44 72.29 159.45 72.3C159.01 71.53 158.6 70.75 158.19 69.96L158.18 69.96C158.42 70.48 158.69 71 158.98 71.5Z"></path><path fill="#9bb92a" d="M155.27 63.5C155.41 63.89 155.57 64.28 155.72 64.67C155.77 64.79 155.82 64.92 155.87 65.05C155.99 65.34 156.12 65.63 156.25 65.92C156.42 66.3 156.59 66.67 156.77 67.05C156.18 65.74 155.62 64.41 155.1 63.06C155.16 63.2 155.21 63.35 155.27 63.5Z"></path><path fill="#9bb92a" d="M158.17 69.97C158.18 69.97 158.18 69.97 158.17 69.97C158.15 69.92 158.12 69.86 158.1 69.81C158.12 69.86 158.15 69.91 158.17 69.97C158.17 69.96 158.17 69.96 158.17 69.97Z"></path><path fill="#a3bf31" d=""></path><path fill="#839d28" d="M156.58 16.27C156.52 16.36 156.46 16.44 156.4 16.53L156.4 16.53L156.4 16.53C156.46 16.44 156.52 16.35 156.58 16.27Z"></path><path fill="#839d28" d="M154.73 19.3C154.71 19.33 154.7 19.37 154.68 19.4C154.7 19.37 154.72 19.34 154.73 19.3Z"></path><path fill-rule="evenodd" fill="#6d9e2e" d="M150.38 19.25C151.88 17.06 153.59 15.04 155.62 13.32C157.34 11.87 159.23 10.7 161.37 9.97C162.23 9.68 163.1 9.49 163.99 9.35C164.2 9.32 164.42 9.34 164.64 9.34C164.38 9.48 164.13 9.62 163.87 9.76C163.56 9.93 163.24 10.1 162.93 10.27C162.71 10.39 162.5 10.51 162.29 10.64C161.39 11.19 160.56 11.83 159.78 12.54C159.66 12.66 159.53 12.77 159.41 12.89C158.82 13.45 158.29 14.07 157.78 14.7C157.65 14.86 157.52 15.03 157.39 15.2C157.2 15.44 157.02 15.68 156.84 15.92C156.77 16.01 156.7 16.1 156.64 16.19C156.62 16.21 156.6 16.24 156.58 16.27L156.57 16.28C156.51 16.36 156.45 16.45 156.39 16.54C156.28 16.71 156.17 16.88 156.07 17.05C156.03 17.11 155.99 17.18 155.95 17.24C155.94 17.26 155.92 17.29 155.91 17.31C155.83 17.44 155.74 17.57 155.66 17.7C155.47 18 155.28 18.29 155.1 18.6C155.01 18.76 154.92 18.92 154.84 19.08C154.83 19.1 154.82 19.12 154.81 19.14C154.79 19.2 154.76 19.25 154.73 19.31C154.72 19.34 154.7 19.37 154.68 19.41C152.13 19.24 150.41 19.24 150.38 19.25ZM155.11 18.6C155.02 18.76 154.93 18.91 154.85 19.08C154.93 18.91 155.02 18.75 155.11 18.6Z"></path><path fill="#9bb92a" d="M156.18 16.87C156.14 16.93 156.11 16.98 156.07 17.04L156.07 17.04C156.11 16.99 156.15 16.93 156.18 16.87Z"></path><path fill="#9bb92a" d="M182.9 28.43L182.9 28.43L182.9 28.43C182.82 28.5 182.99 28.36 182.9 28.43Z"></path><path fill="#9bb92a" d="M156.85 15.9C157.34 15.25 157.83 14.6 158.36 13.99C158.16 14.22 157.98 14.45 157.79 14.68C157.66 14.85 157.53 15.01 157.4 15.18C157.21 15.41 157.03 15.66 156.85 15.9C156.78 15.99 156.72 16.08 156.65 16.17C156.63 16.2 156.61 16.23 156.59 16.25C156.59 16.25 156.59 16.25 156.59 16.26C156.67 16.14 156.76 16.02 156.85 15.9Z"></path><path fill="#9bb92a" d="M182.9 28.43L182.9 28.43L182.9 28.43"></path><path fill="#9bb92a" d=""></path><path fill-rule="evenodd" fill="#8bbe3f" d="M182.89 28.43C182.79 28.37 177.84 25.44 170.76 22.67C170.31 22.49 169.85 22.31 169.38 22.14C164.6 20.35 158.64 19.66 154.68 19.4C154.73 19.31 154.77 19.22 154.82 19.13C154.83 19.11 154.84 19.09 154.85 19.07C154.93 18.9 155.02 18.75 155.11 18.59C155.26 18.34 155.41 18.09 155.57 17.85C155.6 17.8 155.64 17.74 155.67 17.69C155.76 17.56 155.84 17.43 155.92 17.3C155.93 17.28 155.95 17.25 155.96 17.23C155.99 17.18 156.01 17.14 156.04 17.09C156.05 17.07 156.06 17.05 156.07 17.03C156.11 16.97 156.14 16.92 156.18 16.86C156.25 16.75 156.32 16.63 156.4 16.52C156.46 16.43 156.52 16.34 156.58 16.25C156.66 16.13 156.75 16.01 156.84 15.89C157.32 15.24 157.82 14.59 158.35 13.98C158.69 13.59 159.04 13.22 159.41 12.86C159.53 12.74 159.65 12.62 159.78 12.51C160.56 11.8 161.39 11.16 162.29 10.61C162.5 10.48 162.71 10.36 162.93 10.24C163.24 10.07 163.56 9.9 163.87 9.73C164.13 9.59 164.38 9.45 164.64 9.31C164.66 9.3 165.03 9.28 165.68 9.32C167.08 9.41 169.8 9.81 173.16 11.24C173.4 11.36 173.63 11.5 173.85 11.64C175.06 12.4 176.11 13.35 177.07 14.4C178.92 16.43 180.28 18.76 181.26 21.31C181.28 21.37 181.31 21.43 181.33 21.49C182.17 23.75 182.69 26.06 182.89 28.43ZM182.1 26.08C182.2 26.13 182.3 26.17 182.4 26.21C182.38 26.09 182.35 25.97 182.33 25.85C182.26 25.92 182.18 26 182.1 26.08ZM164.51 11.97C164.05 11.53 163.12 11.43 162.65 12.21C162.45 12.55 162.34 12.9 162.4 13.25C162.4 13.4 162.4 13.5 162.4 13.6C162.43 14.22 162.69 14.66 163.28 14.91C163.69 15.09 164.05 15.04 164.4 14.76C165.3 14.04 165.19 12.63 164.51 11.97ZM171.29 18.95C171.62 19.09 171.91 19.05 172.18 18.83C172.89 18.26 172.81 17.15 172.27 16.63C171.91 16.29 171.17 16.21 170.8 16.82C170.64 17.09 170.56 17.37 170.6 17.64C170.6 17.76 170.6 17.84 170.6 17.92C170.62 18.4 170.83 18.75 171.29 18.95Z"></path><path fill="#9bb92a" d="M182.33 25.85C182.26 25.93 182.18 26.01 182.1 26.09C182.2 26.13 182.3 26.18 182.4 26.22C182.38 26.09 182.35 25.97 182.33 25.85Z"></path><path fill="#9bb92a" d="M157.39 15.17C157.52 15 157.65 14.83 157.78 14.67C157.66 14.84 157.52 15.01 157.39 15.17Z"></path><path fill="#9bb92a" d="M156.59 16.25C156.61 16.22 156.63 16.19 156.65 16.17C156.63 16.2 156.61 16.23 156.59 16.25Z"></path><path fill="#9bb92a" d="M154.68 19.41C154.73 19.32 154.77 19.23 154.82 19.14C154.83 19.12 154.84 19.1 154.85 19.08C154.93 18.92 155.02 18.76 155.11 18.6C155.26 18.35 155.41 18.1 155.57 17.86C155.41 18.1 155.26 18.35 155.11 18.6C155.26 18.35 155.41 18.1 155.57 17.86C155.6 17.81 155.64 17.75 155.67 17.7C155.48 18 155.29 18.3 155.11 18.6C155.02 18.76 154.93 18.92 154.85 19.08C154.84 19.1 154.83 19.12 154.82 19.14C154.79 19.2 154.76 19.25 154.73 19.31C154.76 19.25 154.79 19.2 154.82 19.14C154.83 19.12 154.84 19.1 154.85 19.08C154.84 19.1 154.83 19.12 154.82 19.14C154.79 19.2 154.76 19.25 154.73 19.31C154.72 19.34 154.7 19.37 154.68 19.41Z"></path><path fill="#9bb92a" d="M156.04 17.1C156.05 17.08 156.06 17.06 156.07 17.04L156.07 17.04L156.07 17.04C156.06 17.07 156.05 17.08 156.04 17.1Z"></path><path fill="#9bb92a" d="M162.3 10.62C162.51 10.49 162.72 10.37 162.94 10.25C163.25 10.08 163.57 9.91 163.88 9.74C163.56 9.91 163.25 10.08 162.94 10.25C162.72 10.37 162.51 10.49 162.3 10.62Z"></path><path fill="#9bb92a" d="M156.08 17.05L156.08 17.05C156.08 17.04 156.08 17.04 156.08 17.05C156.08 17.04 156.08 17.05 156.08 17.05C156.04 17.11 156 17.18 155.96 17.24C155.99 17.2 156.02 17.15 156.04 17.11C156.05 17.08 156.06 17.07 156.08 17.05Z"></path><path fill="#a3bf31" d="M154.68 19.41C154.66 19.45 154.64 19.49 154.62 19.52C154.63 19.49 154.65 19.47 154.66 19.44C154.67 19.43 154.68 19.42 154.68 19.41Z"></path><path fill="#a3bf31" d="M154.68 19.41C152.13 19.24 150.41 19.25 150.39 19.25C151.72 19.3 153.14 19.39 154.62 19.53C154.64 19.48 154.66 19.45 154.68 19.41Z"></path><path fill="#a3bf31" d=""></path><g><path fill="#a9c843" d="M192.46 68.24C192.79 67.78 193.09 67.33 193.37 66.87C191.75 68.19 186.06 71.37 179.8 74.72C170.32 79.79 159.52 85.26 159.47 85.27L159.47 85.27C161.94 84.72 164.23 84.14 166.36 83.53C166.44 83.51 166.53 83.48 166.62 83.46C190.19 76.66 193.43 66.85 193.44 66.83C193.27 67.21 192.93 67.69 192.46 68.24Z"></path><path fill="#a9c843" d="M198.63 91.25L198.63 91.25L188.73 97.5L178.78 103.79L178.78 103.79C178.82 103.78 178.86 103.77 178.9 103.77C178.99 103.75 179.12 103.72 179.29 103.68C181.12 103.26 187.47 101.59 191.98 97.76C192.38 97.42 192.75 97.1 193.1 96.79C197.43 93 198.6 91.3 198.63 91.25L198.63 91.25Z"></path><path fill="#a9c843" d="M186.65 53.35C186.37 53.2 186.1 53.04 185.84 52.87C183.86 51.82 178.8 49.51 169.76 47.7C168.73 47.49 167.65 47.29 166.51 47.1C161.2 46.21 156.21 46.39 152.16 46.91C152.17 46.97 152.18 47.03 152.19 47.07C152.18 47.1 152.17 47.11 152.16 47.1C152.15 47.08 152.13 47.01 152.12 46.91C146.32 47.66 142.47 49.11 142.47 49.11C142.48 49.11 142.49 49.12 142.49 49.12C143.78 50 156.78 51.2 168.38 52.1C178.08 52.86 186.8 53.42 186.81 53.42C186.76 53.41 186.7 53.38 186.65 53.35Z"></path><path fill="#a9c843" d="M188.64 59.02C188.64 59.02 188.58 59.01 188.48 58.99C187.86 58.9 185.49 58.57 181.6 58.31C176.87 57.99 169.92 57.78 161.19 58.21C155.98 58.47 150.14 58.96 143.77 59.8C143.77 59.8 148.66 59.86 153.96 59.88L153.96 59.88C155.4 59.88 156.87 59.88 158.28 59.88C161.83 59.86 165 59.81 166.35 59.68C168.41 59.48 174.6 59.31 179.93 59.19C184.61 59.09 188.64 59.02 188.64 59.02Z"></path><path fill="#a9c843" d="M182.89 28.43C182.79 28.37 177.84 25.44 170.76 22.67C170.31 22.49 169.85 22.32 169.38 22.14C164.6 20.35 158.63 19.67 154.68 19.4C154.67 19.41 154.67 19.42 154.66 19.44C154.65 19.47 154.63 19.49 154.62 19.52C153.14 19.38 151.71 19.29 150.39 19.24L150.39 19.24C154.43 21.51 161.03 23.53 167.24 25.1C175.42 27.16 182.9 28.43 182.89 28.43C182.9 28.43 182.9 28.43 182.89 28.43Z"></path></g><path fill="#a3bf31" d=""></path><path fill="#a3bf31" d="M154.68 19.41C154.67 19.42 154.67 19.43 154.66 19.44C154.67 19.43 154.68 19.42 154.68 19.41Z"></path><g><path fill="#6d9e2e" d="M160.17 38.76C159.9 39.22 159.75 39.7 159.83 40.17C159.83 40.38 159.83 40.51 159.83 40.65C159.87 41.48 160.23 42.09 161.02 42.42C161.58 42.66 162.07 42.59 162.54 42.21C163.76 41.23 163.61 39.33 162.69 38.44C162.07 37.84 160.8 37.71 160.17 38.76Z"></path><path fill="#6d9e2e" d="M169.15 64.11C168.88 64.57 168.73 65.05 168.81 65.52C168.81 65.73 168.81 65.86 168.81 66C168.85 66.83 169.21 67.44 170 67.77C170.56 68.01 171.05 67.94 171.52 67.56C172.74 66.58 172.59 64.68 171.67 63.79C171.04 63.2 169.78 63.06 169.15 64.11Z"></path><path fill="#6d9e2e" d="M160.03 64C159.83 64.34 159.72 64.7 159.78 65.04C159.78 65.19 159.78 65.29 159.78 65.39C159.8 65.82 159.94 66.17 160.22 66.42C160.34 66.53 160.48 66.62 160.66 66.7C161.07 66.87 161.44 66.82 161.78 66.54C162.13 66.26 162.32 65.88 162.39 65.48C162.51 64.84 162.3 64.15 161.89 63.75C161.43 63.33 160.5 63.23 160.03 64Z"></path><path fill="#6d9e2e" d="M171.09 42.22C170.93 42.49 170.85 42.77 170.89 43.04C170.89 43.16 170.89 43.24 170.89 43.32C170.91 43.8 171.12 44.16 171.59 44.35C171.92 44.49 172.2 44.45 172.47 44.23C173.18 43.66 173.09 42.55 172.56 42.03C172.19 41.69 171.46 41.61 171.09 42.22Z"></path><path fill="#6d9e2e" d="M183.78 82.84C183.42 82.49 182.68 82.41 182.32 83.03C182.16 83.3 182.07 83.58 182.12 83.85C182.12 83.97 182.12 84.05 182.12 84.13C182.14 84.61 182.35 84.97 182.81 85.16C183.14 85.3 183.42 85.26 183.69 85.04C184.41 84.46 184.32 83.35 183.78 82.84Z"></path><path fill="#6d9e2e" d="M171.3 18.95C171.63 19.09 171.91 19.05 172.19 18.83C172.9 18.26 172.81 17.15 172.28 16.63C171.92 16.28 171.18 16.2 170.81 16.82C170.65 17.09 170.57 17.37 170.61 17.64C170.61 17.76 170.61 17.84 170.61 17.92C170.62 18.4 170.83 18.75 171.3 18.95Z"></path><path fill="#6d9e2e" d="M153.5 33.19C153.35 33.43 153.28 33.69 153.32 33.93C153.32 34.04 153.32 34.11 153.32 34.18C153.34 34.62 153.53 34.94 153.95 35.12C154.25 35.24 154.51 35.21 154.75 35.01C155.39 34.49 155.31 33.48 154.83 33.02C154.5 32.71 153.84 32.64 153.5 33.19Z"></path><path fill="#6d9e2e" d="M170.86 85.37C170.75 85.55 170.7 85.73 170.73 85.91C170.73 85.99 170.73 86.04 170.73 86.09C170.74 86.41 170.88 86.64 171.19 86.77C171.41 86.86 171.59 86.83 171.77 86.69C172.24 86.31 172.18 85.58 171.83 85.24C171.59 85.01 171.11 84.96 170.86 85.37Z"></path><path fill="#6d9e2e" d="M162.65 12.21C162.45 12.55 162.34 12.9 162.4 13.25C162.4 13.4 162.4 13.5 162.4 13.6C162.43 14.22 162.69 14.66 163.28 14.91C163.69 15.08 164.06 15.03 164.4 14.76C165.3 14.04 165.19 12.63 164.51 11.97C164.05 11.53 163.12 11.43 162.65 12.21Z"></path><path fill="#6d9e2e" d="M176.96 89.07C176.75 89.42 176.63 89.8 176.69 90.16C176.69 90.32 176.69 90.43 176.69 90.53C176.72 91.18 177 91.65 177.62 91.91C178.06 92.09 178.44 92.04 178.8 91.75C179.75 90.99 179.63 89.51 178.92 88.82C178.44 88.36 177.45 88.26 176.96 89.07Z"></path></g></g></svg>