<?xml version="1.0" encoding="UTF-8"?>
<svg id="Layer_1" data-name="Layer 1" xmlns="http://www.w3.org/2000/svg" xmlns:xlink="http://www.w3.org/1999/xlink" viewBox="0 0 609.14 116.36">
  <defs>
    <style>
      .cls-1 {
        clip-path: url(#clippath);
      }

      .cls-2 {
        fill: none;
      }

      .cls-2, .cls-3, .cls-4, .cls-5, .cls-6, .cls-7 {
        stroke-width: 0px;
      }

      .cls-8 {
        mask: url(#mask);
      }

      .cls-3 {
        fill: url(#linear-gradient);
      }

      .cls-4 {
        fill: #f4f5f7;
      }

      .cls-9 {
        clip-path: url(#clippath-1);
      }

      .cls-10 {
        clip-path: url(#clippath-3);
      }

      .cls-11 {
        clip-path: url(#clippath-2);
      }

      .cls-5 {
        fill: url(#linear-gradient-4);
      }

      .cls-6 {
        fill: url(#linear-gradient-2);
      }

      .cls-7 {
        fill: url(#linear-gradient-3);
      }
    </style>
    <clipPath id="clippath">
      <rect class="cls-2" width="609.14" height="116.36"/>
    </clipPath>
    <clipPath id="clippath-1">
      <path class="cls-2" d="M33.98,24.99c-9.53,4.22-14.14,16.08-7.72,27.66,7.94,14.33,26.17,18.38,36.39,8.09,7.03-7.08,6.42-17.94.97-25.92,4.44,6.89,4.71,15.83-1.25,21.5-8.61,8.19-23.9,4.79-31.06-6.91-5.97-9.76-2.56-20.04,5.62-23.81,5.9-2.72,13.46-1.73,19.4,2.04-4.2-2.81-9.19-4.34-14.04-4.34-2.89,0-5.73.55-8.32,1.69"/>
    </clipPath>
    <linearGradient id="linear-gradient" x1="-.49" y1="449.42" x2=".51" y2="449.42" gradientTransform="translate(1525.48 -28485.13) rotate(-177.31) scale(64.58 -63.57) skewX(.29)" gradientUnits="userSpaceOnUse">
      <stop offset="0" stop-color="#8490c7"/>
      <stop offset=".28" stop-color="#8490c7"/>
      <stop offset=".76" stop-color="#4b78bc"/>
      <stop offset="1" stop-color="#4b78bc"/>
    </linearGradient>
    <clipPath id="clippath-2">
      <path class="cls-2" d="M0,50.6c0,4.4.79,8.62,2.23,12.54-.71-2.32-1.18-4.74-1.34-7.26C-.32,37.53,14.35,21.62,33.66,20.34c19.31-1.27,35.95,12.57,37.16,30.93,1.21,18.36-13.46,34.27-32.77,35.55-7.09.47-13.82-1.11-19.56-4.19,6.04,3.63,13.17,5.73,20.81,5.73,21.71,0,39.3-16.91,39.3-37.76S61.01,12.84,39.3,12.84,0,29.75,0,50.6"/>
    </clipPath>
    <linearGradient id="linear-gradient-2" x1="-.74" y1="459.01" x2=".26" y2="459.01" gradientTransform="translate(58.38 36129.54) scale(78.6 -78.6)" xlink:href="#linear-gradient"/>
    <clipPath id="clippath-3">
      <path class="cls-2" d="M0,50.6c0,4.4.79,8.62,2.23,12.54-.71-2.32-1.18-4.74-1.34-7.26C-.32,37.53,14.35,21.62,33.66,20.34c19.31-1.27,35.95,12.57,37.16,30.93,1.21,18.36-13.46,34.27-32.77,35.55-7.09.47-13.82-1.11-19.56-4.19,6.04,3.63,13.17,5.73,20.81,5.73,21.71,0,39.3-16.91,39.3-37.76S61.01,12.84,39.3,12.84,0,29.75,0,50.6"/>
    </clipPath>
    <linearGradient id="linear-gradient-3" x1="-.74" y1="459.01" x2=".26" y2="459.01" gradientTransform="translate(58.38 36129.54) scale(78.6 -78.6)" gradientUnits="userSpaceOnUse">
      <stop offset="0" stop-color="#000"/>
      <stop offset=".28" stop-color="#000"/>
      <stop offset=".76" stop-color="#000"/>
      <stop offset="1" stop-color="#fff"/>
    </linearGradient>
    <mask id="mask" x="-.32" y="12.84" width="78.93" height="75.52" maskUnits="userSpaceOnUse">
      <rect class="cls-7" x="-.32" y="12.84" width="78.92" height="75.52"/>
    </mask>
    <linearGradient id="linear-gradient-4" x1="-.74" y1="459.01" x2=".26" y2="459.01" gradientTransform="translate(58.38 36129.54) scale(78.6 -78.6)" gradientUnits="userSpaceOnUse">
      <stop offset="0" stop-color="#161c4b"/>
      <stop offset=".28" stop-color="#161c4b"/>
      <stop offset=".76" stop-color="#161c4b"/>
      <stop offset="1" stop-color="#161c4b"/>
    </linearGradient>
  </defs>
  <g class="cls-1">
    <path class="cls-4" d="M111.09,102.74c-4.35,0-9.03-1.38-13.3-3.91l3.06-4.68c3.35,1.94,6.92,3,10.18,3,3.09,0,5.67-.93,7.25-2.63,1.69-1.81,2.9-5.11,1.94-7.93-1.12-3.31-5.1-4.92-9.32-6.62-4.92-1.99-10.5-4.24-11.71-9.99-.74-3.53.64-6.44,1.26-7.53,2.45-4.26,7.73-6.6,14.87-6.6,3.1,0,6.41.45,9.86,1.33l-1.54,5.37c-2.94-.75-5.74-1.12-8.33-1.12-4.9,0-8.65,1.42-10.02,3.8-.31.53-.98,1.95-.64,3.59.56,2.65,3.52,4.02,8.33,5.97,4.96,2.01,10.58,4.28,12.52,10.02,1.74,5.14-.33,10.5-3.15,13.53-2.65,2.85-6.66,4.41-11.28,4.41"/>
    <path class="cls-4" d="M159.3,69.21v28.45c0,10.31-8.39,18.7-18.7,18.7-2.06,0-4.08-.33-6-.99l2.19-5.16c1.23.37,2.51.56,3.81.56,5.55,0,10.52-3.53,12.37-8.79l1.08-3.06-2.96,1.33c-1.78.8-3.67,1.2-5.63,1.2-7.64,0-13.85-6.22-13.85-13.85v-18.39h5.59v18.39c0,4.56,3.71,8.27,8.27,8.27s8.27-3.71,8.27-8.27v-18.39h5.59Z"/>
    <path class="cls-4" d="M213.1,82.8v18.39h-5.59v-18.39c0-4.56-3.35-8.27-7.46-8.27s-7.46,3.71-7.46,8.27v18.39h-5.58v-18.39c0-4.56-3.35-8.27-7.47-8.27s-7.46,3.71-7.46,8.27v18.39h-5.59v-31.97h5.59v2l2.01-.99c1.74-.85,3.57-1.28,5.45-1.28,3.49,0,6.77,1.45,9.24,4.08l1.02,1.09,1.02-1.09c2.47-2.63,5.75-4.08,9.24-4.08,7.2,0,13.05,6.22,13.05,13.85"/>
    <polygon class="cls-4" points="244.06 69.23 233.15 101.17 225.61 101.17 215.15 69.23 221.03 69.23 229.42 94.83 238.17 69.23 244.06 69.23"/>
    <path class="cls-4" d="M275.33,87.11h-23.37l.61,1.83c.9,2.72,2.74,4.96,5.04,6.16,1.84.97,4.24,1.18,5.93,1.18,2.65,0,5.45-.48,7.66-1.29l2.45,5.04c-2.44.94-6.14,1.84-10.14,1.84-3.35,0-6.2-.61-8.48-1.81-5.09-2.67-8.47-8.27-8.61-14.28-.13-4.66,1.59-9.17,4.72-12.37,2.8-2.88,6.48-4.47,10.37-4.47.43,0,.86.03,1.28.06,7.04.65,12.56,7.37,12.56,15.31v2.79ZM252.3,81.52h17.34l-.95-2c-1.36-2.86-3.76-4.72-6.42-4.96-.25-.02-.5-.03-.75-.03-2.37,0-4.64.99-6.4,2.78-.61.65-1.14,1.35-1.59,2.12l-1.23,2.1h0Z"/>
    <path class="cls-4" d="M299,99.32c-2.17,2.19-5.48,3.4-9.32,3.4-3.25,0-6.73-.88-9.92-2.49l2.8-4.84c2.94,1.45,5.42,1.77,7.06,1.77,2.33,0,4.3-.65,5.41-1.77,1.05-1.06,1.83-3.04,1.23-4.62-.75-1.94-2.8-2.57-6.07-3.44-1.66-.44-3.38-.89-4.94-1.69-3.6-1.84-5.6-5.5-5.08-9.33.55-4.04,3.6-7.19,7.77-8.05,1.39-.29,2.9-.43,4.48-.43,2.34,0,4.87.3,7.71.92l-1.34,5.43c-2.37-.51-4.46-.77-6.35-.77-1.21,0-2.34.11-3.38.32-2.2.45-3.18,2.07-3.35,3.33-.21,1.51.55,2.82,2.08,3.6,1.02.52,2.38.88,3.82,1.26,3.59.95,8.04,2.13,9.86,6.83,1.54,4-.12,8.19-2.46,10.56"/>
    <path class="cls-4" d="M325.73,99.32c-2.17,2.19-5.48,3.4-9.32,3.4-3.25,0-6.73-.88-9.92-2.49l2.8-4.84c2.93,1.45,5.42,1.77,7.06,1.77,2.33,0,4.3-.65,5.41-1.77,1.05-1.06,1.84-3.04,1.23-4.62-.75-1.94-2.8-2.57-6.07-3.44-1.66-.44-3.38-.89-4.94-1.69-3.6-1.84-5.6-5.5-5.08-9.33.55-4.04,3.6-7.19,7.77-8.05,1.39-.29,2.9-.43,4.48-.43,2.34,0,4.88.3,7.71.92l-1.34,5.43c-2.37-.51-4.46-.77-6.35-.77-1.21,0-2.34.11-3.38.32-2.2.45-3.18,2.07-3.35,3.33-.2,1.51.55,2.82,2.08,3.6,1.02.52,2.38.88,3.82,1.26,3.59.95,8.04,2.13,9.86,6.83,1.55,4-.12,8.19-2.46,10.56"/>
    <path class="cls-4" d="M329.09,68.69h4v.93h-1.53v4.28h-.99v-4.28h-1.49v-.93ZM338.86,68.69v5.21h-.99v-3.85l-1.25,2.98h-.71l-1.23-2.94v3.82h-1.01v-5.21h1.4l1.19,2.89,1.19-2.89h1.4Z"/>
    <path class="cls-4" d="M111.09,102.74c-4.35,0-9.03-1.38-13.3-3.91l3.06-4.68c3.35,1.94,6.92,3,10.18,3,3.09,0,5.67-.93,7.25-2.63,1.69-1.81,2.9-5.11,1.94-7.93-1.12-3.31-5.1-4.92-9.32-6.62-4.92-1.99-10.5-4.24-11.71-9.99-.74-3.53.64-6.44,1.26-7.53,2.45-4.26,7.73-6.6,14.87-6.6,3.1,0,6.41.45,9.86,1.33l-1.54,5.37c-2.94-.75-5.74-1.12-8.33-1.12-4.9,0-8.65,1.42-10.02,3.8-.31.53-.98,1.95-.64,3.59.56,2.65,3.52,4.02,8.33,5.97,4.96,2.01,10.58,4.28,12.52,10.02,1.74,5.14-.33,10.5-3.15,13.53-2.65,2.85-6.66,4.41-11.28,4.41"/>
    <path class="cls-4" d="M159.3,69.21v28.45c0,10.31-8.39,18.7-18.7,18.7-2.06,0-4.08-.33-6-.99l2.19-5.16c1.23.37,2.51.56,3.81.56,5.55,0,10.52-3.53,12.37-8.79l1.08-3.06-2.96,1.33c-1.78.8-3.67,1.2-5.63,1.2-7.64,0-13.85-6.22-13.85-13.85v-18.39h5.59v18.39c0,4.56,3.71,8.27,8.27,8.27s8.27-3.71,8.27-8.27v-18.39h5.59Z"/>
    <path class="cls-4" d="M213.1,82.8v18.39h-5.59v-18.39c0-4.56-3.35-8.27-7.46-8.27s-7.46,3.71-7.46,8.27v18.39h-5.58v-18.39c0-4.56-3.35-8.27-7.47-8.27s-7.46,3.71-7.46,8.27v18.39h-5.59v-31.97h5.59v2l2.01-.99c1.74-.85,3.57-1.28,5.45-1.28,3.49,0,6.77,1.45,9.24,4.08l1.02,1.09,1.02-1.09c2.47-2.63,5.75-4.08,9.24-4.08,7.2,0,13.05,6.22,13.05,13.85"/>
    <polygon class="cls-4" points="244.06 69.23 233.15 101.17 225.61 101.17 215.15 69.23 221.03 69.23 229.42 94.83 238.17 69.23 244.06 69.23"/>
    <path class="cls-4" d="M275.33,87.11h-23.37l.61,1.83c.9,2.72,2.74,4.96,5.04,6.16,1.84.97,4.24,1.18,5.93,1.18,2.65,0,5.45-.48,7.66-1.29l2.45,5.04c-2.44.94-6.14,1.84-10.14,1.84-3.35,0-6.2-.61-8.48-1.81-5.09-2.67-8.47-8.27-8.61-14.28-.13-4.66,1.59-9.17,4.72-12.37,2.8-2.88,6.48-4.47,10.37-4.47.43,0,.86.03,1.28.06,7.04.65,12.56,7.37,12.56,15.31v2.79ZM252.3,81.52h17.34l-.95-2c-1.36-2.86-3.76-4.72-6.42-4.96-.25-.02-.5-.03-.75-.03-2.37,0-4.64.99-6.4,2.78-.61.65-1.14,1.35-1.59,2.12l-1.23,2.1h0Z"/>
    <path class="cls-4" d="M299,99.32c-2.17,2.19-5.48,3.4-9.32,3.4-3.25,0-6.73-.88-9.92-2.49l2.8-4.84c2.94,1.45,5.42,1.77,7.06,1.77,2.33,0,4.3-.65,5.41-1.77,1.05-1.06,1.83-3.04,1.23-4.62-.75-1.94-2.8-2.57-6.07-3.44-1.66-.44-3.38-.89-4.94-1.69-3.6-1.84-5.6-5.5-5.08-9.33.55-4.04,3.6-7.19,7.77-8.05,1.39-.29,2.9-.43,4.48-.43,2.34,0,4.87.3,7.71.92l-1.34,5.43c-2.37-.51-4.46-.77-6.35-.77-1.21,0-2.34.11-3.38.32-2.2.45-3.18,2.07-3.35,3.33-.21,1.51.55,2.82,2.08,3.6,1.02.52,2.38.88,3.82,1.26,3.59.95,8.04,2.13,9.86,6.83,1.54,4-.12,8.19-2.46,10.56"/>
    <path class="cls-4" d="M325.73,99.32c-2.17,2.19-5.48,3.4-9.32,3.4-3.25,0-6.73-.88-9.92-2.49l2.8-4.84c2.93,1.45,5.42,1.77,7.06,1.77,2.33,0,4.3-.65,5.41-1.77,1.05-1.06,1.84-3.04,1.23-4.62-.75-1.94-2.8-2.57-6.07-3.44-1.66-.44-3.38-.89-4.94-1.69-3.6-1.84-5.6-5.5-5.08-9.33.55-4.04,3.6-7.19,7.77-8.05,1.39-.29,2.9-.43,4.48-.43,2.34,0,4.88.3,7.71.92l-1.34,5.43c-2.37-.51-4.46-.77-6.35-.77-1.21,0-2.34.11-3.38.32-2.2.45-3.18,2.07-3.35,3.33-.2,1.51.55,2.82,2.08,3.6,1.02.52,2.38.88,3.82,1.26,3.59.95,8.04,2.13,9.86,6.83,1.55,4-.12,8.19-2.46,10.56"/>
    <path class="cls-4" d="M329.09,68.69h4v.93h-1.53v4.28h-.99v-4.28h-1.49v-.93ZM338.86,68.69v5.21h-.99v-3.85l-1.25,2.98h-.71l-1.23-2.94v3.82h-1.01v-5.21h1.4l1.19,2.89,1.19-2.89h1.4Z"/>
    <path class="cls-4" d="M100.09,20.73c.51-1.82,1.22-3.32,2.14-4.52.92-1.19,2.11-1.79,3.57-1.79,1.73,0,3,.77,3.82,2.3.82,1.54,1.22,3.64,1.22,6.31v18.37c0,1.66.56,2.49,1.68,2.49h.56v1.7c-.17.08-.36.14-.56.18s-.42.06-.66.06c-.68,0-1.26-.23-1.76-.7-.49-.46-.82-1.08-.99-1.85h-.1c-.54.93-1.2,1.6-1.96,2-.76.4-1.57.61-2.42.61-1.5,0-2.73-.66-3.69-1.97-.97-1.31-1.45-3.26-1.45-5.85,0-3.11.64-5.51,1.91-7.18,1.27-1.68,3.28-2.52,6.04-2.52h1.38v-5.39c0-2.18-.27-3.78-.81-4.79-.54-1.01-1.34-1.51-2.39-1.51-.95,0-1.75.43-2.39,1.3-.64.87-1.17,2.07-1.58,3.61l-1.53-.85ZM104.88,43.77c.88,0,1.64-.23,2.27-.7.63-.46,1.18-1.22,1.65-2.27v-10.31h-1.38c-2.17,0-3.7.64-4.58,1.91-.88,1.27-1.32,3.12-1.32,5.55,0,2.18.31,3.7.94,4.55.63.85,1.43,1.27,2.42,1.27"/>
    <path class="cls-4" d="M125.2,21.58c-.34-1.7-.84-2.92-1.5-3.67-.66-.75-1.49-1.12-2.47-1.12-1.26,0-2.22.54-2.9,1.61-.68,1.07-1.02,2.7-1.02,4.88v13.88c0,2.18.34,3.82,1.02,4.91.68,1.09,1.65,1.64,2.9,1.64,1.02,0,1.86-.39,2.52-1.18.66-.79,1.16-2.05,1.5-3.79l1.63.55c-.37,2.02-1.03,3.63-1.96,4.82-.93,1.19-2.18,1.79-3.74,1.79-1.97,0-3.46-.81-4.46-2.42-1-1.62-1.5-3.7-1.5-6.24v-13.94c0-2.58.5-4.69,1.5-6.3,1-1.62,2.47-2.43,4.41-2.43,1.49,0,2.72.58,3.67,1.73.95,1.15,1.61,2.7,1.99,4.64l-1.58.67Z"/>
    <path class="cls-4" d="M131.52,29.58v7.58c0,2.18.36,3.82,1.07,4.91.71,1.09,1.73,1.64,3.06,1.64,1.09,0,1.97-.43,2.65-1.3.68-.87,1.24-2.41,1.68-4.64l1.63.55c-.44,2.71-1.16,4.65-2.16,5.82-1,1.17-2.3,1.76-3.9,1.76-2.04,0-3.57-.8-4.58-2.39-1.02-1.6-1.53-3.69-1.53-6.28v-14c0-2.67.54-4.78,1.61-6.33,1.07-1.55,2.57-2.33,4.51-2.33s3.4.8,4.41,2.39c1,1.6,1.5,3.73,1.5,6.4v6.24h-9.93ZM131.52,27.58h8v-4.43c0-4.28-1.32-6.42-3.97-6.42s-4.02,2.14-4.02,6.42v4.43Z"/>
    <rect class="cls-4" x="145.94" y="0" width="2.04" height="45.47"/>
    <rect class="cls-4" x="153.83" y="0" width="2.04" height="45.47"/>
    <path class="cls-4" d="M171.25,15.03h2.04v30.43h-1.78l-.1-2.3h-.1c-.54.85-1.22,1.52-2.04,2-.82.49-1.75.73-2.8.73-1.77,0-3.13-.74-4.08-2.21-.95-1.47-1.43-3.65-1.43-6.52V15.03h2.04v22.13c0,4.33,1.31,6.49,3.92,6.49.99,0,1.83-.26,2.55-.79.71-.52,1.31-1.15,1.78-1.88V15.03Z"/>
    <rect class="cls-4" x="178.69" y="0" width="2.04" height="45.47"/>
    <path class="cls-4" d="M185.67,20.73c.51-1.82,1.22-3.32,2.14-4.52.92-1.19,2.11-1.79,3.57-1.79,1.73,0,3.01.77,3.82,2.3.81,1.54,1.22,3.64,1.22,6.31v18.37c0,1.66.56,2.49,1.68,2.49h.56v1.7c-.17.08-.36.14-.56.18-.2.04-.42.06-.66.06-.68,0-1.26-.23-1.76-.7-.49-.46-.82-1.08-.99-1.85h-.1c-.54.93-1.2,1.6-1.96,2-.76.4-1.57.61-2.42.61-1.49,0-2.72-.66-3.69-1.97-.97-1.31-1.45-3.26-1.45-5.85,0-3.11.64-5.51,1.91-7.18,1.27-1.68,3.29-2.52,6.04-2.52h1.38v-5.39c0-2.18-.27-3.78-.82-4.79-.54-1.01-1.34-1.51-2.39-1.51-.95,0-1.75.43-2.39,1.3-.65.87-1.17,2.07-1.58,3.61l-1.53-.85ZM190.46,43.77c.88,0,1.64-.23,2.27-.7.63-.46,1.18-1.22,1.66-2.27v-10.31h-1.38c-2.17,0-3.7.64-4.58,1.91-.88,1.27-1.32,3.12-1.32,5.55,0,2.18.31,3.7.94,4.55.63.85,1.43,1.27,2.42,1.27"/>
    <path class="cls-4" d="M209.87,17.64c-.27-.2-.55-.34-.84-.43-.29-.08-.6-.12-.94-.12-1.26,0-2.3.76-3.13,2.27-.83,1.52-1.33,3.79-1.5,6.82v19.28h-2.04V15.03h1.78l.05,5.15h.1c.48-1.98,1.12-3.42,1.93-4.3.82-.89,1.75-1.33,2.8-1.33.37,0,.75.06,1.12.18.37.12.7.3.97.55l-.31,2.36Z"/>
    <path class="cls-4" d="M228.36,17.15h-5.04v22.97c0,1.29.23,2.23.69,2.82.46.59,1.1.88,1.91.88.71,0,1.38-.26,1.99-.79l.51,1.58c-.37.4-.81.73-1.3.97-.49.24-1.08.36-1.76.36-1.32,0-2.34-.49-3.06-1.46-.71-.97-1.07-2.42-1.07-4.36v-22.92l-2.65-.49v-1.57l2.7-.18.56-8.73h1.48v8.79h5.04v2.12Z"/>
    <path class="cls-4" d="M234.32,6.97h-2.19V1.51h2.19v5.46ZM234.21,45.46h-2.04V15.03h2.04v30.43Z"/>
    <path class="cls-4" d="M244.2,45.89c-1.36,0-2.54-.49-3.54-1.49-1-.99-1.71-2.64-2.12-4.94l1.68-.73c.34,1.98.88,3.33,1.63,4.06.75.73,1.51,1.09,2.29,1.09,1.15,0,2.03-.5,2.62-1.49.59-.99.89-2.39.89-4.21,0-1.37-.22-2.53-.66-3.46-.44-.93-1-1.75-1.68-2.46-.68-.71-1.41-1.37-2.19-2-.78-.63-1.51-1.31-2.19-2.06-.68-.75-1.24-1.63-1.68-2.64-.44-1.01-.66-2.26-.66-3.76,0-2.06.45-3.79,1.35-5.18.9-1.39,2.27-2.09,4.1-2.09,2.82,0,4.62,2.06,5.4,6.18l-1.58.67c-.27-1.74-.73-2.96-1.38-3.67-.65-.71-1.46-1.06-2.45-1.06-1.19,0-2.06.46-2.62,1.36-.56.91-.84,2.13-.84,3.67,0,1.25.22,2.29.66,3.12.44.83,1,1.58,1.68,2.24.68.67,1.4,1.31,2.17,1.94.76.63,1.49,1.33,2.16,2.12.68.79,1.24,1.74,1.68,2.85.44,1.11.66,2.48.66,4.09,0,2.43-.5,4.33-1.5,5.73-1,1.39-2.3,2.09-3.9,2.09"/>
    <path class="cls-4" d="M257.85,45.89c-1.36,0-2.54-.49-3.54-1.49-1-.99-1.71-2.64-2.12-4.94l1.68-.73c.34,1.98.88,3.33,1.63,4.06.75.73,1.51,1.09,2.29,1.09,1.15,0,2.03-.5,2.62-1.49.59-.99.89-2.39.89-4.21,0-1.37-.22-2.53-.66-3.46-.44-.93-1-1.75-1.68-2.46-.68-.71-1.41-1.37-2.19-2-.78-.63-1.51-1.31-2.19-2.06-.68-.75-1.24-1.63-1.68-2.64-.44-1.01-.66-2.26-.66-3.76,0-2.06.45-3.79,1.35-5.18.9-1.39,2.27-2.09,4.1-2.09,2.82,0,4.62,2.06,5.4,6.18l-1.58.67c-.27-1.74-.73-2.96-1.38-3.67-.64-.71-1.46-1.06-2.45-1.06-1.19,0-2.06.46-2.62,1.36-.56.91-.84,2.13-.84,3.67,0,1.25.22,2.29.66,3.12.44.83,1,1.58,1.68,2.24.68.67,1.4,1.31,2.16,1.94.77.63,1.49,1.33,2.17,2.12.68.79,1.24,1.74,1.68,2.85.44,1.11.66,2.48.66,4.09,0,2.43-.5,4.33-1.5,5.73-1,1.39-2.3,2.09-3.9,2.09"/>
    <path class="cls-4" d="M276.8,15.03h2.04v30.43h-1.78l-.1-2.3h-.1c-.54.85-1.22,1.52-2.04,2-.82.49-1.75.73-2.8.73-1.77,0-3.13-.74-4.08-2.21-.95-1.47-1.43-3.65-1.43-6.52V15.03h2.04v22.13c0,4.33,1.31,6.49,3.92,6.49.98,0,1.83-.26,2.55-.79.71-.52,1.31-1.15,1.78-1.88V15.03Z"/>
    <path class="cls-4" d="M285.26,29.58v7.58c0,2.18.36,3.82,1.07,4.91.71,1.09,1.73,1.64,3.06,1.64,1.09,0,1.97-.43,2.65-1.3.68-.87,1.24-2.41,1.68-4.64l1.63.55c-.44,2.71-1.16,4.65-2.17,5.82-1,1.17-2.3,1.76-3.9,1.76-2.04,0-3.57-.8-4.58-2.39-1.02-1.6-1.53-3.69-1.53-6.28v-14c0-2.67.53-4.78,1.6-6.33,1.07-1.55,2.57-2.33,4.51-2.33s3.4.8,4.41,2.39c1,1.6,1.5,3.73,1.5,6.4v6.24h-9.93ZM285.26,27.58h8v-4.43c0-4.28-1.32-6.42-3.97-6.42s-4.02,2.14-4.02,6.42v4.43Z"/>
    <path class="cls-4" d="M308.13,29.58v7.58c0,2.18.36,3.82,1.07,4.91.71,1.09,1.73,1.64,3.06,1.64,1.09,0,1.97-.43,2.65-1.3.68-.87,1.24-2.41,1.68-4.64l1.63.55c-.44,2.71-1.16,4.65-2.17,5.82-1,1.17-2.3,1.76-3.9,1.76-2.04,0-3.57-.8-4.58-2.39-1.02-1.6-1.53-3.69-1.53-6.28v-14c0-2.67.54-4.78,1.6-6.33,1.07-1.55,2.57-2.33,4.51-2.33s3.4.8,4.41,2.39c1,1.6,1.5,3.73,1.5,6.4v6.24h-9.93ZM308.13,27.58h8v-4.43c0-4.28-1.32-6.42-3.97-6.42s-4.02,2.14-4.02,6.42v4.43Z"/>
    <path class="cls-4" d="M324.12,45.46h-2.04V15.03h1.78l.05,2.49h.1c.51-.93,1.18-1.66,2.01-2.18.83-.53,1.79-.79,2.88-.79,1.76,0,3.13.74,4.1,2.21.97,1.47,1.45,3.65,1.45,6.52v22.19h-2.09v-22.13c0-2.26-.32-3.92-.97-4.97-.65-1.05-1.61-1.58-2.9-1.58-1.02,0-1.88.27-2.6.82-.71.55-1.31,1.2-1.78,1.97v25.89Z"/>
    <path class="cls-4" d="M344.7,34.55c-1.05,0-1.93-.18-2.65-.55-.71.36-1.22.81-1.53,1.33-.31.52-.46,1.11-.46,1.76,0,.93.23,1.65.69,2.15.46.51,1.16.76,2.11.76h3.21c2.14,0,3.64.6,4.51,1.79.87,1.19,1.3,3,1.3,5.43,0,3.07-.65,5.38-1.93,6.91-1.29,1.54-3.01,2.3-5.15,2.3-1.97,0-3.5-.6-4.58-1.79-1.09-1.19-1.63-3.02-1.63-5.49,0-3.19.76-5.52,2.29-6.97v-.12c-.78-.28-1.42-.81-1.91-1.58-.49-.77-.74-1.76-.74-2.97,0-.93.21-1.79.64-2.58.42-.79,1.08-1.46,1.96-2.03-1.15-1.41-1.73-4.18-1.73-8.31,0-3.72.45-6.32,1.35-7.82.9-1.49,2.32-2.24,4.25-2.24,1.43,0,2.58.38,3.46,1.15.58-.44,1.14-1.04,1.68-1.79.54-.75.9-1.42,1.07-2.03l1.22.55c-.2.93-.57,1.86-1.1,2.79-.53.93-1.08,1.7-1.66,2.3.68,1.62,1.02,3.98,1.02,7.09,0,1.86-.11,3.42-.33,4.67-.22,1.25-.57,2.27-1.04,3.06-.48.79-1.07,1.35-1.78,1.7-.71.35-1.56.52-2.55.52M342.67,42.37c-1.49,1.25-2.24,3.43-2.24,6.55,0,1.94.4,3.31,1.2,4.12.8.81,1.86,1.21,3.18,1.21,1.87,0,3.19-.57,3.97-1.7.78-1.13,1.17-2.83,1.17-5.09,0-1.9-.28-3.22-.84-3.97-.56-.75-1.61-1.12-3.13-1.12h-3.31ZM341.09,24.61c0,1.58.07,2.87.2,3.88.13,1.01.34,1.81.61,2.39.27.59.64.99,1.1,1.21.46.22,1.03.33,1.7.33s1.26-.11,1.73-.33c.48-.22.86-.62,1.15-1.21.29-.59.49-1.38.61-2.39.12-1.01.18-2.3.18-3.88s-.07-2.87-.2-3.88c-.14-1.01-.36-1.82-.66-2.43-.3-.61-.69-1.02-1.15-1.24-.46-.22-1.01-.33-1.66-.33s-1.2.11-1.65.33c-.46.22-.83.64-1.12,1.24s-.5,1.42-.64,2.43c-.14,1.01-.2,2.3-.2,3.88"/>
    <path class="cls-4" d="M357.64,6.97h-2.19V1.51h2.19v5.46ZM357.54,45.46h-2.04V15.03h2.04v30.43Z"/>
    <path class="cls-4" d="M364.88,45.46h-2.04V15.03h1.78l.05,2.49h.1c.51-.93,1.18-1.66,2.01-2.18.83-.53,1.79-.79,2.88-.79,1.77,0,3.13.74,4.1,2.21.97,1.47,1.45,3.65,1.45,6.52v22.19h-2.09v-22.13c0-2.26-.32-3.92-.97-4.97-.65-1.05-1.61-1.58-2.9-1.58-1.02,0-1.88.27-2.6.82-.71.55-1.31,1.2-1.78,1.97v25.89Z"/>
    <path class="cls-4" d="M381.28,29.58v7.58c0,2.18.36,3.82,1.07,4.91.71,1.09,1.73,1.64,3.06,1.64,1.09,0,1.97-.43,2.65-1.3.68-.87,1.24-2.41,1.68-4.64l1.63.55c-.44,2.71-1.16,4.65-2.17,5.82-1,1.17-2.3,1.76-3.9,1.76-2.04,0-3.57-.8-4.58-2.39-1.02-1.6-1.53-3.69-1.53-6.28v-14c0-2.67.54-4.78,1.6-6.33,1.07-1.55,2.57-2.33,4.51-2.33s3.4.8,4.41,2.39c1,1.6,1.5,3.73,1.5,6.4v6.24h-9.93ZM381.28,27.58h8v-4.43c0-4.28-1.32-6.42-3.97-6.42s-4.02,2.14-4.02,6.42v4.43Z"/>
    <path class="cls-4" d="M396.71,29.58v7.58c0,2.18.36,3.82,1.07,4.91.71,1.09,1.73,1.64,3.06,1.64,1.09,0,1.97-.43,2.65-1.3.68-.87,1.24-2.41,1.68-4.64l1.63.55c-.44,2.71-1.16,4.65-2.17,5.82-1,1.17-2.3,1.76-3.9,1.76-2.04,0-3.57-.8-4.58-2.39-1.02-1.6-1.53-3.69-1.53-6.28v-14c0-2.67.54-4.78,1.6-6.33,1.07-1.55,2.57-2.33,4.51-2.33s3.4.8,4.41,2.39c1,1.6,1.5,3.73,1.5,6.4v6.24h-9.93ZM396.71,27.58h8v-4.43c0-4.28-1.32-6.42-3.97-6.42s-4.02,2.14-4.02,6.42v4.43Z"/>
    <path class="cls-4" d="M419.13,17.64c-.27-.2-.55-.34-.84-.43-.29-.08-.6-.12-.94-.12-1.26,0-2.3.76-3.13,2.27-.83,1.52-1.33,3.79-1.5,6.82v19.28h-2.04V15.03h1.78l.05,5.15h.1c.48-1.98,1.12-3.42,1.94-4.3.82-.89,1.75-1.33,2.8-1.33.37,0,.75.06,1.12.18.37.12.7.3.97.55l-.31,2.36Z"/>
    <path class="cls-4" d="M423.76,29.58v7.58c0,2.18.36,3.82,1.07,4.91.71,1.09,1.73,1.64,3.06,1.64,1.09,0,1.97-.43,2.65-1.3.68-.87,1.24-2.41,1.68-4.64l1.63.55c-.44,2.71-1.16,4.65-2.17,5.82-1,1.17-2.3,1.76-3.9,1.76-2.04,0-3.57-.8-4.58-2.39-1.02-1.6-1.53-3.69-1.53-6.28v-14c0-2.67.54-4.78,1.6-6.33,1.07-1.55,2.57-2.33,4.51-2.33s3.4.8,4.41,2.39c1,1.6,1.5,3.73,1.5,6.4v6.24h-9.93ZM423.76,27.58h8v-4.43c0-4.28-1.32-6.42-3.97-6.42s-4.02,2.14-4.02,6.42v4.43Z"/>
    <path class="cls-4" d="M442.66,14.43c1.02,0,1.94.24,2.75.73.82.48,1.46,1.13,1.94,1.94h.1V0h2.04v45.47h-1.78l-.1-2.37h-.1c-.51.89-1.18,1.58-2.01,2.06-.83.49-1.79.73-2.88.73-1.73,0-3.08-.74-4.05-2.21-.97-1.48-1.45-3.65-1.45-6.52v-13.94c0-2.87.48-5.05,1.45-6.55.97-1.5,2.33-2.24,4.1-2.24M447.45,19.4c-.48-.77-1.05-1.41-1.73-1.94-.68-.52-1.55-.79-2.6-.79-2.62,0-3.92,2.2-3.92,6.61v13.88c0,4.32,1.29,6.49,3.87,6.49,1.02,0,1.88-.26,2.6-.79.71-.52,1.31-1.15,1.78-1.88v-21.58Z"/>
    <polygon class="cls-4" points="468.9 45.46 466.45 45.46 460.34 15.03 462.58 15.03 467.62 42.49 467.73 42.49 472.92 15.03 475.11 15.03 468.9 45.46"/>
    <path class="cls-4" d="M479.75,29.58v7.58c0,2.18.36,3.82,1.07,4.91.71,1.09,1.73,1.64,3.06,1.64,1.09,0,1.97-.43,2.65-1.3.68-.87,1.24-2.41,1.68-4.64l1.63.55c-.44,2.71-1.16,4.65-2.17,5.82-1,1.17-2.3,1.76-3.9,1.76-2.04,0-3.57-.8-4.58-2.39-1.02-1.6-1.53-3.69-1.53-6.28v-14c0-2.67.54-4.78,1.6-6.33,1.07-1.55,2.57-2.33,4.51-2.33s3.4.8,4.41,2.39c1,1.6,1.5,3.73,1.5,6.4v6.24h-9.93ZM479.75,27.58h8v-4.43c0-4.28-1.32-6.42-3.97-6.42s-4.02,2.14-4.02,6.42v4.43Z"/>
    <path class="cls-4" d="M498.39,45.89c-1.36,0-2.54-.49-3.54-1.49-1-.99-1.71-2.64-2.11-4.94l1.68-.73c.34,1.98.88,3.33,1.63,4.06.75.73,1.51,1.09,2.29,1.09,1.15,0,2.03-.5,2.62-1.49.59-.99.89-2.39.89-4.21,0-1.37-.22-2.53-.66-3.46-.44-.93-1-1.75-1.68-2.46-.68-.71-1.41-1.37-2.19-2-.78-.63-1.51-1.31-2.19-2.06-.68-.75-1.24-1.63-1.68-2.64-.44-1.01-.66-2.26-.66-3.76,0-2.06.45-3.79,1.35-5.18s2.27-2.09,4.1-2.09c2.82,0,4.62,2.06,5.4,6.18l-1.58.67c-.27-1.74-.73-2.96-1.38-3.67-.64-.71-1.46-1.06-2.45-1.06-1.19,0-2.06.46-2.62,1.36-.56.91-.84,2.13-.84,3.67,0,1.25.22,2.29.66,3.12.44.83,1,1.58,1.68,2.24.68.67,1.4,1.31,2.16,1.94.77.63,1.49,1.33,2.17,2.12.68.79,1.24,1.74,1.68,2.85.44,1.11.66,2.48.66,4.09,0,2.43-.5,4.33-1.5,5.73-1,1.39-2.3,2.09-3.9,2.09"/>
    <path class="cls-4" d="M512.04,45.89c-1.36,0-2.54-.49-3.54-1.49-1-.99-1.71-2.64-2.11-4.94l1.68-.73c.34,1.98.88,3.33,1.63,4.06.75.73,1.51,1.09,2.29,1.09,1.15,0,2.03-.5,2.62-1.49.59-.99.89-2.39.89-4.21,0-1.37-.22-2.53-.66-3.46-.44-.93-1-1.75-1.68-2.46-.68-.71-1.41-1.37-2.19-2-.78-.63-1.51-1.31-2.19-2.06-.68-.75-1.24-1.63-1.68-2.64-.44-1.01-.66-2.26-.66-3.76,0-2.06.45-3.79,1.35-5.18s2.27-2.09,4.1-2.09c2.82,0,4.62,2.06,5.4,6.18l-1.58.67c-.27-1.74-.73-2.96-1.38-3.67-.65-.71-1.46-1.06-2.45-1.06-1.19,0-2.06.46-2.62,1.36-.56.91-.84,2.13-.84,3.67,0,1.25.22,2.29.66,3.12.44.83,1,1.58,1.68,2.24.68.67,1.4,1.31,2.16,1.94.77.63,1.49,1.33,2.17,2.12.68.79,1.24,1.74,1.68,2.85.44,1.11.66,2.48.66,4.09,0,2.43-.5,4.33-1.5,5.73-1,1.39-2.3,2.09-3.9,2.09"/>
    <path class="cls-4" d="M522.49,29.58v7.58c0,2.18.36,3.82,1.07,4.91.71,1.09,1.73,1.64,3.06,1.64,1.09,0,1.97-.43,2.65-1.3.68-.87,1.24-2.41,1.68-4.64l1.63.55c-.44,2.71-1.16,4.65-2.16,5.82-1,1.17-2.3,1.76-3.9,1.76-2.04,0-3.57-.8-4.58-2.39-1.02-1.6-1.53-3.69-1.53-6.28v-14c0-2.67.53-4.78,1.6-6.33,1.07-1.55,2.57-2.33,4.51-2.33s3.41.8,4.41,2.39c1,1.6,1.5,3.73,1.5,6.4v6.24h-9.93ZM522.49,27.58h8v-4.43c0-4.28-1.32-6.42-3.97-6.42s-4.02,2.14-4.02,6.42v4.43Z"/>
    <rect class="cls-4" x="536.9" y="0" width="2.04" height="45.47"/>
    <rect class="cls-4" x="542.51" y="26.37" width="7.84" height="2.36"/>
    <path class="cls-4" d="M561.3,17.15h-5.04v22.97c0,1.29.23,2.23.69,2.82.46.59,1.1.88,1.91.88.71,0,1.38-.26,1.99-.79l.51,1.58c-.37.4-.81.73-1.3.97-.49.24-1.08.36-1.76.36-1.32,0-2.34-.49-3.06-1.46-.71-.97-1.07-2.42-1.07-4.36v-22.92l-2.65-.49v-1.57l2.7-.18.56-8.73h1.48v8.79h5.04v2.12Z"/>
    <path class="cls-4" d="M571.29,48.25c-.48,2.34-1.14,4.07-1.99,5.18-.85,1.11-2,1.77-3.46,1.97l-.2-2c1.09-.24,1.93-.75,2.52-1.52.59-.77,1.06-2.1,1.4-4l.41-2.3-6.88-30.55h2.19l5.6,26.49h.1l4.94-26.49h2.09l-6.72,33.22Z"/>
    <path class="cls-4" d="M592.99,37.28c0,2.71-.53,4.82-1.58,6.33-1.05,1.52-2.6,2.27-4.64,2.27s-3.53-.76-4.58-2.27c-1.05-1.51-1.58-3.63-1.58-6.33v-14.06c0-2.67.53-4.78,1.58-6.33,1.05-1.56,2.58-2.33,4.58-2.33s3.58.77,4.64,2.3c1.05,1.54,1.58,3.66,1.58,6.36v14.06ZM582.7,37.28c0,4.32,1.36,6.49,4.08,6.49s4.18-2.16,4.18-6.49v-14c0-2.14-.34-3.77-1.02-4.88-.68-1.11-1.73-1.67-3.16-1.67s-2.42.56-3.08,1.67c-.66,1.11-.99,2.74-.99,4.88v14Z"/>
    <path class="cls-4" d="M602.31,14.43c1.02,0,1.94.24,2.75.73.82.48,1.46,1.13,1.94,1.94h.1V0h2.04v45.47h-1.78l-.1-2.37h-.1c-.51.89-1.18,1.58-2.01,2.06-.83.49-1.79.73-2.88.73-1.73,0-3.08-.74-4.05-2.21-.97-1.48-1.45-3.65-1.45-6.52v-13.94c0-2.87.48-5.05,1.45-6.55.97-1.5,2.33-2.24,4.1-2.24M607.1,19.4c-.47-.77-1.05-1.41-1.73-1.94-.68-.52-1.54-.79-2.6-.79-2.62,0-3.92,2.2-3.92,6.61v13.88c0,4.32,1.29,6.49,3.87,6.49,1.02,0,1.88-.26,2.6-.79.71-.52,1.31-1.15,1.78-1.88v-21.58Z"/>
  </g>
  <g class="cls-9">
    <polygon class="cls-3" points="69.55 73.37 17.33 70.91 19.96 20.53 72.18 22.99 69.55 73.37"/>
  </g>
  <g class="cls-11">
    <rect class="cls-6" x="-.32" y="12.84" width="78.92" height="75.52"/>
  </g>
  <g class="cls-10">
    <g class="cls-8">
      <rect class="cls-5" x="-.32" y="12.84" width="78.92" height="75.52"/>
    </g>
  </g>
</svg>