<?xml version="1.0" encoding="UTF-8"?>
<svg xmlns="http://www.w3.org/2000/svg" width="250" height="69" viewBox="0 0 250 69" fill="none">
  <g clip-path="url(#clip0_2392_51)">
    <path d="M78.8769 17.4957C80.5872 15.5593 83.089 14.3916 86.4216 14.3916C90.8878 14.3916 94.2887 16.6492 95.9208 20.3176L108.821 12.9807C105.273 5.00158 96.8395 -0.00970459 86.3434 -0.00970459C80.851 -0.00970459 76.1014 1.33312 72.2216 3.63929C76.0819 6.93797 78.486 11.7449 78.8671 17.486" fill="#76BC21"></path>
    <path d="M96.2824 31.3424C94.6503 35.0109 91.1028 37.2684 86.6366 37.2684C81.0367 37.2684 77.5967 33.9892 76.5119 29.2601C73.9025 34.1351 69.3386 37.57 63.5139 38.8739C67.6967 46.4736 75.7398 51.66 86.5584 51.66C97.377 51.66 105.625 46.6487 109.173 38.6696L96.2726 31.3327L96.2824 31.3424Z" fill="#76BC21"></path>
    <path d="M46.0791 19.1305C46.0791 8.32946 38.3488 1.12878 27.6475 1.12878H0V50.541H15.5975V37.1322H27.6475C38.3488 37.1322 46.0791 29.9315 46.0791 19.1305ZM25.2336 23.9958H15.5877V14.5376H25.2336C28.4195 14.5376 30.4816 16.2989 30.4816 19.3348C30.4816 22.3708 28.4293 23.9958 25.2336 23.9958Z" fill="#76BC21"></path>
    <path d="M76.5998 19.1305C76.5998 8.32946 68.8695 1.12878 58.1682 1.12878H37.9285C43.1375 3.76579 46.7535 8.50461 47.9653 14.5376H55.7543C58.95 14.5376 61.0023 16.2989 61.0023 19.3348C61.0023 22.3708 58.95 23.9958 55.7543 23.9958H47.9067C46.0987 32.4323 39.5411 38.2707 30.5207 39.2924V50.541H46.1182V37.1322H58.1682C68.8695 37.1322 76.5998 29.9315 76.5998 19.1305Z" fill="#76BC21"></path>
    <path d="M117.275 48.011V7.61908H139.83V11.8519H122.034V25.8057H138.179V30.0385H122.034V48.011H117.275Z" fill="#2B5597"></path>
    <path d="M148.274 48.011V7.61908H153.082V43.6711H172.169V48.0207H148.274V48.011Z" fill="#2B5597"></path>
    <path d="M180.613 48.011V7.61908H202.885V11.6573H185.284V24.8618H200.481V28.9584H185.284V43.6711H203.11V48.0207H180.613V48.011Z" fill="#2B5597"></path>
    <path d="M211.553 48.011L228.06 27.0609L213.039 7.61908H218.942L231.089 23.3049L243.462 7.61908H248.974L233.777 26.8468L250.01 48.0207H244.107L230.816 30.6126L217.104 48.0207H211.563L211.553 48.011Z" fill="#2B5597"></path>
    <path d="M0 68.8638V59.7851H1.23138V68.8638H0ZM0.830695 65.3316V64.2612H3.31301C3.65506 64.2612 3.95802 64.1931 4.22188 64.0569C4.48575 63.9206 4.70075 63.7163 4.85712 63.4633C5.01349 63.2103 5.09167 62.9086 5.09167 62.5583C5.09167 62.208 5.01349 61.9064 4.85712 61.6534C4.70075 61.4004 4.49552 61.2058 4.22188 61.0695C3.95802 60.9333 3.65506 60.8652 3.31301 60.8652H0.830695V59.7948H3.38142C3.93847 59.7948 4.44666 59.9116 4.89621 60.1354C5.34576 60.3592 5.69759 60.6803 5.95168 61.0987C6.21555 61.5172 6.3426 62.0037 6.3426 62.5681C6.3426 63.1324 6.21555 63.619 5.95168 64.0374C5.69759 64.4558 5.34576 64.7769 4.89621 65.0104C4.44666 65.2343 3.94824 65.351 3.38142 65.351H0.830695V65.3316Z" fill="#2B5597"></path>
    <path d="M11.3952 69C10.7208 69 10.1149 68.8443 9.57742 68.5427C9.03991 68.241 8.61967 67.8226 8.30694 67.2972C7.99421 66.7717 7.83784 66.1781 7.83784 65.5067V59.7851H9.08877V65.4775C9.08877 65.9543 9.1865 66.3727 9.39173 66.723C9.59696 67.0733 9.8706 67.3458 10.2127 67.5307C10.5547 67.7253 10.9554 67.8226 11.3854 67.8226C11.8154 67.8226 12.2063 67.7253 12.5484 67.5307C12.8904 67.3361 13.1543 67.0636 13.3497 66.723C13.5452 66.3825 13.6429 65.9641 13.6429 65.497V59.7948H14.8939V65.5262C14.8939 66.1879 14.7375 66.7814 14.4345 67.3069C14.1316 67.8323 13.7113 68.241 13.1836 68.5524C12.6559 68.8638 12.0597 69.0097 11.3854 69.0097L11.3952 69Z" fill="#2B5597"></path>
    <path d="M16.9364 68.8638V59.7851H18.1678V68.8638H16.9364ZM17.7671 64.9131V63.8817H20.2396C20.7771 63.8817 21.1876 63.7455 21.471 63.473C21.7544 63.2006 21.901 62.8405 21.901 62.3734C21.901 61.9356 21.7544 61.5755 21.471 61.2836C21.1876 60.9917 20.7771 60.8555 20.2592 60.8555H17.7769V59.7851H20.2983C20.8749 59.7851 21.3831 59.8921 21.8131 60.1159C22.2431 60.3397 22.5754 60.6414 22.8001 61.0209C23.0347 61.4004 23.152 61.848 23.152 62.3443C23.152 62.8405 23.0347 63.3076 22.8001 63.6968C22.5656 64.0763 22.2333 64.378 21.8131 64.592C21.3831 64.8061 20.8749 64.9131 20.2983 64.9131H17.7769H17.7671ZM22.1942 68.8638L18.8812 64.7964L20.054 64.3877L23.7579 68.8638H22.1942Z" fill="#2B5597"></path>
    <path d="M25.214 68.8638V59.7851H26.4454V68.8638H25.214ZM26.0447 65.3316V64.2612H28.527C28.8691 64.2612 29.172 64.1931 29.4359 64.0569C29.6998 63.9206 29.9148 63.7163 30.0711 63.4633C30.2275 63.2103 30.3057 62.9086 30.3057 62.5583C30.3057 62.208 30.2275 61.9064 30.0711 61.6534C29.9148 61.4004 29.7096 61.2058 29.4359 61.0695C29.172 60.9333 28.8691 60.8652 28.527 60.8652H26.0447V59.7948H28.5954C29.1525 59.7948 29.6607 59.9116 30.1102 60.1354C30.5598 60.3592 30.9116 60.6803 31.1657 61.0987C31.4296 61.5172 31.5566 62.0037 31.5566 62.5681C31.5566 63.1324 31.4296 63.619 31.1657 64.0374C30.9116 64.4558 30.5598 64.7769 30.1102 65.0104C29.6607 65.2343 29.1623 65.351 28.5954 65.351H26.0447V65.3316Z" fill="#2B5597"></path>
    <path d="M37.3324 69C36.6874 69 36.0815 68.8832 35.5146 68.64C34.9576 68.3967 34.4592 68.0659 34.0389 67.628C33.6187 67.1998 33.2864 66.6939 33.0519 66.1295C32.8173 65.5651 32.7001 64.9521 32.7001 64.3098C32.7001 63.6676 32.8173 63.0449 33.0519 62.4805C33.2864 61.9161 33.6187 61.4198 34.0292 60.9917C34.4396 60.5635 34.9283 60.2327 35.4853 59.9992C36.0424 59.7656 36.6483 59.6489 37.2933 59.6489C37.9383 59.6489 38.5442 59.7656 39.1013 59.9992C39.6583 60.2327 40.147 60.5635 40.5672 60.9917C40.9875 61.4198 41.3197 61.9161 41.5543 62.4805C41.7888 63.0449 41.9061 63.6579 41.9061 64.3098C41.9061 64.9618 41.7888 65.5651 41.5543 66.1295C41.3197 66.6939 40.9875 67.1901 40.577 67.6183C40.1568 68.0464 39.6779 68.3772 39.1208 68.6205C38.5638 68.8638 37.9676 68.9806 37.3226 68.9806L37.3324 69ZM37.3031 67.8226C37.9481 67.8226 38.5247 67.6766 39.0231 67.375C39.5215 67.0733 39.9124 66.6647 40.1959 66.1295C40.4793 65.604 40.6259 65.0007 40.6259 64.3196C40.6259 63.8136 40.5477 63.3465 40.3815 62.9281C40.2154 62.5097 39.9906 62.1399 39.6877 61.8188C39.3847 61.4977 39.0427 61.2642 38.642 61.089C38.2413 60.9236 37.7917 60.836 37.3031 60.836C36.6581 60.836 36.0815 60.982 35.5928 61.2836C35.0944 61.5755 34.7035 61.9939 34.4201 62.5097C34.1367 63.0351 33.9901 63.6384 33.9901 64.3196C33.9901 64.8256 34.0683 65.2926 34.2344 65.7305C34.4005 66.1587 34.6253 66.5284 34.9185 66.8398C35.2117 67.1512 35.5635 67.3945 35.974 67.5696C36.3844 67.7448 36.8242 67.8323 37.3031 67.8323V67.8226Z" fill="#2B5597"></path>
    <path d="M46.1378 69C45.4243 69 44.8184 68.8735 44.3102 68.6108C43.802 68.348 43.3525 67.9685 42.9616 67.4723L43.802 66.6354C44.0952 67.0344 44.4275 67.336 44.7989 67.5404C45.18 67.7447 45.6393 67.8518 46.1964 67.8518C46.7534 67.8518 47.1737 67.735 47.506 67.5015C47.8382 67.2679 47.9946 66.9468 47.9946 66.5284C47.9946 66.1878 47.9164 65.9154 47.7503 65.7013C47.5841 65.497 47.3789 65.3218 47.115 65.1856C46.8512 65.0493 46.558 64.9326 46.2453 64.8255C45.9325 64.7185 45.61 64.6017 45.2973 64.4752C44.9846 64.3487 44.6914 64.193 44.4275 63.9984C44.1636 63.8038 43.9486 63.5606 43.7923 63.2589C43.6359 62.9573 43.5577 62.568 43.5577 62.101C43.5577 61.5852 43.6848 61.1474 43.9291 60.7873C44.1734 60.4273 44.5252 60.1451 44.9552 59.9505C45.3852 59.7559 45.8739 59.6586 46.4212 59.6586C47.0173 59.6586 47.5548 59.7753 48.0239 60.0089C48.493 60.2424 48.8839 60.5441 49.1771 60.9138L48.3367 61.7507C48.063 61.4393 47.7698 61.2057 47.4669 61.0403C47.1541 60.8846 46.8023 60.8068 46.3919 60.8068C45.9032 60.8068 45.5123 60.9138 45.2191 61.1279C44.9357 61.342 44.7891 61.6436 44.7891 62.0231C44.7891 62.3248 44.8673 62.5778 45.0334 62.7626C45.1996 62.9475 45.4048 63.1129 45.6687 63.2394C45.9325 63.3659 46.2257 63.4924 46.5384 63.5995C46.8609 63.7065 47.1737 63.833 47.4864 63.9595C47.7991 64.086 48.0923 64.2514 48.3562 64.4558C48.6201 64.6601 48.8351 64.9131 48.9914 65.2342C49.1576 65.5553 49.2358 65.9543 49.2358 66.4311C49.2358 67.229 48.9523 67.8615 48.4051 68.3188C47.848 68.7762 47.0955 69 46.1378 69Z" fill="#2B5597"></path>
    <path d="M50.9069 68.8637V59.7851H52.1383V68.8637H50.9069ZM51.7474 60.9041V59.7753H56.9172V60.9041H51.7474ZM51.7474 64.7671V63.6773H56.5459V64.7671H51.7474ZM51.7474 68.8637V67.735H56.9759V68.8637H51.7474Z" fill="#2B5597"></path>
    <path d="M58.6666 68.8637V59.7851H59.898V68.8637H58.6666ZM59.5071 60.9041V59.7753H64.4912V60.9041H59.5071ZM59.5071 64.8645V63.7357H64.2665V64.8645H59.5071Z" fill="#2B5597"></path>
    <path d="M69.534 69C68.8597 69 68.2538 68.8443 67.7163 68.5427C67.1788 68.241 66.7585 67.8226 66.4458 67.2972C66.1331 66.7717 65.9767 66.1781 65.9767 65.5067V59.7851H67.2276V65.4775C67.2276 65.9543 67.3254 66.3727 67.5306 66.723C67.7358 67.0733 68.0095 67.3458 68.3515 67.5307C68.6936 67.7253 69.0943 67.8226 69.5243 67.8226C69.9543 67.8226 70.3452 67.7253 70.6872 67.5307C71.0293 67.3361 71.2932 67.0636 71.4886 66.723C71.6841 66.3825 71.7818 65.9641 71.7818 65.497V59.7948H73.0327V65.5262C73.0327 66.1879 72.8764 66.7814 72.5734 67.3069C72.2704 67.8323 71.8502 68.241 71.3225 68.5524C70.7947 68.8638 70.1986 69.0097 69.5243 69.0097L69.534 69Z" fill="#2B5597"></path>
    <path d="M75.0752 68.8638V59.7851H76.3066V68.8638H75.0752ZM75.9157 68.8638V67.735H80.8022V68.8638H75.9157Z" fill="#2B5597"></path>
    <path d="M83.1574 69C82.9033 69 82.6981 68.9124 82.5417 68.747C82.3854 68.5816 82.3072 68.3772 82.3072 68.1339C82.3072 67.8907 82.3854 67.6863 82.5417 67.5209C82.6981 67.3555 82.9033 67.2776 83.1574 67.2776C83.4115 67.2776 83.607 67.3555 83.7731 67.5209C83.9393 67.6863 84.0174 67.8907 84.0174 68.1339C84.0174 68.3772 83.9393 68.5718 83.7731 68.747C83.607 68.9221 83.4017 69 83.1574 69Z" fill="#2B5597"></path>
    <path d="M88.8648 68.8638V59.7851H90.0962V68.8638H88.8648ZM89.6955 65.3316V64.2612H92.1778C92.5198 64.2612 92.8228 64.1931 93.0867 64.0569C93.3505 63.9206 93.5655 63.7163 93.7219 63.4633C93.8783 63.2103 93.9565 62.9086 93.9565 62.5583C93.9565 62.208 93.8783 61.9064 93.7219 61.6534C93.5655 61.4004 93.3603 61.2058 93.0867 61.0695C92.8228 60.9333 92.5198 60.8652 92.1778 60.8652H89.6955V59.7948H92.2462C92.8033 59.7948 93.3114 59.9116 93.761 60.1354C94.2106 60.3592 94.5624 60.6803 94.8165 61.0987C95.0803 61.5172 95.2074 62.0037 95.2074 62.5681C95.2074 63.1324 95.0803 63.619 94.8165 64.0374C94.5624 64.4558 94.2106 64.7769 93.761 65.0104C93.3114 65.2343 92.813 65.351 92.2462 65.351H89.6955V65.3316Z" fill="#2B5597"></path>
    <path d="M100.973 69C100.328 69 99.7224 68.8832 99.1556 68.64C98.5986 68.3967 98.1001 68.0659 97.6799 67.628C97.2597 67.1998 96.9274 66.6939 96.6929 66.1295C96.4583 65.5651 96.341 64.9521 96.341 64.3098C96.341 63.6676 96.4583 63.0449 96.6929 62.4805C96.9274 61.9161 97.2597 61.4198 97.6701 60.9917C98.0806 60.5635 98.5692 60.2327 99.1263 59.9992C99.6834 59.7656 100.289 59.6489 100.934 59.6489C101.579 59.6489 102.185 59.7656 102.742 59.9992C103.299 60.2327 103.788 60.5635 104.208 60.9917C104.628 61.4198 104.961 61.9161 105.195 62.4805C105.43 63.0449 105.547 63.6579 105.547 64.3098C105.547 64.9618 105.43 65.5651 105.195 66.1295C104.961 66.6939 104.628 67.1901 104.218 67.6183C103.798 68.0464 103.319 68.3772 102.762 68.6205C102.205 68.8638 101.609 68.9806 100.964 68.9806L100.973 69ZM100.944 67.8226C101.589 67.8226 102.166 67.6766 102.664 67.375C103.163 67.0733 103.553 66.6647 103.837 66.1295C104.12 65.604 104.267 65.0007 104.267 64.3196C104.267 63.8136 104.189 63.3465 104.023 62.9281C103.856 62.5097 103.632 62.1399 103.329 61.8188C103.026 61.4977 102.684 61.2642 102.283 61.089C101.882 60.9236 101.433 60.836 100.944 60.836C100.299 60.836 99.7224 60.982 99.2338 61.2836C98.7354 61.5755 98.3445 61.9939 98.0611 62.5097C97.7776 63.0351 97.6311 63.6384 97.6311 64.3196C97.6311 64.8256 97.7092 65.2926 97.8754 65.7305C98.0415 66.1587 98.2663 66.5284 98.5595 66.8398C98.8527 67.1512 99.2045 67.3945 99.6149 67.5696C100.025 67.7448 100.465 67.8323 100.944 67.8323V67.8226Z" fill="#2B5597"></path>
    <path d="M109.574 68.8638L106.603 59.7851H107.834L110.199 67.1901H109.847L112.173 59.7851H113.062L115.388 67.1901H115.046L117.411 59.7851H118.633L115.662 68.8638H114.782L112.447 61.488H112.789L110.463 68.8638H109.574Z" fill="#2B5597"></path>
    <path d="M120.148 68.8637V59.7851H121.379V68.8637H120.148ZM120.988 60.9041V59.7753H126.158V60.9041H120.988ZM120.988 64.7671V63.6773H125.787V64.7671H120.988ZM120.988 68.8637V67.735H126.217V68.8637H120.988Z" fill="#2B5597"></path>
    <path d="M127.907 68.8638V59.7851H129.139V68.8638H127.907ZM128.738 64.9131V63.8817H131.211C131.748 63.8817 132.159 63.7455 132.442 63.473C132.725 63.2006 132.872 62.8405 132.872 62.3734C132.872 61.9356 132.725 61.5755 132.442 61.2836C132.159 60.9917 131.748 60.8555 131.23 60.8555H128.748V59.7851H131.269C131.846 59.7851 132.354 59.8921 132.784 60.1159C133.214 60.3397 133.546 60.6414 133.771 61.0209C134.006 61.4004 134.123 61.848 134.123 62.3443C134.123 62.8405 134.006 63.3076 133.771 63.6968C133.537 64.0763 133.204 64.378 132.784 64.592C132.354 64.8061 131.846 64.9131 131.269 64.9131H128.748H128.738ZM133.165 68.8638L129.852 64.7964L131.025 64.3877L134.729 68.8638H133.165Z" fill="#2B5597"></path>
    <path d="M136.185 68.8637V59.7851H137.416V68.8637H136.185ZM137.026 60.9041V59.7753H142.01V60.9041H137.026ZM137.026 64.8645V63.7357H141.785V64.8645H137.026Z" fill="#2B5597"></path>
    <path d="M147.053 69C146.378 69 145.772 68.8443 145.235 68.5427C144.697 68.241 144.277 67.8226 143.964 67.2972C143.652 66.7717 143.495 66.1781 143.495 65.5067V59.7851H144.746V65.4775C144.746 65.9543 144.844 66.3727 145.049 66.723C145.254 67.0733 145.528 67.3458 145.87 67.5307C146.212 67.7253 146.613 67.8226 147.043 67.8226C147.473 67.8226 147.864 67.7253 148.206 67.5307C148.548 67.3361 148.812 67.0636 149.007 66.723C149.203 66.3825 149.3 65.9641 149.3 65.497V59.7948H150.551V65.5262C150.551 66.1879 150.395 66.7814 150.092 67.3069C149.789 67.8323 149.369 68.241 148.841 68.5524C148.313 68.8638 147.717 69.0097 147.043 69.0097L147.053 69Z" fill="#2B5597"></path>
    <path d="M152.594 68.8638V59.7851H153.825V68.8638H152.594ZM153.434 68.8638V67.735H158.321V68.8638H153.434Z" fill="#2B5597"></path>
    <path d="M160.676 69C160.422 69 160.217 68.9124 160.06 68.747C159.904 68.5816 159.826 68.3772 159.826 68.1339C159.826 67.8907 159.904 67.6863 160.06 67.5209C160.217 67.3555 160.422 67.2776 160.676 67.2776C160.93 67.2776 161.125 67.3555 161.292 67.5209C161.458 67.6863 161.536 67.8907 161.536 68.1339C161.536 68.3772 161.458 68.5718 161.292 68.747C161.125 68.9221 160.92 69 160.676 69Z" fill="#2B5597"></path>
    <path d="M166.383 68.8638V59.7851H167.615V68.8638H166.383ZM167.214 65.3316V64.2612H169.696C170.038 64.2612 170.341 64.1931 170.605 64.0569C170.869 63.9206 171.084 63.7163 171.24 63.4633C171.397 63.2103 171.475 62.9086 171.475 62.5583C171.475 62.208 171.397 61.9064 171.24 61.6534C171.084 61.4004 170.879 61.2058 170.605 61.0695C170.341 60.9333 170.038 60.8652 169.696 60.8652H167.214V59.7948H169.765C170.322 59.7948 170.83 59.9116 171.279 60.1354C171.729 60.3592 172.081 60.6803 172.335 61.0987C172.599 61.5172 172.726 62.0037 172.726 62.5681C172.726 63.1324 172.599 63.619 172.335 64.0374C172.081 64.4558 171.729 64.7769 171.279 65.0104C170.83 65.2343 170.332 65.351 169.765 65.351H167.214V65.3316Z" fill="#2B5597"></path>
    <path d="M173.664 68.8638L177.407 59.7851H178.296L182.02 68.8638H180.681L177.603 61.1863H178.072L174.983 68.8638H173.654H173.664ZM175.452 66.8106V65.7402H180.251V66.8106H175.452Z" fill="#2B5597"></path>
    <path d="M187.629 69C186.975 69 186.369 68.8832 185.802 68.64C185.235 68.3967 184.756 68.0658 184.336 67.6377C183.916 67.2095 183.593 66.7133 183.369 66.1489C183.144 65.5845 183.026 64.9715 183.026 64.3293C183.026 63.6871 183.144 63.0643 183.369 62.4999C183.593 61.9355 183.916 61.4393 184.326 61.0111C184.737 60.5927 185.225 60.2521 185.782 60.0186C186.339 59.7753 186.945 59.6586 187.6 59.6586C188.323 59.6586 188.959 59.7851 189.506 60.0283C190.053 60.2716 190.532 60.6024 190.952 61.0209L190.102 61.8674C189.809 61.5463 189.457 61.2933 189.037 61.1084C188.617 60.9236 188.138 60.836 187.6 60.836C187.131 60.836 186.691 60.9236 186.291 61.089C185.89 61.2641 185.538 61.4977 185.235 61.8188C184.932 62.1399 184.707 62.4999 184.541 62.9281C184.375 63.3562 184.297 63.8233 184.297 64.3293C184.297 64.8353 184.375 65.3023 184.541 65.7305C184.707 66.1586 184.932 66.5284 185.235 66.8398C185.538 67.1512 185.88 67.3944 186.291 67.5696C186.691 67.7447 187.141 67.8226 187.62 67.8226C188.187 67.8226 188.685 67.7253 189.105 67.5404C189.525 67.3555 189.877 67.0928 190.17 66.7717L191.021 67.6182C190.6 68.0464 190.102 68.3772 189.545 68.6302C188.978 68.8735 188.343 69 187.629 69Z" fill="#2B5597"></path>
    <path d="M192.535 68.8638V59.7851H193.767V68.8638H192.535ZM198.174 68.8638L193.571 64.125L198.077 59.7851H199.679L194.813 64.4558V63.7649L199.807 68.8638H198.165H198.174Z" fill="#2B5597"></path>
    <path d="M200.598 68.8638L204.341 59.7851H205.23L208.954 68.8638H207.615L204.537 61.1863H205.006L201.917 68.8638H200.588H200.598ZM202.387 66.8106V65.7402H207.185V66.8106H202.387Z" fill="#2B5597"></path>
    <path d="M214.544 69C213.909 69 213.322 68.8832 212.765 68.64C212.208 68.3967 211.72 68.0658 211.309 67.6377C210.889 67.2095 210.566 66.7133 210.332 66.1489C210.097 65.5845 209.98 64.9715 209.98 64.3195C209.98 63.6676 210.097 63.0546 210.332 62.4902C210.566 61.9258 210.899 61.4295 211.319 61.0014C211.739 60.5732 212.228 60.2424 212.795 60.0089C213.361 59.7753 213.977 59.6586 214.642 59.6586C215.365 59.6586 216.039 59.7948 216.655 60.077C217.271 60.3592 217.779 60.7581 218.189 61.2836L217.339 62.1302C217.056 61.7117 216.674 61.3906 216.196 61.1668C215.727 60.943 215.209 60.836 214.642 60.836C213.977 60.836 213.391 60.9819 212.873 61.2836C212.365 61.5755 211.964 61.9939 211.681 62.5096C211.397 63.0351 211.251 63.6384 211.251 64.3195C211.251 65.0007 211.397 65.6137 211.681 66.1392C211.974 66.6646 212.355 67.0733 212.853 67.3652C213.342 67.6572 213.899 67.8128 214.524 67.8128C215.15 67.8128 215.736 67.6863 216.196 67.4431C216.665 67.1998 217.026 66.8398 217.271 66.363C217.525 65.8862 217.652 65.3023 217.662 64.6212L218.414 65.1661H214.476V64.0276H218.942V64.2125C218.942 65.2634 218.756 66.1489 218.385 66.8592C218.013 67.5696 217.495 68.1048 216.831 68.4648C216.166 68.8248 215.414 69 214.554 69H214.544Z" fill="#2B5597"></path>
    <path d="M220.574 68.8638V59.7851H221.805V68.8638H220.574Z" fill="#2B5597"></path>
    <path d="M223.965 68.8638V59.7851H224.835L225.206 61.2252V68.8638H223.975H223.965ZM230.269 68.8638L224.669 61.4296L224.825 59.7851L230.435 67.2193L230.259 68.8638H230.269ZM230.269 68.8638L229.897 67.521V59.7851H231.129V68.8638H230.259H230.269Z" fill="#2B5597"></path>
    <path d="M237.413 69C236.777 69 236.191 68.8832 235.634 68.64C235.077 68.3967 234.588 68.0658 234.178 67.6377C233.757 67.2095 233.435 66.7133 233.2 66.1489C232.966 65.5845 232.849 64.9715 232.849 64.3195C232.849 63.6676 232.966 63.0546 233.2 62.4902C233.435 61.9258 233.767 61.4295 234.187 61.0014C234.608 60.5732 235.096 60.2424 235.663 60.0089C236.23 59.7753 236.846 59.6586 237.51 59.6586C238.233 59.6586 238.908 59.7948 239.523 60.077C240.139 60.3592 240.647 60.7581 241.058 61.2836L240.208 62.1302C239.924 61.7117 239.543 61.3906 239.064 61.1668C238.595 60.943 238.077 60.836 237.51 60.836C236.846 60.836 236.259 60.9819 235.741 61.2836C235.233 61.5755 234.833 61.9939 234.549 62.5096C234.266 63.0351 234.119 63.6384 234.119 64.3195C234.119 65.0007 234.266 65.6137 234.549 66.1392C234.842 66.6646 235.223 67.0733 235.722 67.3652C236.21 67.6572 236.768 67.8128 237.393 67.8128C238.018 67.8128 238.605 67.6863 239.064 67.4431C239.533 67.1998 239.895 66.8398 240.139 66.363C240.393 65.8862 240.52 65.3023 240.53 64.6212L241.283 65.1661H237.344V64.0276H241.81V64.2125C241.81 65.2634 241.625 66.1489 241.253 66.8592C240.882 67.5696 240.364 68.1048 239.699 68.4648C239.035 68.8248 238.282 69 237.422 69H237.413Z" fill="#2B5597"></path>
    <path d="M244.273 69C244.019 69 243.814 68.9124 243.657 68.747C243.501 68.5816 243.423 68.3772 243.423 68.1339C243.423 67.8907 243.501 67.6863 243.657 67.5209C243.814 67.3555 244.019 67.2776 244.273 67.2776C244.527 67.2776 244.723 67.3555 244.889 67.5209C245.055 67.6863 245.133 67.8907 245.133 68.1339C245.133 68.3772 245.055 68.5718 244.889 68.747C244.723 68.9221 244.517 69 244.273 69Z" fill="#2B5597"></path>
    <path d="M248.348 62.461C248.026 62.461 247.742 62.3831 247.498 62.2372C247.254 62.0912 247.058 61.8869 246.912 61.6339C246.765 61.3809 246.697 61.0987 246.697 60.7873C246.697 60.4759 246.765 60.1937 246.902 59.9505C247.039 59.6975 247.234 59.5029 247.488 59.3569C247.733 59.2109 248.026 59.1428 248.339 59.1428C248.651 59.1428 248.945 59.2207 249.199 59.3666C249.453 59.5126 249.648 59.7169 249.785 59.9602C249.922 60.2132 250 60.4857 250 60.797C250 61.1084 249.932 61.3906 249.785 61.6436C249.648 61.8966 249.453 62.0912 249.208 62.2469C248.964 62.3929 248.671 62.4707 248.358 62.4707L248.348 62.461ZM248.348 62.2372C248.632 62.2372 248.876 62.1691 249.091 62.0426C249.306 61.9161 249.472 61.7409 249.59 61.5268C249.707 61.3128 249.775 61.0598 249.775 60.7873C249.775 60.5148 249.717 60.2716 249.59 60.0575C249.462 59.8434 249.296 59.678 249.091 59.5515C248.886 59.425 248.632 59.3569 248.348 59.3569C248.065 59.3569 247.83 59.425 247.615 59.5515C247.4 59.678 247.234 59.8532 247.117 60.0575C247 60.2716 246.941 60.5148 246.941 60.7873C246.941 61.0598 247 61.3128 247.117 61.5268C247.234 61.7409 247.4 61.9161 247.615 62.0426C247.83 62.1691 248.075 62.2372 248.348 62.2372ZM247.801 61.6436V59.8921H248.065V61.6436H247.801ZM247.967 60.8846V60.6511H248.446C248.544 60.6511 248.612 60.6316 248.671 60.583C248.73 60.5343 248.749 60.4662 248.749 60.3883C248.749 60.3202 248.72 60.2521 248.671 60.2035C248.622 60.1548 248.544 60.1256 248.446 60.1256H247.967V59.8921H248.456C248.622 59.8921 248.749 59.9407 248.847 60.038C248.945 60.1353 248.993 60.2521 248.993 60.3883C248.993 60.5246 248.945 60.6511 248.847 60.7484C248.749 60.8457 248.612 60.8846 248.456 60.8846H247.967ZM248.808 61.6436L248.163 60.8651L248.417 60.7873L249.14 61.6436H248.808Z" fill="#2B5597"></path>
  </g>
  <defs>
    <clipPath id="clip0_2392_51">
      <rect width="250" height="69" fill="white"></rect>
    </clipPath>
  </defs>
</svg>
