<svg width="180" height="156" viewBox="0 0 180 156" fill="none" xmlns="http://www.w3.org/2000/svg">
<path d="M33.0895 0.658203C34.5937 0.658203 35.9841 1.46131 36.7353 2.7646L107.056 124.79C107.796 126.076 107.805 127.656 107.079 128.95L93.3368 153.447C91.7445 156.286 87.6698 156.32 86.0315 153.508L0.671751 6.98287C-0.961667 4.17831 1.06107 0.658716 4.30659 0.658203H33.0895Z" fill="black"/>
<path d="M136.399 74.7054L176.891 5.93369C177.716 4.53133 176.705 2.7627 175.078 2.7627H145.614C144.862 2.7627 144.167 3.1646 143.791 3.8167L118.361 47.9848C117.984 48.6392 117.987 49.4454 118.369 50.0972L132.771 74.7008C133.582 76.0866 135.584 76.0892 136.399 74.7054Z" fill="black" stroke="black" stroke-width="4.20732"/>
</svg>
