<svg width="271" height="79" viewBox="0 0 271 79" fill="none" xmlns="http://www.w3.org/2000/svg">
<path d="M156.291 1.40234C160.109 1.40245 163.746 1.84945 167.202 2.7373L167.257 2.75098H167.261L167.268 2.75293L167.289 2.75879C170.772 3.57426 173.823 4.92341 176.463 6.79102C179.073 8.63845 181.13 11.01 182.64 13.9229L182.647 13.9365L182.656 13.9502L182.662 13.9629L182.671 13.9775C183.885 16.1768 184.646 18.8046 184.912 21.8916L184.915 22.002C184.901 22.4242 184.567 22.8564 184.016 22.916L183.879 22.9229H172.966C172.466 22.9228 171.884 22.531 171.666 21.79L171.628 21.6377C171.347 20.3093 170.913 19.0986 170.31 18.0303L170.297 18.0107C169.407 16.3216 168.184 14.9593 166.627 13.9648C165.12 13.0032 163.402 12.336 161.497 11.9463L161.492 11.9453L161.468 11.9395L160.868 11.8213C159.454 11.5621 157.944 11.4183 156.343 11.3828H156.339L155.557 11.374H155.552C154.104 11.374 152.656 11.5284 151.215 11.835C149.705 12.1563 148.303 12.7212 147.019 13.5322L146.998 13.5459L146.979 13.5586C145.755 14.3841 144.729 15.4206 143.913 16.6582C143.001 18.0408 142.601 19.7138 142.601 21.5723V21.583L142.615 22.1836V22.1953C142.686 23.6253 143.012 24.9239 143.674 26.0117C144.463 27.3072 145.865 28.3248 147.593 29.1602L147.614 29.1709L147.627 29.1768L147.63 29.1777C149.425 30.0076 151.794 30.8124 154.703 31.6025L154.721 31.6094L154.744 31.6162C157.709 32.4013 161.555 33.3975 166.276 34.6084L166.322 34.6211L166.359 34.4775L166.345 34.626L166.353 34.6279L166.886 34.7402C167.802 34.947 168.935 35.251 170.286 35.6553L172.019 36.1924L172.034 36.1973L172.051 36.2012L172.056 36.2031L172.065 36.2051C174.434 36.8702 176.794 37.9752 179.146 39.5371C181.412 41.0429 183.379 43.0854 185.037 45.6963L185.047 45.7139L185.055 45.7246L185.072 45.749C186.586 47.986 187.445 50.9087 187.547 54.6113L187.558 55.3633L187.55 55.9766C187.476 59.0289 186.849 61.8529 185.682 64.4619C184.445 67.2255 182.585 69.6411 180.077 71.71C177.656 73.6931 174.57 75.2837 170.778 76.4492L170.734 76.4619L170.729 76.4648C167.266 77.5433 163.23 78.13 158.602 78.1992L157.665 78.2051C153.646 78.2049 149.732 77.6907 145.924 76.6621L145.919 76.6592L145.876 76.6475L145.207 76.4688L145.189 76.4639C141.773 75.5049 138.728 74.0458 136.045 72.0938L136.038 72.0889L136.03 72.084C133.268 70.0202 131.06 67.3892 129.402 64.1719C128.173 61.7857 127.411 59.0275 127.142 55.875L127.094 55.2393V55.1455C127.116 54.6858 127.507 54.2266 128.131 54.2266H138.927L139.033 54.2334C139.564 54.2907 140.143 54.7701 140.266 55.5967C140.5 57.1766 140.942 58.6248 141.608 59.9199C142.558 61.7653 143.796 63.3239 145.324 64.5723L145.329 64.5752L145.628 64.8125L145.641 64.8242L145.661 64.8379L145.666 64.8428L145.699 64.8662C147.192 65.8949 148.876 66.701 150.737 67.2949L150.746 67.2979L151.54 67.5342L151.548 67.5361L151.571 67.5439L151.586 67.5479L151.601 67.5508L152.404 67.7344L152.411 67.7354C154.322 68.1396 156.288 68.3418 158.302 68.3418L158.889 68.3359C160.268 68.3114 161.723 68.2017 163.25 68.0088L163.271 68.0059L163.284 68.002H163.296L163.307 68.001L163.316 67.999C165.141 67.6912 166.866 67.1499 168.479 66.373L168.79 66.2188C170.326 65.4301 171.638 64.3824 172.703 63.0752L172.711 63.0654L172.73 63.0391L172.953 62.7354C173.957 61.2975 174.461 59.5938 174.523 57.6973L174.53 57.2871C174.53 55.0015 173.82 53.0153 172.349 51.4521L171.72 50.832C170.323 49.5273 168.562 48.467 166.484 47.627C164.287 46.7383 161.814 45.967 159.076 45.3115C156.523 44.7002 153.935 44.0226 151.315 43.2803V43.2402L150.973 43.1836L150.971 43.1826L150.948 43.1758L149.943 42.917L149.941 42.916L149.916 42.9092L149.02 42.6641C146.939 42.0824 144.899 41.4206 142.9 40.6777L142.897 40.6758L142.89 40.6719L142.882 40.6699L142.405 40.4746C140.044 39.4873 137.932 38.2675 136.064 36.8203C134.249 35.4134 132.742 33.6915 131.539 31.6426L131.303 31.2275L131.299 31.2217L131.297 31.2178L131.104 30.8203C130.231 28.9453 129.717 26.7265 129.6 24.1348L129.581 23.5732L129.574 22.9619C129.574 19.2578 130.338 16.1449 131.804 13.5674L131.81 13.5566C133.393 10.8281 135.431 8.57502 137.924 6.78418C140.447 4.97215 143.314 3.62141 146.535 2.73926C149.794 1.84707 153.046 1.40242 156.291 1.40234Z" fill="black"/>
<path fill-rule="evenodd" clip-rule="evenodd" d="M233.37 1.32568C234.146 1.32569 234.908 1.34528 235.655 1.3833C240.889 1.64945 245.431 2.84314 249.327 4.91064L249.343 4.91748L249.358 4.92627C249.641 5.0705 249.92 5.21807 250.196 5.36865C252.199 6.46125 254.023 7.72275 255.677 9.1499C256.076 9.49424 256.466 9.84661 256.845 10.2104C258.144 11.4582 259.325 12.8208 260.391 14.2983L260.4 14.311L260.41 14.3257C263.38 18.3162 265.526 22.8768 266.838 28.0308C267.082 28.9909 267.297 29.9597 267.483 30.937C267.538 31.2224 267.59 31.5085 267.64 31.7954C267.683 32.0494 267.725 32.304 267.765 32.5591C267.964 33.8343 268.115 35.124 268.217 36.4282C268.237 36.689 268.256 36.9504 268.272 37.2124C268.338 38.2602 268.373 39.3178 268.377 40.3843C268.377 40.5705 268.348 40.7536 268.292 40.9282C268.273 40.9862 268.252 41.0432 268.228 41.0991C268.106 41.3799 267.913 41.6319 267.665 41.8306C267.318 42.1085 266.862 42.2816 266.339 42.2817H216.75C216.19 42.2817 215.656 42.4143 215.181 42.6509C214.975 42.7533 214.781 42.8761 214.601 43.0151C213.714 43.6973 213.158 44.7932 213.252 46.0327C213.733 52.3869 215.531 57.4562 218.998 60.8149C221.629 63.363 225.008 64.9195 229.009 65.6021C229.21 65.6364 229.413 65.6697 229.618 65.6997C231.041 65.908 232.54 66.0093 234.108 66.0093C237.274 66.0092 240.195 65.4756 242.838 64.3784C243.318 64.1791 243.789 63.9608 244.251 63.7241C244.829 63.428 245.392 63.1027 245.939 62.7476C246.049 62.6766 246.157 62.6041 246.266 62.5308L246.286 62.5181L246.306 62.5034C246.457 62.3963 246.605 62.2885 246.752 62.1802C248.95 60.5558 250.667 58.7878 251.769 56.8433C251.919 56.5779 252.107 56.3776 252.281 56.2563C252.406 56.1698 252.507 56.1333 252.584 56.1206L252.653 56.1147H265.096C265.35 56.1147 265.544 56.2336 265.655 56.3901C265.693 56.4436 265.72 56.4989 265.736 56.5562C265.742 56.5774 265.747 56.5988 265.75 56.6206C265.758 56.6808 265.753 56.7432 265.735 56.8081C265.729 56.8299 265.722 56.8521 265.713 56.8745C265.626 57.0897 265.537 57.3029 265.448 57.5142C265.181 58.1486 264.904 58.7654 264.618 59.3647C264.237 60.1638 263.84 60.9319 263.428 61.6694C263.325 61.8539 263.22 62.0366 263.115 62.2173C262.379 63.481 261.595 64.6509 260.764 65.73C260.645 65.884 260.526 66.0367 260.405 66.187C259.44 67.3906 258.412 68.4749 257.325 69.4438C256.374 70.2918 255.377 71.0514 254.334 71.7241L253.797 72.062C252.716 72.729 251.59 73.3336 250.419 73.8745C249.834 74.1449 249.237 74.3996 248.629 74.6382C247.818 74.9564 246.987 75.2469 246.135 75.5083C242.514 76.6189 238.524 77.2132 234.146 77.2759C233.889 77.2796 233.63 77.2817 233.37 77.2817C232.288 77.2817 231.229 77.2499 230.191 77.187C229.846 77.1661 229.502 77.1417 229.161 77.1138C228.479 77.058 227.807 76.9883 227.145 76.9048C223.833 76.4876 220.765 75.7257 217.934 74.6294C213.388 72.7709 209.574 70.1896 206.461 66.8931C203.335 63.5833 200.879 59.6129 199.104 54.9536C197.428 50.298 196.574 45.1377 196.574 39.4517C196.574 37.4017 196.7 35.4101 196.95 33.4761C197.034 32.8314 197.131 32.193 197.242 31.561C197.353 30.9294 197.478 30.3041 197.617 29.6851C198.034 27.8271 198.574 26.026 199.237 24.2808C199.459 23.6983 199.691 23.126 199.936 22.5649C200.546 21.1617 201.229 19.8257 201.981 18.5552C202.283 18.0469 202.595 17.5492 202.919 17.062C204.052 15.3571 205.324 13.7803 206.734 12.3296L206.745 12.3179L206.756 12.3071C206.958 12.0933 207.163 11.8824 207.37 11.6743C207.784 11.2586 208.206 10.8543 208.639 10.4614C208.855 10.2648 209.074 10.0712 209.295 9.88037C209.737 9.49879 210.188 9.12869 210.649 8.77002C210.88 8.59076 211.112 8.41426 211.348 8.24072C212.759 7.1991 214.257 6.26068 215.841 5.42529C216.633 5.00751 217.447 4.61569 218.283 4.24951L218.284 4.25049C222.808 2.31194 227.827 1.32574 233.37 1.32568ZM232.152 12.7524C231.114 12.7743 230.112 12.8511 229.148 12.9858C228.763 13.0398 228.384 13.1026 228.011 13.1753C227.824 13.2116 227.639 13.2504 227.456 13.2915C227.09 13.3737 226.729 13.4653 226.376 13.5669C225.493 13.8207 224.651 14.1362 223.854 14.5151L223.349 14.7661C222.086 15.4003 220.928 16.1333 219.884 16.9673C219.781 17.0491 219.68 17.1325 219.58 17.2163C219.133 17.59 218.706 17.9823 218.303 18.395C218.093 18.61 217.888 18.8304 217.69 19.0562C217.577 19.1859 217.464 19.3173 217.354 19.4507L217.329 19.4819L217.305 19.5132C215.882 21.3734 214.823 23.3706 214.15 25.5005L214.134 25.5513L214.12 25.603C214.026 25.9597 213.939 26.3113 213.857 26.6577C213.614 27.6973 213.43 28.6907 213.307 29.6353L213.243 30.1694C213.215 30.4341 213.223 30.6913 213.262 30.937C213.474 32.2869 214.628 33.2963 215.979 33.3687C216.03 33.3714 216.082 33.3725 216.134 33.3726H248.59C248.887 33.3725 249.173 33.3262 249.442 33.2437C249.604 33.1943 249.759 33.1323 249.907 33.0571C250.04 32.9897 250.167 32.9127 250.287 32.8267C250.648 32.568 250.947 32.2298 251.158 31.8394C251.192 31.7761 251.225 31.7119 251.255 31.646C251.363 31.4053 251.438 31.1479 251.477 30.8794C251.492 30.772 251.502 30.6628 251.505 30.5522C251.511 30.3312 251.491 30.104 251.443 29.8745C250.448 25.0624 248.764 21.0985 246.267 18.1548L245.757 17.5806C244.436 16.1115 242.836 15.002 240.994 14.2192C240.731 14.1074 240.463 14.0024 240.19 13.9038C239.099 13.5093 237.931 13.2197 236.693 13.0288C236.384 12.9811 236.071 12.9403 235.753 12.9048C235.435 12.8693 235.113 12.8394 234.786 12.8159C234.134 12.769 233.465 12.7456 232.78 12.7456C232.57 12.7456 232.36 12.7481 232.152 12.7524Z" fill="black"/>
<path d="M111.466 2.96094C112.029 2.961 112.485 3.41732 112.485 3.97958V75.5538L112.48 75.6581C112.428 76.1716 111.993 76.5724 111.466 76.5724H99.7804C99.2531 76.5722 98.8193 76.1716 98.7669 75.6581L98.7617 75.5538V3.97958C98.7621 3.41726 99.218 2.96116 99.7804 2.96094H111.466Z" fill="black"/>
<path d="M16.0076 2.96094C16.5586 2.96103 17.0684 3.25519 17.3435 3.73242L50.491 61.252C50.7623 61.7227 50.7647 62.3022 50.4988 62.7764L44.0213 74.3242C43.4376 75.364 41.9447 75.3767 41.3445 74.3467L1.1082 5.27832C0.528528 4.28286 1.20596 3.04173 2.32988 2.96484L2.44023 2.96094H16.0076Z" fill="black"/>
<path d="M82.9363 2.9618L83.0467 2.96473C84.1738 3.04161 84.8507 4.28938 84.2645 5.28504L65.1785 37.702C64.5813 38.716 63.1138 38.7145 62.5193 37.6991L55.7313 26.1014C55.4519 25.624 55.4483 25.0323 55.7244 24.5526L67.7117 3.73328C67.9696 3.28561 68.4339 2.99891 68.9451 2.96473L69.0486 2.9618H82.9363Z" fill="black"/>
</svg>
