<svg width="435" height="171" viewBox="0 0 435 171" fill="none" xmlns="http://www.w3.org/2000/svg">
<path fill-rule="evenodd" clip-rule="evenodd" d="M12.4364 77.7268H0V149.236H12.4364V144.863C16.4539 148.753 21.6653 151.101 27.36 151.101C40.0666 151.101 50.3673 139.409 50.3673 124.985C50.3673 110.561 40.0666 98.8686 27.36 98.8686C21.6653 98.8686 16.4539 101.217 12.4364 105.107V77.7268ZM36.6873 124.985C36.6873 132.54 31.2585 138.665 24.5618 138.665C17.8651 138.665 12.4364 132.54 12.4364 124.985C12.4364 117.43 17.8651 111.305 24.5618 111.305C31.2585 111.305 36.6873 117.43 36.6873 124.985ZM90.4745 113.482V99.8016C83.2599 99.8016 76.6274 100.11 72.7527 107.263V100.423H60.9382V149.547H73.9964V125.296C73.9964 116.839 79.2818 113.482 82.3909 113.482H90.4745ZM174.109 77.7268H161.673V105.107C157.655 101.217 152.444 98.8686 146.749 98.8686C134.043 98.8686 123.742 110.561 123.742 124.985C123.742 139.409 134.043 151.101 146.749 151.101C152.444 151.101 157.655 148.753 161.673 144.863V149.236H174.109V77.7268ZM149.547 111.305C156.238 111.305 161.662 117.418 161.673 124.963V125.007C161.662 132.552 156.238 138.665 149.547 138.665C142.851 138.665 137.422 132.54 137.422 124.985C137.422 117.43 142.851 111.305 149.547 111.305ZM244.375 125.296C244.375 139.892 255.65 151.723 269.558 151.723C280.609 151.723 289.605 146.02 292.835 136.356L281.684 132.136C280.336 134.727 277.331 139.909 269.869 139.909C263.029 139.909 257.744 133.069 257.744 130.893V128.405H294.118C294.119 128.35 294.119 128.294 294.12 128.238L294.12 128.169L294.12 128.094C294.12 122.498 292.876 98.8689 269.558 98.8689C255.65 98.8689 244.375 110.701 244.375 125.296ZM279.818 119.389C279.507 112.86 273.911 110.062 269.247 110.062C263.029 110.062 258.055 114.103 258.055 119.389H279.818ZM184.68 123.12C184.68 109.726 194.981 98.8689 207.687 98.8689C213.092 98.8689 218.062 100.834 221.989 104.122V99.4907H234.425V144.883H234.395C234.415 145.295 234.425 145.71 234.425 146.127C234.425 159.864 223.29 171 209.553 171C197.895 171 188.111 162.98 185.416 152.157L197.407 149.089C198.616 154.511 203.456 158.563 209.242 158.563C215.939 158.563 221.367 153.135 221.367 146.438V142.62C217.544 145.605 212.811 147.371 207.687 147.371C194.981 147.371 184.68 136.513 184.68 123.12ZM221.989 123.457C221.975 130.141 216.691 135.556 210.175 135.556C203.65 135.556 198.36 130.127 198.36 123.431C198.36 116.734 203.65 111.305 210.175 111.305C216.691 111.305 221.975 116.72 221.989 123.404V123.457ZM301.582 85.1882H346.353V94.5154L327.659 110.509C339.287 111.681 347.596 120.214 347.596 130.892C347.596 142.396 337.017 151.723 323.967 151.723C310.933 151.723 300.364 142.419 300.338 130.934L309.797 128.889C309.71 129.442 309.665 130.007 309.665 130.581C309.665 137.449 316.069 143.017 323.967 143.017C331.866 143.017 338.269 137.449 338.269 130.581C338.269 123.712 331.866 118.144 323.967 118.144C322.062 118.144 320.244 118.468 318.582 119.056L314.342 112.42L314.346 112.418L314.221 112.231L314.023 111.921L331.413 94.5154H301.582V85.1882ZM399.829 85.1882H365.007L357.275 116.896L368.099 120.923C370.715 118.307 374.49 116.664 378.687 116.664C386.586 116.664 392.989 122.482 392.989 129.658C392.989 136.834 386.586 142.651 378.687 142.651C370.789 142.651 364.385 136.834 364.385 129.658C364.385 129.415 364.393 129.175 364.407 128.936L355.081 130.952C355.632 142.522 365.99 151.746 378.687 151.746C391.737 151.746 402.316 142.002 402.316 129.982C402.316 117.963 394.535 107.574 381.486 107.574C376.906 107.574 372.287 108.853 368.22 111.033L372.358 94.5154H399.829V85.1882ZM408.224 96.6922V103.843H424.08V149.858H434.029V85.1885H424.08C423.044 88.5049 419.168 96.6922 408.224 96.6922ZM113.793 100.113H100.113V149.858H113.793V100.113Z" fill="white"/>
<circle cx="106.953" cy="83.9454" r="8.70545" fill="#296F3B"/>
<path d="M205.822 10.26C264.273 10.26 301.893 74.3073 301.893 88.6091C301.893 88.6091 305.002 86.7436 305.934 86.7436C305.934 44.1491 261.164 0 210.174 0C140.531 0 109.751 55.9636 109.751 71.1982C117.42 50.8855 147.371 10.26 205.822 10.26Z" fill="url(#paint0_linear_119_302)"/>
<defs>
<linearGradient id="paint0_linear_119_302" x1="109.44" y1="85.5" x2="305.934" y2="85.8109" gradientUnits="userSpaceOnUse">
<stop offset="0.432292" stop-color="#296F3B"/>
<stop offset="1" stop-color="white"/>
</linearGradient>
</defs>
</svg>
