<?xml version="1.0" encoding="UTF-8"?>
<svg id="Layer_1" data-name="Layer 1" xmlns="http://www.w3.org/2000/svg" version="1.1" viewBox="0 0 1547 465">
  <defs>
    <style>
      .cls-1 {
        fill: #00aba9;
      }

      .cls-1, .cls-2, .cls-3 {
        stroke-width: 0px;
      }

      .cls-2 {
        fill: #06292b;
      }

      .cls-3 {
        fill: #fff;
      }
    </style>
  </defs>
  <circle class="cls-2" cx="231.9" cy="232.5" r="204.7"/>
  <g>
    <path class="cls-1" d="M346.1,212.1h-65.1l46-46c8-7.9,8-20.8,0-28.8-7.9-7.9-20.8-7.9-28.8,0l-46,46v-65.1c0-11.2-9.1-20.4-20.4-20.4s-20.4,9.1-20.4,20.4v65.1l-46-46c-7.9-7.9-20.8-7.9-28.8,0-7.9,7.9-8,20.8,0,28.8l65.2,65.2c0,.4,0,.8,0,1.2s0,1,0,1.5c-5.8,8-5.2,19.2,2,26.4,4,4,9.2,6,14.4,6s3.6-.3,5.4-.7c2.5,1.1,5.3,1.7,8.2,1.7s3.6-.3,5.4-.7l61,61c4,4,9.2,6,14.4,6s10.4-2,14.4-6c8-7.9,8-20.8,0-28.8l-46-46h65.1c11.2,0,20.4-9.1,20.4-20.4s-9.1-20.4-20.4-20.4Z"/>
    <path class="cls-3" d="M231.9,212.1c-.2,0-.3,0-.5,0-.2,0-.3,0-.5,0h-113.3c-11.2,0-20.4,9.1-20.4,20.4s9.1,20.4,20.4,20.4h65.1l-46,46c-7.9,7.9-7.9,20.8,0,28.8,4,4,9.2,6,14.4,6s10.4-2,14.4-6l46-46v65.1c0,11.2,9.1,20.4,20.4,20.4s20.4-9.1,20.4-20.4v-114.2c0-11.2-9.1-20.4-20.4-20.4Z"/>
  </g>
  <g>
    <path class="cls-1" d="M1056.5,162.4c-11.1,0-21.4,2.9-30.4,8v-36.6c0-8.7-7.1-15.8-15.8-15.8s-15.8,7.1-15.8,15.8v167.6c0,8.7,7.1,15.8,15.8,15.8s15.8-7.1,15.8-15.8v-77c0-16.8,13.7-30.4,30.4-30.4s30.4,13.7,30.4,30.4v77c0,8.7,7.1,15.8,15.8,15.8s15.8-7.1,15.8-15.8v-77c0-34.2-27.8-62-62-62Z"/>
    <path class="cls-1" d="M1213.9,163.2c-42.7,0-77.4,34.7-77.4,77.4s34.7,77.4,77.4,77.4,28-3.9,40.1-11.2c7.5-4.5,9.8-14.2,5.3-21.7-4.5-7.5-14.2-9.8-21.7-5.3-7.1,4.3-15.3,6.6-23.7,6.6-19.7,0-36.6-12.5-43-30.1h104.7c8.7,0,15.8-7.1,15.8-15.8,0-42.7-34.7-77.4-77.4-77.4ZM1170.8,224.8c6.4-17.5,23.3-30.1,43-30.1s36.6,12.5,43,30.1h-86.1Z"/>
    <path class="cls-2" d="M583.8,185.7h-30.4v-6.4c0-16.8,13.7-30.4,30.4-30.4s15.8-7.1,15.8-15.8-7.1-15.8-15.8-15.8c-34.2,0-62,27.8-62,62v122.1c0,8.7,7.1,15.8,15.8,15.8s15.8-7.1,15.8-15.8v-84.2h30.4c8.7,0,15.8-7.1,15.8-15.8s-7.1-15.8-15.8-15.8Z"/>
    <path class="cls-2" d="M956.2,118.1c-8.7,0-15.8,7.1-15.8,15.8v44.4c-12.8-9.5-28.7-15.1-45.8-15.1-42.7,0-77.4,34.7-77.4,77.4s34.7,77.4,77.4,77.4,33-5.6,45.9-15.1c.4,8.4,7.3,15.1,15.7,15.1s15.8-7.1,15.8-15.8v-168.3c0-8.7-7.1-15.8-15.8-15.8ZM894.6,286.4c-25.3,0-45.8-20.6-45.8-45.8s20.6-45.8,45.8-45.8,45.8,20.6,45.8,45.8-20.6,45.8-45.8,45.8Z"/>
    <g>
      <path class="cls-2" d="M635.3,169.2c-8.7,0-15.8,7.1-15.8,15.8v116.5c0,8.7,7.1,15.8,15.8,15.8s15.8-7.1,15.8-15.8v-116.5c0-8.7-7.1-15.8-15.8-15.8Z"/>
      <path class="cls-2" d="M635.3,152.7c10.4,0,18.8-8.4,18.8-18.8s-8.4-18.8-18.8-18.8-18.8,8.4-18.8,18.8,8.4,18.8,18.8,18.8Z"/>
    </g>
    <path class="cls-2" d="M738.1,162.4c-11.7,0-22.7,3.3-32,8.9-2.6-5.3-7.9-8.9-14.2-8.9s-15.8,7.1-15.8,15.8v123.2c0,8.7,7.1,15.8,15.8,15.8s15.8-7.1,15.8-15.8v-77c0-16.8,13.7-30.4,30.4-30.4s30.4,13.7,30.4,30.4v77c0,8.7,7.1,15.8,15.8,15.8s15.8-7.1,15.8-15.8v-77c0-34.2-27.8-62-62-62Z"/>
    <path class="cls-1" d="M1325.8,317.3c-8.7,0-15.8-7.1-15.8-15.8v-168.3c0-8.7,7.1-15.8,15.8-15.8s15.8,7.1,15.8,15.8v168.3c0,8.7-7.1,15.8-15.8,15.8Z"/>
    <path class="cls-1" d="M1442.3,162.4c-17.2,0-33,5.6-45.9,15.1-.4-8.4-7.3-15.1-15.7-15.1s-15.8,7.1-15.8,15.8v168.3c0,8.7,7.1,15.8,15.8,15.8s15.8-7.1,15.8-15.8v-44.4c12.8,9.5,28.7,15.1,45.8,15.1,42.7,0,77.4-34.7,77.4-77.4s-34.7-77.4-77.4-77.4ZM1442.3,285.7c-25.3,0-45.8-20.6-45.8-45.8s20.6-45.8,45.8-45.8,45.8,20.6,45.8,45.8-20.6,45.8-45.8,45.8Z"/>
  </g>
</svg>