<svg width="216" height="46" viewBox="0 0 216 46" fill="none" xmlns="http://www.w3.org/2000/svg">
<path d="M0 36.4714H5.33608V15.5524H19.0098V36.4714H24.3459V10.6238H5.33608V1.31429H0V36.4714ZM27.7921 23.5476C27.7921 31.2143 33.3505 37.1286 41.6881 37.1286C45.8013 37.1286 49.0252 35.7048 51.1374 33.4048H51.2486V36.4714H56.4735V10.6238H51.2486V13.6905H51.1374C48.9141 11.281 45.8013 9.96667 41.6881 9.96667C33.3505 9.96667 27.7921 15.881 27.7921 23.5476ZM42.1328 32.5286C36.9079 32.5286 33.1282 28.5857 33.1282 23.6571C33.1282 18.619 36.9079 14.7857 42.1328 14.7857C47.3577 14.7857 51.1374 18.7286 51.1374 23.6571C51.1374 28.5857 47.3577 32.5286 42.1328 32.5286ZM74.0381 37.1286C80.8194 37.1286 86.1554 33.0762 87.4894 26.8333H81.931C80.9305 30.2286 77.929 32.5286 74.0381 32.5286C69.0355 32.5286 65.367 28.5857 65.367 23.6571C65.367 18.619 69.0355 14.7857 74.0381 14.7857C77.929 14.7857 80.8194 17.0857 81.931 20.481H87.4894C86.1554 14.2381 80.8194 10.1857 74.0381 10.1857C66.034 10.1857 60.0309 16.1 60.0309 23.7667C60.0309 31.4333 66.034 37.1286 74.0381 37.1286ZM90.7133 36.4714H96.0494V27.4905H96.8276C102.72 27.4905 106.055 30.8857 106.277 36.4714H111.724C111.502 28.2571 105.61 23 96.8276 23H96.0494V22.1238H96.8276C104.943 22.1238 110.724 17.4143 111.724 10.7333H106.277C105.499 14.7857 101.941 17.6333 96.8276 17.6333H96.0494V1.42381H90.7133V36.4714ZM111.613 23.5476C111.613 31.2143 117.171 37.1286 125.509 37.1286C129.622 37.1286 132.846 35.7048 134.958 33.4048H135.069V36.4714H140.294V10.6238H135.069V13.6905H134.958C132.735 11.281 129.622 9.96667 125.509 9.96667C117.171 9.96667 111.613 15.881 111.613 23.5476ZM126.065 32.5286C120.84 32.5286 117.06 28.5857 117.06 23.6571C117.06 18.619 120.84 14.7857 126.065 14.7857C131.29 14.7857 135.069 18.7286 135.069 23.6571C135.069 28.5857 131.179 32.5286 126.065 32.5286ZM145.408 3.28571C145.408 5.14762 146.964 6.57143 148.854 6.57143C150.744 6.57143 152.301 5.14762 152.301 3.28571C152.301 1.42381 150.744 0 148.854 0C146.964 0 145.408 1.42381 145.408 3.28571ZM139.961 41.181V46H151.411V10.6238H146.075V41.181H139.961ZM154.969 23.5476C154.969 31.2143 161.194 37.1286 169.309 37.1286C177.536 37.1286 183.65 31.2143 183.65 23.5476C183.65 15.881 177.425 9.96667 169.309 9.96667C161.194 9.96667 154.969 15.881 154.969 23.5476ZM169.309 32.5286C164.084 32.5286 160.305 28.5857 160.305 23.6571C160.305 18.619 164.084 14.7857 169.309 14.7857C174.534 14.7857 178.314 18.7286 178.314 23.6571C178.314 28.5857 174.534 32.5286 169.309 32.5286ZM216 23.5476C216 15.881 210.775 9.96667 202.326 9.96667C198.102 9.96667 194.767 11.5 192.544 13.9095V1.42381H187.319V36.4714H192.544V33.1857C194.767 35.7048 198.102 37.1286 202.326 37.1286C210.664 37.1286 216 31.2143 216 23.5476ZM201.548 32.5286C196.323 32.5286 192.544 28.5857 192.544 23.6571C192.544 18.619 196.323 14.7857 201.548 14.7857C206.773 14.7857 210.553 18.7286 210.553 23.6571C210.553 28.5857 206.773 32.5286 201.548 32.5286Z" fill="#1C1C1C"/>
</svg>
