<?xml version="1.0" encoding="UTF-8"?>
<svg id="Layer_1" data-name="Layer 1" xmlns="http://www.w3.org/2000/svg" version="1.1" viewBox="0 0 163.2 33.3">
  <defs>
    <style>
      .cls-1 {
        fill: #fca203;
      }

      .cls-1, .cls-2 {
        stroke-width: 0px;
      }

      .cls-2 {
        fill: #fff;
      }
    </style>
  </defs>
  <g id="Layer_1-2" data-name="Layer 1-2">
    <circle class="cls-1" cx="29.7" cy="30.3" r="2"/>
    <circle class="cls-1" cx="16.2" cy="16.2" r="2"/>
    <circle class="cls-1" cx="2" cy="16.2" r="2"/>
    <circle class="cls-1" cx="16.2" cy="30.3" r="2"/>
    <circle class="cls-1" cx="2" cy="30.3" r="2"/>
    <circle class="cls-1" cx="16.2" cy="2" r="2"/>
    <circle class="cls-1" cx="2" cy="2" r="2"/>
    <circle class="cls-1" cx="30.3" cy="2" r="2"/>
    <path class="cls-2" d="M72,29.9c-.6,1-1.5,1.8-2.7,2.5-1.2.6-2.7.9-4.4.9-2.6,0-4.7-.6-6.4-1.9s-2.6-3-2.7-5.3h5.9c0,.9.4,1.6.9,2.1.5.5,1.2.8,2,.8s1.3-.2,1.7-.6c.4-.4.6-.9.6-1.6s-.2-1.1-.6-1.5c-.4-.4-.9-.7-1.4-1s-1.4-.6-2.4-.9c-1.5-.5-2.7-1-3.6-1.5-.9-.5-1.7-1.2-2.4-2.1-.7-.9-1-2.1-1-3.6s.3-2.6,1-3.6,1.7-1.8,2.9-2.3c1.2-.5,2.6-.8,4.2-.8,2.6,0,4.6.6,6.1,1.8,1.5,1.2,2.4,2.9,2.6,5h-6c-.1-.8-.4-1.4-.8-1.8s-1.1-.7-1.8-.7-1.2.2-1.6.5-.6.9-.6,1.5.2,1,.5,1.4c.4.4.8.7,1.4.9.5.2,1.3.5,2.4.9,1.5.5,2.7,1,3.6,1.5.9.5,1.7,1.2,2.4,2.1.7.9,1,2.2,1,3.7s-.3,2.3-.9,3.4h0Z"/>
    <path class="cls-2" d="M96,9.9v23.1h-5.6v-9.6h-8.8v9.6h-5.6V9.9h5.6v9h8.8v-9h5.6Z"/>
    <path class="cls-2" d="M105.4,9.9v23.1h-5.6V9.9h5.6Z"/>
    <path class="cls-2" d="M114.9,14.4v4.8h7.8v4.2h-7.8v5.1h8.8v4.5h-14.4V9.9h14.4v4.4h-8.8Z"/>
    <path class="cls-2" d="M132.4,28.8h7.5v4.3h-13V9.9h5.6v18.8Z"/>
    <path class="cls-2" d="M161.8,27.5c-1,1.8-2.4,3.1-4.2,4.1-1.8,1-4,1.5-6.4,1.5h-8.7V9.9h8.7c2.5,0,4.6.5,6.4,1.4,1.8,1,3.2,2.3,4.2,4.1,1,1.7,1.5,3.7,1.5,6s-.5,4.3-1.5,6h0ZM155.8,26.3c1.2-1.2,1.8-2.8,1.8-4.9s-.6-3.7-1.8-4.9c-1.2-1.2-2.9-1.7-5.1-1.7h-2.6v13.2h2.6c2.2,0,3.9-.6,5.1-1.7h0Z"/>
    <path class="cls-2" d="M31,17.9v4.2h-2.9v-12h4.7c1.4,0,2.5.4,3.2,1.1s1.1,1.7,1.1,2.8-.2,1.4-.5,2c-.3.6-.8,1-1.5,1.4-.7.3-1.4.5-2.4.5h-1.8ZM34.2,14c0-1-.6-1.6-1.7-1.6h-1.5v3.1h1.5c1.2,0,1.7-.5,1.7-1.5Z"/>
    <path class="cls-2" d="M47.1,24.2l-1.6-2.1c-.5,0-.9.1-1.3.1-1.1,0-2.1-.3-3.1-.8s-1.6-1.3-2.2-2.2-.8-2-.8-3.2.3-2.2.8-3.2,1.3-1.7,2.2-2.2c.9-.5,1.9-.8,3.1-.8s2.2.3,3.1.8,1.6,1.3,2.2,2.2.8,2,.8,3.2-.2,2-.6,2.8-1,1.6-1.7,2.1l2.7,3.2h-3.5,0ZM42,18.5c.6.6,1.3.9,2.3.9s1.7-.3,2.2-.9c.6-.6.8-1.5.8-2.5s-.3-1.9-.8-2.5c-.6-.6-1.3-.9-2.3-.9s-1.7.3-2.3.9c-.6.6-.8,1.5-.8,2.5s.3,1.9.8,2.5h0Z"/>
  </g>
</svg>