<?xml version="1.0" encoding="UTF-8"?> <svg xmlns="http://www.w3.org/2000/svg" xmlns:xlink="http://www.w3.org/1999/xlink" version="1.1" id="Layer_1" x="0px" y="0px" viewBox="0 0 95 131.6" style="enable-background:new 0 0 95 131.6;" xml:space="preserve"> <style type="text/css"> .st0{fill:#40FF7A;} </style> <g id="Logo_All_White"> <g id="logo-01"> <path id="Path_49" class="st0" d="M94.3,61.3L94.3,61.3c-0.1-0.2-0.1-0.4-0.2-0.7l0-0.2l-0.2-0.5c0-0.1-0.1-0.2-0.1-0.3 s-0.1-0.3-0.2-0.4l-0.1-0.3l-0.2-0.4c-0.1-0.1-0.1-0.2-0.2-0.4l-0.2-0.3c-0.1-0.1-0.1-0.2-0.2-0.4l-0.2-0.3 c-0.1-0.1-0.2-0.3-0.3-0.4L92,56.6c-0.1-0.2-0.2-0.3-0.3-0.4L91.6,56l-0.4-0.5l0,0c-0.3-0.3-0.5-0.6-0.8-0.9 c-3-3.1-7.1-4.8-11.4-4.8l-29.7-0.1l18.2-23.4c5.5-7.1,4.2-17.3-2.9-22.8S47.3-0.8,41.8,6.3l0,0L3.4,55.6 C-0.3,60.4-1.1,67,1.6,72.5c0,0.1,0.1,0.2,0.1,0.3s0.1,0.1,0.1,0.2c2.7,5.5,8.3,8.9,14.4,8.9l29.5,0.1l-18.1,23.4 c-5.5,7.1-4.2,17.2,2.8,22.7c2.8,2.2,6.3,3.4,9.9,3.4c0.7,0,1.4,0,2.1-0.1c4.3-0.5,8.2-2.7,10.8-6.1L91.6,76 C94.8,71.9,95.8,66.4,94.3,61.3z M78.8,56c2.2,0,4.4,0.7,6.1,2.1l0,0c0.5,0.4,0.9,0.8,1.3,1.3l0.1,0.1c0.1,0.2,0.3,0.3,0.4,0.5 c0.1,0.1,0.2,0.2,0.2,0.3c0.1,0.1,0.2,0.3,0.3,0.4s0.2,0.3,0.2,0.4s0.1,0.3,0.2,0.4s0.1,0.3,0.2,0.4s0.1,0.3,0.2,0.4l0.2,0.5 c0,0.1,0.1,0.2,0.1,0.4s0.1,0.4,0.1,0.6c0,0.2,0,0.1,0,0.2c1,5.4-2.6,10.6-8,11.6c-0.6,0.1-1.2,0.2-1.8,0.2l0,0l-20.3-0.1l12.4-16 C72.8,57.4,75.7,56,78.8,56L78.8,56z M46.6,10.1c1.6-2.1,4-3.5,6.7-3.8c0.4-0.1,0.9-0.1,1.3-0.1c2.2,0,4.4,0.7,6.1,2.1l0,0 c4.4,3.4,5.1,9.7,1.8,14.1L41.3,49.6l-24.9-0.1H16L46.6,10.1z M10,73.4c-1.2-1-2.2-2.2-2.9-3.6c0-0.1-0.1-0.2-0.1-0.3 c0,0,0,0,0-0.1c-2.1-5.1,0.3-11,5.4-13.1c1.2-0.5,2.5-0.8,3.9-0.8l0,0l20.2,0.1L24.1,71.7C20.7,76,14.4,76.8,10,73.4 C10,73.5,10,73.4,10,73.4z M28.8,75.8l0.2-0.3l15.3-19.7l21.8,0.1c0,0.1-0.1,0.1-0.2,0.2L50.6,75.8L28.8,75.8z M48.4,121.4 c-3.4,4.4-9.7,5.2-14,1.8c-4.4-3.4-5.2-9.7-1.8-14.1L53.6,82l25,0.1h0.2L48.4,121.4z"></path> </g> </g> </svg> 