<svg xmlns="http://www.w3.org/2000/svg" width="138.859" height="32" viewBox="0 0 138.859 32">
  <g id="Group_3280" data-name="Group 3280" transform="translate(-40 -24.521)">
    <path id="Path_16" data-name="Path 16" d="M503.966,73.481a6.715,6.715,0,1,1,6.715-6.715v.946H500.646V65.819h8.049a4.821,4.821,0,1,0-.616,3.465l1.613.99A6.675,6.675,0,0,1,503.966,73.481Z" transform="translate(-388.41 -28.663)" fill="#fff"/>
    <path id="Path_17" data-name="Path 17" d="M702.68,73.481a6.715,6.715,0,1,1,6.715-6.715v.946H699.36V65.819h8.049a4.821,4.821,0,1,0-.616,3.465l1.613.99A6.676,6.676,0,0,1,702.68,73.481Z" transform="translate(-558.284 -28.663)" fill="#fff"/>
    <path id="Path_18" data-name="Path 18" d="M615.587,73.45h-1.893v-7.6a3.8,3.8,0,0,0-3.667-3.905,3.535,3.535,0,0,0-2.577,1.126,4.007,4.007,0,0,0-1.09,2.779v7.6h-1.893v-7.6a5.892,5.892,0,0,1,1.611-4.084,5.411,5.411,0,0,1,3.949-1.715,5.689,5.689,0,0,1,5.56,5.8v7.6Z" transform="translate(-480.065 -28.663)" fill="#fff"/>
    <path id="Path_19" data-name="Path 19" d="M412.864,60.223v7.529a4.086,4.086,0,0,1-1.093,2.818,3.515,3.515,0,0,1-2.574,1.137,3.824,3.824,0,0,1-3.667-3.955V60.223h-1.893v7.529a5.78,5.78,0,0,0,4.614,5.761V81h1.893V73.515a5.428,5.428,0,0,0,3.006-1.647,5.971,5.971,0,0,0,1.608-4.115v-7.53Z" transform="translate(-308.383 -28.81)" fill="#fff"/>
    <path id="Path_20" data-name="Path 20" d="M805.267,73.45h-1.893v-7.6a5.892,5.892,0,0,1,1.611-4.084,5.411,5.411,0,0,1,3.949-1.715v1.893a3.535,3.535,0,0,0-2.577,1.126,4.007,4.007,0,0,0-1.09,2.779Z" transform="translate(-650.104 -28.663)" fill="#fff"/>
    <rect id="Rectangle_159" data-name="Rectangle 159" width="1.893" height="13.42" transform="translate(176.967 31.368)" fill="#fff"/>
    <path id="Path_22" data-name="Path 22" d="M260.036,60.367a5.475,5.475,0,0,0-4.591,2.553,5.475,5.475,0,0,0-4.591-2.553,5.384,5.384,0,0,0-3.929,1.706,5.863,5.863,0,0,0-1.6,4.063V73.69h1.883V66.136a3.987,3.987,0,0,1,1.084-2.766,3.517,3.517,0,0,1,2.565-1.12,3.777,3.777,0,0,1,3.649,3.886h0V73.69h1.883V66.136h0a3.656,3.656,0,1,1,7.3,0V73.69h1.883V66.136A5.661,5.661,0,0,0,260.036,60.367Z" transform="translate(-173.046 -28.933)" fill="#fff"/>
    <path id="Path_23" data-name="Path 23" d="M863.951,66.619a6.719,6.719,0,1,0-3.466,6.024V70.33a4.82,4.82,0,1,1,1.577-3.563c0,.034,0,.069,0,.1v4.566l0,0V73.99a4.97,4.97,0,1,1-9.94,0h-1.893a6.863,6.863,0,1,0,13.726,0V66.619h0Z" transform="translate(-690.158 -28.664)" fill="#fff"/>
    <circle id="Ellipse_32" data-name="Ellipse 32" cx="0.946" cy="0.946" r="0.946" transform="translate(176.967 27.411)" fill="#fff"/>
    <path id="Path_21" data-name="Path 21" d="M45.872,27.648h0q-.025-.081-.053-.162l-.014-.039c-.015-.042-.031-.084-.048-.126l-.027-.065c-.014-.034-.029-.068-.045-.1l-.037-.08c-.014-.029-.029-.058-.044-.087l-.046-.087-.044-.078c-.018-.031-.036-.061-.054-.091l-.044-.07c-.021-.032-.042-.064-.064-.1l-.041-.058q-.038-.053-.078-.106l-.031-.04q-.05-.064-.1-.125l-.01-.011c-.065-.076-.132-.151-.2-.222a3.92,3.92,0,0,0-2.784-1.17L34.889,24.8l4.425-5.7a3.948,3.948,0,0,0-6.236-4.842l-9.314,12a3.92,3.92,0,0,0-.795,2.913,3.969,3.969,0,0,0,.351,1.2l.033.069.025.048a3.951,3.951,0,0,0,3.509,2.173l7.187.029-4.408,5.677a3.944,3.944,0,0,0,3.106,6.366,4.024,4.024,0,0,0,.5-.032A3.919,3.919,0,0,0,35.9,43.215l9.314-12A3.945,3.945,0,0,0,45.872,27.648ZM42.1,26.362a2.424,2.424,0,0,1,1.491.511h0a2.437,2.437,0,0,1,.326.306l.03.034c.034.04.065.082.1.124.018.025.038.049.055.075s.046.072.069.109.04.064.058.1.036.071.054.107.035.071.051.108.027.07.041.105.03.08.043.121.017.06.025.09c.014.05.027.1.038.152,0,.015.005.03.008.046a2.43,2.43,0,0,1-2.4,2.871h-.01l-4.929-.02L40.173,27.3A2.433,2.433,0,0,1,42.1,26.362ZM34.272,15.189a2.418,2.418,0,0,1,1.621-.919,2.5,2.5,0,0,1,.313-.02,2.411,2.411,0,0,1,1.485.509h0a2.446,2.446,0,0,1,.43,3.418L32.982,24.8l-6.064-.024-.087,0ZM25.388,30.6a2.407,2.407,0,0,1-.7-.875c-.01-.023-.022-.045-.032-.068l-.006-.016A2.435,2.435,0,0,1,26.9,26.283h.01l4.9.02-3.005,3.871A2.439,2.439,0,0,1,25.388,30.6Zm4.557.564c.018-.022.037-.044.055-.067l3.719-4.79,5.3.021-.037.045-3.736,4.812Zm4.763,11.12A2.436,2.436,0,0,1,30.859,39.3l5.122-6.6,6.092.024h.058Z" transform="translate(17.063 11.783)" fill="#40ff7a"/>
  </g>
</svg>
